<svg width="129" height="94" viewBox="0 0 129 94" fill="none" xmlns="http://www.w3.org/2000/svg">
<path d="M65.9205 87.7823C80.1097 87.7823 91.6124 86.4302 91.6124 84.7622C91.6124 83.0943 80.1097 81.7422 65.9205 81.7422C51.7312 81.7422 40.2285 83.0943 40.2285 84.7622C40.2285 86.4302 51.7312 87.7823 65.9205 87.7823Z" fill="#1D1D1B"/>
<path d="M84.484 63.8628L47.7985 66.0372C46.1877 66.1177 44.8588 64.9097 44.738 63.3393L41.3554 5.59597C41.2748 3.98528 42.4829 2.65646 44.0534 2.53566L80.7389 0.361226C82.3497 0.280691 83.6786 1.48871 83.7994 3.05914L87.2223 60.7622C87.3029 62.4131 86.0948 63.7822 84.484 63.8628Z" fill="white"/>
<path d="M54.2435 76.7095C54.2435 76.7095 48.7266 77.1122 48.1226 80.0517C47.5185 82.951 50.0958 83.9576 52.2703 84.1187C54.4449 84.2798 59.9618 84.763 62.2572 83.716C64.5525 82.6691 65.8814 82.0248 65.3579 79.8504C64.8344 77.6759 64.9955 78.2397 64.7136 77.0317C64.4317 75.8236 64.7941 74.7767 63.6666 74.4948C62.539 74.213 56.7402 75.0988 56.7402 75.0988L56.0154 76.8706L54.2435 76.7095Z" fill="black"/>
<path d="M69.746 74.6969C69.746 74.6969 68.2158 77.1935 67.8936 78.5626C67.5715 79.9317 66.7258 81.5423 67.9339 82.1866C69.142 82.7906 73.9743 84.4013 78.0818 84.3208C82.1893 84.2403 84.9276 82.388 84.5249 80.5357C84.1222 78.6834 85.0082 77.3143 81.7061 76.8713C78.404 76.4284 76.5516 76.8713 76.5516 76.8713C76.5516 76.8713 75.6254 75.1801 75.0616 74.7372C74.4978 74.2942 69.746 74.6969 69.746 74.6969Z" fill="#F9C003"/>
<path d="M65.1565 18.886L60.0423 19.1679C59.0758 19.2081 58.2704 18.4833 58.1899 17.5169L57.7067 9.54397C57.6664 8.57755 58.3913 7.77221 59.3577 7.69167L64.4719 7.4098C65.4384 7.36954 66.2438 8.09435 66.3243 9.06076L66.8076 17.0337C66.8478 18.0001 66.123 18.8054 65.1565 18.886Z" fill="#F9C003"/>
<path d="M80.2165 0.241757L44.0947 2.37592C42.3632 2.49673 41.0343 3.98661 41.1148 5.71811L44.4974 63.3003C44.6183 65.0318 46.1082 66.3607 47.8398 66.2801L84.0018 64.1459C85.7334 64.0251 87.0623 62.5353 86.9818 60.8038L83.5991 3.22154C83.4783 1.49004 81.9883 0.161222 80.2165 0.241757Z" stroke="#1D1D1B" stroke-width="0.476812" stroke-miterlimit="10" stroke-linecap="round" stroke-linejoin="round"/>
<path d="M59.2374 79.3665C59.2374 79.3665 57.2239 76.3464 53.4386 76.6686C49.6533 76.9907 47.7203 79.6886 48.0425 81.8228C48.3646 83.957 52.7137 84.8428 59.5595 84.1986C66.4054 83.5543 65.0765 79.3665 64.5932 78.1182" stroke="#1D1D1B" stroke-width="0.476812" stroke-miterlimit="10" stroke-linecap="round" stroke-linejoin="round"/>
<path d="M56.4585 76.867C56.4585 76.867 55.9753 74.7329 57.7068 74.8537C57.7068 74.8537 60.9284 77.5516 62.9016 74.6523C62.9016 74.6523 64.15 75.055 64.5929 76.4241C65.0359 77.7932 63.7875 78.9609 62.66 79.2428" stroke="#1D1D1B" stroke-width="0.476812" stroke-miterlimit="10" stroke-linecap="round" stroke-linejoin="round"/>
<path d="M73.6114 79.408C73.6114 79.408 75.4638 76.1866 79.4505 76.3879C83.4372 76.549 86.095 80.777 83.5982 82.9917C81.1015 85.2064 70.4301 83.7166 68.5375 82.5488C66.6448 81.3811 67.8931 75.1799 69.7455 74.6967C69.7455 74.6967 70.8328 76.2671 72.3631 75.9852C73.8933 75.7034 74.9 74.4551 74.9 74.4551C74.9 74.4551 76.4303 75.1799 76.3497 76.7503" stroke="#1D1D1B" stroke-width="0.476812" stroke-miterlimit="10" stroke-linecap="round" stroke-linejoin="round"/>
<path d="M69.867 78.7625C69.867 78.7625 68.6589 78.7625 67.8535 78.2793" stroke="#1D1D1B" stroke-width="0.476812" stroke-miterlimit="10" stroke-linecap="round" stroke-linejoin="round"/>
<path d="M58.3094 65.1106C58.3094 65.1106 57.061 68.0098 57.4234 74.2915C57.4234 74.2915 61.0074 77.1102 62.8598 74.4929C62.8598 74.4929 62.4974 66.4394 63.3833 65.0703L58.3094 65.1106Z" fill="#1D1D1B"/>
<path d="M68.3379 65.3124C68.3379 65.3124 70.1097 67.4063 69.6668 74.1712C69.6668 74.1712 70.2708 75.7819 71.8413 75.7416C73.4118 75.7013 74.6199 74.0906 74.6199 74.0906C74.6199 74.0906 74.8213 67.0036 73.9756 64.9902L68.3379 65.3124Z" fill="#1D1D1B"/>
<path d="M65.3152 18.8843L59.6775 19.2065C58.9124 19.2467 58.2278 18.6427 58.1875 17.8776L57.664 9.22018C57.6237 8.4551 58.2278 7.77056 58.9929 7.73029L64.6306 7.40815C65.3958 7.36789 66.0803 7.97189 66.1206 8.73697L66.6441 17.3944C66.6844 18.1595 66.0803 18.8441 65.3152 18.8843Z" stroke="#1D1D1B" stroke-width="0.298011" stroke-miterlimit="10" stroke-linecap="round" stroke-linejoin="round"/>
<path d="M63.1836 7.64844L63.8279 18.7622" stroke="#1D1D1B" stroke-width="0.298011" stroke-miterlimit="10" stroke-linecap="round" stroke-linejoin="round"/>
<path d="M66.404 14.8555L58.2695 15.3387" stroke="#1D1D1B" stroke-width="0.298011" stroke-miterlimit="10" stroke-linecap="round" stroke-linejoin="round"/>
<path d="M61.1693 19.0066L60.9277 15.2617" stroke="#1D1D1B" stroke-width="0.298011" stroke-miterlimit="10" stroke-linecap="round" stroke-linejoin="round"/>
<path d="M60.5648 7.73047L60.8064 11.8377L57.9473 12.0391" stroke="#1D1D1B" stroke-width="0.298011" stroke-miterlimit="10" stroke-linecap="round" stroke-linejoin="round"/>
<path d="M63.4629 11.6384L65.9596 11.5176" stroke="#1D1D1B" stroke-width="0.298011" stroke-miterlimit="10" stroke-linecap="round" stroke-linejoin="round"/>
<path d="M42.2826 30.0391C42.2826 30.0391 32.5776 31.3276 33.0206 37.8509C33.4635 44.3742 43.7725 45.1796 43.7725 45.1796L43.0879 39.6629C43.0879 39.6629 38.5375 38.7368 38.2556 36.7234C37.9737 34.7101 43.0879 34.549 43.0879 34.549L42.2826 30.0391Z" fill="#1D1D1B"/>
<path d="M94.631 21.0974C94.631 21.0974 94.6311 18.6814 95.5572 17.1513C95.5572 17.1513 93.8659 14.3325 94.5505 12.3594C95.2351 10.3863 99.9063 12.3997 99.4634 16.6278C99.4634 16.6278 103.611 14.1312 107.88 14.5741C112.148 15.0171 109.853 18.6814 107.074 18.7619C107.074 18.7619 109.853 19.9297 108.162 22.4263C108.162 22.4263 109.652 23.6343 106.39 25.8893C103.128 28.104 100.43 28.3053 98.3761 27.9429C98.3761 27.9429 98.0137 30.3187 95.6378 29.5133C93.2619 28.708 89.4766 21.2585 94.631 21.0974Z" fill="white" stroke="#1D1D1B" stroke-width="0.357615" stroke-miterlimit="10" stroke-linecap="round" stroke-linejoin="round"/>
<path d="M94.9569 22.5868C94.9569 22.5868 94.6348 21.7009 94.6348 21.0566" stroke="#1D1D1B" stroke-width="0.357615" stroke-miterlimit="10" stroke-linecap="round" stroke-linejoin="round"/>
<path d="M96.3242 26.8594C96.3242 26.8594 97.492 27.7453 98.378 27.9063" stroke="#1D1D1B" stroke-width="0.357615" stroke-miterlimit="10" stroke-linecap="round" stroke-linejoin="round"/>
<path d="M99.0645 18.1583C99.0645 18.1583 99.3866 17.2724 99.4671 16.5879" stroke="#1D1D1B" stroke-width="0.357615" stroke-miterlimit="10" stroke-linecap="round" stroke-linejoin="round"/>
<path d="M103.451 18.6816C103.451 18.6816 105.465 18.883 107.438 18.6816" stroke="#1D1D1B" stroke-width="0.357615" stroke-miterlimit="10" stroke-linecap="round" stroke-linejoin="round"/>
<path d="M103.814 22.7092C103.814 22.7092 106.875 20.6958 108.123 22.4273" stroke="#1D1D1B" stroke-width="0.357615" stroke-miterlimit="10" stroke-linecap="round" stroke-linejoin="round"/>
<path d="M100.554 18.8047C100.554 18.8047 101.359 21.0597 100.07 22.7911C100.07 22.7911 101.238 22.8717 101.52 24.281" stroke="#1D1D1B" stroke-width="0.357615" stroke-miterlimit="10" stroke-linecap="round" stroke-linejoin="round"/>
<path d="M55.0098 25.288C55.0098 25.288 57.7481 21.0599 60.8086 25.2075" stroke="#1D1D1B" stroke-width="0.357615" stroke-miterlimit="10" stroke-linecap="round" stroke-linejoin="round"/>
<path d="M65.4785 25.207C65.4785 25.207 68.539 21.2608 71.4787 25.207" stroke="#1D1D1B" stroke-width="0.357615" stroke-miterlimit="10" stroke-linecap="round" stroke-linejoin="round"/>
<path d="M54.3242 29.9181L56.7404 28.3477" stroke="#1D1D1B" stroke-width="0.357615" stroke-miterlimit="10" stroke-linecap="round" stroke-linejoin="round"/>
<path d="M55.6914 29.2748C55.6914 29.2748 58.6311 33.825 63.6648 33.9458C68.6984 34.0666 71.316 29.0332 71.316 29.0332" stroke="#1D1D1B" stroke-width="0.357615" stroke-miterlimit="10" stroke-linecap="round" stroke-linejoin="round"/>
<path d="M70.2695 28.3867L72.6454 29.6753" stroke="#1D1D1B" stroke-width="0.357615" stroke-miterlimit="10" stroke-linecap="round" stroke-linejoin="round"/>
<path d="M56.2575 30.0781C56.2575 30.0781 53.4386 32.172 54.6467 33.7827C55.8548 35.4337 58.6736 33.5411 59.5193 32.6955C59.5193 32.6955 57.1837 31.2056 56.2575 30.0781Z" fill="#9D2E37" stroke="black" stroke-width="0.357615" stroke-miterlimit="10"/>
<path d="M57.666 31.6094L56.2969 32.6161" stroke="black" stroke-width="0.357615" stroke-miterlimit="10" stroke-linecap="round" stroke-linejoin="round"/>
<path d="M91.8933 24.7637C91.8933 24.7637 89.759 27.824 85.2891 29.2333L86.0139 34.2265C86.0139 34.2265 92.0543 32.0118 94.5108 28.9917L91.8933 24.7637Z" fill="#1D1D1B"/>
<path d="M47.2347 20.2135C47.2347 20.0525 47.1944 19.8914 47.2347 19.7303C47.275 19.5693 47.3958 19.4887 47.5569 19.529C47.6777 19.5693 47.7179 19.6498 47.7179 19.8109C47.6777 19.9719 47.6374 20.1733 47.6777 20.3344C47.7179 20.576 47.9595 20.6968 48.2012 20.576C48.2414 20.5357 48.2817 20.4954 48.2817 20.4552C48.2817 20.2538 48.322 20.0525 48.2414 19.8511C48.1609 19.6095 48.2414 19.4485 48.5233 19.4485C48.8052 19.4082 49.1274 19.4082 49.4092 19.4082C49.6106 19.4082 49.6911 19.4887 49.6911 19.6901C49.6509 20.0122 49.7314 20.2941 49.7717 20.576C49.7717 20.6565 49.8119 20.737 49.7717 20.7773C49.7314 20.8578 49.6509 20.9384 49.5301 20.8981C49.4092 20.8981 49.369 20.7773 49.369 20.6968C49.3287 20.4552 49.3287 20.2135 49.2884 19.9719C49.2884 19.8914 49.2482 19.8511 49.1676 19.8511C48.6844 19.8109 48.6844 19.8109 48.7247 20.2941C48.7649 20.8578 48.6039 21.0189 48.0804 21.0592C47.5568 21.0994 47.3555 20.8981 47.3152 20.3746C47.2347 20.2941 47.2347 20.2538 47.2347 20.2135Z" fill="#545454"/>
<path d="M47.1141 11.557C47.1141 11.718 47.1141 11.8791 47.1544 11.9999C47.1946 12.161 47.0738 12.2818 46.9127 12.2818C46.7919 12.2818 46.6711 12.2012 46.6711 12.0804C46.7114 11.718 46.6309 11.3959 46.6309 11.0335C46.6309 10.8322 46.6711 10.7516 46.8725 10.7516C47.0738 10.7114 47.2349 10.7114 47.4362 10.7114C47.7181 10.7114 47.8389 10.8322 47.9195 11.0738C47.9598 11.2348 48 11.3959 48.0403 11.557C48.1208 11.7986 48.3624 11.8791 48.6041 11.7583C48.6846 11.718 48.7249 11.5972 48.7249 11.5167C48.7249 11.3154 48.7249 11.1543 48.6443 10.953C48.6041 10.8322 48.6041 10.7516 48.7249 10.6711C48.8457 10.5906 48.9665 10.6711 49.047 10.7919C49.1678 11.0335 49.1678 11.3154 49.1678 11.5972C49.1276 12.0402 48.9262 12.2012 48.443 12.2012C48 12.2012 47.7584 11.9999 47.7181 11.557C47.7181 11.5167 47.6779 11.4362 47.6779 11.3959C47.5973 11.0335 47.4765 11.0738 47.1544 11.114C47.0738 11.114 47.0738 11.1946 47.0738 11.2348C47.0738 11.3154 47.0738 11.4362 47.1141 11.557Z" fill="#545454"/>
<path d="M46.7529 13.2058C46.7126 13.0448 46.7126 12.8837 46.7529 12.7629C46.7931 12.6018 46.8737 12.5213 46.9945 12.5616C47.1153 12.6018 47.1958 12.6824 47.1556 12.8434C47.1153 13.0448 47.1153 13.2461 47.1958 13.4474C47.2764 13.6488 47.6388 13.7696 47.7999 13.5682C47.8804 13.4474 47.8401 13.2864 47.7999 13.1253C47.7999 13.085 47.7596 13.0045 47.7596 12.9642C47.7596 12.8434 47.7999 12.7629 47.9207 12.7226C48.0415 12.6824 48.122 12.7226 48.1623 12.8434C48.2026 13.0045 48.2026 13.1656 48.2026 13.3266C48.2026 13.4877 48.2428 13.528 48.4442 13.528C48.7663 13.528 48.8469 13.4474 48.8066 13.1253C48.8066 12.9642 48.7663 12.8032 48.7261 12.6421C48.6858 12.5213 48.6858 12.4005 48.8066 12.3602C48.9274 12.32 49.0482 12.3602 49.0885 12.5213C49.2093 12.8837 49.2496 13.2461 49.1288 13.6488C49.0885 13.7696 49.0079 13.8501 48.8871 13.8904C48.6053 14.0112 48.3636 14.0112 48.0817 13.8904C48.0415 13.8501 48.0012 13.8501 47.9609 13.8904C47.6791 14.0917 47.3569 14.0917 47.075 13.9307C46.8334 13.8099 46.7931 13.5682 46.7529 13.3266C46.7529 13.3669 46.7529 13.2864 46.7529 13.2058Z" fill="#545454"/>
<path d="M48.6046 14.3352C48.7657 14.3352 48.9268 14.2949 49.0879 14.2949C49.2087 14.2949 49.3295 14.3352 49.3295 14.4963C49.3295 14.6573 49.2489 14.6976 49.1281 14.6976C48.9268 14.6976 48.6852 14.7379 48.4838 14.7379C48.3227 14.7379 48.2825 14.8184 48.3228 14.9392C48.3228 14.9795 48.3228 15.0197 48.3228 15.06C48.3228 15.1405 48.363 15.1808 48.4838 15.1808C48.7254 15.1405 48.9268 15.1405 49.1684 15.1003C49.3295 15.1003 49.41 15.1405 49.41 15.3016C49.41 15.4627 49.3295 15.5029 49.2087 15.5029C49.0073 15.5029 48.7657 15.5432 48.5644 15.5432C48.363 15.5432 48.363 15.5835 48.4033 15.7445C48.4436 15.8653 48.363 15.9056 48.2422 15.9459C48.1214 15.9861 48.0409 15.9459 48.0006 15.8251C47.9603 15.7445 48.0006 15.6237 47.9201 15.5835C47.8395 15.5432 47.7187 15.5835 47.5979 15.5835C47.4368 15.5835 47.316 15.6237 47.1549 15.6237C46.9939 15.6237 46.9133 15.5835 46.873 15.4627C46.873 15.3419 46.9536 15.2613 47.1147 15.2211C47.316 15.2211 47.5174 15.2211 47.759 15.1808C47.8395 15.1808 47.8798 15.1405 47.8798 15.06C47.8798 14.9392 47.8798 14.7781 47.8798 14.6573C47.8395 14.4963 47.8798 14.3755 48.0811 14.3755C48.2825 14.3755 48.4436 14.3352 48.6046 14.3352Z" fill="#545454"/>
<path d="M48.6454 41.3953C48.6052 41.2342 48.6052 41.0732 48.6454 40.9524C48.6857 40.7913 48.7662 40.7107 48.887 40.751C49.0079 40.7913 49.0884 40.8718 49.0481 41.0329C49.0079 41.2342 49.0079 41.4356 49.0884 41.6369C49.1689 41.8382 49.5314 41.959 49.6924 41.7577C49.773 41.6369 49.7327 41.4758 49.6924 41.3148C49.6924 41.2745 49.6522 41.194 49.6522 41.1537C49.6522 41.0329 49.6924 40.9524 49.8132 40.9121C49.9341 40.8718 50.0146 40.9121 50.0549 41.0329C50.0951 41.194 50.0951 41.355 50.0951 41.5161C50.0951 41.6772 50.1354 41.7174 50.3368 41.7174C50.6589 41.7174 50.7394 41.6369 50.6992 41.3148C50.6992 41.1537 50.6589 40.9926 50.6186 40.8316C50.5784 40.7107 50.5784 40.5899 50.6992 40.5497C50.82 40.5094 50.9408 40.5497 50.9811 40.7107C51.1019 41.0732 51.1421 41.4356 51.0213 41.8382C50.9811 41.959 50.9005 42.0396 50.7797 42.0798C50.4978 42.2006 50.2562 42.2006 49.9743 42.0798C49.9341 42.0396 49.8938 42.0396 49.8535 42.0798C49.5716 42.2812 49.2495 42.2812 48.9676 42.1201C48.726 41.9993 48.6857 41.7577 48.6454 41.5161C48.6454 41.5161 48.6454 41.4356 48.6454 41.3953Z" fill="#545454"/>
<path d="M50.4972 42.5207C50.6583 42.5207 50.8194 42.4805 50.9804 42.4805C51.1013 42.4805 51.2221 42.5207 51.2221 42.6818C51.2221 42.8429 51.1415 42.8831 51.0207 42.8831C50.8194 42.8831 50.5778 42.9234 50.3764 42.9234C50.2153 42.9234 50.1751 43.0039 50.2153 43.1247C50.2153 43.165 50.2153 43.2053 50.2153 43.2455C50.2153 43.3261 50.2556 43.3664 50.3764 43.3664C50.618 43.3261 50.8194 43.3261 51.061 43.2858C51.2221 43.2858 51.3026 43.3261 51.3026 43.4872C51.3026 43.6482 51.2221 43.6885 51.1013 43.6885C50.8999 43.6885 50.6583 43.7288 50.4569 43.7288C50.2556 43.7288 50.2556 43.769 50.2959 43.9301C50.3361 44.0509 50.2556 44.0912 50.1348 44.1314C50.014 44.1717 49.9334 44.1314 49.8932 44.0106C49.8529 43.9301 49.8932 43.8093 49.8126 43.769C49.7321 43.7288 49.6113 43.769 49.4905 43.769C49.3294 43.769 49.2086 43.8093 49.0475 43.8093C48.8864 43.8093 48.8059 43.769 48.7656 43.6482C48.7656 43.5274 48.8462 43.4469 49.0072 43.4066C49.2086 43.4066 49.4099 43.4066 49.6516 43.3664C49.7321 43.3664 49.7724 43.3261 49.7724 43.2455C49.7724 43.1247 49.7724 42.9637 49.7724 42.8429C49.7321 42.6818 49.7724 42.561 49.9737 42.561C50.1751 42.561 50.3361 42.5207 50.4972 42.5207Z" fill="#545454"/>
<path d="M47.9997 9.74451C47.7178 9.74451 47.436 9.78478 47.1943 9.78478C47.0735 9.78478 47.0333 9.82504 47.0333 9.94584C47.0333 10.0264 47.0333 10.0666 47.0333 10.1472C47.0333 10.268 46.9527 10.3888 46.8319 10.3888C46.7111 10.3888 46.5903 10.3082 46.5903 10.1874C46.55 9.78478 46.55 9.42237 46.5098 9.0197C46.5098 8.89889 46.5903 8.81836 46.7111 8.81836C46.8722 8.81836 46.9125 8.85863 46.9527 9.0197C46.993 9.3821 46.993 9.3821 47.3554 9.3821C47.6776 9.3821 47.9997 9.34183 48.3219 9.30157C48.3622 9.30157 48.4427 9.2613 48.4427 9.22103C48.5232 9.1405 48.6038 9.05996 48.7246 9.10023C48.8454 9.1405 48.9259 9.2613 48.9662 9.3821C49.0065 9.58344 48.9259 9.66397 48.7246 9.66397C48.5232 9.70424 48.2414 9.70424 47.9997 9.74451Z" fill="#545454"/>
<path d="M48.7664 36.4808C48.7664 36.6419 48.7664 36.8029 48.8067 36.9237C48.847 37.0848 48.7262 37.2056 48.5651 37.2056C48.4443 37.2056 48.3235 37.1251 48.3235 37.0043C48.3637 36.6419 48.2832 36.3197 48.2832 35.9573C48.2832 35.756 48.3235 35.6755 48.5248 35.6755C48.7262 35.6352 48.8872 35.6352 49.0886 35.6352C49.3705 35.6352 49.4913 35.756 49.5718 35.9976C49.6121 36.1587 49.6524 36.3197 49.6926 36.4808C49.7732 36.7224 50.0148 36.8029 50.2564 36.6821C50.337 36.6419 50.3772 36.5211 50.3772 36.4405C50.3772 36.2392 50.3772 36.0781 50.2967 35.8768C50.2564 35.756 50.2564 35.6755 50.3772 35.5949C50.498 35.5144 50.6188 35.5949 50.6994 35.7157C50.8202 35.9573 50.8202 36.2392 50.8202 36.5211C50.7799 36.964 50.5786 37.1251 50.0953 37.1251C49.6524 37.1251 49.4107 36.9237 49.3705 36.4808C49.3705 36.4405 49.3302 36.36 49.3302 36.3197C49.2497 35.9573 49.1289 35.9976 48.8067 36.0379C48.7262 36.0379 48.7262 36.1184 48.7262 36.1587C48.7664 36.2795 48.7664 36.4003 48.7664 36.4808Z" fill="#545454"/>
<path d="M49.6521 34.6703C49.3702 34.6703 49.0883 34.7106 48.8467 34.7106C48.7259 34.7106 48.6856 34.7508 48.6856 34.8716C48.6856 34.9522 48.6856 34.9924 48.6856 35.073C48.6856 35.1938 48.6051 35.3146 48.4843 35.3146C48.3635 35.3146 48.2427 35.234 48.2427 35.1132C48.2024 34.7106 48.2024 34.3482 48.1621 33.9455C48.1621 33.8247 48.2426 33.7441 48.3635 33.7441C48.5245 33.7441 48.5648 33.7844 48.6051 33.9455C48.6453 34.3079 48.6453 34.3079 49.0078 34.3079C49.3299 34.3079 49.6521 34.2676 49.9742 34.2273C50.0145 34.2273 50.095 34.1871 50.095 34.1468C50.1756 34.0663 50.2561 33.9857 50.3769 34.026C50.4977 34.0663 50.5783 34.1871 50.6186 34.3079C50.6588 34.5092 50.5783 34.5898 50.3769 34.5898C50.1756 34.6703 49.934 34.6703 49.6521 34.6703Z" fill="#545454"/>
<path d="M48.7259 24.763C48.4038 24.8033 48.1219 24.8033 47.7997 24.8436C47.6789 24.8436 47.5984 24.8436 47.5178 24.7228C47.4373 24.5617 47.5581 24.4409 47.7192 24.4006C48.2024 24.3604 48.6454 24.3201 49.1286 24.2798C49.5716 24.2396 49.5313 24.3201 49.491 23.8369C49.491 23.6758 49.4508 23.5147 49.4508 23.3537C49.4508 23.2329 49.5313 23.1523 49.6118 23.1523C49.7326 23.1523 49.8132 23.1926 49.8535 23.3134C49.8937 23.7161 49.934 24.0785 49.934 24.4812C49.934 24.6422 49.8132 24.7228 49.6521 24.7228C49.3702 24.7228 49.0481 24.763 48.7259 24.763Z" fill="#545454"/>
<path d="M48.9267 26.2944C49.0072 26.4555 49.0878 26.5763 49.2489 26.5763C49.4502 26.5763 49.6113 26.5763 49.8126 26.4957C50.014 26.4152 50.0945 26.2944 50.0945 26.0931C50.1348 25.8515 50.0945 25.6099 50.0543 25.3683C50.014 25.2475 49.9737 25.1267 49.8529 25.0864C49.6113 24.9656 49.3697 25.0059 49.1281 25.0461C48.967 25.0864 48.8864 25.2072 48.8059 25.3683C48.7254 25.2475 48.6448 25.0864 48.4435 25.0864C48.2421 25.0864 48.081 25.0864 47.8797 25.1669C47.6784 25.2475 47.5978 25.3683 47.5575 25.5293C47.5173 25.7307 47.5173 25.932 47.5575 26.0931C47.5978 26.2944 47.6381 26.4957 47.8394 26.5763C48.0811 26.6568 48.3227 26.6165 48.5643 26.5763C48.8059 26.5763 48.8462 26.4555 48.9267 26.2944ZM49.6918 25.8112C49.6918 26.0528 49.6516 26.1736 49.4502 26.1736C49.2489 26.1736 49.0878 26.0528 49.0475 25.8515C49.0475 25.6904 49.2086 25.4891 49.3697 25.4488C49.6113 25.4488 49.6918 25.5293 49.6918 25.8112ZM48.0408 25.932C48.0408 25.6904 48.1213 25.5293 48.3227 25.5293C48.4435 25.5293 48.6448 25.7307 48.6851 25.8917C48.6851 26.0528 48.524 26.2541 48.3629 26.2541C48.1213 26.2541 48.0408 26.1736 48.0408 25.932Z" fill="#545454"/>
<path d="M50.1752 33.462C50.4168 33.3815 50.5376 33.2607 50.5376 33.0191C50.5778 32.7775 50.5376 32.5761 50.4973 32.3345C50.457 32.1332 50.296 31.9721 50.0946 31.9721C49.5308 31.9319 48.9671 31.9721 48.4436 32.0929C48.2422 32.1332 48.1214 32.2943 48.0811 32.4956C48.0409 32.7372 48.0409 32.9385 48.1214 33.1802C48.2019 33.5023 48.363 33.6634 48.7255 33.6231C48.9268 33.6231 49.1684 33.5828 49.3698 33.5828C49.6516 33.5023 49.9335 33.5426 50.1752 33.462ZM49.7322 33.0996C49.4503 33.0996 49.1281 33.1399 48.8463 33.1399C48.7255 33.1399 48.6046 33.1801 48.5241 33.0191C48.4436 32.858 48.4436 32.6567 48.5241 32.4956C48.5644 32.4151 48.6852 32.4151 48.7657 32.4151C48.9268 32.4151 49.1281 32.3748 49.2892 32.3748C49.4906 32.3748 49.6517 32.3345 49.853 32.3345C50.0141 32.3345 50.0946 32.4151 50.1349 32.5761C50.1349 32.6164 50.1349 32.6164 50.1349 32.6567C50.1752 33.0191 50.1349 33.0593 49.7322 33.0996Z" fill="#545454"/>
<path d="M49.9732 31.5691C50.2148 31.5288 50.3356 31.408 50.3759 31.2067C50.4162 31.0053 50.4162 30.7637 50.3759 30.5624C50.3356 30.3208 50.2148 30.1195 49.9732 30.0792C49.7316 30.0389 49.5302 30.0389 49.3289 30.1195C49.1678 30.1597 49.047 30.2805 49.0067 30.4819C48.9665 30.6832 48.9665 30.8845 49.0067 31.0859C49.047 31.1664 49.0067 31.2469 48.8859 31.2469C48.6846 31.2469 48.443 31.2872 48.2416 31.2872C48.0805 31.2872 48 31.3677 48 31.5288C48 31.6899 48.1208 31.7301 48.2819 31.7301C48.5638 31.7301 48.8054 31.6899 49.0873 31.6899C49.0873 31.6899 49.0873 31.6899 49.0873 31.6496C49.3692 31.6496 49.6913 31.6093 49.9732 31.5691ZM49.3692 31.0456C49.3692 31.0053 49.3692 30.9248 49.3692 30.8845V30.8443C49.3289 30.4819 49.5302 30.4013 49.8524 30.4819C50.0537 30.5221 49.9732 30.7637 50.0135 30.9248C50.0135 31.0456 49.9732 31.1261 49.8121 31.1664C49.7316 31.1664 49.651 31.1664 49.5705 31.2067C49.4497 31.2469 49.4094 31.1664 49.3692 31.0456Z" fill="#545454"/>
<path d="M48.8056 22.4697C48.8459 22.2684 48.8459 22.1073 48.8056 21.906C48.7654 21.7852 48.8056 21.7449 48.9264 21.7449C49.1681 21.7449 49.3694 21.7047 49.611 21.7047C49.7721 21.7047 49.8526 21.6241 49.8124 21.4631C49.8124 21.3423 49.7318 21.2617 49.5707 21.2617C49.2889 21.2617 49.0472 21.302 48.7654 21.302V21.3423C48.4835 21.3423 48.2418 21.3825 47.96 21.3825C47.5573 21.4228 47.3157 21.6644 47.3559 22.1073C47.3559 22.2281 47.3962 22.3489 47.3962 22.51C47.4767 22.7516 47.5975 22.9127 47.8392 22.9127C48.0405 22.9529 48.2419 22.9127 48.4029 22.8724C48.6445 22.7919 48.7654 22.6711 48.8056 22.4697ZM47.96 22.51C47.8794 22.51 47.8392 22.4697 47.7989 22.3892C47.7586 22.2684 47.7586 22.1476 47.7586 22.0268C47.7989 21.8657 47.8794 21.8255 48.121 21.8255C48.3627 21.8255 48.3627 21.8255 48.3627 22.0268C48.3627 22.0671 48.3627 22.1073 48.3627 22.1476C48.4432 22.4697 48.2418 22.51 47.96 22.51Z" fill="#545454"/>
<path d="M48.9281 45.2624C48.9281 45.1013 48.8878 44.9402 48.9281 44.7792C48.9683 44.6181 49.0891 44.5376 49.2502 44.5778C49.371 44.6181 49.4113 44.6986 49.4113 44.8597C49.371 45.0208 49.3307 45.2221 49.371 45.3832C49.4113 45.6248 49.6529 45.7456 49.8945 45.6248C49.9348 45.5845 49.9751 45.5442 49.9751 45.504C49.9751 45.3026 50.0153 45.1013 49.9348 44.9C49.8543 44.6584 49.9348 44.4973 50.2167 44.4973C50.4986 44.457 50.8207 44.457 51.1026 44.457C51.304 44.457 51.3845 44.5376 51.3845 44.7389C51.3442 45.061 51.4248 45.3429 51.465 45.6248C51.465 45.7053 51.5053 45.7859 51.465 45.8261C51.4248 45.9067 51.3442 45.9872 51.2234 45.9469C51.1026 45.9469 51.0623 45.8261 51.0623 45.7456C51.0221 45.504 51.0221 45.2624 50.9818 45.0208C50.9818 44.9402 50.9415 44.9 50.861 44.9C50.3778 44.8597 50.3778 44.8597 50.418 45.3429C50.4583 45.9067 50.2972 46.0677 49.7737 46.108C49.2502 46.1483 49.0489 45.9469 49.0086 45.4234C48.9281 45.3832 48.9281 45.3429 48.9281 45.2624Z" fill="#545454"/>
<path d="M50.499 47.5557C50.5392 47.3543 50.5392 47.1933 50.499 46.9919C50.4587 46.8711 50.499 46.8309 50.6198 46.8309C50.8614 46.8309 51.0628 46.7906 51.3044 46.7906C51.4654 46.7906 51.546 46.7101 51.5057 46.549C51.5057 46.4282 51.4252 46.3477 51.2641 46.3477C50.9822 46.3477 50.7406 46.3879 50.4587 46.3879V46.4282C50.1768 46.4282 49.9352 46.4685 49.6533 46.4685C49.2506 46.5087 49.009 46.7503 49.0493 47.1933C49.0493 47.3141 49.0895 47.4349 49.0895 47.5959C49.1701 47.8375 49.2909 47.9986 49.5325 47.9986C49.7339 48.0389 49.9352 47.9986 50.0963 47.9583C50.3379 47.8778 50.4587 47.757 50.499 47.5557ZM49.6533 47.5557C49.5728 47.5557 49.5325 47.5154 49.4922 47.4349C49.452 47.3141 49.452 47.1933 49.452 47.0725C49.4922 46.9114 49.5728 46.8711 49.8144 46.8711C50.056 46.8711 50.056 46.8711 50.056 47.0725C50.056 47.1127 50.056 47.153 50.056 47.1933C50.1366 47.5557 49.9352 47.5959 49.6533 47.5557Z" fill="#545454"/>
<path d="M74.7024 50.4952C74.5816 50.3744 74.4608 50.2536 74.3802 50.1328C74.1386 49.8107 73.9373 49.4886 73.7762 49.0859C73.6151 48.7235 73.5346 48.3208 73.4943 47.9181C73.454 47.4752 73.4943 47.0323 73.5749 46.5893C73.6957 46.1061 73.897 45.6229 74.1789 45.2202C74.501 44.737 74.9037 44.3344 75.387 44.0525C75.7897 43.8109 76.1924 43.6095 76.6756 43.529C77.038 43.4485 77.4005 43.4082 77.8031 43.4082C78.4475 43.4485 79.0918 43.6095 79.6555 43.9317C80.2193 44.2538 80.7026 44.6565 81.065 45.2202C81.3066 45.5826 81.5079 45.9853 81.6288 46.4283C81.7093 46.6699 81.7496 46.9115 81.7496 47.1531C81.7898 47.5155 81.7496 47.8779 81.7093 48.2403C81.669 48.5624 81.5482 48.8846 81.4274 49.1664C81.3066 49.4886 81.1052 49.7704 80.9039 50.0523C80.9039 50.0523 80.9039 50.0926 80.8636 50.0926C80.8636 50.1328 80.8636 50.1328 80.8234 50.1328C80.7428 50.2134 80.7026 50.2939 80.622 50.3342L80.5817 50.3744C80.5415 50.3744 80.5817 50.3342 80.5415 50.3342C80.5415 50.1731 80.5012 50.0523 80.5012 49.8912C80.5012 49.8107 80.4609 49.7704 80.4207 49.7302C80.3804 49.6899 80.3401 49.6496 80.2999 49.6496C80.2999 49.6899 80.2999 49.6899 80.2999 49.6899C80.2999 49.9718 80.3401 50.2134 80.3401 50.4952C80.3401 50.5355 80.3401 50.5758 80.2999 50.6161C80.2596 50.6563 80.179 50.6966 80.1388 50.7369C80.1388 50.7369 80.0985 50.7771 80.0985 50.7369V50.6966C80.0985 50.455 80.0582 50.2536 80.0582 50.012C80.0582 49.8107 80.018 49.6496 80.018 49.4483C80.018 49.408 80.018 49.3678 79.9777 49.3678C79.9374 49.3678 79.8972 49.3275 79.8569 49.3275C79.8166 49.3275 79.8166 49.3275 79.8166 49.3678V49.408C79.8569 49.8912 79.8972 50.3744 79.8972 50.8577C79.8972 50.9382 79.8972 50.9785 79.8166 50.9785C79.7764 51.0187 79.6958 51.059 79.6555 51.059C79.6153 51.0993 79.6153 51.059 79.6153 51.0187V50.9785C79.575 50.4147 79.5347 49.8107 79.4945 49.247C79.4945 49.2067 79.4945 49.1664 79.4139 49.1664C79.3737 49.1664 79.3334 49.1262 79.3334 49.1262C79.2931 49.1262 79.2931 49.1262 79.2931 49.1664V49.2067C79.3334 49.851 79.3737 50.4952 79.4139 51.1395V51.1798C79.4139 51.2201 79.4139 51.2201 79.3737 51.2201C79.2931 51.2603 79.2528 51.3006 79.1723 51.3006C79.132 51.3006 79.132 51.3006 79.132 51.2603V51.2201C79.0918 50.4952 79.0515 49.8107 78.971 49.0859V49.0456C78.971 49.0054 78.971 49.0054 78.9307 49.0054C78.8904 49.0054 78.8502 49.0054 78.8099 48.9651C78.7696 48.9651 78.7696 48.9651 78.7696 49.0054V49.0456C78.8099 49.8107 78.8502 50.5355 78.9307 51.3006V51.3409C78.9307 51.3811 78.9307 51.4214 78.8904 51.4214C78.8502 51.4214 78.7696 51.4617 78.7293 51.4617C78.6891 51.4617 78.6891 51.4617 78.6488 51.4214V51.3811C78.6085 50.5758 78.528 49.8107 78.4877 49.0054C78.4877 48.9651 78.4877 48.9651 78.4877 48.9248C78.4877 48.8846 78.4877 48.8846 78.4877 48.8443C78.4877 48.7638 78.4877 48.6832 78.4877 48.6027C78.4877 48.5624 78.4877 48.5624 78.4072 48.5222C78.2058 48.4819 78.0045 48.4819 77.8031 48.4416C77.5213 48.4013 77.2394 48.3611 76.9172 48.3611C76.877 48.3611 76.8367 48.3611 76.7964 48.3611C76.7159 48.3611 76.6756 48.4013 76.6756 48.4819C76.6353 48.6027 76.6353 48.6832 76.6756 48.804C76.6756 48.8443 76.6756 48.8846 76.7159 48.9651C76.7159 49.0054 76.7561 49.0054 76.7964 49.0054C76.8367 49.0054 76.9172 49.0054 76.9575 49.0054C76.9978 49.0054 76.9978 49.0054 76.9978 48.9651C76.9978 48.9248 76.9575 48.8443 76.9978 48.804C76.9978 48.7235 77.038 48.6832 77.1186 48.7235C77.3602 48.7638 77.6018 48.7638 77.8434 48.804C77.8837 48.804 77.924 48.804 77.924 48.8846C77.924 48.9248 77.924 48.9651 77.924 49.0054C77.924 49.0456 77.924 49.0456 77.9642 49.0456C78.0448 49.0456 78.1253 49.0456 78.1656 49.0456C78.2058 49.0456 78.2058 49.0456 78.2058 49.0054C78.2058 48.9651 78.2058 48.9248 78.2058 48.8846C78.2058 48.804 78.2058 48.804 78.2864 48.804C78.2864 48.804 78.3267 48.804 78.3267 48.8443C78.3267 48.8846 78.3267 48.8846 78.3267 48.9248C78.3669 49.7302 78.4475 50.5355 78.4877 51.3811C78.4877 51.4617 78.4877 51.4617 78.4072 51.5019C78.3669 51.5019 78.3669 51.5019 78.3669 51.5019C78.2058 51.4214 78.0448 51.3811 77.8434 51.3811C77.8032 51.3811 77.8031 51.3811 77.7629 51.3409C77.7629 51.3006 77.7629 51.3006 77.7629 51.2603C77.7629 51.1798 77.7629 51.059 77.7629 50.9785C77.7629 50.9382 77.7629 50.9382 77.7629 50.8979H77.8031C77.8837 50.9382 77.924 50.9785 77.9642 51.059C77.9642 51.0993 78.0045 51.1798 78.0045 51.2201C78.0045 51.2603 78.0045 51.2603 78.0448 51.2603C78.1656 51.2603 78.2461 51.3006 78.3669 51.3409C78.4072 51.3409 78.4072 51.3409 78.4072 51.3006C78.4072 51.1395 78.3267 51.0187 78.2058 50.9382C78.2058 50.9382 78.1656 50.9382 78.1656 50.8979C78.1656 50.8979 78.1656 50.8979 78.1656 50.8577C78.1656 50.8577 78.1656 50.8577 78.2058 50.8577C78.2461 50.8577 78.2864 50.8577 78.3267 50.8577C78.3669 50.8577 78.3669 50.8577 78.3669 50.8174C78.3669 50.7369 78.3669 50.6161 78.3669 50.5355C78.3669 50.4952 78.3669 50.4952 78.3267 50.4952C77.8837 50.455 77.4005 50.4147 76.9575 50.3342C76.9172 50.3342 76.9172 50.3342 76.9172 50.3744C76.9172 50.455 76.9172 50.5758 76.9172 50.6563C76.9172 50.6966 76.9172 50.6966 76.9575 50.6966C76.9978 50.6966 76.9978 50.6966 77.038 50.6966H77.0783V50.7369C77.0783 50.9382 77.1186 51.1395 77.1186 51.3006V51.3409C77.1186 51.3811 77.1186 51.3811 77.0783 51.3811C76.9978 51.3811 76.9172 51.3811 76.8367 51.3409C76.8367 51.3409 76.7964 51.3409 76.7964 51.3006C76.7964 51.2603 76.7964 51.2603 76.7964 51.2201C76.7561 50.4952 76.7159 49.7302 76.6353 49.0054C76.6353 48.9248 76.6353 48.9248 76.5548 48.9651C76.5145 48.9651 76.4743 49.0054 76.4743 49.0054C76.434 49.0054 76.434 49.0456 76.434 49.0456V49.0859C76.4743 49.7704 76.5145 50.455 76.5548 51.1395C76.5548 51.2603 76.5548 51.2603 76.4743 51.2201C76.434 51.2201 76.3937 51.1798 76.3132 51.1798C76.2729 51.1798 76.2729 51.1395 76.2729 51.0993V51.059C76.2326 50.455 76.1924 49.8107 76.1521 49.2067C76.1521 49.1262 76.1521 49.1262 76.0716 49.1664C76.0313 49.1664 75.991 49.2067 75.991 49.2067C75.9508 49.2067 75.9507 49.247 75.9507 49.2872V49.3275C75.991 49.8912 76.0313 50.4147 76.0716 50.9785V51.0187C76.0716 51.059 76.0716 51.059 76.0313 51.059C75.9508 51.0187 75.8702 50.9785 75.7897 50.9382L75.7494 50.8979V50.8577C75.7091 50.4147 75.6689 49.9718 75.6689 49.4886V49.4483C75.6689 49.408 75.6689 49.408 75.6286 49.4483C75.5883 49.4886 75.5481 49.5288 75.5078 49.5288L75.4675 49.5691C75.4675 49.6094 75.4675 49.6094 75.4675 49.6496C75.5078 50.012 75.5078 50.3744 75.5481 50.6966C75.5481 50.7369 75.5481 50.7771 75.5481 50.7771C75.5078 50.7771 75.5078 50.7771 75.4675 50.7369C75.4272 50.6966 75.3467 50.6563 75.3064 50.6161C75.2662 50.5758 75.2662 50.5758 75.2662 50.5355C75.2662 50.2939 75.2259 50.0926 75.2259 49.851V49.8107C75.2259 49.8107 75.1856 49.8107 75.1856 49.851C75.1454 49.8912 75.1051 49.9315 75.0648 49.9718C75.0246 50.012 75.0246 50.012 75.0246 50.0523C75.0246 50.1328 75.0246 50.2536 75.0648 50.3342V50.3744C75.0648 50.3744 75.0648 50.4147 75.0246 50.3744C74.8635 50.616 74.7829 50.5758 74.7024 50.4952Z" fill="#E42332"/>
<path d="M78.3232 51.5803C78.4037 51.54 78.4037 51.54 78.4037 51.4997C78.3634 50.6541 78.2829 49.8085 78.2426 48.9629C78.2426 48.9629 78.2426 48.9629 78.2829 48.9629C78.3634 48.9629 78.4037 48.9629 78.4843 48.9629C78.5245 49.7682 78.6051 50.6139 78.6453 51.4192V51.4595C78.6453 51.4997 78.6453 51.4997 78.6856 51.4997C78.7661 51.4595 78.8064 51.4595 78.8869 51.4192C78.8869 51.4192 78.9272 51.4192 78.9272 51.3789V51.3387C78.887 50.5736 78.8064 49.7682 78.7661 49.0032C78.7661 48.9629 78.7661 48.9629 78.8064 48.9629C78.8467 48.9629 78.8869 49.0032 78.9675 49.0032C79.0078 49.0032 79.0078 49.0032 79.0078 49.0434C79.0078 49.124 79.0078 49.2045 79.0078 49.285C79.048 49.9696 79.0883 50.6139 79.1286 51.2984C79.1286 51.3387 79.1286 51.3387 79.1688 51.3387C79.2091 51.2984 79.2896 51.2984 79.3299 51.2581C79.3702 51.2581 79.3702 51.2179 79.3702 51.1776C79.3299 50.493 79.2896 49.8488 79.2494 49.1642C79.2494 49.124 79.2494 49.124 79.2896 49.124C79.3299 49.124 79.3702 49.1642 79.4105 49.1642C79.4507 49.1642 79.4507 49.2045 79.4507 49.2045C79.491 49.6072 79.491 50.0501 79.5313 50.4528C79.5313 50.6541 79.5715 50.8555 79.5715 51.0568C79.5715 51.0971 79.5715 51.0971 79.6118 51.0971C79.6923 51.0568 79.7326 51.0165 79.8131 50.9763C79.8534 50.9763 79.8534 50.936 79.8534 50.8957C79.8132 50.4125 79.7729 49.889 79.7326 49.4058C79.7326 49.4058 79.7326 49.4058 79.7326 49.3656V49.3253H79.7729C79.8131 49.3656 79.8534 49.3656 79.934 49.4058C79.9742 49.4058 79.9742 49.4461 79.9742 49.4864C80.0145 49.8488 80.0145 50.2112 80.0548 50.5736C80.0548 50.6541 80.0548 50.6944 80.0548 50.7749C80.0548 50.8152 80.0548 50.8152 80.095 50.7749C80.1756 50.7347 80.2158 50.6541 80.2964 50.6139C80.3367 50.6139 80.2964 50.5736 80.2964 50.5736C80.2964 50.2917 80.2561 50.0098 80.2561 49.6877V49.6474C80.2964 49.6474 80.2964 49.6877 80.2964 49.6877C80.3367 49.728 80.3769 49.7682 80.4575 49.8085C80.4977 49.8085 80.4977 49.8488 80.4977 49.889C80.4977 50.0501 80.538 50.2514 80.538 50.4528C80.6588 50.332 80.7393 50.2514 80.8199 50.1306C81.0615 50.3722 81.3031 50.6541 81.4642 50.936C81.6655 51.2581 81.8266 51.6205 81.9072 52.0232C81.9877 52.2648 81.9877 52.4661 82.028 52.7078C82.0682 53.1507 82.028 53.5936 81.9474 54.0366C81.8266 54.56 81.6253 55.003 81.3031 55.4459C80.9004 56.0097 80.3769 56.4526 79.7729 56.7747C79.491 56.9358 79.1688 57.0566 78.8467 57.0969C78.5245 57.1774 78.2024 57.1774 77.8802 57.1774C77.3164 57.1774 76.7527 57.0566 76.2292 56.815C75.9473 56.6942 75.7057 56.5331 75.464 56.3318C75.0613 56.0097 74.7392 55.6473 74.4573 55.2446C74.2157 54.8822 74.0546 54.4795 73.9338 54.0366C73.8533 53.795 73.813 53.5131 73.813 53.2715C73.7727 52.748 73.8533 52.2245 74.0143 51.7413C74.1754 51.2984 74.3768 50.8957 74.6587 50.5333L74.6989 50.493C74.7795 50.5736 74.86 50.6139 74.9003 50.6944V50.6541C74.9003 50.5333 74.9003 50.4125 74.86 50.2917C74.86 50.2514 74.86 50.2514 74.9003 50.2112C74.9405 50.1709 75.0211 50.0904 75.1016 50.0098C75.1016 50.0501 75.1016 50.0501 75.1016 50.0501C75.1016 50.2917 75.1419 50.5333 75.1419 50.7749C75.1419 50.8152 75.1419 50.8152 75.1822 50.8555C75.2627 50.8957 75.3432 50.936 75.3835 51.0165C75.3835 51.0165 75.3835 51.0568 75.4238 51.0165V50.9763C75.3835 50.5736 75.3835 50.2112 75.3432 49.8085C75.3432 49.7682 75.3432 49.728 75.3835 49.728C75.4238 49.6877 75.5043 49.6474 75.5446 49.6072V49.6474C75.5848 50.1306 75.6251 50.5736 75.6251 51.0568C75.6251 51.0971 75.6251 51.1373 75.7057 51.1373C75.7862 51.1776 75.8667 51.2179 75.9473 51.2179V51.1776C75.907 50.6138 75.8667 50.0098 75.8265 49.4461C75.8265 49.4058 75.8265 49.4058 75.8667 49.3656C75.907 49.3253 75.9473 49.3253 76.0278 49.285C76.0681 49.2448 76.0681 49.285 76.0681 49.3253C76.1084 49.728 76.1084 50.1306 76.1486 50.5333C76.1486 50.7749 76.1889 51.0568 76.1889 51.2984C76.1889 51.3387 76.1889 51.3387 76.2292 51.3387C76.3097 51.3387 76.35 51.3789 76.4305 51.3789C76.4708 51.3789 76.4708 51.3789 76.4708 51.3387C76.4708 51.0568 76.4305 50.8152 76.4305 50.5333C76.3902 50.0904 76.35 49.6072 76.35 49.1642C76.35 49.124 76.35 49.124 76.3902 49.124C76.4708 49.124 76.5111 49.0837 76.5916 49.0434C76.5916 49.0837 76.5916 49.0837 76.5916 49.0837C76.6319 49.8488 76.7124 50.6138 76.7527 51.3789C76.7527 51.4192 76.7527 51.4192 76.7929 51.4192C76.8735 51.4192 76.9137 51.4595 76.9943 51.4595C77.0346 51.4595 77.0346 51.4595 77.0346 51.4192C77.0346 51.2179 76.9943 50.9763 76.9943 50.7749H77.0346C77.0748 50.7749 77.1554 50.7749 77.1956 50.7749C77.1956 50.7749 77.2359 50.7749 77.2359 50.8152V50.8555C77.2359 51.0165 77.2762 51.2179 77.2762 51.3789C77.2762 51.4192 77.2762 51.4192 77.2359 51.4192C77.0346 51.54 76.9137 51.7413 76.9137 51.9427C76.9137 52.0635 76.9137 52.2245 76.954 52.3453C76.954 52.3856 76.954 52.3856 76.9943 52.4259C77.0346 52.5064 77.0748 52.5467 77.1554 52.5467C77.2359 52.5467 77.3164 52.5467 77.4373 52.5869C77.3164 52.4259 77.2762 52.2245 77.3567 52.0232C77.397 51.8621 77.5178 51.7816 77.6789 51.7816C77.8802 51.7413 78.0816 51.7816 78.2426 51.9024C78.3634 51.9829 78.444 52.1037 78.4843 52.2245C78.5245 52.3856 78.4843 52.5467 78.444 52.6675C78.444 52.7077 78.444 52.7078 78.4843 52.7078C78.5648 52.7078 78.6856 52.748 78.7661 52.748C78.8064 52.748 78.8064 52.748 78.8064 52.7078C78.887 52.3856 78.887 52.1037 78.7259 51.8219C78.5648 51.7816 78.4843 51.7011 78.3232 51.5803C78.3634 51.6205 78.3232 51.6205 78.3232 51.5803Z" fill="#F8B033"/>
<path d="M77.1574 44.8563C77.3185 44.8966 77.4393 44.9771 77.6004 45.0174C77.8017 45.0979 78.0031 45.1784 78.2044 45.2187C78.2447 45.2187 78.2447 45.259 78.2447 45.259C78.2447 45.4603 78.285 45.6616 78.285 45.863C78.285 45.9032 78.285 45.9032 78.2447 45.9032C77.9628 45.863 77.7212 45.863 77.4393 45.8227C77.1574 45.7824 76.9158 45.7824 76.6339 45.7422C76.5534 45.7422 76.5131 45.7422 76.4326 45.7019C76.3923 45.7019 76.3923 45.7019 76.3923 45.6616C76.3923 45.5408 76.3923 45.4603 76.352 45.3395C76.352 45.2992 76.352 45.2992 76.3923 45.2992C76.7145 45.3395 77.0366 45.3798 77.3588 45.42C77.4796 45.42 77.6004 45.4603 77.7212 45.4603H77.7615C77.6406 45.42 77.5601 45.3798 77.4393 45.3395C77.0769 45.2187 76.7547 45.0979 76.3923 44.9771C76.352 44.9771 76.352 44.9368 76.352 44.9368C76.352 44.816 76.352 44.6952 76.3118 44.5744C76.3118 44.5744 76.3118 44.5342 76.352 44.5342C76.6339 44.4939 76.9561 44.4536 77.238 44.4134C77.399 44.4134 77.5198 44.3731 77.6809 44.3731C77.399 44.3328 77.1574 44.3328 76.8755 44.2925C76.7144 44.2925 76.5131 44.2523 76.352 44.2523C76.3118 44.2523 76.3118 44.2523 76.3118 44.212C76.3118 44.0912 76.3118 44.0107 76.2715 43.8899C76.2715 43.8496 76.2715 43.8496 76.3118 43.8496C76.6339 43.8899 76.9158 43.9301 77.238 43.9301C77.5198 43.9704 77.8017 44.0107 78.1239 44.0107C78.1642 44.0107 78.1641 44.0107 78.1641 44.0509C78.1641 44.2523 78.2044 44.4536 78.2044 44.655C78.2044 44.6952 78.2044 44.6952 78.1641 44.6952C77.842 44.7355 77.5601 44.7758 77.238 44.816C77.238 44.816 77.1977 44.816 77.1574 44.8563Z" fill="white"/>
<path d="M76.6327 46.7477C76.5119 46.6269 76.4314 46.5061 76.4314 46.3451C76.3911 46.1034 76.5119 45.9021 76.7938 45.8618C77.116 45.8216 77.3173 46.0632 77.3978 46.3048C77.4381 46.4659 77.4381 46.5867 77.4381 46.7477C77.4381 46.788 77.4381 46.788 77.4784 46.788C77.5992 46.8283 77.6797 46.7075 77.6797 46.6269C77.6797 46.4659 77.6395 46.2645 77.5992 46.1034C77.5992 46.0632 77.5589 46.0632 77.5589 46.0229H77.5992C77.6797 46.0632 77.8005 46.0632 77.8811 46.1034C77.9213 46.1034 77.9213 46.1034 77.9213 46.1437C77.9616 46.2645 78.0019 46.3451 78.0019 46.4659C78.0019 46.5867 78.0422 46.7477 78.0019 46.8685C78.0019 46.9491 77.9616 47.0296 77.9213 47.0699C77.8408 47.1907 77.72 47.2309 77.5589 47.1907C77.2368 47.1504 76.9146 47.1101 76.5925 47.0699C76.5522 47.0699 76.5522 47.0699 76.5522 47.0296C76.5522 46.9491 76.5522 46.8283 76.5522 46.7477C76.5522 46.7075 76.5522 46.7075 76.5925 46.7075C76.5522 46.7477 76.5925 46.7477 76.6327 46.7477Z" fill="white"/>
<path d="M77.5599 49.125C77.7612 49.1653 77.9223 49.2055 78.0834 49.3666C78.2042 49.4874 78.2445 49.6887 78.2445 49.8498C78.2445 49.9706 78.2445 50.1317 78.1639 50.2525C78.0834 50.3733 77.9626 50.4135 77.8015 50.4538C77.6807 50.4538 77.6002 50.4538 77.4794 50.4538C77.4391 50.4538 77.4391 50.4538 77.3988 50.4538C77.3988 50.4538 77.3988 50.4135 77.3988 50.3733C77.3988 50.1317 77.3585 49.8498 77.3585 49.6082C77.3585 49.5679 77.3585 49.5679 77.3183 49.5679C77.1975 49.5679 77.0767 49.6887 77.0767 49.8498C77.0767 49.9706 77.0767 50.1317 77.1169 50.2525C77.1572 50.333 77.1975 50.3733 77.2377 50.4538C77.1169 50.4538 77.0364 50.4136 76.9558 50.4136C76.9156 50.4136 76.8753 50.3733 76.8753 50.333C76.835 50.2525 76.835 50.2122 76.835 50.1317C76.7948 49.9303 76.7948 49.7693 76.8753 49.5679C76.9559 49.3263 77.1169 49.2055 77.3585 49.1653C77.3988 49.1653 77.4391 49.1653 77.4794 49.1653C77.5196 49.125 77.6002 49.1653 77.6404 49.1653C77.5196 49.125 77.5599 49.125 77.5599 49.125Z" fill="white"/>
<path d="M78.3249 51.581C78.4054 51.6213 78.4859 51.6615 78.5262 51.7421C78.647 51.8629 78.6873 51.9837 78.7276 52.1447C78.7678 52.3863 78.7678 52.5877 78.6873 52.789C78.6873 52.8293 78.6873 52.8293 78.647 52.8293C78.5262 52.8293 78.4457 52.789 78.3249 52.789C78.2846 52.789 78.2846 52.789 78.2846 52.7487C78.3651 52.5877 78.3651 52.4266 78.3249 52.2655C78.2846 52.1045 78.2041 51.9837 78.043 51.9434C77.8819 51.8629 77.7208 51.8226 77.5597 51.8629C77.3584 51.9031 77.2376 51.9837 77.1973 52.185C77.157 52.3058 77.1973 52.4266 77.2376 52.5474C77.2779 52.5877 77.2779 52.6682 77.3181 52.7085C77.2376 52.7085 77.1973 52.7085 77.1168 52.7085C77.0765 52.7085 77.0362 52.7085 76.996 52.7085C76.9557 52.7085 76.9154 52.6682 76.8752 52.6279C76.8349 52.5877 76.8349 52.5071 76.8349 52.4669C76.7946 52.3058 76.7946 52.1447 76.8349 52.0239C76.8752 51.8226 76.996 51.6615 77.1973 51.5407L77.2376 51.5005C77.3181 51.4602 77.3987 51.4602 77.4792 51.4199C77.5195 51.4199 77.6 51.4199 77.6403 51.4199C77.6805 51.4199 77.6805 51.4199 77.7208 51.4199C77.9222 51.4602 78.1235 51.5005 78.3249 51.581Z" fill="white"/>
<path d="M76.552 47.5941C76.552 47.4733 76.552 47.3525 76.5923 47.2317C76.5923 47.1914 76.6325 47.1914 76.6325 47.1914C76.7131 47.1914 76.7936 47.2317 76.8741 47.2317C76.9144 47.2317 76.9144 47.2317 76.9144 47.2719C76.8741 47.433 76.8741 47.5538 76.8741 47.7149C76.8741 47.7954 76.9144 47.8759 77.0352 47.8759C77.0755 47.8759 77.1158 47.8759 77.156 47.8357C77.1963 47.7954 77.1963 47.7551 77.1963 47.6746C77.1963 47.6343 77.2366 47.5538 77.2366 47.5135C77.2768 47.3927 77.3574 47.3122 77.4782 47.3122C77.599 47.3122 77.7198 47.3122 77.8406 47.3525C77.9614 47.3927 78.0017 47.5135 78.042 47.6343C78.0822 47.8759 78.1225 48.0773 78.0822 48.3189C78.0822 48.3592 78.0822 48.3592 78.042 48.3592C77.9614 48.3592 77.8809 48.3189 77.7601 48.3189C77.7198 48.3189 77.7198 48.3189 77.7198 48.2786C77.7198 48.1578 77.7198 48.0773 77.7198 47.9565C77.7198 47.9162 77.6795 47.8357 77.6795 47.7954C77.6393 47.7551 77.599 47.7149 77.5185 47.7954C77.4782 47.8357 77.4379 47.876 77.4379 47.9162C77.4379 47.9968 77.3976 48.037 77.3976 48.1176C77.3574 48.3189 77.1963 48.3592 77.0352 48.3592C76.9547 48.3592 76.9144 48.3592 76.8339 48.3189C76.6728 48.2786 76.5923 48.1578 76.5117 47.9968C76.552 47.876 76.552 47.7551 76.552 47.5941Z" fill="white"/>
<path d="M78.4876 49.0052C78.4071 49.0052 78.3265 49.0051 78.246 48.9649C78.1655 48.9649 78.1654 48.9649 78.1654 49.0454C78.1654 49.0857 78.1654 49.0857 78.1654 49.126C78.1654 49.1662 78.1655 49.1662 78.1252 49.1662C78.0446 49.1662 77.9641 49.1662 77.8836 49.126C77.8433 49.126 77.8433 49.126 77.8433 49.0857C77.8433 49.0454 77.8433 48.9649 77.8433 48.9246C77.8433 48.8844 77.8433 48.8843 77.803 48.8843C77.5614 48.8441 77.3198 48.8441 77.0782 48.8038C77.0379 48.8038 76.9976 48.8038 76.9976 48.8843C76.9574 48.9649 76.9976 49.0454 77.0379 49.126C76.9574 49.126 76.9171 49.126 76.8768 49.126C76.7963 49.126 76.756 49.0857 76.7157 49.0052C76.6755 48.8844 76.6755 48.7635 76.7157 48.6025C76.756 48.4817 76.7963 48.4414 76.9171 48.4414C77.3198 48.4817 77.7628 48.5219 78.1654 48.5622C78.2863 48.5622 78.3668 48.6025 78.4876 48.6025C78.5279 48.6025 78.5279 48.6025 78.5279 48.6427C78.4876 48.7233 78.4876 48.8441 78.4876 49.0052C78.4876 48.9649 78.4876 48.9649 78.4876 49.0052Z" fill="white"/>
<path d="M77.1961 50.9363C77.1156 50.9363 77.035 50.9363 76.9545 50.8961C76.9142 50.8961 76.874 50.8961 76.7934 50.8961C76.7934 50.8961 76.7532 50.8961 76.7532 50.8558C76.7532 50.735 76.7532 50.6142 76.7129 50.4934C76.7129 50.4531 76.7129 50.4531 76.7532 50.4531C77.2364 50.4934 77.6794 50.5337 78.1626 50.6142C78.2431 50.6142 78.2431 50.6142 78.2431 50.6947C78.2431 50.7753 78.2431 50.8961 78.2431 50.9766C78.2431 51.0169 78.2431 51.0169 78.2029 51.0169C78.1626 51.0169 78.0821 51.0169 78.0015 50.9766C78.0015 51.0169 78.0418 51.0169 78.0418 51.0169C78.2029 51.0974 78.2431 51.2585 78.2431 51.4195C78.2431 51.4195 78.2431 51.4598 78.2029 51.4195C78.0821 51.339 77.9612 51.339 77.8404 51.2987C77.8002 51.2987 77.8002 51.2987 77.8002 51.2585C77.8002 51.1377 77.7599 51.0571 77.6794 50.9766C77.6391 50.9363 77.5988 50.9363 77.5585 50.9363C77.478 50.9363 77.3975 50.9363 77.3169 50.8961C77.2364 50.8961 77.1559 50.8961 77.0753 50.8558C77.1961 50.9363 77.1961 50.9363 77.1961 50.9363Z" fill="white"/>
<path d="M77.4797 50.9355C77.5603 50.9355 77.6408 50.9355 77.7213 50.9758C77.7213 51.0563 77.7213 51.0966 77.7213 51.1771C77.7213 51.2577 77.7213 51.3382 77.7213 51.4188C77.6408 51.4188 77.5603 51.4188 77.4797 51.4188V51.3785C77.4797 51.2577 77.4797 51.1369 77.4395 51.0161C77.4395 50.9758 77.4394 50.9758 77.4797 50.9355Z" fill="#F8B134"/>
<path d="M77.558 49.1252C77.4775 49.1252 77.3969 49.1252 77.3164 49.1252C77.3164 49.0849 77.3164 49.0044 77.3164 48.9641C77.3164 48.9238 77.3164 48.9238 77.3567 48.9238C77.3969 48.9238 77.4372 48.9238 77.5178 48.9238C77.558 48.9238 77.558 48.9238 77.558 48.9641C77.558 49.0044 77.558 49.0849 77.558 49.1252Z" fill="#F8B034"/>
<path d="M77.2775 55.9686C77.1164 55.8478 77.0762 55.6867 77.0762 55.5257C77.0762 55.3646 77.1567 55.2438 77.2775 55.1632C77.4789 55.0424 77.6802 55.0022 77.9218 55.0424C78.1635 55.0827 78.3648 55.1632 78.4856 55.3646C78.6064 55.5257 78.6467 55.6867 78.6064 55.8478C78.5661 55.9283 78.5259 56.0089 78.4453 56.0894C78.4856 56.0894 78.5259 56.0894 78.5661 56.0894C78.687 56.0894 78.8078 56.1297 78.9688 56.1297C79.0091 56.1297 79.0091 56.1297 79.0091 56.1699C79.0091 56.2907 79.0091 56.3713 79.0494 56.4921C79.0494 56.5323 79.0494 56.5323 79.0091 56.5323C78.8078 56.4921 78.6064 56.4921 78.4051 56.4518C78.1634 56.4115 77.8816 56.4115 77.6399 56.3713C77.5191 56.3713 77.3581 56.331 77.2373 56.331C77.197 56.331 77.197 56.331 77.197 56.2907C77.197 56.1699 77.197 56.0894 77.1567 55.9686C77.1567 55.9283 77.1567 55.9283 77.197 55.9283C77.197 55.9686 77.2372 55.9686 77.2775 55.9686Z" fill="white"/>
<path d="M77.0742 53.6364C76.9937 53.5558 76.9132 53.435 76.9132 53.3142C76.8729 53.1934 76.9132 53.0726 76.9534 52.9518C77.034 52.831 77.1145 52.7908 77.2353 52.7505C77.5575 52.7102 77.7991 52.9518 77.8394 53.2337C77.8796 53.3948 77.8796 53.5156 77.8796 53.6766C77.8796 53.7169 77.8796 53.7169 77.9199 53.7169C78.0004 53.7169 78.081 53.6766 78.081 53.5558C78.081 53.3948 78.0407 53.1934 78.0004 53.0324V52.9921C78.0004 52.9921 77.9602 52.9518 78.0004 52.9518H78.0407C78.1213 52.9518 78.2018 52.9921 78.3226 52.9921C78.3629 52.9921 78.3629 52.9921 78.3629 53.0324C78.4031 53.1532 78.4434 53.274 78.4434 53.3948C78.4434 53.5156 78.4837 53.6364 78.4434 53.7572C78.4031 53.878 78.3629 53.9988 78.2421 54.0793C78.1615 54.1196 78.081 54.1196 78.0004 54.1196C77.638 54.0793 77.3159 54.0391 76.9534 53.9988C76.9132 53.9988 76.9132 53.9988 76.9132 53.9585C76.9132 53.878 76.9132 53.7572 76.9132 53.6766C76.9132 53.6364 76.9132 53.6364 76.9534 53.6364C77.034 53.6364 77.034 53.6364 77.0742 53.6364Z" fill="white"/>
<path d="M78.3257 54.6829C78.366 54.7231 78.4465 54.7634 78.4868 54.8037C78.5673 54.8842 78.6076 54.9648 78.6076 55.0453C78.6076 55.0856 78.6076 55.0856 78.5673 55.0856C78.4868 55.0856 78.366 55.0453 78.2855 55.0453C78.2452 55.0453 78.2452 55.0453 78.2452 55.005C78.2452 54.8842 78.2049 54.7634 78.0841 54.6829C78.0036 54.6426 77.8828 54.6023 77.8022 54.6023C77.5606 54.5621 77.319 54.5621 77.1176 54.5218C77.0774 54.5218 77.0774 54.5218 77.0774 54.4815C77.0774 54.3607 77.0774 54.2399 77.0371 54.1594C77.0371 54.1191 77.0371 54.1191 77.0774 54.1191C77.3995 54.1594 77.6814 54.1997 78.0036 54.1997C78.1647 54.1997 78.3257 54.2399 78.5271 54.2399C78.5673 54.2399 78.5673 54.2399 78.5673 54.2802C78.5673 54.401 78.5673 54.4815 78.5673 54.6023C78.5673 54.6426 78.5673 54.6426 78.5271 54.6426C78.4465 54.7232 78.366 54.7231 78.3257 54.6829Z" fill="white"/>
<path d="M77.4772 50.9368C77.4772 51.0978 77.5175 51.2589 77.5175 51.42C77.4369 51.42 77.3564 51.4602 77.2356 51.5005V51.4602C77.2356 51.2589 77.1953 51.0978 77.1953 50.8965C77.2759 50.9368 77.3564 50.9368 77.4772 50.9368Z" fill="#E52532"/>
<path d="M77.3576 56.9769C77.2368 56.9769 77.1562 56.8964 77.1562 56.7756C77.1562 56.6548 77.2368 56.5742 77.3576 56.5742C77.4784 56.5742 77.5589 56.6548 77.5589 56.7756C77.5589 56.8561 77.4784 56.9769 77.3576 56.9769Z" fill="#FFFFFD"/>
<path d="M76.7942 46.4667C76.7942 46.3861 76.7942 46.3459 76.8345 46.3056C76.8747 46.2653 76.9553 46.2653 76.9955 46.3056C77.0761 46.3861 77.1163 46.4667 77.1566 46.5875C77.1566 46.6277 77.1969 46.668 77.1566 46.7485C77.1566 46.7888 77.1566 46.7888 77.1163 46.7888C77.0761 46.7888 76.9955 46.7888 76.9553 46.7485C76.8344 46.7083 76.7942 46.6277 76.7539 46.5069C76.7942 46.5069 76.7942 46.4667 76.7942 46.4667Z" fill="#E52532"/>
<path d="M77.6406 49.851C77.6406 49.7704 77.6406 49.6899 77.6406 49.6496C77.6406 49.6496 77.6406 49.6094 77.6809 49.6094C77.8017 49.6094 77.9225 49.6899 77.9628 49.8107C78.003 49.9718 77.9225 50.0926 77.7212 50.0926C77.6809 50.0926 77.6809 50.0926 77.6809 50.0523C77.6406 49.9718 77.6406 49.8912 77.6406 49.851Z" fill="#E52532"/>
<path d="M77.963 56.0107C77.8019 56.0107 77.6408 55.9704 77.52 55.8496C77.4797 55.8094 77.4395 55.7288 77.4395 55.6483C77.4395 55.5677 77.52 55.5275 77.5603 55.4872C77.7616 55.4067 77.963 55.4469 78.1643 55.5677L78.2046 55.608C78.3254 55.7691 78.2448 55.9302 78.0435 55.9704C78.0435 56.0107 78.0032 56.0107 77.963 56.0107Z" fill="#F8B134"/>
<path d="M77.2383 53.3522C77.2383 53.2716 77.2383 53.2314 77.2785 53.2314C77.3591 53.1911 77.3994 53.1911 77.4799 53.2314C77.5202 53.2716 77.5604 53.3119 77.6007 53.3924C77.641 53.473 77.641 53.5535 77.641 53.634C77.641 53.6743 77.641 53.7146 77.5604 53.7146C77.4799 53.7146 77.3994 53.7146 77.3591 53.6743C77.3188 53.5535 77.2786 53.473 77.2383 53.3522Z" fill="#F8B134"/>
<path d="M77.3564 56.6133C77.4369 56.6133 77.5175 56.6535 77.5175 56.7341C77.5175 56.8146 77.4772 56.8952 77.3564 56.8952C77.2758 56.8952 77.1953 56.8549 77.1953 56.7341C77.1953 56.6938 77.2758 56.6133 77.3564 56.6133Z" fill="#F8B134"/>
<path d="M77.3591 56.6953C77.3994 56.6953 77.4396 56.6953 77.4396 56.6953C77.4396 56.7356 77.4396 56.7758 77.4396 56.8161C77.4396 56.8564 77.3994 56.8564 77.3591 56.8161C77.3591 56.7758 77.3188 56.7758 77.3188 56.8161C77.3188 56.8161 77.3188 56.8564 77.2785 56.8161V56.7759C77.2785 56.7759 77.3188 56.7758 77.3188 56.7356C77.3188 56.6953 77.2785 56.7356 77.2785 56.7356H77.2383C77.2383 56.6953 77.2383 56.6953 77.2785 56.6953C77.3188 56.6953 77.3591 56.6953 77.3591 56.6953Z" fill="#FFFDFB"/>
<path d="M77.3977 56.7763C77.3574 56.8166 77.3574 56.7763 77.3574 56.7763C77.3574 56.736 77.3574 56.736 77.3977 56.7763Z" fill="#F9B33B"/>
<path d="M127.494 78.921C127.293 78.6392 127.011 78.3573 126.729 78.1157C125.843 77.4312 124.675 77.1493 123.548 77.3506C123.306 77.3909 123.064 77.4312 122.863 77.4714C122.863 76.3037 122.903 74.6527 123.024 72.4783H124.393C126.407 72.4783 128.058 70.9079 128.138 68.8542L128.34 63.7403C128.38 62.7336 128.018 61.7269 127.293 61.0021C126.608 60.2773 125.601 59.8343 124.595 59.8343H123.588L124.071 55.7271V55.4855C124.111 53.6332 122.621 51.6601 119.843 51.5795C118.071 51.5393 111.185 51.6198 110.903 51.6198H110.702C109.453 51.7004 107.077 52.8278 106.836 56.2908C106.755 57.3378 106.675 58.7471 106.634 59.9954H106.191C104.42 59.9954 102.97 61.2034 102.567 62.8141C102.487 62.7739 102.446 62.6933 102.366 62.6531C97.2919 58.8277 89.3186 58.7471 78.6471 62.4517C76.835 63.096 75.788 64.9483 76.231 66.8006C75.9088 66.5187 75.5464 66.2771 75.1437 66.0758C76.6739 64.5456 77.6001 62.5323 77.6001 60.2773C77.6001 55.6465 73.5732 51.8614 68.6603 51.8614C66.6871 51.8614 64.875 52.4654 63.4253 53.4721C63.3045 53.2305 63.1434 53.0292 62.942 52.8278C62.2575 52.103 61.3312 51.7003 60.3648 51.7003L40.2703 51.6601C40.2703 51.6601 40.2703 51.6601 40.23 51.6601C38.7401 51.6601 37.3709 52.2238 36.3239 53.2708C35.2769 54.3177 34.7131 55.7271 34.7131 57.1767V60.7202C33.4245 57.4183 30.9278 54.8009 27.5049 53.1902C21.5853 50.4118 13.6119 51.1366 6.20231 55.0828C4.34992 56.0895 3.38345 58.2237 3.90695 60.237L5.39692 66.1966C5.67881 67.2838 6.40366 68.2099 7.4104 68.6931C8.41714 69.1764 9.58495 69.2166 10.5917 68.7737C13.9743 67.2838 17.1153 66.7603 18.9677 67.3241C17.961 69.4985 12.1219 74.9748 5.43719 77.9949C4.02776 78.6392 3.10156 80.0888 3.10156 81.6995C3.10156 82.3438 3.14183 86.4108 3.14183 88.7463C3.1821 91.0818 5.07477 92.9743 7.4104 92.9743L32.9815 92.9341C34.2299 92.9341 35.3172 92.3703 36.042 91.4844C36.9279 92.4106 38.1763 92.9743 39.5455 92.9743H48.0423C50.7001 92.9743 52.8747 90.7999 52.8747 88.1423V80.6928H57.264C58.4721 80.6928 59.5594 80.1693 60.2842 79.3237V88.8268C60.2842 91.122 62.1769 93.0146 64.4723 93.0146H73.4121C75.345 93.0146 76.9558 91.726 77.4391 89.9543C77.5196 90.0348 77.5599 90.0751 77.6404 90.1556C79.4123 91.7663 81.909 92.9743 84.8084 92.9743C86.9426 92.9743 89.3185 92.33 91.775 90.7194C91.9763 91.0818 92.218 91.4039 92.5401 91.726C93.3455 92.5314 94.4328 92.9743 95.6006 92.9743L103.373 92.8938C105.708 92.8535 107.601 90.961 107.601 88.6255V87.8604C108.406 89.3905 109.494 90.5986 110.943 91.4844C112.755 92.5717 114.97 93.1354 117.709 93.1354C120.004 93.1354 122.662 92.7327 125.682 91.9274C126.729 91.6455 127.575 91.0012 128.098 90.1153M89.8421 80.6525C89.8421 80.572 89.8823 80.5317 89.8823 80.4915C89.9226 80.4512 90.0837 80.3707 90.3656 80.3707C90.3253 80.4109 90.285 80.4915 90.2447 80.5317C90.2447 80.5317 90.1642 80.6123 89.8421 80.6525ZM78.4055 73.3239C78.1639 73.485 77.9223 73.6863 77.6807 73.8876V71.5119C77.7612 71.7535 77.8015 71.9951 77.882 72.2367C78.0028 72.6393 78.1639 73.0017 78.4055 73.3239ZM34.7534 77.4311C34.2299 77.1895 33.6258 77.0285 33.0218 77.0285H31.1291C32.5386 75.4178 33.8675 73.485 34.7534 71.1897V77.4311ZM61.0494 67.5657C60.8883 67.2435 60.6869 66.9617 60.4051 66.7201C61.0494 66.5992 61.6131 66.3576 62.0964 65.955C62.2172 66.0758 62.2977 66.1563 62.4185 66.2771C61.895 66.5992 61.4118 67.0422 61.0494 67.5657Z" fill="black"/>
<path d="M30.9671 78.1973C35.1483 78.1973 38.5378 75.1866 38.5378 71.4727C38.5378 67.7588 35.1483 64.748 30.9671 64.748C26.786 64.748 23.3965 67.7588 23.3965 71.4727C23.3965 75.1866 26.786 78.1973 30.9671 78.1973Z" fill="black"/>
<path d="M88.1482 77.7946C89.7272 77.7946 91.0073 77.0374 91.0073 76.1033C91.0073 75.1693 89.7272 74.4121 88.1482 74.4121C86.5691 74.4121 85.2891 75.1693 85.2891 76.1033C85.2891 77.0374 86.5691 77.7946 88.1482 77.7946Z" fill="black"/>
<path d="M74.7001 71.7569C76.4793 71.7569 77.9216 69.0166 77.9216 65.6363C77.9216 62.2559 76.4793 59.5156 74.7001 59.5156C72.9209 59.5156 71.4785 62.2559 71.4785 65.6363C71.4785 69.0166 72.9209 71.7569 74.7001 71.7569Z" fill="black"/>
<path d="M59.599 67.6891C61.7119 67.6891 63.4246 66.0845 63.4246 64.1053C63.4246 62.126 61.7119 60.5215 59.599 60.5215C57.4862 60.5215 55.7734 62.126 55.7734 64.1053C55.7734 66.0845 57.4862 67.6891 59.599 67.6891Z" fill="black"/>
<path d="M124.392 74.7765C124.191 74.4946 123.909 74.2128 123.627 73.9712C122.741 73.2866 121.574 73.0047 120.446 73.2061C120.204 73.2463 119.963 73.2866 119.761 73.3269C119.761 72.1591 119.802 70.5082 119.923 68.3337H121.292C123.305 68.3337 124.956 66.7633 125.037 64.7097L125.238 59.5957C125.278 58.5891 124.916 57.5824 124.191 56.8576C123.507 56.1328 122.5 55.6898 121.493 55.6898H120.486L120.97 51.5825V51.3409C121.01 49.4886 119.52 47.5156 116.741 47.435C114.969 47.3947 108.083 47.4753 107.801 47.4753H107.6C106.352 47.5558 103.976 48.6833 103.734 52.1463C103.654 53.1932 103.573 54.6026 103.533 55.8509H103.09C101.318 55.8509 99.8683 57.0589 99.4656 58.6696C99.3851 58.6293 99.3448 58.5488 99.2643 58.5085C94.1903 54.6831 86.217 54.6026 75.5456 58.3072C73.7334 58.9515 72.6864 60.8038 73.1294 62.6561C72.8072 62.3742 72.4448 62.1326 72.0421 61.9312C73.5724 60.4011 74.4986 58.3877 74.4986 56.1328C74.4986 51.502 70.4716 47.7169 65.5587 47.7169C63.5855 47.7169 61.7734 48.3209 60.3237 49.3276C60.2029 49.086 60.0418 48.8846 59.8405 48.6833C59.1559 47.9585 58.2297 47.5558 57.2632 47.5558L37.1687 47.5156C37.1687 47.5156 37.1687 47.5156 37.1285 47.5156C35.6385 47.5156 34.2693 48.0793 33.2223 49.1262C32.1753 50.1732 31.6116 51.5825 31.6116 53.0322V56.5757C30.3229 53.2738 27.8262 50.6564 24.4033 49.0457C18.4837 46.2673 10.5103 46.9921 3.10075 50.9383C1.24835 51.945 0.281886 54.0791 0.80539 56.0925L2.29536 62.052C2.57725 63.1393 3.3021 64.0654 4.30884 64.5486C5.31557 65.0318 6.48339 65.0721 7.49013 64.6292C10.8728 63.1393 14.0138 62.6158 15.8662 63.1795C14.8594 65.354 9.02037 70.8303 2.33563 73.8504C0.926198 74.4946 0 75.9443 0 77.5549C0 78.1992 0.0402693 82.2662 0.0402693 84.6017C0.0805388 86.9372 1.97321 88.8298 4.30884 88.8298L29.88 88.7895C31.1283 88.7895 32.2156 88.2258 32.9404 87.3399C33.8264 88.2661 35.0747 88.8298 36.4439 88.8298H44.9408C47.5985 88.8298 49.7731 86.6554 49.7731 83.9977V76.5483H54.1625C55.3706 76.5483 56.4578 76.0248 57.1827 75.1792V84.6823C57.1827 86.9775 59.0753 88.8701 61.3707 88.8701H70.3105C72.2435 88.8701 73.8542 87.5815 74.3375 85.8097C74.418 85.8903 74.4583 85.9305 74.5388 86.0111C76.3107 87.6218 78.8074 88.8298 81.7068 88.8298C83.8411 88.8298 86.217 88.1855 88.6734 86.5748C88.8748 86.9372 89.1164 87.2594 89.4385 87.5815C90.2439 88.3869 91.3312 88.8298 92.499 88.8298L100.271 88.7493C102.607 88.709 104.499 86.8164 104.499 84.4809V83.7158C105.305 85.246 106.392 86.454 107.842 87.3399C109.654 88.4271 111.869 88.9909 114.607 88.9909C116.902 88.9909 119.56 88.5882 122.58 87.7828C123.627 87.501 124.473 86.8567 124.997 85.9708M86.7002 76.508C86.7002 76.4275 86.7405 76.3872 86.7405 76.3469C86.7808 76.3067 86.9418 76.2261 87.2237 76.2261C87.1835 76.2664 87.1432 76.3469 87.1029 76.3872C87.1029 76.3872 87.0224 76.4677 86.7002 76.508ZM75.2637 69.1794C75.0221 69.3404 74.7804 69.5418 74.5388 69.7431V67.3673C74.6194 67.6089 74.6596 67.8505 74.7402 68.0921C74.9013 68.4948 75.0623 68.8572 75.2637 69.1794ZM31.6518 73.2866C31.1283 73.045 30.5243 72.8839 29.9202 72.8839H28.0276C29.437 71.2733 30.7659 69.3404 31.6518 67.0452V73.2866ZM57.9478 63.4211C57.7867 63.099 57.5854 62.8171 57.3035 62.5755C57.9478 62.4547 58.5116 62.2131 58.9948 61.8104C59.1156 61.9312 59.1962 62.0118 59.317 62.1326C58.7532 62.4547 58.27 62.8977 57.9478 63.4211Z" fill="black"/>
<path d="M2.8186 56.0506L4.30857 62.0102C4.46965 62.735 5.27504 63.1377 5.95962 62.8155C8.33552 61.7686 13.5303 59.9163 16.9935 61.5672C21.5842 63.7819 11.396 72.9226 2.93941 76.748C2.41591 76.9896 2.09375 77.4728 2.09375 78.0366V78.0768C2.09375 78.7211 2.13402 82.7478 2.13402 85.0833C2.13402 86.0095 2.89914 86.7343 3.82534 86.7343L29.3965 86.694C30.1616 86.694 30.7656 86.09 30.7656 85.325V77.3118C30.7656 76.5467 30.1616 75.9427 29.3965 75.9427H21.5439C21.262 75.9427 21.1412 75.5803 21.3828 75.4192C23.799 73.6877 30.967 67.8892 29.2757 59.876C27.3427 50.6548 15.7048 47.3932 3.82534 53.7151C3.01995 54.1983 2.57698 55.1245 2.8186 56.0506Z" fill="white"/>
<path d="M57.705 51.7025L57.3425 59.3532C57.3023 59.9975 56.7788 60.521 56.0942 60.521H47.1946C46.6711 60.521 46.2281 60.9639 46.2281 61.4874V63.4605C46.2281 63.984 46.6711 64.4269 47.1946 64.4269H53.8391C54.6445 64.4269 55.2888 65.1115 55.2888 65.9168L55.0874 73.0844C55.0472 73.8495 54.4431 74.4937 53.6377 74.4937H47.6778C47.1141 74.4937 46.6308 74.9769 46.6308 75.5407V84.5606C46.6308 85.8088 45.6241 86.7753 44.416 86.7753H35.9192C34.6708 86.7753 33.7043 85.7686 33.7043 84.5606L33.6641 53.5547C33.6641 51.9441 34.993 50.6152 36.6037 50.6152L56.6982 50.6555C57.3023 50.6555 57.7452 51.1387 57.705 51.7025Z" fill="white"/>
<path d="M70.0684 86.7759H60.7258C59.9607 86.7759 59.3164 86.1316 59.3164 85.3666V66.0383C59.3164 65.2732 59.9607 64.6289 60.7258 64.6289H70.0684C70.8335 64.6289 71.4778 65.2732 71.4778 66.0383V85.3666C71.4778 86.1719 70.8335 86.7759 70.0684 86.7759Z" fill="white"/>
<path d="M65.0364 62.4529C68.5504 62.4529 71.399 59.8388 71.399 56.6141C71.399 53.3895 68.5504 50.7754 65.0364 50.7754C61.5225 50.7754 58.6738 53.3895 58.6738 56.6141C58.6738 59.8388 61.5225 62.4529 65.0364 62.4529Z" fill="white"/>
<path d="M75.9082 61.2445C75.3042 61.4458 74.982 62.0901 75.1834 62.6941V62.7344C75.425 63.4189 76.3512 66.6 76.7136 67.8886C76.9552 68.6939 77.8814 69.0563 78.566 68.6134C78.566 68.6134 78.6063 68.6134 78.6063 68.5731C79.613 67.8886 90.5663 63.7813 90.0428 70.9086C90.0428 70.9086 79.8144 67.043 74.378 73.5663C69.0624 79.9285 78.4049 93.6999 89.6804 82.6264C89.922 82.3848 90.3247 82.5459 90.3247 82.9083V85.123C90.3247 86.0491 91.0898 86.8142 92.016 86.7739L99.788 86.6934C100.714 86.6934 101.439 85.9283 101.439 85.0424V70.6268C101.479 70.5462 102.567 51.9427 75.9082 61.2445ZM86.0964 79.6064C82.1097 79.6869 82.5527 71.875 89.5998 74.6937C89.5998 74.6937 90.0831 79.5258 86.0964 79.6064Z" fill="white"/>
<path d="M117.184 58.1472L117.909 51.7849C117.909 51.7849 117.949 50.5769 116.218 50.5367C114.486 50.4964 107.358 50.5769 107.358 50.5769C107.358 50.5769 106.029 50.6977 105.868 52.8319C105.707 54.9661 105.586 58.9525 105.586 58.9525H102.647C102.002 58.9525 101.519 59.4357 101.479 60.08L101.278 65.4356C101.237 66.0798 101.761 66.6436 102.405 66.6436L104.58 66.7241C104.982 66.7241 105.264 67.0865 105.224 67.4489C105.063 69.7039 104.66 76.8715 105.506 80.6969C106.472 85.1263 109.855 88.8309 121.453 85.8108C122.137 85.6497 122.58 85.0055 122.54 84.3209L122.057 77.6365C121.976 76.7909 121.211 76.1869 120.365 76.3077C118.996 76.5493 117.224 76.7909 116.862 76.4688C116.379 75.9856 116.781 69.0999 116.902 66.9255C116.942 66.563 117.224 66.2812 117.587 66.2812H120.768C121.412 66.2812 121.896 65.798 121.936 65.1537L122.137 60.0397C122.177 59.3955 121.654 58.8317 120.969 58.8317L117.667 58.7915C117.385 58.7512 117.144 58.4693 117.184 58.1472Z" fill="white"/>
</svg>
