<svg version="1.1" id="Layer_1" xmlns="http://www.w3.org/2000/svg" x="0" y="0" width="1048" height="330" style="enable-background:new 0 0 1048 330" xml:space="preserve"><style>.st0{fill:#0400ff}.st1{fill:#ff58a7}.st3{fill:#eedb5f}</style><path class="st0" d="M611.2 198.9c-.8.4-1.5.8-2.3 1.1v3.2c1.3-.5 2.5-1.1 3.7-1.7 6.2-3.3 11.1-7.7 14.7-13.4 2.2-3.5 3.8-7.3 4.6-11.2h-3.1c-.8 3.4-2.1 6.6-4.1 9.6-3.2 5.3-7.8 9.4-13.5 12.4zM561.1 193.7h4.3c-2.3-2.1-4.4-4.5-6-7.1-2.8-4.4-4.4-9.4-4.8-14.7-1.1-.7-2.1-1.4-3.1-2.1.1 6.7 1.9 12.8 5.4 18.4 1.1 2 2.6 3.8 4.2 5.5zM566.6 144c1.9-1.5 4-2.9 6.3-4.1.4-.2.8-.4 1.3-.6h.1c.1 0 .1-.1.2-.1l.1-.1c.3-.1.6-.3.9-.4h.1c.1 0 .1-.1.2-.1.4-.2.8-.3 1.1-.5.5-.2.9-.4 1.4-.5 2.7-.9 5.5-1.5 8.4-1.9-.7-1-1.5-1.9-2.4-2.7-2.4.4-4.7 1-7 1.7-.5.2-1 .4-1.5.5-.4.2-.9.3-1.3.5-.1 0-.1.1-.2.1h-.1c-.4.2-.7.3-1.1.5-.1 0-.1.1-.2.1s-.1 0-.2.1c-.4.2-.9.4-1.3.7-1.8.9-3.5 2-5 3.1 0 .4-.1.8-.1 1.2.1 1 .2 1.8.3 2.5zM662.3 136.6c.6-.9.9-1.9 1-3h-8.9v3h7.9zM601.7 175.5c-1 1.7-2.3 3.1-4 4-1.7 1-3.5 1.5-5.6 1.5-2 0-3.9-.5-5.6-1.5-.9-.5-1.7-1.1-2.4-1.8-1.2.2-2.4.3-3.6.4 1.2 1.6 2.6 3 4.4 4 2.2 1.2 4.5 1.9 7.1 1.9 2.6 0 4.9-.6 7.1-1.9 2.1-1.2 3.9-3 5.1-5.1 1.3-2.2 1.9-4.5 1.9-7.1 0-.7-.1-1.4-.2-2.1-.9.8-1.9 1.6-2.9 2.3.1 1.9-.4 3.7-1.3 5.4zM694.4 221.3v3c.8.1 1.7.3 2.5.4 2.4.5 4.5 1 6.4 1.6.3-1 .6-1.9 1-2.8-2-.7-4.3-1.2-6.8-1.7-1-.1-2.1-.3-3.1-.5zM688.6 140.5c3.4 1.6 6.3 3.7 8.5 6.4 2.8 3.4 4.3 8 4.3 13.5 0 5.4-1.3 10-4 13.5-2.7 3.6-6.3 6.2-11 8-4.8 1.8-10.3 2.7-16.4 2.7h-4v7.8c.7 0 1.4-.1 2.2-.1h.8v-4.7h.9c6.5 0 12.3-1 17.5-2.9 5.2-1.9 9.3-4.9 12.4-9 3.1-4.1 4.6-9.1 4.6-15.3 0-6.2-1.7-11.4-5-15.4-2.6-3.2-6-5.7-10.1-7.5-.2 1.1-.4 2.1-.7 3z"/><path class="st0" d="M666 170.8h3.8c3.3 0 6-.8 7.9-2.5 2.1-1.8 3.1-4.1 3.1-6.9 0-2.8-1.1-5.2-3.2-7-.1-.1-.2-.2-.3-.2-1 .6-2.1 1.1-3.2 1.6.6.3 1.1.6 1.5.9 1.4 1.2 2.1 2.8 2.1 4.7 0 1.9-.7 3.4-2.1 4.6-1.4 1.2-3.4 1.8-6 1.8h-.6v-10.3c-1 .3-2 .5-3 .7v12.6zM687.5 252c-4.5 0-8.4.7-11.7 2-.9.4-1.7.8-2.5 1.2 3.8 0 7.5-.5 11.2-1.5 1.8-.5 3.5-1 5.1-1.7h-2.1zM639 199.1c.4-.2.8-.4 1.1-.6.6-.3 1.2-.6 1.9-.9V177h-3v22.1zM505 184.9c3.2 0 6.1-.6 8.7-1.8 2.6-1.2 4.7-3 6.2-5.3s2.3-5 2.3-7.9c0-1.3-.1-2.6-.4-3.8-.8.8-1.7 1.5-2.7 2.2.1.5.1 1 .1 1.6 0 2.4-.6 4.5-1.8 6.3-1.2 1.8-2.8 3.2-5 4.2-2.1 1-4.6 1.5-7.4 1.5h-.3v-6.8c-1 .3-2 .5-3 .7v9.1h3.3zM423.5 251.3V261.2c1.2-1.3 1.9-3 1.9-4.9 0-2.1-.6-3.7-1.9-5zM507.8 222h9.2v3h-9.2zM468.8 257.5v-6.1c-.5 1.5-1.3 2.9-2.2 4.1-1.5 1.9-3.5 3.4-5.9 4.7-.1 1.2-.2 2.4-.3 3.5 3.4-1.6 6.2-3.6 8.4-6.2zM439.7 195.8l-.6-2.3H416.7l-.1.2c8.8.2 16.6 1.3 23.4 3.3l-.3-1.2zM423.9 225c0-.1 0-.1 0 0 0-1.2-.2-2.1-.6-3h-11.4v3h12zM503.6 136.6c-.5-1.1-1.2-2.1-2-3H490v3h13.6zM413.7 135.2h-.4l-4.2 15.5h1.5l4.2-11.2zM517 200.8c-2.9.7-6 1.1-9.2 1.3v3c3.2-.2 6.3-.6 9.2-1.2v-3.1zM474.7 193.7h3V177h-3v2.4zM543.4 161.8c.6 2.4.9 4.9.9 7.7 0 6.6-1.7 12.4-5.1 17.2-1.8 2.7-4.1 5-6.7 7h4.6c1.7-1.6 3.2-3.4 4.5-5.3 3.7-5.4 5.6-11.7 5.6-18.9 0-1.1-.1-2.2-.2-3.3-1.2-1.4-2.5-2.9-3.6-4.4zM924.4 201.3v-3.4c-5-2.8-9-6.5-11.8-10.9-2.9-4.5-4.4-9.6-4.8-15.1-1.1-.6-2.1-1.3-3.1-2 0 6.9 1.8 13.1 5.3 18.6 3.4 5.5 8.2 9.7 14.4 12.8zM934.3 179.5c1.6 2.5 3.7 4.4 6.4 5.8 2.6 1.3 5.4 2 8.4 2 1.5 0 2.8-.2 3.9-.5l2.1-.7V177h-7.3v-.4l-3 .6v2.8h7.3v3.9c-.8.3-1.8.4-3 .4-2.5 0-4.9-.6-7-1.6-2.1-1.1-3.8-2.6-5.1-4.5-1.1.1-2.3.1-3.4.1.1.3.4.8.7 1.2zM858.2 177h-1.1l-3.3-5.5-1.6.8-.2.1-1.6.9V193.7h3v-18.6l.2-.1 12.1 20.2v-1.5h2.6zM813.7 177v25.3h-24V177h-3v25.1c1.4 1 2.7 2 4 3.1h24.4v-11.5h1.6V177h-3zM756.3 154.9v37.3c1 0 2 .1 3 .2v-34.5h12.8v-3h-15.8zM458.6 229.8c5.4 2.1 8.7 5.3 10.1 9.8v-6.3c-2.1-2.7-5.1-4.8-9-6.3-1.1-.4-2.3-.8-3.4-1.2-.4.9-1 1.8-1.6 2.7 1.4.4 2.7.8 3.9 1.3zM440 284.5c0 2.3-.8 4.1-2.5 5.5-1.7 1.4-4.1 2.1-7.2 2.1h-3.8v-5.8l-3 .3v8.5h6.8c3.8 0 6.9-1 9.1-2.8 2.3-2 3.6-4.7 3.6-7.8 0-.6-.1-1.2-.2-1.8-.9.3-1.9.7-2.9 1 .1.2.1.5.1.8zM460 265.2c-.2 1-.5 2-.8 2.9 4.1 1.7 7.3 4 9.5 6.7 0 .1.1.1.1.2v-4.4c-2.4-2.1-5.3-3.9-8.8-5.4zM532.5 145.1c2.1 1.6 4 3.5 5.6 5.5-.5-1.8-.8-3.7-1-5.6-1.3-1.3-2.8-2.4-4.3-3.5-.2 1.2-.2 2.4-.3 3.6zM432.3 179h-8.6l.6-2.2-1.5-5.9-2 7.3-1.1 3.8h16.5l-1-3.8-.3-1.2h-3.1zM714.7 136.6v-3H709v24.3h5.7v-3H712v-18.3zM729.3 177v20.6c1-.5 2-.9 3-1.3V177h-3zM898.5 164.5c-1.1-1.2-2.1-2.6-3-4v33.2h3v-29.2zM960.2 133.8l-1.5-.6c-3.3-.5-6.7-.8-10.1-.8H946.8c-.5 0-.9 0-1.3.1h-.5c-.4 0-.8 0-1.2.1-2.6.2-5.1.6-7.5 1.1-3.6.8-7.1 2-10.3 3.6-2 1-3.8 2.1-5.6 3.3-.1.6-.1 1.3-.1 2 0 .6 0 1.2.1 1.8 2.1-1.6 4.4-3.1 6.9-4.3.9-.5 1.9-.9 2.9-1.2v-2.6h9.2c1.5-.3 3-.5 4.6-.6h1.6c.4 0 .8 0 1.3-.1h1.7c3.2 0 6.4.3 9.5.8h3.1v.6l1.5.3c3.7.9 6.7 2 9.2 3.2v17.6c-2.3-.7-4.8-1.4-7.5-2-1.1-.3-2.2-.5-3.2-.7v3.1c.8.2 1.6.3 2.5.5 4.4 1 8.1 2.2 11.2 3.4v-23.6c-2.9-1.7-6.7-3.1-11.5-4.3-1-.3-2.1-.5-3.2-.7zM825.6 177h3v16.7h-3zM883.9 136.6h6.6c.1-1 .3-2 .6-3H884v3zM608.9 222v3h7.3c.4-1 .7-2 1.2-3h-8.5zM802.1 133.6h8.9v3h-8.9zM761.5 253.3c-.5.2-1 .5-1.6.8.5-.2 1-.5 1.5-.7l.1-.1zM854.1 222h11.6v3h-11.6zM744.7 133.6h27.4v3h-27.4zM308.6 299.9c-1-.1-2-.2-3-.2.1 2.4.4 4.9.7 7.5l.1.8.5.6c4.2 5.7 8.5 11.2 12.9 16.3-13.4-1-27.5-1.9-42.1-2.6 4-3.4 5.9-6.2 5.9-8.9 0-4.8-7-5.9-9.7-6.3-.3 0-.6-.1-1-.1h-.3c-.3 0-.6-.1-.9-.1H271.4c-.4 0-.8-.1-1.2-.1h-.2c-.5 0-1 0-1.5-.1H257.2c-.6 0-1.3 0-2 .1h-.5c-.8 0-1.7.1-2.6.1h-.3c-.8 0-1.6.1-2.4.1h-.8c-.7 0-1.4.1-2.1.1h-.8c-.7.1-1.5.1-2.2.2h-.7c-2 .2-4 .4-6.1.6l-.5.1h-.4c-.8.1-1.6.2-2.3.3l-.6.1h-.4c-.8.1-1.6.2-2.3.3h-.2l-.6.1c-1 .1-2.1.3-3.1.4h-.2c-1.1.2-2.2.3-3.4.5h-.1l-.4.1-.4.1h-.1c-.8.1-1.6.2-2.4.4H218.7c-.2 0-.3 0-.5.1-.8.1-1.6.3-2.4.4l-1.1.2c-.9.2-1.9.3-2.8.5-.2 0-.3.1-.5.1h-.2c-1.2.2-2.3.4-3.5.7l-.4.1-.3.1c-.9.2-1.8.4-2.8.6-.3.1-.5.1-.8.2l-.4.1c-.8.2-1.6.3-2.4.5l-.3.1c-.3.1-.6.1-.9.2-.9.2-1.7.4-2.6.6l-.5.1-.3.1c-1.2.3-2.4.6-3.5.9l-.3.1H191.9c-.2 0-.3.1-.5.1 1.8-1.9 3-3.7 3.7-4.9 1.5-2.6 2-4.8 1.4-6.7-.3-1-1.1-2.4-3-3.2-.4-.2-.9-.3-1.3-.5-.1 0-.2-.1-.3-.1h-.2c-.3-.1-.6-.2-1-.3-.2 0-.3-.1-.5-.1-.4-.1-.8-.2-1.3-.3h-.2c-.5-.1-1-.2-1.6-.3h-.5c-.4-.1-.9-.1-1.3-.1h-.5c-.5 0-1.1-.1-1.6-.1h-.3c-.7 0-1.4-.1-2.1-.1h-5.5c-.9 0-1.7.1-2.7.1h-.6c-.7 0-1.5.1-2.2.1H168.9c-.8.1-1.7.1-2.6.2h-.4c-1 .1-2.1.2-3.1.3h-.8c-.8.1-1.7.2-2.6.3h-.3l-.6.1c-1 .1-2 .2-3 .4h-.4c-1.2.1-2.4.3-3.6.5l-.7.1h-.2c-1 .1-1.9.3-2.9.4l-.4.1-.6.1-3.6.6H142.8c-1.3.2-2.7.5-4.1.7l-.4.1-.7.1c-1.1.2-2.1.4-3.2.6h-.1c-.3.1-.5.1-.8.2l-.3.1c-1.4.3-2.7.5-4.2.8h-.2l-4.5.9c-.4.1-.9.2-1.3.3-1.2.2-2.3.5-3.5.7-.4.1-.9.2-1.4.3-1.6.3-3.2.7-4.8 1.1-5 1.2-28.3 6.6-49.2 13.4.7-.9 1.5-1.8 2.2-2.7l1.1-1.4-.6-1.6c-2.9-7.4-6.7-14.5-11.4-21.3l-3 .9c5.2 7.3 8.9 14.6 11.6 21.4-2.8 3.5-5.7 6.9-8.7 10.3l.2.4c21.7-7.8 49.8-14.5 58.5-16.5 1.6-.4 3.2-.7 4.8-1.1.5-.1.9-.2 1.4-.3 1.2-.3 2.3-.5 3.5-.7.4-.1.8-.2 1.3-.3l4.5-.9h.2c1.4-.3 2.8-.5 4.1-.8l.3-.1c.3 0 .5-.1.8-.2h.1c1.1-.2 2.1-.4 3.2-.6.4-.1.7-.1 1.1-.2 1.4-.2 2.7-.5 4-.7h.2l3.6-.6c.3-.1.7-.1 1-.2 1-.1 2-.3 2.9-.4.3 0 .6-.1.9-.1 1.2-.2 2.4-.3 3.6-.5h.4c1-.1 2.1-.3 3-.4.3 0 .6-.1.9-.1.9-.1 1.7-.2 2.5-.3h.7c1.1-.1 2.1-.2 3.1-.3h.4c.9-.1 1.7-.1 2.5-.2h.8c.7 0 1.5-.1 2.2-.1h.6c.9 0 1.8-.1 2.6-.1h5.3c.7 0 1.4 0 2 .1h.3c.5 0 1.1.1 1.6.1.2 0 .4 0 .6.1.4 0 .8.1 1.3.1h.5c.5.1 1 .1 1.5.2h.2c.4.1.8.2 1.2.2.1 0 .3.1.4.1.3.1.6.2.9.2h.1c.1 0 .1 0 .2.1.4.1.7.2 1 .4 2 .8 1.8 3 .2 5.5-.9 1.6-2.3 3.4-4.1 5.1-3.1 3-4.9 4.6-10 8.1v.1c1-.3 2-.7 3.1-1 .4-.1.7-.2 1.1-.3.8-.2 1.6-.5 2.4-.7.2-.1.5-.1.7-.2.2 0 .3-.1.5-.1.8-.2 1.6-.5 2.4-.7.1 0 .3-.1.4-.1.2-.1.4-.1.7-.2 1-.3 2-.5 2.9-.8.1 0 .2 0 .3-.1.1 0 .2 0 .3-.1 1.2-.3 2.3-.6 3.5-.9.3-.1.6-.1.9-.2.9-.2 1.7-.4 2.6-.6.3-.1.6-.1.9-.2.1 0 .2 0 .3-.1.8-.2 1.6-.4 2.4-.5.1 0 .2-.1.4-.1.3-.1.5-.1.8-.2l2.7-.6c.1 0 .2 0 .4-.1.1 0 .3-.1.4-.1 1.2-.2 2.3-.4 3.5-.7h.2c.2 0 .3-.1.5-.1.9-.2 1.9-.3 2.8-.5.4-.1.7-.1 1.1-.2.8-.1 1.6-.3 2.4-.4.1 0 .3 0 .4-.1.1 0 .3 0 .4-.1h.2c.8-.1 1.6-.2 2.4-.4h.1c.1 0 .3 0 .4-.1.1 0 .3 0 .4-.1 1.1-.2 2.2-.3 3.4-.5h.1c1-.1 2.1-.3 3.1-.4.2 0 .4-.1.6-.1h.3c.8-.1 1.6-.2 2.3-.3.3 0 .7-.1 1-.1.8-.1 1.5-.2 2.3-.3h.3c.2 0 .4 0 .5-.1 2.1-.2 4.1-.4 6-.6h.7c.7-.1 1.5-.1 2.2-.2.3 0 .6 0 .8-.1.7-.1 1.4-.1 2.1-.1h.7c.8-.1 1.6-.1 2.4-.1h.3c.9 0 1.7-.1 2.6-.1h.5c.7 0 1.3-.1 2-.1H268.5c.5 0 1 0 1.5.1h.1c.4 0 .8 0 1.2.1h.3c.3 0 .5 0 .8.1h.3c.3 0 .6.1.9.1 4.4.7 7.1 1.8 7.1 3.4 0 3-4.8 7.1-11.6 11.5 20.7.9 40.1 2.1 58 3.6-6.2-6.9-12.1-14.2-17.6-21.7-.6-1.7-.8-4-.9-6.3zM41.4 286.8h.3c.6 0 1.1-.1 1.7-.1.6 0 1.3 0 2 .1 1.1 1.2 2.1 2.5 3.1 3.7.4-.5.8-.9 1.1-1.4-1.8-4.5-4-9.2-6.8-14 .1 1.6.5 3.2 1 4.6-5.9-9.5-12.4-13.4-18.3-13.6h-1.2c-.1 0-.3.1-.4.1h-.4c-.1 0-.2.1-.3.1-.1 0-.3.1-.4.2 0 0-.1 0-.1.1-.1 0-.1 0-.2.1-.1 0-.2.1-.3.1-.2.1-.3.2-.5.3 0 0-.1 0-.1.1-.1 0-.1.1-.2.1-.1.1-.2.1-.3.2-.1.1-.3.2-.4.3l-.1.1-.1.1c-.1.1-.2.2-.3.2l-.4.4-.1.1-.1.1-.3.3c-.1.2-.3.3-.4.5l-.1.1c0 .1-.1.1-.1.2-.1.1-.2.2-.2.3-.1.2-.2.4-.4.5 0 .1-.1.1-.1.2s-.1.1-.1.2c-.1.1-.1.2-.2.3l-.3.6c0 .1-.1.1-.1.2s-.1.1-.1.2c-.1.1-.1.2-.2.3-.1.2-.2.5-.3.7 0 .1-.1.1-.1.2s-.1.1-.1.2c-.1.1-.1.3-.2.4l-.3.9v.1c0 .1-.1.2-.1.2 0 .1-.1.3-.1.4-.1.3-.1.6-.2.8 0 .1 0 .1-.1.2 0 .1 0 .2-.1.3 0 .1-.1.3-.1.4-.1.3-.1.6-.2.9v.5c0 .1 0 .3-.1.4 0 .3-.1.7-.1 1v2.9c0 .7 0 1.4.1 2 2.9-3.2 6.1-6 9-6.8.5-.1.9-.3 1.4-.4.1 0 .2-.1.4-.1h.4c.2 0 .4-.1.6-.1h.8c.2 0 .3 0 .5-.1H29.6c.5 0 1 0 1.5.1h.4c.5.1 1 .2 1.6.3h.2c.5.1.9.3 1.4.4.1 0 .3.1.4.1l1.5.6h.1c.5.2.9.5 1.4.7.1.1.2.1.4.2.5.3.9.6 1.4.9.5.3.9.6 1.3 1 .1 0 .1.1.2.1s.1.1.2.1c.4.3.9.7 1.3 1.1-.7-.3-1.3-.6-2-.9-.7-.3-1.3-.5-2-.7h-.1c-.6-.2-1.3-.3-1.9-.4h-.2c-.6-.1-1.3-.1-1.9-.1h-1c-.2 0-.3 0-.5.1-.1 0-.3 0-.4.1-.1 0-.3.1-.4.1h-.2c-.1 0-.2 0-.3.1-.1 0-.3.1-.4.1h-.2c-.1 0-.2.1-.3.1-.2.1-.3.1-.5.2h-.1c-.1 0-.2.1-.3.1-.1.1-.3.1-.4.2l-.1.1s-.1 0-.1.1c-.1 0-.1.1-.2.1l-.6.3h-.1l-.1.1c-.1 0-.1.1-.2.1-.3.2-.6.4-.9.7-4.1 3.4-6.1 12.1-1.3 19.5.4-2.5 1.3-5.3 3-8.3 2.2-3.7 5.6-6.5 9-7.5.7-.2 1.3-.3 1.9-.5.2 0 .3-.1.5-.1.5-.1.9-.1 1.4-.2-.7.1-.7.1-.6.1zm-3.9-10.2-.1-.1c-.5-.2-1.1-.5-1.7-.7-.2-.1-.3-.1-.4-.1-.6-.2-1.1-.4-1.6-.5h-.2c-.6-.1-1.2-.2-1.9-.3-.2 0-.3 0-.5-.1-.6-.1-1.1-.1-1.7-.1H27.6c-.2 0-.4 0-.6.1h-.5c-.1 0-.3 0-.4.1-.3 0-.5.1-.8.1H25c-.2 0-.3.1-.5.1-.5.1-1.1.3-1.6.4-1.5.4-3.1 1.3-4.8 2.5v-.1c0-.1.1-.2.1-.3V277.3c.1-.2.1-.5.2-.7 0-.1 0-.1.1-.2 0-.1.1-.2.1-.3v-.1c.1-.2.1-.5.2-.7 0-.1.1-.2.1-.2l.1-.2.1-.1v-.1c.1-.2.1-.4.2-.5 0-.1.1-.1.1-.2s.1-.2.1-.3l.1-.2c.1-.2.2-.3.3-.5 0-.1.1-.1.1-.2.1-.1.1-.2.2-.2l.1-.1v-.1c.1-.1.2-.3.3-.4 0-.1.1-.1.1-.2l.2-.2.1-.1.3-.3.1-.1.1-.1.2-.2.2-.2.1-.1.2-.2.1-.1c.1-.1.2-.1.2-.2 0 0 .1 0 .1-.1.1 0 .2-.1.2-.1.1-.1.2-.1.2-.1h.1c.1 0 .2-.1.2-.1l.1-.1c.1 0 .1 0 .2-.1h.1c.1 0 .2 0 .2-.1h.9c4.4.1 8.7 2.7 12.7 7.7.3-.3.1-.3 0-.4zm-.9 8.1c-4.2 1.1-8.2 4.4-10.8 8.8-.1.1-.1.2-.2.4 0-3.4 1.3-6.3 3-7.7.2-.2.5-.4.7-.5h.1c.1 0 .1-.1.2-.1h.1c.1-.1.2-.2.4-.2h.2l.1-.1.2-.1c.1 0 .2-.1.3-.1h.1l.2-.1c.1 0 .2-.1.3-.1H31.8c.1 0 .2-.1.3-.1H32.4c.1 0 .2 0 .3-.1H34.3c.5 0 1 0 1.5.1h.1c.4.1.8.2 1.3.3-.3-.5-.4-.5-.6-.4zM85.4 208.3c-.3 0-.6 0-.9.1.1.3.2.6.3.8.1.3.2.5.2.8.1.3.2.7.2 1v.2h1.1c.4 0 .8 0 1.1.1 2.2.3 5.5 1.3 7.6 4.3l1.5-3c-2.5-2.7-5.9-3.9-8.6-4.3-.5-.1-1-.1-1.6-.1H85.4c.1.1 0 .1 0 .1zM338.1 248.9h-1.9c-.3 0-.6 0-.9.1h-.1c-.2 0-.4 0-.6.1-.3 0-.6.1-.9.1h-.1c-.2 0-.4.1-.6.1-.3 0-.6.1-.9.2h-.2c-.2 0-.3.1-.5.1-.3.1-.6.1-1 .2-.1 0-.2 0-.3.1-.1 0-.3.1-.4.1-.3.1-.5.1-.8.2H328.6c-.2.1-.5.1-.7.2-.3.1-.6.2-.8.3-.1 0-.2.1-.2.1-.1 0-.2.1-.2.1-.1 0-.2.1-.4.1-.5.2-1.1.4-1.6.6 2-2.1 4.1-4 6.3-5.2.4-.3.8-.5 1.2-.7.1-.1.3-.1.4-.2.3-.1.6-.3.9-.4.2-.1.3-.1.5-.2l.9-.3h.1c.1 0 .2-.1.4-.1h.2c-.3-.9-.6-1.9-1-2.8-.1 0-.2.1-.4.1h-.2c-.3.1-.7.2-1.1.4-.2.1-.4.1-.6.2-.3.1-.7.3-1 .5l-.1.1c-.1.1-.2.1-.4.2-.5.3-.9.5-1.3.8-.9.5-1.9 1.1-2.9 1.9 1.6-3.3 3.4-6 5.4-8.3l.1-.1c-.6-.8-1.2-1.6-1.9-2.4-.2.2-.3.4-.5.5-3.5 4-5.9 8.7-7.6 12.7 1.2-5.2 2.3-11.2 2.6-15 0-.8.1-1.7 0-2.7-1-.5-2-1-3.1-1.4.2 1.4.2 2.7.1 3.9-.1 2.2-.6 5.3-1.3 9.1-1.4-5.2-4.1-9.9-8-13.9l-.6-.6c-.7 0-1.4.1-2.1.1h-.1c-.6.1-1.3.2-2 .3.2.1.4.3.6.4.1.1.2.2.3.2l.1.1c.6.5 1.1 1 1.7 1.5 5.9 6 7.8 12.8 8.2 18.1-.2-.4-.5-.8-.7-1.2 0-.1-.1-.1-.1-.2s-.1-.1-.1-.2c-.2-.3-.3-.6-.5-.8-.1-.1-.1-.2-.2-.2 0-.1-.1-.1-.1-.2-.2-.3-.3-.5-.5-.8-.1-.2-.2-.3-.4-.5s-.4-.5-.6-.7c-.1-.1-.2-.3-.4-.4-.2-.2-.4-.5-.6-.7l-.1-.1c-.1-.1-.2-.2-.3-.4-.2-.2-.4-.5-.7-.7l-.1-.1-.1-.1-.3-.3c-.4-.3-.7-.7-1.1-1l-.1-.1s-.1 0-.1-.1l-1.2-.9c-.1-.1-.2-.1-.2-.2-.1-.1-.2-.1-.2-.2-.3-.2-.6-.4-.8-.6-.2-.1-.3-.2-.5-.3-.3-.2-.5-.3-.8-.5l-.6-.3c-.3-.1-.6-.3-.9-.4-.2-.1-.4-.2-.6-.2l-.9-.3h-.1c-.2 0-.3-.1-.5-.1-.3-.1-.7-.1-1.1-.2h-.2c-.1 0-.2 0-.4-.1-.4 0-.8-.1-1.2-.1-.5.9-1 1.9-1.5 3 .4 0 .7-.1 1.1-.1.4 0 .9 0 1.4.1h.4c.3 0 .6.1.8.1.1 0 .2.1.4.1h.1c.3.1.5.1.7.2.2.1.3.1.5.2s.5.2.7.3h.1c.2.1.3.1.4.2.2.1.5.2.7.4h.1c.1.1.2.1.3.2.3.2.5.3.7.5.1.1.2.1.3.2.1 0 .1.1.1.1.3.3.7.5 1 .8h.1c.4.3.7.6 1 .9l.2.2.1.1.6.6c.1.1.2.2.2.3v.1l.1.1c.2.2.4.4.5.6l.3.4c.2.2.3.4.5.6h-.2c-.5-.2-.9-.5-1.4-.7l-.1-.1h-.2l-1.5-.6c-.1 0-.1 0-.2-.1l-1.8-.6H307.4c-.7-.2-1.4-.3-2.1-.4h-.1c-.8-.1-1.5-.1-2.3-.2H301.3c-.3 0-.5 0-.7.1h-.5c-.2 0-.5.1-.7.1-.1 0-.2 0-.3.1h-.1c-.2 0-.5.1-.7.2l-.8.2c-.4 1.1-.8 2.4-1.1 3.6.1 0 .2-.1.3-.1.1 0 .1-.1.2-.1h.1c.2-.1.5-.2.7-.3.1 0 .3-.1.4-.1.2-.1.4-.1.6-.2.1 0 .3-.1.4-.1.2 0 .4-.1.6-.1.1 0 .2 0 .4-.1.2 0 .4-.1.6-.1h.4c.2 0 .4 0 .6-.1H303c.7 0 1.4 0 2 .1h.2l1.8.3h.2c.6.1 1.1.3 1.6.5h.2c.5.2 1.1.4 1.5.6.5.2.9.4 1.3.7h.2c.4.2.7.4 1 .6h.2c.3.2.6.4.8.5.3.2.5.3.7.5 1.2.8 2.2 1.8 3 2.9-5.7 4.5-12.7 13-16.3 21.2-1.3 3-2.3 5.8-3.1 8.7.8 1 1.5 2 2.3 2.9.9-3.4 2-6.9 3.6-10.5 2.5-5.6 6.4-11 10.2-15.1l-.1.1c-3.1 4.9-7.1 15-8.3 25.8-.2 1.8-.3 3.7-.3 5.8l3 3.6c-.1-3.3 0-6.4.3-9 1.3-11 5.3-20.6 7.9-24.6 1.5-2.4 2.6-4 4.3-5.8 1.1-.2 2.2-.4 3.2-.5h.1c1-.1 2-.2 3-.2h1.5c.3 0 .7 0 1.1.1h.4c.4 0 .8.1 1.2.2h.4c.5.1 1 .2 1.6.3 11.6 2.5 16.8 12.9 17.6 20.3 9.6-13.5.4-26.2-13.2-26.8zm13.6 19.4c-3-6.8-8.9-12.8-17.7-14.7l-1.8-.3h-.4c-.4-.1-.9-.1-1.3-.2h-.5c.1 0 .2-.1.3-.1.1 0 .2 0 .3-.1h.1c.1 0 .2-.1.3-.1.3-.1.6-.1.9-.2.2 0 .3-.1.4-.1h.3c.3-.1.5-.1.8-.1.2 0 .4-.1.5-.1h.1c.3 0 .6-.1.8-.1h.7c.3 0 .5 0 .8-.1h1.5c5.8.2 10.6 3 12.8 7.4 1.6 2.5 1.9 5.6 1.1 8.8zM360 241.5c-.1-.2-.1-.3-.1-.4 0-.1 0-.1-.1-.2 0-.1-.1-.2-.1-.4 0-.1-.1-.3-.1-.4-.1-.1-.1-.3-.2-.4 0 0 0-.1-.1-.1-.1-.1-.1-.3-.2-.4l-.3-.6c-.1-.1-.1-.3-.2-.4 0-.1-.1-.1-.1-.2-.1-.1-.1-.2-.2-.3v-.1c-.1-.1-.1-.3-.2-.4-.1-.2-.2-.4-.3-.5v-.1c-.1-.1-.1-.2-.2-.3-.1-.2-.2-.3-.3-.5-.1-.1-.2-.3-.3-.4-.1-.2-.3-.3-.4-.5l-.1-.1c-.1-.1-.1-.2-.2-.2-.1-.2-.3-.3-.4-.5-.1-.1-.2-.2-.3-.4 0-.1-.1-.1-.2-.2l-.3-.3c-.1-.1-.2-.2-.4-.3-.2-.1-.3-.3-.5-.4-.1-.1-.3-.2-.4-.3-.2-.1-.3-.3-.5-.4-.1-.1-.3-.2-.4-.3-.2-.1-.4-.2-.5-.3 0 0-.1 0-.1-.1-.1-.1-.2-.1-.4-.2-.1 0-.2-.1-.3-.1-.1-.1-.2-.1-.3-.2-.2-.1-.3-.2-.5-.2l-.6-.3h-.1c-.2-.1-.3-.1-.5-.2s-.4-.1-.6-.2c-.2-.1-.4-.1-.6-.2-.1 0-.1 0-.2-.1-.1 0-.3-.1-.4-.1-.2 0-.4-.1-.6-.1-.2 0-.5-.1-.7-.1-.2 0-.5-.1-.7-.1-.2 0-.5-.1-.7-.1H342.3c-1.2 0-2.3.3-3.5.7.5.9.8 1.8 1.1 2.8.9-.3 1.7-.4 2.5-.5h2.4c.2 0 .4 0 .7.1.2 0 .4.1.5.1.2 0 .4.1.6.1.2 0 .4.1.5.1.1 0 .3.1.4.1h.2c.2 0 .3.1.5.2s.3.1.5.2c.1 0 .2.1.4.2h.1c.2.1.3.1.5.2.1.1.3.1.4.2.1 0 .2.1.2.1l.2.1c.1 0 .2.1.2.1h.1c.1.1.3.2.4.3.1.1.2.2.4.2.1.1.3.2.4.3.1.1.2.2.3.2l.1.1c.1.1.3.2.4.3l.3.3.1.1.2.2.1.1.3.3c.1.1.2.3.4.4 0 .1.1.1.1.2l.1.1.1.1c.1.1.2.3.3.4.1.1.1.2.2.2.1.1.2.3.3.4.1.1.1.2.1.2v.1c.1.1.2.3.2.4l.2.3v.1l.1.1.1.1.1.1c.1.1.1.2.2.3.1.2.1.3.2.4l.1.2v.1l.1.2c0 .1.1.2.2.4 0 .1 0 .1.1.2v.2l.1.3v.1c0 .1 0 .1.1.2l.1.2v.1c0 .1.1.2.1.3l2.9-.8c-.2.1-.2 0-.3-.2zM360.2 242zM143.8 72.1s0-.1 0 0v-.2c0-.6-.1-1.4-.3-1.7-.1-.1-.1-.1-.2-.1 0 0-.1 0-.1.1h-.1l-.2.2-.1.1-.1.1-.2.2v.2c0 .1-.1.1-.1.2-.1.2-.3.4-.4.6-.1.1-.2.3-.2.4-.1.2-.2.3-.3.5l-1.3 2.1v.1c-.1.2-.2.4-.4.6-3.6 5.8-10.2 17.2-10.2 17.2-.3.5-.6 1.1-.9 1.5-.2.4-.5.8-.7 1.2-.2.4-3 5.1-3.6 6.1l-1 1.8c-.1.1-.1.2-.2.3-.2.4-.5.9-.8 1.3-.3.5-.5 1-.5 1.2v.1c.1.1.1.1.2.1h1.2c.8-.1 1.6-.3 2.3-.4.1 0 .2 0 .4-.1h.3c1-.1 2-.3 3-.4 1.8-.2 3.5-.4 5.2-.5.2 3.3.4 6.7.5 10.1 0 .8.1 1.5.1 2.3h.1c.9-.3 1.8-.5 2.8-.8 0-.5-.1-1.1-.1-1.6v-.2c-.2-3.4-.4-6.7-.5-10l-.2-3.1-3.1.3c-1.7.1-3.5.3-5.3.5l-2.1.3c.9-1.5 3.2-5.4 3.4-5.7.2-.4.5-.8.7-1.2.3-.5.6-1 .9-1.6.1-.1 5.4-9.2 9.1-15.2V79.8c.2 4.5.5 9.2.7 13.5l.2 3.3 3.3-.5c2.6-.4 5.3-.8 8.1-1.2-.3.5-.7 1.3-1.4 2.4-2.5 4.3-6.6 11.3-10.8 18.6 1.2-.2 2.5-.5 3.8-.7 3.1-5.5 6.4-11.2 9.5-16.4 1.6-2.8 1.9-3.2 1.9-3.2s.1-.1.1-.2c.2-.3.4-.7.7-1.1.5-.8 1.1-1.6 1.3-2.2.1-.2.2-.5.1-.6v-.1c-.1-.2-.4-.2-.7-.2H156.5l-1.2.2c-3.6.5-7.3 1-10.8 1.6-.2-4.5-.5-9.5-.7-14.2-.1-1.7-.2-3.4-.2-5l.2-1.7zM245.9 82.3l-12.3 13.5c-.2.3-.5.5-.8.8l-.1.1c-.5.5-1.1 1.1-1.5 1.6-.4.5-.7 1.1-.5 1.4.2.4.9.7 1.8.8 2 .2 4 .4 5.7.6 2.5.2 4.5.4 5.2.5-.4 3.5-1.9 11.4-3.4 19.4-.4 1.9-.7 3.8-1.1 5.7-.1.6-.1 1.1.2 1.3H239.4c.1 0 .1 0 .2-.1 0 0 .1 0 .1-.1.1 0 .1-.1.2-.2l.1-.1.3-.3c.5-.5 1-1.2 1.5-1.8.2-.2.3-.4.5-.6l8.7-10.4 13.2-15.9.1-.1.2-.2c.1-.1.2-.3.3-.4.3-.3.5-.6.8-.9.8-1 1.4-2 1.3-2.6-.1-.4-.7-.6-1.4-.7h-.3c-3.2-.4-6.7-.9-10.2-1.4.3-3.2 1.2-8.8 2.1-14.5l.4-3.1c0-.2.1-.4.1-.7 0-.3.1-.5.1-.8.1-.7.3-1.4.3-2 0-.5 0-1-.1-1.1l-.1-.1h-.2c-.1 0-.1.1-.2.1h-.1c-.1 0-.1.1-.2.2h-.1c-.1.1-.2.2-.4.3-.5.5-1.2 1.2-1.7 1.8-.2.2-.4.5-.6.7l-5.8 6.4-2.6 2.9zm8.1-4.4c-.9 5.9-1.7 10.9-2 13.9l-.3 3 3 .3c2.6.3 5.3.7 7.8 1v.1l-.2.2-.1.1v.1c0 .1-.1.1-.1.2l-13.2 15.9-5.2 6.3c1.3-7.2 2.5-13.7 2.9-16.9l.3-3.1-3.1-.2c-.7-.1-2.8-.3-5.2-.5-.8-.1-1.8-.2-2.7-.3l.1-.1 12.3-13.5 2.5-2.8 3.2-3.7zM208.8 35.6c0-.5 0-1 .1-1.5l.1-2.7v-.2c0-1 .1-2.4-.2-2.8-.1-.1-.1-.1-.2-.1h-.2s-.1 0-.1.1h-.1s-.1 0-.1.1h-.2s-.1 0-.1.1l-.1.1-.1.1-.1.1-.1.1-.1.1c-.1.1-.1.2-.2.3l-.1.1-.1.1c-.1.1-.2.2-.2.3l-.1.1-.1.1c-.1.2-.2.3-.4.5s-.4.5-.6.7c-.1.2-.3.4-.4.5l-2.3 3.1c-.2.3-.4.5-.6.8 2.2.1 4.4 0 6.6-.1zM960.5 225h11.6v87.2H942l-15.2-25.3h-1.1l-8.8-14.5-1.6.8-.3.2-1.6.8v38h-30.1v-25.3h-3v28.3h36.1V276l.3-.1 23.6 39.3h34.8V222h-14.6zM815.1 286.9v-1.3c-.9 2-1.9 3.9-3.1 5.8-4.4 6.9-10.4 12.4-18 16.3-7.6 4-16.1 6-25.4 6-9.2 0-17.8-2-25.4-6-7.6-4-13.6-9.5-18-16.3-2.8-4.4-4.7-9.1-5.7-14.2-1.2-.9-2.4-1.9-3.5-2.9.8 6.7 3 13 6.7 18.7 4.7 7.4 11 13.1 19.1 17.4 8.1 4.2 17 6.3 26.8 6.3s18.7-2.1 26.8-6.3c8.1-4.2 14.5-10 19.1-17.4 1.3-2 2.3-4 3.3-6.1h-2.7z"/><path class="st0" d="M361.3 248.5v-2.2c0-.1 0-.3-.1-.4 0-.1 0-.2-.1-.4v-.5c0-.2-.1-.3-.1-.5v-.1c0-.1 0-.2-.1-.3 0-.1-.1-.2-.1-.4v-.2c0-.1-.1-.3-.1-.4 0-.2-.1-.4-.2-.6 0-.1-.1-.3-.1-.4v-.1l-2.9.9.1.4c0 .2.1.3.1.5 0 .1 0 .2.1.3v.2c0 .1 0 .2.1.3V244.9c-3.5-2.2-6.8-3.3-9.4-3.9-.2-.1-.4-.1-.7-.2H347.5c-.1 0-.3-.1-.5-.1H346.7c-.2 0-.4 0-.6-.1h-.2c-.3 0-.6-.1-.9-.1h-5.2c-.2 1-.6 2.1-1 3.1.1 0 .3 0 .4-.1h5.5c.3 0 .6 0 .8.1h.2c.2 0 .4 0 .5.1h.2c.1 0 .3 0 .4.1h.2c.2 0 .3.1.5.1 3.2.8 8.6 2.5 13.5 7.6 0-.2 0-.3.1-.5V248.8c.2-.1.2-.2.2-.3zM865.7 286.9v25.3h-33v-25.3h-3v28.3h39v-28.3zM394.4 193.7l6.3-16.7h-3.2l-6.3 16.7zM695 282.8v.2c-2.6 1.3-5.8 2.4-9.7 3.4.7 0 1.4.1 2.2.1 4.2 0 8.4-.6 12.4-1.6 2.3-.6 4.6-1.4 6.7-2.3v26.8c-2.6 1.1-5.9 2.1-9.7 2.9-4.7 1-9.6 1.4-14.5 1.4-9.8 0-18.7-2-26.5-5.9-7.7-3.9-13.8-9.3-18.2-16.2-2.8-4.4-4.7-9.2-5.7-14.3-1.2-.9-2.4-1.9-3.5-2.9.8 6.8 3 13.1 6.6 18.8 4.7 7.3 11.1 13.1 19.4 17.3 8.2 4.2 17.5 6.2 27.8 6.2 5.1 0 10.1-.5 15.1-1.5 4.9-1 8.9-2.3 12.1-3.9v-33.5c-3.2 1.7-6.7 3.1-10.5 4.1-1.2.4-2.6.7-4 .9zM614.8 250.7h-20.7v61.5h-33v-25.3h-3v28.3h39v-61.5h18.5c-.4-1-.6-2-.8-3zM519.4 225.4v86.8h-33v-25.3h-3v28.3h39v-89.8zM472.3 286.9c-.1 9.3-3.7 15.5-11.2 19.2-8.1 4-18.5 6-31 6h-38.6v-25.3h-3v28.3H430c13 0 23.8-2.1 32.4-6.3 8.5-4.2 12.8-11.5 12.8-21.9h-2.9zM543.5 250.7h-8.9v-25.3h-3v28.3h11.9zM961.1 167.4h11.6v30.4c-2.5 1.4-5.8 2.6-9.6 3.7l-2.7.6v3.1c1.2-.2 2.3-.5 3.4-.8 4.9-1.3 8.8-3 11.8-4.9v-35.1H961v3zM54 264.8l-.1.1c-.1.1-.2.1-.3.2-.6.3-1 .6-1.5.9-1.2.8-2.2 1.7-3 2.6.7.7 1.4 1.4 2.1 2.2.7-.8 1.6-1.6 2.7-2.4.4-.3.8-.5 1.2-.7.1-.1.3-.1.4-.2.3-.2.6-.3.9-.4h.1c.1 0 .2-.1.4-.1.4-.1.7-.3 1.1-.4.1 0 .1 0 .2-.1.1 0 .1 0 .2-.1.5-.1 1-.3 1.5-.4H60.2c.4-.1.8-.2 1.3-.2h.5c.4 0 .7-.1 1.1-.1h2.1c.5 0 1 .1 1.4.2 0 0 0-.1.1-.1-.2-.6-.5-1.1-.7-1.6-.1-.1-.1-.2-.2-.3 0-.1-.1-.1-.1-.2-.2-.3-.4-.7-.6-.9-.1-.1-.2-.2-.3-.4l-.1-.1c-.2-.2-.4-.5-.7-.7-.2-.1-.3-.3-.5-.4-.2-.2-.5-.4-.8-.5l-.6-.3c-.3-.1-.6-.3-.9-.4-.2-.1-.4-.1-.6-.2-.3-.1-.7-.2-1-.2h-.2c-.2 0-.3-.1-.5-.1-.4 0-.8-.1-1.2-.1H57c-.6 0-1.2 0-1.9.1-4.9.4-7.8 3.1-9.1 4.6l-.6.9c.7.7 1.5 1.4 2.2 2.1.2-.4.5-.8.7-1.2 1.3-1.4 3.6-3.2 7-3.5.6 0 1.1-.1 1.6-.1H57.5c.3 0 .7 0 1 .1.1 0 .2 0 .3.1h.2c.2 0 .5.1.7.2.1 0 .3.1.4.1h.1c.1 0 .1.1.2.1-.2 0-.5.1-.8.1-.1 0-.2 0-.3.1-.6.1-1.2.3-1.7.4-.1 0-.2.1-.3.1h-.1c-.5.2-.9.3-1.3.4-.1.1-.3.1-.4.2h-.1c-.6.2-.9.4-1.4.6zM81.5 293.5c-2.5 3.8-5.1 7.7-7.8 11.4-.2.3-.5.7-.8 1-.2.3-.4.5-.6.8-3.8-4.8-8-9.3-12-13.1-1.1.3-2.2.7-3.3 1 4.3 3.9 8.9 8.7 13 13.9l2.4 3.1 2.4-3.2c.2-.2.4-.5.5-.7.3-.4.5-.7.8-1.1 2.4-3.4 4.9-7 7.9-11.5l.5-.8-.1-1c-.1-1.9-.3-4-.5-6.2-1 .2-1.9.5-2.9.8.2 1.9.4 3.8.5 5.6zM440.9 136.6h.8l24.7 65.7h-15.1c1.1.9 2.1 1.9 3 3h14.5V200l-8.7-23.1v-.1l-16.3-43.3h-4l1.1 3.1zM74.7 225.2c-.6.7-1.1 1.8-1.7 2.9 0-.3.1-.6.1-.9 0-.2.1-.5.1-.7l.1-.3V225.9c.1-.4.1-.7.2-1.1 0-.2.1-.4.2-.6l.1-.3v-.2c.1-.3.2-.7.3-1 .1-.2.2-.5.3-.7l.1-.2c.1-.4.3-.8.4-1.1.1-.3.2-.5.4-.8v-.1c.2-.3.3-.7.5-1 .1-.3.3-.5.5-.8l.6-.9c.2-.2.3-.5.5-.7.2-.3.4-.5.6-.8.2-.2.4-.4.5-.6.2-.2.4-.5.7-.7.2-.2.4-.4.6-.5-.3-.3-.7-.6-1-.8-.1-.1-.2-.1-.3-.2-.4-.3-.8-.6-1.2-.8-.1 0-.1.1-.2.1l-.8.8c-.2.2-.4.5-.6.7-.3.3-.5.6-.7.9-.2.3-.4.5-.6.8-.2.3-.5.7-.7 1-.2.3-.4.6-.5.9-.2.4-.4.8-.6 1.1v.1c-.1.3-.3.6-.4.9-.2.4-.3.8-.5 1.2 0 .1 0 .1-.1.2-.1.3-.2.6-.3.8l-.3 1.2c0 .1 0 .1-.1.2 0 .1-.1.2-.1.3-.1.2-.1.5-.2.7l-.3 1.2v.2c0 .1 0 .2-.1.3-.1.3-.1.5-.1.8-.1.5-.1.9-.2 1.4V228.4c0 .2-.1.5-.1.7v1.7c2.7 5.8 5.2 11.8 7.1 18.1l.9-1.5c.2-.3.3-.5.5-.8-1.3-2.5-2.7-5.1-4.2-7.4.3-.2.6-.4 1-.6.1 0 .2-.1.3-.1.3-.1.6-.3.9-.4h.1s.1 0 .1-.1c.4-.1.8-.3 1.2-.4H78c.4-.1.7-.2 1.1-.2h.4c.5-.1 1-.1 1.4-.2h1.8c.3 0 .5 0 .8.1.5-.9 1-1.9 1.6-2.8h-.4c-.5-.1-1.1-.1-1.8-.1h-2.2c-.5 0-1.1.1-1.7.2H78.7c-.1 0-.2 0-.4.1 2.2-1.9 4.7-3.3 6.3-3.7.5-.1.9-.1 1.5-.2h1.1c.5-1 1-1.9 1.5-2.9-.1 0-.2 0-.4-.1h-2.5c-.6 0-1.2.1-1.9.2-3.1.7-8 3.8-10.9 7.8 1.1-3.9 2.9-7.6 4-9.1 3.1-4.2 7.7-6.7 12-7.1.7-.1 1.5-.1 2.2-.1H93c.5-1 1-1.9 1.5-2.9-.3 0-.6-.1-.8-.1h-.5c-.4 0-.7 0-1-.1H91.4c-.9 0-1.7.1-2.5.1-1.1.1-2.3.4-3.4.7v.5c-.1.7-.2 1.5-.4 2.2-.4-.7-.8-1.4-1.2-2 0 0 0-.1-.1-.1-3.6 1.9-6.8 4.3-9.1 7.4zM207.5 46.9l-2.4 3.3c-.2 5.1-.5 9.8-.7 14.4l-.1 3.3 3.3-.2c3.7-.2 7.6-.5 11.8-.7l2.9-3.1c-5 .2-10 .5-14.8.8.3-6 .6-12.5.9-18.9-.3.3-.6.7-.9 1.1zM704.8 258.4c-.5-1.2-1-2.5-1.4-3.7-1.2-.4-2.5-.8-3.8-1.1-1.5-.4-3.1-.7-4.6-.9v3c1.3.2 2.6.5 3.9.8 2.1.5 4 1.1 5.9 1.9zM779.8 282.6c-3.4 1.7-7 3-10.7 4 3-.1 5.8-.8 8.4-2.3.8-.5 1.5-1.1 2.3-1.7zM815.1 251.6v-6.5c-.2-.3-.3-.6-.5-.9-2.2-3.5-4.9-6.7-8-9.5.2 1.5.3 3 .3 4.6 1.9 2 3.6 4.2 5.1 6.6 1.2 1.8 2.2 3.7 3.1 5.7zM618.1 141.1c0 1.1-.1 2.2-.2 3.3 2.5 2.1 4.6 4.5 6.4 7.1v-5c-1.8-2.2-3.9-4.1-6.3-5.8.1.2.1.3.1.4zM195 113.6c8.2-12.2 18.2-26.1 27.1-38.4.7-.9 1.2-1.6 1.6-2.2h-.3c-1-.1-2.1-.2-3.2-.3-.2.3-.4.5-.6.8-6.3 8.7-18 24.9-28.1 39.9 1.2 0 2.4.1 3.5.2zM185.2 82h4.4c-.2 5.2-.4 10.6-.7 15.9-.2 4.4-.4 8.8-.6 13.1 0 .7-.1 1.4-.1 2 .4 0 .9 0 1.3.1h.3c.5 0 .9.1 1.4.1v-.2c0-.7.1-1.3.1-2 .2-4.3.4-8.6.5-13v-.1c.2-5.4.5-10.8.7-16l.1-3.1h-7.9l-2.1 3c.9.2 1.7.2 2.6.2zM57.5 219.6l-1.5-.9s-.1 0-.1-.1h-.1c-.4-.2-.9-.4-1.3-.6-.1-.1-.2-.1-.3-.1 0 0-.1 0-.1-.1-.3-.1-.7-.3-1-.4-.2-.1-.4-.1-.5-.2-.3-.1-.7-.2-1-.3h-.1c-.1 0-.3-.1-.4-.1-.4-.1-.8-.2-1.1-.2h-.4c-.5-.1-1-.2-1.5-.2h-.2c-.4 0-.8 0-1.2-.1H46.4c-.6 0-1.1 0-1.6.1h-.2c-.6.1-1.2.2-1.7.3-.1 0-.3.1-.4.1-.6.1-1.1.3-1.6.5h-.1c-.5.2-1 .4-1.5.7 0 0-.1 0-.1.1-.1 0-.1.1-.2.1-.5.3-1 .6-1.4.9-.1 0-.1.1-.2.1 0 0-.1 0-.1.1-.4.3-.8.7-1.2 1l-.1.1-.1.1c-.4.4-.8.8-1.1 1.3l-.2.2s0 .1-.1.1c-.3.5-.7 1-1 1.5-2 4-2.5 8.6-2.4 12.4.1-.1.1-.2.2-.3 1.3-1.5 4.2-4.2 9.1-4.6.7-.1 1.4-.1 2-.1H43c.3 0 .6 0 .9.1.1 0 .2-.1.3-.1.5-.1.9-.2 1.4-.3h.2c.4-.1.8-.1 1.1-.2h.5c.3 0 .6 0 .9-.1H51c.3 0 .7.1 1 .1h.4c.4.1.8.1 1.2.2h.2c.4.1.9.2 1.3.3.1 0 .2.1.3.1.3.1.5.1.8.2.1 0 .2.1.3.1.2.1.4.1.6.2.1 0 .2.1.3.1l.6.2c.2.1.4.1.6.2.6.2 1.8.7 3.4 1.6-.3-1.3-.7-2.6-1-3.9-.6-.3-1.2-.5-1.6-.6-.1 0-.3-.1-.5-.1l-.6-.2-.3-.1h-.1c-.2-.1-.4-.1-.6-.2l-.3-.1c-.3-.1-.6-.1-.9-.2l-.2-.1h-.1c-.4-.1-.9-.2-1.4-.3h-.2c-.4-.1-.9-.2-1.3-.2-.1 0-.2 0-.4-.1h-.1c-.4 0-.7-.1-1.2-.1h-3.1c-.3 0-.7 0-1 .1h-.5c-.4 0-.9.1-1.3.2H45c-.5.1-1.1.2-1.6.4-.1 0-.2.1-.4.1h-.1c-.4.1-.8.2-1.2.4-.2.1-.4.1-.5.2h-.1c-.4.1-.8.3-1.2.5l-.2.1c-.1.1-.2.1-.4.2-.6.3-1.2.6-1.7.9-1.4.8-2.6 1.7-3.8 2.6.2-2.5.7-5.4 2-8 .2-.4.4-.7.8-1.2v-.1l.1-.1c.3-.4.6-.7.9-1l.1-.1c.3-.3.6-.5.9-.8l.1-.1c.3-.3.7-.5 1.1-.7l.1-.1.1-.1c.4-.2.8-.4 1.1-.5l.2-.1c.4-.1.8-.3 1.2-.4h.1l.2-.1c.5-.1.9-.2 1.4-.3h.2c.4 0 .9-.1 1.4-.1h1.5c.4 0 .8.1 1.2.2H48.8c.3.1.6.1 1 .2.1 0 .2.1.3.1h.1l.9.3c.2.1.3.1.5.2.3.1.6.2.9.4l.2.1h.1l.2.1c.4.2.8.4 1.1.6.1 0 .1.1.2.1.4.2.9.5 1.3.8.1 0 .1.1.2.1l.2.2.9.6c.1.1.2.1.3.2l.1.1h.1c.3.2.6.4.8.7.1.1.3.2.4.4l.6.6c-.6-1.8-1.2-3.5-1.8-5.3.3-.4.2-.4.1-.5zM168.9 82.2v.1s0 .1.1.1c.1.1.2.1.3.1h.6c.6 0 1.4 0 1.7-.1.7-.1 1.5-.1 2.2-.2l.3-8.1c-.3.4-.5.6-.6.8l-1.9 2.7c-.1.2-.3.4-.5.6-.4.6-.9 1.2-1.3 1.8-.5 1.1-1 1.9-.9 2.2zM44.3 252.3H42c-.2 0-.5 0-.7.1.3 1.9 1 3.6 2 4.8.6-1.7 1.3-3.3 2.3-4.7-.5-.1-.9-.2-1.3-.2zM61.4 241c.1 0 .1 0 0 0h.2c.2 0 .3-.1.5-.1h.2c.3 0 .5-.1.8-.1h.5c-.3-1.6-.7-3.2-1.1-4.8-.7-.2-1.5-.3-2.2-.4h-.4c-.8-.1-1.6-.1-2.3-.1H55.5c-.3 0-.5.1-.8.1h-.2c-.2 0-.3 0-.5.1-.2 0-.5.1-.7.1h-.1c-.2 0-.4.1-.6.1-.3.1-.5.1-.8.2-.1 0-.1 0-.2.1-.1 0-.3.1-.4.1.2.4.4.9.6 1.3-.5-.1-1-.2-1.5-.2H48.6c-.3.1-.5.3-.8.4h-.1c-.1 0-.1.1-.2.1s-.2.1-.2.1c-.4.3-.8.5-1.2.9-1.5 1.2-3.2 3.5-4.2 5.8.2 0 .4-.1.6-.1.1 0 .3 0 .4-.1.5-.1 1-.1 1.6-.1h1c.8-1.4 1.7-2.6 2.6-3.3.3-.2.6-.5.9-.7 0 0 .1 0 .1-.1h.1l.1-.1h.1l.6-.3c.1 0 .1-.1.2-.1l.2-.1h.1c.2-.1.4-.2.5-.3.1 0 .2-.1.3-.1h.4c.2-.1.3-.1.5-.2.1 0 .2 0 .2-.1h.1l.2-.1c.2-.1.4-.1.7-.2.1 0 .3-.1.4-.1H54.1c.2 0 .3-.1.5-.1.1 0 .3 0 .4-.1h.2c.2 0 .4-.1.7-.1H57.6c.7 0 1.4 0 2 .1-3.8 1.2-8 3.4-11.6 6.5h.1c.1 0 .3.1.4.1l.9.3h.2c.4.2.7.4 1.1.6.1 0 .1.1.2.1l.1.1c3.2-2.5 6.8-4.2 9.9-5.2.2.2.4.2.5.1zM60.8 272.8h-.4c-.4 0-.7 0-1-.1h-.2c-.5 0-1.1 0-1.6.1-.1 0-.3 0-.4.1-.5.1-1 .2-1.4.4-.5.2-1.1.5-1.7.8.7.8 1.3 1.5 2 2.3.3-.1.5-.2.7-.3.2-.1.5-.2.9-.2h.3c.4-.1.8-.1 1.1-.1h.5c.7-.9 1.3-1.8 1.9-2.8h-.1c-.1-.1-.3-.2-.6-.2zM1035.4 130.5c-3 0-5.4.9-7.2 2.6-1.9 1.8-2.9 4.2-3 7.5h3.9c.1-2 .7-3.7 1.8-4.9 1.1-1.2 2.7-1.9 4.7-1.9s3.5.5 4.4 1.6c.9 1.1 1.4 2.5 1.4 4.4 0 2-.7 4-2.2 6.1-1.4 2-3.2 4-5.3 5.9-2.1 1.9-5 4.3-8.7 7.2v2.8h21.1v-3.3h-15.1c2.9-2.3 5.2-4.3 7.1-5.9 1.8-1.7 3.5-3.7 4.9-5.9 1.5-2.3 2.2-4.6 2.2-7 0-2.9-.9-5.1-2.7-6.8-1.9-1.6-4.3-2.4-7.3-2.4zm-1.1 50.3c-4.1 0-7 1.4-8.6 4.2-1.6 2.8-2.5 6.6-2.5 11.6s.8 8.9 2.5 11.7c1.6 2.8 4.5 4.2 8.6 4.2s6.9-1.4 8.6-4.2c1.6-2.8 2.4-6.7 2.4-11.7 0-4.9-.8-8.8-2.4-11.6-1.7-2.8-4.6-4.2-8.6-4.2zm0 28.1c-2 0-3.5-.5-4.6-1.6-1-1.1-1.7-2.5-2.1-4.2-.3-1.8-.5-3.9-.5-6.5 0-2.5.2-4.6.5-6.3.3-1.8 1-3.2 2.1-4.2 1.1-1.1 2.6-1.6 4.6-1.6 2 0 3.5.5 4.5 1.6s1.7 2.5 2.1 4.2c.3 1.7.5 3.8.5 6.3 0 2.6-.2 4.8-.5 6.5-.3 1.8-1 3.2-2.1 4.2s-2.6 1.6-4.5 1.6zm1.1 22c-3 0-5.4.9-7.2 2.6-1.9 1.8-2.9 4.2-3 7.5h3.9c.1-2 .7-3.7 1.8-4.9 1.1-1.2 2.7-1.9 4.7-1.9s3.5.5 4.4 1.6c.9 1.1 1.4 2.5 1.4 4.4 0 2-.7 4-2.2 6.1-1.4 2-3.2 4-5.3 5.9-2.1 1.9-5 4.3-8.7 7.2v2.8h21.1v-3.3h-15.1c2.9-2.3 5.2-4.3 7.1-5.9 1.8-1.7 3.5-3.7 4.9-5.9 1.5-2.3 2.2-4.6 2.2-7 0-2.9-.9-5.1-2.7-6.8-1.9-1.5-4.3-2.4-7.3-2.4zM1044.7 283.9H1026v17.6h3.7c.5-1.3 1.3-2.3 2.5-3 1.1-.7 2.5-1.1 4-1.1 2.2 0 3.9.6 5.1 1.9 1.1 1.2 1.7 2.9 1.7 5.2 0 2.2-.6 4-1.7 5.4-1.2 1.3-2.9 2-5.1 2-1.8 0-3.3-.5-4.6-1.4-1.2-.9-2-2.2-2.4-3.8h-3.8c.4 2.6 1.5 4.6 3.4 6.2 1.9 1.5 4.3 2.3 7.3 2.3 2.3 0 4.3-.5 5.9-1.4 1.6-.9 2.8-2.2 3.6-3.9.8-1.6 1.2-3.5 1.2-5.6 0-1.8-.3-3.4-1-5-.6-1.6-1.7-2.9-3.2-3.8-1.5-1-3.4-1.5-5.8-1.5-1.5 0-2.9.3-4.2.9-1.3.6-2.3 1.3-2.9 2.2v-9.8h15.1v-3.4h-.1z"/><path class="st1" d="M1025.3 116.5c-3 0-5.4.9-7.2 2.6-1.9 1.8-2.9 4.2-3 7.5h3.9c.1-2 .7-3.7 1.8-4.9 1.1-1.2 2.7-1.9 4.7-1.9s3.5.5 4.4 1.6c.9 1.1 1.4 2.5 1.4 4.4 0 2-.7 4-2.2 6.1-1.4 2-3.2 4-5.3 5.9-2.1 1.9-5 4.3-8.7 7.2v2.8h21.1v-3.3h-15.1c2.9-2.3 5.2-4.3 7.1-5.9 1.8-1.7 3.5-3.7 4.9-5.9 1.5-2.3 2.2-4.6 2.2-7 0-2.9-.9-5.1-2.7-6.8-1.9-1.6-4.3-2.4-7.3-2.4zm-1.1 50.3c-4.1 0-7 1.4-8.6 4.2-1.6 2.8-2.5 6.6-2.5 11.6s.8 8.9 2.5 11.7c1.6 2.8 4.5 4.2 8.6 4.2s6.9-1.4 8.6-4.2c1.6-2.8 2.4-6.7 2.4-11.7 0-4.9-.8-8.8-2.4-11.6-1.7-2.8-4.6-4.2-8.6-4.2zm0 28.1c-2 0-3.5-.5-4.6-1.6-1-1.1-1.7-2.5-2.1-4.2-.3-1.8-.5-3.9-.5-6.5 0-2.5.2-4.6.5-6.3.3-1.8 1-3.2 2.1-4.2 1.1-1.1 2.6-1.6 4.6-1.6 2 0 3.5.5 4.5 1.6s1.7 2.5 2.1 4.2c.3 1.7.5 3.8.5 6.3 0 2.6-.2 4.8-.5 6.5-.3 1.8-1 3.2-2.1 4.2s-2.6 1.6-4.5 1.6zm1.1 22c-3 0-5.4.9-7.2 2.6-1.9 1.8-2.9 4.2-3 7.5h3.9c.1-2 .7-3.7 1.8-4.9 1.1-1.2 2.7-1.9 4.7-1.9s3.5.5 4.4 1.6c.9 1.1 1.4 2.5 1.4 4.4 0 2-.7 4-2.2 6.1-1.4 2-3.2 4-5.3 5.9-2.1 1.9-5 4.3-8.7 7.2v2.8h21.1v-3.3h-15.1c2.9-2.3 5.2-4.3 7.1-5.9 1.8-1.7 3.5-3.7 4.9-5.9 1.5-2.3 2.2-4.6 2.2-7 0-2.9-.9-5.1-2.7-6.8-1.9-1.5-4.3-2.4-7.3-2.4zM1034.6 269.9h-18.7v17.6h3.7c.5-1.3 1.3-2.3 2.5-3 1.1-.7 2.5-1.1 4-1.1 2.2 0 3.9.6 5.1 1.9 1.1 1.2 1.7 2.9 1.7 5.2 0 2.2-.6 4-1.7 5.4-1.2 1.3-2.9 2-5.1 2-1.8 0-3.4-.5-4.6-1.4-1.2-.9-2-2.2-2.4-3.8h-3.8c.4 2.6 1.5 4.6 3.4 6.2 1.9 1.5 4.3 2.3 7.3 2.3 2.3 0 4.3-.5 5.9-1.4 1.6-.9 2.8-2.2 3.6-3.9.8-1.6 1.2-3.5 1.2-5.6 0-1.8-.3-3.4-1-5-.6-1.6-1.7-2.9-3.2-3.8-1.5-1-3.4-1.5-5.8-1.5-1.5 0-2.9.3-4.2.9-1.3.6-2.3 1.3-2.9 2.2v-9.8h15.1v-3.4h-.1zM294.6 203.1h.1c.5-.1 1-.2 1.6-.2-.2-.2-.4-.5-.7-.7-.5-.6-1.1-1.1-1.7-1.5l-.1-.1c-.1-.1-.2-.1-.3-.2-.5.1-1 .2-1.5.4h-.1l.9 2.9c.7-.4 1.2-.5 1.8-.6zM116.1 92.3H117.4c.8-.1 1.6-.3 2.3-.4.1 0 .2 0 .4-.1h.3c.2 0 .3 0 .5-.1l-.3-5.1c-.1-1-.1-2-.2-3-.9 1.5-1.9 3.3-2.3 3.9l-1 1.8c-.1.1-.1.2-.2.3-.2.4-.5.9-.8 1.3-.3.5-.5 1-.5 1.2v.1c.3 0 .4.1.5.1z"/><path class="st1" d="m300 209.5-.1-.1c-.1-.1-.2-.1-.3-.2-.7-.4-1.3-.7-2-.9-.1 0-.2-.1-.3-.1-.5-.2-1.1-.4-1.7-.7h-.1c-.1 0-.2-.1-.3-.1-.6-.2-1.2-.4-1.9-.6H293c-.5-.1-1-.2-1.6-.4H291.1c-.6-.1-1.1-.2-1.8-.3h-.3c-.4 0-.7-.1-1.1-.1.4-.3.9-.6 1.2-.8.1 0 .1-.1.2-.1.5-.3 1-.5 1.5-.7l.1-.1h.1l.1-.1c.5-.2 1.1-.4 1.6-.6h.2l-.8-2.9h-.1c-.1 0-.1 0-.2.1-.6.2-1.3.4-1.9.7-.1 0-.1.1-.2.1h-.1c-.6.3-1.3.6-1.9.9-.1 0-.1.1-.2.1-.6.3-1.2.7-1.7 1.1 0 0-.1 0-.1.1l-.1.1c-.6.4-1.1.9-1.6 1.3l-.1.1-.2.2c-.5.5-1 1-1.5 1.6-.1.1-.1.2-.2.3-.2.2-.4.5-.6.8.4-.1.7-.2 1.1-.3 1.9-.5 3.7-.6 5.4-.4.1 0 .2 0 .4.1h.2c.4.1.7.1 1.1.2.2 0 .3.1.5.1h.1l.9.3c.2.1.4.1.6.2.3.1.6.2.9.4l.6.3c.3.1.6.3.8.5.2.1.3.2.5.3.3.2.6.4.8.6.1.1.2.1.2.2.1.1.2.1.2.2.3.2.5.4.8.6.6.2 1.2.5 1.7.8.1.1.3.2.4.2.5.3 1.1.6 1.6 1 .1 0 .1.1.2.1.6.4 1.1.8 1.7 1.3.1.1.2.2.3.2l.1.1c.2.1.4.3.5.5-.4-1.6-1-3.3-1.8-5.1-.3-.6-.7-.8-1.2-1.1zM456.1 177l4.2 11.2h-25.1l-1.6-6.4-.6-2.3H410.6l-.6 2.3-1.7 6.4h-23.2l4.3-11.2h-3.2l-5.4 14.2h29.8l2.3-8.7h17.8l2.2 8.7h31.8l-27-71.6h-3.2zM308.3 216.5c-.2 1.2-.5 2.3-.7 3.5.4-.9.8-1.9 1.3-2.8-.3-.3-.5-.5-.6-.7zM532.4 137.2c.2.3.5.6.7 1 2.1 3 3.5 6.2 4.3 9.8-.4-2.2-.6-4.5-.6-6.8 0-.9 0-1.8.1-2.7-.4-.7-.8-1.3-1.2-2-1.3-1.8-2.7-3.5-4.3-5.1.5 1.9.8 3.8 1 5.8zM318.7 216.9c-.3.1-.5.2-.7.3-.1.1-.3.1-.4.2-.4.2-.8.5-1.2.7-.2.1-.4.2-.7.4v.5c0 .8-.1 1.7-.3 2.7h.1c.1 0 .2 0 .3-.1.3-.1.6-.2 1-.2.2 0 .3-.1.5-.1h.2c.3-.1.6-.1.9-.2h.1c.1-.7.1-1.3.2-1.9v-2.3zM92.3 220.9l-.3-.6-.6-.9-.1-.1c-.1-.1-.2-.3-.3-.4-.2-.3-.5-.6-.7-.8 0-.1-.1-.1-.1-.2-.1-.1-.2-.2-.2-.3-.3-.3-.7-.7-1.1-1l-.1-.1s-.1 0-.1-.1c-.4-.3-.9-.6-1.4-.9-.1 0-.2-.1-.3-.1-.1 0-.1-.1-.2-.1-.3-.2-.7-.3-1.1-.5h-.1v1.2c0 .5-.1.9-.1 1.4v.7c.1 0 .2.1.3.1h.2c.3.2.7.4.9.6l.1.1c.3.2.6.5.8.7l.1.1.2.2c.2.2.4.4.5.6.1.1.1.2.2.3l.1.1c.2.2.3.5.4.7.1.2.2.3.3.5.1.2.2.5.4.7.1.2.2.4.2.6.1.3.2.6.3.8 0 .1 0 .1.1.2.6-1.2 1.2-2.3 1.8-3.5 0 .1-.1.1-.1 0zM226.8 82.6l-.1.1c-.5.5-1.1 1.1-1.5 1.6-.4.5-.7 1.1-.5 1.4.2.4.9.7 1.8.8h.1c.3-1.6.6-3.2.8-4.7-.2.4-.4.6-.6.8zM73.5 210.4c0-.1 0-.1 0 0-.1 0-.2-.1-.2-.1-.5-.2-1.1-.3-1.6-.4-.1 0-.2-.1-.4-.1-.4-.1-.9-.2-1.3-.2-.5.5-1 1.1-1.4 1.7-.6.7-1.1 1.8-1.7 2.9 0-.3.1-.6.1-.9 0-.2.1-.5.1-.7l.1-.3V212c.1-.4.1-.7.2-1.1 0-.2.1-.4.2-.6l.1-.3v-.2c0-.2.1-.3.1-.5h-1.7c-.5 0-1 .1-1.4.2-.1.2-.1.5-.2.7l-.3 1.2v.2c0 .1 0 .2-.1.3-.1.3-.1.5-.1.8-.1.5-.1.9-.2 1.4V214.7c0 .2-.1.5-.1.7v3.5c1.3 2.6 2.6 5.1 3.7 7.4.3.5.5 1 .8 1.5 3.3 6.7 6.3 13.8 8.6 21.3l.9-1.5c.3-.5.6-1.1.9-1.6-.6-1.3-1.2-2.6-1.9-3.9-.2-.5-.5-1-.8-1.5-2.3-4.6-5.1-10.4-8.1-15.1.3-.2.6-.4 1-.6.1 0 .2-.1.3-.1.3-.1.6-.3.9-.4h.1s.1 0 .1-.1c.4-.1.8-.3 1.2-.4H71.7c.4-.1.7-.2 1.1-.2h.4c.5-.1 1-.1 1.4-.2h1.8c.5 0 1 .1 1.6.1h.2l1.5.3c.1 0 .2 0 .4.1.5.1 1.1.3 1.6.4.1 0 .1 0 .2.1h.1c.5.2 1 .3 1.4.6h.1c.1 0 .1.1.2.1.5.2 1.1.5 1.6.8.1.1.2.1.3.2.5.3.9.6 1.4.9.1.1.2.1.3.2.4.3.8.6 1.2 1 .5-.9 1-1.8 1.4-2.7-.3-.2-.5-.4-.8-.6-.1-.1-.2-.1-.3-.2-.5-.4-1-.7-1.6-1.1l-.1-.1c-.1 0-.2-.1-.2-.1-.6-.3-1.2-.7-1.8-.9l-.3-.1h-.1c-.6-.2-1.1-.5-1.7-.6-.1 0-.2-.1-.3-.1-.6-.2-1.2-.4-1.9-.5l-.2-.1h-.2c-.6-.1-1.1-.2-1.6-.3h-.2c-.5-.1-1.1-.1-1.8-.1h-2.2c-.5 0-1.1.1-1.7.2H72.6c-.1 0-.2 0-.4.1 2.2-1.9 4.7-3.3 6.3-3.7.5-.1.9-.1 1.5-.2h2c.2 0 .5.1.8.1h.1c-.3-.4-.5-.7-.8-1l-.1-.1-.1-.1c-.4-.5-.9-.9-1.3-1.3l-.1-.1c-.1-.1-.2-.1-.2-.2-.1-.1-.2-.2-.4-.3h-.2c-.6 0-1.2.1-1.9.2-3.1.7-8 3.8-10.9 7.8 1.1-3.9 2.9-7.6 4-9.1.9-1.1 1.7-2 2.6-2.7zM165.5 63.8c-.1.2-.3.4-.5.6-.4.6-.9 1.2-1.3 1.8-.6.8-1 1.6-.9 1.9v.1s0 .1.1.1c.1.1.2.1.3.1h.6c.6 0 1.4 0 1.7-.1 1.3-.1 2.5-.2 3.8-.3H170.4c1.3-.1 2.7-.1 4-.1 0-1 .1-2 .1-3-1.3 0-2.7.1-4.3.2h-1.1c-.3 0-.6 0-1 .1l1.8-2.4c.6-.9 2.6-3.6 4.2-5.8l.8-1.1c0-.8.1-1.5.1-2.3h-2.2c-1.7 2.4-4.6 6.3-5.4 7.4l-1.9 2.8zM57 221.9c-.1 0-.2 0-.3-.1-.8-.2-1.6-.3-2.4-.4h-.4c-.8-.1-1.6-.1-2.3-.1H49.5c-.3 0-.5.1-.8.1h-.2c-.2 0-.3 0-.5.1-.2 0-.5.1-.7.1h-.1c-.2 0-.4.1-.6.1-.3.1-.5.1-.8.2-.1 0-.1 0-.2.1-.1 0-.3.1-.4.1-.2.1-.4.1-.6.2h-.2s-.1 0-.1.1c-.1.1-.3.1-.4.2-.2.1-.5.2-.7.3h-.1c-.1 0-.1.1-.2.1s-.2.1-.3.2c-.3.1-.5.3-.8.4h-.1c-.1 0-.1.1-.2.1s-.2.1-.2.1c-.4.3-.8.5-1.2.9-1.9 1.5-3.9 4.5-4.8 7.5 1-.5 2.3-.9 3.7-1.1.8-1.6 2-3.2 3-4 .3-.2.6-.5.9-.7 0 0 .1 0 .1-.1h.1l.1-.1h.1l.6-.3c.1 0 .1-.1.2-.1l.2-.1h.1c.2-.1.4-.2.5-.3.1 0 .2-.1.3-.1h.4c.2-.1.3-.1.5-.2.1 0 .2 0 .2-.1h.1l.2-.1c.2-.1.4-.1.7-.2.1 0 .3-.1.4-.1H48c.2 0 .3-.1.5-.1.1 0 .3 0 .4-.1h.2c.2 0 .4-.1.7-.1H51.5c.7 0 1.4 0 2 .1-3.8 1.2-8 3.4-11.6 6.6H42.8c.4 0 .8 0 1.2.1.2 0 .3.1.5.1h.2c.3.1.7.1 1 .2.1 0 .1.1.2.1 2.9-2.1 6.1-3.5 8.8-4.4.1 0 .3-.1.5-.1h.2c.2 0 .3-.1.5-.1h.2c.3 0 .5-.1.8-.1h.2c.2 0 .5-.1.7-.1h2c-.4-1.4-.9-2.8-1.3-4.2-.4-.3-.9-.4-1.5-.6zM38 217c.5-.1.9-.2 1.4-.3h.2c.4-.1.8-.1 1.1-.2h.5c.3 0 .6 0 .9-.1h2.7c.3 0 .7.1 1 .1h.4c.4.1.8.1 1.2.2h.2c.4.1.9.2 1.3.3.1 0 .2.1.3.1.3.1.5.1.8.2.1 0 .2.1.3.1.2.1.4.1.6.2.1 0 .2.1.3.1l.8.3c.2.1.4.1.6.2.8.2 3.1 1.3 5.6 2.8-.5-1.5-1.1-2.9-1.6-4.3-1.4-.7-2.5-1.2-3.2-1.3-.1 0-.3-.1-.5-.1l-.6-.2-.3-.1h-.1c-.2-.1-.4-.1-.6-.2l-.3-.1c-.3-.1-.6-.1-.9-.2l-.2-.1h-.1c-.4-.1-.9-.2-1.4-.3h-.2c-.4-.1-.9-.2-1.3-.2-.1 0-.2 0-.4-.1h-.1c-.4 0-.7-.1-1.2-.1h-.5c-2.2.8-4.6 2-6.9 3.6.1-.3.1-.3.2-.3zM55.7 251.7h.1c.4 0 .7-.1 1.1-.1H59c.5 0 1 .1 1.5.2-.2-.6-.5-1.2-.8-1.7-.1-.1-.1-.2-.2-.3 0-.1-.1-.1-.1-.2-.2-.3-.4-.7-.6-.9-.1-.1-.2-.2-.3-.4l-.1-.1c-.2-.2-.4-.5-.7-.7-.2-.1-.3-.3-.5-.4-.2-.2-.5-.4-.8-.5l-.6-.3c-.3-.1-.6-.3-.9-.4-.2-.1-.4-.1-.6-.2-.3-.1-.7-.2-1-.2h-.2c-.2 0-.3-.1-.5-.1-.4 0-.8-.1-1.2-.1H50.7c-.5 0-1 0-1.6.1.1 0 .2.1.3.1h.2c.4.2.7.4 1.1.6.1 0 .1.1.2.1l.1.1c.2.2.5.3.7.5l.3.3.6.6.3.3c.2.2.3.4.5.6h.1c.1 0 .3.1.4.1h.1c.1 0 .1.1.2.1-.2 0-.4.1-.5.1.2.4.4.7.6 1.1 0 0 0 .1.1.1v.1c.1.3.3.7.4 1 0 .1.1.3.1.4.2 0 .3-.1.5-.1.1.2.2.2.3.2zM498.6 151.7v-7.8h.4c1.9 0 3.6.2 5.2.6.2-.9.4-1.9.4-2.9v-.1c-1.7-.4-3.5-.6-5.5-.6h-3.4v12c.8-.2 1.5-.5 2.2-.8.2-.1.4-.3.7-.4zM419.6 248.9c-.6-.2-1.3-.3-2.1-.4v.4h2.1zM617.9 136.9c.3.4.6.9.9 1.3 3.3 5.1 4.9 10.9 4.9 17.2 0 6.3-1.7 12-4.9 17.2-3.3 5.2-7.9 9.3-13.6 12.3-5.8 3-12.2 4.5-19.2 4.5s-13.4-1.5-19.2-4.5c-5.7-3-10.3-7.1-13.6-12.3-.5-.8-.9-1.6-1.4-2.4-1.8-1.3-3.5-2.7-5-4.3.9 2.9 2.2 5.6 3.8 8.3 3.6 5.7 8.5 10.1 14.7 13.4 6.2 3.3 13.1 4.9 20.6 4.9 7.5 0 14.4-1.6 20.6-4.9 6.2-3.3 11.1-7.7 14.7-13.4 1.2-2 2.3-4 3.1-6.1v-25.4c-.8-2.1-1.8-4.1-3.1-6.1-1.4-2.2-3-4.2-4.7-6 .7 2.1 1.1 4.2 1.4 6.3zM417.5 229.3v2.2c1.8-.2 3.2-.8 4.2-1.7l.5-.5h-4.7zM420.5 262.7h.9c.6-.3 1.1-.6 1.5-1 .7-.6 1.2-1.3 1.6-2h-7.1v4c1.1-.1 2.1-.3 3-.7v-.3zM968.8 124.4c-2.3-1.3-5.1-2.5-8.6-3.5v3.1c2.1.7 4 1.4 5.6 2.2v17.6c-1.4-.5-3-.9-4.6-1.3v3.1c2.9.8 5.5 1.6 7.6 2.5v-23.7zM462.8 243.4c2.5-3.1 3.8-7 3.8-11.7 0-7.4-2.9-12.9-8.7-16.5.1.7.1 1.5.1 2.3v1.4c3.8 3 5.6 7.2 5.6 12.8 0 4-1 7.2-3.1 9.8-1.1 1.3-2.4 2.5-3.9 3.5.6.8 1.2 1.6 1.6 2.5 1.8-1.2 3.3-2.6 4.6-4.1zM928.9 155c.2-1.5.6-2.8 1.2-4.1v-5.2c-.7.8-1.4 1.6-1.9 2.5-1 1.7-1.7 3.5-2.1 5.4.4.3.9.5 1.3.8l1.5.6zM694.4 208.5v3.1c2.1.5 4 1.1 5.6 1.8v28.2c-2-.8-4.2-1.5-6.4-2.1-4-1-8.1-1.5-12.1-1.5-4.5 0-8.4.7-11.7 2-3.5 1.4-6.2 3.5-8.1 6.1-1.2 1.7-2.1 3.6-2.5 5.7.8.6 1.8 1 2.8 1.5.3-2 1-3.8 2.2-5.4 1.6-2.2 3.8-3.8 6.8-5.1 3-1.2 6.5-1.8 10.6-1.8 3.8 0 7.6.5 11.4 1.4 3.1.8 6 1.9 8.6 3.2-.2-1.7-.3-3.5-.3-5.3 0-4.6.6-8.9 1.8-13v-15.8c-2.4-1.2-5.3-2.2-8.7-3zM608.9 208v3h5.6v20.4c.6-3.4 1.6-6.7 3-9.8V208h-8.6zM535.6 174.4c3.2-4.7 5.1-10.1 5.5-16.2-1.6-2.9-2.8-5.9-3.5-9.1.4 2 .6 4.2.6 6.4 0 6.6-1.7 12.4-5.1 17.2-3.4 4.9-8.1 8.8-14.1 11.4-6.1 2.7-13 4.1-20.6 4.1h-26.9v-11.3h-3v14.3h29.9c8.1 0 15.3-1.5 21.8-4.4 6.6-2.9 11.7-7 15.4-12.4zM765.1 122.6h5.5v18.3h-20.3v47.3h-24V177h-3v14.2h30v-47.3h18.8v-24.3h-7zM810.6 119.6h-8.5v3h5.5v65.6h-24V177h-3v14.2h30zM689.7 131.5c.5.5.9.9 1.3 1.4 2.8 3.4 4.3 8 4.3 13.5 0 5.4-1.3 10-4 13.5-2.7 3.6-6.3 6.2-11 8-4.8 1.8-10.3 2.7-16.4 2.7H660v17.7h-24V177h-3v14.3h30v-17.7h.9c6.5 0 12.3-1 17.5-2.9 5.2-1.9 9.3-4.9 12.4-9 3.1-4.1 4.6-9.1 4.6-15.3 0-6.2-1.7-11.4-5-15.4-1.2-1.4-2.5-2.7-4-3.9.2 1.4.3 2.9.3 4.4zM748.2 254.2c.2-2.2.8-4.3 1.9-6.2 1.3-2.2 3-3.9 5.2-5.2 2.2-1.3 4.6-1.9 7.2-1.9 2.1 0 4 .4 5.9 1.2v-1c0-.8-.1-1.5-.2-2.2-1.8-.6-3.7-1-5.7-1-3.1 0-6.1.8-8.7 2.4-2.7 1.6-4.8 3.7-6.3 6.3-1.1 1.9-1.8 3.9-2.1 6.1.4.3.9.6 1.4.9.5.1 1 .3 1.4.6zM659.9 137.9v.7c.4-.2.8-.4 1.1-.7h-1.1z"/><path class="st1" d="M576.4 150.3c1-1.7 2.3-3 4-4 1.7-1 3.6-1.5 5.6-1.5.7 0 1.4.1 2 .2.3-1 .5-1.9.5-3-.8-.1-1.7-.2-2.5-.2-2.5 0-4.9.6-7.1 1.9-2.1 1.2-3.9 3-5.1 5.1-.5.9-.9 1.8-1.2 2.8.9.4 1.9.8 2.9.9.2-.7.5-1.5.9-2.2zM714.7 140.9h-8.8v-11.2h-3v14.2h11.8zM36.1 202.7c-.6.1-1.1.3-1.6.5h-.1c-.5.2-1 .4-1.5.7 0 0-.1 0-.1.1-.1 0-.1.1-.2.1-.5.3-1 .6-1.4.9-.1 0-.1.1-.2.1 0 0-.1 0-.1.1-.4.3-.8.7-1.2 1l-.1.1-.1.1c-.4.4-.8.8-1.1 1.3l-.2.2s0 .1-.1.1c-.3.5-.7 1-1 1.5-2.8 5.4-2.6 12-2.1 15.9l1.4-1.4c-.2-1.4-.3-2.9-.1-4.5.2-1.8 1.1-3.8 2.1-5.5.3-1.1.7-2.1 1.2-3.2.2-.4.4-.7.8-1.2v-.1l.1-.1c.3-.4.6-.7.9-1l.1-.1c.3-.3.6-.5.9-.8l.1-.1c.3-.3.7-.5 1.1-.7l.1-.1.1-.1c.4-.2.8-.4 1.1-.5l.2-.1c.4-.1.8-.3 1.2-.4h.1l.2-.1c.5-.1.9-.2 1.4-.3h.2c.4 0 .9-.1 1.4-.1h1.5c.4 0 .8.1 1.2.2H42.6c.3.1.6.1 1 .2.1 0 .2.1.3.1h.1l.9.3c.2.1.3.1.5.2.3.1.6.2.9.4l.2.1h.1l.2.1c.4.2.8.4 1.1.6.1 0 .1.1.2.1.3.2.6.4.9.5.5.1.9.3 1.4.4.1 0 .1 0 .2.1l2.4.9c-3.7-2.9-8.1-5-9.3-5.4-.1 0-.3-.1-.6-.2l-.6-.2c-.1 0-.2-.1-.3-.1-.2-.1-.4-.1-.6-.2-.1 0-.2-.1-.3-.1-.2-.1-.5-.1-.8-.2-.1 0-.2-.1-.3-.1-.4-.1-.8-.2-1.3-.3h-.2c-.4-.1-.8-.1-1.2-.2h-.2c-.4.1-.8.1-1.2.2.2.2.1.2 0 .3zM271.9 243.3c.1.2.2.4.4.6.2.3.3.6.5.9 2.4 4.1 4.9 8.2 7.4 12.3-8.7-15.2-17.6-31-25.9-47.2 5.5 11.3 11.4 22.4 17.6 33.4zM354 227.5c-.1-.2-.1-.3-.1-.4 0-.1 0-.1-.1-.2 0-.1-.1-.2-.1-.4 0-.1-.1-.3-.1-.4-.1-.1-.1-.3-.2-.4 0 0 0-.1-.1-.1-.1-.1-.1-.3-.2-.4l-.3-.6c-.1-.1-.1-.3-.2-.4 0-.1-.1-.1-.1-.2-.1-.1-.1-.2-.2-.3v-.1c-.1-.1-.1-.3-.2-.4-.1-.2-.2-.4-.3-.5v-.1c-.1-.1-.1-.2-.2-.3-.1-.2-.2-.3-.3-.5-.1-.1-.2-.3-.3-.4-.1-.2-.3-.3-.4-.5l-.1-.1c-.1-.1-.1-.2-.2-.2-.1-.2-.3-.3-.4-.5-.1-.1-.2-.2-.3-.4 0-.1-.1-.1-.2-.2l-.3-.3c-.1-.1-.2-.2-.4-.3-.2-.1-.3-.3-.5-.4-.1-.1-.3-.2-.4-.3-.2-.1-.3-.3-.5-.4-.1-.1-.3-.2-.4-.3-.2-.1-.4-.2-.5-.3h-.1v.1c0 .1 0 .2.1.4 0 .1 0 .3.1.4V221.2l.3.3.1.1.2.2.1.1.3.3c.1.1.2.3.4.4 0 .1.1.1.1.2l.1.1.1.1c.1.1.2.3.3.4.1.1.1.2.2.2.1.1.2.3.3.4.1.1.1.2.1.2v.1c.1.1.2.3.2.4l.2.3v.1l.1.1.1.1.1.1c.1.1.1.2.2.3.1.2.1.3.2.4l.1.2v.1l.1.2c0 .1.1.2.2.4 0 .1 0 .1.1.2v.2l.1.3v.1c0 .1 0 .1.1.2l.1.2v.1c0 .1.1.2.1.3l2.9-.8c.1 0 0-.1 0-.3zM41.8 252.3c-.5 0-1 .1-1.5.1-.7.1-1.5.3-2.3.6-.7 1.6-1.1 3.1-1.3 4.6.9.7 1.9 1.5 2.9 2.3-.1-2.7.7-5.2 2.2-7.6zM354.1 228zM507.8 211h5.5v87.2h-33v-11.3h-3v14.3h39V208h-8.5zM468.8 267.7c-.6-3.4-1.9-6.3-3.8-8.8-1.2-1.6-2.8-3-4.5-4.2.2 1.2.2 2.4.2 3.7v.3c.7.7 1.4 1.3 1.9 2.1 2.4 3.1 3.6 6.9 3.6 11.9 0 9.4-3.7 15.7-11.2 19.4-8.1 4-18.5 6-31 6h-38.6v-11.3h-3v14.3H424c13 0 23.8-2.1 32.4-6.3 7-3.4 11.1-9 12.4-16.6v-10.5zM304.5 299.6c3 3.9 6 7.7 9.1 11.3-13.4-1-27.5-1.9-42.1-2.6 4-3.4 5.9-6.2 5.9-8.9 0-.6-.1-1.2-.3-1.7-1.4-.1-2.9-.2-4.4-.2 1.1.5 1.7 1.2 1.7 1.9 0 3-4.8 7.1-11.6 11.5 20.7.9 40.1 2.1 58 3.6-4.2-4.7-8.3-9.6-12.1-14.6-1.5-.1-2.8-.2-4.2-.3zM334.7 242.1c-2-1.1-4.3-2-6.8-2.5l-1.8-.3h-.4c-.4-.1-.9-.1-1.3-.2h-.5c.1 0 .2-.1.3-.1.1 0 .2 0 .3-.1h.1c.1 0 .2-.1.3-.1.3-.1.6-.1.9-.2.2 0 .3-.1.4-.1h.3c.3-.1.5-.1.8-.1.2 0 .4-.1.5-.1h.1c.3 0 .6-.1.8-.1h.7c.3 0 .5 0 .8-.1h2c-.7-1-1.4-2.1-2.3-3-.3 0-.6 0-.9.1h-.1c-.2 0-.4 0-.6.1-.3 0-.6.1-.9.1h-.1c-.2 0-.4.1-.6.1-.3 0-.6.1-.9.2h-.2c-.2 0-.3.1-.5.1-.3.1-.6.1-1 .2-.1 0-.2 0-.3.1-.1 0-.3.1-.4.1-.3.1-.5.1-.8.2H322.3c-.2.1-.5.1-.7.2-.3.1-.6.2-.8.3-.1 0-.2.1-.2.1-.1 0-.2.1-.2.1-.1 0-.2.1-.4.1-.5.2-1.1.4-1.6.6 2-2.1 4.1-4 6.3-5.2.4-.3.8-.5 1.2-.7.1 0 .2-.1.3-.1-.9-.6-1.9-1.2-3-1.7-.9.5-1.9 1.1-2.9 1.9.4-.9.9-1.7 1.4-2.6-.9-.3-1.9-.7-2.9-.9-1.1 2-2.1 4-2.8 5.9.5-2 .9-4.1 1.3-6.2H316.7c-.4-.1-.8-.1-1.2-.2h-.4c-.2 0-.5 0-.7-.1 0 .1-.1.3-.1.4 0-.2-.1-.3-.1-.5H311c.8 2.4 1.2 4.7 1.3 6.8-.2-.4-.5-.8-.7-1.2 0-.1-.1-.1-.1-.2s-.1-.1-.1-.2c-.2-.3-.3-.6-.5-.8-.1-.1-.1-.2-.2-.2 0-.1-.1-.1-.1-.2-.2-.3-.3-.5-.5-.8-.1-.2-.2-.3-.4-.5s-.4-.5-.6-.7c-.1-.1-.2-.3-.4-.4-.2-.2-.4-.5-.6-.7l-.1-.1c-.1-.1-.2-.2-.2-.3l-1.5.3c-.4.4-.8.9-1.2 1.3l.4.4c.1.1.2.2.2.3v.1l.1.1c.2.2.4.4.5.6l.3.4c.2.2.3.4.5.6h-.2c-.5-.2-.9-.5-1.4-.7l-.1-.1h-.2c-.4-.2-.7-.3-1.1-.4-.6.8-1.1 1.6-1.8 2.6.1 0 .1 0 .2.1h.2c.5.2 1.1.4 1.5.6.5.2.9.4 1.3.7h.2c.4.2.7.4 1 .6h.2c.3.2.6.4.8.5.3.2.5.3.7.5 1.2.8 2.2 1.8 3 2.9-5.7 4.5-12.7 13-16.3 21.2-.5 1.2-1 2.3-1.4 3.5-.1 2.9 0 6.1.3 9.3.9-3.8 2.1-7.6 3.9-11.6 2.5-5.6 6.4-11 10.2-15.1l-.1.1c-3.1 4.9-7.1 15-8.3 25.8-.4 3.5-.5 7.8-.2 12.4l3.3 4.2c-.5-5.9-.6-11.8-.1-16.3 1.3-11 5.3-20.6 7.9-24.6 1.5-2.4 2.6-4 4.3-5.8 1.1-.2 2.2-.4 3.2-.5h.1c1-.1 2-.2 3-.2h1.5c.4 0 .7 0 1.1.1h.4c.4 0 .8.1 1.2.2h.4c.5.1 1 .2 1.6.3 3.5.7 6.3 2.2 8.7 4.1-.4-1.6-.8-3.1-1.4-4.7zm-18.3-6.5-.9.9-.2-2.3 1.8.6c-.2.3-.4.5-.7.8zM340.5 237.1c0 1-.2 2.1-.4 3.2 2 1.2 3.7 3 4.7 5 1.4 2.7 1.6 5.8.8 9-1.6-3.5-3.9-6.9-7.1-9.5-.4.9-.9 1.8-1.5 2.7 4.9 4.4 7.3 10.5 7.8 15.4 7.8-11.3 4.1-21.5-4.3-25.8z"/><path class="st1" d="M355.2 234.5v-2.2c0-.1 0-.3-.1-.4 0-.1 0-.2-.1-.4v-.5c0-.2-.1-.3-.1-.5v-.1c0-.1 0-.2-.1-.3 0-.1-.1-.2-.1-.4v-.2c0-.1-.1-.3-.1-.4 0-.2-.1-.4-.2-.6 0-.1-.1-.3-.1-.4v-.1l-2.9.9.1.4c0 .2.1.3.1.5 0 .1 0 .2.1.3v.2c0 .1 0 .2.1.3V230.9c-3.5-2.2-6.8-3.3-9.4-3.9-.2-.1-.4-.1-.7-.2H341.4c-.1 0-.3-.1-.5-.1H340.6c-.2 0-.4 0-.6-.1h-.2c-.3 0-.6-.1-.9-.1H336.4c.8.9 1.6 2 2.1 3.1.2 0 .5 0 .7.1h.2c.2 0 .4 0 .5.1h.2c.1 0 .3 0 .4.1h.2c.2 0 .3.1.5.1 3.2.8 8.6 2.5 13.5 7.6 0-.2 0-.3.1-.5V234.9c.4-.2.4-.3.4-.4zM892.5 154.5c-1.5-4-2.3-8.2-2.3-12.8 0-4.6.8-8.9 2.3-12.9v-9.3h-8.6v3h5.6v65.7h-22.1l-6.8-11.3h-3.5L846 158.4l-1.7.8V188.1h-21.8V177h-3v14.3h27.8v-30.1l.2-.1 18.1 30.2h26.8v-36.8zM960.5 211h5.6v87.2h-30.2l-6.7-11.3h-3.5l-16.6-27.6-.1.1-1.6.8v38h-30.1v-11.3h-3v14.3h36.1V262l.2-.1 23.6 39.3h34.9V208h-8.6zM961.1 153.4h5.6v30.4c-2.5 1.4-5.8 2.6-9.6 3.7-4.6 1.3-9.8 1.9-15.4 1.9-8.1 0-15.3-1.5-21.4-4.5-6-2.9-10.6-6.9-13.8-12-.6-.9-1.1-1.9-1.6-2.9-1.7-1.2-3.3-2.5-4.8-3.9.9 3 2.2 5.8 3.8 8.4 3.5 5.5 8.5 9.9 15.1 13 6.5 3.2 14.1 4.8 22.7 4.8 5.9 0 11.3-.7 16.2-2 4.9-1.3 8.8-3 11.8-4.9v-35.1h-8.6v3.1zM854.1 211h5.6v87.2h-33v-11.3h-3v14.3h39V208h-8.6zM695 270.5c1.9-.6 3.8-1.2 5.6-1.9v26.8c-2.6 1.1-5.9 2.1-9.7 2.9-4.7 1-9.6 1.4-14.5 1.4-9.8 0-18.7-2-26.5-5.9-7.7-3.9-13.8-9.3-18.2-16.2-.2-.4-.4-.7-.6-1.1-2.2-1.8-4.3-3.7-6.1-5.8 1.1 3 2.5 5.8 4.2 8.5 4.7 7.3 11.1 13.1 19.4 17.3 8.2 4.2 17.5 6.2 27.8 6.2 5.1 0 10.1-.5 15.1-1.5 4.9-1 8.9-2.3 12.1-3.9v-33.5c-2.6 1.4-5.5 2.6-8.6 3.5v3.2zM815.1 248.1c-.9-6.4-3.1-12.4-6.6-17.9-1.3-2.1-2.8-4-4.4-5.8.9 2.5 1.6 5.2 2.1 7.9 4.1 6.7 6.3 14.2 6.3 22.4 0 8.3-2.2 16-6.6 22.8-4.4 6.9-10.4 12.4-18 16.3-7.6 4-16.1 6-25.4 6-9.2 0-17.8-2-25.4-6-7.6-4-13.6-9.5-18-16.3-.2-.3-.3-.5-.5-.8-2.3-1.8-4.4-3.8-6.3-6 1.1 2.9 2.5 5.7 4.2 8.5 4.7 7.4 11 13.1 19.1 17.4 8.1 4.2 17 6.3 26.8 6.3s18.7-2.1 26.8-6.3c8.1-4.2 14.5-10 19.1-17.4 3.5-5.5 5.7-11.5 6.6-17.9v-13.2zM613.8 236.7H588v61.5h-33v-11.3h-3v14.3h39v-61.5h22.7c0-1.1 0-2.1.1-3zM543.5 236.7h-14.9v-11.3h-3v14.3h17.9zM255.7 295.6c1.5-1 3-2 4.2-3H251.1c-.6 0-1.3 0-2 .1h-.5c-.8 0-1.7.1-2.6.1h-.3c-.8 0-1.6.1-2.4.1h-.8c-.7 0-1.4.1-2.1.1h-.8c-.7.1-1.5.1-2.2.2h-.7c-2 .2-4 .4-6.1.6l-.5.1h-.4c-.8.1-1.6.2-2.3.3l-.6.1h-.4c-.8.1-1.6.2-2.3.3h-.2l-.6.1c-1 .1-2.1.3-3.1.4h-.2c-1.1.2-2.2.3-3.4.5h-.1l-.4.1-.4.1h-.1c-.8.1-1.6.2-2.4.4H212.6c-.2 0-.3 0-.5.1-.8.1-1.6.3-2.4.4l-1.1.2c-.9.2-1.9.3-2.8.5-.2 0-.3.1-.5.1h-.2c-1.2.2-2.3.4-3.5.7l-.4.1-.3.1c-.9.2-1.8.4-2.8.6-.3.1-.5.1-.8.2l-.4.1c-.8.2-1.6.3-2.4.5l-.3.1c-.3.1-.6.1-.9.2-.9.2-1.7.4-2.6.6l-.5.1-.4.1c-1.2.3-2.4.6-3.5.9l-.3.1H185.7c-.2 0-.3.1-.5.1 1.8-1.9 3-3.7 3.7-4.9 1.5-2.6 2-4.8 1.4-6.7-.2-.7-.7-1.7-1.7-2.4-.7.1-1.3.3-2 .4-.1 0-.2 0-.3.1-.3.1-.6.1-.9.2-.7.2-1.4.3-2.1.5h.1c.1 0 .3.1.4.1.3.1.6.2.9.2h.1c.1 0 .1 0 .2.1.4.1.7.2 1 .4 2 .8 1.8 3 .2 5.5-.9 1.6-2.3 3.4-4.1 5.1-3.1 3-4.9 4.6-10 8.1v.1c1-.3 2-.7 3.1-1 .4-.1.7-.2 1.1-.3.8-.2 1.6-.5 2.4-.7.2-.1.5-.1.7-.2.2 0 .3-.1.5-.1.8-.2 1.6-.5 2.4-.7.1 0 .3-.1.4-.1.2-.1.4-.1.7-.2 1-.3 2-.5 2.9-.8.1 0 .2 0 .3-.1.1 0 .2 0 .3-.1 1.2-.3 2.3-.6 3.5-.9.3-.1.6-.1.9-.2.9-.2 1.7-.4 2.6-.6.3-.1.6-.1.9-.2.1 0 .2 0 .3-.1.8-.2 1.6-.4 2.4-.5.1 0 .2-.1.4-.1.3-.1.5-.1.8-.2l2.7-.6c.1 0 .2 0 .4-.1.1 0 .3-.1.4-.1 1.2-.2 2.3-.4 3.5-.7h.2c.2 0 .3-.1.5-.1.9-.2 1.9-.3 2.8-.5.4-.1.7-.1 1.1-.2.8-.1 1.6-.3 2.4-.4.1 0 .3 0 .4-.1.1 0 .3 0 .4-.1h.2c.8-.1 1.6-.2 2.4-.4h.1c.1 0 .3 0 .4-.1.1 0 .3 0 .4-.1 1.1-.2 2.2-.3 3.4-.5h.1c1-.1 2.1-.3 3.1-.4.2 0 .4 0 .6-.1h.3c.8-.1 1.6-.2 2.3-.3.3 0 .7-.1 1-.1.8-.1 1.5-.2 2.3-.3h.3c.2 0 .4 0 .5-.1 2.1-.2 4.1-.4 6-.6h.7c.7-.1 1.5-.1 2.2-.2.3 0 .6 0 .8-.1.7-.1 1.4-.1 2.1-.1h.7c.8-.1 1.6-.1 2.4-.1h.3c.9 0 1.7-.1 2.6-.1h.5c.7 0 1.3-.1 2-.1h3c.5.5 1 .5 1.5.5zM312 222.6c.1 0 .1 0 .2-.1-.2-.3-.3-.6-.5-.9-.6.5-1.1 1.1-1.7 1.7.5-.2 1.1-.4 1.6-.6.2 0 .3 0 .4-.1zM337.5 217.8H338.8c.2 0 .3 0 .5.1-2.4-1.2-4.6-1.8-6.2-2.2-.1 0-.3-.1-.5-.1h-.1c-3 1-5.9 3-8.1 5.1 1.3.1 2.6.3 3.8.6 2.4-1.9 5.5-3.5 8.2-3.5h1.1zM297 229.3H295.4c-.3 0-.5 0-.7.1h-.5c-.2 0-.5.1-.7.1-.1 0-.2 0-.3.1h-.1c-.2 0-.5.1-.7.2l-.8.2c-.1 0-.3.1-.4.1h-.1c-.1 0-.2.1-.3.1-.3.1-.6.2-.8.3-.1 0-.2.1-.3.1-.4.2-.8.4-1.2.5h-.2c-.4.2-.7.4-1 .5-.1.1-.2.1-.3.2h-.1c-.3.2-.5.3-.8.5-.1.1-.2.1-.3.2l-.1.1c-.2.2-.5.3-.7.5.8-4.2 3.1-7.8 7.1-8.8 1-.2 2-.4 3-.4.4 0 .9 0 1.4.1h.4c.3 0 .6.1.8.1.1 0 .2.1.4.1h.1c.3.1.5.1.7.2.2.1.3.1.5.2s.5.2.7.3h.1c.2.1.3.1.4.2.2.1.5.2.7.4h.1c.1.1.2.1.3.2.6-.5 1.1-1 1.7-1.4-.6-.7-1.2-1.5-2-2.1-.3-.1-.6-.2-.8-.4-.2-.1-.4-.2-.6-.2l-.9-.3h-.1c-.2 0-.3-.1-.5-.1-.3-.1-.7-.1-1.1-.2h-.2c-.1 0-.2 0-.4-.1-.5-.1-1.1-.1-1.7-.1-1.2 0-2.4.1-3.7.5-7.5 1.8-10.6 10-9.6 18.8.4-.4.7-.8 1.1-1.2l.4-.4.1-.1c.2-.2.4-.5.7-.7l.3-.3.1-.1.1-.1.6-.6.4-.4c.2-.2.4-.4.7-.5.2-.1.3-.2.4-.3.2-.2.4-.3.7-.5.1 0 .1-.1.2-.1.1-.1.2-.1.3-.2.2-.2.5-.3.7-.4 0 0 .1 0 .1-.1.1-.1.2-.1.3-.2.3-.2.6-.3.9-.5h.2c.4-.2.7-.3 1-.5.1 0 .1-.1.2-.1h.1c.2-.1.5-.2.7-.3.1 0 .3-.1.4-.1.2-.1.4-.1.6-.2.1 0 .3-.1.4-.1.2 0 .4-.1.6-.1.1 0 .2 0 .4-.1.2 0 .4-.1.6-.1h.4c.2 0 .4 0 .5-.1.9-1.1 1.8-2.1 2.7-3-.9.6-1.3.6-1.7.6zM310.1 204.9c0 .3 0 .6-.1.9 1.5 1.1 2.6 2.3 3.4 3.6.5-.7 1.1-1.4 1.7-2.1l.3-.3c-1.1-1.4-2.4-2.8-4.2-4-.3-.2-.7-.4-1.1-.7.1.9 0 1.8 0 2.6zM250 69.8c-.1.1-.1.2-.2.3l-.2.2-.1.1-3.2 3.8c-.2 1.4-.4 2.6-.5 3.6l-.3 3 3 .3c2.7.3 5.3.7 7.8 1l-.1.1-.1.2-.1.1v.1c0 .1-.1.1-.1.2l-13.2 15.9-5.2 6.3c1.3-7.2 2.5-13.7 2.9-16.9l.3-3.1-2.9-.2-1.3 1.6-1 1.2c.9.1 1.6.1 1.9.2-.4 3.5-1.9 11.4-3.4 19.4-.4 1.9-.7 3.8-1.1 5.7-.1.6-.1 1.1.2 1.3H233.4c.1 0 .1 0 .2-.1 0 0 .1 0 .1-.1.1 0 .1-.1.2-.2l.1-.1.3-.3c.5-.5 1-1.2 1.5-1.8.2-.2.3-.4.5-.6l8.7-10.4 13.2-15.9.1-.1.2-.2c.1-.1.2-.3.3-.4.3-.3.5-.6.8-.9.8-1 1.4-2 1.3-2.6-.1-.4-.7-.6-1.4-.7h-.3c-3.2-.4-6.7-.9-10.2-1.4.1-2.2.5-5.2 1-8.6zM47.8 254.4c.4-.3.8-.5 1.2-.7.1-.1.3-.1.4-.2h-.1c-.4-.2-.8-.3-1.2-.4-.1 0-.1 0-.2-.1-.1 0-.2-.1-.2-.1-.6-.2-1.1-.3-1.7-.4h-.5c-2.8 2.1-4.6 4.5-5.7 7.6.8.7 1.6 1.4 2.5 2.1.9-3.3 2.5-5.6 5.5-7.8zM166.6 288.4c.9 0 1.8-.1 2.6-.1h2.8c.6-.6 1.2-1.1 1.9-1.8.4-.4.8-.8 1.1-1.2h-5.9c-.9 0-1.7.1-2.7.1h-.6c-.7 0-1.5.1-2.2.1H162.7c-.8.1-1.7.1-2.6.2h-.4c-1 .1-2.1.2-3.1.3h-.8c-.8.1-1.7.2-2.6.3h-.3l-.6.1c-1 .1-2 .2-3 .4h-.4c-1.2.1-2.4.3-3.6.5l-.7.1h-.2c-1 .1-1.9.3-2.9.4l-.4.1-.6.1-3.6.6H136.6c-1.3.2-2.7.5-4.1.7l-.4.1-.7.1c-1.1.2-2.1.4-3.2.6h-.1c-.3.1-.5.1-.8.2l-.3.1c-1.4.3-2.7.5-4.2.8h-.2l-4.5.9c-.4.1-.9.2-1.3.3-1.2.2-2.3.5-3.5.7-.4.1-.9.2-1.4.3-1.6.3-3.2.7-4.8 1.1-5 1.2-28.3 6.6-49.2 13.4.7-.9 1.5-1.8 2.2-2.7l1.1-1.4-.6-1.6c-1-2.6-2.2-5.3-3.5-7.8-1 .3-1.9.6-2.9.9 1.4 2.7 2.6 5.4 3.6 8-2.8 3.5-5.7 6.9-8.7 10.3l.2.4c21.7-7.8 49.8-14.5 58.5-16.5 1.6-.4 3.2-.7 4.8-1.1.5-.1.9-.2 1.4-.3 1.2-.3 2.3-.5 3.5-.7.4-.1.8-.2 1.3-.3l4.5-.9h.2c1.4-.3 2.8-.5 4.1-.8l.3-.1c.3-.1.5-.1.8-.2h.1c1.1-.2 2.1-.4 3.2-.6.4-.1.7-.1 1.1-.2 1.4-.2 2.7-.5 4-.7h.2l3.6-.6c.3-.1.7-.1 1-.2 1-.1 2-.3 2.9-.4.3 0 .6-.1.9-.1 1.2-.2 2.4-.3 3.6-.5h.4c1-.1 2.1-.3 3-.4.3 0 .6-.1.9-.1.9-.1 1.7-.2 2.5-.3h.7c1.1-.1 2.1-.2 3.1-.3h.4c.9-.1 1.7-.1 2.5-.2h.8c.7 0 1.5-.1 2.2-.1.5.1.7 0 .8 0zM48.8 266.7c.6-.1 1.1-.1 1.7-.1H52.8c.5 0 .9.1 1.4.2h.4c.6.1 1.1.2 1.7.4.1 0 .2 0 .2.1.1 0 .1 0 .2.1.4.1.8.3 1.2.4.2.1.3.1.5.2h.1c.4.2.7.3 1.1.5l.6.3c.4.2.8.5 1.1.7.1 0 .1.1.2.1.1.1.2.1.3.2.4.3.9.6 1.3 1 .2-.2.3-.5.5-.7 0-.3.1-.6.1-.9V267.5c0-.2 0-.4-.1-.6 0-.3-.1-.7-.2-1v-.1c0-.1-.1-.3-.1-.4-.1-.4-.2-.7-.4-1v-.1s0-.1-.1-.1c-.2-.4-.4-.8-.6-1.1 0-.1-.1-.1-.1-.2 0 0 0-.1-.1-.1-.2-.3-.4-.5-.6-.7l-.3-.3-.6-.6-.3-.3c-.2-.2-.5-.3-.7-.5l-.1-.1c-.1 0-.1-.1-.2-.1-.3-.2-.7-.4-1.1-.6h-.2l-.9-.3c-.1 0-.3-.1-.4-.1-.3-.1-.5-.1-.8-.2-.1 0-.3-.1-.4-.1-.3 0-.5-.1-.8-.1h-.4c-.4 0-.7-.1-1-.1H53c-.5 0-1.1 0-1.6.1-.1 0-.3 0-.4.1-.5.1-1 .2-1.4.4-1.9.7-4.2 2.1-6.1 4.2 1.2 1.1 2.5 2.3 3.8 3.6.6-.3 1.1-.4 1.5-.4zm2-4.6c.2-.1.5-.2.9-.2h.3c.4-.1.8-.1 1.1-.1h1.1c.2 0 .4.1.6.1.1 0 .2 0 .3.1.2 0 .4.1.6.2.1 0 .2 0 .2.1.2.1.4.1.6.2.1 0 .2.1.2.1.2.1.5.2.7.4h.6c.2.1.3.2.5.3l.2.2.4.4.2.2c.1.1.2.3.4.5 0 .1.1.1.1.1l.3.6c-.1-.1-.3-.1-.4-.2l-.1-.1c-.2-.1-.4-.2-.6-.2-.5-.2-.9-.3-1.5-.5h-.1c-.1 0-.3-.1-.4-.1-.6-.2-1.3-.3-2-.4h-.4c-.6-.1-1.1-.1-1.6-.2h-2.7c-.7 0-1.3.1-1.9.2-.3 0-.5.1-.8.1 1.1-.9 2.2-1.5 3.2-1.8zM247.1 64.8l.8-.9c-.1.3-.1.6-.2 1 .9.1 1.9.3 2.8.4h.2c.1-.5.2-1.1.3-1.6l.4-3.1c0-.2.1-.4.1-.7 0-.3.1-.5.1-.8.1-.7.3-1.4.3-2 0-.5 0-1-.1-1.1l-.1-.1h-.2c-.1 0-.1.1-.2.1h-.1c-.1 0-.1.1-.2.2h-.1c-.1.1-.2.2-.4.3-.5.5-1.2 1.2-1.7 1.8-.2.2-.4.5-.6.7l-4.7 5.1c1.2.4 2.4.5 3.6.7zM138.1 63.5c-.1-1.3-.1-2.5-.2-3.7l-.1-1.7v-.2c0-.6-.1-1.4-.3-1.7-.1-.1-.1-.1-.2-.1 0 0-.1 0-.1.1h-.1l-.2.2-.1.1-.1.1-.2.2v.2c0 .1-.1.1-.1.2-.1.2-.3.4-.4.6-.1.1-.2.3-.2.4-.1.2-.2.3-.3.5l-1.3 2.1v.1c-.1.2-.2.4-.4.6-.5.9-1.2 1.9-1.8 3 1.9-.4 4-.7 6.1-1zM80.4 194.2H79.3c-.3 0-.6 0-.9.1-.2 0-.4.1-.5.1-.1 0-.2 0-.2.1h-.1c-.3.1-.6.1-.9.2-.2.1-.4.1-.6.2-.1 0-.1 0-.2.1-.3.1-.6.3-.9.4l-.6.3s-.1 0-.1.1c-.3.2-.6.3-.9.5-.2.2-.5.3-.7.5-.3.2-.6.4-.9.7-.2.2-.5.4-.7.6l-.8.8c-.2.2-.4.5-.6.7-.1.1-.1.1-.1.2.6-.1 1.1-.2 1.7-.2H74c.2-.2.4-.3.6-.4.2-.1.4-.3.6-.4.2-.1.5-.3.8-.5h.2c.1-.1.3-.2.4-.2.2-.1.5-.2.7-.3l.2-.1h.1c.1-.1.3-.1.4-.2.2-.1.4-.1.6-.2h.1l.3-.1c.1 0 .2-.1.3-.1.2 0 .4 0 .6-.1H80.7c.4 0 .8 0 1.1.1 2.6.4 6.6 1.7 8.6 6-.3-.1-.6-.1-1-.2H89c-.4-.1-.8-.1-1.2-.2h-.5c-.4 0-.7 0-1-.1H85.5c-.9 0-1.7.1-2.5.1-.5.1-1.1.1-1.6.3l.2.2c.1.1.2.2.2.3 0 .1.1.1.1.2.2.3.5.5.7.8.1.1.2.3.3.4l.1.1c.2.2.3.5.5.7.6-.1 1.3-.1 2-.1h2.1c.3 0 .6.1 1 .1h.4c.4.1.9.2 1.3.3h.2c.4.1.7.2 1.1.3.1.1.3.1.4.2.3.1.6.3 1 .4.1.1.3.1.4.2.4.2.9.5 1.3.8-.6-10-7.5-13.3-12.4-14-.9.4-1.4.3-1.9.3zM30.7 258.5c-.7-.1-1.3-.1-2-.1-.4 0-.8 0-1.2.1 1.5 1.2 2.9 2.6 4.3 4.3-.2-.1-.3-.2-.5-.2-.5-.2-1.1-.5-1.7-.7-.2-.1-.3-.1-.4-.1-.6-.2-1.1-.4-1.6-.5h-.2c-.6-.1-1.2-.2-1.9-.3-.2 0-.3 0-.5-.1-.6-.1-1.1-.1-1.7-.1H21.5c-.2 0-.4 0-.6.1h-.5c-.1 0-.3 0-.4.1-.3 0-.5.1-.8.1H18.9c-1.9 1.3-3.7 3.2-5.1 5.4 1.3-.9 2.6-1.7 3.8-2 .5-.1.9-.3 1.4-.4.1 0 .2-.1.4-.1h.4c.2 0 .4-.1.6-.1h.8c.2 0 .3 0 .5-.1H23.2c.5 0 1 0 1.5.1h.4c.5.1 1 .2 1.6.3h.2c.5.1.9.3 1.4.4.1 0 .3.1.4.1l1.5.6h.1c.5.2.9.4 1.4.7.1.1.2.1.4.2.5.3.9.6 1.4.9.5.3.9.6 1.3 1 .1 0 .1.1.2.1s.1.1.2.1c.4.3.9.7 1.3 1.1-.7-.3-1.3-.6-2-.9-.7-.3-1.3-.5-2-.7h-.1c-.6-.2-1.3-.3-1.9-.4h-.2c-.6-.1-1.3-.1-1.9-.1h-1c-.2 0-.3 0-.5.1-.1 0-.3 0-.4.1-.1 0-.3.1-.4.1h-.2c-.1 0-.2 0-.3.1-.1 0-.3.1-.4.1H25c-.1 0-.2.1-.3.1-.2.1-.3.1-.5.2h-.1c-.1 0-.2.1-.3.1-.1.1-.3.1-.4.2l-.1.1s-.1 0-.1.1c-.1 0-.1.1-.2.1-.2.1-.4.2-.6.4h-.1l-.1.1c-.1 0-.1.1-.2.1-.3.2-.6.4-.9.7-4.1 3.4-6.1 12.1-1.3 19.5.4-2.5 1.3-5.3 3-8.3 2.2-3.7 5.6-6.5 9-7.5.7-.2 1.3-.3 1.9-.5.2 0 .3-.1.5-.1.5-.1.9-.1 1.4-.2h.4c.6 0 1.1-.1 1.7-.1.6 0 1.3 0 2 .1 2.5 2.9 4.8 5.8 6.9 8.7-4.1-7.5-9.2-15.4-15.9-23.1zm-.1 12.2c-4.2 1.1-8.2 4.4-10.8 8.8-.1.1-.1.2-.2.4 0-3.4 1.3-6.3 3-7.7.2-.2.5-.4.7-.5h.1c.1 0 .1-.1.2-.1h.1c.1-.1.2-.2.4-.2h.2l.1-.1.2-.1c.1 0 .2-.1.3-.1h.1l.2-.1c.1 0 .2-.1.3-.1H25.8c.1 0 .2-.1.3-.1H26.4c.1 0 .2 0 .3-.1H28.3c.5 0 1 0 1.5.1h.1c.4.1.8.2 1.3.3-.3-.5-.5-.5-.6-.4zM8.6 270.3c0 .4 0 .7.1 1.1l.2-.2c-.1-.4-.2-.6-.3-.9zM138.5 72.9c-.9 1.5-1.8 3.1-2.8 4.7 0 .5.1 1 .1 1.5l.2 3.3 3.3-.5c2.6-.4 5.3-.8 8.1-1.2-.3.5-.7 1.3-1.4 2.4-3.1 5.2-8.5 14.4-13.4 23.4l-.3-5.7v-.2c-.2-3.4-.4-6.7-.5-10l-.2-3.1-1.5.1c-.6 1.1-1.2 2.1-1.8 3.2h.5c.2 3.3.4 6.7.5 10.1.2 3.7.4 7.3.6 10.8v2.4c.1.9.2 1.9.4 2.1h.1c.1 0 .1 0 .2-.1s.2-.2.2-.3v-.1c.1-.1.2-.3.3-.4.1-.2.2-.3.3-.5l.7-1.4c4.7-8.7 10.8-19.4 16.3-28.7 1.6-2.8 1.9-3.2 1.9-3.2s.1-.1.1-.2c.2-.3.4-.7.7-1.1.5-.8 1.1-1.6 1.3-2.2.1-.2.2-.5.1-.6v-.1c-.1-.2-.4-.2-.7-.2H150.7l-1.2.2c-3.6.5-7.3 1-10.8 1.6 0-1.9-.1-3.9-.2-6zM202.7 53.6c5-.3 10.3-.6 16-.9l-1.2 1.5-.1.1-.1.1-.1.1s-.5.7-3.5 4.8c-6.4 8.8-18.3 25.2-28.4 40.3v-.7c0-.7.1-1.3.1-2 .2-4.3.4-8.6.5-13v-.1l.3-7.2c-1.1 1.6-2.2 3.1-3.2 4.7 0 .8-.1 1.6-.1 2.4-.2 4.4-.4 8.8-.6 13.1 0 .7-.1 1.4-.1 2 0 .8-.1 1.6-.1 2.3l-.1 3.1v.7c0 1.4 0 2.9.3 3.3.1 0 .1.1.2.1s.1 0 .2-.1h.1c.1 0 .1-.1.2-.1l.1-.1.2-.2.1-.1.2-.2.1-.1v-.1c0-.1.1-.1.1-.2v-.1c0-.1.1-.1.1-.2.1-.1.1-.2.2-.3 0-.1.1-.1.1-.2s.1-.1.1-.2.1-.1.1-.2l1.4-2.1c8.8-13.2 20.2-29.3 30.3-43.1 3-4.1 3.5-4.8 3.5-4.8l.1-.1.1-.1c.4-.5.8-1.1 1.3-1.6 1-1.2 1.9-2.4 2.4-3.3.2-.4.3-.7.3-1 0-.1-.1-.2-.2-.3h-.2c-.1 0-.1-.1-.2-.1H220.8l-2 .1c-4.6.2-9.3.4-13.8.7-.8 1.3-1.6 2.4-2.3 3.4zM193.1 30.9c1.9-2.6 3.7-5.1 5.2-7.1.3-.3.5-.7.7-1l.7-.9-.2 4.4-.1 2.3c-.1 2.5-.2 5-.3 7.4 1-.1 2-.1 3-.2.1-2.4.2-4.7.3-7.1.1-3 .3-5.9.4-8.7l.1-2.7v-.2c0-1 .1-2.4-.2-2.8-.1-.1-.1-.1-.2-.1h-.2s-.1 0-.1.1h-.1s-.1 0-.1.1h-.2s-.1 0-.1.1l-.1.1-.1.1-.1.1-.1.1-.1.1c-.1.1-.1.2-.2.3l-.1.1s0 .1-.1.1c-.1.1-.2.2-.2.3l-.1.1-.1.1c-.1.2-.2.3-.4.5s-.4.5-.6.7c-.1.2-.3.4-.4.5l-2.3 3.1c-.2.3-.5.6-.7 1-.8 1.1-1.7 2.2-2.6 3.5-.1 2-.2 3.9-.3 5.6z"/><path d="M154.3 53.9c0-.3.4-1.1.9-1.9.4-.6.9-1.2 1.3-1.8.2-.2.3-.4.5-.6l1.9-2.7c.8-1.1 3.7-5.1 5.4-7.4.7-.9 1.2-1.6 1.3-1.8.3-.4.5-.7.8-1.1.2-.2.3-.5.5-.7.4-.5.8-1.1 1.2-1.7l.2-.3.2-.3s12.3-17 18.9-25.8c.2-.3.5-.7.7-1l2.3-3.1c.1-.2.3-.4.4-.5.2-.2.4-.5.6-.7.1-.2.2-.3.4-.5l.1-.1.1-.1c.1-.1.2-.2.2-.3 0 0 0-.1.1-.1l.1-.1c.1-.1.1-.2.2-.3l.1-.1.1-.1.1-.1.1-.1.1-.1s.1 0 .1-.1h.2l.1-.1h.1l.1-.1h.2c.1 0 .1.1.2.1.3.4.3 1.8.2 2.8v.2l-.1 2.7c-.1 2.8-.3 5.7-.4 8.7-.3 7.3-.7 15-1 21.9 5.6-.4 11.6-.7 17.3-.9l2-.1H214.5c.1 0 .2.1.2.1h.2c.1.1.2.2.2.3 0 .3-.1.6-.3 1-.5.9-1.4 2.1-2.4 3.3-.4.5-.9 1.1-1.3 1.6l-.1.1-.1.1s-.5.7-3.5 4.8c-10.1 13.9-21.5 29.9-30.3 43.1l-1.4 2.1c0 .1-.1.1-.1.2s-.1.1-.1.2-.1.1-.1.2c-.1.1-.1.2-.2.3 0 .1-.1.1-.1.2v.1c0 .1-.1.1-.1.2v.1l-.1.1-.2.2s0 .1-.1.1l-.2.2-.1.1c-.1.1-.1.1-.2.1h-.1c-.1 0-.1.1-.2.1s-.1 0-.2-.1c-.3-.4-.3-1.9-.3-3.3v-.7l.1-3.1c0-.8.1-1.6.1-2.3 0-.7.1-1.4.1-2 .2-4.3.4-8.7.6-13.1.2-5.4.5-10.7.7-15.9h-4.4c-1.3 0-2.5 0-3.8.1-1.6 0-3.3.1-4.9.2h-1.1c-1.3.1-2.5.2-3.8.3-.5 0-2 .1-2.3 0-.1 0-.2-.1-.3-.1l-.1-.1c.1-.4.1-.4.1-.5zm63.9 14.5-.1.1c-.5.5-1.1 1.1-1.5 1.6-.4.5-.7 1.1-.5 1.4.2.4.9.7 1.8.8 2 .2 4 .4 5.7.6 2.5.2 4.5.4 5.2.5-.4 3.5-1.9 11.4-3.4 19.4-.4 1.9-.7 3.8-1.1 5.7-.1.6-.1 1.1.2 1.3.1 0 .1.1.2 0h.1c.1 0 .1 0 .2-.1 0 0 .1 0 .1-.1.1 0 .1-.1.2-.2l.1-.1.3-.3c.5-.5 1-1.2 1.5-1.8.2-.2.3-.4.5-.6l8.7-10.4 13.2-15.9.1-.1.2-.2c.1-.1.2-.3.3-.4.3-.3.5-.6.8-.9.8-1 1.4-2 1.3-2.6-.1-.4-.7-.6-1.4-.7h-.3c-3.2-.4-6.7-.9-10.2-1.4.3-3.2 1.2-8.8 2.1-14.5l.4-3.1c0-.2.1-.4.1-.7 0-.3.1-.5.1-.8.1-.7.3-1.4.3-2 0-.5 0-1-.1-1.1l-.1-.1h-.2c-.1 0-.1.1-.2.1h-.1c-.1 0-.1.1-.2.2h-.1c-.1.1-.2.2-.4.3-.5.5-1.2 1.2-1.7 1.8-.2.2-.4.5-.6.7l-5.8 6.4-2.5 2.8L219 67.6c-.3.2-.5.5-.8.8zm349.6 67.7c1-1.7 2.3-3 4-4 1.7-1 3.6-1.5 5.6-1.5 2 0 3.8.5 5.6 1.5 1.7 1 3.1 2.3 4.1 4.1 1 1.7 1.5 3.6 1.5 5.6 0 2-.5 3.8-1.5 5.6-1 1.7-2.3 3.1-4 4-1.7 1-3.5 1.5-5.6 1.5-2 0-3.9-.5-5.6-1.5-1.7-1-3-2.3-4-4-1-1.7-1.5-3.6-1.5-5.6 0-2.2.5-4.1 1.4-5.7zm-10.9 37.2c6.2 3.3 13.1 4.9 20.6 4.9 7.5 0 14.4-1.6 20.6-4.9 6.2-3.3 11.1-7.7 14.7-13.4 3.6-5.6 5.4-11.9 5.4-18.8s-1.8-13.1-5.4-18.8c-3.6-5.7-8.5-10.1-14.7-13.4-6.2-3.3-13.1-4.9-20.6-4.9-5.2 0-10.1.8-14.6 2.3l-1.5.6c-.4.2-.9.3-1.3.5-.1 0-.1.1-.2.1h-.1c-.4.2-.7.3-1.1.5-.1 0-.1.1-.2.1s-.1 0-.2.1c-.4.2-.9.4-1.3.7-6.2 3.3-11.1 7.7-14.7 13.4-.2.3-.4.6-.6 1 0 .1-.1.1-.1.2v.1s0 .1-.1.1l-.1.1c0 .1-.1.1-.1.2s-.1.2-.1.3c-.1.1-.1.3-.2.4l-.1.1c0 .1-.1.2-.1.2 0 .1-.1.1-.1.2-.1.1-.1.2-.2.4-.1.3-.3.5-.4.8 0 .1-.1.1-.1.2v.2c0 .1-.1.2-.1.2-.1.2-.1.3-.2.5v.2c0 .1-.1.2-.1.3V128.3c0 .1-.1.2-.1.3-.1.2-.1.3-.2.5 0 .1 0 .1-.1.2 0 .1-.1.2-.1.3v.1c0 .1-.1.3-.1.4v.4c0 .1 0 .1-.1.2-.1.4-.3.8-.4 1.3V132.3c-.1.2-.1.5-.2.7 0 .1-.1.2-.1.3v.2c0 .2-.1.3-.1.5v.6c0 .1-.1.3-.1.4-.1.6-.2 1.3-.3 1.9-.1 1.3-.2 2.7-.2 4 0 6.9 1.8 13.1 5.4 18.8 2.9 5.9 7.8 10.3 14 13.6zm-143.6-38.1h.4l4 15.5H409l4.3-15.5zm-9 33.1h17.8l2.2 8.7h31.8l-27-71.7h-29.9l-27 71.7H402l2.3-8.7zm357 85.1c2.2-1.3 3.9-3 5.2-5.3 1.3-2.2 1.9-4.6 1.9-7.2 0-2.6-.6-5-1.9-7.2-1.3-2.2-3.1-4-5.3-5.3-2.2-1.3-4.6-1.9-7.2-1.9-2.6 0-5 .7-7.2 1.9-2.2 1.3-4 3-5.2 5.2-1.3 2.2-1.9 4.6-1.9 7.3 0 2.6.7 5.1 1.9 7.2 1.3 2.2 3 3.9 5.2 5.2 2.2 1.3 4.6 1.9 7.2 1.9 2.7.2 5.1-.5 7.3-1.8zm45.7-13.1c0 8.9-2.3 17.1-7 24.4-4.7 7.4-11.1 13.1-19.1 17.4-8.1 4.2-17 6.3-26.8 6.3s-18.7-2.1-26.8-6.3c-8.1-4.2-14.4-10-19.1-17.4-4.7-7.4-7-15.5-7-24.4 0-8.9 2.3-17.1 7-24.4 4.7-7.4 11-13.1 19.1-17.4 8.1-4.2 17-6.3 26.8-6.3s18.7 2.1 26.8 6.3c8.1 4.2 14.5 10 19.2 17.4 4.6 7.4 6.9 15.5 6.9 24.4zm-112 9.3c-3.2 1.7-6.7 3.1-10.5 4.1-3.8 1-7.7 1.5-11.6 1.5-4.1 0-7.6-.6-10.6-1.8-3-1.2-5.2-2.9-6.8-5-1.6-2.2-2.3-4.6-2.3-7.4 0-2.8.8-5.2 2.3-7.4 1.6-2.2 3.8-3.8 6.8-5.1 3-1.2 6.5-1.8 10.6-1.8 3.8 0 7.6.5 11.4 1.4 3.8 1 7.1 2.3 10.2 4v-34.9c-2.9-1.5-6.8-2.7-11.6-3.6-4.8-.9-9.7-1.4-14.7-1.4-10.4 0-19.7 2.1-28 6.3-8.3 4.2-14.8 9.9-19.4 17.2-4.7 7.3-7 15.5-7 24.7 0 9.1 2.3 17.3 7 24.6 4.7 7.3 11.1 13.1 19.4 17.3 8.2 4.2 17.5 6.2 27.8 6.2 5.1 0 10.1-.5 15.1-1.5 4.9-1 8.9-2.3 12.1-3.9l-.2-33.5zM411.9 218h3.5c2.7 0 4.8.6 6.3 1.9 1.5 1.3 2.2 2.9 2.2 5 0 2-.7 3.6-2.2 4.9-1.5 1.2-3.6 1.9-6.3 1.9h-3.5V218zm48.7 40.4c0-5.6-1.4-10.1-4.3-13.7-2.9-3.6-7.1-6.4-12.6-8.4v-.3c4.5-1.5 8-3.9 10.5-7s3.8-7 3.8-11.7c0-9.1-4.3-15.3-12.9-18.6-8.6-3.4-19.2-5.1-31.7-5.1h-39.6v93.2h41.6c13 0 23.8-2.1 32.4-6.4 8.6-4.1 12.8-11.4 12.8-22zm-37.7 3.3c-1.7 1.4-4.1 2.1-7.2 2.1h-3.8v-15.4h3.8c3.1 0 5.5.7 7.2 2.2 1.7 1.4 2.6 3.3 2.6 5.6-.1 2.2-.9 4.1-2.6 5.5zm84.9-68h-39v93.2h39v-93.2zm101.1 0v31.7h-26.5v61.5h-39v-61.5H517v-31.7h91.9zm245.2 0h-39v93.2h39v-93.2zm70 38.1.3-.1v-38h36.1v93.2h-34.9L902 247.6l-.3.1v39.2h-36.1v-93.2H901l23.1 38.1zM490.5 129.7h-.5v24h.3c2.8 0 5.3-.5 7.4-1.5 2.2-1 3.8-2.4 5-4.2 1.2-1.8 1.8-3.9 1.8-6.3 0-3.7-1.3-6.7-3.8-8.8-2.5-2.2-5.9-3.2-10.2-3.2zm-.6 47.3H460v-71.6h29.7c8.2 0 15.5 1.5 22 4.4 6.5 2.9 11.6 7.1 15.3 12.5 3.7 5.4 5.6 11.7 5.6 18.9 0 7.2-1.9 13.5-5.6 18.9-3.7 5.4-8.8 9.6-15.3 12.5-6.4 2.9-13.7 4.4-21.8 4.4zm165.3-37.4c2.6 0 4.6-.6 6-1.8 1.4-1.2 2.1-2.7 2.1-4.6 0-1.9-.7-3.5-2.1-4.7-1.4-1.2-3.4-1.8-5.9-1.8h-.8v13h.7zm34.5-7.5c0 6.1-1.5 11.2-4.6 15.3-3.1 4.1-7.2 7.1-12.4 9-5.2 1.9-11 2.9-17.5 2.9h-.9V177h-30v-71.7h27.8c7.2 0 13.6.9 19.2 2.7 5.6 1.8 10.1 4.7 13.4 8.7 3.4 4 5 9.2 5 15.4zm55 44.9v-47.3h20.4v-24.4h-70.7v24.4h20.3V177h30zm27.4-71.7h30V177h-30v-71.7zm38.9 0V177h27.8v-30.1l.2-.1 18.1 30.2h26.8v-71.7h-27.8v29.2l-.2.1-17.7-29.3H811zm79.1 36.4c0-7.2 1.9-13.6 5.6-19.3 3.7-5.7 8.9-10.2 15.6-13.4 3.2-1.6 6.6-2.7 10.3-3.6 2.4-.5 4.9-.9 7.5-1.1.4 0 .8-.1 1.2-.1h.5c.4 0 .9 0 1.3-.1h1.8c5.1 0 10 .6 14.8 1.7 4.7 1.2 8.6 2.6 11.5 4.3v23.6c-3-1.2-6.7-2.3-11.2-3.4-4.4-1-8.3-1.5-11.7-1.5-3.7 0-6.9.6-9.5 1.8-2.6 1.2-4.5 2.8-5.7 4.9-1.3 2.1-1.9 4.4-1.9 7 0 2.7.7 5.1 2 7.1s3 3.6 5.2 4.7 4.5 1.6 7 1.6c1.2 0 2.2-.1 3-.4v-3.9h-7.3V136h31v35.1c-3 1.9-6.9 3.5-11.8 4.9-4.9 1.3-10.3 2-16.2 2-8.6 0-16.2-1.6-22.7-4.8-6.5-3.2-11.5-7.5-15.1-13-3.4-5.4-5.2-11.6-5.2-18.5zM121.4 98.1v1.6c.1.9.2 1.9.4 2.1h.1c.1 0 .1 0 .2-.1s.2-.2.2-.3v-.1c.1-.1.2-.3.3-.4.1-.2.2-.3.3-.5l.7-1.4c4.7-8.7 10.8-19.4 16.3-28.7 1.6-2.8 1.9-3.2 1.9-3.2s.1-.1.1-.2c.2-.3.4-.7.7-1.1.5-.8 1.1-1.6 1.3-2.2.1-.2.2-.5.1-.6v-.1c-.2-.2-.7-.2-1.2-.2H142.2l-1.2.2c-3.6.5-7.3 1-10.8 1.6-.2-4.5-.5-9.5-.7-14.2-.1-1.7-.2-3.4-.2-5l-.1-1.7v-.2c0-.6-.1-1.4-.3-1.7-.1-.1-.1-.1-.2-.1 0 0-.1 0-.1.1h-.1l-.2.2-.1.1-.1.1-.2.2v.2c0 .1-.1.1-.1.2-.1.2-.3.4-.4.6-.1.1-.2.3-.2.4-.1.2-.2.3-.3.5l-1.3 2.1v.1c-.1.2-.2.4-.4.6-3.6 5.8-10.2 17.2-10.2 17.2-.3.5-.6 1.1-.9 1.5-.2.4-.5.8-.7 1.2-.2.4-3 5.1-3.6 6.1l-1 1.8c-.1.1-.1.2-.2.3-.2.4-.5.9-.8 1.3-.3.5-.5 1-.5 1.2v.1c.1.1.1.1.2.1H108.8c.8-.1 1.6-.3 2.3-.4.1 0 .2 0 .4-.1h.3c1-.1 2-.3 3-.4 1.8-.2 3.5-.4 5.2-.5.2 3.3.4 6.7.5 10.1.2 3.7.4 7.3.6 10.8.2.4.2.6.3.8zm-17.1 184.2c-1.6.3-3.1.7-4.8 1.1-8.8 2-36.9 8.7-58.5 16.5l-.2-.4c3-3.4 5.9-6.8 8.7-10.3-3.8-9.7-9.8-20.2-18.8-30.6-.7-.1-1.3-.1-2-.1-.6 0-1.1 0-1.7.1h-.4c-.4 0-.9.1-1.4.2-.2 0-.3.1-.5.1-.6.1-1.3.3-1.9.5-3.4.9-6.8 3.7-9 7.5-1.7 2.9-2.6 5.7-3 8.3-4.8-7.3-2.8-16.1 1.3-19.5.3-.2.6-.5.9-.7.1 0 .1-.1.2-.1l.1-.1h.1c.2-.1.4-.2.6-.4.1 0 .1-.1.2-.1 0 0 .1 0 .1-.1l.1-.1c.1-.1.3-.1.4-.2.1 0 .2-.1.3-.1h.1c.2-.1.3-.1.5-.2.1 0 .2-.1.3-.1h.2c.1 0 .3-.1.4-.1.1 0 .2 0 .3-.1h.2c.1 0 .3-.1.4-.1.1 0 .3 0 .4-.1.2 0 .3 0 .5-.1h1c.6 0 1.2.1 1.9.1h.2c.6.1 1.3.2 1.9.4h.1c.7.2 1.3.4 2 .7.7.3 1.4.6 2 .9-.4-.4-.9-.7-1.3-1.1-.1 0-.1-.1-.2-.1s-.1-.1-.2-.1c-.4-.3-.9-.7-1.3-1-.5-.3-.9-.6-1.4-.9-.1-.1-.2-.1-.4-.2-.5-.2-.9-.5-1.4-.7h-.1l-1.5-.6c-.1 0-.3-.1-.4-.1-.5-.2-.9-.3-1.4-.4h-.2c-.5-.1-1-.2-1.6-.3h-.4c-.5 0-1-.1-1.5-.1h-1.5c-.2 0-.3 0-.5.1h-.8c-.2 0-.4.1-.6.1h-.4c-.1 0-.2 0-.4.1-.5.1-.9.2-1.4.4-2.9.8-6.1 3.6-9 6.8.4-.6.4-1.3.4-2v-2.9c0-.3.1-.7.1-1 0-.1 0-.3.1-.4v-.5c0-.3.1-.6.2-.9 0-.1.1-.3.1-.4 0-.1 0-.2.1-.3 0-.1 0-.1.1-.2.1-.3.1-.6.2-.8 0-.1.1-.3.1-.4 0-.1.1-.2.1-.2v-.1l.3-.9c0-.1.1-.3.2-.4 0-.1.1-.1.1-.2s.1-.1.1-.2c.1-.2.2-.5.3-.7.1-.1.1-.2.2-.3 0-.1.1-.1.1-.2s.1-.1.1-.2l.3-.6c.1-.1.1-.2.2-.3 0-.1.1-.1.1-.2s.1-.1.1-.2c.1-.2.2-.4.4-.5.1-.1.1-.2.2-.3 0-.1.1-.1.1-.2l.1-.1c.1-.2.3-.3.4-.5l.3-.3.1-.1.1-.1.4-.4c.1-.1.2-.2.3-.2l.1-.1.1-.1c.1-.1.3-.2.4-.3.1-.1.2-.1.3-.2.1 0 .1-.1.2-.1 0 0 .1 0 .1-.1.2-.1.3-.2.5-.3.1-.1.2-.1.3-.1 0 0 .1 0 .2-.1 0 0 .1 0 .1-.1.1-.1.3-.1.4-.2.1 0 .2-.1.3-.1H9c.1 0 .3-.1.4-.1h1.2c6 .2 12.4 4.1 18.3 13.6-1.5-4.5-1.8-10.3 2.1-15.8 1.3-1.5 4.2-4.2 9.1-4.6.7-.1 1.4-.1 2-.1H42.7c.4 0 .8 0 1.2.1.2 0 .3.1.5.1h.2c.3.1.7.1 1 .2.2.1.4.1.6.2.3.1.6.2.9.4l.6.3c.3.2.5.3.8.5.2.1.3.3.5.4.2.2.5.4.7.7l.1.1c.1.1.2.2.3.4l.6.9c0 .1.1.1.1.2.1.1.1.2.2.3.3.5.5 1.1.8 1.7-.5-.1-1-.2-1.5-.2h-2.1c-.4 0-.7 0-1.1.1h-.5c-.4.1-.8.1-1.3.2H45c-.5.1-1 .2-1.5.4-.1 0-.1 0-.2.1-.1 0-.1 0-.2.1-.4.1-.7.2-1.1.4-.1 0-.2.1-.4.1h-.1c-.3.1-.6.3-.9.4-.1.1-.3.1-.4.2-.4.2-.8.5-1.2.7-3.5 2.5-5 5.1-6 9.1-.3 1.2-.4 2.3-.6 3.4 1.8-4 5.7-6.6 8.5-7.7.4-.2.9-.3 1.4-.4.1 0 .3 0 .4-.1.5-.1 1-.1 1.6-.1h.2c.3 0 .7 0 1 .1h.4c.3 0 .5.1.8.1.1 0 .3.1.4.1.3.1.5.1.8.2.1 0 .3.1.4.1l.9.3h.2c.4.2.7.4 1.1.6.1 0 .1.1.2.1l.1.1c.2.2.5.3.7.5l.3.3.6.6.3.3c.2.2.4.5.6.7 0 0 0 .1.1.1 0 .1.1.1.1.2.2.4.4.7.6 1.1 0 0 0 .1.1.1v.1c.1.3.3.7.4 1 0 .1.1.3.1.4v.1c.1.3.1.6.2 1 0 .2 0 .4.1.6V254.7c0 .6-.1 1.2-.2 1.8-.5-.5-1.1-.9-1.6-1.3-.1-.1-.2-.1-.3-.2-.1 0-.1-.1-.2-.1-.4-.3-.8-.5-1.1-.7l-.6-.3c-.4-.2-.7-.4-1.1-.5h-.1c-.2-.1-.3-.1-.5-.2-.4-.2-.8-.3-1.2-.4-.1 0-.1 0-.2-.1-.1 0-.2-.1-.2-.1-.6-.2-1.1-.3-1.7-.4h-.4c-.5-.1-.9-.1-1.4-.2h-2.3c-.6 0-1.1.1-1.7.1-2.1.3-4.4 1.4-6.4 3.2.2.1.5.2.7.4 6 4.2 15.7 12.6 23.3 22.4.2-.3.4-.5.6-.8.3-.3.5-.7.8-1 2.7-3.7 5.3-7.6 7.8-11.4-.9-16.4-4.4-35.5-12-52.8-.5-.1-1-.1-1.4-.1H49.8c-.3 0-.5 0-.7.1h-.2c-.3 0-.6.1-.8.1h-.2c-.2 0-.3.1-.5.1h-.2c-.2 0-.4.1-.5.1-6.4 1.9-14.7 7-17.7 16-1.7-2.1-2.6-5.3-2-9.2.4-3.4 2.9-7.2 5.1-9l1.2-.9c.1-.1.2-.1.2-.1.1 0 .1-.1.2-.1h.1c.3-.2.5-.3.8-.4.1-.1.2-.1.3-.2.1 0 .1-.1.2-.1h.1c.2-.1.5-.2.7-.3.1-.1.3-.1.4-.2 0 0 .1 0 .1-.1h.2c.2-.1.4-.1.6-.2.1 0 .3-.1.4-.1.1 0 .1 0 .2-.1.3-.1.5-.1.8-.2.2 0 .4-.1.6-.1h.1c.2 0 .5-.1.7-.1.2 0 .3 0 .5-.1h.2c.3 0 .5-.1.8-.1h2c.8 0 1.6.1 2.3.1h.4c.8.1 1.6.2 2.4.4.1 0 .2 0 .3.1.8.2 1.6.4 2.4.7.1 0 .1 0 .2.1l2.4.9c-3.7-2.9-8.1-5-9.3-5.4-.1 0-.3-.1-.6-.2l-.6-.2c-.1 0-.2-.1-.3-.1-.2-.1-.4-.1-.6-.2-.1 0-.2-.1-.3-.1-.2-.1-.5-.1-.8-.2-.1 0-.2-.1-.3-.1-.4-.1-.8-.2-1.3-.3h-.2c-.4-.1-.8-.1-1.2-.2H38c-.3 0-.7-.1-1-.1h-2.7c-.3 0-.6 0-.9.1h-.5c-.4 0-.8.1-1.1.2h-.2c-.5.1-.9.2-1.4.3-.1 0-.2 0-.3.1h-.1c-.3.1-.7.2-1 .3-.2.1-.3.1-.5.2-.3.1-.7.3-1 .4 0 0-.1 0-.1.1-.1 0-.2.1-.3.1-.5.2-1 .5-1.4.8-3.3 2-6 4.5-8 6.5-.6-3.9-.7-10.6 2.1-15.9.3-.5.6-1 1-1.5 0 0 0-.1.1-.1l.2-.2c.4-.5.7-.9 1.1-1.3l.1-.1.1-.1c.4-.4.8-.7 1.2-1 0 0 .1 0 .1-.1.1 0 .1-.1.2-.1.4-.3.9-.6 1.4-.9.1 0 .1-.1.2-.1 0 0 .1 0 .1-.1.5-.3 1-.5 1.5-.7h.1c.5-.2 1.1-.4 1.6-.5.1 0 .2-.1.4-.1.6-.1 1.1-.2 1.7-.3h.2c.5-.1 1.1-.1 1.6-.1H32.8c.4 0 .8 0 1.2.1h.2c.5 0 1 .1 1.5.2h.4c.4.1.8.2 1.1.2.1 0 .3.1.4.1h.1c.3.1.7.2 1 .3.2.1.4.1.5.2.3.1.7.3 1 .4 0 0 .1 0 .1.1.1 0 .2.1.3.1.4.2.9.4 1.3.6h.1s.1 0 .1.1l1.5.9c.1.1.2.1.3.2.1 0 .1.1.2.1.4.2.7.5 1.1.7.1.1.3.2.4.3l.1.1c.3.2.6.5.9.8l.1.1c.2.1.3.3.5.4.3.3.6.6 1 .9l.1.1.3.3c.4.4.8.9 1.2 1.3l.1.1.1.1c.4.5.9 1.1 1.3 1.6l.3.3c0 .1.1.1.1.2l.9 1.2c.1.2.2.4.4.5l.1.1c.3.4.5.8.8 1.2l.1.1.1.1c.1.2.2.4.3.5.3.5.5.9.7 1.4 0 .1.1.2.1.3.1.1.1.3.2.4.3.7.7 1.5 1 2.2-.1-1-.2-2-.2-3V201c0-.2 0-.5.1-.7V199.7c0-.5.1-.9.2-1.4 0-.3.1-.5.1-.8 0-.1 0-.2.1-.3v-.2l.3-1.2c.1-.3.1-.5.2-.7 0-.1.1-.2.1-.3 0-.1 0-.1.1-.2l.3-1.2c.1-.3.2-.6.3-.8 0-.1 0-.1.1-.2.2-.4.3-.8.5-1.2.1-.3.3-.6.4-.9v-.1c.2-.4.4-.8.6-1.1.2-.3.3-.6.5-.9.2-.4.4-.7.7-1 .2-.3.4-.5.6-.8.2-.3.5-.6.7-.9.2-.2.4-.5.6-.7l.8-.8c.2-.2.4-.4.7-.6.3-.2.6-.5.9-.7.2-.2.5-.4.7-.5.3-.2.6-.4.9-.5 0 0 .1 0 .1-.1l.6-.3c.3-.2.6-.3.9-.4.1 0 .1 0 .2-.1.2-.1.4-.2.6-.2.3-.1.6-.2.9-.2h.1c.1 0 .2 0 .2-.1.2 0 .4-.1.5-.1.3 0 .6-.1.9-.1h.9c.6 0 1.1 0 1.7.1 4.9.7 11.8 3.9 12.4 14-.4-.3-.9-.5-1.3-.8-.1-.1-.3-.1-.4-.2-.3-.2-.6-.3-1-.4-.1-.1-.3-.1-.4-.2-.4-.1-.7-.2-1.1-.3h-.2c-.4-.1-.9-.2-1.3-.3h-.4c-.3-.1-.6-.1-1-.1h-2.1c-.8 0-1.5 0-2.2.1-4.3.5-8.9 2.9-12 7.1-1.1 1.5-2.9 5.2-4 9.1 2.8-4 7.7-7.2 10.9-7.8.6-.1 1.3-.2 1.9-.2h2.5c.4 0 .7.1 1.1.2h.2c.2 0 .3.1.5.1.4.1.7.2 1 .3.1 0 .2.1.2.1.1 0 .3.1.4.1.4.1.7.3 1.1.5.1 0 .1.1.2.1s.2.1.3.1c.5.3 1 .6 1.4.9 0 0 .1 0 .1.1l.1.1c.4.3.8.6 1.1 1 .1.1.2.2.2.3 0 .1.1.1.1.2.2.3.5.5.7.8.1.1.2.3.3.4 0 .1.1.1.1.2l.6.9.3.6c.2.3.3.6.4.9.1.2.2.5.3.7.1.3.2.6.3 1 .1.3.2.5.2.8.1.3.2.7.2 1 .1.3.1.5.1.8.1.4.1.7.1 1.1v.2c0 .2 0 .5.1.7v2.1c0 .5-.1.9-.1 1.4v.7c-.1.7-.2 1.5-.4 2.2-.4-.7-.8-1.4-1.2-2-.1-.1-.2-.3-.3-.4-.4-.6-.9-1.2-1.3-1.7 0 0 0-.1-.1-.1l-.1-.1c-.4-.5-.9-.9-1.3-1.3l-.1-.1c-.1-.1-.2-.1-.2-.2-.5-.4-1-.9-1.5-1.2-.1-.1-.2-.1-.3-.2-.5-.3-.9-.6-1.4-.9-.1-.1-.2-.1-.3-.2-.5-.3-1-.6-1.6-.8-.1 0-.1-.1-.2-.1h-.1c-.5-.2-.9-.4-1.4-.6h-.1c-.1 0-.1 0-.2-.1-.5-.2-1.1-.3-1.6-.4-.1 0-.2-.1-.4-.1l-1.5-.3h-.2c-.5-.1-1-.1-1.6-.1h-1.9c-.5 0-1 .1-1.4.2h-.4c-.4.1-.7.1-1.1.2H63.7c-.4.1-.8.2-1.2.4 0 0-.1 0-.1.1h-.1c-.3.1-.6.3-.9.4-.1 0-.2.1-.3.1-.3.2-.7.4-1 .6 2.9 4.7 5.8 10.5 8.1 15.1.3.5.5 1 .8 1.5 3.3 6.7 6.3 13.8 8.6 21.3l.9-1.5 1.8-3c.1-.2.2-.4.4-.6.1-.1.2-.3.2-.4 21.3-37.3 38.1-76.6 51.2-117.1.7-2.3 1.5-4.6 2.2-7 .1-.2.3-.8.6-1.4.3-.6 1.3-1.1 1.5-1.2 4.6-1.4 10.9-2.5 18.2-3.3 1.7-.2 3.5-.3 5.3-.5h.5c1.7-.1 3.5-.2 5.2-.3h.4c.3 0 .7 0 1-.1.4 0 .9-.1 1.3-.1h.4c2-.1 4.1-.1 6.1-.1H177.4c2.2 0 4.5 0 6.7.1s4.3.2 6.4.3h.3c4.2.3 8.4.6 12.5 1.1 1.7.2 3.3.5 4.8.7.2 0 .3.1.5.1h.5c.4.1.9.2 1.3.2.7.1 1.4.3 2 .4.3.1.5.1.8.2h.1c.8.2 1.5.3 2.3.5.1 0 .2 0 .2.1h.1c.5.1 1.1.3 1.6.4H217.8c.3.1 1.1.5 1.4 1.1.1.2.2.3.2.5.1.3.2.5.3.7 0 .1.1.2.1.3v.1c.1.4.3 1.1.6 1.8l.1.3c.5 1.5 1 3.2 1.1 3.7.1.4.3.8.4 1.2 1.3 3.9 2.5 7.8 3.9 11.7h.1c12.4 36.2 27.8 71.3 47 104.9.1.2.2.4.4.6.2.3.3.6.5.9 3 5.2 6.1 10.3 9.4 15.4.9-4.7 2.4-9.3 4.5-14.1 3.6-8.2 10.6-16.7 16.3-21.2-.8-1-1.8-2-3-2.9-.2-.1-.4-.3-.7-.5-.2-.2-.5-.3-.8-.5h-.2c-.3-.2-.7-.4-1-.6h-.2c-.4-.2-.9-.4-1.3-.7l-1.5-.6h-.2c-.5-.2-1.1-.3-1.6-.5h-.2l-1.8-.3h-.2c-.7-.1-1.3-.1-2-.1h-1.3c-.2 0-.4 0-.6.1h-.4c-.2 0-.4.1-.6.1-.1 0-.2 0-.4.1-.2 0-.4.1-.6.1-.1 0-.3.1-.4.1-.2.1-.4.1-.6.2-.1 0-.3.1-.4.1-.2.1-.5.2-.7.3h-.1c-.1 0-.1.1-.2.1-.3.1-.7.3-1 .5h-.2c-.3.2-.6.3-.9.5-.1.1-.2.1-.3.2 0 0-.1 0-.1.1-.2.1-.5.3-.7.4-.1.1-.2.1-.3.2-.1 0-.1.1-.2.1-.2.2-.4.3-.7.5-.2.1-.3.2-.4.3-.2.2-.4.3-.7.5l-.4.4-.6.6-.1.1-.1.1-.3.3c-.2.2-.5.4-.7.7l-.1.1-.4.4c-.4.4-.7.8-1.1 1.2-1.1-8.8 2.1-17 9.6-18.8 1.9-.5 3.7-.6 5.4-.4.1 0 .2 0 .4.1h.2c.4.1.7.1 1.1.2.2 0 .3.1.5.1h.1l.9.3c.2.1.4.1.6.2.3.1.6.2.9.4l.6.3c.3.1.6.3.8.5.2.1.3.2.5.3.3.2.6.4.8.6.1.1.2.1.2.2.1.1.2.1.2.2l1.2.9s.1 0 .1.1l.1.1c.4.3.7.6 1.1 1l.3.3.1.1.1.1.7.7c.1.1.2.2.3.4l.1.1c.2.2.4.5.6.7.1.1.2.3.4.4.2.2.4.5.6.7.1.2.2.3.4.5.2.3.4.5.5.8 0 .1.1.1.1.2.1.1.1.2.2.2.2.3.4.6.5.8 0 .1.1.1.1.2s.1.1.1.2c.2.4.5.8.7 1.2-.4-5.2-2.3-12.1-8.2-18.1-.5-.6-1.1-1.1-1.7-1.5l-.1-.1c-.1-.1-.2-.2-.3-.2-.6-.5-1.1-.9-1.7-1.3-.1 0-.1-.1-.2-.1-.5-.4-1.1-.7-1.6-1-.1-.1-.3-.2-.4-.2-.6-.3-1.2-.6-1.7-.8-.1 0-.1-.1-.2-.1h-.1c-.5-.2-1-.4-1.6-.6-.1 0-.3-.1-.4-.1-.6-.2-1.1-.4-1.7-.5-.1 0-.2-.1-.3-.1-.5-.1-1-.2-1.4-.3h-.4c-.5-.1-1.1-.2-1.6-.2h-.3c-.4-.1-.9-.1-1.3-.1H279.4c-.5 0-.9 0-1.4-.1H275.1c-.3 0-.5 0-.7.1h-.1c-.3 0-.5 0-.6.1h-.7c.4-.7.9-1.3 1.4-1.9.1-.1.1-.2.2-.3.5-.6 1-1.1 1.5-1.6l.2-.2.1-.1c.5-.5 1.1-.9 1.6-1.3l.1-.1s.1 0 .1-.1c.6-.4 1.1-.8 1.7-1.1.1 0 .1-.1.2-.1.6-.3 1.2-.6 1.9-.9h.1c.1 0 .1-.1.2-.1.6-.3 1.2-.5 1.9-.7.1 0 .1 0 .2-.1h.1c.7-.2 1.3-.4 2-.5h.1c.7-.1 1.3-.2 2-.3h.3c.6-.1 1.3-.1 1.9-.1h2.5c.7 0 1.3.1 1.9.2H295.5l1.5.3c.2 0 .4.1.6.1.4.1.8.2 1.1.3.2.1.4.1.6.2.3.1.7.2 1 .4.2.1.4.1.6.2.3.1.7.3 1 .5.1 0 .1.1.2.1s.2.1.3.1c.4.2.9.5 1.2.8 7.4 5.1 7.7 12.1 7.5 16.3-.2 3.8-1.4 9.8-2.6 15 1.7-4 4.1-8.8 7.6-12.7 3-3.3 8.1-6.5 12.6-6.7h2c.3 0 .5 0 .7.1.2 0 .5 0 .7.1.2 0 .5.1.7.1.2 0 .5.1.7.1.2 0 .4.1.6.1.2 0 .3.1.4.1.1 0 .1 0 .2.1.2.1.4.1.6.2.2.1.4.1.6.2.2.1.3.1.5.2h.1l.6.3c.2.1.3.2.5.2.1.1.2.1.3.2.1 0 .2.1.3.1.1.1.3.1.4.2 0 0 .1 0 .1.1.2.1.4.2.5.3.1.1.3.2.4.3.2.1.3.2.5.4.1.1.3.2.4.3.2.1.3.3.5.4.1.1.2.2.4.3l.3.3.2.2c.1.1.2.2.3.4.1.2.3.3.4.5.1.1.1.2.2.2l.1.1c.1.2.3.3.4.5.1.1.2.3.3.4.1.2.2.3.4.5.1.1.1.2.2.3v.1c.1.2.2.4.3.5.1.1.1.3.2.4v.1c.1.1.1.2.2.3 0 .1.1.1.1.2.1.1.1.3.2.4l.3.6c.1.1.1.3.2.4 0 0 0 .1.1.1.1.1.1.3.2.4.1.1.1.3.1.4 0 .1.1.2.1.4 0 .1 0 .1.1.2 0 .1.1.3.1.4 0 .1.1.3.1.4v.1c0 .1.1.3.1.4.1.2.1.4.2.6 0 .1.1.3.1.4v.2c0 .1.1.2.1.4 0 .1 0 .2.1.3v.1c0 .2.1.3.1.5v.5c0 .1 0 .2.1.4 0 .1 0 .3.1.4V223.3c0 .2 0 .4-.1.5-4.8-5.1-10.2-6.8-13.5-7.6-.1 0-.3-.1-.5-.1h-.2c-.1 0-.3 0-.4-.1h-.2c-.2 0-.3 0-.5-.1h-.2c-.3 0-.5-.1-.8-.1h-5.5c-.4 0-.7.1-1.1.1H324.1c-.5.1-.9.2-1.4.3-.1 0-.2.1-.3.1-.3.1-.7.2-1 .3-.1 0-.2.1-.4.1h-.1l-.9.3c-.2.1-.3.1-.5.2-.3.1-.6.3-.9.4-.1.1-.3.1-.4.2-.4.2-.8.5-1.2.7-2.2 1.1-4.3 3.1-6.3 5.2.5-.2 1.1-.4 1.6-.6.1 0 .2-.1.4-.1.1 0 .2-.1.2-.1.1 0 .2-.1.2-.1.3-.1.6-.2.8-.3.2-.1.5-.1.7-.2H314.9c.3-.1.5-.1.8-.2.1 0 .3-.1.4-.1.1 0 .2 0 .3-.1.3-.1.6-.2 1-.2.2 0 .3-.1.5-.1h.2c.3-.1.6-.1.9-.2.2 0 .4-.1.6-.1h.1c.3 0 .6-.1.9-.1.2 0 .4 0 .6-.1h.1c.3 0 .6 0 .9-.1h1.9c13.6.5 22.7 13.3 12.8 27.9-.8-7.5-6-17.9-17.6-20.3-.5-.1-1.1-.2-1.6-.3-.1 0-.3 0-.4-.1-.4-.1-.8-.1-1.2-.2h-.4c-.4 0-.7-.1-1.1-.1h-1.5c-1 0-2 .1-3 .2h-.1c-1 .1-2.1.3-3.2.5-1.7 1.8-2.8 3.4-4.3 5.8-2.6 4-6.6 13.6-7.9 24.6-.6 5.5-.4 12.8.5 19.9 5.5 7.5 11.3 14.8 17.6 21.7-17.8-1.5-37.3-2.7-58-3.6 6.9-4.4 11.6-8.5 11.6-11.5 0-1.6-2.7-2.7-7.1-3.4-.3 0-.6-.1-.9-.1h-.3c-.3 0-.5-.1-.8-.1h-.3c-.4 0-.8-.1-1.2-.1h-.1c-.5 0-1 0-1.5-.1H243.1c-.6 0-1.3 0-1.9.1h-.5c-.8 0-1.7.1-2.6.1h-.3c-.8 0-1.6.1-2.4.1h-.7c-.7 0-1.4.1-2.1.1-.3 0-.5 0-.8.1-.7.1-1.5.1-2.2.2h-.7l-6 .6c-.2 0-.4 0-.5.1h-.3c-.8.1-1.5.2-2.3.3-.3 0-.7.1-1 .1-.8.1-1.5.2-2.3.3h-.3c-.2 0-.4 0-.6.1-1 .1-2.1.3-3.1.4h-.1c-1.1.1-2.2.3-3.4.5-.1 0-.3 0-.4.1-.1 0-.3 0-.4.1h-.1c-.8.1-1.6.2-2.4.4h-.2c-.1 0-.3 0-.4.1-.1 0-.3 0-.4.1-.8.1-1.6.3-2.4.4-.4.1-.7.1-1.1.2-.9.2-1.9.3-2.8.5-.2 0-.3.1-.5.1h-.2c-1.2.2-2.3.4-3.5.7-.1 0-.3.1-.4.1-.1 0-.2 0-.4.1l-2.7.6c-.3.1-.5.1-.8.2-.1 0-.2 0-.4.1-.8.2-1.6.3-2.4.5-.1 0-.2 0-.3.1-.3.1-.6.1-.9.2-.9.2-1.7.4-2.6.6-.3.1-.6.1-.9.2-1.2.3-2.3.6-3.5.9-.1 0-.2 0-.3.1-.1 0-.2 0-.3.1-1 .3-2 .5-2.9.8-.2.1-.4.1-.7.2-.1 0-.3.1-.4.1-.8.2-1.6.4-2.4.7-.2 0-.3.1-.5.1-.2.1-.5.1-.7.2-.8.2-1.6.5-2.4.7-.4.1-.7.2-1.1.3-1 .3-2 .7-3.1 1v-.1c5-3.6 6.9-5.2 10-8.1 1.8-1.7 3.1-3.5 4.1-5.1 1.5-2.6 1.8-4.7-.2-5.5-.3-.1-.7-.3-1-.4-.1 0-.1 0-.2-.1h-.1c-.3-.1-.6-.2-.9-.2-.1 0-.3-.1-.4-.1-.4-.1-.8-.2-1.2-.2h-.2c-.5-.1-1-.2-1.5-.2h-.5c-.4 0-.8-.1-1.3-.1-.2 0-.4 0-.6-.1-.5 0-1-.1-1.6-.1h-.3c-.7 0-1.3-.1-2-.1H160.9c-.8 0-1.7.1-2.6.1h-.6c-.7 0-1.4.1-2.2.1-.3 0-.5 0-.8.1-.8.1-1.7.1-2.5.2h-.4c-1 .1-2 .2-3.1.3h-.7c-.8.1-1.7.2-2.5.3-.3 0-.6.1-.9.1-1 .1-2 .2-3 .4h-.4c-1.2.1-2.4.3-3.6.5-.3 0-.6.1-.9.1-1 .1-1.9.3-2.9.4-.3.1-.7.1-1 .2l-3.6.6h-.2c-1.3.2-2.7.5-4 .7-.4.1-.7.1-1.1.2-1.1.2-2.1.4-3.2.6h-.1c-.3.1-.5.1-.8.2l-.3.1c-1.4.3-2.7.5-4.1.8h-.2l-4.5.9c-.4.1-.8.2-1.3.3-1.1.2-2.3.5-3.5.7-.7-.8-1.2-.7-1.6-.6z" style="fill-rule:evenodd;clip-rule:evenodd;fill:#eedb5f"/><path class="st3" d="M1009.1 130.8c3.7-2.9 6.6-5.3 8.7-7.2 2.1-1.9 3.9-3.9 5.3-5.9 1.5-2.1 2.2-4.1 2.2-6.1 0-1.9-.5-3.3-1.4-4.4-.9-1.1-2.4-1.6-4.4-1.6-2 0-3.5.6-4.7 1.9-1.1 1.2-1.7 2.8-1.8 4.9h-3.9c.1-3.2 1.1-5.7 3-7.5 1.9-1.8 4.3-2.6 7.2-2.6 3 0 5.4.8 7.1 2.5 1.8 1.6 2.7 3.9 2.7 6.8 0 2.4-.7 4.7-2.2 7-1.4 2.2-3.1 4.2-4.9 5.9-1.8 1.7-4.2 3.7-7.1 5.9h15.1v3.3h-21.1v-2.9zm-1.8 37.5c0-4.9.8-8.8 2.5-11.6 1.6-2.8 4.5-4.2 8.6-4.2s6.9 1.4 8.6 4.2c1.6 2.8 2.4 6.6 2.4 11.6s-.8 8.9-2.4 11.7c-1.6 2.8-4.5 4.2-8.6 4.2s-7-1.4-8.6-4.2c-1.7-2.8-2.5-6.7-2.5-11.7zm18.1 0c0-2.5-.2-4.6-.5-6.3-.3-1.8-1-3.2-2.1-4.2-1-1.1-2.5-1.6-4.5-1.6s-3.5.5-4.6 1.6c-1 1.1-1.7 2.5-2.1 4.2-.3 1.7-.5 3.8-.5 6.3 0 2.6.2 4.8.5 6.5.3 1.8 1 3.2 2.1 4.2 1 1.1 2.6 1.6 4.6 1.6 2 0 3.5-.5 4.5-1.6s1.7-2.5 2.1-4.2c.4-1.8.5-3.9.5-6.5zm-16.3 63c3.7-2.9 6.6-5.3 8.7-7.2 2.1-1.9 3.9-3.9 5.3-5.9 1.5-2.1 2.2-4.1 2.2-6.1 0-1.9-.5-3.3-1.4-4.4-.9-1.1-2.4-1.6-4.4-1.6-2 0-3.5.6-4.7 1.9-1.1 1.2-1.7 2.8-1.8 4.9h-3.9c.1-3.2 1.1-5.7 3-7.5 1.9-1.8 4.3-2.6 7.2-2.6 3 0 5.4.8 7.1 2.5 1.8 1.6 2.7 3.9 2.7 6.8 0 2.4-.7 4.7-2.2 7-1.4 2.2-3.1 4.2-4.9 5.9-1.8 1.7-4.2 3.7-7.1 5.9h15.1v3.3h-21.1v-2.9zM1028.8 259h-15.1v9.8c.7-.9 1.6-1.7 2.9-2.2 1.3-.6 2.7-.9 4.2-.9 2.4 0 4.3.5 5.8 1.5s2.6 2.3 3.2 3.8c.7 1.6 1 3.2 1 5 0 2.1-.4 3.9-1.2 5.6-.8 1.6-2 2.9-3.6 3.9-1.6.9-3.6 1.4-5.9 1.4-3 0-5.5-.8-7.3-2.3-1.9-1.5-3-3.6-3.4-6.2h3.8c.4 1.6 1.2 2.9 2.4 3.8 1.2.9 2.7 1.4 4.6 1.4 2.3 0 4-.7 5.1-2 1.1-1.4 1.7-3.2 1.7-5.4s-.6-4-1.7-5.2c-1.2-1.2-2.8-1.9-5.1-1.9-1.5 0-2.9.4-4 1.1-1.1.7-1.9 1.7-2.5 3h-3.7v-17.6h18.7v3.4z"/></svg>