<svg width="150" height="150" viewBox="0 0 150 150" fill="none" xmlns="http://www.w3.org/2000/svg">
<path d="M134.838 86.9775C134.776 87.4003 134.693 87.8698 134.598 88.3438L134.595 88.3613L134.592 88.3779C134.55 88.6295 134.504 88.8809 134.458 89.1309C134.413 89.3768 134.366 89.6261 134.327 89.8584L134.325 89.8701L134.324 89.8828L133.883 93.041C132.971 98.8439 132.063 104.676 131.705 107.928L131.596 108.916L132.583 109.03C136.33 109.467 140.023 109.988 143.351 110.455C143.599 110.506 143.788 110.561 143.92 110.613C143.896 110.691 143.855 110.807 143.772 110.967C143.578 111.339 143.259 111.786 142.856 112.29C142.482 112.734 142.093 113.203 141.689 113.687L141.662 113.718L141.639 113.751C141.623 113.774 141.597 113.806 141.551 113.861L141.403 114.038L127.863 130.28L118.966 140.942L118.959 140.951C118.415 141.619 117.871 142.319 117.377 142.891C119.176 133.256 121.323 122.254 121.788 117.873L121.898 116.851L120.873 116.771C119.583 116.669 114.838 116.19 109.774 115.708C109.364 115.638 109.056 115.556 108.852 115.469C108.913 115.349 109.012 115.194 109.155 115.004C109.559 114.473 110.13 113.895 110.726 113.282L110.725 113.281C111.023 112.982 111.301 112.692 111.544 112.431L111.549 112.426L124.186 98.6172L124.187 98.6162L126.781 95.7744L126.78 95.7734L132.733 89.2676C133.367 88.5794 134.146 87.6761 134.838 86.9775Z" stroke="#0400FF" stroke-width="2"/>
<path d="M62.4724 83.3674L62.4744 83.3665C62.4782 83.3611 62.4853 83.3497 62.5007 83.3284C62.5019 83.3268 62.5034 83.3252 62.5046 83.3235L62.5574 83.2512V83.2483C62.5937 83.1979 62.6462 83.1279 62.7185 83.0276C62.9665 82.6834 63.4627 81.9943 64.4548 80.6174L64.4539 80.6165C65.6016 79.0246 70.8796 71.7429 71.2732 71.1985C71.7162 70.5902 72.1575 69.9744 72.5916 69.3743C73.1506 68.6222 73.729 67.8289 74.3347 67.0032L74.3367 66.9993C74.3371 66.9987 74.3388 66.9974 74.3396 66.9963C74.3411 66.9942 74.3435 66.9907 74.3464 66.9866C74.3525 66.9782 74.361 66.9657 74.3728 66.9495C74.3969 66.9163 74.4331 66.8667 74.4802 66.802C74.5744 66.6725 74.7139 66.481 74.8933 66.2346C75.252 65.7418 75.7719 65.0275 76.4167 64.1428C77.7068 62.3729 79.4971 59.9198 81.4968 57.1868C85.4941 51.7235 90.3259 45.1458 93.6794 40.6711C93.9334 40.3417 94.1943 39.9976 94.4324 39.6731C95.6296 38.082 96.2288 37.2857 96.5281 36.8879C96.6775 36.6893 96.7524 36.59 96.7898 36.5403C96.808 36.5161 96.8172 36.5037 96.822 36.4973C96.8244 36.4942 96.8263 36.4922 96.8269 36.4915L96.8259 36.4905C97.1619 36.0581 97.4934 35.6274 97.8337 35.1917L97.8357 35.1887C97.959 35.0297 98.0821 34.8724 98.2058 34.719C98.237 34.6805 98.246 34.6713 98.2595 34.6555L98.2771 34.634C98.385 34.5012 98.4701 34.3937 98.5593 34.2893L98.573 34.2737C98.6404 34.1915 98.5888 34.2563 98.6951 34.1301L98.696 34.1311C98.7721 34.0423 98.8439 33.9589 98.9109 33.8831L98.9119 33.8811C98.9198 33.8721 98.9308 33.8611 98.9548 33.8362C98.9719 33.8185 99.0019 33.7869 99.0339 33.7522C99.0618 33.7229 99.0845 33.6981 99.1042 33.677C99.115 34.1173 99.0988 34.613 99.0769 35.0715V35.0793C99.0734 35.1662 99.0703 35.2473 99.0671 35.3225C99.0671 35.3232 99.0672 35.3249 99.0671 35.3274C99.0669 35.3329 99.0661 35.3436 99.0652 35.3645C99.0633 35.4073 99.0598 35.4933 99.0525 35.6643C99.0457 35.8224 99.0358 36.0534 99.0212 36.3909L98.949 38.0598C98.4904 47.9173 97.9387 59.3535 97.5027 69.3225L97.4539 70.4377L98.5681 70.3635C104.343 69.9769 110.412 69.6598 116.338 69.4104H116.339C117.36 69.3669 117.87 69.3451 118.126 69.3342C118.253 69.3288 118.317 69.3258 118.349 69.3245C118.365 69.3238 118.373 69.3237 118.377 69.3235C118.379 69.3234 118.38 69.3235 118.381 69.3235L118.379 69.3225C118.666 69.3123 119.033 69.294 119.432 69.2893L119.755 69.3C119.905 69.3042 119.968 69.3026 120.045 69.3079V69.3088C120.099 69.3131 120.133 69.3199 120.22 69.3342C120.202 69.3747 120.183 69.419 120.16 69.4651C119.867 70.0357 119.329 70.7756 118.651 71.6428C118.001 72.4741 117.208 73.438 116.536 74.3274C116.505 74.3662 116.475 74.4033 116.454 74.4309C116.423 74.471 116.402 74.4973 116.384 74.5188L116.365 74.5413L116.347 74.5647H116.346V74.5657L116.344 74.5676C116.343 74.5693 116.342 74.5722 116.34 74.5754C116.335 74.582 116.327 74.5917 116.316 74.6057C116.295 74.6339 116.263 74.6789 116.214 74.7454C116.115 74.8787 115.952 75.1004 115.692 75.4534C115.173 76.1591 114.269 77.3918 112.725 79.5002C102.325 93.6824 90.6044 110.12 81.5994 123.609C81.3154 124.034 81.0873 124.375 80.905 124.649L80.8923 124.634L80.1853 125.729C80.1793 125.738 80.1757 125.743 80.1736 125.746L80.1716 125.748L80.1628 125.763C80.0817 125.888 79.9969 126.017 79.9109 126.146L79.9011 126.161C79.871 126.208 79.8542 126.229 79.7996 126.311L79.7937 126.321C79.7391 126.404 79.6888 126.48 79.6394 126.551C79.587 126.626 79.594 126.613 79.5564 126.666C79.5422 126.164 79.55 125.593 79.5642 125.024L79.5632 125.023C79.5703 124.819 79.5833 124.559 79.5896 124.346V124.34C79.5898 124.334 79.5906 124.321 79.5916 124.297C79.5935 124.248 79.5974 124.149 79.6052 123.952C79.6208 123.559 79.6514 122.773 79.7136 121.2V121.197C79.7672 119.71 79.8341 118.253 79.8914 116.725C80.2913 106.981 80.7617 96.7149 81.1472 87.0549L81.1882 86.0256L80.158 86.0159C79.5899 86.0103 79.0079 86.0079 78.4187 86.0081L76.6345 86.0139C76.2845 86.0155 75.9352 86.0166 75.5759 86.0198H75.575C74.9273 86.0261 74.2745 86.0352 73.6169 86.0461L71.6296 86.0872C69.9605 86.1255 68.2748 86.1903 66.5837 86.2727H66.5818C66.2327 86.2902 65.8201 86.3053 65.4578 86.3254C64.7998 86.362 64.1458 86.4033 63.4939 86.4485L61.5417 86.5959C61.3282 86.6128 60.8266 86.6353 60.3435 86.6458C60.2882 86.647 60.2336 86.6459 60.1804 86.6467C60.3126 86.4163 60.4798 86.1516 60.6736 85.8635V85.8625C61.2422 85.0165 61.9425 84.0996 62.4685 83.3733L62.4724 83.3674Z" stroke="#0400FF" stroke-width="2"/>
<path d="M60.4083 106.177L60.4064 106.178L60.4044 106.177C60.3846 106.179 60.3448 106.185 60.2657 106.196C60.1072 106.218 59.7905 106.262 59.1573 106.349L59.1544 106.35C55.4742 106.845 51.7129 107.395 48.1447 107.971L47.046 108.147L46.9865 107.036C46.6537 100.795 46.2995 93.6281 45.9865 87.4541V87.4531C45.9436 86.5984 45.9229 86.1708 45.9122 85.957C45.9069 85.8501 45.9038 85.7963 45.9025 85.7695L45.9015 85.7686C45.8724 85.814 45.8421 85.8596 45.8126 85.9062C45.6094 86.2336 45.4521 86.4735 45.2687 86.7715V86.7734V86.7744H45.2677C45.2674 86.7749 45.2669 86.7765 45.2657 86.7783C45.2632 86.7825 45.2582 86.7912 45.2482 86.8076C45.2279 86.8408 45.1867 86.9075 45.1056 87.04C44.9433 87.3053 44.6186 87.8354 43.9698 88.8955L43.9669 88.9014C43.8333 89.1167 43.6959 89.3373 43.5656 89.5527L43.5636 89.5557C41.7446 92.5373 39.1259 96.9216 36.9601 100.563C35.8776 102.384 34.9091 104.018 34.2111 105.196C33.8621 105.786 33.5799 106.261 33.3859 106.589C33.2889 106.753 33.2142 106.881 33.1632 106.967C33.1379 107.01 33.1186 107.042 33.1056 107.064C33.0991 107.075 33.0933 107.084 33.09 107.09L33.0861 107.098L32.1456 108.679C31.9119 109.083 31.6744 109.487 31.4327 109.891C31.2192 110.252 28.3763 115.102 27.756 116.161C27.2223 117.077 26.9549 117.535 26.8214 117.764C26.755 117.878 26.722 117.935 26.7052 117.964C26.697 117.978 26.6927 117.986 26.6906 117.989C26.6897 117.991 26.6889 117.992 26.6886 117.992L26.6876 117.993V117.994C26.6847 117.997 26.6808 117.999 26.6779 118.002L26.6818 118.004C26.4121 118.454 26.0692 119.007 25.7833 119.523C25.8371 119.515 25.881 119.51 25.9103 119.505L25.9142 119.504C26.7144 119.365 27.5236 119.23 28.3351 119.11L28.712 119.056C28.8319 119.04 28.9356 119.026 29.0372 119.011L29.046 119.01C30.0975 118.858 31.1505 118.721 32.1896 118.599C34.0373 118.378 35.8438 118.196 37.5236 118.056L38.547 117.971L38.6046 118.996C39.0017 126.01 39.3748 133.418 39.7716 140.361L39.8439 141.499L39.8448 141.513C39.8659 141.929 39.8767 142.137 39.882 142.241C39.8846 142.293 39.8852 142.32 39.8859 142.333C39.8862 142.339 39.8868 142.342 39.8868 142.344V142.343C39.891 142.402 39.8955 142.469 39.9005 142.538C40.0117 142.33 40.1704 142.034 40.3956 141.612L40.3966 141.61C45.1971 132.671 51.5175 121.738 57.1447 112.29C57.9774 110.885 58.4679 110.063 58.7501 109.592C58.8911 109.356 58.98 109.207 59.0343 109.117C59.0612 109.073 59.08 109.042 59.0919 109.022C59.0979 109.013 59.1026 109.005 59.1056 109C59.1068 108.998 59.1078 108.996 59.1085 108.995L59.1095 108.993L59.1105 108.992H59.1115C59.1341 108.953 59.1531 108.919 59.1681 108.896C59.1802 108.877 59.1922 108.859 59.2003 108.847C59.2094 108.833 59.215 108.825 59.2198 108.817C59.5824 108.231 60.0303 107.566 60.3693 107.035C60.5945 106.682 60.7782 106.372 60.9181 106.111C60.8332 106.122 60.75 106.133 60.6691 106.144C60.5873 106.155 60.4991 106.167 60.422 106.176C60.4199 106.176 60.4158 106.176 60.4083 106.177ZM60.4083 106.177H60.4025C60.4057 106.176 60.409 106.176 60.4122 106.176C60.4109 106.176 60.4096 106.177 60.4083 106.177Z" stroke="#0400FF" stroke-width="2"/>
<path d="M127.255 76.207C127.193 76.6298 127.11 77.0993 127.015 77.5732L127.012 77.5908L127.009 77.6074C126.967 77.859 126.921 78.1104 126.875 78.3604C126.829 78.6063 126.782 78.8556 126.744 79.0879L126.742 79.0996L126.741 79.1123L126.3 82.2705C125.388 88.0734 124.48 93.9051 124.122 97.1572L124.013 98.1455L125 98.2598C128.747 98.6961 132.44 99.2174 135.767 99.6846C136.016 99.7359 136.204 99.7904 136.337 99.8428C136.313 99.9207 136.272 100.037 136.188 100.196C135.994 100.568 135.676 101.015 135.272 101.52C134.898 101.963 134.51 102.432 134.105 102.916L134.079 102.947L134.056 102.98C134.039 103.003 134.014 103.036 133.968 103.091L133.82 103.268L120.28 119.51L111.383 130.172L111.376 130.181C110.831 130.848 110.287 131.549 109.794 132.12C111.593 122.486 113.739 111.484 114.205 107.103L114.314 106.08L113.29 106C112 105.899 107.255 105.42 102.19 104.938C101.781 104.868 101.473 104.786 101.268 104.698C101.33 104.578 101.428 104.423 101.572 104.233C101.976 103.702 102.547 103.124 103.142 102.512L103.141 102.511C103.439 102.211 103.718 101.922 103.961 101.66L103.966 101.655L116.602 87.8467L116.603 87.8457L119.198 85.0039L119.197 85.0029L125.149 78.4971C125.784 77.8089 126.563 76.9056 127.255 76.207Z" stroke="white" stroke-width="2"/>
<path d="M54.8892 72.5967L54.8911 72.5957C54.895 72.5903 54.9021 72.579 54.9175 72.5576C54.9186 72.5561 54.9202 72.5544 54.9214 72.5527L54.9741 72.4805V72.4775C55.0104 72.4272 55.063 72.3571 55.1353 72.2568C55.3833 71.9126 55.8794 71.2236 56.8716 69.8467L56.8706 69.8457C58.0183 68.2538 63.2964 60.9722 63.6899 60.4277C64.133 59.8194 64.5743 59.2037 65.0083 58.6035C65.5673 57.8514 66.1458 57.0582 66.7515 56.2324L66.7534 56.2285C66.7538 56.228 66.7556 56.2266 66.7563 56.2256C66.7579 56.2235 66.7602 56.2199 66.7632 56.2158C66.7692 56.2075 66.7778 56.1949 66.7896 56.1787C66.8137 56.1456 66.8499 56.096 66.897 56.0312C66.9912 55.9018 67.1307 55.7103 67.3101 55.4639C67.6688 54.971 68.1887 54.2568 68.8335 53.3721C70.1235 51.6021 71.9139 49.1491 73.9136 46.416C77.9109 40.9528 82.7426 34.375 86.0962 29.9004C86.3502 29.5709 86.611 29.2269 86.8491 28.9023C88.0463 27.3113 88.6455 26.515 88.9448 26.1172C89.0943 25.9186 89.1692 25.8192 89.2065 25.7695C89.2247 25.7454 89.234 25.7329 89.2388 25.7266C89.2411 25.7235 89.2431 25.7215 89.2437 25.7207L89.2427 25.7197C89.5787 25.2873 89.9102 24.8566 90.2505 24.4209L90.2524 24.418C90.3757 24.2589 90.4989 24.1017 90.6226 23.9482C90.6538 23.9098 90.6627 23.9005 90.6763 23.8848L90.6938 23.8633C90.8018 23.7305 90.8868 23.6229 90.9761 23.5186L90.9897 23.5029C91.0571 23.4208 91.0056 23.4856 91.1118 23.3594L91.1128 23.3604C91.1888 23.2716 91.2607 23.1881 91.3276 23.1123L91.3286 23.1104C91.3365 23.1013 91.3475 23.0903 91.3716 23.0654C91.3886 23.0478 91.4187 23.0162 91.4507 22.9814C91.4785 22.9522 91.5012 22.9274 91.521 22.9062C91.5317 23.3466 91.5156 23.8422 91.4937 24.3008V24.3086C91.4902 24.3954 91.4871 24.4766 91.4839 24.5518C91.4839 24.5524 91.484 24.5542 91.4839 24.5566C91.4837 24.5621 91.4828 24.5729 91.4819 24.5938C91.4801 24.6366 91.4766 24.7226 91.4692 24.8936C91.4624 25.0516 91.4525 25.2826 91.438 25.6201L91.3657 27.2891C90.9072 37.1465 90.3554 48.5827 89.9194 58.5518L89.8706 59.667L90.9849 59.5928C96.7595 59.2062 102.829 58.889 108.754 58.6396H108.755C109.776 58.5961 110.287 58.5744 110.542 58.5635C110.67 58.558 110.734 58.5551 110.766 58.5537C110.782 58.5531 110.789 58.5529 110.793 58.5527C110.795 58.5526 110.797 58.5528 110.797 58.5527L110.795 58.5518C111.082 58.5416 111.45 58.5232 111.849 58.5186L112.171 58.5293C112.322 58.5334 112.385 58.5318 112.461 58.5371V58.5381C112.516 58.5423 112.55 58.5491 112.637 58.5635C112.618 58.604 112.6 58.6483 112.577 58.6943C112.283 59.265 111.746 60.0048 111.068 60.8721C110.418 61.7034 109.625 62.6672 108.953 63.5566C108.921 63.5954 108.892 63.6325 108.871 63.6602C108.839 63.7003 108.818 63.7266 108.8 63.748L108.782 63.7705L108.764 63.7939H108.763V63.7949L108.761 63.7969C108.76 63.7985 108.759 63.8015 108.756 63.8047C108.751 63.8113 108.743 63.8209 108.733 63.835C108.712 63.8632 108.679 63.9082 108.63 63.9746C108.532 64.1079 108.368 64.3297 108.109 64.6826C107.59 65.3884 106.685 66.621 105.142 68.7295C94.7415 82.9116 83.0211 99.3492 74.0161 112.838C73.7322 113.263 73.5041 113.605 73.3218 113.878L73.3091 113.863L72.6021 114.958C72.596 114.967 72.5925 114.972 72.5903 114.976L72.5884 114.978L72.5796 114.992C72.4984 115.118 72.4136 115.246 72.3276 115.375L72.3179 115.391C72.2877 115.438 72.271 115.458 72.2163 115.54L72.2104 115.55C72.1559 115.633 72.1055 115.709 72.0562 115.78C72.0038 115.855 72.0108 115.842 71.9731 115.896C71.959 115.393 71.9667 114.822 71.981 114.253L71.98 114.252C71.9871 114.049 72 113.789 72.0063 113.575V113.569C72.0066 113.563 72.0073 113.551 72.0083 113.526C72.0102 113.477 72.0142 113.378 72.022 113.182C72.0375 112.788 72.0682 112.002 72.1304 110.43V110.426C72.184 108.939 72.2508 107.482 72.3081 105.954C72.7081 96.2099 73.1784 85.9442 73.564 76.2842L73.605 75.2549L72.5747 75.2451C72.0066 75.2396 71.4247 75.2371 70.8354 75.2373L69.0513 75.2432C68.7013 75.2447 68.3519 75.2458 67.9927 75.249H67.9917C67.344 75.2554 66.6912 75.2645 66.0337 75.2754L64.0464 75.3164C62.3773 75.3547 60.6916 75.4196 59.0005 75.502H58.9985C58.6494 75.5195 58.2368 75.5346 57.8745 75.5547C57.2166 75.5913 56.5625 75.6326 55.9106 75.6777L53.9585 75.8252C53.7449 75.842 53.2433 75.8645 52.7603 75.875C52.7049 75.8762 52.6503 75.8752 52.5972 75.876C52.7293 75.6455 52.8965 75.3809 53.0903 75.0928V75.0918C53.6589 74.2457 54.3593 73.3288 54.8853 72.6025L54.8892 72.5967Z" stroke="white" stroke-width="2"/>
<path d="M52.8251 95.4062L52.8231 95.4072L52.8212 95.4062C52.8013 95.409 52.7615 95.4149 52.6825 95.4258C52.524 95.4475 52.2072 95.4913 51.5741 95.5781L51.5712 95.5791C47.8909 96.0745 44.1297 96.6247 40.5614 97.2002L39.4628 97.377L39.4032 96.2656C39.0704 90.0244 38.7162 82.8576 38.4032 76.6836V76.6826C38.3604 75.8279 38.3397 75.4003 38.329 75.1865C38.3236 75.0796 38.3206 75.0258 38.3192 74.999L38.3182 74.998C38.2891 75.0435 38.2589 75.0891 38.2294 75.1357C38.0262 75.4631 37.8688 75.7029 37.6854 76.001V76.0029V76.0039H37.6844C37.6841 76.0044 37.6836 76.006 37.6825 76.0078C37.68 76.0119 37.675 76.0207 37.6649 76.0371C37.6446 76.0703 37.6035 76.1369 37.5223 76.2695C37.36 76.5348 37.0353 77.0649 36.3866 78.125L36.3837 78.1309C36.2501 78.3462 36.1126 78.5668 35.9823 78.7822L35.9803 78.7852C34.1614 81.7668 31.5427 86.1511 29.3768 89.793C28.2943 91.6132 27.3259 93.2471 26.6278 94.4258C26.2788 95.015 25.9967 95.4902 25.8026 95.8184C25.7056 95.9824 25.6309 96.1101 25.58 96.1963C25.5547 96.2391 25.5354 96.2719 25.5223 96.2939C25.5158 96.305 25.51 96.3138 25.5067 96.3193L25.5028 96.3271L24.5624 97.9082C24.3287 98.3124 24.0911 98.7161 23.8495 99.1201C23.6359 99.4817 20.793 104.331 20.1727 105.391C19.6391 106.306 19.3717 106.764 19.2382 106.993C19.1717 107.107 19.1387 107.165 19.1219 107.193C19.1137 107.207 19.1094 107.215 19.1073 107.219C19.1064 107.22 19.1056 107.221 19.1053 107.222L19.1044 107.223V107.224C19.1015 107.227 19.0975 107.229 19.0946 107.231L19.0985 107.233C18.8289 107.683 18.486 108.236 18.2001 108.753C18.2539 108.745 18.2978 108.74 18.327 108.734L18.3309 108.733C19.1312 108.594 19.9403 108.46 20.7518 108.34L21.1288 108.285C21.2486 108.269 21.3523 108.256 21.454 108.24L21.4628 108.239C22.5143 108.088 23.5673 107.951 24.6063 107.828C26.454 107.607 28.2606 107.425 29.9403 107.285L30.9637 107.2L31.0214 108.226C31.4185 115.239 31.7916 122.647 32.1884 129.591L32.2606 130.729L32.2616 130.742C32.2826 131.158 32.2934 131.366 32.2987 131.471C32.3013 131.523 32.302 131.549 32.3026 131.562C32.3029 131.568 32.3035 131.572 32.3036 131.573V131.572C32.3077 131.631 32.3122 131.698 32.3173 131.768C32.4284 131.559 32.5872 131.263 32.8124 130.842L32.8134 130.84C37.6139 121.901 43.9343 110.967 49.5614 101.52C50.3941 100.115 50.8847 99.293 51.1669 98.8213C51.3079 98.5856 51.3967 98.4367 51.451 98.3467C51.478 98.302 51.4968 98.2715 51.5087 98.252C51.5146 98.2422 51.5194 98.2343 51.5223 98.2295C51.5236 98.2275 51.5245 98.2258 51.5253 98.2246L51.5262 98.2227L51.5272 98.2217H51.5282C51.5508 98.1823 51.5699 98.1482 51.5848 98.125C51.5969 98.1064 51.6089 98.0884 51.6171 98.0762C51.6261 98.0625 51.6318 98.0544 51.6366 98.0469C51.9992 97.4609 52.447 96.7958 52.786 96.2646C53.0112 95.9117 53.1949 95.6019 53.3348 95.3408C53.2499 95.351 53.1667 95.3622 53.0858 95.373C53.0041 95.384 52.9159 95.3962 52.8387 95.4053C52.8367 95.4056 52.8325 95.4052 52.8251 95.4062ZM52.8251 95.4062H52.8192C52.8224 95.4059 52.8257 95.4057 52.829 95.4053C52.8277 95.4054 52.8263 95.4061 52.8251 95.4062Z" stroke="white" stroke-width="2"/>
<path d="M95.6442 90.4502C95.0676 91.0431 94.4445 91.6721 93.9948 92.2634C93.5714 92.823 93.3173 93.3383 93.4524 93.7066C93.6218 94.162 94.3538 94.41 95.2632 94.5634C100.33 95.0456 105.125 95.5293 106.43 95.632C105.958 100.072 103.726 111.459 101.893 121.304C101.812 121.927 101.837 122.431 102.072 122.599C102.135 122.643 102.21 122.654 102.29 122.648C102.314 122.646 102.341 122.637 102.369 122.629C102.427 122.615 102.49 122.592 102.556 122.556C102.589 122.539 102.621 122.52 102.655 122.498C102.724 122.453 102.794 122.398 102.869 122.336C102.901 122.309 102.931 122.286 102.968 122.256C103.073 122.159 103.184 122.055 103.296 121.933C103.934 121.271 104.694 120.277 105.369 119.448L114.268 108.786L127.808 92.5431C127.896 92.431 128.007 92.3124 128.092 92.1922C128.505 91.6974 128.894 91.228 129.271 90.7806C130.102 89.7436 130.737 88.7508 130.556 88.0949C130.453 87.6901 129.852 87.4752 129.157 87.3344C125.823 86.8665 122.107 86.3417 118.335 85.9023C118.69 82.679 119.593 76.8759 120.506 71.0617L120.95 67.8859C121.022 67.4448 121.127 66.9311 121.214 66.4062C121.359 65.6854 121.488 64.9441 121.545 64.3417C121.579 63.7885 121.567 63.3586 121.408 63.1784C121.375 63.1387 121.353 63.1072 121.305 63.0898C121.258 63.074 121.196 63.0882 121.135 63.0993C121.101 63.1056 121.071 63.1103 121.035 63.1245C120.98 63.1451 120.922 63.1768 120.863 63.2116C120.823 63.2353 120.787 63.251 120.744 63.2795C120.676 63.3255 120.601 63.3839 120.524 63.4439C120.486 63.4755 120.45 63.5009 120.409 63.5341C120.291 63.6336 120.168 63.7443 120.04 63.8661C119.26 64.6153 118.304 65.7281 117.631 66.4585L111.679 72.9651L109.083 75.8073L96.4468 89.6155C96.2088 89.8717 95.9366 90.1563 95.6442 90.4502Z" fill="white"/>
<path d="M45.4797 63.17C44.9128 64.0126 44.4882 64.7713 44.5366 65.1143C44.543 65.1556 44.5594 65.1919 44.5787 65.2266L44.5801 65.2298C44.6013 65.2724 44.6255 65.3071 44.6691 65.3405C44.7336 65.3989 44.8241 65.4463 44.9338 65.486C45.1582 65.5523 46.7794 65.4954 47.2589 65.4573C48.5522 65.3516 49.8423 65.2614 51.1485 65.1887C51.5183 65.1682 51.8865 65.1556 52.2676 65.1364C53.9531 65.0543 55.6309 64.9896 57.2906 64.9515C58.618 64.9183 59.9291 64.8978 61.2208 64.8852C61.5777 64.882 61.9247 64.8804 62.2751 64.8788C63.4698 64.8725 64.6551 64.8694 65.7836 64.8804C65.3979 74.5454 64.9279 84.7922 64.5274 94.5487C64.471 96.0552 64.4032 97.5491 64.35 99.0257C64.2256 102.171 64.2256 102.171 64.2256 102.171C64.2191 102.394 64.2078 102.63 64.1998 102.864C64.1643 104.28 64.1641 105.842 64.4742 106.266C64.4823 106.286 64.4968 106.304 64.5113 106.319C64.5661 106.371 64.6293 106.395 64.697 106.394C64.7018 106.394 64.7083 106.39 64.7131 106.39C64.7744 106.387 64.8424 106.365 64.9134 106.326C64.9376 106.313 64.9618 106.293 64.986 106.275C65.041 106.239 65.0975 106.198 65.1555 106.146C65.1862 106.119 65.217 106.085 65.2493 106.055C65.3058 106 65.3622 105.942 65.4203 105.875C65.4544 105.836 65.4899 105.795 65.5253 105.752C65.5818 105.684 65.6385 105.613 65.6949 105.538C65.732 105.489 65.7707 105.439 65.8095 105.388C65.8661 105.312 65.9226 105.232 65.979 105.153C66.0177 105.097 66.0567 105.044 66.0954 104.988C66.1535 104.905 66.2099 104.819 66.2666 104.732C66.3037 104.677 66.3424 104.622 66.3779 104.566C66.4666 104.433 66.5539 104.301 66.6378 104.171C66.6378 104.171 66.6378 104.171 68.0668 102.029C77.0603 88.5576 88.7704 72.1331 99.1669 57.9566C102.254 53.7389 102.784 53.0276 102.784 53.0276C102.847 52.9534 102.907 52.8711 102.97 52.7953C104.309 51.0231 106.004 49.1151 106.688 47.7811C106.884 47.392 107.013 47.0427 106.99 46.7662C106.98 46.6349 106.912 46.5337 106.803 46.4516C106.765 46.4216 106.698 46.4089 106.65 46.385C106.559 46.3408 106.478 46.2935 106.359 46.265C106.281 46.2445 106.184 46.2382 106.095 46.224C105.984 46.2064 105.879 46.1859 105.758 46.1764C105.65 46.1685 105.533 46.1685 105.418 46.1654C105.301 46.1622 105.182 46.1543 105.063 46.1543C104.643 46.159 104.242 46.1796 103.974 46.189C103.974 46.189 103.974 46.189 101.931 46.2761C95.9992 46.5258 89.9218 46.8435 84.1374 47.2308C84.5733 37.2623 85.1254 25.8285 85.5841 15.9675C85.7019 13.2295 85.7019 13.2295 85.7019 13.2295C85.7051 13.1537 85.7083 13.0651 85.7116 12.9845C85.7616 11.938 85.8035 10.5295 85.4726 10.1185C85.4162 10.0569 85.3563 10.0095 85.2837 10.0016C85.2401 9.99524 85.1867 10.0095 85.1367 10.0205C85.1012 10.0269 85.0657 10.03 85.027 10.0458C84.9833 10.0632 84.9332 10.0901 84.8865 10.117C84.8461 10.1391 84.8058 10.1581 84.7621 10.1865C84.7121 10.2197 84.6588 10.264 84.604 10.3051C84.5588 10.3414 84.5118 10.373 84.4634 10.4157C84.4086 10.4632 84.3505 10.5216 84.2924 10.577C84.2422 10.6244 84.1922 10.6687 84.1422 10.7208C84.0775 10.7856 84.0113 10.8583 83.9452 10.9279C83.8966 10.9817 83.8466 11.0291 83.7966 11.086C83.724 11.1682 83.648 11.2567 83.5722 11.3452C83.527 11.399 83.4802 11.4496 83.4349 11.5049C83.3349 11.6219 83.2365 11.7452 83.1362 11.8685C83.1104 11.8985 83.0879 11.927 83.0635 11.957C82.936 12.1151 82.8084 12.2763 82.6809 12.4407C82.3402 12.877 81.9929 13.3307 81.6637 13.7544C81.6637 13.7544 81.6637 13.7544 79.2692 16.9365C79.0351 17.2558 78.7766 17.5973 78.5232 17.9261C71.8078 26.886 59.1636 44.2763 59.1636 44.2763C58.5549 45.1063 57.98 45.8952 57.4231 46.6444C56.9807 47.256 56.5448 47.8663 56.0991 48.4782C55.7084 49.0188 50.4252 56.3077 49.2787 57.898C47.2944 60.6517 47.2944 60.6517 47.2944 60.6517C46.7907 61.3473 46.0608 62.3053 45.4797 63.17Z" fill="white"/>
<path d="M24.4091 118.291C24.4414 118.786 24.464 119.153 24.4817 119.428C24.5238 120.261 24.5238 120.261 24.5238 120.261C24.5335 120.4 24.5448 120.544 24.5545 120.693C24.6142 121.611 24.7126 122.629 24.9533 122.828L24.9582 122.831C24.9921 122.858 25.0292 122.866 25.0679 122.865C25.1356 122.862 25.21 122.814 25.2891 122.74C25.302 122.729 25.3149 122.718 25.3262 122.705C25.4054 122.623 25.4877 122.517 25.5702 122.39C25.5847 122.37 25.5992 122.348 25.6105 122.327C25.6976 122.195 25.7833 122.049 25.8688 121.896C25.8785 121.878 25.8897 121.859 25.8994 121.842C25.9881 121.682 26.0738 121.521 26.1561 121.366C26.1561 121.366 26.1561 121.366 26.9135 119.948C31.704 111.028 38.0157 100.109 43.6394 90.667C45.3057 87.8564 45.5981 87.3806 45.5981 87.3806C45.6239 87.33 45.661 87.2779 45.6949 87.2256C46.4248 86.0434 47.3709 84.7549 47.7036 83.8839C47.8036 83.6311 47.8665 83.4033 47.8326 83.2389C47.8262 83.1994 47.8101 83.1663 47.7972 83.141C47.6389 82.9101 47.0965 82.9164 46.6025 82.964C46.5587 82.9687 46.5232 82.9734 46.4797 82.9782C46.2617 83.0034 46.0631 83.0334 45.9244 83.0492C45.9244 83.0492 45.9241 83.0492 44.6566 83.2231C40.9689 83.7195 37.1988 84.2711 33.6208 84.8483C33.2881 78.6087 32.9344 71.4447 32.6212 65.2685C32.5355 63.5581 32.5356 63.5581 32.5356 63.5581C32.5323 63.5091 32.5275 63.4568 32.5243 63.4016C32.4968 62.8008 32.4404 62.0073 32.253 61.6975C32.1998 61.6201 32.1464 61.5694 32.0802 61.5662C32.0286 61.5646 31.9625 61.6122 31.9012 61.6438C31.859 61.6659 31.8219 61.6659 31.7752 61.7022C31.7106 61.7527 31.6379 61.8382 31.5685 61.9124C31.5167 61.9679 31.4683 62.0057 31.415 62.0705C31.3473 62.1528 31.2745 62.257 31.2051 62.3519C31.1422 62.4372 31.0807 62.5116 31.0162 62.6064C30.8805 62.8039 30.7418 63.0175 30.6028 63.2372C30.4204 63.5312 30.2268 63.8314 30.0508 64.1176C30.0508 64.1176 30.0508 64.1176 28.7526 66.239C28.6201 66.4525 28.4796 66.6785 28.3457 66.8998C24.7013 72.8737 17.8601 84.4545 17.8601 84.4545C17.5357 85.0048 17.2207 85.5343 16.9237 86.0291C16.688 86.4369 16.4504 86.8431 16.2083 87.2479C15.9935 87.6115 13.1486 92.4613 12.5286 93.5204C11.4597 95.3542 11.4597 95.3542 11.4597 95.3542C11.182 95.8172 10.7848 96.4559 10.4733 97.0313C10.1728 97.591 9.95003 98.0843 10.0097 98.2992C10.0194 98.3324 10.0357 98.3624 10.0535 98.3876C10.1067 98.4431 10.1793 98.4841 10.2779 98.5062C10.3069 98.5126 10.3876 98.5078 10.4715 98.5031C10.5088 98.5015 10.5394 98.4999 10.583 98.4968C10.6654 98.4905 10.7558 98.481 10.8526 98.4699C10.8979 98.4652 10.9383 98.462 10.985 98.4557C11.0867 98.4431 11.1853 98.4305 11.2837 98.4178C11.3256 98.4131 11.3694 98.4066 11.4097 98.4018C11.5371 98.3845 11.6502 98.3671 11.7212 98.3545C12.5221 98.2153 13.3263 98.0811 14.1304 97.9625C14.3645 97.9246 14.597 97.8993 14.8246 97.8644C15.8677 97.7142 16.9124 97.5784 17.9442 97.4566C19.7799 97.2369 21.5739 97.0567 23.2418 96.9176C23.6372 103.901 24.0135 111.369 24.4091 118.291Z" fill="white"/>
</svg>
