<?xml version="1.0" encoding="utf-8"?>
<!-- Generator: Adobe Illustrator 23.0.6, SVG Export Plug-In . SVG Version: 6.00 Build 0)  -->
<!DOCTYPE svg PUBLIC "-//W3C//DTD SVG 1.1//EN" "http://www.w3.org/Graphics/SVG/1.1/DTD/svg11.dtd" [
	<!ENTITY ns_extend "http://ns.adobe.com/Extensibility/1.0/">
	<!ENTITY ns_ai "http://ns.adobe.com/AdobeIllustrator/10.0/">
	<!ENTITY ns_graphs "http://ns.adobe.com/Graphs/1.0/">
	<!ENTITY ns_vars "http://ns.adobe.com/Variables/1.0/">
	<!ENTITY ns_imrep "http://ns.adobe.com/ImageReplacement/1.0/">
	<!ENTITY ns_sfw "http://ns.adobe.com/SaveForWeb/1.0/">
	<!ENTITY ns_custom "http://ns.adobe.com/GenericCustomNamespace/1.0/">
	<!ENTITY ns_adobe_xpath "http://ns.adobe.com/XPath/1.0/">
]>
<svg version="1.1" id="Layer_1" xmlns:x="&ns_extend;" xmlns:i="&ns_ai;" xmlns:graph="&ns_graphs;"
	 xmlns="http://www.w3.org/2000/svg" xmlns:xlink="http://www.w3.org/1999/xlink" x="0px" y="0px" width="150px" height="150px"
	 viewBox="0 0 150 150" style="enable-background:new 0 0 150 150;" xml:space="preserve">
<style type="text/css">
	.st0{fill:#0400FF;}
	.st1{fill:#FF58A7;}
	.st2{clip-path:url(#SVGID_2_);fill:#EECB5F;}
	.st3{clip-path:url(#SVGID_2_);fill:#EECA5F;}
	.st4{clip-path:url(#SVGID_2_);fill:#EEC95F;}
	.st5{clip-path:url(#SVGID_4_);fill:#EECB5F;}
	.st6{clip-path:url(#SVGID_4_);fill:#EECA5F;}
	.st7{clip-path:url(#SVGID_4_);fill:#EEC95F;}
	.st8{clip-path:url(#SVGID_6_);fill:#EECB5F;}
	.st9{clip-path:url(#SVGID_6_);fill:#EECA5F;}
	.st10{clip-path:url(#SVGID_6_);fill:#EEC95F;}
</style>
<metadata>
	<sfw  xmlns="&ns_sfw;">
		<slices></slices>
		<sliceSourceBounds  bottomLeftOrigin="true" height="136.4" width="137.2" x="10" y="3.6"></sliceSourceBounds>
	</sfw>
</metadata>
<g>
	<g>
		<path class="st0" d="M78.7,129.4c-0.3,0-0.6-0.1-0.8-0.3l-0.2-0.2l-0.1-0.1c-0.4-0.6-0.5-1.6-0.4-3.9c0-0.1,0.2-4.4,0.4-10
			c0.4-9.4,1-22.7,1.1-26.9c-1.6,0-4.9,0.1-8.1,0.2c-11.7,0.4-11.8,0.4-12,0.3c-0.3-0.1-0.5-0.2-0.7-0.4c-0.1-0.1-0.2-0.2-0.3-0.4
			c-0.1-0.1-0.1-0.3-0.1-0.4c-0.1-0.6-0.1-0.6,19.7-27.7c8.6-11.8,19.5-26.7,19.6-26.8l0.2-0.3c0.1-0.1,0.3-0.3,0.4-0.4
			c0,0,0.3-0.3,0.4-0.4c0.1-0.1,0.5-0.4,0.6-0.4l0,0c0,0,0.2-0.1,0.3-0.1c0.1,0,0.5-0.1,0.8-0.1c0.3,0,0.5,0.2,0.8,0.4
			c0.5,0.7,0.6,1.8,0.5,3.6c0,0.1-1.2,26-1.5,33.1c4.1-0.2,18.1-0.9,18.7-1c0.3,0,1.4,0,1.5,0c0.1,0,0.7,0,0.8,0.1
			c0.1,0,0.6,0.1,0.8,0.2c0,0,0.2,0.1,0.3,0.2c0.3,0.2,0.5,0.6,0.6,1c0,0.6-0.2,1.1-0.4,1.5l0,0c-0.7,1.4-36.1,50.9-40.1,56.5
			l-0.9,1.3c-0.1,0.1-0.2,0.2-0.2,0.3l-0.1,0.1c-0.1,0.1-0.2,0.2-0.2,0.3c-0.1,0.1-0.1,0.1-0.1,0.1c-0.1,0.1-0.2,0.1-0.3,0.2
			l-0.2,0.1c-0.1,0.1-0.3,0.1-0.4,0.2l-0.1,0L78.7,129.4C78.7,129.4,78.7,129.4,78.7,129.4z M79.2,128L79.2,128L79.2,128L79.2,128z
			 M78.7,127.6l0.3,0.2l0,0l-0.3-0.4L78.7,127.6z M79.8,85.9C79.8,85.9,79.8,85.9,79.8,85.9l1.1,0l0,1c-0.1,2.1-0.7,17.5-1.2,28
			c-0.2,5.6-0.4,9.9-0.4,10c0,0.7,0,1.2,0,1.6l0.6-0.9c10.8-15.2,39.1-54.7,40-56.3c0,0,0-0.1,0.1-0.1c-0.1,0-0.4,0-0.5,0
			c-0.2,0-1.1,0-1.4,0c-0.2,0-19.2,1-19.8,1l-1.1,0.1l0-1.1c0.2-5,1.6-34.1,1.6-34.3c0-0.6,0-1.1,0-1.4c-0.1,0.1-0.2,0.2-0.2,0.2
			l-0.2,0.2C98,34.4,65.6,78.7,60.2,86.5c2.1-0.1,6.6-0.2,10.4-0.3C75.2,86,79.1,85.9,79.8,85.9z"/>
	</g>
	<g>
		<path class="st0" d="M39.1,146.4c-0.2,0-0.5-0.1-0.7-0.2l-0.1-0.1c-0.4-0.3-0.5-0.8-0.6-1.2c0-0.1-0.1-0.4-1.4-24.3
			c-2.1,0.2-8,1-10.3,1.3c-0.8,0.1-1.3,0.2-1.3,0.2l-0.1,0c-0.2,0-0.3,0-0.5,0c-0.3-0.1-0.5-0.2-0.7-0.4l-0.2-0.3l-0.1-0.3
			c-0.2-0.6,0.1-1.1,0.5-2c0.3-0.5,20.9-35,21.1-35.1c0.2-0.2,0.3-0.4,0.6-0.6c0.2-0.1,0.5-0.3,0.9-0.3c0.3,0,0.7,0.1,1,0.6
			c0.3,0.5,0.4,1.1,0.4,2.2l0.1,2.9c0.2,4.8,0.7,14.2,0.9,17.4c3.4-0.5,11.9-1.7,11.9-1.7c0.5-0.1,1.6-0.2,2.1,0.6l0.1,0.1
			c0,0.1,0.1,0.2,0.1,0.4c0.1,0.4-0.1,0.8-0.2,1.2l-0.1,0.2c-22.1,38.5-22.1,38.5-22.2,38.5c-0.1,0.1-0.2,0.3-0.3,0.4l-0.1,0.1
			C39.7,146.3,39.4,146.4,39.1,146.4C39.1,146.4,39.1,146.4,39.1,146.4z M39.8,144.8L39.8,144.8L39.8,144.8z M38.2,118.4l0.1,1.5
			c0.6,11.5,1.1,19.6,1.3,23c3.7-6.5,18.6-32.3,20.9-36.4c-1.5,0.2-11.1,1.6-12.7,1.8l-1.1,0.2l-0.1-1.1c0-0.5-0.7-12.8-0.9-18.5
			l-0.1-2.6c-3.5,5.7-18.9,31.4-20.1,33.6c0.1,0,0.2,0,0.3,0c2.9-0.4,9.8-1.3,11-1.4L38.2,118.4z M25,120.8L25,120.8L25,120.8z"/>
	</g>
	<g>
		<path class="st0" d="M116.4,144.2c-0.1,0-0.1,0-0.2,0c-0.3-0.1-0.5-0.2-0.7-0.4c-0.3-0.4-0.4-0.9-0.4-1.3c0-0.1,0-0.5,3.2-24.2
			c-2.1-0.2-8-0.5-10.4-0.7c-0.8,0-1.3-0.1-1.3-0.1l-0.1,0c-0.2,0-0.3,0-0.4-0.1c-0.3-0.1-0.5-0.3-0.6-0.5l-0.1-0.3l0-0.3
			c0-0.6,0.3-1.1,0.9-1.9c0.4-0.5,27.2-30.4,27.3-30.5c0.2-0.2,0.4-0.3,0.7-0.4c0.3-0.1,0.6-0.2,0.9-0.1c0.3,0.1,0.6,0.2,0.9,0.7
			c0.2,0.5,0.2,1.1,0,2.3c0,0-0.5,3.5-1.1,7.6c-0.7,4.7-1.4,10.2-1.8,12.5c3.4,0.1,12,0.6,12,0.6c0.5,0.1,1.6,0.2,2,1l0,0.1
			c0,0.1,0.1,0.2,0.1,0.4c0,0.4-0.2,0.8-0.4,1.1l-0.1,0.2c-29,33.6-29,33.6-29.1,33.6c-0.1,0.1-0.3,0.3-0.4,0.4l-0.1,0.1
			C116.9,144.1,116.6,144.2,116.4,144.2z M117.1,142.8L117.1,142.8L117.1,142.8z M107.8,115.6c0.1,0,0.2,0,0.3,0
			c2.9,0.2,9.8,0.6,11.1,0.7l1.5,0.1l-0.2,1.2c-1.3,9.3-2.6,19.2-3.1,23.1c4.9-5.7,24.4-28.2,27.4-31.7c-1.5-0.1-11.2-0.5-12.8-0.6
			l-1.1,0l0.2-1.1c0.1-0.4,1.1-7.7,1.9-13.6c0.5-3.4,0.9-6.3,1-7.3C129.4,91.4,109.4,113.7,107.8,115.6z M106.6,116.2l0,0.3
			L106.6,116.2L106.6,116.2z M107.2,116.4L107.2,116.4L107.2,116.4z M106.6,116L106.6,116L106.6,116l0.1-0.3L106.6,116z
			 M145.2,108.5L145.2,108.5L145.2,108.5z"/>
	</g>
</g>
<g>
	<g>
		<path class="st1" d="M71.7,118.4c-0.3,0-0.6-0.1-0.8-0.3l-0.2-0.1l-0.1-0.1c-0.4-0.6-0.5-1.6-0.4-3.9c0-0.1,0.2-3.8,0.4-8.9
			c0.4-9.5,1-23.7,1.2-28.1c-1.6,0-4.8,0.1-8,0.2c-11.8,0.4-11.9,0.4-12.1,0.3c-0.3-0.1-0.5-0.2-0.7-0.4c-0.1-0.1-0.2-0.2-0.3-0.4
			c-0.1-0.1-0.1-0.3-0.1-0.4c-0.1-0.6-0.1-0.6,19.7-27.7c8.6-11.8,19.5-26.7,19.6-26.8l0.2-0.3c0.1-0.1,0.3-0.3,0.4-0.4
			c0,0,0.3-0.3,0.4-0.4c0.1-0.1,0.5-0.4,0.6-0.4l0,0c0,0,0.2-0.1,0.3-0.1c0.1,0,0.4-0.1,0.8-0.1c0.3,0,0.5,0.2,0.8,0.4
			c0.5,0.7,0.6,1.8,0.5,3.6c0,0.1-1.2,26-1.5,33.1c4.1-0.2,18.1-0.9,18.7-1c0.3,0,1.4,0,1.5,0c0.1,0,0.7,0,0.8,0.1
			c0.1,0,0.6,0.1,0.8,0.2c0,0,0.2,0.1,0.3,0.2c0.3,0.2,0.5,0.6,0.6,1c0,0.6-0.2,1.1-0.4,1.5l0,0c-0.7,1.4-36.1,50.9-40.1,56.5
			l-0.3,0.5c-0.1,0.1-0.2,0.2-0.2,0.3l-0.4,0.5c-0.1,0.1-0.2,0.2-0.2,0.3l-0.1,0.1c-0.1,0.1-0.1,0.2-0.2,0.2l-0.1,0.1
			c-0.1,0.1-0.2,0.2-0.3,0.2l-0.2,0.1c-0.1,0.1-0.3,0.1-0.4,0.2l-0.1,0L71.7,118.4C71.7,118.4,71.7,118.4,71.7,118.4z M72.8,74.9
			C72.8,74.9,72.8,74.9,72.8,74.9l1.1,0l0,1c-0.1,2.2-0.8,18.6-1.2,29.1c-0.2,5-0.4,8.7-0.4,8.8c0,0.7,0,1.2,0,1.6l0.6-0.9
			c10.8-15.2,39.1-54.7,40-56.3c0,0,0-0.1,0.1-0.1c-0.1,0-0.4,0-0.5,0c-0.1,0-1.1,0-1.4,0c-0.2,0-19.2,1-19.8,1l-1.1,0.1l0-1.1
			c0.2-5,1.6-34.1,1.6-34.3c0-0.6,0-1.1,0-1.4c-0.1,0.1-0.2,0.2-0.2,0.2l-0.2,0.2C91,23.4,58.6,67.7,53.2,75.5
			c2.1-0.1,6.7-0.2,10.5-0.3C68.2,75,72.1,74.9,72.8,74.9z"/>
	</g>
	<g>
		<path class="st1" d="M32.1,134.9c-0.2,0-0.5-0.1-0.7-0.2l-0.1-0.1c-0.4-0.3-0.5-0.8-0.6-1.2c0-0.1-0.1-0.4-1.4-24.3
			c-2.1,0.2-8.1,1-10.5,1.3c-0.7,0.1-1.1,0.1-1.1,0.1l-0.2,0c-0.1,0-0.3,0-0.4,0c-0.3-0.1-0.5-0.2-0.7-0.4l-0.2-0.2l-0.1-0.3
			c-0.2-0.6,0.1-1.1,0.5-2c0.3-0.5,20.9-35,21.1-35.1c0.2-0.2,0.3-0.4,0.6-0.6c0.2-0.1,0.5-0.3,0.9-0.3c0.2,0,0.7,0.1,1,0.6
			c0.3,0.5,0.4,1.1,0.4,2.2l0.1,2.6c0.2,4.7,0.7,14.4,0.9,17.7c3.4-0.5,11.9-1.7,11.9-1.7c0.5-0.1,1.6-0.2,2.1,0.6l0.1,0.1
			c0,0.1,0.1,0.2,0.1,0.4c0.1,0.4-0.1,0.8-0.2,1.2l-0.1,0.2c-22.1,38.5-22.1,38.5-22.2,38.5c-0.1,0.1-0.2,0.3-0.3,0.4l-0.1,0.1
			C32.7,134.7,32.4,134.9,32.1,134.9C32.1,134.9,32.1,134.9,32.1,134.9z M31.2,106.8l0.1,1.5c0.6,11.5,1.1,19.6,1.3,23
			C36.3,124.8,51.2,99,53.5,95c-1.5,0.2-11.1,1.6-12.7,1.8L39.7,97l-0.1-1.1c0-0.5-0.7-13.2-1-18.8l-0.1-2.3
			c-3.5,5.7-18.9,31.4-20.1,33.6c0,0,0.1,0,0.1,0c4.6-0.6,10.1-1.3,11.2-1.4L31.2,106.8z M18,109.3L18,109.3L18,109.3z M53.8,94.3
			L53.8,94.3L53.8,94.3z"/>
	</g>
	<g>
		<path class="st1" d="M110.2,133.2c-0.1,0-0.1,0-0.2,0c-0.3,0-0.5-0.1-0.6-0.3l-0.1-0.1c-0.3-0.4-0.3-0.9-0.3-1.3
			c0-0.1,0-0.5,3.3-24.2c-2.1-0.2-8.1-0.6-10.5-0.7c-0.8,0-1.2-0.1-1.3-0.1l-0.1,0c-0.1,0-0.3,0-0.4-0.1c-0.3-0.1-0.5-0.3-0.6-0.5
			l-0.1-0.3l0-0.3c0-0.6,0.3-1.1,0.9-1.9c0.4-0.5,27.3-30.3,27.5-30.4c0.2-0.2,0.4-0.3,0.7-0.4c0.2-0.1,0.6-0.2,0.9-0.1
			c0.2,0,0.6,0.2,0.9,0.7c0.2,0.5,0.2,1.1,0,2.3l-0.3,2.2c-0.6,4.5-2.1,14.6-2.6,18c3.4,0.2,12,0.6,12,0.6c0.8,0.1,1.6,0.3,2,1
			l0,0.1c0,0.1,0.1,0.2,0.1,0.4c0,0.4-0.2,0.8-0.4,1.1l-0.1,0.2c-29.1,33.5-29.1,33.5-29.2,33.5c-0.1,0.1-0.3,0.3-0.4,0.4l-0.1,0.1
			C110.7,133.1,110.5,133.2,110.2,133.2z M101.7,104.5c0.1,0,0.1,0,0.2,0c3,0.2,9.9,0.6,11.1,0.8l1.5,0.2l-0.2,1.5
			c-1.6,11.4-2.7,19.5-3.2,22.9c4.9-5.7,24.5-28.1,27.6-31.6c-1.5-0.1-11.2-0.6-12.8-0.6l-1.1,0l0.2-1.1c0.1-0.5,2-13.7,2.8-19.1
			l0.3-1.9C123.5,80.4,103.4,102.7,101.7,104.5z M101.1,105.3L101.1,105.3L101.1,105.3z M139.2,97.6L139.2,97.6L139.2,97.6z"/>
	</g>
</g>
<g>
	<g>
		<g>
			<defs>
				<path id="SVGID_1_" d="M106.7,47.8c0.2-0.4,0.3-0.7,0.3-1c0-0.1-0.1-0.2-0.2-0.3c0,0-0.1,0-0.2-0.1c-0.1,0-0.5-0.1-0.6-0.2
					c-0.1,0-0.6-0.1-0.7-0.1c-0.1,0-1.2,0-1.4,0c0,0-19.2,1-19.8,1c0.2-5,1.6-34.2,1.6-34.2c0-1,0.1-2.5-0.2-2.9
					c-0.1-0.1-0.1-0.1-0.2-0.1c0,0-0.2,0-0.3,0c0,0-0.1,0.1-0.1,0.1c0,0-0.4,0.3-0.4,0.3c-0.1,0-0.3,0.3-0.3,0.3
					c-0.1,0.1-0.3,0.3-0.3,0.4c-0.1,0.1-0.1,0.2-0.2,0.3c0,0.1-39.1,53.4-39,53.8c0,0,0,0.1,0,0.1l0,0c0,0,0,0.1,0.1,0.1
					c0.1,0.1,0.2,0.1,0.3,0.1c0.2,0.1,19.7-0.6,20.8-0.6c-0.1,3.3-1.6,37.7-1.6,38c0,1.4,0,3,0.3,3.4c0,0,0,0,0,0.1
					c0.1,0.1,0.1,0.1,0.2,0.1c0,0,0,0,0,0c0.1,0,0.1,0,0.2-0.1c0,0,0,0,0.1-0.1c0.1,0,0.1-0.1,0.2-0.1c0,0,0.1-0.1,0.1-0.1
					c0.1-0.1,0.1-0.1,0.2-0.2c0,0,0.1-0.1,0.1-0.1c0.1-0.1,0.1-0.1,0.2-0.2c0,0,0.1-0.1,0.1-0.2c0.1-0.1,0.1-0.2,0.2-0.2
					c0-0.1,0.1-0.1,0.1-0.2c0.1-0.1,0.1-0.2,0.2-0.3c0-0.1,0.1-0.1,0.1-0.2c0.1-0.1,0.2-0.3,0.3-0.4C66.6,104.2,106,49.1,106.7,47.8
					z"/>
			</defs>
			<clipPath id="SVGID_2_">
				<use xlink:href="#SVGID_1_"  style="overflow:visible;"/>
			</clipPath>
			<polygon class="st2" points="44.5,92.1 45.4,106.4 44.5,106.4 			"/>
			<polygon class="st3" points="44.5,10.7 54.7,10 92.9,10 99.2,106.1 95.2,106.4 45.4,106.4 44.5,92.1 			"/>
			<polygon class="st4" points="107,105.6 99.2,106.1 92.9,10 107,10 			"/>
		</g>
	</g>
	<g>
		<g>
			<defs>
				<path id="SVGID_3_" d="M47.7,84C47.7,83.9,47.7,83.9,47.7,84c0.1-0.3,0.2-0.5,0.2-0.7c0,0,0-0.1,0-0.1c-0.2-0.2-0.7-0.2-1.2-0.2
					c0,0-11.2,1.6-13,1.9c0-0.7-1.1-21.4-1.1-21.4c0-0.6-0.1-1.4-0.3-1.7c-0.1-0.1-0.1-0.1-0.2-0.1c-0.1,0-0.2,0.1-0.3,0.1
					c-0.2,0.1-0.3,0.3-0.4,0.4c-0.1,0.1-20.6,34.4-20.9,35c-0.3,0.6-0.5,1.1-0.5,1.3c0,0,0,0.1,0,0.1c0.1,0.1,0.1,0.1,0.2,0.1
					c0,0,0.1,0,0.2,0c0,0,0.1,0,0.1,0c0.1,0,10.7-1.4,12.2-1.5c0.1,0,0.3,0,0.4,0c0.1,1,1.4,24.8,1.5,25.3c0.1,0.3,0.1,0.6,0.2,0.7
					l0,0c0,0,0.1,0,0.1,0c0.1,0,0.1-0.1,0.2-0.1c0,0,0,0,0,0c0.1-0.1,0.2-0.2,0.2-0.3C25.6,122.4,47.7,84,47.7,84z"/>
			</defs>
			<clipPath id="SVGID_4_">
				<use xlink:href="#SVGID_3_"  style="overflow:visible;"/>
			</clipPath>
			<polygon class="st5" points="10,114.3 10.5,122.9 10,122.9 			"/>
			<polygon class="st6" points="39.3,61.6 43.3,122.9 10.5,122.9 10,114.3 10,61.6 			"/>
			<polygon class="st7" points="43.3,122.9 39.3,61.6 47.9,61.6 47.9,122.9 			"/>
		</g>
	</g>
	<g>
		<g>
			<defs>
				<path id="SVGID_5_" d="M132.9,87.4C132.9,87.4,132.9,87.3,132.9,87.4c0.2-0.3,0.3-0.5,0.3-0.7c0,0,0-0.1,0-0.1
					c-0.1-0.3-0.6-0.4-1.1-0.4c0,0-11.3-0.6-13.1-0.7c0.1-0.6,3.1-21.2,3.1-21.3c0.1-0.6,0.2-1.4,0.1-1.7c0-0.1-0.1-0.1-0.1-0.2
					c-0.1,0-0.2,0-0.3,0.1c-0.2,0.1-0.4,0.2-0.4,0.3c-0.1,0.1-26.9,29.7-27.3,30.2c-0.4,0.5-0.7,0.9-0.7,1.2c0,0,0,0.1,0,0.1
					c0,0.1,0.1,0.1,0.2,0.2c0,0,0.1,0,0.2,0c0,0,0.1,0,0.1,0c0.1,0,10.7,0.7,12.3,0.9c0.1,0,0.3,0,0.4,0c-0.1,1-3.4,24.6-3.4,25.1
					c0,0.3,0,0.6,0.1,0.7l0,0c0,0,0.1,0,0.1,0.1c0.1,0,0.1,0,0.2-0.1c0,0,0,0,0,0c0.1-0.1,0.2-0.2,0.3-0.3
					C103.8,120.8,132.9,87.4,132.9,87.4z"/>
			</defs>
			<clipPath id="SVGID_6_">
				<use xlink:href="#SVGID_5_"  style="overflow:visible;"/>
			</clipPath>
			<polygon class="st8" points="96.2,62.4 93.2,85.7 93.2,62.4 			"/>
			<polygon class="st9" points="129.2,62.4 121.5,121.2 93.2,121.2 93.2,85.7 96.2,62.4 			"/>
			<polygon class="st10" points="121.5,121.2 129.2,62.4 133.2,62.4 133.2,121.2 			"/>
		</g>
	</g>
</g>
</svg>
