<?xml version="1.0" encoding="utf-8"?>
<!-- Generator: Adobe Illustrator 23.0.6, SVG Export Plug-In . SVG Version: 6.00 Build 0)  -->
<!DOCTYPE svg PUBLIC "-//W3C//DTD SVG 1.1//EN" "http://www.w3.org/Graphics/SVG/1.1/DTD/svg11.dtd" [
	<!ENTITY ns_extend "http://ns.adobe.com/Extensibility/1.0/">
	<!ENTITY ns_ai "http://ns.adobe.com/AdobeIllustrator/10.0/">
	<!ENTITY ns_graphs "http://ns.adobe.com/Graphs/1.0/">
	<!ENTITY ns_vars "http://ns.adobe.com/Variables/1.0/">
	<!ENTITY ns_imrep "http://ns.adobe.com/ImageReplacement/1.0/">
	<!ENTITY ns_sfw "http://ns.adobe.com/SaveForWeb/1.0/">
	<!ENTITY ns_custom "http://ns.adobe.com/GenericCustomNamespace/1.0/">
	<!ENTITY ns_adobe_xpath "http://ns.adobe.com/XPath/1.0/">
]>
<svg version="1.1" id="Layer_1" xmlns:x="&ns_extend;" xmlns:i="&ns_ai;" xmlns:graph="&ns_graphs;"
	 xmlns="http://www.w3.org/2000/svg" xmlns:xlink="http://www.w3.org/1999/xlink" x="0px" y="0px" width="366px" height="330px"
	 viewBox="0 0 366 330" style="enable-background:new 0 0 366 330;" xml:space="preserve">
<style type="text/css">
	.st0{fill:#0400FF;}
	.st1{fill:#FF58A7;}
	.st2{fill-rule:evenodd;clip-rule:evenodd;fill:#EEDB5F;}
</style>
<metadata>
	<sfw  xmlns="&ns_sfw;">
		<slices></slices>
		<sliceSourceBounds  bottomLeftOrigin="true" height="327.8" width="361.7" x="-0.4" y="2"></sliceSourceBounds>
		<optimizationSettings>
			<targetSettings  fileFormat="PNG24Format" targetSettingsID="0">
				<PNG24Format  filtered="false" interlaced="false" matteColor="#FFFFFF" noMatteColor="false" transparency="true">
					</PNG24Format>
			</targetSettings>
		</optimizationSettings>
	</sfw>
</metadata>
<path class="st0" d="M308.6,299.9c-1-0.1-2-0.2-3-0.2c0.1,2.4,0.4,4.9,0.7,7.5l0.1,0.8l0.5,0.6c4.2,5.7,8.5,11.2,12.9,16.3
	c-13.4-1-27.5-1.9-42.1-2.6c4-3.4,5.9-6.2,5.9-8.9c0-4.8-7-5.9-9.7-6.3c-0.3,0-0.6-0.1-1-0.1h-0.3c-0.3,0-0.6-0.1-0.9-0.1h-0.3
	c-0.4,0-0.8-0.1-1.2-0.1H270c-0.5,0-1,0-1.5-0.1h-11.3c-0.6,0-1.3,0-2,0.1h-0.5c-0.8,0-1.7,0.1-2.6,0.1h-0.3c-0.8,0-1.6,0.1-2.4,0.1
	h-0.8c-0.7,0-1.4,0.1-2.1,0.1h-0.8c-0.7,0.1-1.5,0.1-2.2,0.2h-0.7c-2,0.2-4,0.4-6.1,0.6l-0.5,0.1h-0.4c-0.8,0.1-1.6,0.2-2.3,0.3
	l-0.6,0.1h-0.4c-0.8,0.1-1.6,0.2-2.3,0.3H230l-0.6,0.1c-1,0.1-2.1,0.3-3.1,0.4h-0.2c-1.1,0.2-2.2,0.3-3.4,0.5h-0.1l-0.4,0.1
	l-0.4,0.1h-0.1c-0.8,0.1-1.6,0.2-2.4,0.4h-0.6c-0.2,0-0.3,0-0.5,0.1c-0.8,0.1-1.6,0.3-2.4,0.4l-1.1,0.2c-0.9,0.2-1.9,0.3-2.8,0.5
	c-0.2,0-0.3,0.1-0.5,0.1h-0.2c-1.2,0.2-2.3,0.4-3.5,0.7l-0.4,0.1l-0.3,0.1c-0.9,0.2-1.8,0.4-2.8,0.6c-0.3,0.1-0.5,0.1-0.8,0.2
	l-0.4,0.1c-0.8,0.2-1.6,0.3-2.4,0.5l-0.3,0.1c-0.3,0.1-0.6,0.1-0.9,0.2c-0.9,0.2-1.7,0.4-2.6,0.6l-0.5,0.1L196,315
	c-1.2,0.3-2.4,0.6-3.5,0.9l-0.3,0.1h-0.3c-0.2,0-0.3,0.1-0.5,0.1c1.8-1.9,3-3.7,3.7-4.9c1.5-2.6,2-4.8,1.4-6.7c-0.3-1-1.1-2.4-3-3.2
	c-0.4-0.2-0.9-0.3-1.3-0.5c-0.1,0-0.2-0.1-0.3-0.1h-0.2c-0.3-0.1-0.6-0.2-1-0.3c-0.2,0-0.3-0.1-0.5-0.1c-0.4-0.1-0.8-0.2-1.3-0.3
	h-0.2c-0.5-0.1-1-0.2-1.6-0.3h-0.5c-0.4-0.1-0.9-0.1-1.3-0.1h-0.5c-0.5,0-1.1-0.1-1.6-0.1h-0.3c-0.7,0-1.4-0.1-2.1-0.1h-5.5
	c-0.9,0-1.7,0.1-2.7,0.1H172c-0.7,0-1.5,0.1-2.2,0.1h-0.9c-0.8,0.1-1.7,0.1-2.6,0.2h-0.4c-1,0.1-2.1,0.2-3.1,0.3H162
	c-0.8,0.1-1.7,0.2-2.6,0.3h-0.3l-0.6,0.1c-1,0.1-2,0.2-3,0.4h-0.4c-1.2,0.1-2.4,0.3-3.6,0.5l-0.7,0.1h-0.2c-1,0.1-1.9,0.3-2.9,0.4
	l-0.4,0.1l-0.6,0.1l-3.6,0.6h-0.3c-1.3,0.2-2.7,0.5-4.1,0.7l-0.4,0.1l-0.7,0.1c-1.1,0.2-2.1,0.4-3.2,0.6h-0.1
	c-0.3,0.1-0.5,0.1-0.8,0.2l-0.3,0.1c-1.4,0.3-2.7,0.5-4.2,0.8h-0.2l-4.5,0.9c-0.4,0.1-0.9,0.2-1.3,0.3c-1.2,0.2-2.3,0.5-3.5,0.7
	c-0.4,0.1-0.9,0.2-1.4,0.3c-1.6,0.3-3.2,0.7-4.8,1.1c-5,1.2-28.3,6.6-49.2,13.4c0.7-0.9,1.5-1.8,2.2-2.7l1.1-1.4l-0.6-1.6
	c-2.9-7.4-6.7-14.5-11.4-21.3l-3,0.9c5.2,7.3,8.9,14.6,11.6,21.4c-2.8,3.5-5.7,6.9-8.7,10.3l0.2,0.4c21.7-7.8,49.8-14.5,58.5-16.5
	c1.6-0.4,3.2-0.7,4.8-1.1c0.5-0.1,0.9-0.2,1.4-0.3c1.2-0.3,2.3-0.5,3.5-0.7c0.4-0.1,0.8-0.2,1.3-0.3l4.5-0.9h0.2
	c1.4-0.3,2.8-0.5,4.1-0.8l0.3-0.1c0.3,0,0.5-0.1,0.8-0.2h0.1c1.1-0.2,2.1-0.4,3.2-0.6c0.4-0.1,0.7-0.1,1.1-0.2
	c1.4-0.2,2.7-0.5,4-0.7h0.2l3.6-0.6c0.3-0.1,0.7-0.1,1-0.2c1-0.1,2-0.3,2.9-0.4c0.3,0,0.6-0.1,0.9-0.1c1.2-0.2,2.4-0.3,3.6-0.5h0.4
	c1-0.1,2.1-0.3,3-0.4c0.3,0,0.6-0.1,0.9-0.1c0.9-0.1,1.7-0.2,2.5-0.3h0.7c1.1-0.1,2.1-0.2,3.1-0.3h0.4c0.9-0.1,1.7-0.1,2.5-0.2h0.8
	c0.7,0,1.5-0.1,2.2-0.1h0.6c0.9,0,1.8-0.1,2.6-0.1h5.3c0.7,0,1.4,0,2,0.1h0.3c0.5,0,1.1,0.1,1.6,0.1c0.2,0,0.4,0,0.6,0.1
	c0.4,0,0.8,0.1,1.3,0.1h0.5c0.5,0.1,1,0.1,1.5,0.2h0.2c0.4,0.1,0.8,0.2,1.2,0.2c0.1,0,0.3,0.1,0.4,0.1c0.3,0.1,0.6,0.2,0.9,0.2h0.1
	c0.1,0,0.1,0,0.2,0.1c0.4,0.1,0.7,0.2,1,0.4c2,0.8,1.8,3,0.2,5.5c-0.9,1.6-2.3,3.4-4.1,5.1c-3.1,3-4.9,4.6-10,8.1v0.1
	c1-0.3,2-0.7,3.1-1c0.4-0.1,0.7-0.2,1.1-0.3c0.8-0.2,1.6-0.5,2.4-0.7c0.2-0.1,0.5-0.1,0.7-0.2c0.2,0,0.3-0.1,0.5-0.1
	c0.8-0.2,1.6-0.5,2.4-0.7c0.1,0,0.3-0.1,0.4-0.1c0.2-0.1,0.4-0.1,0.7-0.2c1-0.3,2-0.5,2.9-0.8c0.1,0,0.2,0,0.3-0.1
	c0.1,0,0.2,0,0.3-0.1c1.2-0.3,2.3-0.6,3.5-0.9c0.3-0.1,0.6-0.1,0.9-0.2c0.9-0.2,1.7-0.4,2.6-0.6c0.3-0.1,0.6-0.1,0.9-0.2
	c0.1,0,0.2,0,0.3-0.1c0.8-0.2,1.6-0.4,2.4-0.5c0.1,0,0.2-0.1,0.4-0.1c0.3-0.1,0.5-0.1,0.8-0.2l2.7-0.6c0.1,0,0.2,0,0.4-0.1
	c0.1,0,0.3-0.1,0.4-0.1c1.2-0.2,2.3-0.4,3.5-0.7h0.2c0.2,0,0.3-0.1,0.5-0.1c0.9-0.2,1.9-0.3,2.8-0.5c0.4-0.1,0.7-0.1,1.1-0.2
	c0.8-0.1,1.6-0.3,2.4-0.4c0.1,0,0.3,0,0.4-0.1c0.1,0,0.3,0,0.4-0.1h0.2c0.8-0.1,1.6-0.2,2.4-0.4h0.1c0.1,0,0.3,0,0.4-0.1
	c0.1,0,0.3,0,0.4-0.1c1.1-0.2,2.2-0.3,3.4-0.5h0.1c1-0.1,2.1-0.3,3.1-0.4c0.2,0,0.4-0.1,0.6-0.1h0.3c0.8-0.1,1.6-0.2,2.3-0.3
	c0.3,0,0.7-0.1,1-0.1c0.8-0.1,1.5-0.2,2.3-0.3h0.3c0.2,0,0.4,0,0.5-0.1c2.1-0.2,4.1-0.4,6-0.6h0.7c0.7-0.1,1.5-0.1,2.2-0.2
	c0.3,0,0.6,0,0.8-0.1c0.7-0.1,1.4-0.1,2.1-0.1h0.7c0.8-0.1,1.6-0.1,2.4-0.1h0.3c0.9,0,1.7-0.1,2.6-0.1h0.5c0.7,0,1.3-0.1,2-0.1h11
	c0.5,0,1,0,1.5,0.1h0.1c0.4,0,0.8,0,1.2,0.1h0.3c0.3,0,0.5,0,0.8,0.1h0.3c0.3,0,0.6,0.1,0.9,0.1c4.4,0.7,7.1,1.8,7.1,3.4
	c0,3-4.8,7.1-11.6,11.5c20.7,0.9,40.1,2.1,58,3.6c-6.2-6.9-12.1-14.2-17.6-21.7C308.9,304.5,308.7,302.2,308.6,299.9L308.6,299.9z
	 M41.4,286.8h0.3c0.6,0,1.1-0.1,1.7-0.1c0.6,0,1.3,0,2,0.1c1.1,1.2,2.1,2.5,3.1,3.7c0.4-0.5,0.8-0.9,1.1-1.4c-1.8-4.5-4-9.2-6.8-14
	c0.1,1.6,0.5,3.2,1,4.6c-5.9-9.5-12.4-13.4-18.3-13.6h-1.2c-0.1,0-0.3,0.1-0.4,0.1h-0.4c-0.1,0-0.2,0.1-0.3,0.1
	c-0.1,0-0.3,0.1-0.4,0.2c0,0-0.1,0-0.1,0.1c-0.1,0-0.1,0-0.2,0.1c-0.1,0-0.2,0.1-0.3,0.1c-0.2,0.1-0.3,0.2-0.5,0.3
	c0,0-0.1,0-0.1,0.1c-0.1,0-0.1,0.1-0.2,0.1c-0.1,0.1-0.2,0.1-0.3,0.2c-0.1,0.1-0.3,0.2-0.4,0.3l-0.1,0.1l-0.1,0.1
	c-0.1,0.1-0.2,0.2-0.3,0.2l-0.4,0.4l-0.1,0.1l-0.1,0.1l-0.3,0.3c-0.1,0.2-0.3,0.3-0.4,0.5l-0.1,0.1c0,0.1-0.1,0.1-0.1,0.2
	c-0.1,0.1-0.2,0.2-0.2,0.3c-0.1,0.2-0.2,0.4-0.4,0.5c0,0.1-0.1,0.1-0.1,0.2s-0.1,0.1-0.1,0.2c-0.1,0.1-0.1,0.2-0.2,0.3l-0.3,0.6
	c0,0.1-0.1,0.1-0.1,0.2s-0.1,0.1-0.1,0.2c-0.1,0.1-0.1,0.2-0.2,0.3c-0.1,0.2-0.2,0.5-0.3,0.7c0,0.1-0.1,0.1-0.1,0.2
	s-0.1,0.1-0.1,0.2c-0.1,0.1-0.1,0.3-0.2,0.4l-0.3,0.9v0.1c0,0.1-0.1,0.2-0.1,0.2c0,0.1-0.1,0.3-0.1,0.4c-0.1,0.3-0.1,0.6-0.2,0.8
	c0,0.1,0,0.1-0.1,0.2c0,0.1,0,0.2-0.1,0.3c0,0.1-0.1,0.3-0.1,0.4c-0.1,0.3-0.1,0.6-0.2,0.9v0.5c0,0.1,0,0.3-0.1,0.4
	c0,0.3-0.1,0.7-0.1,1v2.9c0,0.7,0,1.4,0.1,2c2.9-3.2,6.1-6,9-6.8c0.5-0.1,0.9-0.3,1.4-0.4c0.1,0,0.2-0.1,0.4-0.1h0.4
	c0.2,0,0.4-0.1,0.6-0.1h0.8c0.2,0,0.3,0,0.5-0.1h1.5c0.5,0,1,0,1.5,0.1h0.4c0.5,0.1,1,0.2,1.6,0.3h0.2c0.5,0.1,0.9,0.3,1.4,0.4
	c0.1,0,0.3,0.1,0.4,0.1l1.5,0.6h0.1c0.5,0.2,0.9,0.5,1.4,0.7c0.1,0.1,0.2,0.1,0.4,0.2c0.5,0.3,0.9,0.6,1.4,0.9s0.9,0.6,1.3,1
	c0.1,0,0.1,0.1,0.2,0.1s0.1,0.1,0.2,0.1c0.4,0.3,0.9,0.7,1.3,1.1c-0.7-0.3-1.3-0.6-2-0.9s-1.3-0.5-2-0.7h-0.1
	c-0.6-0.2-1.3-0.3-1.9-0.4h-0.2c-0.6-0.1-1.3-0.1-1.9-0.1h-1c-0.2,0-0.3,0-0.5,0.1c-0.1,0-0.3,0-0.4,0.1c-0.1,0-0.3,0.1-0.4,0.1
	h-0.2c-0.1,0-0.2,0-0.3,0.1c-0.1,0-0.3,0.1-0.4,0.1h-0.2c-0.1,0-0.2,0.1-0.3,0.1c-0.2,0.1-0.3,0.1-0.5,0.2h-0.1
	c-0.1,0-0.2,0.1-0.3,0.1c-0.1,0.1-0.3,0.1-0.4,0.2l-0.1,0.1c0,0-0.1,0-0.1,0.1c-0.1,0-0.1,0.1-0.2,0.1l-0.6,0.3h-0.1l-0.1,0.1
	c-0.1,0-0.1,0.1-0.2,0.1c-0.3,0.2-0.6,0.4-0.9,0.7c-4.1,3.4-6.1,12.1-1.3,19.5c0.4-2.5,1.3-5.3,3-8.3c2.2-3.7,5.6-6.5,9-7.5
	c0.7-0.2,1.3-0.3,1.9-0.5c0.2,0,0.3-0.1,0.5-0.1c0.5-0.1,0.9-0.1,1.4-0.2C41.3,286.8,41.3,286.8,41.4,286.8L41.4,286.8z M37.5,276.6
	l-0.1-0.1c-0.5-0.2-1.1-0.5-1.7-0.7c-0.2-0.1-0.3-0.1-0.4-0.1c-0.6-0.2-1.1-0.4-1.6-0.5h-0.2c-0.6-0.1-1.2-0.2-1.9-0.3
	c-0.2,0-0.3,0-0.5-0.1c-0.6-0.1-1.1-0.1-1.7-0.1h-1.8c-0.2,0-0.4,0-0.6,0.1h-0.5c-0.1,0-0.3,0-0.4,0.1c-0.3,0-0.5,0.1-0.8,0.1H25
	c-0.2,0-0.3,0.1-0.5,0.1c-0.5,0.1-1.1,0.3-1.6,0.4c-1.5,0.4-3.1,1.3-4.8,2.5v-0.1c0-0.1,0.1-0.2,0.1-0.3v-0.3
	c0.1-0.2,0.1-0.5,0.2-0.7c0-0.1,0-0.1,0.1-0.2c0-0.1,0.1-0.2,0.1-0.3V276c0.1-0.2,0.1-0.5,0.2-0.7c0-0.1,0.1-0.2,0.1-0.2l0.1-0.2
	l0.1-0.1v-0.1c0.1-0.2,0.1-0.4,0.2-0.5c0-0.1,0.1-0.1,0.1-0.2s0.1-0.2,0.1-0.3l0.1-0.2c0.1-0.2,0.2-0.3,0.3-0.5
	c0-0.1,0.1-0.1,0.1-0.2c0.1-0.1,0.1-0.2,0.2-0.2l0.1-0.1v-0.1c0.1-0.1,0.2-0.3,0.3-0.4c0-0.1,0.1-0.1,0.1-0.2l0.2-0.2l0.1-0.1
	l0.3-0.3l0.1-0.1l0.1-0.1l0.2-0.2l0.2-0.2l0.1-0.1l0.2-0.2l0.1-0.1c0.1-0.1,0.2-0.1,0.2-0.2c0,0,0.1,0,0.1-0.1
	c0.1,0,0.2-0.1,0.2-0.1c0.1-0.1,0.2-0.1,0.2-0.1h0.1c0.1,0,0.2-0.1,0.2-0.1l0.1-0.1c0.1,0,0.1,0,0.2-0.1h0.1c0.1,0,0.2,0,0.2-0.1
	h0.9c4.4,0.1,8.7,2.7,12.7,7.7C37.8,276.7,37.6,276.7,37.5,276.6L37.5,276.6z M36.6,284.7c-4.2,1.1-8.2,4.4-10.8,8.8
	c-0.1,0.1-0.1,0.2-0.2,0.4c0-3.4,1.3-6.3,3-7.7c0.2-0.2,0.5-0.4,0.7-0.5h0.1c0.1,0,0.1-0.1,0.2-0.1h0.1c0.1-0.1,0.2-0.2,0.4-0.2h0.2
	l0.1-0.1l0.2-0.1c0.1,0,0.2-0.1,0.3-0.1H31l0.2-0.1c0.1,0,0.2-0.1,0.3-0.1h0.3c0.1,0,0.2-0.1,0.3-0.1h0.3c0.1,0,0.2,0,0.3-0.1h1.6
	c0.5,0,1,0,1.5,0.1h0.1c0.4,0.1,0.8,0.2,1.3,0.3C36.9,284.6,36.8,284.6,36.6,284.7L36.6,284.7z M85.4,208.3c-0.3,0-0.6,0-0.9,0.1
	c0.1,0.3,0.2,0.6,0.3,0.8c0.1,0.3,0.2,0.5,0.2,0.8c0.1,0.3,0.2,0.7,0.2,1v0.2h1.1c0.4,0,0.8,0,1.1,0.1c2.2,0.3,5.5,1.3,7.6,4.3
	l1.5-3c-2.5-2.7-5.9-3.9-8.6-4.3c-0.5-0.1-1-0.1-1.6-0.1L85.4,208.3C85.5,208.3,85.4,208.3,85.4,208.3L85.4,208.3z M338.1,248.9
	h-1.9c-0.3,0-0.6,0-0.9,0.1h-0.1c-0.2,0-0.4,0-0.6,0.1c-0.3,0-0.6,0.1-0.9,0.1h-0.1c-0.2,0-0.4,0.1-0.6,0.1c-0.3,0-0.6,0.1-0.9,0.2
	h-0.2c-0.2,0-0.3,0.1-0.5,0.1c-0.3,0.1-0.6,0.1-1,0.2c-0.1,0-0.2,0-0.3,0.1c-0.1,0-0.3,0.1-0.4,0.1c-0.3,0.1-0.5,0.1-0.8,0.2h-0.3
	c-0.2,0.1-0.5,0.1-0.7,0.2c-0.3,0.1-0.6,0.2-0.8,0.3c-0.1,0-0.2,0.1-0.2,0.1c-0.1,0-0.2,0.1-0.2,0.1c-0.1,0-0.2,0.1-0.4,0.1
	c-0.5,0.2-1.1,0.4-1.6,0.6c2-2.1,4.1-4,6.3-5.2c0.4-0.3,0.8-0.5,1.2-0.7c0.1-0.1,0.3-0.1,0.4-0.2c0.3-0.1,0.6-0.3,0.9-0.4
	c0.2-0.1,0.3-0.1,0.5-0.2l0.9-0.3h0.1c0.1,0,0.2-0.1,0.4-0.1h0.2c-0.3-0.9-0.6-1.9-1-2.8c-0.1,0-0.2,0.1-0.4,0.1H334
	c-0.3,0.1-0.7,0.2-1.1,0.4c-0.2,0.1-0.4,0.1-0.6,0.2c-0.3,0.1-0.7,0.3-1,0.5l-0.1,0.1c-0.1,0.1-0.2,0.1-0.4,0.2
	c-0.5,0.3-0.9,0.5-1.3,0.8c-0.9,0.5-1.9,1.1-2.9,1.9c1.6-3.3,3.4-6,5.4-8.3l0.1-0.1c-0.6-0.8-1.2-1.6-1.9-2.4
	c-0.2,0.2-0.3,0.4-0.5,0.5c-3.5,4-5.9,8.7-7.6,12.7c1.2-5.2,2.3-11.2,2.6-15c0-0.8,0.1-1.7,0-2.7c-1-0.5-2-1-3.1-1.4
	c0.2,1.4,0.2,2.7,0.1,3.9c-0.1,2.2-0.6,5.3-1.3,9.1c-1.4-5.2-4.1-9.9-8-13.9l-0.6-0.6c-0.7,0-1.4,0.1-2.1,0.1h-0.1
	c-0.6,0.1-1.3,0.2-2,0.3c0.2,0.1,0.4,0.3,0.6,0.4c0.1,0.1,0.2,0.2,0.3,0.2l0.1,0.1c0.6,0.5,1.1,1,1.7,1.5c5.9,6,7.8,12.8,8.2,18.1
	c-0.2-0.4-0.5-0.8-0.7-1.2c0-0.1-0.1-0.1-0.1-0.2s-0.1-0.1-0.1-0.2c-0.2-0.3-0.3-0.6-0.5-0.8c-0.1-0.1-0.1-0.2-0.2-0.2
	c0-0.1-0.1-0.1-0.1-0.2c-0.2-0.3-0.3-0.5-0.5-0.8c-0.1-0.2-0.2-0.3-0.4-0.5s-0.4-0.5-0.6-0.7c-0.1-0.1-0.2-0.3-0.4-0.4
	c-0.2-0.2-0.4-0.5-0.6-0.7l-0.1-0.1c-0.1-0.1-0.2-0.2-0.3-0.4c-0.2-0.2-0.4-0.5-0.7-0.7l-0.1-0.1l-0.1-0.1l-0.3-0.3
	c-0.4-0.3-0.7-0.7-1.1-1l-0.1-0.1c0,0-0.1,0-0.1-0.1l-1.2-0.9c-0.1-0.1-0.2-0.1-0.2-0.2c-0.1-0.1-0.2-0.1-0.2-0.2
	c-0.3-0.2-0.6-0.4-0.8-0.6c-0.2-0.1-0.3-0.2-0.5-0.3c-0.3-0.2-0.5-0.3-0.8-0.5l-0.6-0.3c-0.3-0.1-0.6-0.3-0.9-0.4
	c-0.2-0.1-0.4-0.2-0.6-0.2l-0.9-0.3h-0.1c-0.2,0-0.3-0.1-0.5-0.1c-0.3-0.1-0.7-0.1-1.1-0.2h-0.2c-0.1,0-0.2,0-0.4-0.1
	c-0.4,0-0.8-0.1-1.2-0.1c-0.5,0.9-1,1.9-1.5,3c0.4,0,0.7-0.1,1.1-0.1s0.9,0,1.4,0.1h0.4c0.3,0,0.6,0.1,0.8,0.1
	c0.1,0,0.2,0.1,0.4,0.1h0.1c0.3,0.1,0.5,0.1,0.7,0.2c0.2,0.1,0.3,0.1,0.5,0.2s0.5,0.2,0.7,0.3h0.1c0.2,0.1,0.3,0.1,0.4,0.2
	c0.2,0.1,0.5,0.2,0.7,0.4h0.1c0.1,0.1,0.2,0.1,0.3,0.2c0.3,0.2,0.5,0.3,0.7,0.5c0.1,0.1,0.2,0.1,0.3,0.2c0.1,0,0.1,0.1,0.1,0.1
	c0.3,0.3,0.7,0.5,1,0.8h0.1c0.4,0.3,0.7,0.6,1,0.9l0.2,0.2l0.1,0.1l0.6,0.6c0.1,0.1,0.2,0.2,0.2,0.3v0.1l0.1,0.1
	c0.2,0.2,0.4,0.4,0.5,0.6l0.3,0.4c0.2,0.2,0.3,0.4,0.5,0.6h-0.2c-0.5-0.2-0.9-0.5-1.4-0.7l-0.1-0.1h-0.2l-1.5-0.6
	c-0.1,0-0.1,0-0.2-0.1l-1.8-0.6h-0.3c-0.7-0.2-1.4-0.3-2.1-0.4h-0.1c-0.8-0.1-1.5-0.1-2.3-0.2h-1.6c-0.3,0-0.5,0-0.7,0.1h-0.5
	c-0.2,0-0.5,0.1-0.7,0.1c-0.1,0-0.2,0-0.3,0.1H299c-0.2,0-0.5,0.1-0.7,0.2l-0.8,0.2c-0.4,1.1-0.8,2.4-1.1,3.6c0.1,0,0.2-0.1,0.3-0.1
	c0.1,0,0.1-0.1,0.2-0.1h0.1c0.2-0.1,0.5-0.2,0.7-0.3c0.1,0,0.3-0.1,0.4-0.1c0.2-0.1,0.4-0.1,0.6-0.2c0.1,0,0.3-0.1,0.4-0.1
	c0.2,0,0.4-0.1,0.6-0.1c0.1,0,0.2,0,0.4-0.1c0.2,0,0.4-0.1,0.6-0.1h0.4c0.2,0,0.4,0,0.6-0.1h1.3c0.7,0,1.4,0,2,0.1h0.2l1.8,0.3h0.2
	c0.6,0.1,1.1,0.3,1.6,0.5h0.2c0.5,0.2,1.1,0.4,1.5,0.6c0.5,0.2,0.9,0.4,1.3,0.7h0.2c0.4,0.2,0.7,0.4,1,0.6h0.2
	c0.3,0.2,0.6,0.4,0.8,0.5c0.3,0.2,0.5,0.3,0.7,0.5c1.2,0.8,2.2,1.8,3,2.9c-5.7,4.5-12.7,13-16.3,21.2c-1.3,3-2.3,5.8-3.1,8.7
	c0.8,1,1.5,2,2.3,2.9c0.9-3.4,2-6.9,3.6-10.5c2.5-5.6,6.4-11,10.2-15.1l-0.1,0.1c-3.1,4.9-7.1,15-8.3,25.8c-0.2,1.8-0.3,3.7-0.3,5.8
	l3,3.6c-0.1-3.3,0-6.4,0.3-9c1.3-11,5.3-20.6,7.9-24.6c1.5-2.4,2.6-4,4.3-5.8c1.1-0.2,2.2-0.4,3.2-0.5h0.1c1-0.1,2-0.2,3-0.2h1.5
	c0.3,0,0.7,0,1.1,0.1h0.4c0.4,0,0.8,0.1,1.2,0.2h0.4c0.5,0.1,1,0.2,1.6,0.3c11.6,2.5,16.8,12.9,17.6,20.3
	C360.9,262.2,351.7,249.5,338.1,248.9L338.1,248.9z M351.7,268.3c-3-6.8-8.9-12.8-17.7-14.7l-1.8-0.3h-0.4c-0.4-0.1-0.9-0.1-1.3-0.2
	H330c0.1,0,0.2-0.1,0.3-0.1c0.1,0,0.2,0,0.3-0.1h0.1c0.1,0,0.2-0.1,0.3-0.1c0.3-0.1,0.6-0.1,0.9-0.2c0.2,0,0.3-0.1,0.4-0.1h0.3
	c0.3-0.1,0.5-0.1,0.8-0.1c0.2,0,0.4-0.1,0.5-0.1h0.1c0.3,0,0.6-0.1,0.8-0.1h0.7c0.3,0,0.5,0,0.8-0.1h1.5c5.8,0.2,10.6,3,12.8,7.4
	C352.2,262,352.5,265.1,351.7,268.3L351.7,268.3z M360,241.5c-0.1-0.2-0.1-0.3-0.1-0.4c0-0.1,0-0.1-0.1-0.2c0-0.1-0.1-0.2-0.1-0.4
	c0-0.1-0.1-0.3-0.1-0.4c-0.1-0.1-0.1-0.3-0.2-0.4c0,0,0-0.1-0.1-0.1c-0.1-0.1-0.1-0.3-0.2-0.4l-0.3-0.6c-0.1-0.1-0.1-0.3-0.2-0.4
	c0-0.1-0.1-0.1-0.1-0.2c-0.1-0.1-0.1-0.2-0.2-0.3v-0.1c-0.1-0.1-0.1-0.3-0.2-0.4c-0.1-0.2-0.2-0.4-0.3-0.5v-0.1
	c-0.1-0.1-0.1-0.2-0.2-0.3c-0.1-0.2-0.2-0.3-0.3-0.5c-0.1-0.1-0.2-0.3-0.3-0.4c-0.1-0.2-0.3-0.3-0.4-0.5l-0.1-0.1
	c-0.1-0.1-0.1-0.2-0.2-0.2c-0.1-0.2-0.3-0.3-0.4-0.5c-0.1-0.1-0.2-0.2-0.3-0.4c0-0.1-0.1-0.1-0.2-0.2l-0.3-0.3
	c-0.1-0.1-0.2-0.2-0.4-0.3c-0.2-0.1-0.3-0.3-0.5-0.4c-0.1-0.1-0.3-0.2-0.4-0.3c-0.2-0.1-0.3-0.3-0.5-0.4c-0.1-0.1-0.3-0.2-0.4-0.3
	c-0.2-0.1-0.4-0.2-0.5-0.3c0,0-0.1,0-0.1-0.1c-0.1-0.1-0.2-0.1-0.4-0.2c-0.1,0-0.2-0.1-0.3-0.1c-0.1-0.1-0.2-0.1-0.3-0.2
	c-0.2-0.1-0.3-0.2-0.5-0.2l-0.6-0.3h-0.1c-0.2-0.1-0.3-0.1-0.5-0.2s-0.4-0.1-0.6-0.2c-0.2-0.1-0.4-0.1-0.6-0.2c-0.1,0-0.1,0-0.2-0.1
	c-0.1,0-0.3-0.1-0.4-0.1c-0.2,0-0.4-0.1-0.6-0.1s-0.5-0.1-0.7-0.1s-0.5-0.1-0.7-0.1s-0.5-0.1-0.7-0.1h-2.8c-1.2,0-2.3,0.3-3.5,0.7
	c0.5,0.9,0.8,1.8,1.1,2.8c0.9-0.3,1.7-0.4,2.5-0.5h2.4c0.2,0,0.4,0,0.7,0.1c0.2,0,0.4,0.1,0.5,0.1c0.2,0,0.4,0.1,0.6,0.1
	s0.4,0.1,0.5,0.1s0.3,0.1,0.4,0.1h0.2c0.2,0,0.3,0.1,0.5,0.2s0.3,0.1,0.5,0.2c0.1,0,0.2,0.1,0.4,0.2h0.1c0.2,0.1,0.3,0.1,0.5,0.2
	c0.1,0.1,0.3,0.1,0.4,0.2c0.1,0,0.2,0.1,0.2,0.1l0.2,0.1c0.1,0,0.2,0.1,0.2,0.1h0.1c0.1,0.1,0.3,0.2,0.4,0.3s0.2,0.2,0.4,0.2
	c0.1,0.1,0.3,0.2,0.4,0.3s0.2,0.2,0.3,0.2l0.1,0.1c0.1,0.1,0.3,0.2,0.4,0.3l0.3,0.3l0.1,0.1l0.2,0.2l0.1,0.1l0.3,0.3
	c0.1,0.1,0.2,0.3,0.4,0.4c0,0.1,0.1,0.1,0.1,0.2l0.1,0.1l0.1,0.1c0.1,0.1,0.2,0.3,0.3,0.4c0.1,0.1,0.1,0.2,0.2,0.2
	c0.1,0.1,0.2,0.3,0.3,0.4c0.1,0.1,0.1,0.2,0.1,0.2v0.1c0.1,0.1,0.2,0.3,0.2,0.4l0.2,0.3v0.1l0.1,0.1l0.1,0.1l0.1,0.1
	c0.1,0.1,0.1,0.2,0.2,0.3c0.1,0.2,0.1,0.3,0.2,0.4l0.1,0.2v0.1l0.1,0.2c0,0.1,0.1,0.2,0.2,0.4c0,0.1,0,0.1,0.1,0.2v0.2l0.1,0.3v0.1
	c0,0.1,0,0.1,0.1,0.2l0.1,0.2v0.1c0,0.1,0.1,0.2,0.1,0.3l2.9-0.8C360.1,241.8,360.1,241.7,360,241.5L360,241.5z M143.8,72.1
	C143.8,72.1,143.8,72,143.8,72.1v-0.2c0-0.6-0.1-1.4-0.3-1.7c-0.1-0.1-0.1-0.1-0.2-0.1c0,0-0.1,0-0.1,0.1h-0.1l-0.2,0.2l-0.1,0.1
	l-0.1,0.1l-0.2,0.2V71c0,0.1-0.1,0.1-0.1,0.2c-0.1,0.2-0.3,0.4-0.4,0.6c-0.1,0.1-0.2,0.3-0.2,0.4c-0.1,0.2-0.2,0.3-0.3,0.5l-1.3,2.1
	v0.1c-0.1,0.2-0.2,0.4-0.4,0.6c-3.6,5.8-10.2,17.2-10.2,17.2c-0.3,0.5-0.6,1.1-0.9,1.5c-0.2,0.4-0.5,0.8-0.7,1.2
	c-0.2,0.4-3,5.1-3.6,6.1l-1,1.8c-0.1,0.1-0.1,0.2-0.2,0.3c-0.2,0.4-0.5,0.9-0.8,1.3c-0.3,0.5-0.5,1-0.5,1.2v0.1
	c0.1,0.1,0.1,0.1,0.2,0.1h1.2c0.8-0.1,1.6-0.3,2.3-0.4c0.1,0,0.2,0,0.4-0.1h0.3c1-0.1,2-0.3,3-0.4c1.8-0.2,3.5-0.4,5.2-0.5
	c0.2,3.3,0.4,6.7,0.5,10.1c0,0.8,0.1,1.5,0.1,2.3h0.1c0.9-0.3,1.8-0.5,2.8-0.8c0-0.5-0.1-1.1-0.1-1.6v-0.2c-0.2-3.4-0.4-6.7-0.5-10
	l-0.2-3.1l-3.1,0.3c-1.7,0.1-3.5,0.3-5.3,0.5l-2.1,0.3c0.9-1.5,3.2-5.4,3.4-5.7c0.2-0.4,0.5-0.8,0.7-1.2c0.3-0.5,0.6-1,0.9-1.6
	c0.1-0.1,5.4-9.2,9.1-15.2v0.8c0.2,4.5,0.5,9.2,0.7,13.5l0.2,3.3l3.3-0.5c2.6-0.4,5.3-0.8,8.1-1.2c-0.3,0.5-0.7,1.3-1.4,2.4
	c-2.5,4.3-6.6,11.3-10.8,18.6c1.2-0.2,2.5-0.5,3.8-0.7c3.1-5.5,6.4-11.2,9.5-16.4c1.6-2.8,1.9-3.2,1.9-3.2s0.1-0.1,0.1-0.2
	c0.2-0.3,0.4-0.7,0.7-1.1c0.5-0.8,1.1-1.6,1.3-2.2c0.1-0.2,0.2-0.5,0.1-0.6v-0.1c-0.1-0.2-0.4-0.2-0.7-0.2h-1.1l-1.2,0.2
	c-3.6,0.5-7.3,1-10.8,1.6c-0.2-4.5-0.5-9.5-0.7-14.2c-0.1-1.7-0.2-3.4-0.2-5L143.8,72.1L143.8,72.1z M245.9,82.3l-12.3,13.5
	c-0.2,0.3-0.5,0.5-0.8,0.8l-0.1,0.1c-0.5,0.5-1.1,1.1-1.5,1.6s-0.7,1.1-0.5,1.4c0.2,0.4,0.9,0.7,1.8,0.8c2,0.2,4,0.4,5.7,0.6
	c2.5,0.2,4.5,0.4,5.2,0.5c-0.4,3.5-1.9,11.4-3.4,19.4c-0.4,1.9-0.7,3.8-1.1,5.7c-0.1,0.6-0.1,1.1,0.2,1.3h0.3c0.1,0,0.1,0,0.2-0.1
	c0,0,0.1,0,0.1-0.1c0.1,0,0.1-0.1,0.2-0.2l0.1-0.1l0.3-0.3c0.5-0.5,1-1.2,1.5-1.8c0.2-0.2,0.3-0.4,0.5-0.6l8.7-10.4l13.2-15.9
	l0.1-0.1l0.2-0.2c0.1-0.1,0.2-0.3,0.3-0.4c0.3-0.3,0.5-0.6,0.8-0.9c0.8-1,1.4-2,1.3-2.6c-0.1-0.4-0.7-0.6-1.4-0.7h-0.3
	c-3.2-0.4-6.7-0.9-10.2-1.4c0.3-3.2,1.2-8.8,2.1-14.5l0.4-3.1c0-0.2,0.1-0.4,0.1-0.7c0-0.3,0.1-0.5,0.1-0.8c0.1-0.7,0.3-1.4,0.3-2
	c0-0.5,0-1-0.1-1.1l-0.1-0.1h-0.2c-0.1,0-0.1,0.1-0.2,0.1h-0.1c-0.1,0-0.1,0.1-0.2,0.2H257c-0.1,0.1-0.2,0.2-0.4,0.3
	c-0.5,0.5-1.2,1.2-1.7,1.8c-0.2,0.2-0.4,0.5-0.6,0.7l-5.8,6.4L245.9,82.3L245.9,82.3z M254,77.9c-0.9,5.9-1.7,10.9-2,13.9l-0.3,3
	l3,0.3c2.6,0.3,5.3,0.7,7.8,1v0.1l-0.2,0.2l-0.1,0.1v0.1c0,0.1-0.1,0.1-0.1,0.2l-13.2,15.9l-5.2,6.3c1.3-7.2,2.5-13.7,2.9-16.9
	l0.3-3.1l-3.1-0.2c-0.7-0.1-2.8-0.3-5.2-0.5c-0.8-0.1-1.8-0.2-2.7-0.3l0.1-0.1l12.3-13.5l2.5-2.8L254,77.9L254,77.9z M208.8,35.6
	c0-0.5,0-1,0.1-1.5l0.1-2.7v-0.2c0-1,0.1-2.4-0.2-2.8c-0.1-0.1-0.1-0.1-0.2-0.1h-0.2c0,0-0.1,0-0.1,0.1h-0.1c0,0-0.1,0-0.1,0.1h-0.2
	c0,0-0.1,0-0.1,0.1l-0.1,0.1l-0.1,0.1l-0.1,0.1l-0.1,0.1l-0.1,0.1c-0.1,0.1-0.1,0.2-0.2,0.3l-0.1,0.1l-0.1,0.1
	c-0.1,0.1-0.2,0.2-0.2,0.3l-0.1,0.1l-0.1,0.1c-0.1,0.2-0.2,0.3-0.4,0.5s-0.4,0.5-0.6,0.7c-0.1,0.2-0.3,0.4-0.4,0.5l-2.3,3.1
	c-0.2,0.3-0.4,0.5-0.6,0.8C204.4,35.8,206.6,35.7,208.8,35.6L208.8,35.6z"/>
<path class="st0" d="M361.3,248.5v-2.2c0-0.1,0-0.3-0.1-0.4c0-0.1,0-0.2-0.1-0.4V245c0-0.2-0.1-0.3-0.1-0.5v-0.1
	c0-0.1,0-0.2-0.1-0.3c0-0.1-0.1-0.2-0.1-0.4v-0.2c0-0.1-0.1-0.3-0.1-0.4c0-0.2-0.1-0.4-0.2-0.6c0-0.1-0.1-0.3-0.1-0.4V242l-2.9,0.9
	l0.1,0.4c0,0.2,0.1,0.3,0.1,0.5c0,0.1,0,0.2,0.1,0.3v0.2c0,0.1,0,0.2,0.1,0.3v0.3c-3.5-2.2-6.8-3.3-9.4-3.9
	c-0.2-0.1-0.4-0.1-0.7-0.2h-0.3c-0.1,0-0.3-0.1-0.5-0.1h-0.3c-0.2,0-0.4,0-0.6-0.1h-0.2c-0.3,0-0.6-0.1-0.9-0.1h-5.2
	c-0.2,1-0.6,2.1-1,3.1c0.1,0,0.3,0,0.4-0.1h5.5c0.3,0,0.6,0,0.8,0.1h0.2c0.2,0,0.4,0,0.5,0.1h0.2c0.1,0,0.3,0,0.4,0.1h0.2
	c0.2,0,0.3,0.1,0.5,0.1c3.2,0.8,8.6,2.5,13.5,7.6c0-0.2,0-0.3,0.1-0.5v-2.2C361.3,248.7,361.3,248.6,361.3,248.5L361.3,248.5z
	 M54,264.8l-0.1,0.1c-0.1,0.1-0.2,0.1-0.3,0.2c-0.6,0.3-1,0.6-1.5,0.9c-1.2,0.8-2.2,1.7-3,2.6c0.7,0.7,1.4,1.4,2.1,2.2
	c0.7-0.8,1.6-1.6,2.7-2.4c0.4-0.3,0.8-0.5,1.2-0.7c0.1-0.1,0.3-0.1,0.4-0.2c0.3-0.2,0.6-0.3,0.9-0.4h0.1c0.1,0,0.2-0.1,0.4-0.1
	c0.4-0.1,0.7-0.3,1.1-0.4c0.1,0,0.1,0,0.2-0.1c0.1,0,0.1,0,0.2-0.1c0.5-0.1,1-0.3,1.5-0.4h0.3c0.4-0.1,0.8-0.2,1.3-0.2H62
	c0.4,0,0.7-0.1,1.1-0.1h2.1c0.5,0,1,0.1,1.4,0.2c0,0,0-0.1,0.1-0.1c-0.2-0.6-0.5-1.1-0.7-1.6c-0.1-0.1-0.1-0.2-0.2-0.3
	c0-0.1-0.1-0.1-0.1-0.2c-0.2-0.3-0.4-0.7-0.6-0.9c-0.1-0.1-0.2-0.2-0.3-0.4l-0.1-0.1c-0.2-0.2-0.4-0.5-0.7-0.7
	c-0.2-0.1-0.3-0.3-0.5-0.4c-0.2-0.2-0.5-0.4-0.8-0.5l-0.6-0.3c-0.3-0.1-0.6-0.3-0.9-0.4c-0.2-0.1-0.4-0.1-0.6-0.2
	c-0.3-0.1-0.7-0.2-1-0.2h-0.2c-0.2,0-0.3-0.1-0.5-0.1c-0.4,0-0.8-0.1-1.2-0.1H57c-0.6,0-1.2,0-1.9,0.1c-4.9,0.4-7.8,3.1-9.1,4.6
	l-0.6,0.9c0.7,0.7,1.5,1.4,2.2,2.1c0.2-0.4,0.5-0.8,0.7-1.2c1.3-1.4,3.6-3.2,7-3.5c0.6,0,1.1-0.1,1.6-0.1h0.6c0.3,0,0.7,0,1,0.1
	c0.1,0,0.2,0,0.3,0.1H59c0.2,0,0.5,0.1,0.7,0.2c0.1,0,0.3,0.1,0.4,0.1h0.1c0.1,0,0.1,0.1,0.2,0.1c-0.2,0-0.5,0.1-0.8,0.1
	c-0.1,0-0.2,0-0.3,0.1c-0.6,0.1-1.2,0.3-1.7,0.4c-0.1,0-0.2,0.1-0.3,0.1h-0.1c-0.5,0.2-0.9,0.3-1.3,0.4c-0.1,0.1-0.3,0.1-0.4,0.2
	h-0.1C54.8,264.4,54.5,264.6,54,264.8L54,264.8z M81.5,293.5c-2.5,3.8-5.1,7.7-7.8,11.4c-0.2,0.3-0.5,0.7-0.8,1
	c-0.2,0.3-0.4,0.5-0.6,0.8c-3.8-4.8-8-9.3-12-13.1c-1.1,0.3-2.2,0.7-3.3,1c4.3,3.9,8.9,8.7,13,13.9l2.4,3.1l2.4-3.2
	c0.2-0.2,0.4-0.5,0.5-0.7c0.3-0.4,0.5-0.7,0.8-1.1c2.4-3.4,4.9-7,7.9-11.5l0.5-0.8l-0.1-1c-0.1-1.9-0.3-4-0.5-6.2
	c-1,0.2-1.9,0.5-2.9,0.8C81.2,289.8,81.4,291.7,81.5,293.5L81.5,293.5z M74.7,225.2c-0.6,0.7-1.1,1.8-1.7,2.9c0-0.3,0.1-0.6,0.1-0.9
	c0-0.2,0.1-0.5,0.1-0.7l0.1-0.3v-0.3c0.1-0.4,0.1-0.7,0.2-1.1c0-0.2,0.1-0.4,0.2-0.6l0.1-0.3v-0.2c0.1-0.3,0.2-0.7,0.3-1
	c0.1-0.2,0.2-0.5,0.3-0.7l0.1-0.2c0.1-0.4,0.3-0.8,0.4-1.1s0.2-0.5,0.4-0.8v-0.1c0.2-0.3,0.3-0.7,0.5-1c0.1-0.3,0.3-0.5,0.5-0.8
	l0.6-0.9c0.2-0.2,0.3-0.5,0.5-0.7c0.2-0.3,0.4-0.5,0.6-0.8c0.2-0.2,0.4-0.4,0.5-0.6c0.2-0.2,0.4-0.5,0.7-0.7
	c0.2-0.2,0.4-0.4,0.6-0.5c-0.3-0.3-0.7-0.6-1-0.8c-0.1-0.1-0.2-0.1-0.3-0.2c-0.4-0.3-0.8-0.6-1.2-0.8c-0.1,0-0.1,0.1-0.2,0.1
	l-0.8,0.8c-0.2,0.2-0.4,0.5-0.6,0.7c-0.3,0.3-0.5,0.6-0.7,0.9c-0.2,0.3-0.4,0.5-0.6,0.8s-0.5,0.7-0.7,1s-0.4,0.6-0.5,0.9
	c-0.2,0.4-0.4,0.8-0.6,1.1v0.1c-0.1,0.3-0.3,0.6-0.4,0.9c-0.2,0.4-0.3,0.8-0.5,1.2c0,0.1,0,0.1-0.1,0.2c-0.1,0.3-0.2,0.6-0.3,0.8
	l-0.3,1.2c0,0.1,0,0.1-0.1,0.2c0,0.1-0.1,0.2-0.1,0.3c-0.1,0.2-0.1,0.5-0.2,0.7l-0.3,1.2v0.2c0,0.1,0,0.2-0.1,0.3
	c-0.1,0.3-0.1,0.5-0.1,0.8c-0.1,0.5-0.1,0.9-0.2,1.4v0.6c0,0.2-0.1,0.5-0.1,0.7v1.7c2.7,5.8,5.2,11.8,7.1,18.1l0.9-1.5
	c0.2-0.3,0.3-0.5,0.5-0.8c-1.3-2.5-2.7-5.1-4.2-7.4c0.3-0.2,0.6-0.4,1-0.6c0.1,0,0.2-0.1,0.3-0.1c0.3-0.1,0.6-0.3,0.9-0.4h0.1
	c0,0,0.1,0,0.1-0.1c0.4-0.1,0.8-0.3,1.2-0.4H78c0.4-0.1,0.7-0.2,1.1-0.2h0.4c0.5-0.1,1-0.1,1.4-0.2h1.8c0.3,0,0.5,0,0.8,0.1
	c0.5-0.9,1-1.9,1.6-2.8h-0.4c-0.5-0.1-1.1-0.1-1.8-0.1h-2.2c-0.5,0-1.1,0.1-1.7,0.2h-0.3c-0.1,0-0.2,0-0.4,0.1
	c2.2-1.9,4.7-3.3,6.3-3.7c0.5-0.1,0.9-0.1,1.5-0.2h1.1c0.5-1,1-1.9,1.5-2.9c-0.1,0-0.2,0-0.4-0.1h-2.5c-0.6,0-1.2,0.1-1.9,0.2
	c-3.1,0.7-8,3.8-10.9,7.8c1.1-3.9,2.9-7.6,4-9.1c3.1-4.2,7.7-6.7,12-7.1c0.7-0.1,1.5-0.1,2.2-0.1H93c0.5-1,1-1.9,1.5-2.9
	c-0.3,0-0.6-0.1-0.8-0.1h-0.5c-0.4,0-0.7,0-1-0.1h-0.8c-0.9,0-1.7,0.1-2.5,0.1c-1.1,0.1-2.3,0.4-3.4,0.7v0.5
	c-0.1,0.7-0.2,1.5-0.4,2.2c-0.4-0.7-0.8-1.4-1.2-2c0,0,0-0.1-0.1-0.1C80.2,219.7,77,222.1,74.7,225.2L74.7,225.2z M207.5,46.9
	l-2.4,3.3c-0.2,5.1-0.5,9.8-0.7,14.4l-0.1,3.3l3.3-0.2c3.7-0.2,7.6-0.5,11.8-0.7l2.9-3.1c-5,0.2-10,0.5-14.8,0.8
	c0.3-6,0.6-12.5,0.9-18.9C208.1,46.1,207.8,46.5,207.5,46.9z M195,113.6c8.2-12.2,18.2-26.1,27.1-38.4c0.7-0.9,1.2-1.6,1.6-2.2h-0.3
	c-1-0.1-2.1-0.2-3.2-0.3c-0.2,0.3-0.4,0.5-0.6,0.8c-6.3,8.7-18,24.9-28.1,39.9C192.7,113.4,193.9,113.5,195,113.6z M185.2,82h4.4
	c-0.2,5.2-0.4,10.6-0.7,15.9c-0.2,4.4-0.4,8.8-0.6,13.1c0,0.7-0.1,1.4-0.1,2c0.4,0,0.9,0,1.3,0.1h0.3c0.5,0,0.9,0.1,1.4,0.1V113
	c0-0.7,0.1-1.3,0.1-2c0.2-4.3,0.4-8.6,0.5-13v-0.1c0.2-5.4,0.5-10.8,0.7-16l0.1-3.1h-7.9l-2.1,3C183.5,82,184.3,82,185.2,82z
	 M57.5,219.6l-1.5-0.9c0,0-0.1,0-0.1-0.1h-0.1c-0.4-0.2-0.9-0.4-1.3-0.6c-0.1-0.1-0.2-0.1-0.3-0.1c0,0-0.1,0-0.1-0.1
	c-0.3-0.1-0.7-0.3-1-0.4c-0.2-0.1-0.4-0.1-0.5-0.2c-0.3-0.1-0.7-0.2-1-0.3h-0.1c-0.1,0-0.3-0.1-0.4-0.1c-0.4-0.1-0.8-0.2-1.1-0.2
	h-0.4c-0.5-0.1-1-0.2-1.5-0.2h-0.2c-0.4,0-0.8,0-1.2-0.1h-0.3c-0.6,0-1.1,0-1.6,0.1h-0.2c-0.6,0.1-1.2,0.2-1.7,0.3
	c-0.1,0-0.3,0.1-0.4,0.1c-0.6,0.1-1.1,0.3-1.6,0.5h-0.1c-0.5,0.2-1,0.4-1.5,0.7c0,0-0.1,0-0.1,0.1c-0.1,0-0.1,0.1-0.2,0.1
	c-0.5,0.3-1,0.6-1.4,0.9c-0.1,0-0.1,0.1-0.2,0.1c0,0-0.1,0-0.1,0.1c-0.4,0.3-0.8,0.7-1.2,1l-0.1,0.1l-0.1,0.1
	c-0.4,0.4-0.8,0.8-1.1,1.3l-0.2,0.2c0,0,0,0.1-0.1,0.1c-0.3,0.5-0.7,1-1,1.5c-2,4-2.5,8.6-2.4,12.4c0.1-0.1,0.1-0.2,0.2-0.3
	c1.3-1.5,4.2-4.2,9.1-4.6c0.7-0.1,1.4-0.1,2-0.1H43c0.3,0,0.6,0,0.9,0.1c0.1,0,0.2-0.1,0.3-0.1c0.5-0.1,0.9-0.2,1.4-0.3h0.2
	c0.4-0.1,0.8-0.1,1.1-0.2h0.5c0.3,0,0.6,0,0.9-0.1H51c0.3,0,0.7,0.1,1,0.1h0.4c0.4,0.1,0.8,0.1,1.2,0.2h0.2c0.4,0.1,0.9,0.2,1.3,0.3
	c0.1,0,0.2,0.1,0.3,0.1c0.3,0.1,0.5,0.1,0.8,0.2c0.1,0,0.2,0.1,0.3,0.1c0.2,0.1,0.4,0.1,0.6,0.2c0.1,0,0.2,0.1,0.3,0.1l0.6,0.2
	c0.2,0.1,0.4,0.1,0.6,0.2c0.6,0.2,1.8,0.7,3.4,1.6c-0.3-1.3-0.7-2.6-1-3.9c-0.6-0.3-1.2-0.5-1.6-0.6c-0.1,0-0.3-0.1-0.5-0.1
	l-0.6-0.2l-0.3-0.1h-0.1c-0.2-0.1-0.4-0.1-0.6-0.2l-0.3-0.1c-0.3-0.1-0.6-0.1-0.9-0.2l-0.2-0.1h-0.1c-0.4-0.1-0.9-0.2-1.4-0.3h-0.2
	c-0.4-0.1-0.9-0.2-1.3-0.2c-0.1,0-0.2,0-0.4-0.1h-0.1c-0.4,0-0.7-0.1-1.2-0.1h-3.1c-0.3,0-0.7,0-1,0.1h-0.5c-0.4,0-0.9,0.1-1.3,0.2
	H45c-0.5,0.1-1.1,0.2-1.6,0.4c-0.1,0-0.2,0.1-0.4,0.1h-0.1c-0.4,0.1-0.8,0.2-1.2,0.4c-0.2,0.1-0.4,0.1-0.5,0.2h-0.1
	c-0.4,0.1-0.8,0.3-1.2,0.5l-0.2,0.1c-0.1,0.1-0.2,0.1-0.4,0.2c-0.6,0.3-1.2,0.6-1.7,0.9c-1.4,0.8-2.6,1.7-3.8,2.6
	c0.2-2.5,0.7-5.4,2-8c0.2-0.4,0.4-0.7,0.8-1.2v-0.1l0.1-0.1c0.3-0.4,0.6-0.7,0.9-1l0.1-0.1c0.3-0.3,0.6-0.5,0.9-0.8l0.1-0.1
	c0.3-0.3,0.7-0.5,1.1-0.7l0.1-0.1l0.1-0.1c0.4-0.2,0.8-0.4,1.1-0.5l0.2-0.1c0.4-0.1,0.8-0.3,1.2-0.4h0.1l0.2-0.1
	c0.5-0.1,0.9-0.2,1.4-0.3h0.2c0.4,0,0.9-0.1,1.4-0.1h1.5c0.4,0,0.8,0.1,1.2,0.2h0.3c0.3,0.1,0.6,0.1,1,0.2c0.1,0,0.2,0.1,0.3,0.1
	h0.1l0.9,0.3c0.2,0.1,0.3,0.1,0.5,0.2c0.3,0.1,0.6,0.2,0.9,0.4l0.2,0.1h0.1L53,221c0.4,0.2,0.8,0.4,1.1,0.6c0.1,0,0.1,0.1,0.2,0.1
	c0.4,0.2,0.9,0.5,1.3,0.8c0.1,0,0.1,0.1,0.2,0.1l0.2,0.2l0.9,0.6c0.1,0.1,0.2,0.1,0.3,0.2l0.1,0.1h0.1c0.3,0.2,0.6,0.4,0.8,0.7
	c0.1,0.1,0.3,0.2,0.4,0.4l0.6,0.6c-0.6-1.8-1.2-3.5-1.8-5.3C57.7,219.7,57.6,219.7,57.5,219.6L57.5,219.6z M168.9,82.2L168.9,82.2
	c0,0.1,0,0.2,0.1,0.2c0.1,0.1,0.2,0.1,0.3,0.1h0.6c0.6,0,1.4,0,1.7-0.1c0.7-0.1,1.5-0.1,2.2-0.2l0.3-8.1c-0.3,0.4-0.5,0.6-0.6,0.8
	l-1.9,2.7c-0.1,0.2-0.3,0.4-0.5,0.6c-0.4,0.6-0.9,1.2-1.3,1.8C169.3,81.1,168.8,81.9,168.9,82.2L168.9,82.2z M44.3,252.3H42
	c-0.2,0-0.5,0-0.7,0.1c0.3,1.9,1,3.6,2,4.8c0.6-1.7,1.3-3.3,2.3-4.7C45.1,252.4,44.7,252.3,44.3,252.3L44.3,252.3z M61.4,241
	C61.5,241,61.5,241,61.4,241h0.2c0.2,0,0.3-0.1,0.5-0.1h0.2c0.3,0,0.5-0.1,0.8-0.1h0.5c-0.3-1.6-0.7-3.2-1.1-4.8
	c-0.7-0.2-1.5-0.3-2.2-0.4h-0.4c-0.8-0.1-1.6-0.1-2.3-0.1h-2.1c-0.3,0-0.5,0.1-0.8,0.1h-0.2c-0.2,0-0.3,0-0.5,0.1
	c-0.2,0-0.5,0.1-0.7,0.1h-0.1c-0.2,0-0.4,0.1-0.6,0.1c-0.3,0.1-0.5,0.1-0.8,0.2c-0.1,0-0.1,0-0.2,0.1c-0.1,0-0.3,0.1-0.4,0.1
	c0.2,0.4,0.4,0.9,0.6,1.3c-0.5-0.1-1-0.2-1.5-0.2h-1.7c-0.3,0.1-0.5,0.3-0.8,0.4h-0.1c-0.1,0-0.1,0.1-0.2,0.1s-0.2,0.1-0.2,0.1
	c-0.4,0.3-0.8,0.5-1.2,0.9c-1.5,1.2-3.2,3.5-4.2,5.8c0.2,0,0.4-0.1,0.6-0.1c0.1,0,0.3,0,0.4-0.1c0.5-0.1,1-0.1,1.6-0.1h1
	c0.8-1.4,1.7-2.6,2.6-3.3c0.3-0.2,0.6-0.5,0.9-0.7c0,0,0.1,0,0.1-0.1h0.1l0.1-0.1h0.1l0.6-0.3c0.1,0,0.1-0.1,0.2-0.1l0.2-0.1h0.1
	c0.2-0.1,0.4-0.2,0.5-0.3c0.1,0,0.2-0.1,0.3-0.1h0.4c0.2-0.1,0.3-0.1,0.5-0.2c0.1,0,0.2,0,0.2-0.1h0.1l0.2-0.1
	c0.2-0.1,0.4-0.1,0.7-0.2c0.1,0,0.3-0.1,0.4-0.1h0.3c0.2,0,0.3-0.1,0.5-0.1c0.1,0,0.3,0,0.4-0.1h0.2c0.2,0,0.4-0.1,0.7-0.1h1.7
	c0.7,0,1.4,0,2,0.1c-3.8,1.2-8,3.4-11.6,6.5h0.1c0.1,0,0.3,0.1,0.4,0.1l0.9,0.3h0.2c0.4,0.2,0.7,0.4,1.1,0.6c0.1,0,0.1,0.1,0.2,0.1
	l0.1,0.1c3.2-2.5,6.8-4.2,9.9-5.2C61.1,241.1,61.3,241.1,61.4,241L61.4,241z M60.8,272.8h-0.4c-0.4,0-0.7,0-1-0.1h-0.2
	c-0.5,0-1.1,0-1.6,0.1c-0.1,0-0.3,0-0.4,0.1c-0.5,0.1-1,0.2-1.4,0.4c-0.5,0.2-1.1,0.5-1.7,0.8c0.7,0.8,1.3,1.5,2,2.3
	c0.3-0.1,0.5-0.2,0.7-0.3c0.2-0.1,0.5-0.2,0.9-0.2H58c0.4-0.1,0.8-0.1,1.1-0.1h0.5c0.7-0.9,1.3-1.8,1.9-2.8h-0.1
	C61.3,272.9,61.1,272.8,60.8,272.8L60.8,272.8z"/>
<path class="st1" d="M294.6,203.1h0.1c0.5-0.1,1-0.2,1.6-0.2c-0.2-0.2-0.4-0.5-0.7-0.7c-0.5-0.6-1.1-1.1-1.7-1.5l-0.1-0.1
	c-0.1-0.1-0.2-0.1-0.3-0.2c-0.5,0.1-1,0.2-1.5,0.4h-0.1l0.9,2.9C293.5,203.3,294,203.2,294.6,203.1L294.6,203.1z M116.1,92.3h1.3
	c0.8-0.1,1.6-0.3,2.3-0.4c0.1,0,0.2,0,0.4-0.1h0.3c0.2,0,0.3,0,0.5-0.1l-0.3-5.1c-0.1-1-0.1-2-0.2-3c-0.9,1.5-1.9,3.3-2.3,3.9
	l-1,1.8c-0.1,0.1-0.1,0.2-0.2,0.3c-0.2,0.4-0.5,0.9-0.8,1.3c-0.3,0.5-0.5,1-0.5,1.2v0.1C115.9,92.2,116,92.3,116.1,92.3z"/>
<path class="st1" d="M300,209.5l-0.1-0.1c-0.1-0.1-0.2-0.1-0.3-0.2c-0.7-0.4-1.3-0.7-2-0.9c-0.1,0-0.2-0.1-0.3-0.1
	c-0.5-0.2-1.1-0.4-1.7-0.7h-0.1c-0.1,0-0.2-0.1-0.3-0.1c-0.6-0.2-1.2-0.4-1.9-0.6H293c-0.5-0.1-1-0.2-1.6-0.4h-0.3
	c-0.6-0.1-1.1-0.2-1.8-0.3H289c-0.4,0-0.7-0.1-1.1-0.1c0.4-0.3,0.9-0.6,1.2-0.8c0.1,0,0.1-0.1,0.2-0.1c0.5-0.3,1-0.5,1.5-0.7
	l0.1-0.1h0.1l0.1-0.1c0.5-0.2,1.1-0.4,1.6-0.6h0.2l-0.8-2.9H292c-0.1,0-0.1,0-0.2,0.1c-0.6,0.2-1.3,0.4-1.9,0.7
	c-0.1,0-0.1,0.1-0.2,0.1h-0.1c-0.6,0.3-1.3,0.6-1.9,0.9c-0.1,0-0.1,0.1-0.2,0.1c-0.6,0.3-1.2,0.7-1.7,1.1c0,0-0.1,0-0.1,0.1
	l-0.1,0.1c-0.6,0.4-1.1,0.9-1.6,1.3l-0.1,0.1l-0.2,0.2c-0.5,0.5-1,1-1.5,1.6c-0.1,0.1-0.1,0.2-0.2,0.3c-0.2,0.2-0.4,0.5-0.6,0.8
	c0.4-0.1,0.7-0.2,1.1-0.3c1.9-0.5,3.7-0.6,5.4-0.4c0.1,0,0.2,0,0.4,0.1h0.2c0.4,0.1,0.7,0.1,1.1,0.2c0.2,0,0.3,0.1,0.5,0.1h0.1
	l0.9,0.3c0.2,0.1,0.4,0.1,0.6,0.2c0.3,0.1,0.6,0.2,0.9,0.4l0.6,0.3c0.3,0.1,0.6,0.3,0.8,0.5c0.2,0.1,0.3,0.2,0.5,0.3
	c0.3,0.2,0.6,0.4,0.8,0.6c0.1,0.1,0.2,0.1,0.2,0.2c0.1,0.1,0.2,0.1,0.2,0.2c0.3,0.2,0.5,0.4,0.8,0.6c0.6,0.2,1.2,0.5,1.7,0.8
	c0.1,0.1,0.3,0.2,0.4,0.2c0.5,0.3,1.1,0.6,1.6,1c0.1,0,0.1,0.1,0.2,0.1c0.6,0.4,1.1,0.8,1.7,1.3c0.1,0.1,0.2,0.2,0.3,0.2l0.1,0.1
	c0.2,0.1,0.4,0.3,0.5,0.5c-0.4-1.6-1-3.3-1.8-5.1C300.9,210,300.5,209.8,300,209.5L300,209.5z M308.3,216.5
	c-0.2,1.2-0.5,2.3-0.7,3.5c0.4-0.9,0.8-1.9,1.3-2.8C308.6,216.9,308.4,216.7,308.3,216.5L308.3,216.5z M318.7,216.9
	c-0.3,0.1-0.5,0.2-0.7,0.3c-0.1,0.1-0.3,0.1-0.4,0.2c-0.4,0.2-0.8,0.5-1.2,0.7c-0.2,0.1-0.4,0.2-0.7,0.4v0.5c0,0.8-0.1,1.7-0.3,2.7
	h0.1c0.1,0,0.2,0,0.3-0.1c0.3-0.1,0.6-0.2,1-0.2c0.2,0,0.3-0.1,0.5-0.1h0.2c0.3-0.1,0.6-0.1,0.9-0.2h0.1c0.1-0.7,0.1-1.3,0.2-1.9
	V216.9L318.7,216.9z M92.3,220.9l-0.3-0.6l-0.6-0.9l-0.1-0.1c-0.1-0.1-0.2-0.3-0.3-0.4c-0.2-0.3-0.5-0.6-0.7-0.8
	c0-0.1-0.1-0.1-0.1-0.2c-0.1-0.1-0.2-0.2-0.2-0.3c-0.3-0.3-0.7-0.7-1.1-1l-0.1-0.1c0,0-0.1,0-0.1-0.1c-0.4-0.3-0.9-0.6-1.4-0.9
	c-0.1,0-0.2-0.1-0.3-0.1c-0.1,0-0.1-0.1-0.2-0.1c-0.3-0.2-0.7-0.3-1.1-0.5h-0.1v1.2c0,0.5-0.1,0.9-0.1,1.4v0.7
	c0.1,0,0.2,0.1,0.3,0.1H86c0.3,0.2,0.7,0.4,0.9,0.6l0.1,0.1c0.3,0.2,0.6,0.5,0.8,0.7l0.1,0.1l0.2,0.2c0.2,0.2,0.4,0.4,0.5,0.6
	c0.1,0.1,0.1,0.2,0.2,0.3l0.1,0.1c0.2,0.2,0.3,0.5,0.4,0.7s0.2,0.3,0.3,0.5c0.1,0.2,0.2,0.5,0.4,0.7c0.1,0.2,0.2,0.4,0.2,0.6
	c0.1,0.3,0.2,0.6,0.3,0.8c0,0.1,0,0.1,0.1,0.2c0.6-1.2,1.2-2.3,1.8-3.5C92.4,221,92.3,221,92.3,220.9L92.3,220.9z M226.8,82.6
	l-0.1,0.1c-0.5,0.5-1.1,1.1-1.5,1.6s-0.7,1.1-0.5,1.4c0.2,0.4,0.9,0.7,1.8,0.8h0.1c0.3-1.6,0.6-3.2,0.8-4.7
	C227.2,82.2,227,82.4,226.8,82.6z M73.5,210.4C73.5,210.3,73.5,210.3,73.5,210.4c-0.1,0-0.2-0.1-0.2-0.1c-0.5-0.2-1.1-0.3-1.6-0.4
	c-0.1,0-0.2-0.1-0.4-0.1c-0.4-0.1-0.9-0.2-1.3-0.2c-0.5,0.5-1,1.1-1.4,1.7c-0.6,0.7-1.1,1.8-1.7,2.9c0-0.3,0.1-0.6,0.1-0.9
	c0-0.2,0.1-0.5,0.1-0.7l0.1-0.3V212c0.1-0.4,0.1-0.7,0.2-1.1c0-0.2,0.1-0.4,0.2-0.6l0.1-0.3v-0.2c0-0.2,0.1-0.3,0.1-0.5h-1.7
	c-0.5,0-1,0.1-1.4,0.2c-0.1,0.2-0.1,0.5-0.2,0.7l-0.3,1.2v0.2c0,0.1,0,0.2-0.1,0.3c-0.1,0.3-0.1,0.5-0.1,0.8
	c-0.1,0.5-0.1,0.9-0.2,1.4v0.6c0,0.2-0.1,0.5-0.1,0.7v3.5c1.3,2.6,2.6,5.1,3.7,7.4c0.3,0.5,0.5,1,0.8,1.5c3.3,6.7,6.3,13.8,8.6,21.3
	l0.9-1.5c0.3-0.5,0.6-1.1,0.9-1.6c-0.6-1.3-1.2-2.6-1.9-3.9c-0.2-0.5-0.5-1-0.8-1.5c-2.3-4.6-5.1-10.4-8.1-15.1
	c0.3-0.2,0.6-0.4,1-0.6c0.1,0,0.2-0.1,0.3-0.1c0.3-0.1,0.6-0.3,0.9-0.4h0.1c0,0,0.1,0,0.1-0.1c0.4-0.1,0.8-0.3,1.2-0.4h0.3
	c0.4-0.1,0.7-0.2,1.1-0.2h0.4c0.5-0.1,1-0.1,1.4-0.2h1.8c0.5,0,1,0.1,1.6,0.1h0.2l1.5,0.3c0.1,0,0.2,0,0.4,0.1
	c0.5,0.1,1.1,0.3,1.6,0.4c0.1,0,0.1,0,0.2,0.1H82c0.5,0.2,1,0.3,1.4,0.6h0.1c0.1,0,0.1,0.1,0.2,0.1c0.5,0.2,1.1,0.5,1.6,0.8
	c0.1,0.1,0.2,0.1,0.3,0.2c0.5,0.3,0.9,0.6,1.4,0.9c0.1,0.1,0.2,0.1,0.3,0.2c0.4,0.3,0.8,0.6,1.2,1c0.5-0.9,1-1.8,1.4-2.7
	c-0.3-0.2-0.5-0.4-0.8-0.6c-0.1-0.1-0.2-0.1-0.3-0.2c-0.5-0.4-1-0.7-1.6-1.1l-0.1-0.1c-0.1,0-0.2-0.1-0.2-0.1
	c-0.6-0.3-1.2-0.7-1.8-0.9l-0.3-0.1h-0.1c-0.6-0.2-1.1-0.5-1.7-0.6c-0.1,0-0.2-0.1-0.3-0.1c-0.6-0.2-1.2-0.4-1.9-0.5l-0.2-0.1h-0.2
	c-0.6-0.1-1.1-0.2-1.6-0.3h-0.2c-0.5-0.1-1.1-0.1-1.8-0.1h-2.2c-0.5,0-1.1,0.1-1.7,0.2h-0.3c-0.1,0-0.2,0-0.4,0.1
	c2.2-1.9,4.7-3.3,6.3-3.7c0.5-0.1,0.9-0.1,1.5-0.2h2c0.2,0,0.5,0.1,0.8,0.1h0.1c-0.3-0.4-0.5-0.7-0.8-1l-0.1-0.1l-0.1-0.1
	c-0.4-0.5-0.9-0.9-1.3-1.3l-0.1-0.1c-0.1-0.1-0.2-0.1-0.2-0.2c-0.1-0.1-0.2-0.2-0.4-0.3h-0.2c-0.6,0-1.2,0.1-1.9,0.2
	c-3.1,0.7-8,3.8-10.9,7.8c1.1-3.9,2.9-7.6,4-9.1C71.8,212,72.6,211.1,73.5,210.4L73.5,210.4z M165.5,63.8c-0.1,0.2-0.3,0.4-0.5,0.6
	c-0.4,0.6-0.9,1.2-1.3,1.8c-0.6,0.8-1,1.6-0.9,1.9v0.1c0,0,0,0.1,0.1,0.1c0.1,0.1,0.2,0.1,0.3,0.1h0.6c0.6,0,1.4,0,1.7-0.1
	c1.3-0.1,2.5-0.2,3.8-0.3h1.1c1.3-0.1,2.7-0.1,4-0.1c0-1,0.1-2,0.1-3c-1.3,0-2.7,0.1-4.3,0.2h-1.1c-0.3,0-0.6,0-1,0.1l1.8-2.4
	c0.6-0.9,2.6-3.6,4.2-5.8l0.8-1.1c0-0.8,0.1-1.5,0.1-2.3h-2.2c-1.7,2.4-4.6,6.3-5.4,7.4L165.5,63.8L165.5,63.8z M57,221.9
	c-0.1,0-0.2,0-0.3-0.1c-0.8-0.2-1.6-0.3-2.4-0.4h-0.4c-0.8-0.1-1.6-0.1-2.3-0.1h-2.1c-0.3,0-0.5,0.1-0.8,0.1h-0.2
	c-0.2,0-0.3,0-0.5,0.1c-0.2,0-0.5,0.1-0.7,0.1h-0.1c-0.2,0-0.4,0.1-0.6,0.1c-0.3,0.1-0.5,0.1-0.8,0.2c-0.1,0-0.1,0-0.2,0.1
	c-0.1,0-0.3,0.1-0.4,0.1c-0.2,0.1-0.4,0.1-0.6,0.2h-0.2c0,0-0.1,0-0.1,0.1c-0.1,0.1-0.3,0.1-0.4,0.2c-0.2,0.1-0.5,0.2-0.7,0.3h-0.1
	c-0.1,0-0.1,0.1-0.2,0.1s-0.2,0.1-0.3,0.2c-0.3,0.1-0.5,0.3-0.8,0.4h-0.1c-0.1,0-0.1,0.1-0.2,0.1s-0.2,0.1-0.2,0.1
	c-0.4,0.3-0.8,0.5-1.2,0.9c-1.9,1.5-3.9,4.5-4.8,7.5c1-0.5,2.3-0.9,3.7-1.1c0.8-1.6,2-3.2,3-4c0.3-0.2,0.6-0.5,0.9-0.7
	c0,0,0.1,0,0.1-0.1h0.1l0.1-0.1h0.1l0.6-0.3c0.1,0,0.1-0.1,0.2-0.1l0.2-0.1h0.1c0.2-0.1,0.4-0.2,0.5-0.3c0.1,0,0.2-0.1,0.3-0.1h0.4
	c0.2-0.1,0.3-0.1,0.5-0.2c0.1,0,0.2,0,0.2-0.1h0.1l0.2-0.1c0.2-0.1,0.4-0.1,0.7-0.2c0.1,0,0.3-0.1,0.4-0.1H48c0.2,0,0.3-0.1,0.5-0.1
	c0.1,0,0.3,0,0.4-0.1h0.2c0.2,0,0.4-0.1,0.7-0.1h1.7c0.7,0,1.4,0,2,0.1c-3.8,1.2-8,3.4-11.6,6.6h0.9c0.4,0,0.8,0,1.2,0.1
	c0.2,0,0.3,0.1,0.5,0.1h0.2c0.3,0.1,0.7,0.1,1,0.2c0.1,0,0.1,0.1,0.2,0.1c2.9-2.1,6.1-3.5,8.8-4.4c0.1,0,0.3-0.1,0.5-0.1h0.2
	c0.2,0,0.3-0.1,0.5-0.1h0.2c0.3,0,0.5-0.1,0.8-0.1h0.2c0.2,0,0.5-0.1,0.7-0.1h2c-0.4-1.4-0.9-2.8-1.3-4.2
	C58.1,222.2,57.6,222.1,57,221.9L57,221.9z M38,217c0.5-0.1,0.9-0.2,1.4-0.3h0.2c0.4-0.1,0.8-0.1,1.1-0.2h0.5c0.3,0,0.6,0,0.9-0.1
	h2.7c0.3,0,0.7,0.1,1,0.1h0.4c0.4,0.1,0.8,0.1,1.2,0.2h0.2c0.4,0.1,0.9,0.2,1.3,0.3c0.1,0,0.2,0.1,0.3,0.1c0.3,0.1,0.5,0.1,0.8,0.2
	c0.1,0,0.2,0.1,0.3,0.1c0.2,0.1,0.4,0.1,0.6,0.2c0.1,0,0.2,0.1,0.3,0.1L52,218c0.2,0.1,0.4,0.1,0.6,0.2c0.8,0.2,3.1,1.3,5.6,2.8
	c-0.5-1.5-1.1-2.9-1.6-4.3c-1.4-0.7-2.5-1.2-3.2-1.3c-0.1,0-0.3-0.1-0.5-0.1l-0.6-0.2L52,215h-0.1c-0.2-0.1-0.4-0.1-0.6-0.2
	l-0.3-0.1c-0.3-0.1-0.6-0.1-0.9-0.2l-0.2-0.1h-0.1c-0.4-0.1-0.9-0.2-1.4-0.3h-0.2c-0.4-0.1-0.9-0.2-1.3-0.2c-0.1,0-0.2,0-0.4-0.1
	h-0.1c-0.4,0-0.7-0.1-1.2-0.1h-0.5c-2.2,0.8-4.6,2-6.9,3.6C37.9,217,37.9,217,38,217L38,217z M55.7,251.7L55.7,251.7
	c0.5,0,0.8-0.1,1.2-0.1H59c0.5,0,1,0.1,1.5,0.2c-0.2-0.6-0.5-1.2-0.8-1.7c-0.1-0.1-0.1-0.2-0.2-0.3c0-0.1-0.1-0.1-0.1-0.2
	c-0.2-0.3-0.4-0.7-0.6-0.9c-0.1-0.1-0.2-0.2-0.3-0.4l-0.1-0.1c-0.2-0.2-0.4-0.5-0.7-0.7c-0.2-0.1-0.3-0.3-0.5-0.4
	c-0.2-0.2-0.5-0.4-0.8-0.5l-0.6-0.3c-0.3-0.1-0.6-0.3-0.9-0.4c-0.2-0.1-0.4-0.1-0.6-0.2c-0.3-0.1-0.7-0.2-1-0.2h-0.2
	c-0.2,0-0.3-0.1-0.5-0.1c-0.4,0-0.8-0.1-1.2-0.1h-0.7c-0.5,0-1,0-1.6,0.1c0.1,0,0.2,0.1,0.3,0.1h0.2c0.4,0.2,0.7,0.4,1.1,0.6
	c0.1,0,0.1,0.1,0.2,0.1l0.1,0.1c0.2,0.2,0.5,0.3,0.7,0.5l0.3,0.3l0.6,0.6l0.3,0.3c0.2,0.2,0.3,0.4,0.5,0.6h0.1
	c0.1,0,0.3,0.1,0.4,0.1H54c0.1,0,0.1,0.1,0.2,0.1c-0.2,0-0.4,0.1-0.5,0.1c0.2,0.4,0.4,0.7,0.6,1.1c0,0,0,0.1,0.1,0.1v0.1
	c0.1,0.3,0.3,0.7,0.4,1c0,0.1,0.1,0.3,0.1,0.4c0.2,0,0.3-0.1,0.5-0.1C55.5,251.7,55.6,251.7,55.7,251.7L55.7,251.7z"/>
<path class="st1" d="M36.1,202.7c-0.6,0.1-1.1,0.3-1.6,0.5h-0.1c-0.5,0.2-1,0.4-1.5,0.7c0,0-0.1,0-0.1,0.1c-0.1,0-0.1,0.1-0.2,0.1
	c-0.5,0.3-1,0.6-1.4,0.9c-0.1,0-0.1,0.1-0.2,0.1c0,0-0.1,0-0.1,0.1c-0.4,0.3-0.8,0.7-1.2,1l-0.1,0.1l-0.1,0.1
	c-0.4,0.4-0.8,0.8-1.1,1.3l-0.2,0.2c0,0,0,0.1-0.1,0.1c-0.3,0.5-0.7,1-1,1.5c-2.8,5.4-2.6,12-2.1,15.9l1.4-1.4
	c-0.2-1.4-0.3-2.9-0.1-4.5c0.2-1.8,1.1-3.8,2.1-5.5c0.3-1.1,0.7-2.1,1.2-3.2c0.2-0.4,0.4-0.7,0.8-1.2v-0.1l0.1-0.1
	c0.3-0.4,0.6-0.7,0.9-1l0.1-0.1c0.3-0.3,0.6-0.5,0.9-0.8l0.1-0.1c0.3-0.3,0.7-0.5,1.1-0.7l0.1-0.1l0.1-0.1c0.4-0.2,0.8-0.4,1.1-0.5
	l0.2-0.1c0.4-0.1,0.8-0.3,1.2-0.4h0.1l0.2-0.1c0.5-0.1,0.9-0.2,1.4-0.3h0.2c0.4,0,0.9-0.1,1.4-0.1h1.5c0.4,0,0.8,0.1,1.2,0.2h0.3
	c0.3,0.1,0.6,0.1,1,0.2c0.1,0,0.2,0.1,0.3,0.1H44l0.9,0.3c0.2,0.1,0.3,0.1,0.5,0.2c0.3,0.1,0.6,0.2,0.9,0.4l0.2,0.1h0.1l0.2,0.1
	c0.4,0.2,0.8,0.4,1.1,0.6c0.1,0,0.1,0.1,0.2,0.1c0.3,0.2,0.6,0.4,0.9,0.5c0.5,0.1,0.9,0.3,1.4,0.4c0.1,0,0.1,0,0.2,0.1l2.4,0.9
	c-3.7-2.9-8.1-5-9.3-5.4c-0.1,0-0.3-0.1-0.6-0.2l-0.6-0.2c-0.1,0-0.2-0.1-0.3-0.1c-0.2-0.1-0.4-0.1-0.6-0.2c-0.1,0-0.2-0.1-0.3-0.1
	c-0.2-0.1-0.5-0.1-0.8-0.2c-0.1,0-0.2-0.1-0.3-0.1c-0.4-0.1-0.8-0.2-1.3-0.3h-0.2c-0.4-0.1-0.8-0.1-1.2-0.2h-0.2
	c-0.4,0.1-0.8,0.1-1.2,0.2C36.3,202.6,36.2,202.6,36.1,202.7L36.1,202.7z M271.9,243.3c0.1,0.2,0.2,0.4,0.4,0.6
	c0.2,0.3,0.3,0.6,0.5,0.9c2.4,4.1,4.9,8.2,7.4,12.3c-8.7-15.2-17.6-31-25.9-47.2C259.8,221.2,265.7,232.3,271.9,243.3L271.9,243.3z
	 M354,227.5c-0.1-0.2-0.1-0.3-0.1-0.4c0-0.1,0-0.1-0.1-0.2c0-0.1-0.1-0.2-0.1-0.4c0-0.1-0.1-0.3-0.1-0.4c-0.1-0.1-0.1-0.3-0.2-0.4
	c0,0,0-0.1-0.1-0.1c-0.1-0.1-0.1-0.3-0.2-0.4l-0.3-0.6c-0.1-0.1-0.1-0.3-0.2-0.4c0-0.1-0.1-0.1-0.1-0.2c-0.1-0.1-0.1-0.2-0.2-0.3
	v-0.1c-0.1-0.1-0.1-0.3-0.2-0.4c-0.1-0.2-0.2-0.4-0.3-0.5v-0.1c-0.1-0.1-0.1-0.2-0.2-0.3c-0.1-0.2-0.2-0.3-0.3-0.5
	c-0.1-0.1-0.2-0.3-0.3-0.4c-0.1-0.2-0.3-0.3-0.4-0.5l-0.1-0.1c-0.1-0.1-0.1-0.2-0.2-0.2c-0.1-0.2-0.3-0.3-0.4-0.5
	c-0.1-0.1-0.2-0.2-0.3-0.4c0-0.1-0.1-0.1-0.2-0.2l-0.3-0.3c-0.1-0.1-0.2-0.2-0.4-0.3c-0.2-0.1-0.3-0.3-0.5-0.4
	c-0.1-0.1-0.3-0.2-0.4-0.3c-0.2-0.1-0.3-0.3-0.5-0.4c-0.1-0.1-0.3-0.2-0.4-0.3c-0.2-0.1-0.4-0.2-0.5-0.3h-0.1v0.1
	c0,0.1,0,0.2,0.1,0.4c0,0.1,0,0.3,0.1,0.4v3.1l0.3,0.3l0.1,0.1l0.2,0.2l0.1,0.1l0.3,0.3c0.1,0.1,0.2,0.3,0.4,0.4
	c0,0.1,0.1,0.1,0.1,0.2l0.1,0.1l0.1,0.1c0.1,0.1,0.2,0.3,0.3,0.4c0.1,0.1,0.1,0.2,0.2,0.2c0.1,0.1,0.2,0.3,0.3,0.4
	c0.1,0.1,0.1,0.2,0.1,0.2v0.1c0.1,0.1,0.2,0.3,0.2,0.4l0.2,0.3v0.1l0.1,0.1l0.1,0.1l0.1,0.1c0.1,0.1,0.1,0.2,0.2,0.3
	c0.1,0.2,0.1,0.3,0.2,0.4l0.1,0.2v0.1l0.1,0.2c0,0.1,0.1,0.2,0.2,0.4c0,0.1,0,0.1,0.1,0.2v0.2l0.1,0.3v0.1c0,0.1,0,0.1,0.1,0.2
	l0.1,0.2v0.1c0,0.1,0.1,0.2,0.1,0.3l2.9-0.8C354.1,227.8,354,227.7,354,227.5L354,227.5z M41.8,252.3c-0.5,0-1,0.1-1.5,0.1
	c-0.7,0.1-1.5,0.3-2.3,0.6c-0.7,1.6-1.1,3.1-1.3,4.6c0.9,0.7,1.9,1.5,2.9,2.3C39.5,257.2,40.3,254.7,41.8,252.3L41.8,252.3z
	 M304.5,299.6c3,3.9,6,7.7,9.1,11.3c-13.4-1-27.5-1.9-42.1-2.6c4-3.4,5.9-6.2,5.9-8.9c0-0.6-0.1-1.2-0.3-1.7
	c-1.4-0.1-2.9-0.2-4.4-0.2c1.1,0.5,1.7,1.2,1.7,1.9c0,3-4.8,7.1-11.6,11.5c20.7,0.9,40.1,2.1,58,3.6c-4.2-4.7-8.3-9.6-12.1-14.6
	C307.2,299.8,305.9,299.7,304.5,299.6L304.5,299.6z M334.7,242.1c-2-1.1-4.3-2-6.8-2.5l-1.8-0.3h-0.4c-0.4-0.1-0.9-0.1-1.3-0.2h-0.5
	c0.1,0,0.2-0.1,0.3-0.1c0.1,0,0.2,0,0.3-0.1h0.1c0.1,0,0.2-0.1,0.3-0.1c0.3-0.1,0.6-0.1,0.9-0.2c0.2,0,0.3-0.1,0.4-0.1h0.3
	c0.3-0.1,0.5-0.1,0.8-0.1c0.2,0,0.4-0.1,0.5-0.1h0.1c0.3,0,0.6-0.1,0.8-0.1h0.7c0.3,0,0.5,0,0.8-0.1h2c-0.7-1-1.4-2.1-2.3-3
	c-0.3,0-0.6,0-0.9,0.1h-0.1c-0.2,0-0.4,0-0.6,0.1c-0.3,0-0.6,0.1-0.9,0.1h-0.1c-0.2,0-0.4,0.1-0.6,0.1c-0.3,0-0.6,0.1-0.9,0.2h-0.2
	c-0.2,0-0.3,0.1-0.5,0.1c-0.3,0.1-0.6,0.1-1,0.2c-0.1,0-0.2,0-0.3,0.1c-0.1,0-0.3,0.1-0.4,0.1c-0.3,0.1-0.5,0.1-0.8,0.2h-0.3
	c-0.2,0.1-0.5,0.1-0.7,0.2c-0.3,0.1-0.6,0.2-0.8,0.3c-0.1,0-0.2,0.1-0.2,0.1c-0.1,0-0.2,0.1-0.2,0.1c-0.1,0-0.2,0.1-0.4,0.1
	c-0.5,0.2-1.1,0.4-1.6,0.6c2-2.1,4.1-4,6.3-5.2c0.4-0.3,0.8-0.5,1.2-0.7c0.1,0,0.2-0.1,0.3-0.1c-0.9-0.6-1.9-1.2-3-1.7
	c-0.9,0.5-1.9,1.1-2.9,1.9c0.4-0.9,0.9-1.7,1.4-2.6c-0.9-0.3-1.9-0.7-2.9-0.9c-1.1,2-2.1,4-2.8,5.9c0.5-2,0.9-4.1,1.3-6.2h-0.6
	c-0.4-0.1-0.8-0.1-1.2-0.2h-0.4c-0.2,0-0.5,0-0.7-0.1c0,0.1-0.1,0.3-0.1,0.4c0-0.2-0.1-0.3-0.1-0.5H311c0.8,2.4,1.2,4.7,1.3,6.8
	c-0.2-0.4-0.5-0.8-0.7-1.2c0-0.1-0.1-0.1-0.1-0.2s-0.1-0.1-0.1-0.2c-0.2-0.3-0.3-0.6-0.5-0.8c-0.1-0.1-0.1-0.2-0.2-0.2
	c0-0.1-0.1-0.1-0.1-0.2c-0.2-0.3-0.3-0.5-0.5-0.8c-0.1-0.2-0.2-0.3-0.4-0.5s-0.4-0.5-0.6-0.7c-0.1-0.1-0.2-0.3-0.4-0.4
	c-0.2-0.2-0.4-0.5-0.6-0.7l-0.1-0.1c-0.1-0.1-0.2-0.2-0.2-0.3l-1.5,0.3c-0.4,0.4-0.8,0.9-1.2,1.3l0.4,0.4c0.1,0.1,0.2,0.2,0.2,0.3
	v0.1l0.1,0.1c0.2,0.2,0.4,0.4,0.5,0.6l0.3,0.4c0.2,0.2,0.3,0.4,0.5,0.6h-0.2c-0.5-0.2-0.9-0.5-1.4-0.7l-0.1-0.1h-0.2
	c-0.4-0.2-0.7-0.3-1.1-0.4c-0.6,0.8-1.1,1.6-1.8,2.6c0.1,0,0.1,0,0.2,0.1h0.2c0.5,0.2,1.1,0.4,1.5,0.6c0.5,0.2,0.9,0.4,1.3,0.7h0.2
	c0.4,0.2,0.7,0.4,1,0.6h0.2c0.3,0.2,0.6,0.4,0.8,0.5c0.3,0.2,0.5,0.3,0.7,0.5c1.2,0.8,2.2,1.8,3,2.9c-5.7,4.5-12.7,13-16.3,21.2
	c-0.5,1.2-1,2.3-1.4,3.5c-0.1,2.9,0,6.1,0.3,9.3c0.9-3.8,2.1-7.6,3.9-11.6c2.5-5.6,6.4-11,10.2-15.1l-0.1,0.1
	c-3.1,4.9-7.1,15-8.3,25.8c-0.4,3.5-0.5,7.8-0.2,12.4l3.3,4.2c-0.5-5.9-0.6-11.8-0.1-16.3c1.3-11,5.3-20.6,7.9-24.6
	c1.5-2.4,2.6-4,4.3-5.8c1.1-0.2,2.2-0.4,3.2-0.5h0.1c1-0.1,2-0.2,3-0.2h1.5c0.4,0,0.7,0,1.1,0.1h0.4c0.4,0,0.8,0.1,1.2,0.2h0.4
	c0.5,0.1,1,0.2,1.6,0.3c3.5,0.7,6.3,2.2,8.7,4.1C335.7,245.2,335.3,243.7,334.7,242.1L334.7,242.1z M316.4,235.6l-0.9,0.9l-0.2-2.3
	l1.8,0.6C316.9,235.1,316.7,235.3,316.4,235.6L316.4,235.6z M340.5,237.1c0,1-0.2,2.1-0.4,3.2c2,1.2,3.7,3,4.7,5
	c1.4,2.7,1.6,5.8,0.8,9c-1.6-3.5-3.9-6.9-7.1-9.5c-0.4,0.9-0.9,1.8-1.5,2.7c4.9,4.4,7.3,10.5,7.8,15.4
	C352.6,251.6,348.9,241.4,340.5,237.1L340.5,237.1z"/>
<path class="st1" d="M355.2,234.5v-2.2c0-0.1,0-0.3-0.1-0.4c0-0.1,0-0.2-0.1-0.4V231c0-0.2-0.1-0.3-0.1-0.5v-0.1
	c0-0.1,0-0.2-0.1-0.3c0-0.1-0.1-0.2-0.1-0.4v-0.2c0-0.1-0.1-0.3-0.1-0.4c0-0.2-0.1-0.4-0.2-0.6c0-0.1-0.1-0.3-0.1-0.4V228l-2.9,0.9
	l0.1,0.4c0,0.2,0.1,0.3,0.1,0.5c0,0.1,0,0.2,0.1,0.3v0.2c0,0.1,0,0.2,0.1,0.3v0.3c-3.5-2.2-6.8-3.3-9.4-3.9
	c-0.2-0.1-0.4-0.1-0.7-0.2h-0.3c-0.1,0-0.3-0.1-0.5-0.1h-0.3c-0.2,0-0.4,0-0.6-0.1h-0.2c-0.3,0-0.6-0.1-0.9-0.1h-2.5
	c0.8,0.9,1.6,2,2.1,3.1c0.2,0,0.5,0,0.7,0.1h0.2c0.2,0,0.4,0,0.5,0.1h0.2c0.1,0,0.3,0,0.4,0.1h0.2c0.2,0,0.3,0.1,0.5,0.1
	c3.2,0.8,8.6,2.5,13.5,7.6c0-0.2,0-0.3,0.1-0.5v-2.2C355.2,234.7,355.2,234.6,355.2,234.5L355.2,234.5z M255.7,295.6
	c1.5-1,3-2,4.2-3h-8.8c-0.6,0-1.3,0-2,0.1h-0.5c-0.8,0-1.7,0.1-2.6,0.1h-0.3c-0.8,0-1.6,0.1-2.4,0.1h-0.8c-0.7,0-1.4,0.1-2.1,0.1
	h-0.8c-0.7,0.1-1.5,0.1-2.2,0.2h-0.7c-2,0.2-4,0.4-6.1,0.6l-0.5,0.1h-0.4c-0.8,0.1-1.6,0.2-2.3,0.3l-0.6,0.1h-0.4
	c-0.8,0.1-1.6,0.2-2.3,0.3h-0.2l-0.6,0.1c-1,0.1-2.1,0.3-3.1,0.4H220c-1.1,0.2-2.2,0.3-3.4,0.5h-0.1l-0.4,0.1l-0.4,0.1h-0.1
	c-0.8,0.1-1.6,0.2-2.4,0.4h-0.6c-0.2,0-0.3,0-0.5,0.1c-0.8,0.1-1.6,0.3-2.4,0.4l-1.1,0.2c-0.9,0.2-1.9,0.3-2.8,0.5
	c-0.2,0-0.3,0.1-0.5,0.1h-0.2c-1.2,0.2-2.3,0.4-3.5,0.7l-0.4,0.1l-0.3,0.1c-0.9,0.2-1.8,0.4-2.8,0.6c-0.3,0.1-0.5,0.1-0.8,0.2
	l-0.4,0.1c-0.8,0.2-1.6,0.3-2.4,0.5l-0.3,0.1c-0.3,0.1-0.6,0.1-0.9,0.2c-0.9,0.2-1.7,0.4-2.6,0.6l-0.5,0.1l-0.4,0.1
	c-1.2,0.3-2.4,0.6-3.5,0.9l-0.3,0.1h-0.3c-0.2,0-0.3,0.1-0.5,0.1c1.8-1.9,3-3.7,3.7-4.9c1.5-2.6,2-4.8,1.4-6.7
	c-0.2-0.7-0.7-1.7-1.7-2.4c-0.7,0.1-1.3,0.3-2,0.4c-0.1,0-0.2,0-0.3,0.1c-0.3,0.1-0.6,0.1-0.9,0.2c-0.7,0.2-1.4,0.3-2.1,0.5h0.1
	c0.1,0,0.3,0.1,0.4,0.1c0.3,0.1,0.6,0.2,0.9,0.2h0.1c0.1,0,0.1,0,0.2,0.1c0.4,0.1,0.7,0.2,1,0.4c2,0.8,1.8,3,0.2,5.5
	c-0.9,1.6-2.3,3.4-4.1,5.1c-3.1,3-4.9,4.6-10,8.1v0.1c1-0.3,2-0.7,3.1-1c0.4-0.1,0.7-0.2,1.1-0.3c0.8-0.2,1.6-0.5,2.4-0.7
	c0.2-0.1,0.5-0.1,0.7-0.2c0.2,0,0.3-0.1,0.5-0.1c0.8-0.2,1.6-0.5,2.4-0.7c0.1,0,0.3-0.1,0.4-0.1c0.2-0.1,0.4-0.1,0.7-0.2
	c1-0.3,2-0.5,2.9-0.8c0.1,0,0.2,0,0.3-0.1c0.1,0,0.2,0,0.3-0.1c1.2-0.3,2.3-0.6,3.5-0.9c0.3-0.1,0.6-0.1,0.9-0.2
	c0.9-0.2,1.7-0.4,2.6-0.6c0.3-0.1,0.6-0.1,0.9-0.2c0.1,0,0.2,0,0.3-0.1c0.8-0.2,1.6-0.4,2.4-0.5c0.1,0,0.2-0.1,0.4-0.1
	c0.3-0.1,0.5-0.1,0.8-0.2l2.7-0.6c0.1,0,0.2,0,0.4-0.1c0.1,0,0.3-0.1,0.4-0.1c1.2-0.2,2.3-0.4,3.5-0.7h0.2c0.2,0,0.3-0.1,0.5-0.1
	c0.9-0.2,1.9-0.3,2.8-0.5c0.4-0.1,0.7-0.1,1.1-0.2c0.8-0.1,1.6-0.3,2.4-0.4c0.1,0,0.3,0,0.4-0.1c0.1,0,0.3,0,0.4-0.1h0.2
	c0.8-0.1,1.6-0.2,2.4-0.4h0.1c0.1,0,0.3,0,0.4-0.1c0.1,0,0.3,0,0.4-0.1c1.1-0.2,2.2-0.3,3.4-0.5h0.1c1-0.1,2.1-0.3,3.1-0.4
	c0.2,0,0.4,0,0.6-0.1h0.3c0.8-0.1,1.6-0.2,2.3-0.3c0.3,0,0.7-0.1,1-0.1c0.8-0.1,1.5-0.2,2.3-0.3h0.3c0.2,0,0.4,0,0.5-0.1
	c2.1-0.2,4.1-0.4,6-0.6h0.7c0.7-0.1,1.5-0.1,2.2-0.2c0.3,0,0.6,0,0.8-0.1c0.7-0.1,1.4-0.1,2.1-0.1h0.7c0.8-0.1,1.6-0.1,2.4-0.1h0.3
	c0.9,0,1.7-0.1,2.6-0.1h0.5c0.7,0,1.3-0.1,2-0.1h3C254.7,295.6,255.2,295.6,255.7,295.6L255.7,295.6z M312,222.6
	c0.1,0,0.1,0,0.2-0.1c-0.2-0.3-0.3-0.6-0.5-0.9c-0.6,0.5-1.1,1.1-1.7,1.7c0.5-0.2,1.1-0.4,1.6-0.6
	C311.8,222.7,311.9,222.7,312,222.6L312,222.6z M337.5,217.8h1.3c0.2,0,0.3,0,0.5,0.1c-2.4-1.2-4.6-1.8-6.2-2.2
	c-0.1,0-0.3-0.1-0.5-0.1h-0.1c-3,1-5.9,3-8.1,5.1c1.3,0.1,2.6,0.3,3.8,0.6c2.4-1.9,5.5-3.5,8.2-3.5L337.5,217.8L337.5,217.8z
	 M297,229.3h-1.6c-0.3,0-0.5,0-0.7,0.1h-0.5c-0.2,0-0.5,0.1-0.7,0.1c-0.1,0-0.2,0-0.3,0.1h-0.1c-0.2,0-0.5,0.1-0.7,0.2l-0.8,0.2
	c-0.1,0-0.3,0.1-0.4,0.1h-0.1c-0.1,0-0.2,0.1-0.3,0.1c-0.3,0.1-0.6,0.2-0.8,0.3c-0.1,0-0.2,0.1-0.3,0.1c-0.4,0.2-0.8,0.4-1.2,0.5
	h-0.2c-0.4,0.2-0.7,0.4-1,0.5c-0.1,0.1-0.2,0.1-0.3,0.2h-0.1c-0.3,0.2-0.5,0.3-0.8,0.5c-0.1,0.1-0.2,0.1-0.3,0.2l-0.1,0.1
	c-0.2,0.2-0.5,0.3-0.7,0.5c0.8-4.2,3.1-7.8,7.1-8.8c1-0.2,2-0.4,3-0.4c0.4,0,0.9,0,1.4,0.1h0.4c0.3,0,0.6,0.1,0.8,0.1
	c0.1,0,0.2,0.1,0.4,0.1h0.1c0.3,0.1,0.5,0.1,0.7,0.2c0.2,0.1,0.3,0.1,0.5,0.2s0.5,0.2,0.7,0.3h0.1c0.2,0.1,0.3,0.1,0.4,0.2
	c0.2,0.1,0.5,0.2,0.7,0.4h0.1c0.1,0.1,0.2,0.1,0.3,0.2c0.6-0.5,1.1-1,1.7-1.4c-0.6-0.7-1.2-1.5-2-2.1c-0.3-0.1-0.6-0.2-0.8-0.4
	c-0.2-0.1-0.4-0.2-0.6-0.2l-0.9-0.3H299c-0.2,0-0.3-0.1-0.5-0.1c-0.3-0.1-0.7-0.1-1.1-0.2h-0.2c-0.1,0-0.2,0-0.4-0.1
	c-0.5-0.1-1.1-0.1-1.7-0.1c-1.2,0-2.4,0.1-3.7,0.5c-7.5,1.8-10.6,10-9.6,18.8c0.4-0.4,0.7-0.8,1.1-1.2l0.4-0.4l0.1-0.1
	c0.2-0.2,0.4-0.5,0.7-0.7l0.3-0.3l0.1-0.1l0.1-0.1l0.6-0.6l0.4-0.4c0.2-0.2,0.4-0.4,0.7-0.5c0.2-0.1,0.3-0.2,0.4-0.3
	c0.2-0.2,0.4-0.3,0.7-0.5c0.1,0,0.1-0.1,0.2-0.1c0.1-0.1,0.2-0.1,0.3-0.2c0.2-0.2,0.5-0.3,0.7-0.4c0,0,0.1,0,0.1-0.1
	c0.1-0.1,0.2-0.1,0.3-0.2c0.3-0.2,0.6-0.3,0.9-0.5h0.2c0.4-0.2,0.7-0.3,1-0.5c0.1,0,0.1-0.1,0.2-0.1h0.1c0.2-0.1,0.5-0.2,0.7-0.3
	c0.1,0,0.3-0.1,0.4-0.1c0.2-0.1,0.4-0.1,0.6-0.2c0.1,0,0.3-0.1,0.4-0.1c0.2,0,0.4-0.1,0.6-0.1c0.1,0,0.2,0,0.4-0.1
	c0.2,0,0.4-0.1,0.6-0.1h0.4c0.2,0,0.4,0,0.5-0.1c0.9-1.1,1.8-2.1,2.7-3C297.8,229.3,297.4,229.3,297,229.3L297,229.3z M310.1,204.9
	c0,0.3,0,0.6-0.1,0.9c1.5,1.1,2.6,2.3,3.4,3.6c0.5-0.7,1.1-1.4,1.7-2.1l0.3-0.3c-1.1-1.4-2.4-2.8-4.2-4c-0.3-0.2-0.7-0.4-1.1-0.7
	C310.2,203.2,310.1,204.1,310.1,204.9L310.1,204.9z M250,69.8c-0.1,0.1-0.1,0.2-0.2,0.3l-0.2,0.2l-0.1,0.1l-3.2,3.8
	c-0.2,1.4-0.4,2.6-0.5,3.6l-0.3,3l3,0.3c2.7,0.3,5.3,0.7,7.8,1l-0.1,0.1l-0.1,0.2l-0.1,0.1v0.1c0,0.1-0.1,0.1-0.1,0.2l-13.2,15.9
	l-5.2,6.3c1.3-7.2,2.5-13.7,2.9-16.9l0.3-3.1l-2.9-0.2l-1.3,1.6l-1,1.2c0.9,0.1,1.6,0.1,1.9,0.2c-0.4,3.5-1.9,11.4-3.4,19.4
	c-0.4,1.9-0.7,3.8-1.1,5.7c-0.1,0.6-0.1,1.1,0.2,1.3h0.3c0.1,0,0.1,0,0.2-0.1c0,0,0.1,0,0.1-0.1c0.1,0,0.1-0.1,0.2-0.2l0.1-0.1
	l0.3-0.3c0.5-0.5,1-1.2,1.5-1.8c0.2-0.2,0.3-0.4,0.5-0.6l8.7-10.4l13.2-15.9l0.1-0.1l0.2-0.2c0.1-0.1,0.2-0.3,0.3-0.4
	c0.3-0.3,0.5-0.6,0.8-0.9c0.8-1,1.4-2,1.3-2.6c-0.1-0.4-0.7-0.6-1.4-0.7h-0.3c-3.2-0.4-6.7-0.9-10.2-1.4
	C249.1,76.2,249.5,73.2,250,69.8L250,69.8z M47.8,254.4c0.4-0.3,0.8-0.5,1.2-0.7c0.1-0.1,0.3-0.1,0.4-0.2h-0.1
	c-0.4-0.2-0.8-0.3-1.2-0.4c-0.1,0-0.1,0-0.2-0.1c-0.1,0-0.2-0.1-0.2-0.1c-0.6-0.2-1.1-0.3-1.7-0.4h-0.5c-2.8,2.1-4.6,4.5-5.7,7.6
	c0.8,0.7,1.6,1.4,2.5,2.1C43.2,258.9,44.8,256.6,47.8,254.4L47.8,254.4z M166.6,288.4c0.9,0,1.8-0.1,2.6-0.1h2.8
	c0.6-0.6,1.2-1.1,1.9-1.8c0.4-0.4,0.8-0.8,1.1-1.2h-5.9c-0.9,0-1.7,0.1-2.7,0.1h-0.6c-0.7,0-1.5,0.1-2.2,0.1h-0.9
	c-0.8,0.1-1.7,0.1-2.6,0.2h-0.4c-1,0.1-2.1,0.2-3.1,0.3h-0.8c-0.8,0.1-1.7,0.2-2.6,0.3h-0.3l-0.6,0.1c-1,0.1-2,0.2-3,0.4h-0.4
	c-1.2,0.1-2.4,0.3-3.6,0.5l-0.7,0.1h-0.2c-1,0.1-1.9,0.3-2.9,0.4l-0.4,0.1l-0.6,0.1l-3.6,0.6h-0.3c-1.3,0.2-2.7,0.5-4.1,0.7
	l-0.4,0.1l-0.7,0.1c-1.1,0.2-2.1,0.4-3.2,0.6h-0.1c-0.3,0.1-0.5,0.1-0.8,0.2l-0.3,0.1c-1.4,0.3-2.7,0.5-4.2,0.8h-0.2l-4.5,0.9
	c-0.4,0.1-0.9,0.2-1.3,0.3c-1.2,0.2-2.3,0.5-3.5,0.7c-0.4,0.1-0.9,0.2-1.4,0.3c-1.6,0.3-3.2,0.7-4.8,1.1c-5,1.2-28.3,6.6-49.2,13.4
	c0.7-0.9,1.5-1.8,2.2-2.7l1.1-1.4l-0.6-1.6c-1-2.6-2.2-5.3-3.5-7.8c-1,0.3-1.9,0.6-2.9,0.9c1.4,2.7,2.6,5.4,3.6,8
	c-2.8,3.5-5.7,6.9-8.7,10.3l0.2,0.4c21.7-7.8,49.8-14.5,58.5-16.5c1.6-0.4,3.2-0.7,4.8-1.1c0.5-0.1,0.9-0.2,1.4-0.3
	c1.2-0.3,2.3-0.5,3.5-0.7c0.4-0.1,0.8-0.2,1.3-0.3l4.5-0.9h0.2c1.4-0.3,2.8-0.5,4.1-0.8l0.3-0.1c0.3-0.1,0.5-0.1,0.8-0.2h0.1
	c1.1-0.2,2.1-0.4,3.2-0.6c0.4-0.1,0.7-0.1,1.1-0.2c1.4-0.2,2.7-0.5,4-0.7h0.2l3.6-0.6c0.3-0.1,0.7-0.1,1-0.2c1-0.1,2-0.3,2.9-0.4
	c0.3,0,0.6-0.1,0.9-0.1c1.2-0.2,2.4-0.3,3.6-0.5h0.4c1-0.1,2.1-0.3,3-0.4c0.3,0,0.6-0.1,0.9-0.1c0.9-0.1,1.7-0.2,2.5-0.3h0.7
	c1.1-0.1,2.1-0.2,3.1-0.3h0.4c0.9-0.1,1.7-0.1,2.5-0.2h0.8c0.7,0,1.5-0.1,2.2-0.1C166.3,288.5,166.5,288.4,166.6,288.4L166.6,288.4z
	 M48.8,266.7c0.6-0.1,1.1-0.1,1.7-0.1h2.3c0.5,0,0.9,0.1,1.4,0.2h0.4c0.6,0.1,1.1,0.2,1.7,0.4c0.1,0,0.2,0,0.2,0.1
	c0.1,0,0.1,0,0.2,0.1c0.4,0.1,0.8,0.3,1.2,0.4c0.2,0.1,0.3,0.1,0.5,0.2h0.1c0.4,0.2,0.7,0.3,1.1,0.5l0.6,0.3
	c0.4,0.2,0.8,0.5,1.1,0.7c0.1,0,0.1,0.1,0.2,0.1c0.1,0.1,0.2,0.1,0.3,0.2c0.4,0.3,0.9,0.6,1.3,1c0.2-0.2,0.3-0.5,0.5-0.7
	c0-0.3,0.1-0.6,0.1-0.9v-1.7c0-0.2,0-0.4-0.1-0.6c0-0.3-0.1-0.7-0.2-1v-0.1c0-0.1-0.1-0.3-0.1-0.4c-0.1-0.4-0.2-0.7-0.4-1v-0.1
	c0,0,0-0.1-0.1-0.1c-0.2-0.4-0.4-0.8-0.6-1.1c0-0.1-0.1-0.1-0.1-0.2c0,0,0-0.1-0.1-0.1c-0.2-0.3-0.4-0.5-0.6-0.7l-0.3-0.3l-0.6-0.6
	l-0.3-0.3c-0.2-0.2-0.5-0.3-0.7-0.5l-0.1-0.1c-0.1,0-0.1-0.1-0.2-0.1c-0.3-0.2-0.7-0.4-1.1-0.6h-0.2l-0.9-0.3
	c-0.1,0-0.3-0.1-0.4-0.1c-0.3-0.1-0.5-0.1-0.8-0.2c-0.1,0-0.3-0.1-0.4-0.1c-0.3,0-0.5-0.1-0.8-0.1h-0.4c-0.4,0-0.7-0.1-1-0.1H53
	c-0.5,0-1.1,0-1.6,0.1c-0.1,0-0.3,0-0.4,0.1c-0.5,0.1-1,0.2-1.4,0.4c-1.9,0.7-4.2,2.1-6.1,4.2c1.2,1.1,2.5,2.3,3.8,3.6
	C47.9,266.8,48.4,266.7,48.8,266.7L48.8,266.7z M50.8,262.1c0.2-0.1,0.5-0.2,0.9-0.2H52c0.4-0.1,0.8-0.1,1.1-0.1h1.1
	c0.2,0,0.4,0.1,0.6,0.1c0.1,0,0.2,0,0.3,0.1c0.2,0,0.4,0.1,0.6,0.2c0.1,0,0.2,0,0.2,0.1c0.2,0.1,0.4,0.1,0.6,0.2
	c0.1,0,0.2,0.1,0.2,0.1c0.2,0.1,0.5,0.2,0.7,0.4H58c0.2,0.1,0.3,0.2,0.5,0.3l0.2,0.2l0.4,0.4l0.2,0.2c0.1,0.1,0.2,0.3,0.4,0.5
	c0,0.1,0.1,0.1,0.1,0.1l0.3,0.6c-0.1-0.1-0.3-0.1-0.4-0.2l-0.1-0.1c-0.2-0.1-0.4-0.2-0.6-0.2c-0.5-0.2-0.9-0.3-1.5-0.5h-0.1
	c-0.1,0-0.3-0.1-0.4-0.1c-0.6-0.2-1.3-0.3-2-0.4h-0.4c-0.6-0.1-1.1-0.1-1.6-0.2h-2.7c-0.7,0-1.3,0.1-1.9,0.2c-0.3,0-0.5,0.1-0.8,0.1
	C48.7,263,49.8,262.4,50.8,262.1L50.8,262.1z M247.1,64.8l0.8-0.9c-0.1,0.3-0.1,0.6-0.2,1c0.9,0.1,1.9,0.3,2.8,0.4h0.2
	c0.1-0.5,0.2-1.1,0.3-1.6l0.4-3.1c0-0.2,0.1-0.4,0.1-0.7s0.1-0.5,0.1-0.8c0.1-0.7,0.3-1.4,0.3-2c0-0.5,0-1-0.1-1.1l-0.1-0.1h-0.2
	c-0.1,0-0.1,0.1-0.2,0.1h-0.1c-0.1,0-0.1,0.1-0.2,0.2h-0.1c-0.1,0.1-0.2,0.2-0.4,0.3c-0.5,0.5-1.2,1.2-1.7,1.8
	c-0.2,0.2-0.4,0.5-0.6,0.7l-4.7,5.1C244.7,64.5,245.9,64.6,247.1,64.8L247.1,64.8z M138.1,63.5c-0.1-1.3-0.1-2.5-0.2-3.7l-0.1-1.7
	v-0.2c0-0.6-0.1-1.4-0.3-1.7c-0.1-0.1-0.1-0.1-0.2-0.1c0,0-0.1,0-0.1,0.1h-0.1l-0.2,0.2l-0.1,0.1l-0.1,0.1l-0.2,0.2V57
	c0,0.1-0.1,0.1-0.1,0.2c-0.1,0.2-0.3,0.4-0.4,0.6c-0.1,0.1-0.2,0.3-0.2,0.4c-0.1,0.2-0.2,0.3-0.3,0.5l-1.3,2.1v0.1
	c-0.1,0.2-0.2,0.4-0.4,0.6c-0.5,0.9-1.2,1.9-1.8,3C133.9,64.1,136,63.8,138.1,63.5L138.1,63.5z M80.4,194.2h-1.1
	c-0.3,0-0.6,0-0.9,0.1c-0.2,0-0.4,0.1-0.5,0.1s-0.2,0-0.2,0.1h-0.1c-0.3,0.1-0.6,0.1-0.9,0.2c-0.2,0.1-0.4,0.1-0.6,0.2
	c-0.1,0-0.1,0-0.2,0.1c-0.3,0.1-0.6,0.3-0.9,0.4l-0.6,0.3c0,0-0.1,0-0.1,0.1c-0.3,0.2-0.6,0.3-0.9,0.5c-0.2,0.2-0.5,0.3-0.7,0.5
	c-0.3,0.2-0.6,0.4-0.9,0.7c-0.2,0.2-0.5,0.4-0.7,0.6l-0.8,0.8c-0.2,0.2-0.4,0.5-0.6,0.7c-0.1,0.1-0.1,0.1-0.1,0.2
	c0.6-0.1,1.1-0.2,1.7-0.2H74c0.2-0.2,0.4-0.3,0.6-0.4c0.2-0.1,0.4-0.3,0.6-0.4c0.2-0.1,0.5-0.3,0.8-0.5h0.2c0.1-0.1,0.3-0.2,0.4-0.2
	c0.2-0.1,0.5-0.2,0.7-0.3l0.2-0.1h0.1c0.1-0.1,0.3-0.1,0.4-0.2c0.2-0.1,0.4-0.1,0.6-0.2h0.1l0.3-0.1c0.1,0,0.2-0.1,0.3-0.1
	c0.2,0,0.4,0,0.6-0.1h0.8c0.4,0,0.8,0,1.1,0.1c2.6,0.4,6.6,1.7,8.6,6c-0.3-0.1-0.6-0.1-1-0.2H89c-0.4-0.1-0.8-0.1-1.2-0.2h-0.5
	c-0.4,0-0.7,0-1-0.1h-0.8c-0.9,0-1.7,0.1-2.5,0.1c-0.5,0.1-1.1,0.1-1.6,0.3l0.2,0.2c0.1,0.1,0.2,0.2,0.2,0.3s0.1,0.1,0.1,0.2
	c0.2,0.3,0.5,0.5,0.7,0.8c0.1,0.1,0.2,0.3,0.3,0.4L83,205c0.2,0.2,0.3,0.5,0.5,0.7c0.6-0.1,1.3-0.1,2-0.1h2.1c0.3,0,0.6,0.1,1,0.1
	H89c0.4,0.1,0.9,0.2,1.3,0.3h0.2c0.4,0.1,0.7,0.2,1.1,0.3c0.1,0.1,0.3,0.1,0.4,0.2c0.3,0.1,0.6,0.3,1,0.4c0.1,0.1,0.3,0.1,0.4,0.2
	c0.4,0.2,0.9,0.5,1.3,0.8c-0.6-10-7.5-13.3-12.4-14C81.4,194.3,80.9,194.2,80.4,194.2L80.4,194.2z M30.7,258.5
	c-0.7-0.1-1.3-0.1-2-0.1c-0.4,0-0.8,0-1.2,0.1c1.5,1.2,2.9,2.6,4.3,4.3c-0.2-0.1-0.3-0.2-0.5-0.2c-0.5-0.2-1.1-0.5-1.7-0.7
	c-0.2-0.1-0.3-0.1-0.4-0.1c-0.6-0.2-1.1-0.4-1.6-0.5h-0.2c-0.6-0.1-1.2-0.2-1.9-0.3c-0.2,0-0.3,0-0.5-0.1c-0.6-0.1-1.1-0.1-1.7-0.1
	h-1.8c-0.2,0-0.4,0-0.6,0.1h-0.5c-0.1,0-0.3,0-0.4,0.1c-0.3,0-0.5,0.1-0.8,0.1h-0.3c-1.9,1.3-3.7,3.2-5.1,5.4c1.3-0.9,2.6-1.7,3.8-2
	c0.5-0.1,0.9-0.3,1.4-0.4c0.1,0,0.2-0.1,0.4-0.1h0.4c0.2,0,0.4-0.1,0.6-0.1h0.8c0.2,0,0.3,0,0.5-0.1h1.5c0.5,0,1,0,1.5,0.1h0.4
	c0.5,0.1,1,0.2,1.6,0.3h0.2c0.5,0.1,0.9,0.3,1.4,0.4c0.1,0,0.3,0.1,0.4,0.1l1.5,0.6h0.1c0.5,0.2,0.9,0.4,1.4,0.7
	c0.1,0.1,0.2,0.1,0.4,0.2c0.5,0.3,0.9,0.6,1.4,0.9s0.9,0.6,1.3,1c0.1,0,0.1,0.1,0.2,0.1s0.1,0.1,0.2,0.1c0.4,0.3,0.9,0.7,1.3,1.1
	c-0.7-0.3-1.3-0.6-2-0.9s-1.3-0.5-2-0.7h-0.1c-0.6-0.2-1.3-0.3-1.9-0.4h-0.2c-0.6-0.1-1.3-0.1-1.9-0.1h-1c-0.2,0-0.3,0-0.5,0.1
	c-0.1,0-0.3,0-0.4,0.1c-0.1,0-0.3,0.1-0.4,0.1h-0.2c-0.1,0-0.2,0-0.3,0.1c-0.1,0-0.3,0.1-0.4,0.1H25c-0.1,0-0.2,0.1-0.3,0.1
	c-0.2,0.1-0.3,0.1-0.5,0.2h-0.1c-0.1,0-0.2,0.1-0.3,0.1c-0.1,0.1-0.3,0.1-0.4,0.2l-0.1,0.1c0,0-0.1,0-0.1,0.1
	c-0.1,0-0.1,0.1-0.2,0.1c-0.2,0.1-0.4,0.2-0.6,0.4h-0.1l-0.1,0.1c-0.1,0-0.1,0.1-0.2,0.1c-0.3,0.2-0.6,0.4-0.9,0.7
	c-4.1,3.4-6.1,12.1-1.3,19.5c0.4-2.5,1.3-5.3,3-8.3c2.2-3.7,5.6-6.5,9-7.5c0.7-0.2,1.3-0.3,1.9-0.5c0.2,0,0.3-0.1,0.5-0.1
	c0.5-0.1,0.9-0.1,1.4-0.2H36c0.6,0,1.1-0.1,1.7-0.1c0.6,0,1.3,0,2,0.1c2.5,2.9,4.8,5.8,6.9,8.7C42.5,274.1,37.4,266.2,30.7,258.5
	L30.7,258.5z M30.6,270.7c-4.2,1.1-8.2,4.4-10.8,8.8c-0.1,0.1-0.1,0.2-0.2,0.4c0-3.4,1.3-6.3,3-7.7c0.2-0.2,0.5-0.4,0.7-0.5h0.1
	c0.1,0,0.1-0.1,0.2-0.1h0.1c0.1-0.1,0.2-0.2,0.4-0.2h0.2l0.1-0.1l0.2-0.1c0.1,0,0.2-0.1,0.3-0.1H25l0.2-0.1c0.1,0,0.2-0.1,0.3-0.1
	h0.3c0.1,0,0.2-0.1,0.3-0.1h0.3c0.1,0,0.2,0,0.3-0.1h1.6c0.5,0,1,0,1.5,0.1h0.1c0.4,0.1,0.8,0.2,1.3,0.3
	C30.9,270.6,30.7,270.6,30.6,270.7L30.6,270.7z M8.6,270.3c0,0.4,0,0.7,0.1,1.1l0.2-0.2C8.8,270.8,8.7,270.6,8.6,270.3z M138.5,72.9
	c-0.9,1.5-1.8,3.1-2.8,4.7c0,0.5,0.1,1,0.1,1.5l0.2,3.3l3.3-0.5c2.6-0.4,5.3-0.8,8.1-1.2c-0.3,0.5-0.7,1.3-1.4,2.4
	c-3.1,5.2-8.5,14.4-13.4,23.4l-0.3-5.7v-0.2c-0.2-3.4-0.4-6.7-0.5-10l-0.2-3.1l-1.5,0.1c-0.6,1.1-1.2,2.1-1.8,3.2h0.5
	c0.2,3.3,0.4,6.7,0.5,10.1c0.2,3.7,0.4,7.3,0.6,10.8v2.4c0.1,0.9,0.2,1.9,0.4,2.1h0.1c0.1,0,0.1,0,0.2-0.1s0.2-0.2,0.2-0.3v-0.1
	c0.1-0.1,0.2-0.3,0.3-0.4c0.1-0.2,0.2-0.3,0.3-0.5l0.7-1.4c4.7-8.7,10.8-19.4,16.3-28.7c1.6-2.8,1.9-3.2,1.9-3.2s0.1-0.1,0.1-0.2
	c0.2-0.3,0.4-0.7,0.7-1.1c0.5-0.8,1.1-1.6,1.3-2.2c0.1-0.2,0.2-0.5,0.1-0.6v-0.1c-0.1-0.2-0.4-0.2-0.7-0.2h-1.1l-1.2,0.2
	c-3.6,0.5-7.3,1-10.8,1.6C138.7,77,138.6,75,138.5,72.9L138.5,72.9z M202.7,53.6c5-0.3,10.3-0.6,16-0.9l-1.2,1.5l-0.1,0.1l-0.1,0.1
	l-0.1,0.1c0,0-0.5,0.7-3.5,4.8c-6.4,8.8-18.3,25.2-28.4,40.3v-0.7c0-0.7,0.1-1.3,0.1-2c0.2-4.3,0.4-8.6,0.5-13v-0.1l0.3-7.2
	c-1.1,1.6-2.2,3.1-3.2,4.7c0,0.8-0.1,1.6-0.1,2.4c-0.2,4.4-0.4,8.8-0.6,13.1c0,0.7-0.1,1.4-0.1,2c0,0.8-0.1,1.6-0.1,2.3l-0.1,3.1
	v0.7c0,1.4,0,2.9,0.3,3.3c0.1,0,0.1,0.1,0.2,0.1s0.1,0,0.2-0.1h0.1c0.1,0,0.1-0.1,0.2-0.1l0.1-0.1l0.2-0.2l0.1-0.1l0.2-0.2l0.1-0.1
	v-0.1c0-0.1,0.1-0.1,0.1-0.2V107c0-0.1,0.1-0.1,0.1-0.2c0.1-0.1,0.1-0.2,0.2-0.3c0-0.1,0.1-0.1,0.1-0.2s0.1-0.1,0.1-0.2
	s0.1-0.1,0.1-0.2l1.4-2.1c8.8-13.2,20.2-29.3,30.3-43.1c3-4.1,3.5-4.8,3.5-4.8l0.1-0.1l0.1-0.1c0.4-0.5,0.8-1.1,1.3-1.6
	c1-1.2,1.9-2.4,2.4-3.3c0.2-0.4,0.3-0.7,0.3-1c0-0.1-0.1-0.2-0.2-0.3h-0.2c-0.1,0-0.1-0.1-0.2-0.1h-2.4l-2,0.1
	c-4.6,0.2-9.3,0.4-13.8,0.7C204.2,51.5,203.4,52.6,202.7,53.6L202.7,53.6z M193.1,30.9c1.9-2.6,3.7-5.1,5.2-7.1
	c0.3-0.3,0.5-0.7,0.7-1l0.7-0.9l-0.2,4.4l-0.1,2.3c-0.1,2.5-0.2,5-0.3,7.4c1-0.1,2-0.1,3-0.2c0.1-2.4,0.2-4.7,0.3-7.1
	c0.1-3,0.3-5.9,0.4-8.7l0.1-2.7v-0.2c0-1,0.1-2.4-0.2-2.8c-0.1-0.1-0.1-0.1-0.2-0.1h-0.2c0,0-0.1,0-0.1,0.1h-0.1c0,0-0.1,0-0.1,0.1
	h-0.2c0,0-0.1,0-0.1,0.1l-0.1,0.1l-0.1,0.1l-0.1,0.1l-0.1,0.1l-0.1,0.1c-0.1,0.1-0.1,0.2-0.2,0.3l-0.1,0.1c0,0,0,0.1-0.1,0.1
	c-0.1,0.1-0.2,0.2-0.2,0.3l-0.1,0.1l-0.1,0.1c-0.1,0.2-0.2,0.3-0.4,0.5s-0.4,0.5-0.6,0.7c-0.1,0.2-0.3,0.4-0.4,0.5l-2.3,3.1
	c-0.2,0.3-0.5,0.6-0.7,1c-0.8,1.1-1.7,2.2-2.6,3.5C193.3,27.3,193.2,29.2,193.1,30.9L193.1,30.9z"/>
<path class="st2" d="M154.3,53.9c0-0.3,0.4-1.1,0.9-1.9c0.4-0.6,0.9-1.2,1.3-1.8c0.2-0.2,0.3-0.4,0.5-0.6l1.9-2.7
	c0.8-1.1,3.7-5.1,5.4-7.4c0.7-0.9,1.2-1.6,1.3-1.8c0.3-0.4,0.5-0.7,0.8-1.1c0.2-0.2,0.3-0.5,0.5-0.7c0.4-0.5,0.8-1.1,1.2-1.7
	l0.2-0.3l0.2-0.3c0,0,12.3-17,18.9-25.8c0.2-0.3,0.5-0.7,0.7-1l2.3-3.1c0.1-0.2,0.3-0.4,0.4-0.5c0.2-0.2,0.4-0.5,0.6-0.7
	c0.1-0.2,0.2-0.3,0.4-0.5l0.1-0.1l0.1-0.1c0.1-0.1,0.2-0.2,0.2-0.3c0,0,0-0.1,0.1-0.1l0.1-0.1c0.1-0.1,0.1-0.2,0.2-0.3l0.1-0.1
	l0.1-0.1l0.1-0.1l0.1-0.1l0.1-0.1c0,0,0.1,0,0.1-0.1h0.2l0.1-0.1h0.1l0.1-0.1h0.2c0.1,0,0.1,0.1,0.2,0.1c0.3,0.4,0.3,1.8,0.2,2.8
	v0.2L194.2,6c-0.1,2.8-0.3,5.7-0.4,8.7c-0.3,7.3-0.7,15-1,21.9c5.6-0.4,11.6-0.7,17.3-0.9l2-0.1h2.4c0.1,0,0.2,0.1,0.2,0.1h0.2
	c0.1,0.1,0.2,0.2,0.2,0.3c0,0.3-0.1,0.6-0.3,1c-0.5,0.9-1.4,2.1-2.4,3.3c-0.4,0.5-0.9,1.1-1.3,1.6L211,42l-0.1,0.1
	c0,0-0.5,0.7-3.5,4.8c-10.1,13.9-21.5,29.9-30.3,43.1l-1.4,2.1c0,0.1-0.1,0.1-0.1,0.2s-0.1,0.1-0.1,0.2s-0.1,0.1-0.1,0.2
	c-0.1,0.1-0.1,0.2-0.2,0.3c0,0.1-0.1,0.1-0.1,0.2v0.1c0,0.1-0.1,0.1-0.1,0.2v0.1l-0.1,0.1l-0.2,0.2c0,0,0,0.1-0.1,0.1l-0.2,0.2
	l-0.1,0.1c-0.1,0.1-0.1,0.1-0.2,0.1H174c-0.1,0-0.1,0.1-0.2,0.1s-0.1,0-0.2-0.1c-0.3-0.4-0.3-1.9-0.3-3.3v-0.7l0.1-3.1
	c0-0.8,0.1-1.6,0.1-2.3c0-0.7,0.1-1.4,0.1-2c0.2-4.3,0.4-8.7,0.6-13.1c0.2-5.4,0.5-10.7,0.7-15.9h-4.4c-1.3,0-2.5,0-3.8,0.1
	c-1.6,0-3.3,0.1-4.9,0.2h-1.1c-1.3,0.1-2.5,0.2-3.8,0.3c-0.5,0-2,0.1-2.3,0c-0.1,0-0.2-0.1-0.3-0.1l-0.1-0.1
	C154.3,54,154.3,54,154.3,53.9L154.3,53.9z M218.2,68.4l-0.1,0.1c-0.5,0.5-1.1,1.1-1.5,1.6s-0.7,1.1-0.5,1.4
	c0.2,0.4,0.9,0.7,1.8,0.8c2,0.2,4,0.4,5.7,0.6c2.5,0.2,4.5,0.4,5.2,0.5c-0.4,3.5-1.9,11.4-3.4,19.4c-0.4,1.9-0.7,3.8-1.1,5.7
	c-0.1,0.6-0.1,1.1,0.2,1.3c0.1,0,0.1,0.1,0.2,0h0.1c0.1,0,0.1,0,0.2-0.1c0,0,0.1,0,0.1-0.1c0.1,0,0.1-0.1,0.2-0.2l0.1-0.1l0.3-0.3
	c0.5-0.5,1-1.2,1.5-1.8c0.2-0.2,0.3-0.4,0.5-0.6l8.7-10.4l13.2-15.9l0.1-0.1l0.2-0.2c0.1-0.1,0.2-0.3,0.3-0.4
	c0.3-0.3,0.5-0.6,0.8-0.9c0.8-1,1.4-2,1.3-2.6c-0.1-0.4-0.7-0.6-1.4-0.7h-0.3c-3.2-0.4-6.7-0.9-10.2-1.4c0.3-3.2,1.2-8.8,2.1-14.5
	l0.4-3.1c0-0.2,0.1-0.4,0.1-0.7s0.1-0.5,0.1-0.8c0.1-0.7,0.3-1.4,0.3-2c0-0.5,0-1-0.1-1.1l-0.1-0.1H243c-0.1,0-0.1,0.1-0.2,0.1h-0.1
	c-0.1,0-0.1,0.1-0.2,0.2h-0.1c-0.1,0.1-0.2,0.2-0.4,0.3c-0.5,0.5-1.2,1.2-1.7,1.8c-0.2,0.2-0.4,0.5-0.6,0.7l-5.8,6.4l-2.5,2.8
	L219,67.6C218.7,67.8,218.5,68.1,218.2,68.4L218.2,68.4z M121.4,98.1v1.6c0.1,0.9,0.2,1.9,0.4,2.1h0.1c0.1,0,0.1,0,0.2-0.1
	s0.2-0.2,0.2-0.3v-0.1c0.1-0.1,0.2-0.3,0.3-0.4c0.1-0.2,0.2-0.3,0.3-0.5l0.7-1.4c4.7-8.7,10.8-19.4,16.3-28.7
	c1.6-2.8,1.9-3.2,1.9-3.2s0.1-0.1,0.1-0.2c0.2-0.3,0.4-0.7,0.7-1.1c0.5-0.8,1.1-1.6,1.3-2.2c0.1-0.2,0.2-0.5,0.1-0.6v-0.1
	c-0.2-0.2-0.7-0.2-1.2-0.2h-0.6l-1.2,0.2c-3.6,0.5-7.3,1-10.8,1.6c-0.2-4.5-0.5-9.5-0.7-14.2c-0.1-1.7-0.2-3.4-0.2-5l-0.1-1.7v-0.2
	c0-0.6-0.1-1.4-0.3-1.7c-0.1-0.1-0.1-0.1-0.2-0.1c0,0-0.1,0-0.1,0.1h-0.1l-0.2,0.2l-0.1,0.1l-0.1,0.1l-0.2,0.2v0.2
	c0,0.1-0.1,0.1-0.1,0.2c-0.1,0.2-0.3,0.4-0.4,0.6c-0.1,0.1-0.2,0.3-0.2,0.4c-0.1,0.2-0.2,0.3-0.3,0.5l-1.3,2.1v0.1
	c-0.1,0.2-0.2,0.4-0.4,0.6c-3.6,5.8-10.2,17.2-10.2,17.2c-0.3,0.5-0.6,1.1-0.9,1.5c-0.2,0.4-0.5,0.8-0.7,1.2c-0.2,0.4-3,5.1-3.6,6.1
	l-1,1.8c-0.1,0.1-0.1,0.2-0.2,0.3c-0.2,0.4-0.5,0.9-0.8,1.3c-0.3,0.5-0.5,1-0.5,1.2v0.1c0.1,0.1,0.1,0.1,0.2,0.1h1.3
	c0.8-0.1,1.6-0.3,2.3-0.4c0.1,0,0.2,0,0.4-0.1h0.3c1-0.1,2-0.3,3-0.4c1.8-0.2,3.5-0.4,5.2-0.5c0.2,3.3,0.4,6.7,0.5,10.1
	c0.2,3.7,0.4,7.3,0.6,10.8C121.3,97.7,121.3,97.9,121.4,98.1z M104.3,282.3c-1.6,0.3-3.1,0.7-4.8,1.1c-8.8,2-36.9,8.7-58.5,16.5
	l-0.2-0.4c3-3.4,5.9-6.8,8.7-10.3c-3.8-9.7-9.8-20.2-18.8-30.6c-0.7-0.1-1.3-0.1-2-0.1c-0.6,0-1.1,0-1.7,0.1h-0.4
	c-0.4,0-0.9,0.1-1.4,0.2c-0.2,0-0.3,0.1-0.5,0.1c-0.6,0.1-1.3,0.3-1.9,0.5c-3.4,0.9-6.8,3.7-9,7.5c-1.7,2.9-2.6,5.7-3,8.3
	c-4.8-7.3-2.8-16.1,1.3-19.5c0.3-0.2,0.6-0.5,0.9-0.7c0.1,0,0.1-0.1,0.2-0.1l0.1-0.1h0.1c0.2-0.1,0.4-0.2,0.6-0.4
	c0.1,0,0.1-0.1,0.2-0.1c0,0,0.1,0,0.1-0.1l0.1-0.1c0.1-0.1,0.3-0.1,0.4-0.2c0.1,0,0.2-0.1,0.3-0.1h0.1c0.2-0.1,0.3-0.1,0.5-0.2
	c0.1,0,0.2-0.1,0.3-0.1h0.2c0.1,0,0.3-0.1,0.4-0.1s0.2,0,0.3-0.1h0.2c0.1,0,0.3-0.1,0.4-0.1s0.3,0,0.4-0.1c0.2,0,0.3,0,0.5-0.1h1
	c0.6,0,1.2,0.1,1.9,0.1h0.2c0.6,0.1,1.3,0.2,1.9,0.4h0.1c0.7,0.2,1.3,0.4,2,0.7s1.4,0.6,2,0.9c-0.4-0.4-0.9-0.7-1.3-1.1
	c-0.1,0-0.1-0.1-0.2-0.1s-0.1-0.1-0.2-0.1c-0.4-0.3-0.9-0.7-1.3-1c-0.5-0.3-0.9-0.6-1.4-0.9c-0.1-0.1-0.2-0.1-0.4-0.2
	c-0.5-0.2-0.9-0.5-1.4-0.7h-0.1l-1.5-0.6c-0.1,0-0.3-0.1-0.4-0.1c-0.5-0.2-0.9-0.3-1.4-0.4h-0.2c-0.5-0.1-1-0.2-1.6-0.3h-0.4
	c-0.5,0-1-0.1-1.5-0.1h-1.5c-0.2,0-0.3,0-0.5,0.1h-0.8c-0.2,0-0.4,0.1-0.6,0.1h-0.4c-0.1,0-0.2,0-0.4,0.1c-0.5,0.1-0.9,0.2-1.4,0.4
	c-2.9,0.8-6.1,3.6-9,6.8c0.4-0.6,0.4-1.3,0.4-2v-2.9c0-0.3,0.1-0.7,0.1-1c0-0.1,0-0.3,0.1-0.4v-0.5c0-0.3,0.1-0.6,0.2-0.9
	c0-0.1,0.1-0.3,0.1-0.4c0-0.1,0-0.2,0.1-0.3c0-0.1,0-0.1,0.1-0.2c0.1-0.3,0.1-0.6,0.2-0.8c0-0.1,0.1-0.3,0.1-0.4
	c0-0.1,0.1-0.2,0.1-0.2v-0.1l0.3-0.9c0-0.1,0.1-0.3,0.2-0.4c0-0.1,0.1-0.1,0.1-0.2s0.1-0.1,0.1-0.2c0.1-0.2,0.2-0.5,0.3-0.7
	c0.1-0.1,0.1-0.2,0.2-0.3c0-0.1,0.1-0.1,0.1-0.2s0.1-0.1,0.1-0.2l0.3-0.6c0.1-0.1,0.1-0.2,0.2-0.3c0-0.1,0.1-0.1,0.1-0.2
	s0.1-0.1,0.1-0.2c0.1-0.2,0.2-0.4,0.4-0.5c0.1-0.1,0.1-0.2,0.2-0.3c0-0.1,0.1-0.1,0.1-0.2l0.1-0.1c0.1-0.2,0.3-0.3,0.4-0.5l0.3-0.3
	l0.1-0.1l0.1-0.1l0.4-0.4c0.1-0.1,0.2-0.2,0.3-0.2l0.1-0.1l0.1-0.1c0.1-0.1,0.3-0.2,0.4-0.3s0.2-0.1,0.3-0.2c0.1,0,0.1-0.1,0.2-0.1
	c0,0,0.1,0,0.1-0.1c0.2-0.1,0.3-0.2,0.5-0.3c0.1-0.1,0.2-0.1,0.3-0.1c0,0,0.1,0,0.2-0.1c0,0,0.1,0,0.1-0.1c0.1-0.1,0.3-0.1,0.4-0.2
	c0.1,0,0.2-0.1,0.3-0.1H9c0.1,0,0.3-0.1,0.4-0.1h1.2c6,0.2,12.4,4.1,18.3,13.6c-1.5-4.5-1.8-10.3,2.1-15.8c1.3-1.5,4.2-4.2,9.1-4.6
	c0.7-0.1,1.4-0.1,2-0.1h0.6c0.4,0,0.8,0,1.2,0.1c0.2,0,0.3,0.1,0.5,0.1h0.2c0.3,0.1,0.7,0.1,1,0.2c0.2,0.1,0.4,0.1,0.6,0.2
	c0.3,0.1,0.6,0.2,0.9,0.4l0.6,0.3c0.3,0.2,0.5,0.3,0.8,0.5c0.2,0.1,0.3,0.3,0.5,0.4c0.2,0.2,0.5,0.4,0.7,0.7l0.1,0.1
	c0.1,0.1,0.2,0.2,0.3,0.4l0.6,0.9c0,0.1,0.1,0.1,0.1,0.2c0.1,0.1,0.1,0.2,0.2,0.3c0.3,0.5,0.5,1.1,0.8,1.7c-0.5-0.1-1-0.2-1.5-0.2
	h-2.1c-0.4,0-0.7,0-1.1,0.1h-0.5c-0.4,0.1-0.8,0.1-1.3,0.2H45c-0.5,0.1-1,0.2-1.5,0.4c-0.1,0-0.1,0-0.2,0.1c-0.1,0-0.1,0-0.2,0.1
	c-0.4,0.1-0.7,0.2-1.1,0.4c-0.1,0-0.2,0.1-0.4,0.1h-0.1c-0.3,0.1-0.6,0.3-0.9,0.4c-0.1,0.1-0.3,0.1-0.4,0.2
	c-0.4,0.2-0.8,0.5-1.2,0.7c-3.5,2.5-5,5.1-6,9.1c-0.3,1.2-0.4,2.3-0.6,3.4c1.8-4,5.7-6.6,8.5-7.7c0.4-0.2,0.9-0.3,1.4-0.4
	c0.1,0,0.3,0,0.4-0.1c0.5-0.1,1-0.1,1.6-0.1h0.2c0.3,0,0.7,0,1,0.1h0.4c0.3,0,0.5,0.1,0.8,0.1c0.1,0,0.3,0.1,0.4,0.1
	c0.3,0.1,0.5,0.1,0.8,0.2c0.1,0,0.3,0.1,0.4,0.1l0.9,0.3h0.2c0.4,0.2,0.7,0.4,1.1,0.6c0.1,0,0.1,0.1,0.2,0.1l0.1,0.1
	c0.2,0.2,0.5,0.3,0.7,0.5l0.3,0.3l0.6,0.6l0.3,0.3c0.2,0.2,0.4,0.5,0.6,0.7c0,0,0,0.1,0.1,0.1c0,0.1,0.1,0.1,0.1,0.2
	c0.2,0.4,0.4,0.7,0.6,1.1c0,0,0,0.1,0.1,0.1v0.1c0.1,0.3,0.3,0.7,0.4,1c0,0.1,0.1,0.3,0.1,0.4v0.1c0.1,0.3,0.1,0.6,0.2,1
	c0,0.2,0,0.4,0.1,0.6v1.7c0,0.6-0.1,1.2-0.2,1.8c-0.5-0.5-1.1-0.9-1.6-1.3c-0.1-0.1-0.2-0.1-0.3-0.2c-0.1,0-0.1-0.1-0.2-0.1
	c-0.4-0.3-0.8-0.5-1.1-0.7l-0.6-0.3c-0.4-0.2-0.7-0.4-1.1-0.5h-0.1c-0.2-0.1-0.3-0.1-0.5-0.2c-0.4-0.2-0.8-0.3-1.2-0.4
	c-0.1,0-0.1,0-0.2-0.1c-0.1,0-0.2-0.1-0.2-0.1c-0.6-0.2-1.1-0.3-1.7-0.4h-0.4c-0.5-0.1-0.9-0.1-1.4-0.2h-2.3c-0.6,0-1.1,0.1-1.7,0.1
	c-2.1,0.3-4.4,1.4-6.4,3.2c0.2,0.1,0.5,0.2,0.7,0.4c6,4.2,15.7,12.6,23.3,22.4c0.2-0.3,0.4-0.5,0.6-0.8c0.3-0.3,0.5-0.7,0.8-1
	c2.7-3.7,5.3-7.6,7.8-11.4c-0.9-16.4-4.4-35.5-12-52.8c-0.5-0.1-1-0.1-1.4-0.1h-3.8c-0.3,0-0.5,0-0.7,0.1h-0.2
	c-0.3,0-0.6,0.1-0.8,0.1h-0.2c-0.2,0-0.3,0.1-0.5,0.1h-0.2c-0.2,0-0.4,0.1-0.5,0.1c-6.4,1.9-14.7,7-17.7,16c-1.7-2.1-2.6-5.3-2-9.2
	c0.4-3.4,2.9-7.2,5.1-9l1.2-0.9c0.1-0.1,0.2-0.1,0.2-0.1c0.1,0,0.1-0.1,0.2-0.1h0.1c0.3-0.2,0.5-0.3,0.8-0.4
	c0.1-0.1,0.2-0.1,0.3-0.2c0.1,0,0.1-0.1,0.2-0.1h0.1c0.2-0.1,0.5-0.2,0.7-0.3c0.1-0.1,0.3-0.1,0.4-0.2c0,0,0.1,0,0.1-0.1h0.2
	c0.2-0.1,0.4-0.1,0.6-0.2c0.1,0,0.3-0.1,0.4-0.1c0.1,0,0.1,0,0.2-0.1c0.3-0.1,0.5-0.1,0.8-0.2c0.2,0,0.4-0.1,0.6-0.1h0.1
	c0.2,0,0.5-0.1,0.7-0.1s0.3,0,0.5-0.1h0.2c0.3,0,0.5-0.1,0.8-0.1h2c0.8,0,1.6,0.1,2.3,0.1h0.4c0.8,0.1,1.6,0.2,2.4,0.4
	c0.1,0,0.2,0,0.3,0.1c0.8,0.2,1.6,0.4,2.4,0.7c0.1,0,0.1,0,0.2,0.1l2.4,0.9c-3.7-2.9-8.1-5-9.3-5.4c-0.1,0-0.3-0.1-0.6-0.2l-0.6-0.2
	c-0.1,0-0.2-0.1-0.3-0.1c-0.2-0.1-0.4-0.1-0.6-0.2c-0.1,0-0.2-0.1-0.3-0.1c-0.2-0.1-0.5-0.1-0.8-0.2c-0.1,0-0.2-0.1-0.3-0.1
	c-0.4-0.1-0.8-0.2-1.3-0.3h-0.2c-0.4-0.1-0.8-0.1-1.2-0.2H38c-0.3,0-0.7-0.1-1-0.1h-2.7c-0.3,0-0.6,0-0.9,0.1h-0.5
	c-0.4,0-0.8,0.1-1.1,0.2h-0.2c-0.5,0.1-0.9,0.2-1.4,0.3c-0.1,0-0.2,0-0.3,0.1h-0.1c-0.3,0.1-0.7,0.2-1,0.3c-0.2,0.1-0.3,0.1-0.5,0.2
	c-0.3,0.1-0.7,0.3-1,0.4c0,0-0.1,0-0.1,0.1c-0.1,0-0.2,0.1-0.3,0.1c-0.5,0.2-1,0.5-1.4,0.8c-3.3,2-6,4.5-8,6.5
	c-0.6-3.9-0.7-10.6,2.1-15.9c0.3-0.5,0.6-1,1-1.5c0,0,0-0.1,0.1-0.1l0.2-0.2c0.4-0.5,0.7-0.9,1.1-1.3l0.1-0.1l0.1-0.1
	c0.4-0.4,0.8-0.7,1.2-1c0,0,0.1,0,0.1-0.1c0.1,0,0.1-0.1,0.2-0.1c0.4-0.3,0.9-0.6,1.4-0.9c0.1,0,0.1-0.1,0.2-0.1c0,0,0.1,0,0.1-0.1
	c0.5-0.3,1-0.5,1.5-0.7H27c0.5-0.2,1.1-0.4,1.6-0.5c0.1,0,0.2-0.1,0.4-0.1c0.6-0.1,1.1-0.2,1.7-0.3h0.2c0.5-0.1,1.1-0.1,1.6-0.1h0.3
	c0.4,0,0.8,0,1.2,0.1h0.2c0.5,0,1,0.1,1.5,0.2h0.4c0.4,0.1,0.8,0.2,1.1,0.2c0.1,0,0.3,0.1,0.4,0.1h0.1c0.3,0.1,0.7,0.2,1,0.3
	c0.2,0.1,0.4,0.1,0.5,0.2c0.3,0.1,0.7,0.3,1,0.4c0,0,0.1,0,0.1,0.1c0.1,0,0.2,0.1,0.3,0.1c0.4,0.2,0.9,0.4,1.3,0.6H42
	c0,0,0.1,0,0.1,0.1l1.5,0.9c0.1,0.1,0.2,0.1,0.3,0.2c0.1,0,0.1,0.1,0.2,0.1c0.4,0.2,0.7,0.5,1.1,0.7c0.1,0.1,0.3,0.2,0.4,0.3
	l0.1,0.1c0.3,0.2,0.6,0.5,0.9,0.8l0.1,0.1c0.2,0.1,0.3,0.3,0.5,0.4c0.3,0.3,0.6,0.6,1,0.9l0.1,0.1l0.3,0.3c0.4,0.4,0.8,0.9,1.2,1.3
	l0.1,0.1l0.1,0.1c0.4,0.5,0.9,1.1,1.3,1.6l0.3,0.3c0,0.1,0.1,0.1,0.1,0.2l0.9,1.2c0.1,0.2,0.2,0.4,0.4,0.5l0.1,0.1
	c0.3,0.4,0.5,0.8,0.8,1.2l0.1,0.1l0.1,0.1c0.1,0.2,0.2,0.4,0.3,0.5c0.3,0.5,0.5,0.9,0.7,1.4c0,0.1,0.1,0.2,0.1,0.3
	c0.1,0.1,0.1,0.3,0.2,0.4c0.3,0.7,0.7,1.5,1,2.2c-0.1-1-0.2-2-0.2-3V201c0-0.2,0-0.5,0.1-0.7v-0.6c0-0.5,0.1-0.9,0.2-1.4
	c0-0.3,0.1-0.5,0.1-0.8c0-0.1,0-0.2,0.1-0.3V197l0.3-1.2c0.1-0.3,0.1-0.5,0.2-0.7c0-0.1,0.1-0.2,0.1-0.3s0-0.1,0.1-0.2l0.3-1.2
	c0.1-0.3,0.2-0.6,0.3-0.8c0-0.1,0-0.1,0.1-0.2c0.2-0.4,0.3-0.8,0.5-1.2c0.1-0.3,0.3-0.6,0.4-0.9v-0.1c0.2-0.4,0.4-0.8,0.6-1.1
	c0.2-0.3,0.3-0.6,0.5-0.9c0.2-0.4,0.4-0.7,0.7-1c0.2-0.3,0.4-0.5,0.6-0.8c0.2-0.3,0.5-0.6,0.7-0.9c0.2-0.2,0.4-0.5,0.6-0.7l0.8-0.8
	c0.2-0.2,0.4-0.4,0.7-0.6c0.3-0.2,0.6-0.5,0.9-0.7c0.2-0.2,0.5-0.4,0.7-0.5c0.3-0.2,0.6-0.4,0.9-0.5c0,0,0.1,0,0.1-0.1l0.6-0.3
	c0.3-0.2,0.6-0.3,0.9-0.4c0.1,0,0.1,0,0.2-0.1c0.2-0.1,0.4-0.2,0.6-0.2c0.3-0.1,0.6-0.2,0.9-0.2h0.1c0.1,0,0.2,0,0.2-0.1
	c0.2,0,0.4-0.1,0.5-0.1c0.3,0,0.6-0.1,0.9-0.1h0.9c0.6,0,1.1,0,1.7,0.1c4.9,0.7,11.8,3.9,12.4,14c-0.4-0.3-0.9-0.5-1.3-0.8
	c-0.1-0.1-0.3-0.1-0.4-0.2c-0.3-0.2-0.6-0.3-1-0.4c-0.1-0.1-0.3-0.1-0.4-0.2c-0.4-0.1-0.7-0.2-1.1-0.3h-0.2
	c-0.4-0.1-0.9-0.2-1.3-0.3h-0.4c-0.3-0.1-0.6-0.1-1-0.1h-2.1c-0.8,0-1.5,0-2.2,0.1c-4.3,0.5-8.9,2.9-12,7.1c-1.1,1.5-2.9,5.2-4,9.1
	c2.8-4,7.7-7.2,10.9-7.8c0.6-0.1,1.3-0.2,1.9-0.2h2.5c0.4,0,0.7,0.1,1.1,0.2h0.2c0.2,0,0.3,0.1,0.5,0.1c0.4,0.1,0.7,0.2,1,0.3
	c0.1,0,0.2,0.1,0.2,0.1c0.1,0,0.3,0.1,0.4,0.1c0.4,0.1,0.7,0.3,1.1,0.5c0.1,0,0.1,0.1,0.2,0.1s0.2,0.1,0.3,0.1
	c0.5,0.3,1,0.6,1.4,0.9c0,0,0.1,0,0.1,0.1l0.1,0.1c0.4,0.3,0.8,0.6,1.1,1c0.1,0.1,0.2,0.2,0.2,0.3s0.1,0.1,0.1,0.2
	c0.2,0.3,0.5,0.5,0.7,0.8c0.1,0.1,0.2,0.3,0.3,0.4c0,0.1,0.1,0.1,0.1,0.2l0.6,0.9l0.3,0.6c0.2,0.3,0.3,0.6,0.4,0.9
	c0.1,0.2,0.2,0.5,0.3,0.7c0.1,0.3,0.2,0.6,0.3,1c0.1,0.3,0.2,0.5,0.2,0.8c0.1,0.3,0.2,0.7,0.2,1c0.1,0.3,0.1,0.5,0.1,0.8
	c0.1,0.4,0.1,0.7,0.1,1.1v0.2c0,0.2,0,0.5,0.1,0.7v2.1c0,0.5-0.1,0.9-0.1,1.4v0.7c-0.1,0.7-0.2,1.5-0.4,2.2c-0.4-0.7-0.8-1.4-1.2-2
	c-0.1-0.1-0.2-0.3-0.3-0.4c-0.4-0.6-0.9-1.2-1.3-1.7c0,0,0-0.1-0.1-0.1l-0.1-0.1c-0.4-0.5-0.9-0.9-1.3-1.3l-0.1-0.1
	c-0.1-0.1-0.2-0.1-0.2-0.2c-0.5-0.4-1-0.9-1.5-1.2c-0.1-0.1-0.2-0.1-0.3-0.2c-0.5-0.3-0.9-0.6-1.4-0.9c-0.1-0.1-0.2-0.1-0.3-0.2
	c-0.5-0.3-1-0.6-1.6-0.8c-0.1,0-0.1-0.1-0.2-0.1h-0.1c-0.5-0.2-0.9-0.4-1.4-0.6h-0.1c-0.1,0-0.1,0-0.2-0.1c-0.5-0.2-1.1-0.3-1.6-0.4
	c-0.1,0-0.2-0.1-0.4-0.1l-1.5-0.3h-0.2c-0.5-0.1-1-0.1-1.6-0.1h-1.9c-0.5,0-1,0.1-1.4,0.2h-0.4c-0.4,0.1-0.7,0.1-1.1,0.2h-0.3
	c-0.4,0.1-0.8,0.2-1.2,0.4c0,0-0.1,0-0.1,0.1h-0.1c-0.3,0.1-0.6,0.3-0.9,0.4c-0.1,0-0.2,0.1-0.3,0.1c-0.3,0.2-0.7,0.4-1,0.6
	c2.9,4.7,5.8,10.5,8.1,15.1c0.3,0.5,0.5,1,0.8,1.5c3.3,6.7,6.3,13.8,8.6,21.3l0.9-1.5l1.8-3c0.1-0.2,0.2-0.4,0.4-0.6
	c0.1-0.1,0.2-0.3,0.2-0.4c21.3-37.3,38.1-76.6,51.2-117.1c0.7-2.3,1.5-4.6,2.2-7c0.1-0.2,0.3-0.8,0.6-1.4s1.3-1.1,1.5-1.2
	c4.6-1.4,10.9-2.5,18.2-3.3c1.7-0.2,3.5-0.3,5.3-0.5h0.5c1.7-0.1,3.5-0.2,5.2-0.3h0.4c0.3,0,0.7,0,1-0.1c0.4,0,0.9-0.1,1.3-0.1h0.4
	c2-0.1,4.1-0.1,6.1-0.1h2.6c2.2,0,4.5,0,6.7,0.1s4.3,0.2,6.4,0.3h0.3c4.2,0.3,8.4,0.6,12.5,1.1c1.7,0.2,3.3,0.5,4.8,0.7
	c0.2,0,0.3,0.1,0.5,0.1h0.5c0.4,0.1,0.9,0.2,1.3,0.2c0.7,0.1,1.4,0.3,2,0.4c0.3,0.1,0.5,0.1,0.8,0.2h0.1c0.8,0.2,1.5,0.3,2.3,0.5
	c0.1,0,0.2,0,0.2,0.1h0.1c0.5,0.1,1.1,0.3,1.6,0.4h0.3c0.3,0.1,1.1,0.5,1.4,1.1c0.1,0.2,0.2,0.3,0.2,0.5c0.1,0.3,0.2,0.5,0.3,0.7
	c0,0.1,0.1,0.2,0.1,0.3v0.1c0.1,0.4,0.3,1.1,0.6,1.8l0.1,0.3c0.5,1.5,1,3.2,1.1,3.7c0.1,0.4,0.3,0.8,0.4,1.2
	c1.3,3.9,2.5,7.8,3.9,11.7h0.1c12.4,36.2,27.8,71.3,47,104.9c0.1,0.2,0.2,0.4,0.4,0.6c0.2,0.3,0.3,0.6,0.5,0.9
	c3,5.2,6.1,10.3,9.4,15.4c0.9-4.7,2.4-9.3,4.5-14.1c3.6-8.2,10.6-16.7,16.3-21.2c-0.8-1-1.8-2-3-2.9c-0.2-0.1-0.4-0.3-0.7-0.5
	c-0.2-0.2-0.5-0.3-0.8-0.5h-0.2c-0.3-0.2-0.7-0.4-1-0.6h-0.2c-0.4-0.2-0.9-0.4-1.3-0.7l-1.5-0.6h-0.2c-0.5-0.2-1.1-0.3-1.6-0.5h-0.2
	l-1.8-0.3h-0.2c-0.7-0.1-1.3-0.1-2-0.1h-1.3c-0.2,0-0.4,0-0.6,0.1h-0.4c-0.2,0-0.4,0.1-0.6,0.1c-0.1,0-0.2,0-0.4,0.1
	c-0.2,0-0.4,0.1-0.6,0.1c-0.1,0-0.3,0.1-0.4,0.1c-0.2,0.1-0.4,0.1-0.6,0.2c-0.1,0-0.3,0.1-0.4,0.1c-0.2,0.1-0.5,0.2-0.7,0.3h-0.1
	c-0.1,0-0.1,0.1-0.2,0.1c-0.3,0.1-0.7,0.3-1,0.5h-0.2c-0.3,0.2-0.6,0.3-0.9,0.5c-0.1,0.1-0.2,0.1-0.3,0.2c0,0-0.1,0-0.1,0.1
	c-0.2,0.1-0.5,0.3-0.7,0.4c-0.1,0.1-0.2,0.1-0.3,0.2c-0.1,0-0.1,0.1-0.2,0.1c-0.2,0.2-0.4,0.3-0.7,0.5c-0.2,0.1-0.3,0.2-0.4,0.3
	c-0.2,0.2-0.4,0.3-0.7,0.5l-0.4,0.4l-0.6,0.6l-0.1,0.1l-0.1,0.1l-0.3,0.3c-0.2,0.2-0.5,0.4-0.7,0.7l-0.1,0.1l-0.4,0.4
	c-0.4,0.4-0.7,0.8-1.1,1.2c-1.1-8.8,2.1-17,9.6-18.8c1.9-0.5,3.7-0.6,5.4-0.4c0.1,0,0.2,0,0.4,0.1h0.2c0.4,0.1,0.7,0.1,1.1,0.2
	c0.2,0,0.3,0.1,0.5,0.1h0.1l0.9,0.3c0.2,0.1,0.4,0.1,0.6,0.2c0.3,0.1,0.6,0.2,0.9,0.4l0.6,0.3c0.3,0.1,0.6,0.3,0.8,0.5
	c0.2,0.1,0.3,0.2,0.5,0.3c0.3,0.2,0.6,0.4,0.8,0.6c0.1,0.1,0.2,0.1,0.2,0.2c0.1,0.1,0.2,0.1,0.2,0.2l1.2,0.9c0,0,0.1,0,0.1,0.1
	l0.1,0.1c0.4,0.3,0.7,0.6,1.1,1l0.3,0.3l0.1,0.1l0.1,0.1l0.7,0.7c0.1,0.1,0.2,0.2,0.3,0.4l0.1,0.1c0.2,0.2,0.4,0.5,0.6,0.7
	c0.1,0.1,0.2,0.3,0.4,0.4c0.2,0.2,0.4,0.5,0.6,0.7c0.1,0.2,0.2,0.3,0.4,0.5c0.2,0.3,0.4,0.5,0.5,0.8c0,0.1,0.1,0.1,0.1,0.2
	c0.1,0.1,0.1,0.2,0.2,0.2c0.2,0.3,0.4,0.6,0.5,0.8c0,0.1,0.1,0.1,0.1,0.2s0.1,0.1,0.1,0.2c0.2,0.4,0.5,0.8,0.7,1.2
	c-0.4-5.2-2.3-12.1-8.2-18.1c-0.5-0.6-1.1-1.1-1.7-1.5l-0.1-0.1c-0.1-0.1-0.2-0.2-0.3-0.2c-0.6-0.5-1.1-0.9-1.7-1.3
	c-0.1,0-0.1-0.1-0.2-0.1c-0.5-0.4-1.1-0.7-1.6-1c-0.1-0.1-0.3-0.2-0.4-0.2c-0.6-0.3-1.2-0.6-1.7-0.8c-0.1,0-0.1-0.1-0.2-0.1h-0.1
	c-0.5-0.2-1-0.4-1.6-0.6c-0.1,0-0.3-0.1-0.4-0.1c-0.6-0.2-1.1-0.4-1.7-0.5c-0.1,0-0.2-0.1-0.3-0.1c-0.5-0.1-1-0.2-1.4-0.3h-0.4
	c-0.5-0.1-1.1-0.2-1.6-0.2H281c-0.4-0.1-0.9-0.1-1.3-0.1h-0.3c-0.5,0-0.9,0-1.4-0.1h-2.9c-0.3,0-0.5,0-0.7,0.1h-0.1
	c-0.3,0-0.5,0-0.6,0.1H273c0.4-0.7,0.9-1.3,1.4-1.9c0.1-0.1,0.1-0.2,0.2-0.3c0.5-0.6,1-1.1,1.5-1.6l0.2-0.2l0.1-0.1
	c0.5-0.5,1.1-0.9,1.6-1.3l0.1-0.1c0,0,0.1,0,0.1-0.1c0.6-0.4,1.1-0.8,1.7-1.1c0.1,0,0.1-0.1,0.2-0.1c0.6-0.3,1.2-0.6,1.9-0.9h0.1
	c0.1,0,0.1-0.1,0.2-0.1c0.6-0.3,1.2-0.5,1.9-0.7c0.1,0,0.1,0,0.2-0.1h0.1c0.7-0.2,1.3-0.4,2-0.5h0.1c0.7-0.1,1.3-0.2,2-0.3h0.3
	c0.6-0.1,1.3-0.1,1.9-0.1h2.5c0.7,0,1.3,0.1,1.9,0.2h0.3l1.5,0.3c0.2,0,0.4,0.1,0.6,0.1c0.4,0.1,0.8,0.2,1.1,0.3
	c0.2,0.1,0.4,0.1,0.6,0.2c0.3,0.1,0.7,0.2,1,0.4c0.2,0.1,0.4,0.1,0.6,0.2c0.3,0.1,0.7,0.3,1,0.5c0.1,0,0.1,0.1,0.2,0.1
	s0.2,0.1,0.3,0.1c0.4,0.2,0.9,0.5,1.2,0.8c7.4,5.1,7.7,12.1,7.5,16.3c-0.2,3.8-1.4,9.8-2.6,15c1.7-4,4.1-8.8,7.6-12.7
	c3-3.3,8.1-6.5,12.6-6.7h2c0.3,0,0.5,0,0.7,0.1c0.2,0,0.5,0,0.7,0.1c0.2,0,0.5,0.1,0.7,0.1s0.5,0.1,0.7,0.1s0.4,0.1,0.6,0.1
	s0.3,0.1,0.4,0.1s0.1,0,0.2,0.1c0.2,0.1,0.4,0.1,0.6,0.2c0.2,0.1,0.4,0.1,0.6,0.2c0.2,0.1,0.3,0.1,0.5,0.2h0.1l0.6,0.3
	c0.2,0.1,0.3,0.2,0.5,0.2c0.1,0.1,0.2,0.1,0.3,0.2c0.1,0,0.2,0.1,0.3,0.1c0.1,0.1,0.3,0.1,0.4,0.2c0,0,0.1,0,0.1,0.1
	c0.2,0.1,0.4,0.2,0.5,0.3s0.3,0.2,0.4,0.3c0.2,0.1,0.3,0.2,0.5,0.4c0.1,0.1,0.3,0.2,0.4,0.3c0.2,0.1,0.3,0.3,0.5,0.4
	c0.1,0.1,0.2,0.2,0.4,0.3l0.3,0.3l0.2,0.2c0.1,0.1,0.2,0.2,0.3,0.4c0.1,0.2,0.3,0.3,0.4,0.5c0.1,0.1,0.1,0.2,0.2,0.2l0.1,0.1
	c0.1,0.2,0.3,0.3,0.4,0.5c0.1,0.1,0.2,0.3,0.3,0.4c0.1,0.2,0.2,0.3,0.4,0.5c0.1,0.1,0.1,0.2,0.2,0.3v0.1c0.1,0.2,0.2,0.4,0.3,0.5
	c0.1,0.1,0.1,0.3,0.2,0.4v0.1c0.1,0.1,0.1,0.2,0.2,0.3c0,0.1,0.1,0.1,0.1,0.2c0.1,0.1,0.1,0.3,0.2,0.4l0.3,0.6
	c0.1,0.1,0.1,0.3,0.2,0.4c0,0,0,0.1,0.1,0.1c0.1,0.1,0.1,0.3,0.2,0.4c0.1,0.1,0.1,0.3,0.1,0.4c0,0.1,0.1,0.2,0.1,0.4
	c0,0.1,0,0.1,0.1,0.2c0,0.1,0.1,0.3,0.1,0.4c0,0.1,0.1,0.3,0.1,0.4v0.1c0,0.1,0.1,0.3,0.1,0.4c0.1,0.2,0.1,0.4,0.2,0.6
	c0,0.1,0.1,0.3,0.1,0.4v0.2c0,0.1,0.1,0.2,0.1,0.4c0,0.1,0,0.2,0.1,0.3v0.1c0,0.2,0.1,0.3,0.1,0.5v0.5c0,0.1,0,0.2,0.1,0.4
	c0,0.1,0,0.3,0.1,0.4v4.7c0,0.2,0,0.4-0.1,0.5c-4.8-5.1-10.2-6.8-13.5-7.6c-0.1,0-0.3-0.1-0.5-0.1h-0.2c-0.1,0-0.3,0-0.4-0.1h-0.2
	c-0.2,0-0.3,0-0.5-0.1h-0.2c-0.3,0-0.5-0.1-0.8-0.1h-5.5c-0.4,0-0.7,0.1-1.1,0.1h-0.3c-0.5,0.1-0.9,0.2-1.4,0.3
	c-0.1,0-0.2,0.1-0.3,0.1c-0.3,0.1-0.7,0.2-1,0.3c-0.1,0-0.2,0.1-0.4,0.1h-0.1L320,217c-0.2,0.1-0.3,0.1-0.5,0.2
	c-0.3,0.1-0.6,0.3-0.9,0.4c-0.1,0.1-0.3,0.1-0.4,0.2c-0.4,0.2-0.8,0.5-1.2,0.7c-2.2,1.1-4.3,3.1-6.3,5.2c0.5-0.2,1.1-0.4,1.6-0.6
	c0.1,0,0.2-0.1,0.4-0.1c0.1,0,0.2-0.1,0.2-0.1c0.1,0,0.2-0.1,0.2-0.1c0.3-0.1,0.6-0.2,0.8-0.3c0.2-0.1,0.5-0.1,0.7-0.2h0.3
	c0.3-0.1,0.5-0.1,0.8-0.2c0.1,0,0.3-0.1,0.4-0.1s0.2,0,0.3-0.1c0.3-0.1,0.6-0.2,1-0.2c0.2,0,0.3-0.1,0.5-0.1h0.2
	c0.3-0.1,0.6-0.1,0.9-0.2c0.2,0,0.4-0.1,0.6-0.1h0.1c0.3,0,0.6-0.1,0.9-0.1c0.2,0,0.4,0,0.6-0.1h0.1c0.3,0,0.6,0,0.9-0.1h1.9
	c13.6,0.5,22.7,13.3,12.8,27.9c-0.8-7.5-6-17.9-17.6-20.3c-0.5-0.1-1.1-0.2-1.6-0.3c-0.1,0-0.3,0-0.4-0.1c-0.4-0.1-0.8-0.1-1.2-0.2
	h-0.4c-0.4,0-0.7-0.1-1.1-0.1h-1.5c-1,0-2,0.1-3,0.2H310c-1,0.1-2.1,0.3-3.2,0.5c-1.7,1.8-2.8,3.4-4.3,5.8c-2.6,4-6.6,13.6-7.9,24.6
	c-0.6,5.5-0.4,12.8,0.5,19.9c5.5,7.5,11.3,14.8,17.6,21.7c-17.8-1.5-37.3-2.7-58-3.6c6.9-4.4,11.6-8.5,11.6-11.5
	c0-1.6-2.7-2.7-7.1-3.4c-0.3,0-0.6-0.1-0.9-0.1H258c-0.3,0-0.5-0.1-0.8-0.1h-0.3c-0.4,0-0.8-0.1-1.2-0.1h-0.1c-0.5,0-1,0-1.5-0.1
	h-11c-0.6,0-1.3,0-1.9,0.1h-0.5c-0.8,0-1.7,0.1-2.6,0.1h-0.3c-0.8,0-1.6,0.1-2.4,0.1h-0.7c-0.7,0-1.4,0.1-2.1,0.1
	c-0.3,0-0.5,0-0.8,0.1c-0.7,0.1-1.5,0.1-2.2,0.2h-0.7l-6,0.6c-0.2,0-0.4,0-0.5,0.1h-0.3c-0.8,0.1-1.5,0.2-2.3,0.3
	c-0.3,0-0.7,0.1-1,0.1c-0.8,0.1-1.5,0.2-2.3,0.3h-0.3c-0.2,0-0.4,0-0.6,0.1c-1,0.1-2.1,0.3-3.1,0.4h-0.1c-1.1,0.1-2.2,0.3-3.4,0.5
	c-0.1,0-0.3,0-0.4,0.1c-0.1,0-0.3,0-0.4,0.1h-0.1c-0.8,0.1-1.6,0.2-2.4,0.4h-0.2c-0.1,0-0.3,0-0.4,0.1c-0.1,0-0.3,0-0.4,0.1
	c-0.8,0.1-1.6,0.3-2.4,0.4c-0.4,0.1-0.7,0.1-1.1,0.2c-0.9,0.2-1.9,0.3-2.8,0.5c-0.2,0-0.3,0.1-0.5,0.1h-0.2
	c-1.2,0.2-2.3,0.4-3.5,0.7c-0.1,0-0.3,0.1-0.4,0.1c-0.1,0-0.2,0-0.4,0.1l-2.7,0.6c-0.3,0.1-0.5,0.1-0.8,0.2c-0.1,0-0.2,0-0.4,0.1
	c-0.8,0.2-1.6,0.3-2.4,0.5c-0.1,0-0.2,0-0.3,0.1c-0.3,0.1-0.6,0.1-0.9,0.2c-0.9,0.2-1.7,0.4-2.6,0.6c-0.3,0.1-0.6,0.1-0.9,0.2
	c-1.2,0.3-2.3,0.6-3.5,0.9c-0.1,0-0.2,0-0.3,0.1c-0.1,0-0.2,0-0.3,0.1c-1,0.3-2,0.5-2.9,0.8c-0.2,0.1-0.4,0.1-0.7,0.2
	c-0.1,0-0.3,0.1-0.4,0.1c-0.8,0.2-1.6,0.4-2.4,0.7c-0.2,0-0.3,0.1-0.5,0.1c-0.2,0.1-0.5,0.1-0.7,0.2c-0.8,0.2-1.6,0.5-2.4,0.7
	c-0.4,0.1-0.7,0.2-1.1,0.3c-1,0.3-2,0.7-3.1,1v-0.1c5-3.6,6.9-5.2,10-8.1c1.8-1.7,3.1-3.5,4.1-5.1c1.5-2.6,1.8-4.7-0.2-5.5
	c-0.3-0.1-0.7-0.3-1-0.4c-0.1,0-0.1,0-0.2-0.1h-0.1c-0.3-0.1-0.6-0.2-0.9-0.2c-0.1,0-0.3-0.1-0.4-0.1c-0.4-0.1-0.8-0.2-1.2-0.2H174
	c-0.5-0.1-1-0.2-1.5-0.2H172c-0.4,0-0.8-0.1-1.3-0.1c-0.2,0-0.4,0-0.6-0.1c-0.5,0-1-0.1-1.6-0.1h-0.3c-0.7,0-1.3-0.1-2-0.1h-5.3
	c-0.8,0-1.7,0.1-2.6,0.1h-0.6c-0.7,0-1.4,0.1-2.2,0.1c-0.3,0-0.5,0-0.8,0.1c-0.8,0.1-1.7,0.1-2.5,0.2h-0.4c-1,0.1-2,0.2-3.1,0.3H148
	c-0.8,0.1-1.7,0.2-2.5,0.3c-0.3,0-0.6,0.1-0.9,0.1c-1,0.1-2,0.2-3,0.4h-0.4c-1.2,0.1-2.4,0.3-3.6,0.5c-0.3,0-0.6,0.1-0.9,0.1
	c-1,0.1-1.9,0.3-2.9,0.4c-0.3,0.1-0.7,0.1-1,0.2l-3.6,0.6H129c-1.3,0.2-2.7,0.5-4,0.7c-0.4,0.1-0.7,0.1-1.1,0.2
	c-1.1,0.2-2.1,0.4-3.2,0.6h-0.1c-0.3,0.1-0.5,0.1-0.8,0.2l-0.3,0.1c-1.4,0.3-2.7,0.5-4.1,0.8h-0.2l-4.5,0.9
	c-0.4,0.1-0.8,0.2-1.3,0.3c-1.1,0.2-2.3,0.5-3.5,0.7C105.2,282.1,104.7,282.2,104.3,282.3L104.3,282.3z"/>
</svg>
