<svg width="366" height="330" viewBox="0 0 366 330" fill="none" xmlns="http://www.w3.org/2000/svg">
<path d="M155 56.8999C155.3 56.9999 156.8 56.8999 157.2 56.8999C158.5 56.7999 159.6 56.6999 160.9 56.5999H162C163.6 56.4999 165.2 56.3999 166.8 56.3999C168.1 56.2999 169.2 56.2999 170.5 56.2999H171.2H174.8C174.7 59.4999 174.5 62.7999 174.4 66.0999C174.4 67.0999 174.3 68.0999 174.3 68.9999C174.3 69.8999 174.2 70.7999 174.2 71.6999C174.1 73.0999 174.1 74.4999 174 75.8999C173.9 77.9999 173.8 80.0999 173.7 82.0999C173.7 82.8999 173.6 83.6999 173.6 84.4999C173.6 85.0999 173.5 85.7999 173.5 86.4999C173.5 87.1999 173.4 87.9999 173.4 88.6999L173.3 91.6999V92.3999C173.3 93.7999 173.3 95.1999 173.6 95.5999C173.7 95.6999 173.7 95.6999 173.8 95.6999C173.9 95.6999 173.9 95.5999 174 95.5999H174.1C174.2 95.5999 174.2 95.5999 174.3 95.4999L174.4 95.3999L174.6 95.1999C174.7 95.1999 174.7 95.0999 174.7 95.0999L174.9 94.8999L175 94.9999V94.8999C175 94.7999 175.1 94.7999 175.1 94.6999V94.5999C175.1 94.4999 175.2 94.4999 175.2 94.3999C175.3 94.2999 175.3 94.1999 175.4 94.0999C175.4 93.9999 175.5 93.9999 175.5 93.8999C175.5 93.7999 175.6 93.7999 175.6 93.6999C175.6 93.5999 175.7 93.5999 175.7 93.4999L177.1 91.3999C178.7 88.9999 180.4 86.4999 182.1 83.9999C182.6 83.1999 183.2 82.4999 183.7 81.6999C184.2 80.9999 184.7 80.1999 185.2 79.4999C185.4 79.1999 185.5 78.9999 185.7 78.6999C191.2 70.7999 197.1 62.4999 202.7 54.6999C203.4 53.6999 204.2 52.5999 204.9 51.5999C205.2 51.1999 205.4 50.8999 205.7 50.4999C206 50.0999 206.3 49.6999 206.6 49.1999C207.6 47.7999 208.3 46.8999 208.8 46.1999C209.8 44.7999 210 44.4999 210 44.4999L210.1 44.3999L210.2 44.2999C210.6 43.7999 211.1 43.1999 211.5 42.6999C212.5 41.4999 213.4 40.3999 213.8 39.4999C214 39.0999 214.1 38.7999 214.1 38.4999C214.1 38.3999 214 38.2999 213.9 38.1999H213.7C213.7 38.1999 213.6 38.0999 213.5 38.0999H211.2L209.2 38.1999C209.2 38.1999 209.2 38.1999 209.1 38.1999C208.1 38.1999 207.1 38.2999 206.2 38.2999C205.7 38.2999 205.3 38.2999 204.8 38.3999C203.5 38.4999 202.3 38.4999 201 38.5999C200.9 38.5999 200.8 38.5999 200.7 38.5999C199.7 38.6999 198.7 38.6999 197.8 38.7999C195.9 38.8999 194.1 38.9999 192.3 39.0999C192.4 36.6999 192.5 34.0999 192.6 31.4999C192.7 29.7999 192.8 27.9999 192.8 26.1999C192.9 23.2999 193.1 20.4999 193.2 17.5999C193.3 14.6999 193.5 11.7999 193.6 9.0999L193.7 6.4999V6.6999C193.8 5.6999 193.8 4.3999 193.5 3.9999C193.4 3.9999 193.4 3.8999 193.3 3.8999H193.1L193 3.9999H192.9H192.7C192.7 4.0999 192.6 4.0999 192.6 4.0999L192.5 4.1999L192.4 4.2999L192.3 4.3999L192.2 4.4999L192.1 4.5999C192 4.6999 192 4.7999 191.9 4.8999V4.9999C191.8 4.9999 191.8 5.0999 191.8 5.0999C191.8 5.1999 191.7 5.2999 191.6 5.3999L191.5 5.4999L191.4 5.5999C191.2 5.7999 191.1 5.8999 191 6.0999C190.8 6.2999 190.6 6.5999 190.4 6.7999C190.3 6.8999 190.1 7.0999 190 7.2999L187.8 10.2999C187.6 10.5999 187.3 10.9999 187.1 11.2999C180.7 19.8999 168.6 36.4999 168.6 36.4999L168.4 36.7999L168.2 37.0999C167.8 37.6999 167.4 38.2999 167 38.7999C166.8 38.9999 166.7 39.2999 166.5 39.4999C166.2 39.8999 166 40.1999 165.7 40.5999C165.6 40.7999 165.1 41.4999 164.4 42.3999C162.7 44.5999 159.9 48.5999 159.1 49.5999L157.2 52.1999C157 52.3999 156.9 52.5999 156.7 52.7999C156.3 53.3999 155.8 53.9999 155.4 54.5999C154.9 55.3999 154.5 56.1999 154.5 56.4999C154.5 56.5999 154.5 56.5999 154.4 56.9999L154.5 57.0999C154.9 56.7999 154.9 56.8999 155 56.8999Z" fill="white"/>
<path d="M110.3 79.5999C111.1 79.4999 111.9 79.2999 112.5 79.1999C112.6 79.1999 112.7 79.1999 112.9 79.0999H113.2C114.2 78.9999 115.2 78.7999 116.1 78.6999C117.9 78.4999 119.5 78.2999 121.2 78.1999C121.3 79.8999 121.4 81.7 121.5 83.5C121.6 85 121.6 86.5999 121.7 88.0999C121.8 89.2999 121.8 90.4999 121.9 91.6999C122 94.0999 122.2 96.3999 122.3 98.6999C122.5 99.0999 122.5 99.3 122.6 99.5V101.1C122.7 102 122.8 103 123 103.2H123.1C123.2 103.2 123.2 103.2 123.3 103.1C123.4 103 123.5 102.9 123.5 102.8V102.7C123.6 102.6 123.7 102.4 123.8 102.3C123.9 102.1 124 102 124.1 101.8L124.8 100.4C126.2 97.9 127.6 95.2 129.2 92.4C130 90.9 130.9 89.4 131.7 87.9C133.2 85.3 134.7 82.6999 136.1 80.0999C137 78.4999 137.9 77 138.8 75.4C139.4 74.3 140 73.3 140.6 72.3C142.2 69.6 142.5 69.1999 142.5 69.1999C142.5 69.1999 142.6 69.1 142.6 69C142.8 68.7 143 68.3 143.3 67.9C143.8 67.1 144.4 66.3 144.6 65.8C144.7 65.6 144.8 65.2999 144.7 65.1999V65C144.5 64.8 144 64.8 143.5 64.8H142.9L141.7 65C140.6 65.2 139.4 65.3 138.3 65.5C137.3 65.6 136.4 65.8 135.4 65.9C135.3 65.9 135.3 65.9 135.2 65.9C133.9 66.1 132.7 66.3 131.4 66.5C131.3 66.5 131.2 66.5 131.1 66.5C130.9 62.1 130.6 57.1999 130.4 52.5999C130.3 50.8999 130.2 49.3 130.2 47.7L130.1 46C130.1 45.4 130 44.5999 129.8 44.2999C129.7 44.1999 129.7 44.2 129.6 44.2C129.6 44.2 129.5 44.1999 129.5 44.2999H129.4L129.2 44.5L129.1 44.5999L129 44.7L128.8 44.9V45.0999C128.8 45.1999 128.7 45.1999 128.7 45.2999C128.6 45.4999 128.4 45.7 128.3 45.9C128.2 46 128.1 46.1999 128.1 46.2999C128 46.4999 127.9 46.5999 127.8 46.7999L126.5 48.9V49C126.4 49.2 126.3 49.3999 126.1 49.5999C122.6 55.2999 116.1 66.4 116.1 66.4C115.8 66.9 115.5 67.5 115.2 67.9C115 68.3 114.7 68.6999 114.5 69.0999C114.3 69.4999 111.6 74.0999 111 75.0999L110 76.9C109.9 77 109.9 77.0999 109.8 77.1999C109.6 77.5999 109.3 78.1 109 78.5C108.7 79 108.5 79.4999 108.5 79.6999V79.8C108.6 79.9 108.6 79.9 108.7 79.9H110.3V79.5999Z" fill="white"/>
<path d="M216.9 74.2001C217.6 74.3001 218.3 74.3001 218.9 74.4001C220.1 74.5001 221.2 74.6001 222.3 74.8001C222.4 74.8001 222.4 74.8001 222.5 74.8001C224.9 75.0001 226.9 75.2001 227.6 75.3001C227.4 76.7001 227.1 78.9001 226.6 81.5001C226.3 83.2001 226 85.1001 225.6 87.0001C225.2 89.3001 224.7 91.8001 224.2 94.2001C223.8 96.1001 223.5 97.9001 223.1 99.8001C223 100.4 223 100.9 223.3 101.1C223.4 101.1 223.4 101.2 223.5 101.1H223.6C223.7 101.1 223.7 101.1 223.8 101C223.8 101 223.9 101 223.9 100.9C224 100.9 224 100.8 224.1 100.7L224.2 100.6L224.5 100.3C225 99.8001 225.5 99.1001 226 98.5001C226.2 98.3001 226.3 98.1001 226.5 97.9001L234.9 87.9001L235 87.8001L237.1 85.3001L244 77.0001L247.5 72.7001L247.9 72.2001L248 72.1001L248.2 71.9001C248.3 71.8001 248.4 71.6001 248.5 71.5001C248.8 71.2001 249 70.9001 249.3 70.6001C250.1 69.6001 250.7 68.6001 250.6 68.1001C250.5 67.7001 249.9 67.5001 249.2 67.4001H248.9C248.7 67.4001 248.5 67.4001 248.4 67.3001C247.5 67.2001 246.5 67.1001 245.5 66.9001C245 66.8001 244.5 66.8001 243.9 66.7001C242.7 66.5001 241.6 66.4001 240.4 66.2001C239.9 66.1001 239.4 66.1001 238.9 66.0001C239.2 62.9001 240.1 57.4001 241 51.8001L241.4 48.8001C241.4 48.6001 241.5 48.4001 241.5 48.1001C241.5 47.8001 241.6 47.6001 241.6 47.3001C241.7 46.6001 241.9 45.9001 241.9 45.3001C241.9 44.8001 241.9 44.3001 241.8 44.2001L241.7 44.1001H241.5C241.4 44.1001 241.4 44.2001 241.3 44.2001H241.2C241.1 44.2001 241.1 44.3001 241 44.4001H240.9C240.8 44.5001 240.7 44.6001 240.5 44.7001C240 45.2001 239.3 45.9001 238.8 46.5001C238.6 46.7001 238.4 47.0001 238.2 47.2001L232.5 53.4001L230.1 56.1001L223.2 63.7001L220.4 66.7001L218 69.4001C217.7 69.6001 217.5 69.9001 217.2 70.2001L217.1 70.3001C216.6 70.8001 216 71.4001 215.6 71.9001C215.2 72.4001 214.9 73.0001 215.1 73.3001C215.3 73.8001 216 74.1001 216.9 74.2001Z" fill="white"/>
<path d="M78.4 235.9C80.7 234.3 83.3 233.7 85.9 233.7C86.5 233.7 87.2 233.8 87.8 233.8C88.3 232.9 88.8 232 89.3 231.1C88.2 230.9 87 230.8 85.9 230.8C84.8 230.8 83.7 230.9 82.7 231.1C85.2 228.9 88.4 227.5 91.3 227.4C91.4 227.2 91.5 227 91.6 226.8C90.8 226 89.9 225.3 89 224.7C84.5 225.6 80.3 228.6 77.7 232.3C78.8 228.4 80.5 224.7 83.1 221.8C82 221.5 81 221.2 79.9 221.1C79.1 222.1 78.4 223.2 77.7 224.3C77.8 223.1 78 222 78.3 220.9C78.2 220.9 78.2 220.9 78.1 220.9C77.1 220.9 76.2 221 75.2 221.2C74.6 224.2 74.5 227.3 74.8 230.3C77.3 234.8 79.7 239.5 81.8 244.3C82.1 243.8 82.3 243.4 82.6 242.9C81.2 240.6 79.8 238.2 78.4 235.9Z" fill="#0400FF"/>
<path d="M79.1 218.1C79.5 217.1 79.9 216.1 80.4 215.2C79 215.7 77.6 216.4 76.3 217.3C76.2 217.6 76.1 217.9 76 218.2C76.7 218.1 77.4 218.1 78.1 218.1C78.4 218.1 78.7 218.1 79.1 218.1Z" fill="#0400FF"/>
<path d="M341.4 225.4C343.7 226.1 345.9 227.2 348 228.5C347.9 227.8 347.7 227.2 347.5 226.5C345.7 225.8 343.7 225.4 341.8 225.4C341.6 225.4 341.5 225.4 341.4 225.4Z" fill="#0400FF"/>
<path d="M222.2 74.7999C221.2 74.6999 220 74.4999 218.9 74.3999C208 89.3999 199 102.2 192.1 112.5C192.1 112.3 192.1 112.2 192.1 112C192.1 111.8 192.1 111.5 192.1 111.2C192.1 110.9 192.2 110.5 192.2 110.2C192.4 106 192.6 101.7 192.8 97.3999C192.9 95.6999 192.9 93.9999 193 92.2999C191.9 93.7999 190.9 95.2999 189.9 96.7999C189.9 96.9999 189.9 97.0999 189.9 97.2999C189.7 101.6 189.5 105.9 189.3 110.1C189.3 110.7 189.2 111.4 189.2 112.1C189.2 112.8 189.1 113.6 189.1 114.3V114.5C190.8 114.6 192.5 114.7 194.2 114.8C202.5 102.3 212.9 87.5999 222.2 74.7999Z" fill="#0400FF"/>
<path d="M61.9001 272.1C60.7001 272.1 59.5 272.2 58.3 272.4C59 273.3 59.8 274.2 60.5 275.1H60.6C61.3 274.1 62.0001 273.1 62.7001 272.2C62.5001 272.1 62.2001 272.1 61.9001 272.1Z" fill="#0400FF"/>
<path d="M132.7 104C133.2 103.9 133.8 103.9 134.3 103.8C134.9 102.8 135.4 101.8 136 100.7C134.8 100.8 133.7 100.9 132.5 101C132.6 102.1 132.6 103 132.7 104Z" fill="#0400FF"/>
<path d="M320.4 236.1C321.2 236.2 322 236.3 322.7 236.4C322.8 236.1 322.8 235.8 322.9 235.5C322.1 235.7 321.3 235.8 320.4 236.1Z" fill="#0400FF"/>
<path d="M49.2001 242.2C50.2001 239.4 52.2001 236.9 54.6001 235.5C53.1001 235.2 51.6001 235.2 50.1001 235.3C48.2001 237.2 46.8001 239.6 46.1001 242.2C47.2001 242.1 48.2001 242.1 49.2001 242.2Z" fill="#0400FF"/>
<path d="M251.5 91.2C251.4 92.8 252.5 94.2 254 94.4C256.5 94.8 259 95.1 261.5 95.4L261.4 95.5C261.3 95.6 261.3 95.6 261.2 95.7L248.3 111.2L243.2 117.3C244.5 110.4 245.7 104 246 100.9C246.1 99.7 245.6 98.6 244.6 98.1L242.7 100.4L242.6 100.5C242.8 100.5 243 100.5 243.1 100.6C242.7 104 241.2 111.7 239.8 119.5C239.4 121.4 239.1 123.2 238.7 125.1C238.6 125.7 238.6 126.2 238.9 126.4C239 126.4 239 126.4 239 126.4C239 126.4 239 126.4 239.1 126.4H239.2C239.3 126.4 239.3 126.4 239.4 126.3C239.4 126.3 239.5 126.3 239.5 126.2C239.6 126.2 239.6 126.1 239.7 126L239.8 125.9L240.1 125.6C240.6 125.1 241.1 124.4 241.6 123.8C241.8 123.6 241.9 123.4 242.1 123.2L250.6 113L263.5 97.5L263.6 97.4L263.8 97.2C263.9 97.1 264 96.9 264.1 96.8C264.4 96.5 264.6 96.2 264.9 95.9C265.7 94.9 266.3 93.9 266.2 93.4C266.1 93 265.5 92.8 264.8 92.7H264.5C261.4 92.3 258 91.8 254.5 91.3C254.6 89.8 254.9 87.6 255.3 85.2L251.8 89.5C251.6 90.2 251.6 90.8 251.5 91.2Z" fill="#0400FF"/>
<path d="M187.9 295C187.7 295 187.6 295 187.4 295C186.6 296 185.8 297 185 297.8C185.4 297.8 185.9 297.9 186.3 297.9C188.8 297.2 191.2 296.6 193.7 296C192 295.4 190.2 295.3 188.7 295.2C188.5 295 188.2 295 187.9 295Z" fill="#0400FF"/>
<path d="M253.5 77.4001L253.4 78.0001C253.3 78.6001 253.2 79.2001 253.1 79.7001C254.1 79.8001 255.1 80.0001 256 80.1001C256.1 79.2001 256.3 78.3001 256.4 77.3001L256.8 74.3001C256.8 74.1001 256.9 73.9001 256.9 73.6001C256.9 73.3001 257 73.1001 257 72.8001C257.1 72.1001 257.3 71.4001 257.3 70.8001C257.3 70.3001 257.3 69.8001 257.2 69.7001L257.1 69.6001H257C256.9 69.6001 256.9 69.7001 256.8 69.7001H256.7C256.6 69.7001 256.6 69.8001 256.5 69.9001H256.4C256.3 70.0001 256.2 70.1001 256 70.2001C255.5 70.7001 254.8 71.4001 254.3 72.0001C254.1 72.2001 253.9 72.5001 253.7 72.7001L248 78.9001C249.2 79.1001 250.3 79.2001 251.5 79.4001L253.5 77.4001Z" fill="#0400FF"/>
<path d="M307.8 306.1C308.6 306.2 309.4 306.2 310.3 306.3C308.5 304.1 306.6 301.9 304.7 299.5C305 301.2 305.5 303 306.7 304.7C307.1 305.2 307.4 305.6 307.8 306.1Z" fill="#0400FF"/>
<path d="M331.1 239.5C331 239.2 330.8 238.9 330.7 238.6C330.5 238.7 330.3 238.8 330 238.9C330.4 239.1 330.7 239.3 331.1 239.5Z" fill="#0400FF"/>
<path d="M56.2 234.7C57.8 234.1 59.5 233.8 61.4 233.8C62 233.8 62.7 233.8 63.4 233.9C58.5 235.4 54.1 238.3 50.7 241.9C51.4 241.8 52.1 241.7 52.9 241.7C53.6 241.7 54.3 241.7 54.9 241.8C57.8 239.3 61.1999 237.4 64.6999 236.4C65.0999 236.3 65.5 236.2 66 236.1C65.6 234.4 65.2 232.7 64.8 230.9C63.7 230.7 62.6 230.6 61.5 230.6C59.4 230.6 57.2999 230.9 55.2999 231.7C54.5999 232 53.8999 232.3 53.2999 232.7C53.7999 233.5 54.2999 234.3 54.7999 235.3C55.1999 235.2 55.7 234.9 56.2 234.7Z" fill="#0400FF"/>
<path d="M233.5 95C233.2 95.2 233 95.5 232.7 95.8L232.6 95.9C232.1 96.4 231.5 97 231.1 97.5C230.7 98 230.4 98.6 230.6 98.9C230.8 99.3 231.5 99.6 232.4 99.7C232.7 99.7 233 99.8 233.3 99.8C233.7 97.8 234 95.9 234.3 94.3L233.5 95Z" fill="#0400FF"/>
<path d="M270.3 302.8C269.9 303.2 269.5 303.5 269.2 303.8C273.2 304 277.2 304.2 281.1 304.4C279.1 302.3 275.5 301.7 271.8 301.4C271.2 301.9 270.7 302.4 270.3 302.8Z" fill="#0400FF"/>
<path d="M89.2001 216.5C89.0001 216.3 88.7001 216.1 88.4001 216C88.3001 216.7 88.2001 217.4 88.1001 218C88.7001 217.7 89.3001 217.5 90.0001 217.2C89.8001 216.9 89.5001 216.7 89.2001 216.5Z" fill="#0400FF"/>
<path d="M87.4 218.4C86.9 217.6 86.3 216.8 85.6 216C84.4 216.7 83.3 217.5 82.2 218.5C83.3 218.8 84.4 219.1 85.5 219.5C86.1 219.1 86.7 218.7 87.4 218.4Z" fill="#0400FF"/>
<path d="M63.7999 296C62.7999 294.3 61.6999 292.7 60.5999 291C60.4999 291 60.3999 291 60.3999 291.1C61.2999 293 62.0999 294.9 62.5999 296.8C62.5999 296.9 62.6999 297.1 62.6999 297.2C62.9999 298.3 62.9999 299 62.6999 299.9C63.0999 300.6 63.4999 301.3 63.9999 302.1C64.4999 302 64.8999 301.8 65.3999 301.7C65.8999 301.5 66.3999 301.4 66.8999 301.2C66.1999 299.9 65.3999 298.7 64.6999 297.5C64.2999 296.9 63.9999 296.5 63.7999 296Z" fill="#0400FF"/>
<path d="M173 77.4001C172.8 77.6001 172.7 77.8001 172.5 78.0001C172.1 78.6001 171.6 79.2001 171.2 79.8001C170.7 80.6001 170.3 81.4001 170.3 81.7001C170.3 81.8001 170.3 81.8001 170.2 82.2001L170.3 82.3001C170.4 82.3001 170.5 82.4001 170.6 82.4001C170.7 82.4001 170.9 82.4001 171.2 82.4001C171.8 82.4001 172.5 82.4001 172.8 82.4001C173.1 82.4001 173.3 82.4001 173.6 82.3001C173.7 80.2001 173.8 78.2001 173.9 76.1001L173 77.4001Z" fill="#0400FF"/>
<path d="M91.1 213.9C91 213.9 90.9 214 90.7 214C90.8 214.1 90.9 214.1 90.9 214.2C91.8 214.9 92.5 215.7 93.1 216.5C94 216.4 95 216.3 95.9 216.3C96.2 216.3 96.5 216.3 96.8 216.3C97.3 215.4 97.7 214.4 98.2 213.5C97.4 213.4 96.6 213.4 95.9 213.4C94.4 213.3 92.7 213.5 91.1 213.9Z" fill="#0400FF"/>
<path d="M328.5 235.1C328.2 235.1 327.9 235.1 327.6 235.1C327.1 235.1 326.5 235.1 326 235.2C325.6 235.8 325.2 236.4 324.8 237C325.8 237.3 326.8 237.6 327.7 237.9C328.2 237.2 328.6 236.6 329.1 235.9C328.8 235.6 328.6 235.3 328.5 235.1Z" fill="#0400FF"/>
<path d="M307.8 213.8C308.3 212.9 308.8 212 309.4 211.1C308.7 211 307.9 210.9 307.2 210.8C307 211.8 306.8 212.7 306.6 213.7C307 213.7 307.4 213.8 307.8 213.8Z" fill="#0400FF"/>
<path d="M205.7 50.7001C205.7 51.0001 205.7 51.4001 205.7 51.7001C206.7 51.6001 207.7 51.6 208.6 51.5C208.7 49.8 208.8 48.1 208.8 46.3C208.3 47 207.6 48 206.6 49.3C206.3 49.8 206 50.3001 205.7 50.7001Z" fill="#0400FF"/>
<path d="M68.9001 292.2L68.5 292.8L66 289.6C65.9 289.5 65.9001 289.5 65.8001 289.4C64.8001 289.7 63.8 290 62.8 290.3C66 293.4 69 296.5 71.6 299.6C72.6 299.3 73.6 299 74.6 298.7C72.9 296.5 70.9001 294.3 68.9001 292.2Z" fill="#0400FF"/>
<path d="M296 219.5C296.2 219.5 296.3 219.6 296.5 219.6C294.1 218.2 291.3 217.3 288.4 217C287.6 217.9 286.9 218.9 286.2 219.9C286.5 219.9 286.7 219.9 287 219.9C288.6 219.2 290.4 218.9 292.2 218.9C293.5 219 294.8 219.2 296 219.5Z" fill="#0400FF"/>
<path d="M192.6 79.7C192 79.1 191.3 78.8 190.5 78.8H186.2C186 78.8 185.8 78.8 185.7 78.8C185.5 79.1 185.3 79.3 185.2 79.6C185.2 80.3 185.1 81 185.1 81.8C185.5 81.8 185.9 81.8 186.3 81.8H190.6C190.5 84.9 190.3 88.1 190.2 91.3C191.2 89.8 192.3 88.3 193.3 86.8C193.4 85.2 193.5 83.5 193.5 81.9C193.4 81.1 193.2 80.3 192.6 79.7Z" fill="#0400FF"/>
<path d="M205 38.4L205.1 38.2999C205.2 38.1999 205.3 38 205.4 37.9C205.5 37.7 205.6 37.6 205.7 37.4L206.3 36.5999C206.3 37.2999 206.2 37.8999 206.2 38.5999C207.2 38.5999 208.2 38.5 209.1 38.5C209.2 37.3 209.2 36.1 209.3 34.9L209.4 32.2999V32C209.5 31 209.5 29.6999 209.2 29.2999C209.1 29.2999 209.1 29.2 209 29.2H208.8L208.7 29.2999H208.6L208.5 29.4H208.3C208.3 29.5 208.2 29.5 208.2 29.5L208.1 29.6L208 29.7L207.9 29.7999L207.8 29.9L207.7 30C207.6 30.1 207.6 30.1999 207.5 30.2999L207.4 30.4C207.3 30.4 207.3 30.5 207.3 30.5C207.3 30.6 207.2 30.6999 207.1 30.7999L207 30.9V31C206.8 31.2 206.7 31.3 206.6 31.5C206.4 31.7 206.2 32 206 32.2C205.9 32.3 205.7 32.5 205.6 32.7L203.4 35.7C203.2 36 202.9 36.4 202.7 36.7C202.2 37.4 201.6 38.1 201.1 38.9C202.4 38.8 203.6 38.8 204.9 38.7C204.9 38.6 205 38.5 205 38.4Z" fill="#0400FF"/>
<path d="M81.0999 212C80.5999 211.7 80.0999 211.3 79.5999 211C79.0999 211.6 78.6999 212.2 78.3999 212.8C79.1999 212.5 80.1999 212.2 81.0999 212Z" fill="#0400FF"/>
<path d="M205 64.5999C205 65.3999 205.3 66.1999 205.9 66.7999C206.2 67.0999 206.5 67.2999 206.9 67.3999C207.6 66.4999 208.2 65.4999 208.9 64.5999C208.6 64.5999 208.3 64.5999 207.9 64.6999C208 61.3999 208.2 57.9999 208.4 54.3999C207.4 54.4999 206.4 54.4999 205.5 54.5999C205.5 54.8999 205.5 55.1999 205.5 55.4999C205.3 58.5999 205.2 61.6999 205 64.5999Z" fill="#0400FF"/>
<path d="M79.9 247.5C79.9 247.4 79.8 247.3 79.8 247.2C79.8 247.3 79.8 247.4 79.9 247.5Z" fill="#0400FF"/>
<path d="M220.3 67L223.1 64C219.7 64.1 216.2 64.3 212.7 64.5C212 65.5 211.2 66.5 210.5 67.6C213.6 67.3 216.9 67.1 220.3 67Z" fill="#0400FF"/>
<path d="M315.3 234.7C316.1 234.4 316.9 234.1 317.7 233.8C317.6 233.5 317.4 233.1 317.2 232.8C316.5 233.5 315.9 234.1 315.3 234.7Z" fill="#0400FF"/>
<path d="M85.1 287.7C84.8 288.8 83.4 290.2 82.8 291.1C82 292.3 81.3 293.4 80.5 294.5C79.8 295.6 79 296.6 78.2 297.7C79.7 297.3 81.3 296.8 82.8 296.4C82.8 296.3 82.9 296.3 82.9 296.2C83.7 295 84.5 293.9 85.3 292.7C85.4 292.5 85.7 292.2 85.9 291.9C86.7 290.9 87.7 289.7 88 288.3C88.4 286.7 88.2 284.9 88 283.2C87 283.4 86.1 283.7 85.1 283.9C85.3 285.3 85.4 286.6 85.1 287.7Z" fill="#0400FF"/>
<path d="M313.1 231.6C313.5 230.6 314 229.6 314.5 228.5C314.3 228.3 314.2 228 314 227.8C313.7 229.1 313.4 230.4 313.1 231.6Z" fill="#0400FF"/>
<path d="M25.6001 264.7C27.3001 263.8 29.1001 263.4 31.0001 263.4C33.7001 263.4 36.4001 264.2 38.8001 265.4C37.1001 263.7 35.0001 262.3 32.8001 261.4C32.1001 261.2 31.4001 261.1 30.7001 261.1C28.8001 261.1 26.9001 261.7 25.2001 263.2C23.2001 264.8 21.9001 267.4 21.0001 269.8C20.9001 270.2 20.7001 270.6 20.6001 271C21.3001 268.4 23.0001 266.2 25.6001 264.7Z" fill="#0400FF"/>
<path d="M43.9 271.2C42.6 269.6 42.1 268.7 40 268.7C40 268.7 40 268.7 39.9 268.7C39.7 268.7 39.5 268.7 39.3 268.7C40.3 269.6 41.2 270.6 42.1 271.6C39.5 270.5 36.7 269.8 33.8 269.7C32.7 270.1 31.6 270.6 30.7 271.2C29.7 271.9 28.8 272.7 27.9 273.5C29.5 272.9 31.2 272.6 33.1 272.6C33.3 272.6 33.4 272.6 33.6 272.6C38.4 272.8 43.2 274.7 46.6 278.1C44.2 276.9 41.5 276.1 38.8 276.1C36.9 276.1 35.1 276.5 33.4 277.4C26.3 281.4 26.2 291.5 30.3 297.7C31.1 292.4 33.9 286.9 38.5 283.9C40.5 282.6 43 281.8 45.4 281.5C46.2 281.4 47 281.4 47.8 281.4C47.8 281.4 47.8 281.4 47.9 281.4C50 281.4 50.5 282.3 51.8 283.8C51.2 281.9 50.3 280 49.3 278.1C47.5 275.8 45.7 273.4 43.9 271.2ZM36.9 281.4C34.4 283.1 32.2 285.5 30.5 288.3C30.5 287.3 30.6 286.3 30.8 285.4C31.2 283.7 32.3 281.3 34.8 279.9C35.9 279.3 37.3 278.9 38.7 278.9C39.6 278.9 40.5 279 41.5 279.2C39.8 279.8 38.3 280.5 36.9 281.4Z" fill="#0400FF"/>
<path d="M302.3 242.3C303.2 241.3 304 240.4 304.9 239.5C304 239.4 303.1 239.3 302.3 239.3C301.6 239.3 300.8 239.3 300.1 239.4C298.5 239.6 297 240 295.6 240.5C295.4 241.1 295.2 241.6 295 242.2C294.8 242.9 294.5 243.6 294.3 244.3C296.1 243.3 298.1 242.5 300.4 242.3C301.1 242.4 301.7 242.3 302.3 242.3Z" fill="#0400FF"/>
<path d="M73.8 302.3C74.4 303 75.2 303.4 76.1 303.4H76.2C77.1 303.4 78 302.9 78.5 302.1C78.9 301.5 79.4 300.8 79.8 300.2C77.7 300.8 75.6 301.4 73.5 302.1C73.7 302.2 73.8 302.3 73.8 302.3Z" fill="#0400FF"/>
<path d="M19.8 274.2C19.8 274.4 19.8 274.7 19.8 275C19.8 274.3 19.9 273.7 20 273C19.9 273.4 19.9 273.8 19.8 274.2Z" fill="#0400FF"/>
<path d="M339 228.7C339.6 228.5 340.3 228.5 341 228.4C339 227.7 337 227.3 334.9 227.1C335.4 227.9 335.8 228.8 336.1 229.7C337 229.3 338 228.9 339 228.7Z" fill="#0400FF"/>
<path d="M39.7 226.2C40.2 223.1 41.5 219.9 44.3 217.7C46.3 216.2 48.9 215.4 51.7 215.4C52.9 215.4 54.2 215.5 55.5 215.8C57.3 216.2 59 217 60.6 217.9C60.6 217.8 60.5 217.7 60.5 217.7C56.3 215.2 51.7 213.5 46.8 213.5C46.7 213.5 46.7 213.5 46.6 213.5C46.3 213.5 46 213.5 45.7 213.5C44.5 214 43.4 214.6 42.4 215.3C37.4 219 36 225.7 36.3 231.7C36.8 231.3 37.3 231 37.9 230.7C38.3 229.2 38.9 227.6 39.7 226.2Z" fill="#0400FF"/>
<path d="M236.8 97.1001C236.6 98.0001 236.5 99.0001 236.3 100C236.9 100.1 237.5 100.1 238.1 100.2C238.5 100.2 238.8 100.3 239.1 100.3L240.5 98.6001L241.4 97.5001C240.5 97.4001 239.5 97.3001 238.4 97.2001C237.8 97.2001 237.3 97.2001 236.8 97.1001Z" fill="#0400FF"/>
<path d="M307.5 298.3C307.5 297.8 307.4 297.4 307.4 296.9C307 296.9 306.7 296.8 306.3 296.8C306.7 297.4 307.1 297.9 307.5 298.3Z" fill="#0400FF"/>
<path d="M315.7 217.2C316.5 217.9 317.2 218.7 317.9 219.5C318.8 219.4 319.6 219.4 320.5 219.4C320.7 219.2 320.8 219 321 218.8C320.2 217.5 319.1 216.3 318 215.2C317.2 215.4 316.5 215.7 315.8 216C315.7 216.4 315.7 216.8 315.7 217.2Z" fill="#0400FF"/>
<path d="M311.6 311.2C313.8 314 315.9 316.5 318 319C305.1 318 291.6 317.2 276.9 316.5C277.2 316.2 277.6 315.9 277.9 315.6L278 315.5C279.6 314 282.1 311.8 282.5 308.8C282.6 308.3 282.5 307.9 282.5 307.5C281.5 307.4 280.5 307.4 279.5 307.3C279.6 307.6 279.7 308 279.6 308.4C279.4 310.4 277.3 312.2 276 313.4C273.7 315.5 271 317.3 268.4 319C287.3 319.8 306.2 320.9 325 322.5C321.2 318.3 317.6 314 314.1 309.6C312.8 309.5 311.5 309.4 310.2 309.3C310.7 309.9 311.2 310.6 311.6 311.2Z" fill="#0400FF"/>
<path d="M133.3 95.2999C133.4 95.0999 133.5 94.8999 133.7 94.6999C133.9 94.2999 134.2 93.9999 134.3 93.5999C134.4 93.4999 134.5 93.2999 134.6 93.0999C134.6 92.9999 138 87.1999 141.2 81.8999C140.7 81.9999 140.1 82.0999 139.6 82.1999L137.4 82.5999C134.8 86.9999 132.4 91.0999 132.1 91.6999C132.2 93.4999 132.3 95.1999 132.4 96.9999C132.8 96.3999 133 95.8999 133.1 95.6999C133.1 95.4999 133.2 95.3999 133.3 95.2999Z" fill="#0400FF"/>
<path d="M183.9 294.7C182.5 294.6 181.1 294.6 179.7 294.6C165.3 294.6 151.1 296.9 140.2 298.8C138.3 299.1 136.4 299.5 134.5 299.9C133.1 300.2 131.8 300.4 130.4 300.7C129.3 300.9 128.2 301.1 126.9 301.4C126.5 301.5 126 301.6 125.6 301.7C125.1 301.8 124.5 302 124.1 302C124 302 124 302 123.9 301.9C123.5 301.7 122.8 301.5 121.9 301.5C121.6 301.5 121.3 301.5 120.9 301.6C104.6 304.7 88.3 309.4 73.1 314.1C71.4 314.6 69.7 315.2 68.2 315.7C68.3 315.6 68.3 315.5 68.4 315.4C68.5 315.3 68.6 315.2 68.7 315C69.1 314.6 69.6 314 70 313.4L70.1 313.2C70.8 311.9 70.9 311.1 70.5 309.7C70.5 309.6 70.4 309.5 70.4 309.3C69.9 307.4 69.1 305.4 68.2 303.6C67.5 303.8 66.9 304 66.2 304.2C65.9 304.3 65.6 304.4 65.4 304.5C66.3 306.3 67.2 308.2 67.6 310.1C67.9 311.3 68 311 67.4 312C67.1 312.5 66.5 313.1 66.1 313.6C65.2 314.6 64.4 315.7 63.5 316.7C62.9 317.4 59.1 321.1 59.7 321.7H59.8C60.8 321.7 66.3 319.4 67.1 319.1C69.4 318.4 71.6 317.6 73.9 316.9C89.4 312.1 105.4 307.5 121.5 304.4C121.6 304.4 121.8 304.4 121.9 304.4C122.6 304.4 123.2 304.9 124 304.9C125.1 304.9 126.4 304.4 127.5 304.2C128.7 304 129.8 303.7 131 303.5C134.2 302.9 137.5 302.2 140.7 301.6C153.5 299.3 166.6 297.4 179.7 297.4C180.2 297.4 180.6 297.4 181.1 297.4C181.7 296.9 182.8 295.9 183.9 294.7Z" fill="#0400FF"/>
<path d="M262.2 301.1C259.6 301.1 256.9 301.2 253.8 301.3C236.5 302 221.8 303.9 208.7 306.9C203.2 308.2 197.7 309.6 192.3 311.1C195.4 308.1 200 302.6 197 298.2C195.9 298.5 194.8 298.7 193.6 299C194 299.2 194.3 299.5 194.5 299.8C196.8 302.9 190.6 308.6 188.7 310.4C186 312.9 182.5 314.9 180 317.5C189.8 314.8 199.5 312.1 209.4 309.8C224 306.4 239.1 304.9 254 304.3C256.7 304.2 259.5 304.1 262.2 304.1C262.8 304.1 263.4 304.1 264.1 304.1C265.4 303.2 266.6 302.3 267.8 301.3C265.9 301.1 264.1 301.1 262.2 301.1Z" fill="#0400FF"/>
<path d="M19.3 279.9C19.6 279.6 19.8 279.3 20.1 279.1C20 278.6 19.9 278 19.9 277.4C19.8 278.4 19.8 279.3 19.3 279.9Z" fill="#0400FF"/>
<path d="M253.4 83.1L253.5 83L253.6 82.9L253.7 82.8C253.4 82.8 253 82.7 252.7 82.7C252.6 83.2 252.5 83.7 252.5 84.3L253.4 83.1Z" fill="#0400FF"/>
<path d="M129.4 96.2C128.5 97.7 127.3 99.7 127 100.3L126 102.1C125.9 102.2 125.9 102.3 125.8 102.4C125.6 102.8 125.3 103.3 125 103.7C124.7 104.2 124.5 104.7 124.5 104.9V105C124.6 105.1 124.6 105.1 124.7 105.1H126C126.8 105 127.6 104.8 128.2 104.7C128.3 104.7 128.4 104.7 128.6 104.6H128.9C129.2 104.6 129.5 104.5 129.8 104.5C129.7 103.3 129.7 102.1 129.6 100.9C129.5 99.2 129.4 97.7 129.4 96.2Z" fill="#0400FF"/>
<path d="M331.1 239.5C330.7 239.3 330.4 239.1 330 238.9C329.2 238.5 328.5 238.2 327.7 237.8C326.8 237.4 325.8 237.1 324.8 236.9C324.1 236.7 323.5 236.6 322.8 236.4C322 236.3 321.3 236.1 320.5 236.1C321.3 235.9 322.2 235.7 323 235.5C324 235.3 325.1 235.2 326 235.1C326.5 235.1 327.1 235 327.6 235C327.9 235 328.2 235 328.5 235C328.1 234.5 327.6 233.9 327.2 233.4C326.8 232.9 326.3 232.5 325.8 232.1C325 232.2 324.2 232.3 323.4 232.4C322.4 232.6 321.4 232.8 320.4 233C319.5 233.2 318.6 233.5 317.7 233.8C316.9 234.1 316.1 234.4 315.3 234.7C315.9 234 316.6 233.4 317.2 232.9C318.3 231.9 319.4 231.1 320.6 230.3C321.1 230 321.6 229.7 322.1 229.5C321.6 229.2 321.2 229 320.7 228.7C320.1 228.4 319.6 228.2 319 227.9C318.6 228.1 318.3 228.4 317.9 228.6C318.1 228.3 318.2 228 318.4 227.6C317.5 227.3 316.5 227 315.5 226.7C315.2 227.3 314.9 227.8 314.6 228.4C314.1 229.4 313.6 230.5 313.2 231.5C313.2 231.5 313.2 231.5 313.2 231.6V231.5C313.5 230.3 313.8 229 314.1 227.7C314.2 227.3 314.3 226.9 314.4 226.5C313.9 226.4 313.4 226.3 312.9 226.3C311.5 226.1 310.1 226.1 308.7 226.1H308.6C309.1 228 309.5 229.9 309.6 231.8C308.7 230 307.4 228.1 305.9 226.3C304.8 226.5 303.9 226.7 303 227.5C303.4 227.9 303.8 228.4 304.2 228.9C303.6 228.6 303 228.4 302.4 228.1C302.3 228.2 302.3 228.2 302.2 228.3C301.6 229 301.1 229.8 300.6 230.5C301.9 230.9 303.1 231.5 304.3 232.2C306 233.2 307.6 234.5 308.8 236.1C308.4 236.4 307.9 236.8 307.5 237.2C306.6 237.9 305.8 238.7 304.9 239.5C304 240.4 303.1 241.3 302.3 242.3C297.7 247.5 294 253.6 291.5 260.1C291.3 263.3 291.3 266.5 291.5 269.7C291.5 269.8 291.5 269.9 291.5 270C293.5 260.5 297.9 251.7 303.9 244.8C302.4 247.4 301.1 250.3 299.8 254.1C296.9 262.7 295.7 271.7 296.2 281.6C296.3 281.7 296.3 281.8 296.4 281.9C297 282.6 297.5 283.4 298.1 284.1C298.3 284.3 298.5 284.6 298.7 284.8C298.9 285.1 299.2 285.4 299.4 285.7C299.3 284.7 299.3 283.8 299.2 282.8C299.2 282.7 299.2 282.6 299.2 282.5C299 279.3 299 276.1 299.2 272.9C299.5 266.9 300.6 261 302.6 255.1C303.7 252 304.9 248.9 306.6 246.1C307.1 245.2 307.7 244.3 308.3 243.5C308.8 242.7 309.3 242 309.9 241.3C310 241.2 310 241.1 310.1 241.1C310.3 240.9 310.5 240.7 310.7 240.5C311.6 239.8 312.4 239.5 313.6 239.3C314 239.2 314.5 239.2 315 239.1C315.4 239.1 315.8 239 316.2 239C316.6 239 317 239 317.4 239C318.9 239 320.5 239.1 321.9 239.4C322.3 239.5 322.6 239.6 323 239.6C324 239.8 324.9 240.1 325.9 240.4C326.1 240.5 326.3 240.6 326.5 240.6C327.6 241 328.7 241.5 329.7 242.1C330.7 242.7 331.6 243.3 332.5 244C332.3 243 332 242.1 331.7 241.2C331.6 240.7 331.4 240.1 331.1 239.5Z" fill="white"/>
<path d="M300.7 213.4C299.9 212.7 299.1 212 298.2 211.4C297.6 211.6 297 211.7 296.5 211.9C297.3 212.7 298 213.5 298.7 214.3C299.4 214.1 300.2 213.9 300.9 213.8C300.8 213.7 300.8 213.6 300.7 213.4Z" fill="#0400FF"/>
<path d="M145 94.3C145.5 94.7 146.2 94.9 146.8 94.9C147 94.9 147.1 94.9 147.3 94.9C149.8 94.5 152.5 94.1 155.2 93.7C154.8 94.4 154.2 95.4 153.8 96.2C149.7 103.1 145.4 110.6 141.7 117.2C142.9 117 144.1 116.8 145.1 116.7C145.2 116.7 145.3 116.7 145.3 116.7C148.8 110.4 152.6 103.8 156.2 97.8C157.8 95.1 158.1 94.7 158.1 94.7C158.1 94.7 158.2 94.6 158.2 94.5C158.4 94.2 158.6 93.8 158.9 93.4C159.4 92.6 160 91.8 160.2 91.3C160.3 91.1 160.4 90.8 160.3 90.7V90.6C160.1 90.4 159.6 90.4 159.1 90.4H158.5L157.3 90.6C153.8 91.1 150.2 91.6 146.8 92.2C146.7 90.9 146.7 89.6 146.6 88.3C145.7 89.8 144.8 91.3 143.9 92.9C144.1 93.3 144.5 93.9 145 94.3Z" fill="#0400FF"/>
<path d="M322 229.5C321.5 229.8 321 230 320.5 230.3C320.4 231.2 320.4 232.1 320.2 233.1C321.2 232.8 322.2 232.6 323.2 232.5C323.3 231.8 323.3 231.1 323.4 230.4C323 230.1 322.5 229.8 322 229.5Z" fill="#0400FF"/>
<path d="M143.2 78.4C143.2 78.5 143.2 78.5 143.2 78.6C144.2 78.5 145.1 78.3 146.1 78.2V78.1C146 76.4 145.9 74.8 145.9 73.2L145.8 71.5V71.3C145.8 70.7 145.7 69.9 145.5 69.6C145.4 69.5 145.4 69.5 145.3 69.5C145.3 69.5 145.2 69.5 145.2 69.6H145.1L144.9 69.8L144.8 69.9L144.7 70L144.5 70.2V70.4C144.5 70.5 144.4 70.5 144.4 70.6C144.3 70.8 144.1 71 144 71.2C143.9 71.3 143.8 71.5 143.8 71.6C143.7 71.8 143.6 71.9 143.5 72.1L142.2 74.2V74.3C142.1 74.5 142 74.7 141.8 74.9C141 76.1 140.1 77.7 139.2 79.2C140.4 79 141.7 78.8 143 78.6C143.1 78.6 143.2 78.5 143.2 78.4Z" fill="#0400FF"/>
<path d="M301.8 219.2C301.8 219 301.8 218.8 301.7 218.6C301.6 218.6 301.5 218.5 301.4 218.5C301.6 218.8 301.7 219 301.8 219.2Z" fill="#0400FF"/>
<path d="M140.3 113.3C140.2 110 140 106.7 139.8 103.4C139.8 102.6 139.4 102 138.9 101.5C138.2 102.7 137.6 103.8 136.9 105C137.1 107.8 137.2 110.6 137.3 113.4C137.4 115 137.5 116.6 137.6 118.2C138.5 117.8 139.5 117.5 140.5 117.3C140.4 116 140.4 114.7 140.3 113.3Z" fill="#0400FF"/>
<path d="M298.1 234.8C298.7 234.7 299.4 234.6 300 234.6C301 234.6 302.1 234.7 303.1 235C304.6 235.4 306.1 236.2 307.5 237.2C307.9 236.8 308.3 236.5 308.8 236.1C307.6 234.6 306 233.3 304.3 232.2C304.1 232.2 304 232.1 303.8 232.1C302.6 231.8 301.3 231.6 300 231.6H299.9C299.6 232.1 299.2 232.6 298.9 233.1C298.7 233.8 298.4 234.3 298.1 234.8Z" fill="#0400FF"/>
<path d="M340.2 248.4C340.7 248.5 341.2 248.7 341.7 248.9C341.8 247.8 341.8 246.8 341.7 245.8C340.4 245.4 339.1 245.1 337.8 245C338.6 246 339.5 247.2 340.2 248.4Z" fill="#0400FF"/>
<path d="M339.1 239.8C338.4 239 337.6 238.3 336.7 237.7C336.6 238.5 336.4 239.3 336.2 240.1C337.1 239.9 338.1 239.8 339.1 239.8Z" fill="#0400FF"/>
<path d="M238 90.2001C237.8 91.7001 237.5 93.5001 237.1 95.5001L247.9 83.7001L249.3 82.1001C248.3 82.0001 247.3 81.8001 246.3 81.7001L245.8 81.6001L245.7 81.7001L238 90.2001Z" fill="#0400FF"/>
<path d="M90.8001 207.8C92.0001 207.8 93.2001 208 94.5001 208.5C96.4001 209.2 98.0001 210.4 99.2001 212C99.7001 211 100.1 210.1 100.6 209.1C99.3001 207.7 97.6001 206.5 95.5001 205.8C93.9001 205.2 92.3001 204.9 90.8001 204.9C89.4001 204.9 87.9001 205.2 86.6001 205.7C87.0001 206.6 87.4001 207.5 87.7001 208.4C88.7001 208 89.7001 207.8 90.8001 207.8Z" fill="#0400FF"/>
<path d="M49.7 223.8C47.2 224.3 45 225.3 43 226.4C42.3 227.3 41.8 228.4 41.5 229.5C42 229.4 42.5 229.3 43 229.2C44.9 227.2 47.2 225.3 49.7 223.8Z" fill="#0400FF"/>
<path d="M58.2 223.6C57.8 223.7 57.3 223.8 56.9 223.9C54.8 224.5 52.7 225.4 50.7 226.6C51.9 226.4 53.2 226.2 54.5 226.2C54.6 226.2 54.6 226.2 54.7 226.2C57.9 226.2 61 227 63.9 228.2C63.6 227 63.2 225.9 62.9 224.7C61.4 224.2 59.8 223.8 58.2 223.6Z" fill="#0400FF"/>
<path d="M143.7 87.4C144.5 86.1 145.2 84.8 146 83.5C146.1 83.3 146.3 83 146.4 82.8C146.4 82.3 146.3 81.7 146.3 81.2C145.3 81.3 144.4 81.5 143.4 81.6C143.5 83 143.5 84.4 143.6 85.8C143.6 86.3 143.7 86.8 143.7 87.4Z" fill="#0400FF"/>
<path d="M23 272.8C22.8 273.7 22.7 274.7 22.7 275.7C23.7 274 24.9 272.4 26.2 271.1C25.1 271.6 24 272.2 23 272.8Z" fill="#0400FF"/>
<path d="M344.5 250.3C346.9 251.9 348.5 254.1 349.2 256.8C349.7 258.8 349.7 261 349.3 263.3C347.8 260.1 345.7 257.4 343.2 255.1C342.8 256 342.4 257 341.8 257.9C345.5 261.4 348.1 266.3 348.7 272C354.4 263.6 354.3 252.2 344.7 247C344.7 248.1 344.6 249.2 344.5 250.3Z" fill="#0400FF"/>
<path d="M357.8 237.5C356.8 234.2 354.6 230.9 351.7 228.8C351.4 228.6 351.1 228.4 350.7 228.1C350.8 228.5 350.8 228.9 350.9 229.3C351 229.8 351.2 231 351.2 232.2C352.9 233.8 354.2 236 354.9 238.3C355.2 239.3 355.4 240.2 355.6 241.2C351.2 238.4 345.9 236.8 340.6 236.8C340.4 236.8 340.3 236.8 340.1 236.8C341.1 237.7 341.9 238.7 342.5 239.8C348.6 240.3 354.4 243 358.6 247.5C359.4 246.7 358.7 243.1 358.6 242C358.7 240.5 358.3 238.9 357.8 237.5Z" fill="#0400FF"/>
<path d="M328.2 248.8C330.7 248.1 333.1 247.8 335.3 247.8C335.6 247.8 335.9 247.8 336.2 247.8C335.5 246.9 334.7 246 333.9 245.3C333.6 245.8 333.3 246.3 333 246.7C332.9 246.1 332.9 245.6 332.8 245C329.5 245.3 326.1 246.3 323.1 247.5C325.3 245.2 327.5 243.5 329.9 242.2C328.9 241.6 327.8 241.1 326.7 240.7C326.3 240.9 326 241.2 325.6 241.4C325.8 241.1 325.9 240.8 326.1 240.4C325.2 240.1 324.2 239.8 323.2 239.6C322.3 241.2 321.6 242.9 320.9 244.5C321.3 242.8 321.7 241.1 322.1 239.4C320.6 239.1 319.1 239 317.6 239C317.2 239 316.8 239 316.4 239C316.9 240.9 317.3 242.8 317.4 244.7C316.5 242.9 315.2 241 313.7 239.2C312.6 239.4 311.7 239.6 310.8 240.4C311.2 240.8 311.6 241.3 312 241.8C311.4 241.5 310.8 241.3 310.2 241C310.1 241.1 310.1 241.1 310 241.2C309.4 241.9 308.9 242.7 308.4 243.4C311.6 244.5 314.5 246.4 316.6 248.9C308.8 255 303 263.5 299.3 272.8C299.1 276 299.1 279.2 299.3 282.4C299.3 282.5 299.3 282.6 299.3 282.7C301.3 273.2 305.7 264.4 311.7 257.5C310.2 260.1 308.9 263 307.6 266.8C305 274.5 303.8 282.5 303.9 291.2C304.9 292.4 305.9 293.6 307 294.8C306.4 285.6 307.4 276.6 310.4 267.8C311.5 264.7 312.7 261.6 314.4 258.8C315.4 257.1 316.5 255.5 317.7 254C319.2 252.1 320.5 252.1 322.8 251.8C323.6 251.7 324.4 251.7 325.2 251.7C330.9 251.7 336.1 253.6 340.2 256.9C339.8 255.3 339.3 253.7 338.7 252.3C335.7 250.3 332.1 249.2 328.2 248.8Z" fill="#0400FF"/>
<path d="M306.8 215.8C306.6 215.6 306.5 215.3 306.3 215.1C306 216.4 305.7 217.7 305.4 218.9C305.8 217.9 306.2 216.9 306.8 215.8Z" fill="white"/>
<path d="M292.3 222C293.3 222 294.4 222.1 295.4 222.4C296.9 222.8 298.4 223.6 299.8 224.6C300.2 224.2 300.6 223.9 301.1 223.5C300.2 222.4 299.2 221.4 298 220.6C297.5 220.3 297.1 220 296.6 219.7C296.4 219.7 296.3 219.6 296.1 219.6C294.9 219.3 293.6 219.1 292.3 219.1C290.5 219.1 288.8 219.4 287.1 220.1C285.6 220.7 284.2 221.6 283.1 222.8C279.4 226.8 278.6 232.8 279.3 237.9C283.2 234 286.9 230.4 292.7 229.8C293.3 229.7 294 229.7 294.6 229.7C295.4 228.7 296.3 227.8 297.2 226.9C296.3 226.8 295.4 226.7 294.6 226.7C293.9 226.7 293.1 226.7 292.4 226.8C288.3 227.2 285.1 229 282.3 231.1C282.7 228.9 283.5 226.5 285.3 224.7C286.9 222.9 289.4 222 292.3 222Z" fill="white"/>
<path d="M224.7 86.9C225 86.9 225.3 87 225.6 87C226 85 226.3 83.1 226.6 81.5L225.8 82.4C225.5 82.6 225.3 82.9 225 83.2L224.9 83.3C224.4 83.8 223.8 84.4 223.4 84.9C223 85.4 222.7 86 222.9 86.3C223.1 86.5 223.8 86.8 224.7 86.9Z" fill="white"/>
<path d="M162.9 69.6C163 69.6 163.2 69.6 163.5 69.6C164.1 69.6 164.8 69.6 165.1 69.6C166.4 69.5 167.5 69.4001 168.8 69.3001H169.9C171.3 69.2001 172.9 69.1 174.3 69.1C174.3 68.1 174.4 67.1 174.4 66.2C172.9 66.2 171.3 66.3001 169.8 66.4001H168.8H168.7H168.6C168.2 66.4001 167.9 66.5 167.6 66.5V66.4001L169.4 63.8L169.9 63.1C171 61.6 173.2 58.5 174.6 56.6C174.7 56.5 174.7 56.4 174.8 56.3H171.2C169.6 58.5 167.6 61.2 167 62.1L165.1 64.7C164.9 64.9 164.8 65.1001 164.6 65.3001C164.2 65.9001 163.7 66.5 163.3 67.1C162.8 67.9 162.4 68.7 162.4 69C162.4 69.1 162.4 69.1 162.3 69.5L162.4 69.6C162.7 69.5 162.8 69.6 162.9 69.6Z" fill="white"/>
<path d="M118.1 92.3C118.9 92.2 119.7 92 120.3 91.9C120.4 91.9 120.5 91.9 120.7 91.8H121C121.3 91.8 121.6 91.7 121.9 91.7C121.8 90.5 121.8 89.3 121.7 88.1C121.7 86.6 121.6 85 121.5 83.5C120.6 85 119.4 87 119.1 87.6L118.1 89.4C118 89.5 118 89.6 117.9 89.7C117.7 90.1 117.4 90.6 117.1 91C116.8 91.5 116.6 92 116.6 92.2V92.3C116.7 92.4 116.7 92.4 116.8 92.4H118.1V92.3Z" fill="white"/>
<path d="M343.2 216.7C343.2 216.3 343.1 215.9 343 215.5C342.8 214.4 342.5 213.2 342.2 212.1C341.2 208.8 339 205.5 336.1 203.4C332.4 200.6 327.2 199.3 322.6 200.4C318.8 201.3 315.7 203.4 313.1 206.1C312.4 206.8 311.7 207.6 311.1 208.5C310.5 209.3 309.9 210.2 309.3 211.1C308.7 212 308.2 212.9 307.7 213.8C307.3 214.5 307 215.1 306.7 215.8C306.2 216.8 305.7 217.9 305.3 218.9C305.3 218.9 305.3 218.9 305.3 219V218.9C305.6 217.7 305.9 216.4 306.2 215.1C306.3 214.6 306.4 214.1 306.5 213.6C306.7 212.6 306.9 211.7 307.1 210.7C307.5 208.6 307.8 206.5 307.9 204.4C307.9 203.2 307.9 201.9 307.8 200.7C307.7 199.9 307.6 199.2 307.5 198.4C306.2 192.4 301.4 187.6 295.5 186C286.7 183.6 275.5 186.1 270.7 194.5C273.3 194.6 275.9 194.3 278.5 194.5C281.8 194.8 285 195.6 288 197.1C288.9 197.5 289.7 198 290.5 198.6C291.5 199.3 292.5 200.1 293.4 201C295.6 203 297.3 205.5 298.7 208.1C299.2 209 299.6 210 300 210.9C300.3 211.7 300.6 212.5 300.8 213.3C300.8 213.4 300.9 213.6 300.9 213.7C301.3 215.3 301.6 216.9 301.8 218.5C301.8 218.7 301.8 218.9 301.9 219.1C301.8 218.9 301.7 218.7 301.6 218.4C300.8 217 299.9 215.6 298.8 214.2C298.1 213.4 297.4 212.6 296.6 211.8C295.2 210.4 293.7 209.2 292.1 208.2C290.9 207.5 289.7 206.9 288.4 206.6C285.5 205.9 282.3 206 279.5 207.1C278 207.7 276.6 208.6 275.5 209.8C271.8 213.8 271 219.8 271.7 224.9C275.6 221 279.3 217.4 285.1 216.8C286.3 216.7 287.5 216.7 288.7 216.8C291.5 217.1 294.3 218 296.8 219.4C297.3 219.7 297.8 220 298.2 220.3C299.4 221.1 300.4 222.1 301.3 223.2C300.9 223.5 300.4 223.9 300 224.3C299.1 225 298.3 225.8 297.4 226.6C296.5 227.5 295.6 228.4 294.8 229.4C287.9 237.2 283.1 247 281.1 257.1C281.1 257.3 281 257.5 281 257.7C280.7 257.3 280.4 256.8 280.1 256.4C273.2 245.7 266.9 234.6 260.9 223.3C252.6 207.4 245.2 191.1 238.4 174.6C236.2 169.2 234 163.7 231.9 158.2C230.2 153.8 228.6 149.4 227 145.1C226.6 144 226.3 143 225.9 141.9C225.3 140.2 224.7 138.6 224.2 136.9C223.8 135.7 223.4 134.4 223 133.2C222.6 132.1 222.3 131 221.9 129.9C221 127 220.1 124.2 219.1 121.3C218.6 119.7 218.3 118.5 216.6 117.9C214.7 117.2 212.6 116.9 210.7 116.5C205.3 115.5 199.8 114.8 194.3 114.4C192.6 114.3 190.9 114.2 189.2 114.1C185 113.9 180.9 113.8 176.7 113.8C166.3 113.8 155.8 114.4 145.6 116.2C145.5 116.2 145.4 116.2 145.4 116.2C144.4 116.4 143.2 116.5 142 116.7C141.6 116.8 141.2 116.8 140.8 116.9C139.8 117.1 138.8 117.4 137.9 117.8C137.7 117.9 137.5 118 137.3 118.1C135.2 119.3 134.8 122.8 134.1 124.9C132 131.5 129.8 138.1 127.5 144.6C123 157.3 118.1 170 112.8 182.4C109 191.2 105.1 200 100.9 208.6C100.4 209.6 100 210.5 99.5001 211.5C99.3001 212 99.0001 212.5 98.8001 213C98.3001 213.9 97.9001 214.9 97.4001 215.8C96.8001 217 96.1001 218.3 95.5001 219.5C94.8001 220.8 94.2001 222.1 93.5001 223.4C93.4001 223.5 93.4001 223.6 93.3001 223.7C93.2001 223.8 93.2001 223.9 93.1001 224C92.7001 224.8 92.3001 225.6 91.9001 226.3C91.8001 226.5 91.7001 226.7 91.6001 226.9C90.9001 228.1 90.3001 229.4 89.6001 230.6C89.1001 231.5 88.6001 232.4 88.1001 233.3C86.4001 236.4 84.7001 239.4 82.9001 242.5C82.6001 243 82.4001 243.4 82.1001 243.9C81.8001 244.4 81.5001 244.9 81.2001 245.5C81.1001 245.7 81.0001 245.9 80.9001 246C80.7001 246.3 80.5001 246.7 80.3001 247C80.3001 246.9 80.2001 246.8 80.2001 246.7C77.5001 238 73.8001 229.3 69.5001 221C68.8001 219.7 68.1001 218.4 67.4001 217.1C66.1001 214.7 64.7001 212.3 63.2001 210C64.7001 209 66.2001 208.4 67.8001 208.1C68.8001 207.9 69.8001 207.8 70.9001 207.8C71.4001 207.8 72.0001 207.8 72.5001 207.9C73.6001 208 74.7001 208.3 75.7001 208.6C77.2001 209.1 78.7001 209.7 80.0001 210.5C80.5001 210.8 81.0001 211.1 81.5001 211.5C81.8001 211.7 82.1001 211.9 82.4001 212.2C83.2001 212.8 84.0001 213.5 84.7001 214.2C85.1001 214.6 85.6001 215.1 86.0001 215.6C86.7001 216.4 87.3001 217.1 87.8001 218C88.0001 218.3 88.2001 218.6 88.3001 218.8C88.4001 218.4 88.5001 218 88.6001 217.5C88.7001 216.8 88.8001 216.2 88.9001 215.5C88.9001 215.1 89.0001 214.6 89.0001 214.2C89.0001 213.5 89.0001 212.9 88.9001 212.2C88.8001 210.8 88.5001 209.3 88.1001 207.9C87.8001 207 87.4001 206 87.0001 205.2C86.7001 204.5 86.3001 203.9 85.9001 203.3C85.3001 202.4 84.5001 201.6 83.7001 201C83.6001 200.9 83.5001 200.9 83.5001 200.8C81.1001 199 78.3001 198.4 75.6001 198.6C74.1001 198.7 72.6001 199.1 71.1001 199.7C67.7001 201.1 64.6001 203.5 62.6001 206.5C64.7001 199.2 68.9001 192.6 76.7001 190.9C80.7001 190 85.9001 190.3 89.3001 192.8C89.0001 187 86.0001 182 80.4001 179.9C75.9001 178.3 71.5001 179 67.7001 181.9C60.8001 187.3 58.8001 196.8 59.6001 205.1C56.3001 197.4 49.6001 189.1 41.0001 187.2C36.3001 186.2 31.3001 186.6 27.3001 189.6C21.4001 194 20.5001 202.5 21.5001 209.3C26.4001 204.4 31.5001 200.7 38.4001 200.4C38.8001 200.4 39.1001 200.4 39.5001 200.4C46.0001 200.5 52.0001 203.4 57.1001 207.3C56.8001 207.2 56.5001 207.1 56.2001 207C51.0001 205.2 45.3001 204.1 40.0001 206.1C36.8001 207.3 34.0001 209.9 32.3001 213C31.0001 215.4 30.3001 218.1 30.6001 220.8C30.8001 222.7 31.5001 224.5 32.8001 226.1C34.5001 220.9 38.5001 216.3 43.4001 213.4C45.3001 212.2 47.4001 211.3 49.6001 210.7C50.0001 210.6 50.4001 210.5 50.9001 210.4C52.2001 210.2 53.5001 210.1 54.8001 210.1C55.6001 210.1 57.6001 209.8 58.3001 210.2C58.8001 210.5 59.3001 212.1 59.6001 213.1C59.6001 213.2 59.7001 213.3 59.7001 213.4C59.8001 213.6 59.8001 213.7 59.8001 213.8C60.3001 214.9 60.7001 216.1 61.1001 217.2C61.1001 217.3 61.2001 217.4 61.2001 217.4C61.4001 217.8 61.5001 218.3 61.7001 218.7C62.2001 220 62.6001 221.3 63.0001 222.6C63.2001 223.1 63.3001 223.6 63.5001 224C63.9001 225.2 64.2001 226.3 64.5001 227.5C64.8001 228.5 65.0001 229.4 65.3001 230.4C65.7001 232.1 66.2001 233.8 66.5001 235.6C67.3001 239.5 68.1001 243.4 68.6001 247.3C68.9001 249.7 69.2001 252.1 69.5001 254.6C69.6001 255.8 70.0001 257.4 70.1001 258.9C70.1001 259.3 70.2001 259.7 70.2001 260.2C70.2001 260.7 70.2001 261.2 70.1001 261.7C69.8001 262.8 68.4001 264.2 67.8001 265.1C67.3001 265.8 66.9001 266.5 66.4001 267.1C66.1001 267.6 65.8001 268 65.4001 268.5C65.1001 268.9 64.8001 269.4 64.5001 269.8C64.1001 270.4 63.7001 270.9 63.3001 271.5C62.6001 272.5 61.8001 273.4 61.2001 274.4C61.2001 274.4 61.2001 274.5 61.1001 274.5C61.1001 274.5 61.1001 274.5 61.0001 274.4C60.3001 273.5 59.6001 272.6 58.8001 271.7C58.7001 271.6 58.6001 271.5 58.5001 271.4C57.9001 270.6 57.2001 269.9 56.6001 269.2C55.9001 268.4 55.2001 267.6 54.4001 266.8C53.7001 266.1 53.0001 265.3 52.3001 264.6C51.9001 264.2 51.5001 263.8 51.1001 263.5C50.7001 263.1 50.3001 262.7 49.9001 262.3C49.5001 262 49.2001 261.6 48.8001 261.3C48.7001 261.2 48.7001 261.2 48.6001 261.1C47.8001 260.3 46.9001 259.5 46.1001 258.7C45.7001 258.4 45.4001 258 45.0001 257.7C44.2001 257 43.4001 256.3 42.6001 255.6C42.6001 255.6 42.6001 255.6 42.5001 255.5C41.6001 254.7 40.6001 254 39.7001 253.4C39.0001 252.9 38.2001 252.5 37.5001 252.1C38.4001 251.3 39.3001 250.7 40.4001 250.2C41.5001 249.7 42.8001 249.3 44.0001 249.1C45.0001 248.9 46.0001 248.9 47.0001 248.9C47.0001 248.9 47.0001 248.9 47.1001 248.9C47.9001 248.9 48.7001 249 49.4001 249.1C50.0001 249.2 50.6001 249.3 51.2001 249.5C53.8001 250.2 56.3001 251.5 58.1001 253.3C58.4001 251.3 58.3001 249.2 57.6001 247.4C57.3001 246.4 56.8001 245.5 56.1001 244.7C56.0001 244.5 55.8001 244.4 55.7001 244.3C55.2001 243.7 54.5001 243.2 53.8001 242.8C53.4001 242.6 53.1001 242.4 52.7001 242.3C52.1001 242.1 51.5001 241.9 50.8001 241.8C50.4001 241.7 50.1001 241.7 49.7001 241.6C48.7001 241.5 47.6001 241.5 46.6001 241.6C42.2001 242.2 38.1001 245.2 36.2001 249.5C37.3001 243.7 39.1001 238.3 45.1001 236C46.8001 235.3 48.7001 234.9 50.6001 234.7C52.1001 234.5 53.6001 234.6 55.1001 234.9C55.1001 234.9 55.1001 234.9 55.2001 234.9C54.7001 234 54.3001 233.1 53.7001 232.3C52.8001 230.9 51.6001 229.8 49.7001 229.1C49.0001 228.9 48.4001 228.7 47.6001 228.6C46.6001 228.5 45.7001 228.4 44.7001 228.5C44.3001 228.5 43.8001 228.6 43.4001 228.6C42.9001 228.7 42.4001 228.8 41.9001 228.9C41.6001 229 41.3001 229 41.1001 229.1C40.2001 229.4 39.3001 229.7 38.6001 230.2C38.0001 230.5 37.5001 230.9 37.0001 231.2C32.0001 235.1 30.8001 242.4 32.8001 248.6C28.8001 242.1 18.2001 230.4 9.9001 237.3C7.9001 238.9 6.6001 241.5 5.7001 243.9C5.2001 245.3 4.8001 246.8 4.6001 248.2C4.4001 249.8 5.0001 252.6 4.1001 254C8.0001 249.7 12.4001 246.5 18.4001 246.7C20.8001 246.8 23.1001 247.3 25.3001 248.2C27.5001 249.1 29.6001 250.5 31.3001 252.2C27.2001 250.2 22.2001 249.2 18.1001 251.5C15.5001 253 13.9001 255.2 13.0001 257.9C12.8001 258.5 12.6001 259.2 12.5001 259.8C12.4001 260.4 12.3001 261.1 12.3001 261.8C12.3001 262.6 12.3001 263.5 12.4001 264.3C12.5001 264.9 12.5001 265.4 12.6001 266C13.0001 268.1 13.8001 270.2 15.0001 271.9C15.6001 267.8 17.5001 263.5 20.4001 260.4C21.2001 259.5 22.2001 258.7 23.2001 258.1C24.2001 257.5 25.2001 257 26.3001 256.6C27.5001 256.2 28.8001 255.9 30.1001 255.7C30.7001 255.6 31.3001 255.6 31.9001 255.6C32.1001 255.6 32.3001 255.6 32.5001 255.6C34.6001 255.6 35.2001 256.5 36.5001 258.1C39.2001 261.4 41.8001 264.9 44.1001 268.5C44.8001 269.5 45.4001 270.6 46.1001 271.7C47.2001 273.6 48.5001 275.6 49.6001 277.7C50.6001 279.6 51.5001 281.5 52.1001 283.4C52.2001 283.7 52.3001 284.1 52.4001 284.4C52.7001 285.6 52.8001 285.3 52.2001 286.3C51.9001 286.8 51.3001 287.4 50.9001 287.9C50.0001 288.9 49.2001 290 48.3001 291C47.7001 291.7 43.9001 295.4 44.5001 296C44.9001 296.4 51.1001 293.7 51.9001 293.4C53.9001 292.7 55.9001 292.1 57.9001 291.5H58.0001C58.2001 291.4 58.5001 291.4 58.7001 291.3C59.4001 291.1 60.0001 290.9 60.7001 290.7C60.8001 290.7 60.9001 290.7 60.9001 290.6C61.6001 290.4 62.4001 290.1 63.1001 289.9C64.1001 289.6 65.1001 289.3 66.1001 289C66.2001 289 66.2001 289 66.3001 288.9C68.3001 288.3 70.3001 287.7 72.4001 287.1C76.7001 285.8 81.0001 284.6 85.4001 283.5C86.4001 283.3 87.3001 283 88.3001 282.8C94.3001 281.3 100.3 279.9 106.3 278.8C107.2 278.6 107.8 279.2 108.7 279.2C109.8 279.2 111.1 278.7 112.2 278.5C113.4 278.3 114.5 278 115.7 277.8C118.9 277.2 122.2 276.5 125.4 275.9C138.2 273.6 151.3 271.7 164.4 271.7C167.1 271.7 169.7 271.8 172.4 272.1C174.3 272.3 178 272.2 179.2 274C180.7 276 178.6 279.2 176.4 281.6C175.3 282.8 174.2 283.8 173.5 284.5L173.4 284.6C170.7 287.1 167.2 289.1 164.7 291.7C171.9 289.7 179 287.8 186.1 285.9C187.2 285.6 188.3 285.3 189.5 285.1C191 284.7 192.6 284.3 194.1 284C208.7 280.6 223.8 279.1 238.7 278.5C244.2 278.3 249.8 278.2 255.3 278.6C257.7 278.8 264.9 279.1 264.4 282.7C264.2 284.7 262.1 286.5 260.8 287.7C260.6 287.9 260.4 288 260.2 288.2C259 289.2 257.8 290.2 256.5 291C255.4 291.8 254.2 292.6 253.1 293.3C259.4 293.6 265.7 293.9 272 294.2C273 294.3 274 294.3 275 294.4C284.2 294.9 293.4 295.5 302.6 296.3C303.3 296.4 304 296.4 304.7 296.5C305.3 296.6 306 296.6 306.6 296.6C307 296.6 307.3 296.7 307.7 296.7C308.4 296.8 309.1 296.8 309.8 296.9C309.1 296.1 308.3 295.3 307.6 294.5C306.6 293.3 305.5 292.1 304.5 290.9C303 289.1 301.5 287.3 300 285.4C299.8 285.1 299.5 284.8 299.3 284.5C299.1 284.3 298.9 284 298.7 283.8C298.1 283.1 297.6 282.3 297 281.6C296.9 281.5 296.9 281.4 296.8 281.3C295.8 280 294.8 278.7 293.8 277.3C292.2 275.1 292.2 272.5 292 269.8C292 269.7 292 269.6 292 269.5C291.8 266.3 291.8 263.1 292 259.9C292.3 254.6 293.2 249.4 294.7 244.3C294.9 243.6 295.1 242.9 295.4 242.2C295.6 241.6 295.8 241.1 296 240.5C296.7 238.5 297.6 236.6 298.5 234.7C298.8 234.2 299 233.7 299.3 233.2C299.6 232.7 299.9 232.2 300.3 231.7C300.5 231.3 300.8 231 301 230.6C301.5 229.8 302 229.1 302.6 228.4C302.7 228.3 302.7 228.2 302.8 228.2C303 228 303.2 227.8 303.4 227.6C304.3 226.9 305.1 226.6 306.3 226.4C306.7 226.3 307.2 226.3 307.7 226.2C308.1 226.2 308.5 226.1 308.9 226.1H309C310.4 226 311.8 226.1 313.2 226.3C313.7 226.4 314.2 226.4 314.7 226.5C315.1 226.6 315.5 226.6 315.8 226.7C316.8 226.9 317.7 227.2 318.7 227.6C318.9 227.7 319.1 227.7 319.3 227.8C319.9 228 320.5 228.3 321 228.6C321.5 228.8 322 229.1 322.4 229.4C322.9 229.7 323.4 230 323.9 230.3C324.7 230.8 325.4 231.4 326.1 232.1C326.6 232.5 327 233 327.5 233.4C328 233.9 328.4 234.4 328.8 235C329 235.3 329.2 235.5 329.4 235.8C330 236.7 330.6 237.6 331 238.5C331.2 238.8 331.3 239.1 331.4 239.4C331.7 240 331.9 240.6 332.1 241.2C332.4 242.1 332.7 243.1 332.9 244C333 244.3 333 244.6 333.1 244.9C333.2 245.5 333.3 246 333.3 246.6C333.6 246.1 333.9 245.7 334.2 245.2C334.3 245.1 334.3 244.9 334.4 244.8C334.8 244 335.2 243.2 335.5 242.4C335.8 241.6 336.1 240.8 336.3 240C336.5 239.2 336.7 238.4 336.8 237.6C336.8 237.4 336.9 237.2 336.9 237C337 236.1 337.1 235.2 337 234.3C337 232.7 336.7 231.2 336.2 229.7C335.9 228.8 335.5 227.9 335 227.1C334.4 226 333.6 225 332.6 224.1C331.5 223.1 330.2 222.2 328.7 221.4C327.3 220.7 325.8 220.2 324.3 219.9C323.4 219.7 322.4 219.6 321.5 219.5C321.2 219.5 320.9 219.5 320.6 219.4C319.7 219.4 318.9 219.4 318 219.5C317.2 219.6 316.4 219.7 315.6 219.8C314.6 220 313.6 220.2 312.6 220.4C311.7 220.6 310.8 220.9 309.9 221.2C309.3 221.4 308.6 221.6 308 221.9C307.9 222 307.7 222 307.6 222.1C307.7 222 307.8 221.9 307.9 221.8C308.4 221.3 309 220.7 309.5 220.2C310.6 219.2 311.7 218.4 312.9 217.6C313.6 217.2 314.3 216.8 315 216.5C315.3 216.4 315.6 216.2 315.9 216.1C316.6 215.8 317.4 215.5 318.1 215.3C320.3 214.7 322.6 214.4 325.2 214.4C325.8 214.4 326.4 214.4 327.1 214.5C329.2 214.7 331.3 215.1 333.3 215.8C337.1 217.1 340.5 219.3 343.3 222.3C343.7 221.9 343.7 220.8 343.6 219.7C343.4 218.4 343.3 217.2 343.2 216.7Z" fill="white"/>
<path d="M197.3 25.6C197.4 25.4 197.5 25.3 197.6 25.1C197.7 24.9 197.8 24.8 198 24.6L198.6 23.8C198.6 24.5 198.5 25.2 198.5 25.9C198.4 27.4 198.3 28.9 198.3 30.5C198.2 33.3 198.1 36.1 197.9 39C198.9 38.9 199.9 38.9 200.8 38.8C200.9 36.1 201.1 33.3 201.2 30.6C201.3 27.7 201.5 24.8 201.6 22.1L201.7 19.5V19.3C201.8 18.3 201.8 17 201.5 16.6C201.4 16.6 201.4 16.5 201.3 16.5H201L200.9 16.6H200.8L200.7 16.7H200.5C200.5 16.8 200.4 16.8 200.4 16.8L200.3 16.9L200.2 17L200.1 17.1L200 17.2L199.9 17.3C199.8 17.4 199.8 17.5 199.7 17.6L199.6 17.7C199.5 17.7 199.5 17.8 199.5 17.8C199.5 17.9 199.4 18 199.3 18.1L199.2 18.2L199.1 18.3C198.9 18.5 198.8 18.6 198.7 18.8C198.5 19 198.3 19.3 198.1 19.5C198 19.6 197.8 19.8 197.7 20L195.5 23C195.3 23.3 195 23.7 194.8 24C194.2 24.8 193.5 25.7 192.9 26.6C192.8 28.4 192.7 30.1 192.7 31.9C194.3 29.6 195.9 27.5 197.3 25.6Z" fill="white"/>
<path d="M135.4 65.7C135.4 65.8 135.4 65.8001 135.4 65.9001C136.4 65.8001 137.3 65.6 138.3 65.5V65.4001C138.2 63.7001 138.1 62.1 138.1 60.5L138 58.8V58.6C138 58 137.9 57.2001 137.7 56.9001C137.6 56.8001 137.6 56.8 137.5 56.8C137.5 56.8 137.4 56.8001 137.4 56.9001H137.3L137.1 57.1L137 57.2001L136.9 57.3L136.7 57.5V57.7001C136.7 57.8001 136.6 57.8001 136.6 57.9001C136.5 58.1001 136.3 58.3 136.2 58.5C136.1 58.6 136 58.8001 136 58.9001C135.9 59.1001 135.8 59.2001 135.7 59.4001L134.4 61.5V61.6C134.3 61.8 134.2 62.0001 134 62.2001C133.2 63.4001 132.3 65 131.4 66.5C132.6 66.3 133.9 66.1001 135.2 65.9001C135.3 65.9001 135.4 65.8 135.4 65.7Z" fill="white"/>
<path d="M40 251C39.7 252 39.5 253.1 39.3 254.2C40.3 254.8 41.2 255.6 42.1 256.3C42.1 254 42.5 251.8 43.5 249.9C42.3 250.1 41.1 250.5 40 251Z" fill="white"/>
<path d="M307.9 204.5C309.2 205.6 310.4 207 311.2 208.5C311.8 207.7 312.5 206.9 313.2 206.1C311.8 203.9 310 202.1 307.8 200.7C307.9 202 308 203.3 307.9 204.5Z" fill="white"/>
<path d="M288.2 206.8C289.5 207.1 290.7 207.7 291.9 208.4C293.2 208.8 294.5 209.3 295.7 210C296.6 210.4 297.4 210.9 298.2 211.5C299.1 212.1 299.9 212.8 300.7 213.5C300.5 212.7 300.2 211.9 299.9 211.1C299.5 210.1 299.1 209.2 298.6 208.3C298.1 208 297.6 207.7 297 207.4C293.8 205.7 290.2 204.7 286.4 204.4C285.9 204.4 285.5 204.3 284.9 204.3C287.2 202.7 290 201.6 293.2 201.1C292.3 200.2 291.3 199.4 290.3 198.7C285.4 200 280.9 202.8 278.4 207.3C278.7 207.3 278.9 207.3 279.2 207.3C282.1 206.2 285.3 206.1 288.2 206.8Z" fill="white"/>
<path d="M50.7 250.2C50.1 250 49.5 249.9 48.9 249.8C48.1 249.7 47.3999 249.6 46.5999 249.6C46.5999 249.6 46.6 249.6 46.5 249.6C44.4 251.5 43.1 253.8 42.2 256.3C43 257 43.7999 257.7 44.5999 258.4C45.6999 255 47.4 252.1 50.7 250.2Z" fill="white"/>
<path d="M49.0999 211.2C46.9999 211.8 44.8999 212.7 42.8999 213.9C43.7999 213.7 44.7999 213.6 45.7999 213.6C46.0999 213.6 46.3999 213.6 46.6999 213.6C46.7999 213.6 46.7999 213.6 46.8999 213.6C51.7999 213.6 56.3999 215.3 60.5999 217.8C60.1999 216.7 59.6999 215.5 59.2999 214.4C59.2999 214.3 59.1999 214.1 59.1999 214C59.1999 213.9 59.0999 213.8 59.0999 213.7C56.1999 212.3 53.2999 211.4 50.3999 211C49.9999 211 49.4999 211.1 49.0999 211.2Z" fill="white"/>
<path d="M246 288.6C228.7 289.3 214 291.2 200.9 294.2C198.5 294.7 196.2 295.3 193.8 295.9C191.3 296.5 188.9 297.2 186.4 297.8C185.7 298 185.1 298.1 184.4 298.3C184.6 298.1 184.8 297.9 185 297.7C185.8 296.9 186.6 296 187.4 294.9C189.6 292 191.2 288.4 189 285.4C187.9 285.7 186.8 285.9 185.6 286.2C186 286.4 186.3 286.7 186.5 287C188 289 185.9 292.2 183.7 294.6C182.6 295.8 181.5 296.8 180.8 297.5L180.7 297.6C178 300.1 174.5 302.1 172 304.7C179.2 302.7 186.3 300.8 193.4 298.9C194.5 298.6 195.6 298.3 196.8 298.1C198.3 297.7 199.9 297.3 201.4 297C216 293.6 231.1 292.1 246 291.5C248.7 291.4 251.5 291.3 254.2 291.3C254.8 291.3 255.4 291.3 256.1 291.3C257.4 290.4 258.6 289.5 259.8 288.5C258 288.4 256.2 288.4 254.3 288.4C251.8 288.4 249 288.4 246 288.6Z" fill="white"/>
<path d="M30.9 252.7C29.2 251 27.1 249.6 24.9 248.7C24.2 248.5 23.5 248.4 22.8 248.4C20.9 248.4 19 249 17.3 250.5C15.3 252.1 14 254.7 13.1 257.1C13 257.5 12.8 257.9 12.7 258.3C13.6 255.7 15.2 253.4 17.8 251.9C21.9 249.7 26.9 250.7 30.9 252.7Z" fill="white"/>
<path d="M30.1999 221.3C29.8999 218.7 30.5999 215.9 31.8999 213.5C32.3999 210.4 33.6999 207.2 36.4999 205C38.4999 203.5 41.0999 202.7 43.8999 202.7C45.0999 202.7 46.3999 202.8 47.6999 203.1C50.5999 203.8 53.2999 205.3 55.6999 207.4C55.9999 207.5 56.2999 207.6 56.5999 207.7C51.5999 203.8 45.4999 200.8 38.9999 200.8C38.5999 200.8 38.2999 200.8 37.8999 200.8C36.6999 201.3 35.5999 201.9 34.5999 202.6C28.6999 207 27.7999 215.5 28.7999 222.3C29.3999 222 29.7999 221.7 30.1999 221.3Z" fill="white"/>
<path d="M76.7999 197.4C78.6999 195.9 80.7999 195.2 82.9999 195.2C84.1999 195.2 85.3999 195.4 86.6999 195.9C89.2999 196.8 91.1999 198.7 92.3999 201.1C90.8999 200.8 89.4999 200.7 88.2999 200.7C86.6999 200.7 84.9999 200.9 83.3999 201.2C83.2999 201.2 83.1999 201.3 82.9999 201.3C83.0999 201.4 83.1999 201.4 83.1999 201.5C84.0999 202.2 84.7999 203 85.3999 203.8C86.2999 203.7 87.2999 203.6 88.1999 203.6C91.1999 203.6 94.2999 204.3 96.4999 206C96.1999 200.2 93.1999 195.2 87.5999 193.1C85.9999 192.5 84.3999 192.2 82.8999 192.2C80.0999 192.2 77.3999 193.2 74.8999 195C73.0999 196.4 71.5999 198.2 70.3999 200.1C71.8999 199.5 73.3999 199.1 74.8999 199C75.5999 198.4 76.1999 197.9 76.7999 197.4Z" fill="white"/>
<path d="M181.6 108.6C181.7 108.6 181.7 108.5 181.8 108.5H181.9C182 108.5 182 108.5 182.1 108.4L182.2 108.3L182.4 108.1C182.5 108.1 182.5 108 182.5 108L182.7 107.8L182.8 107.7V107.6C182.8 107.5 182.9 107.5 182.9 107.4V107.3C182.9 107.2 183 107.2 183 107.1C183.1 107 183.1 106.9 183.2 106.8C183.2 106.7 183.3 106.7 183.3 106.6C183.3 106.5 183.4 106.5 183.4 106.4C183.4 106.3 183.5 106.3 183.5 106.2L184.9 104.1C186.5 101.7 188.2 99.1999 189.9 96.6999C190.9 95.1999 192 93.6999 193 92.1999C198.6 84.0999 204.7 75.4999 210.6 67.3999C211.3 66.3999 212.1 65.2999 212.8 64.2999C213.4 63.4999 213.9 62.6999 214.5 61.9999C217.4 57.9999 217.9 57.2999 217.9 57.2999L218 57.1999L218.1 57.0999C218.5 56.5999 219 55.9999 219.4 55.4999C220.4 54.2999 221.3 53.1999 221.7 52.2999C221.9 51.8999 222 51.5999 222 51.2999C222 51.1999 221.9 51.0999 221.8 50.9999H221.6C221.6 50.9999 221.5 50.8999 221.4 50.8999H219L217 50.9999C214.2 51.0999 211.4 51.1999 208.5 51.3999C207.5 51.4999 206.5 51.4999 205.6 51.5999C205.4 51.5999 205.1 51.5999 204.9 51.5999C204.2 52.5999 203.4 53.5999 202.7 54.6999C203.6 54.5999 204.6 54.5999 205.5 54.4999C206.5 54.3999 207.4 54.3999 208.4 54.2999C211.1 54.1999 213.9 53.9999 216.7 53.8999C216.6 54.0999 216.4 54.1999 216.3 54.3999C216.1 54.5999 215.9 54.8999 215.7 55.0999L215.6 55.1999L215.4 55.3999L215.3 55.5999C215.3 55.5999 214.8 56.2999 211.9 60.2999C210.8 61.7999 209.8 63.1999 208.8 64.5999C208.1 65.4999 207.4 66.4999 206.8 67.3999C201.8 74.3999 197.2 80.7999 193.1 86.6999C192 88.1999 191 89.6999 190 91.1999C187.9 94.1999 186 97.0999 184.2 99.6999C184.2 99.4999 184.2 99.3999 184.2 99.1999C184.2 98.9999 184.2 98.6999 184.2 98.3999C184.2 98.0999 184.3 97.6999 184.3 97.3999C184.5 93.1999 184.7 88.8999 184.9 84.5999C184.9 83.5999 185 82.5999 185 81.6999C185 80.9999 185.1 80.2999 185.1 79.4999C184.6 80.1999 184.1 80.9999 183.6 81.6999C183.1 82.4999 182.5 83.2999 182 83.9999C182 84.1999 182 84.2999 182 84.4999C181.8 88.7999 181.6 93.0999 181.4 97.2999C181.4 97.8999 181.3 98.5999 181.3 99.2999C181.3 99.9999 181.2 100.8 181.2 101.5L181.1 104.5V105.2C181.1 106.6 181.1 108 181.4 108.4C181.5 108.6 181.5 108.6 181.6 108.6Z" fill="white"/>
<path d="M69 221.5C73.3 229.7 77 238.4 79.7 247.2C79.7 247.3 79.8 247.4 79.8 247.5C80 247.2 80.2 246.8 80.4 246.5C80.5 246.3 80.6 246.1 80.7 246C81 245.5 81.3 245 81.6 244.4C79.5 239.6 77.1 234.9 74.6 230.4C73.3 228 71.9 225.6 70.4 223.3C71.9 222.3 73.4 221.7 75 221.4C76 221.2 76.9 221.1 77.9 221.1C78 221.1 78 221.1 78.1 221.1C78.6 221.1 79.2 221.1 79.7 221.2C80.8 221.3 81.9 221.6 82.9 221.9C85 222.5 86.9 223.6 88.8 224.8C89.7 225.4 90.6 226.1 91.4 226.9C91.8 226.1 92.2 225.3 92.6 224.6C92.7 224.5 92.7 224.4 92.8 224.3C90.6 222.4 88.1 220.8 85.3 219.7C84.2 219.3 83.1 218.9 82 218.7C81 218.5 79.9 218.3 78.9 218.3C78.6 218.3 78.2 218.3 77.9 218.3C77.2 218.3 76.5 218.4 75.8 218.4C75.4 218.4 75.1 218.5 74.7 218.6C75.1 218.2 75.6 217.9 76.1 217.5C77.4 216.6 78.8 215.9 80.2 215.4C81.4 215 82.5 214.8 83.7 214.8C83.9 214.8 84 214.8 84.2 214.8C83.5 214.1 82.7 213.4 81.9 212.8C81.6 212.6 81.3 212.3 81 212.1C80.1 212.3 79.1 212.6 78.2 212.9C74.8 214.3 71.7 216.7 69.7 219.7C70.8 215.8 72.5 212.1 75.1 209.2C74 208.9 73 208.6 71.9 208.5C71.1 209.5 70.4 210.6 69.7 211.8C69.8 210.6 70 209.5 70.3 208.4C69.3 208.4 68.2 208.5 67.2 208.7C66.6 211.7 66.5 214.8 66.8 217.7C67.6 218.9 68.3 220.2 69 221.5Z" fill="white"/>
<path d="M47.4001 219.3C44.2001 220.5 41.4001 223.1 39.7001 226.2C38.9001 227.6 38.3001 229.2 38.1001 230.8C38.9001 230.4 39.7001 230 40.6001 229.7C40.9001 229.6 41.1001 229.6 41.4001 229.5C41.8001 228.4 42.3001 227.4 42.9001 226.4C44.3001 224.4 46.2001 222.7 48.4001 221.9C50.0001 221.3 51.7001 221 53.6001 221C54.2001 221 54.9001 221 55.6001 221.1C53.5001 221.7 51.5001 222.6 49.7001 223.7C47.2001 225.2 44.9001 227 43.0001 229.1C43.4001 229 43.8001 229 44.3001 229C45.3001 228.9 46.3001 229 47.2001 229.1C48.3001 228.1 49.5001 227.2 50.8001 226.4C52.7001 225.2 54.8001 224.3 57.0001 223.7C57.4001 223.6 57.8001 223.5 58.3001 223.4C59.6001 223.2 60.9001 223.1 62.2001 223.1C62.3001 223.1 62.4001 223.1 62.6001 223.1C62.2001 221.8 61.7001 220.5 61.3001 219.2C58.8001 218.5 56.3001 218 53.7001 218C51.5001 218.2 49.4001 218.5 47.4001 219.3Z" fill="white"/>
<path d="M231.2 113.8H231.4C231.5 113.8 231.5 113.8 231.6 113.7C231.6 113.7 231.7 113.7 231.7 113.6C231.8 113.6 231.8 113.5 231.9 113.4L232 113.3L232.3 113C232.8 112.5 233.3 111.8 233.8 111.2C234 111 234.1 110.8 234.3 110.6L242.7 100.6L242.8 100.5L244.7 98.2001L251.8 89.7001L255.3 85.4001L255.7 84.9001L255.8 84.8001L256 84.6001C256.1 84.5001 256.2 84.3001 256.3 84.2001C256.6 83.9001 256.8 83.6001 257.1 83.3001C257.9 82.3001 258.5 81.3001 258.4 80.8001C258.3 80.4001 257.7 80.2001 257 80.1001H256.7C256.5 80.1001 256.3 80.1001 256.2 80.0001C255.3 79.9001 254.3 79.8001 253.3 79.6001C252.8 79.5001 252.3 79.5001 251.7 79.4001C250.5 79.2001 249.4 79.1001 248.2 78.9001C247.7 78.8001 247.2 78.8001 246.7 78.7001C246.8 77.2001 247.1 75.0001 247.5 72.6001L244 76.9001C243.9 77.5001 243.9 78.0001 243.8 78.4001L243.5 81.2001L245.8 81.5001L246.3 81.6001C247.3 81.7001 248.3 81.9001 249.3 82.0001C250.5 82.2001 251.6 82.3001 252.8 82.5001C253.1 82.5001 253.5 82.6001 253.8 82.6001L253.7 82.7001L253.6 82.8001L253.5 82.9001L252.6 84.0001L241.5 97.4001L240.6 98.5001L239.2 100.2L235.5 104.6C235.8 103 236.1 101.4 236.4 99.9001C236.6 98.9001 236.8 97.9001 236.9 97.0001C237 96.4001 237.1 95.9001 237.2 95.4001C237.6 93.4001 237.9 91.5001 238.1 90.1001C238.2 89.4001 238.3 88.8001 238.3 88.2001L238.6 85.4001L237.1 85.2001L235 87.7001L234.9 87.8001C235.1 87.8001 235.3 87.8001 235.4 87.9001C235.2 89.3001 234.9 91.5001 234.4 94.1001C234.1 95.8001 233.8 97.7001 233.4 99.6001C233 101.9 232.5 104.4 232 106.8C231.6 108.7 231.3 110.5 230.9 112.4C230.8 113 230.8 113.5 231.1 113.7C231.2 113.8 231.2 113.8 231.2 113.8Z" fill="white"/>
<path d="M176.1 282C174.7 281.9 173.3 281.9 171.9 281.9C157.5 281.9 143.3 284.2 132.4 286.1C130.5 286.4 128.6 286.8 126.7 287.2C125.3 287.5 124 287.7 122.6 288C121.5 288.2 120.4 288.4 119.1 288.7C118.7 288.8 118.2 288.9 117.8 289C117.3 289.1 116.7 289.3 116.3 289.3C116.2 289.3 116.2 289.3 116.1 289.2C115.7 289 115 288.8 114.1 288.8C113.8 288.8 113.5 288.8 113.1 288.9C102.9 290.8 92.7 293.4 82.7 296.2C81.2 296.6 79.6 297.1 78.1 297.5C76.9 297.8 75.8 298.2 74.6 298.5C73.6 298.8 72.6 299.1 71.6 299.4C70 299.9 68.3 300.4 66.7 300.9C66.2 301.1 65.7 301.2 65.2 301.4C64.7 301.5 64.3 301.7 63.8 301.8C62.6 302.2 61.4 302.6 60.2 302.9C60.3 302.8 60.3 302.7 60.4 302.6C60.5 302.5 60.6 302.4 60.7 302.2C61.1 301.8 61.6 301.2 62 300.6L62.1 300.4C62.3 300.1 62.4 299.9 62.5 299.6C62.9 298.7 62.9 298 62.5 296.9C62.5 296.8 62.4 296.7 62.4 296.5C61.9 294.6 61.1 292.6 60.2 290.8C59.5 291 58.9 291.2 58.2 291.4C58 291.5 57.7 291.5 57.5 291.6H57.4C58.3 293.4 59.2 295.3 59.6 297.2C59.9 298.4 60 298.1 59.4 299.1C59.1 299.6 58.5 300.2 58.1 300.7C57.2 301.7 56.4 302.8 55.5 303.8C54.9 304.5 51.1 308.2 51.7 308.8H51.8C52.8 308.8 58.3 306.5 59.1 306.2C61.1 305.5 63.1 304.9 65.1 304.3C65.4 304.2 65.7 304.1 65.9 304C66.6 303.8 67.2 303.6 67.9 303.4C69.7 302.8 71.5 302.3 73.4 301.7C75.5 301.1 77.6 300.5 79.7 299.8C90.9 296.6 102.2 293.6 113.5 291.5C113.6 291.5 113.8 291.5 113.9 291.5C114.6 291.5 115.2 292 116 292C117.1 292 118.4 291.5 119.5 291.3C120.7 291.1 121.8 290.8 123 290.6C126.2 290 129.5 289.3 132.7 288.7C145.5 286.4 158.6 284.5 171.7 284.5C172.2 284.5 172.6 284.5 173.1 284.5C173.9 284.2 175 283.2 176.1 282Z" fill="white"/>
<path d="M245.7 64.6999L245.6 65.2999C245.5 65.8999 245.4 66.4999 245.3 66.9999C246.3 67.0999 247.3 67.2999 248.2 67.3999C248.3 66.4999 248.5 65.5999 248.6 64.5999L249 61.5999C249 61.3999 249.1 61.1999 249.1 60.8999C249.1 60.5999 249.2 60.3999 249.2 60.0999C249.3 59.3999 249.5 58.6999 249.5 58.0999C249.5 57.5999 249.5 57.0999 249.4 56.9999L249.3 56.8999H249.1C249 56.8999 249 56.9999 248.9 56.9999H248.8C248.7 56.9999 248.7 57.0999 248.6 57.1999H248.5C248.4 57.2999 248.3 57.3999 248.1 57.4999C247.6 57.9999 246.9 58.6999 246.4 59.2999C246.2 59.4999 246 59.7999 245.8 59.9999L240.1 66.1999C241.3 66.3999 242.4 66.4999 243.6 66.6999L245.7 64.6999Z" fill="white"/>
<path d="M57.0999 248.2C57.8999 248.1 58.8 248 59.7 248C60.6 248 61.6 248.1 62.5 248.3C61.2 245.7 60 243.6 57 242.5C56.3 242.3 55.7 242.1 54.9 242C54.2 241.9 53.5 241.9 52.9 241.9C52.2 241.9 51.4 242 50.7 242.1C50.2 242.2 49.7 242.3 49.2 242.4C49.6 242.4 49.8999 242.5 50.2999 242.6C50.8999 242.7 51.6 242.9 52.2 243.1C52.6 243.3 52.9999 243.4 53.2999 243.6C53.9999 244 54.7 244.5 55.2 245.1C55.5 245.2 55.7 245.2 56 245.3C56.1 245.3 56.1999 245.4 56.2999 245.4C56.0999 245.4 55.8999 245.5 55.5999 245.5C56.2999 246.2 56.7999 247.2 57.0999 248.2Z" fill="white"/>
<path d="M312.5 220.4C313.5 220.1 314.5 219.9 315.5 219.8C315.6 218.9 315.7 218.1 315.7 217.2C315.7 216.8 315.7 216.4 315.7 216.1C315.4 216.2 315.1 216.4 314.8 216.5C314.1 216.8 313.4 217.2 312.7 217.6C312.7 218.5 312.6 219.5 312.5 220.4Z" fill="white"/>
<path d="M324.2 219.9C326.4 217.9 328.7 216.6 331.2 216C331.8 215.8 332.5 215.8 333.2 215.7C331.2 215 329.1 214.6 327 214.4C324.7 215.5 322.8 217 321 218.9C320.8 219.1 320.6 219.3 320.5 219.5C320.8 219.5 321.1 219.5 321.4 219.6C322.3 219.6 323.3 219.7 324.2 219.9Z" fill="white"/>
<path d="M309.8 221.2C309.7 220.9 309.5 220.5 309.3 220.2C308.8 220.7 308.2 221.2 307.7 221.8C307.6 221.9 307.5 222 307.4 222.1C307.5 222 307.7 222 307.8 221.9C308.5 221.6 309.2 221.4 309.8 221.2Z" fill="white"/>
<path d="M54.2999 262.3C55.6999 262.3 57.1 262.5 58.5 262.9C61.1 263.6 63.5 264.9 65.4 266.7C65.7 264.7 65.6 262.6 64.9 260.8C64.6 259.8 64.1 258.9 63.4 258.1C63.3 257.9 63.1 257.8 63 257.7C62.2 256.8 61.2 256.1 60 255.7C59 255.3 58.0999 255.1 57.0999 255C56.5999 254.9 56.2 254.9 55.7 254.9C51.9 254.9 48.2 256.7 45.7 259.6C46.6 260.4 47.4 261.2 48.2 262C48.3 262.1 48.3 262.1 48.4 262.2C48.8 262.5 49.1 262.9 49.5 263.2C50.1 263 50.8 262.8 51.4 262.7C52.3 262.5 53.1999 262.5 54.0999 262.5C54.1999 262.3 54.2999 262.3 54.2999 262.3ZM49.5999 260C49.4999 260 49.4999 260 49.5999 260C49.5999 259.9 49.4999 259.9 49.5999 260C51.3999 258.6 53.5999 257.8 55.7999 257.8C56.2999 257.8 56.7999 257.8 57.2999 257.9C57.8999 258 58.4 258.2 59 258.4C59.4 258.6 59.8 258.8 60.2 259.1C60.9 259.6 61.5 260.3 61.9 261C60.7 260.5 59.5 260.1 58.2 259.9C56.9 259.6 55.5 259.5 54.2 259.5C52.5 259.4 50.9999 259.6 49.5999 260Z" fill="white"/>
<path d="M340.3 236.8C339.3 235.9 338.2 235.1 336.9 234.3C336.9 235.2 336.9 236.1 336.8 237C336.8 237.2 336.7 237.4 336.7 237.6C337.6 238.2 338.4 238.9 339.1 239.7C340.2 241 340.9 242.4 341.4 244.1C341.5 244.6 341.6 245.1 341.7 245.7C341.8 246.7 341.8 247.8 341.7 248.8C341.6 249.4 341.6 250 341.4 250.6C341 249.8 340.6 249.1 340.2 248.3C339.5 247.1 338.6 245.9 337.7 244.8C336.9 243.9 336.1 243.1 335.3 242.3C335 243.1 334.6 243.9 334.2 244.7C334.1 244.8 334.1 245 334 245.1C334.8 245.9 335.6 246.7 336.3 247.6C337.3 248.9 338.2 250.4 338.9 252C339.6 253.5 340.1 255 340.4 256.6C340.6 257.4 340.7 258.3 340.8 259.2C341.1 258.7 341.4 258.3 341.7 257.8C342.2 256.9 342.7 256 343.1 255C343.8 253.4 344.2 251.8 344.5 250.2C344.7 249.1 344.7 248 344.7 246.9C344.6 244.3 344 241.9 342.7 239.7C342 238.7 341.2 237.7 340.3 236.8Z" fill="white"/>
<path d="M306.3 296.9C305.7 296.8 305 296.8 304.4 296.8C303.7 296.7 303 296.7 302.3 296.6C302.8 297.2 303.3 297.9 303.8 298.5C304.1 298.9 304.4 299.2 304.6 299.6C306.5 302 308.3 304.2 310.2 306.4C309.4 306.3 308.6 306.3 307.7 306.2C299.1 305.6 290.3 305 281 304.5C277.1 304.3 273.2 304.1 269.1 303.9C269.4 303.6 269.8 303.3 270.1 303L270.2 302.9C270.6 302.5 271.1 302 271.7 301.5C273.1 300.1 274.5 298.3 274.7 296.1C274.8 295.6 274.7 295.2 274.7 294.8C273.7 294.7 272.7 294.7 271.7 294.6C271.8 294.9 271.9 295.3 271.8 295.7C271.6 297.7 269.5 299.5 268.2 300.7C268 300.9 267.8 301 267.6 301.2C266.4 302.2 265.2 303.2 263.9 304C262.8 304.8 261.6 305.6 260.5 306.3C266.8 306.6 273.1 306.9 279.4 307.2C280.4 307.3 281.4 307.3 282.4 307.4C291.6 307.9 300.8 308.5 310 309.3C311.3 309.4 312.6 309.5 313.9 309.6C314.9 309.7 316 309.8 317 309.8C313.6 306.1 310.4 302.2 307.2 298.3C307.1 297.9 306.7 297.4 306.3 296.9Z" fill="white"/>
<path d="M129.6 100.8C129.7 102 129.7 103.2 129.8 104.4C129.9 106.8 130.1 109.1 130.2 111.4C130.4 111.8 130.4 112 130.5 112.2V113.8C130.6 114.7 130.7 115.7 130.9 115.9H131C131.1 115.9 131.1 115.9 131.2 115.8C131.3 115.7 131.4 115.6 131.4 115.5V115.4C131.5 115.3 131.6 115.1 131.7 115C131.8 114.8 131.9 114.7 132 114.5L132.7 113.1C134.1 110.6 135.5 107.9 137.1 105.1C137.7 103.9 138.4 102.8 139.1 101.6C140.8 98.6999 142.5 95.6999 144.2 92.6999C145.1 91.1999 146 89.5999 146.9 88.0999C147.5 86.9999 148.1 85.9999 148.7 84.9999C150.3 82.2999 150.6 81.8999 150.6 81.8999C150.6 81.8999 150.7 81.7999 150.7 81.6999C150.9 81.3999 151.1 80.9999 151.4 80.5999C151.9 79.7999 152.5 78.9999 152.7 78.4999C152.8 78.2999 152.9 77.9999 152.8 77.8999V77.7999C152.6 77.5999 152.1 77.5999 151.6 77.5999H151L149.8 77.7999C148.7 77.9999 147.5 78.0999 146.4 78.2999C145.4 78.3999 144.5 78.5999 143.5 78.6999C143.4 78.6999 143.4 78.6999 143.3 78.6999C142 78.8999 140.8 79.0999 139.5 79.2999C139.4 79.2999 139.3 79.2999 139.2 79.2999C139.1 77.9999 139.1 76.6999 139 75.3999C138.1 76.8999 137.2 78.4999 136.3 80.0999L136.4 82.7999L137.5 82.5999L139.7 82.1999C140.2 82.0999 140.8 81.9999 141.3 81.8999C142.1 81.7999 142.8 81.6999 143.6 81.4999C144.6 81.3999 145.5 81.1999 146.5 81.0999C146.9 80.9999 147.3 80.9999 147.6 80.8999C147.3 81.3999 146.9 82.0999 146.6 82.6999C146.5 82.8999 146.3 83.1999 146.2 83.3999C145.4 84.6999 144.7 85.9999 143.9 87.2999C141.3 91.7999 138.7 96.2999 136.2 100.7C135.6 101.7 135 102.8 134.5 103.8C134 104.7 133.5 105.6 133 106.4C133 105.6 132.9 104.7 132.9 103.9C132.8 102.9 132.8 102 132.7 101C132.7 100.9 132.7 100.7 132.7 100.6C132.7 99.3999 132.6 98.0999 132.5 96.8999C132.4 95.0999 132.3 93.3999 132.2 91.5999C132.2 91.2999 132.2 90.9999 132.1 90.6999L131.9 87.7999H131.8C130.9 89.2999 130.1 90.7999 129.3 92.2999C129.4 93.5999 129.4 94.7999 129.5 96.0999C129.4 97.6999 129.5 99.1999 129.6 100.8Z" fill="white"/>
<path d="M43.7 268.9C41.4 265.3 38.8999 261.8 36.0999 258.5C34.7999 256.9 34.2999 256 32.0999 256C31.8999 256 31.7 256 31.5 256C32.5 256.9 33.3999 257.9 34.2999 258.9C31.6999 257.8 28.9 257.1 26 257C24.9 257.4 23.8 257.9 22.9 258.5C21.9 259.2 21 260 20.1 260.8C21.7 260.2 23.3999 259.9 25.2999 259.9C25.4999 259.9 25.5999 259.9 25.7999 259.9C28.1999 260 30.5 260.5 32.7 261.4C34.9 262.3 37 263.7 38.7 265.4C36.3 264.2 33.6 263.4 30.9 263.4C29 263.4 27.2 263.8 25.5 264.7C22.9 266.2 21.3 268.4 20.4 271.1C20.2 271.7 20 272.4 19.9 273C19.8 273.6 19.7 274.3 19.7 275C19.7 275.8 19.6999 276.7 19.7999 277.5C19.8999 278.1 19.9 278.6 20 279.2C20.4 281.3 21.1999 283.4 22.4 285.1C23 281 24.8999 276.7 27.7999 273.6C28.5999 272.7 29.6 271.9 30.6 271.3C31.6 270.7 32.6 270.2 33.7 269.8C34.9 269.4 36.2 269.1 37.5 268.9C38.1 268.8 38.6999 268.8 39.2999 268.8C39.4999 268.8 39.7 268.8 39.9 268.8C39.9 268.8 39.9 268.8 40 268.8C42.1 268.8 42.6 269.7 43.9 271.3C45.7 273.5 47.4999 275.8 49.0999 278.2C47.9999 276.1 46.6999 274.1 45.5999 272.2C44.9999 271 44.3 270 43.7 268.9ZM23 272.8C23.1 272.5 23.1999 272.2 23.2999 271.9C23.7999 270.3 24.9 268.4 27 267.2C28.1 266.6 29.5 266.2 30.9 266.2C31.8 266.2 32.7 266.3 33.7 266.5C32 267 30.4 267.7 29 268.6C28 269.3 27.1 270 26.2 270.9C24.8 272.2 23.7 273.8 22.7 275.5C22.7 274.7 22.8 273.7 23 272.8Z" fill="white"/>
<path d="M351 229.4C351 229 350.9 228.6 350.8 228.2C350.6 227.1 350.3 225.9 350 224.8C349 221.5 346.8 218.2 343.9 216.1C343.6 215.9 343.3 215.7 342.9 215.4C343 215.8 343 216.2 343.1 216.6C343.2 217.1 343.4 218.3 343.4 219.5C345.1 221.1 346.4 223.3 347.1 225.6C347.2 225.9 347.3 226.1 347.3 226.4C347.5 227.1 347.7 227.8 347.8 228.4C345.8 227.1 343.5 226.1 341.2 225.3C338.5 224.4 335.7 224 332.8 224C332.6 224 332.5 224 332.3 224C333.3 224.9 334 225.9 334.7 227C336.8 227.2 338.9 227.6 340.8 228.3C344.6 229.6 348 231.8 350.8 234.8C351.2 234.4 351.2 233.3 351.1 232.2C351.3 231.1 351.1 229.9 351 229.4Z" fill="white"/>
<path d="M89.2 216.5C89.5 216.7 89.8 217 90 217.2C91.6 218.9 92.6 221.3 93.1 223.9C93.8 222.6 94.4 221.3 95.1 220C94.6 218.7 94 217.5 93.2 216.5C92.6 215.6 91.8 214.8 91 214.2C90.9 214.1 90.8 214.1 90.8 214C90.1 213.5 89.3 213 88.5 212.7C88.6 213.4 88.6 214 88.6 214.7C88.6 215.1 88.6 215.6 88.5 216C88.7 216.1 89 216.3 89.2 216.5Z" fill="white"/>
</svg>
