<?xml version="1.0" encoding="utf-8"?>
<!-- Generator: Adobe Illustrator 23.0.6, SVG Export Plug-In . SVG Version: 6.00 Build 0)  -->
<!DOCTYPE svg PUBLIC "-//W3C//DTD SVG 1.1//EN" "http://www.w3.org/Graphics/SVG/1.1/DTD/svg11.dtd" [
	<!ENTITY ns_extend "http://ns.adobe.com/Extensibility/1.0/">
	<!ENTITY ns_ai "http://ns.adobe.com/AdobeIllustrator/10.0/">
	<!ENTITY ns_graphs "http://ns.adobe.com/Graphs/1.0/">
	<!ENTITY ns_vars "http://ns.adobe.com/Variables/1.0/">
	<!ENTITY ns_imrep "http://ns.adobe.com/ImageReplacement/1.0/">
	<!ENTITY ns_sfw "http://ns.adobe.com/SaveForWeb/1.0/">
	<!ENTITY ns_custom "http://ns.adobe.com/GenericCustomNamespace/1.0/">
	<!ENTITY ns_adobe_xpath "http://ns.adobe.com/XPath/1.0/">
]>
<svg version="1.1" id="Layer_1" xmlns:x="&ns_extend;" xmlns:i="&ns_ai;" xmlns:graph="&ns_graphs;"
	 xmlns="http://www.w3.org/2000/svg" xmlns:xlink="http://www.w3.org/1999/xlink" x="0px" y="0px" width="1048px" height="347.8px"
	 viewBox="0 0 1048 347.8" style="enable-background:new 0 0 1048 347.8;" xml:space="preserve">
<style type="text/css">
	.st0{fill:#EEDB5F;}
	.st1{fill:#0400FF;}
	.st2{fill:#FF58A7;}
</style>
<metadata>
	<sfw  xmlns="&ns_sfw;">
		<slices></slices>
		<sliceSourceBounds  bottomLeftOrigin="true" height="326.4" width="1045.4" x="-0.4" y="3.4"></sliceSourceBounds>
	</sfw>
</metadata>
<g>
	<polygon class="st0" points="883.9,134.3 883.9,131.3 883.9,121.3 883.9,118.3 883.9,105.3 856.1,105.3 856.1,134.4 856.1,134.5 
		856,134.5 855.9,134.6 853.9,131.3 846.1,118.3 838.2,105.3 811,105.3 811,131.3 811,134.3 811,177 815.1,177 818.1,177 819,177 
		822,177 827,177 830,177 838.8,177 838.8,146.9 839,146.8 845.3,157.3 846.8,159.9 853.1,170.4 854.8,173.2 857.1,177 857.3,177 
		857.5,177 860.8,177 861,177 883.9,177 	"/>
	<polygon class="st0" points="830,193.7 827,193.7 818.1,193.7 815.1,193.7 815.1,200 815.1,203 815.1,240.4 815.1,246.2 
		815.1,286.3 815.1,286.9 818.2,286.9 823.1,286.9 826.1,286.9 831.1,286.9 834.1,286.9 854.1,286.9 854.1,222.7 854.1,219.7 
		854.1,209.7 854.1,206.7 854.1,203 854.1,193.7 851.8,193.7 	"/>
	<path class="st0" d="M154.6,54.6c0.3,0.1,1.8,0,2.3,0c1.3-0.1,2.5-0.2,3.8-0.3h1.1c1.6-0.1,3.3-0.2,4.9-0.2
		c1.3-0.1,2.5-0.1,3.8-0.1h0.7h3.7c0,0,0,0,0,0c-0.1,3.3-0.3,6.7-0.4,10.1c0,1-0.1,2-0.1,3c0,0.9-0.1,1.9-0.1,2.8
		c-0.1,1.4-0.1,2.8-0.2,4.3c-0.1,2.1-0.2,4.3-0.3,6.4c0,0.8-0.1,1.7-0.1,2.5c0,0.6-0.1,1.3-0.1,2c0,0.7-0.1,1.5-0.1,2.3l-0.1,3.1
		v0.7c0,1.4,0,2.9,0.3,3.3c0.1,0.1,0.1,0.1,0.2,0.1c0.1,0,0.1-0.1,0.2-0.1h0.1c0.1,0,0.1,0,0.2-0.1l0.1-0.1l0.2-0.2
		c0.1,0,0.1-0.1,0.1-0.1l0.2-0.2l0.1-0.1v-0.1c0-0.1,0.1-0.1,0.1-0.2v-0.1c0-0.1,0.1-0.1,0.1-0.2c0.1-0.1,0.1-0.2,0.2-0.3
		c0-0.1,0.1-0.1,0.1-0.2c0-0.1,0.1-0.1,0.1-0.2s0.1-0.1,0.1-0.2l1.4-2.1c1.6-2.4,3.3-5,5.1-7.6c0.5-0.8,1.1-1.6,1.6-2.4
		c0.5-0.7,1-1.5,1.6-2.3c0.2-0.3,0.4-0.5,0.5-0.8c5.6-8.1,11.6-16.6,17.4-24.6c0.8-1.1,1.5-2.1,2.3-3.1c0.3-0.4,0.5-0.7,0.8-1.1
		c0.3-0.4,0.6-0.9,0.9-1.3c1-1.4,1.7-2.4,2.3-3.1c1-1.4,1.2-1.7,1.2-1.7L211,42l0.1-0.1c0.4-0.5,0.9-1.1,1.3-1.6
		c1-1.2,1.9-2.4,2.4-3.3c0.2-0.4,0.3-0.7,0.3-1c0-0.1-0.1-0.2-0.2-0.3h-0.2c0,0-0.1-0.1-0.2-0.1h-2.4l-2,0.1c0,0,0,0-0.1,0
		c-1,0-2,0.1-3,0.1c-0.5,0-0.9,0-1.4,0.1c-1.3,0.1-2.6,0.1-3.9,0.2c-0.1,0-0.2,0-0.3,0c-1,0.1-2,0.1-3,0.2c-1.9,0.1-3.8,0.2-5.6,0.4
		c0.1-2.5,0.2-5.1,0.4-7.7c0.1-1.8,0.2-3.6,0.3-5.4c0.1-2.9,0.3-5.9,0.4-8.8c0.1-3,0.3-5.9,0.4-8.7l0.1-2.7V3.1
		c0.1-1,0.1-2.4-0.2-2.8c-0.1,0-0.1-0.1-0.2-0.1h-0.2l-0.1,0.1h-0.1l-0.1,0.1h-0.2c0,0.1-0.1,0.1-0.1,0.1L193,0.6l-0.1,0.1l-0.1,0.1
		l-0.1,0.1L192.6,1c-0.1,0.1-0.1,0.2-0.2,0.3l-0.1,0.1c-0.1,0-0.1,0.1-0.1,0.1c0,0.1-0.1,0.2-0.2,0.3l-0.1,0.1L191.8,2
		c-0.2,0.2-0.3,0.3-0.4,0.5c-0.2,0.2-0.4,0.5-0.6,0.7c-0.1,0.1-0.3,0.3-0.4,0.5l-2.3,3.1c-0.2,0.3-0.5,0.7-0.7,1
		c-6.6,8.8-18.9,25.8-18.9,25.8l-0.2,0.3l-0.2,0.3c-0.4,0.6-0.8,1.2-1.2,1.7c-0.2,0.2-0.3,0.5-0.5,0.7c-0.3,0.4-0.5,0.7-0.8,1.1
		c-0.1,0.2-0.6,0.9-1.3,1.8c-1.7,2.3-4.6,6.3-5.4,7.4l-1.9,2.7c-0.2,0.2-0.3,0.4-0.5,0.6c-0.4,0.6-0.9,1.2-1.3,1.8
		c-0.5,0.8-0.9,1.6-0.9,1.9v0c0,0.1,0,0.1-0.1,0.5l0.1,0.1C154.4,54.5,154.5,54.6,154.6,54.6z"/>
	<polygon class="st0" points="924.4,194.7 924.4,198.1 924.4,231.7 924.3,231.7 924.2,231.8 924.1,231.8 916.8,219.7 908.9,206.7 
		901,193.7 899.9,193.7 896.9,193.7 871,193.7 867.5,193.7 865.6,193.7 865.6,219.7 865.6,222.7 865.6,286.9 867.1,286.9 
		870.1,286.9 873.6,286.9 876.6,286.9 881.6,286.9 884.6,286.9 901.7,286.9 901.7,247.7 902,247.6 908.3,258 909.8,260.7 
		916.1,271.1 917.7,273.7 925.6,286.9 925.8,286.9 926,286.9 929.3,286.9 929.5,286.9 960.5,286.9 960.5,222.7 960.5,219.7 
		960.5,209.7 960.5,206.7 960.5,203 960.5,200 960.5,193.7 924.4,193.7 	"/>
	<path class="st0" d="M932.6,136h-2.5v1v6.8v4.7v3.1h7.3v3.9c-0.8,0.3-1.8,0.4-3,0.4c-2.2,0-4.2-0.4-6.2-1.2
		c-0.3-0.1-0.6-0.2-0.8-0.4c-0.7-0.4-1.4-0.8-2-1.3c-1.2-0.9-2.3-2.1-3.2-3.4c-1.2-1.8-1.9-4-2-6.5c0-0.2,0-0.4,0-0.6
		c0-1.2,0.1-2.4,0.4-3.5c0.3-1.2,0.8-2.4,1.5-3.5c1.2-2.1,3.1-3.7,5.7-4.9c2.6-1.2,5.8-1.8,9.5-1.8c3.1,0,6.7,0.4,10.8,1.3
		c0.3,0.1,0.6,0.1,0.9,0.2c4.5,1.1,8.2,2.2,11.2,3.4v-2.8v-8v-3.1v-9.7c-2.9-1.7-6.8-3.1-11.5-4.3c-4.8-1.1-9.7-1.7-14.8-1.7h-1.8
		c-0.4,0.1-0.9,0.1-1.3,0.1h-0.5c-0.4,0-0.8,0.1-1.2,0.1c-2.6,0.2-5.1,0.6-7.5,1.1c-3.7,0.9-7.1,2-10.3,3.6
		c-6.7,3.2-11.9,7.7-15.6,13.4c-1.6,2.5-2.9,5.1-3.8,7.9c-0.1,0.3-0.2,0.6-0.3,1c-0.3,1-0.5,2-0.7,3c-0.5,2.4-0.7,4.8-0.7,7.4h0
		c0,4,0.6,7.8,1.8,11.3c0.8,2.5,2,5,3.4,7.2c0.5,0.8,1,1.5,1.6,2.2c0.9,1.2,1.9,2.3,2.9,3.3c0,0,0,0.1,0.1,0.1
		c1.5,1.5,3.2,2.9,5,4.1c0.4,0.3,0.9,0.6,1.4,0.9c1,0.7,2.1,1.3,3.2,1.9c0.3,0.2,0.6,0.3,0.9,0.5c6.5,3.2,14.1,4.8,22.7,4.8
		c1,0,2.1,0,3.1-0.1c1.3-0.1,2.5-0.1,3.7-0.3c2.2-0.2,4.2-0.5,6.2-0.9c1.1-0.2,2.2-0.5,3.2-0.7c1.5-0.4,3-0.9,4.3-1.4
		c2.9-1.1,5.4-2.2,7.5-3.5V165v-3v-6.5v-3V152v-3v-4.6v-3.1V136H932.6z"/>
	<path class="st0" d="M618.2,141.1c0-1.3-0.1-2.6-0.2-3.8c0-0.3-0.1-0.6-0.1-0.9c-0.3-2.4-0.8-4.6-1.6-6.8c-0.9-2.5-2-4.9-3.5-7.2
		c-3.6-5.7-8.5-10.1-14.7-13.4c-6.2-3.3-13.1-4.9-20.6-4.9c-5.2,0-10.1,0.8-14.6,2.3l-1.5,0.6c-0.4,0.2-0.9,0.3-1.3,0.5
		c-0.1,0-0.1,0.1-0.2,0.1h-0.1c-0.4,0.2-0.7,0.3-1.1,0.5c-0.1,0-0.1,0.1-0.2,0.1s-0.1,0-0.2,0.1c-0.4,0.2-0.9,0.4-1.3,0.7
		c-6.2,3.3-11.1,7.7-14.7,13.4c-0.2,0.3-0.4,0.6-0.6,1c0,0.1-0.1,0.1-0.1,0.2v0.1c0,0,0,0.1-0.1,0.1l-0.1,0.1c0,0.1-0.1,0.1-0.1,0.2
		c0,0.1-0.1,0.2-0.1,0.3c-0.1,0.1-0.1,0.3-0.2,0.4l-0.1,0.1c0,0.1-0.1,0.2-0.1,0.2c0,0.1-0.1,0.1-0.1,0.2c-0.1,0.1-0.1,0.2-0.2,0.4
		c-0.1,0.3-0.3,0.5-0.4,0.8c0,0.1-0.1,0.1-0.1,0.2v0.2c0,0.1-0.1,0.2-0.1,0.2c-0.1,0.2-0.1,0.3-0.2,0.5v0.2c0,0.1-0.1,0.2-0.1,0.3
		v0.3c0,0.1-0.1,0.2-0.1,0.3c-0.1,0.2-0.1,0.3-0.2,0.5c0,0.1,0,0.1-0.1,0.2c0,0.1-0.1,0.2-0.1,0.3v0.1c0,0.1-0.1,0.3-0.1,0.4v0.4
		c0,0.1,0,0.1-0.1,0.2c-0.1,0.4-0.3,0.8-0.4,1.3v0.3c-0.1,0.2-0.1,0.5-0.2,0.7c0,0.1-0.1,0.2-0.1,0.3v0.2c0,0.2-0.1,0.3-0.1,0.5v0.6
		c0,0.1-0.1,0.3-0.1,0.4c-0.1,0.6-0.2,1.3-0.3,1.9c-0.1,0.9-0.1,1.9-0.2,2.9c0,0.4,0,0.8,0,1.1c0,0.4,0,0.8,0,1.2
		c0,1.6,0.2,3.1,0.4,4.7c0.5,3,1.3,5.9,2.6,8.6c0.7,1.5,1.4,2.9,2.3,4.3c0.7,1.5,1.6,2.8,2.5,4.1c0.7,1,1.6,1.9,2.4,2.8
		c0.3,0.3,0.5,0.5,0.8,0.8c1.5,1.4,3.2,2.7,5,3.9c0.1,0.1,0.2,0.1,0.2,0.2c1,0.6,2,1.3,3.1,1.8h0c0.1,0,0.2,0.1,0.2,0.1
		c6.1,3.2,13,4.8,20.4,4.8c2.1,0,4.1-0.1,6.1-0.4c1.3-0.2,2.7-0.4,4-0.7c3.7-0.8,7.3-2.1,10.6-3.8c2.3-1.2,4.5-2.6,6.4-4.2
		c1.1-0.8,2.1-1.8,3-2.7c2-2,3.8-4.1,5.3-6.5C616.4,154.3,618.2,148,618.2,141.1C618.2,141.1,618.2,141.1,618.2,141.1z M567.9,147.4
		c-0.8-1.3-1.2-2.8-1.4-4.3c0-0.4-0.1-0.9-0.1-1.3c0-1,0.1-1.9,0.3-2.8c0.2-1,0.6-2,1.1-2.9v0c1-1.7,2.3-3,4-4s3.6-1.5,5.6-1.5
		c1.5,0,2.9,0.3,4.3,0.9c0.4,0.2,0.9,0.4,1.3,0.6c0.8,0.5,1.5,1,2.2,1.7c0.7,0.7,1.4,1.5,1.9,2.4c0.9,1.5,1.3,3.1,1.4,4.8
		c0,0.3,0.1,0.6,0.1,0.8c0,0.8-0.1,1.5-0.2,2.2c-0.2,1.2-0.6,2.3-1.3,3.4c-1,1.7-2.3,3.1-4,4c-1.7,1-3.5,1.5-5.6,1.5
		c-1,0-2-0.1-2.9-0.4c-0.9-0.3-1.9-0.6-2.7-1.1c0,0-0.1-0.1-0.1-0.1C570.1,150.3,568.9,149.1,567.9,147.4z"/>
	<path class="st0" d="M108.8,77.8c0.8-0.1,1.6-0.3,2.3-0.4c0.1,0,0.2,0,0.4-0.1h0.3c1-0.1,2-0.3,3-0.4c1.8-0.2,3.5-0.4,5.2-0.5
		c0.1,1.8,0.2,3.6,0.3,5.4c0.1,1.6,0.2,3.1,0.2,4.7c0.1,1.2,0.1,2.5,0.2,3.7c0.1,2.4,0.3,4.8,0.4,7.1c0.2,0.4,0.2,0.6,0.3,0.8v1.6
		c0.1,0.9,0.2,1.9,0.4,2.1h0.1c0.1,0,0.1,0,0.2-0.1c0.1-0.1,0.2-0.2,0.2-0.3v-0.1c0.1-0.1,0.2-0.3,0.3-0.4c0.1-0.2,0.2-0.3,0.3-0.5
		l0.7-1.4c1.4-2.6,2.9-5.3,4.5-8.1c0.8-1.5,1.7-3.1,2.6-4.6c1.5-2.6,3-5.3,4.6-8c0.9-1.6,1.9-3.2,2.8-4.8c0.6-1.1,1.3-2.2,1.9-3.2
		c1.6-2.8,1.9-3.2,1.9-3.2s0.1-0.1,0.1-0.2c0.2-0.3,0.4-0.7,0.7-1.1c0.5-0.8,1.1-1.6,1.3-2.2c0.1-0.2,0.2-0.5,0.1-0.6v-0.1
		c-0.2-0.2-0.7-0.2-1.2-0.2h-0.6l-1.2,0.2c-1.2,0.2-2.3,0.3-3.5,0.5c-1,0.1-2,0.3-3,0.4c-0.1,0-0.1,0-0.2,0
		c-1.3,0.2-2.6,0.4-3.9,0.6c-0.1,0-0.2,0-0.3,0c-0.2-4.5-0.5-9.5-0.7-14.2c-0.1-1.7-0.2-3.4-0.2-5l-0.1-1.7v-0.2
		c0-0.6-0.1-1.4-0.3-1.7c-0.1-0.1-0.1-0.1-0.2-0.1c0,0-0.1,0-0.1,0.1h-0.1l-0.2,0.2l-0.1,0.1l-0.1,0.1l-0.2,0.2v0.2
		c0,0.1-0.1,0.1-0.1,0.2c-0.1,0.2-0.3,0.4-0.4,0.6c-0.1,0.1-0.2,0.3-0.2,0.4c-0.1,0.2-0.2,0.3-0.3,0.5l-1.3,2.1v0.1
		c-0.1,0.2-0.2,0.4-0.4,0.6c-3.6,5.8-10.2,17.2-10.2,17.2c-0.3,0.5-0.6,1.1-0.9,1.5c-0.2,0.4-0.5,0.8-0.7,1.2
		c-0.2,0.4-3,5.1-3.6,6.1l-1,1.8c-0.1,0.1-0.1,0.2-0.2,0.3c-0.2,0.4-0.5,0.9-0.8,1.3c-0.3,0.5-0.5,1-0.5,1.2v0.1
		c0.1,0.1,0.1,0.1,0.2,0.1H108.8z"/>
	<path class="st0" d="M695.1,269.1l0-3.1l-0.1-12.8l0-3l0-0.5v0c-0.3,0.1-0.6,0.3-0.8,0.4c-2.1,1-4.2,2-6.5,2.7
		c-1,0.3-2.1,0.7-3.2,1c-2.4,0.6-4.8,1-7.2,1.3c-1.5,0.1-2.9,0.2-4.4,0.2c-0.5,0-0.9,0-1.4-0.1c-3.5-0.1-6.6-0.7-9.2-1.7
		c-0.4-0.1-0.7-0.3-1.1-0.5c-1-0.5-2-1-2.8-1.7c-1.1-0.8-2.1-1.8-2.9-2.9c-1.6-2.2-2.3-4.6-2.3-7.4s0.8-5.2,2.3-7.4
		c1.6-2.2,3.8-3.8,6.8-5.1c3-1.2,6.5-1.8,10.6-1.8c3.8,0,7.6,0.5,11.4,1.4c3.8,1,7.1,2.3,10.2,4v-10.2v-3v-8.4v-3.1v-10.2
		c-2.9-1.5-6.8-2.7-11.6-3.6c-4.1-0.8-8.3-1.2-12.6-1.3c-0.7,0-1.4-0.1-2.1-0.1c-0.3,0-0.6,0-0.9,0c-8.8,0.1-16.8,1.7-24,4.8
		c-1,0.4-2,0.9-3,1.4c0,0-0.1,0-0.1,0c-8.3,4.2-14.8,9.9-19.4,17.2c-0.8,1.3-1.6,2.6-2.3,4c-0.5,1-1,2-1.4,3
		c-0.1,0.2-0.2,0.4-0.3,0.7c-1.8,4.7-2.8,9.7-3,15c0,0.7-0.1,1.3-0.1,2c0,2.8,0.2,5.4,0.7,8c0.2,1,0.4,2,0.6,3
		c1.1,4.8,3,9.4,5.7,13.6c1.3,2,2.7,3.8,4.2,5.6c1.7,2,3.7,3.9,5.8,5.6c0.3,0.3,0.6,0.5,1,0.8c0.9,0.7,1.9,1.4,2.9,2.1
		c1.8,1.2,3.6,2.3,5.6,3.3c8.2,4.2,17.5,6.2,27.8,6.2c5.1,0,10.1-0.5,15.1-1.5c4-0.8,7.3-1.8,10.2-3c0.7-0.3,1.3-0.6,1.9-0.9l0-2.3
		L695.1,269.1z"/>
	<path class="st0" d="M217.9,72.3c0.7,0.1,1.4,0.1,2.1,0.2c1.2,0.1,2.4,0.2,3.4,0.4c0.1,0,0.1,0,0.2,0c2.5,0.2,4.5,0.4,5.2,0.5
		c-0.2,1.4-0.5,3.7-1,6.3c-0.3,1.7-0.7,3.7-1,5.7c-0.4,2.4-0.9,4.9-1.4,7.4c-0.4,1.9-0.7,3.8-1.1,5.7c-0.1,0.6-0.1,1.1,0.2,1.3
		c0.1,0,0.1,0.1,0.2,0h0.1c0.1,0,0.1,0,0.2-0.1c0,0,0.1,0,0.1-0.1c0.1,0,0.1-0.1,0.2-0.2l0.1-0.1l0.3-0.3c0.5-0.5,1-1.2,1.5-1.8
		c0.2-0.2,0.3-0.4,0.5-0.6l8.6-10.3l0.1-0.1l2.1-2.6l7-8.5l3.6-4.4l0.4-0.5l0.1-0.1l0.2-0.2c0.1-0.1,0.2-0.3,0.3-0.4
		c0.3-0.3,0.5-0.6,0.8-0.9c0.8-1,1.4-2,1.3-2.6c-0.1-0.4-0.7-0.6-1.4-0.7h-0.3c-0.2,0-0.4,0-0.5-0.1c-1-0.1-2-0.3-3-0.4
		c-0.5-0.1-1.1-0.1-1.6-0.2c-1.2-0.2-2.4-0.3-3.6-0.5c-0.5-0.1-1-0.1-1.5-0.2c0.3-3.2,1.2-8.8,2.1-14.5l0.4-3.1
		c0-0.2,0.1-0.4,0.1-0.7s0.1-0.5,0.1-0.8c0.1-0.7,0.3-1.4,0.3-2c0-0.5,0-1-0.1-1.1l-0.1-0.1H243c-0.1,0-0.1,0.1-0.2,0.1h-0.1
		c-0.1,0-0.1,0.1-0.2,0.2h-0.1c-0.1,0.1-0.2,0.2-0.4,0.3c-0.5,0.5-1.2,1.2-1.7,1.8c-0.2,0.2-0.4,0.5-0.6,0.7l-5.8,6.4l-2.5,2.8
		l-7.1,7.8l-2.8,3.1l-2.5,2.7c-0.3,0.2-0.5,0.5-0.8,0.8l-0.1,0.1c-0.5,0.5-1.1,1.1-1.5,1.6c-0.4,0.5-0.7,1.1-0.5,1.4
		C216.3,71.9,217,72.2,217.9,72.3z"/>
	<path class="st0" d="M523.2,164.7c1.4-1.4,2.7-2.9,3.8-4.6c3.6-5.2,5.4-11.2,5.6-18.1c0-0.3,0-0.5,0-0.8c0-1,0-1.9-0.1-2.9
		c0-0.5-0.1-1.1-0.2-1.6c-0.3-2.2-0.7-4.2-1.3-6.2c-0.9-2.9-2.3-5.7-4-8.2c-3.7-5.4-8.8-9.6-15.3-12.5c-6.5-2.9-13.8-4.4-22-4.4H460
		v65.5v6.1h2.3h5.7h3h5h3h10.9c4.6,0,9-0.5,13.1-1.5c1-0.2,2-0.5,3-0.8c2-0.6,3.9-1.3,5.7-2.1c3.3-1.5,6.2-3.3,8.8-5.4
		C521.4,166.4,522.4,165.6,523.2,164.7z M490,153.7v-19.3v-3v-1.7h0.5c3.2,0,5.8,0.5,8,1.7c0.8,0.4,1.5,0.9,2.2,1.5
		c0.5,0.5,1,1,1.4,1.5c1.3,1.6,2.1,3.7,2.3,6c0,0.4,0.1,0.8,0.1,1.3c0,0.6,0,1.2-0.1,1.8c-0.2,1.7-0.8,3.2-1.7,4.5
		c-1.1,1.7-2.7,3.1-4.7,4c-0.1,0.1-0.2,0.1-0.3,0.2c-0.8,0.4-1.7,0.7-2.7,0.9c-1.4,0.4-3,0.6-4.7,0.6H490z"/>
	<polygon class="st0" points="564.9,193.7 535.9,193.7 530.6,193.7 517,193.7 517,198.9 517,202 517,219.7 517,222.7 517,225.4 
		520.8,225.4 523.8,225.4 525,225.4 528,225.4 533,225.4 536,225.4 543.4,225.4 543.4,235.4 543.4,238.4 543.4,248.4 543.4,251.4 
		543.4,286.9 551.4,286.9 554.4,286.9 559.4,286.9 562.4,286.9 582.4,286.9 582.4,225.4 608.9,225.4 608.9,222.7 608.9,219.7 
		608.9,209.7 608.9,206.7 608.9,201.6 608.9,198.4 608.9,193.7 569.6,193.7 	"/>
	<polygon class="st0" points="476,193.7 468.8,193.7 468.8,194.2 468.8,203 468.8,229.5 468.8,234.3 468.8,251.8 468.8,256.5 
		468.8,267.2 468.8,271.3 468.8,286.9 473.5,286.9 476.5,286.9 476.8,286.9 479.8,286.9 484.8,286.9 487.8,286.9 507.8,286.9 
		507.8,222.7 507.8,219.7 507.8,209.7 507.8,206.7 507.8,203 507.8,200 507.8,193.7 479,193.7 	"/>
	<path class="st0" d="M806.2,231.6c-0.1-0.4-0.1-0.7-0.2-1.1c-0.5-2.6-1.3-5-2.3-7.5c-1-2.4-2.2-4.8-3.6-7.1
		c-4.7-7.4-11.1-13.2-19.2-17.4c-6.2-3.2-13-5.2-20.2-6c-1-0.1-2-0.2-3-0.2c-1.2-0.1-2.4-0.1-3.6-0.1c-7.3,0-14.1,1.2-20.4,3.5
		c-1,0.4-2,0.8-3,1.2c-1.1,0.5-2.3,1-3.4,1.6c-8.1,4.3-14.4,10-19.1,17.4c-1.1,1.7-2,3.5-2.9,5.2c-0.4,0.9-0.8,1.8-1.2,2.8
		c-0.7,1.7-1.2,3.5-1.6,5.3c-0.9,3.5-1.3,7.2-1.3,11c0,1.4,0.1,2.8,0.2,4.2c0.2,2.4,0.6,4.8,1.2,7.1c0.3,1.2,0.6,2.3,1,3.4
		c1.1,3.3,2.6,6.5,4.6,9.6c1.3,2,2.7,4,4.3,5.8c1.7,2,3.6,3.9,5.7,5.6c0.4,0.3,0.8,0.6,1.2,0.9c0.9,0.7,1.8,1.3,2.7,2
		c1.7,1.1,3.4,2.2,5.2,3.1c8.1,4.2,17,6.3,26.8,6.3s18.7-2.1,26.8-6.3c8-4.3,14.4-10,19.1-17.4c4.7-7.3,7-15.5,7-24.4h0
		c0-1.7-0.1-3.5-0.3-5.1C806.6,234,806.4,232.8,806.2,231.6z M741.6,248.1c-1.2-2.1-1.9-4.6-1.9-7.2c0-2.7,0.6-5.1,1.9-7.3
		c1.2-2.2,3-3.9,5.2-5.2c2.2-1.2,4.6-1.9,7.2-1.9c2.6,0,5,0.6,7.2,1.9s4,3.1,5.3,5.3c0.7,1.2,1.2,2.5,1.5,3.8
		c0.2,1.1,0.4,2.2,0.4,3.4c0,0,0,0,0,0.1c0,2.6-0.6,5-1.9,7.1c-0.4,0.8-1,1.5-1.5,2.2c-1,1.3-2.2,2.3-3.7,3.1
		c-1.3,0.7-2.6,1.3-4,1.6c-1,0.2-2.1,0.3-3.3,0.2c-2.2,0-4.3-0.5-6.3-1.4c-0.3-0.2-0.6-0.3-0.9-0.5c-0.7-0.4-1.4-0.9-2-1.4
		C743.5,250.8,742.5,249.6,741.6,248.1z"/>
	<path class="st0" d="M632.3,177h0.5h2.5h5h3h11v-17.7h0.9c4.4,0,8.5-0.5,12.3-1.4c1-0.2,2-0.5,3-0.8c0.7-0.2,1.5-0.5,2.2-0.7
		c1.5-0.6,3-1.2,4.3-2c0.9-0.5,1.8-1.1,2.6-1.7c2.1-1.5,3.9-3.3,5.4-5.3c2.1-2.7,3.4-5.9,4.1-9.5c0.2-1,0.3-2,0.4-3.1
		c0.1-0.9,0.1-1.8,0.1-2.7c0-0.4,0-0.9,0-1.3c-0.1-1.6-0.2-3.1-0.5-4.6c-0.7-3.6-2.2-6.8-4.4-9.5c-3.3-4-7.8-6.9-13.4-8.7
		c-5.6-1.8-12-2.7-19.2-2.7h-27.8v37.2v0v4.6v18.5V177h5.4H632.3z M655.2,139.7h-0.7v-5.4v-3v-4.6h0.8c2.5,0,4.5,0.6,5.9,1.8
		c0.9,0.8,1.5,1.7,1.8,2.8c0.2,0.6,0.3,1.2,0.3,1.9c0,0.4,0,0.7-0.1,1.1c-0.1,0.9-0.5,1.7-1,2.4c-0.3,0.4-0.6,0.8-1,1.1
		c-0.5,0.4-1.1,0.7-1.7,1c-1.2,0.5-2.6,0.8-4.3,0.8V139.7z"/>
	<path class="st0" d="M347.3,218.2c0-0.4-0.1-0.8-0.2-1.3c-0.2-1.2-0.5-2.3-0.8-3.4c-1.1-3.4-3.3-6.7-6.2-8.9
		c-3.8-2.8-9.1-4.2-13.8-3c-3.9,1-7.1,3.1-9.7,5.9c-0.7,0.8-1.4,1.6-2.1,2.4c-0.7,0.9-1.3,1.7-1.8,2.7c-0.6,0.9-1.1,1.8-1.6,2.8
		c-0.4,0.7-0.7,1.4-1.1,2.1c-0.5,1.1-1,2.1-1.4,3.2c0,0,0,0,0,0.1c0,0,0-0.1,0-0.1c0.3-1.3,0.6-2.6,0.9-3.9c0.1-0.5,0.2-1,0.3-1.5
		c0.2-1,0.4-2,0.6-3c0.4-2.1,0.7-4.3,0.8-6.4c0-1.3,0-2.5-0.1-3.8c-0.1-0.8-0.2-1.6-0.4-2.3c-1.3-6.2-6.2-11.1-12.3-12.7
		c-9-2.5-20.5,0.1-25.4,8.7c2.6,0.1,5.3-0.2,8,0c3.4,0.3,6.7,1.1,9.7,2.7c0.9,0.5,1.7,1,2.5,1.5c1.1,0.7,2.1,1.5,3,2.4
		c2.2,2.1,4,4.6,5.4,7.3c0.5,0.9,0.9,1.9,1.3,2.9c0.3,0.8,0.6,1.6,0.8,2.4c0,0.2,0.1,0.3,0.1,0.5c0.4,1.6,0.7,3.3,0.9,4.9
		c0,0.2,0,0.4,0.1,0.6c-0.1-0.2-0.2-0.4-0.4-0.7c-0.8-1.4-1.8-2.9-2.9-4.3c-0.7-0.8-1.4-1.7-2.2-2.5c-1.4-1.4-3-2.7-4.6-3.6
		c-1.2-0.7-2.5-1.3-3.8-1.6c-3-0.8-6.3-0.6-9.2,0.5c-1.5,0.6-2.9,1.5-4.1,2.8c-3.8,4-4.6,10.2-3.9,15.5c4-4,7.8-7.7,13.7-8.3
		c1.2-0.1,2.5-0.1,3.7,0c2.9,0.3,5.8,1.2,8.3,2.7c0.5,0.3,1,0.6,1.5,1c1.2,0.9,2.3,1.9,3.2,3c-0.4,0.4-0.9,0.7-1.3,1.1
		c-0.9,0.8-1.8,1.5-2.6,2.4c-0.9,0.9-1.8,1.9-2.7,2.8c-7.1,8-11.9,18-14,28.4c0,0.2-0.1,0.4-0.1,0.6c-0.3-0.5-0.6-0.9-0.9-1.4
		c-7-11-13.6-22.3-19.6-33.9c-8.5-16.3-16.1-33-23-49.9c-2.3-5.5-4.5-11.2-6.6-16.8c-1.7-4.5-3.4-9-5-13.5c-0.4-1.1-0.8-2.2-1.2-3.3
		c-0.6-1.7-1.2-3.4-1.8-5.1c-0.4-1.3-0.9-2.5-1.3-3.8c-0.4-1.1-0.7-2.3-1.1-3.4c-0.9-2.9-1.9-5.9-2.8-8.8c-0.5-1.6-0.8-2.9-2.5-3.5
		c-1.9-0.7-4.1-1-6.1-1.4c-5.5-1.1-11.2-1.7-16.8-2.1c-1.7-0.1-3.5-0.2-5.2-0.3c-4.3-0.2-8.5-0.3-12.8-0.3
		c-10.6,0-21.4,0.6-31.9,2.5c-0.1,0-0.2,0-0.2,0c-1.1,0.2-2.3,0.3-3.5,0.6c-0.4,0.1-0.8,0.1-1.2,0.2c-1.1,0.2-2.1,0.5-3,0.9
		c-0.2,0.1-0.4,0.2-0.6,0.3c-2.2,1.3-2.5,4.8-3.2,7c-2.2,6.8-4.4,13.5-6.8,20.2c-4.6,13.1-9.6,26-15.1,38.7c-3.9,9-7.9,18-12.2,26.8
		c-0.5,1-1,2-1.4,2.9c-0.3,0.5-0.5,1-0.8,1.5c-0.5,1-1,1.9-1.4,2.9c-0.6,1.3-1.3,2.5-1.9,3.8c-0.7,1.3-1.3,2.7-2,4
		c-0.1,0.1-0.1,0.2-0.2,0.3c-0.1,0.1-0.1,0.2-0.2,0.3c-0.4,0.8-0.9,1.6-1.3,2.4c-0.1,0.2-0.2,0.4-0.3,0.6c-0.7,1.3-1.3,2.5-2,3.8
		c-0.5,0.9-1,1.9-1.6,2.8c-1.7,3.2-3.5,6.3-5.4,9.4c-0.3,0.5-0.6,0.9-0.8,1.4c-0.3,0.5-0.6,1.1-0.9,1.6c-0.1,0.2-0.2,0.4-0.3,0.5
		c-0.2,0.4-0.4,0.7-0.6,1.1c0,0,0,0,0,0c0-0.1-0.1-0.2-0.1-0.4c-2.8-9-6.6-17.8-11-26.3c-0.7-1.3-1.4-2.7-2.1-4
		c-1.4-2.5-2.8-4.9-4.3-7.3c1.5-1,3.1-1.6,4.7-2c1-0.2,2.1-0.3,3.1-0.3c0.5,0,1.1,0,1.6,0.1c1.1,0.1,2.2,0.4,3.3,0.7
		c1.5,0.5,3,1.2,4.4,2c0.5,0.3,1.1,0.6,1.6,1c0.3,0.2,0.6,0.4,0.9,0.7c0.8,0.6,1.6,1.3,2.4,2c0.5,0.4,0.9,0.9,1.3,1.4
		c0.7,0.8,1.3,1.6,1.8,2.4c0.2,0.3,0.4,0.6,0.5,0.9c0.1-0.4,0.2-0.8,0.3-1.3c0.1-0.7,0.2-1.4,0.3-2.1c0-0.4,0.1-0.9,0.1-1.3
		c0-0.7,0-1.4-0.1-2c-0.1-1.5-0.4-3-0.8-4.4c-0.3-1-0.7-1.9-1.1-2.8c-0.3-0.7-0.7-1.3-1.2-1.9c-0.7-0.9-1.4-1.7-2.3-2.4
		c-0.1-0.1-0.2-0.1-0.2-0.2c-2.5-1.8-5.3-2.5-8.1-2.3c-1.6,0.1-3.1,0.5-4.6,1.1c-3.5,1.4-6.6,3.9-8.7,6.9
		c2.1-7.5,6.4-14.2,14.5-15.9c4.1-0.9,9.5-0.7,12.9,1.9c-0.4-5.9-3.4-11.1-9.1-13.2c-4.6-1.7-9.1-1-13,2c-7.1,5.5-9.1,15.3-8.3,23.8
		c-3.4-7.9-10.2-16.4-19-18.4c-4.8-1.1-9.9-0.6-14,2.5c-6,4.5-7,13.2-5.9,20.2c5-5,10.3-8.8,17.3-9.1c0.4,0,0.7,0,1.1,0
		c6.6,0.1,12.8,3.1,18,7.1c-0.3-0.1-0.6-0.2-1-0.4c-5.3-1.9-11.2-2.9-16.6-0.9c-3.3,1.2-6.1,3.9-7.9,7.1c-1.4,2.5-2.1,5.3-1.7,8
		c0.2,1.9,0.9,3.8,2.3,5.5c1.8-5.4,5.9-10,10.8-13c2-1.2,4.1-2.2,6.3-2.8c0.4-0.1,0.9-0.2,1.3-0.3c1.3-0.2,2.7-0.3,4-0.3
		c0.8,0,2.9-0.3,3.6,0.1c0.5,0.3,1,1.9,1.3,3c0,0.1,0.1,0.2,0.1,0.3c0.1,0.2,0.1,0.3,0.1,0.4c0.5,1.2,0.9,2.3,1.3,3.5
		c0,0.1,0.1,0.2,0.1,0.2c0,0,0,0,0,0c0.2,0.4,0.3,0.9,0.5,1.4c0.5,1.3,0.9,2.7,1.3,4c0.2,0.5,0.3,1,0.5,1.5c0.4,1.2,0.7,2.4,1,3.6
		c0.3,1,0.5,2,0.8,3c0.4,1.8,0.9,3.5,1.3,5.3c0.9,4,1.6,8,2.2,12c0.4,2.5,0.7,4.9,0.9,7.4c0.1,1.2,0.5,2.9,0.6,4.4
		c0,0.4,0.1,0.9,0.1,1.3c0,0.5,0,1-0.1,1.5c-0.3,1.1-1.7,2.6-2.3,3.5c-0.5,0.7-0.9,1.4-1.4,2.1c-0.3,0.5-0.7,1-1,1.5
		c-0.3,0.4-0.6,0.9-1,1.3c-0.4,0.6-0.8,1.1-1.3,1.7c-0.7,1-1.5,2-2.2,3c0,0,0,0.1-0.1,0.1c0,0,0,0-0.1-0.1c-0.7-0.9-1.5-1.8-2.2-2.7
		c-0.1-0.1-0.2-0.2-0.3-0.3c-0.7-0.8-1.3-1.5-2-2.3c-0.7-0.8-1.5-1.6-2.2-2.4c-0.7-0.8-1.4-1.5-2.2-2.2c-0.4-0.4-0.8-0.8-1.2-1.2
		c-0.4-0.4-0.8-0.8-1.2-1.2c-0.4-0.3-0.7-0.7-1.1-1c-0.1-0.1-0.1-0.1-0.2-0.2c-0.8-0.8-1.7-1.6-2.6-2.4c-0.4-0.4-0.8-0.7-1.1-1.1
		c-0.8-0.7-1.6-1.4-2.4-2.1c0,0,0,0-0.1-0.1c-0.9-0.8-1.9-1.5-2.9-2.2c-0.7-0.5-1.5-0.9-2.3-1.3c0.9-0.8,1.9-1.4,2.9-1.9
		c1.2-0.6,2.4-0.9,3.7-1.2c1-0.2,2-0.2,3-0.2c0,0,0,0,0.1,0c0.8,0,1.6,0.1,2.4,0.2c0.6,0.1,1.2,0.2,1.8,0.4c2.7,0.7,5.2,2,7.1,3.9
		c0.3-2,0.2-4.2-0.5-6.1c-0.4-1-0.9-2-1.5-2.8c-0.1-0.2-0.3-0.3-0.4-0.5c-0.6-0.6-1.2-1.1-1.9-1.5c-0.4-0.2-0.7-0.4-1.1-0.6
		c-0.6-0.2-1.3-0.4-1.9-0.6c-0.4-0.1-0.7-0.1-1.1-0.2c0,0,0,0,0,0c-1.1-0.1-2.1-0.1-3.2,0c-4.5,0.7-8.7,3.7-10.7,8.1
		c1.1-5.9,3-11.4,9.1-13.8c1.8-0.7,3.7-1.2,5.6-1.4c1.5-0.2,3.1-0.1,4.6,0.2c0,0,0,0,0.1,0c0,0,0,0,0,0c-0.5-0.9-0.9-1.8-1.5-2.6
		c-1-1.4-2.2-2.6-4.1-3.2c-0.7-0.2-1.4-0.4-2.1-0.5c-1-0.1-2-0.2-3-0.1c-0.4,0-0.9,0.1-1.3,0.1c-0.5,0.1-1.1,0.2-1.6,0.3
		c-0.3,0.1-0.6,0.1-0.8,0.2c-0.9,0.3-1.8,0.6-2.6,1.1c-0.6,0.3-1.1,0.7-1.6,1.1c-5.1,4-6.4,11.5-4.3,17.8
		c-4.1-6.6-15-18.6-23.5-11.6c-2,1.7-3.4,4.3-4.3,6.8c-0.5,1.4-0.9,2.9-1.1,4.4c-0.2,1.7,0.5,4.5-0.5,5.9c4-4.5,8.5-7.7,14.6-7.5
		c2.4,0.1,4.8,0.6,7.1,1.5c2.3,0.9,4.4,2.3,6.2,4.1c-4.2-2.1-9.3-3.1-13.5-0.7c-2.7,1.5-4.3,3.8-5.2,6.5c-0.2,0.6-0.4,1.3-0.5,2
		c-0.1,0.7-0.2,1.3-0.2,2c0,0.8,0,1.7,0.1,2.5c0.1,0.6,0.1,1.1,0.3,1.7c0.4,2.2,1.2,4.3,2.4,6c0.7-4.2,2.5-8.6,5.6-11.7
		c0.9-0.9,1.8-1.7,2.8-2.4c1-0.6,2.1-1.2,3.2-1.5c1.3-0.4,2.6-0.7,3.9-0.9c0.6-0.1,1.2-0.1,1.9-0.1c0.2,0,0.4,0,0.6,0
		c2.2,0,2.7,0.9,4.1,2.6c2.8,3.4,5.4,7,7.7,10.7c0.7,1.1,1.4,2.2,2,3.2c1.1,1.9,2.4,4,3.6,6.2c1,1.9,2,3.9,2.6,5.8
		c0.1,0.4,0.2,0.7,0.3,1.1c0.3,1.2,0.4,0.9-0.2,2c-0.3,0.5-0.9,1.1-1.3,1.6c-0.9,1.1-1.8,2.1-2.7,3.2c-0.6,0.7-4.5,4.5-3.9,5.1
		c0.4,0.4,6.8-2.4,7.6-2.6c2-0.7,4.1-1.3,6.1-2c0.1,0,0.1,0,0.2,0c0.2-0.1,0.5-0.2,0.7-0.2c0.7-0.2,1.4-0.4,2.1-0.6
		c0.1,0,0.2,0,0.2-0.1c0.8-0.2,1.5-0.5,2.3-0.7c1-0.3,2-0.6,3.1-0.9c0.1,0,0.1,0,0.2-0.1c2.1-0.6,4.1-1.2,6.2-1.8
		c4.4-1.3,8.8-2.5,13.3-3.7c1-0.3,1.9-0.5,2.9-0.8c6.1-1.5,12.3-2.9,18.4-4.1c0.9-0.2,1.6,0.4,2.5,0.4c1.1,0,2.5-0.5,3.6-0.8
		c1.2-0.3,2.4-0.5,3.6-0.7c3.3-0.6,6.6-1.3,10-2c13.2-2.4,26.5-4.3,39.9-4.3c2.7,0,5.5,0.1,8.2,0.4c2,0.2,5.7,0.1,7,1.9
		c1.5,2.1-0.6,5.3-2.9,7.8c-1.1,1.2-2.2,2.3-2.9,2.9c0,0-0.1,0.1-0.2,0.1c-2.8,2.6-6.3,4.6-8.9,7.2c7.3-2,14.6-4,21.9-5.9
		c1.1-0.3,2.3-0.6,3.4-0.8c1.6-0.4,3.1-0.8,4.7-1.1c14.9-3.5,30.4-5,45.7-5.7c5.7-0.2,11.4-0.3,17,0.1c2.5,0.2,9.8,0.5,9.3,4.2
		c-0.2,2-2.3,3.9-3.7,5.1c-0.2,0.2-0.4,0.3-0.6,0.5c-1.2,1-2.4,2-3.7,2.9c-1.2,0.8-2.3,1.6-3.5,2.3c6.5,0.3,12.9,0.6,19.4,1
		c1,0.1,2.1,0.1,3.1,0.2c9.4,0.5,18.9,1.2,28.3,1.9c0.7,0.1,1.4,0.1,2.1,0.2c0.6,0.1,1.3,0.1,1.9,0.2c0.4,0,0.7,0.1,1.1,0.1
		c0.7,0.1,1.4,0.1,2.1,0.2c-0.8-0.8-1.5-1.7-2.2-2.5c-1.1-1.2-2.1-2.4-3.1-3.6c-1.6-1.8-3.1-3.7-4.6-5.6c-0.3-0.3-0.5-0.6-0.8-0.9
		c-0.2-0.3-0.4-0.5-0.6-0.8c-0.6-0.7-1.1-1.5-1.7-2.2c-0.1-0.1-0.1-0.2-0.2-0.3c-1-1.4-2.1-2.7-3.1-4.1c-1.7-2.3-1.7-4.9-1.8-7.7
		c0-0.1,0-0.2,0-0.3c-0.2-3.3-0.2-6.6-0.1-9.8c0.3-5.4,1.2-10.7,2.8-16c0.2-0.7,0.4-1.5,0.7-2.2c0.2-0.6,0.4-1.2,0.6-1.7
		c0.7-2,1.6-4,2.6-5.9c0.3-0.5,0.5-1.1,0.9-1.6c0.3-0.5,0.7-1.1,1-1.6c0.2-0.4,0.5-0.7,0.7-1.1c0.5-0.8,1.1-1.5,1.7-2.3
		c0.1-0.1,0.1-0.2,0.2-0.2c0.2-0.2,0.4-0.4,0.6-0.6c0.9-0.8,1.8-1,3-1.2c0.4-0.1,0.9-0.1,1.5-0.2c0.4,0,0.8-0.1,1.2-0.1
		c0,0,0.1,0,0.1,0c1.5-0.1,2.9,0,4.3,0.2c0.5,0.1,1,0.1,1.5,0.2c0.4,0.1,0.8,0.2,1.2,0.2c1,0.2,2,0.5,2.9,0.9
		c0.2,0.1,0.4,0.2,0.6,0.2c0.6,0.2,1.2,0.5,1.8,0.8c0.5,0.2,1,0.5,1.5,0.8c0.5,0.3,1,0.6,1.5,1c0.8,0.6,1.6,1.2,2.3,1.8
		c0.5,0.4,1,0.9,1.4,1.4c0.5,0.5,0.9,1,1.4,1.6c0.2,0.3,0.4,0.5,0.6,0.8c0.6,0.9,1.2,1.8,1.7,2.8c0.2,0.3,0.3,0.6,0.4,0.9
		c0.3,0.6,0.5,1.2,0.7,1.8c0.3,0.9,0.6,1.9,0.8,2.9c0.1,0.3,0.1,0.6,0.2,0.9c0.1,0.6,0.2,1.1,0.3,1.7c0.3-0.5,0.6-1,0.9-1.4
		c0.1-0.1,0.2-0.3,0.2-0.4c0.4-0.8,0.8-1.6,1.2-2.4c0.3-0.8,0.6-1.6,0.8-2.4c0.2-0.8,0.4-1.7,0.5-2.5c0-0.2,0.1-0.4,0.1-0.6
		c0.1-0.9,0.2-1.8,0.1-2.8c0-1.6-0.3-3.2-0.8-4.7c-0.3-0.9-0.7-1.8-1.2-2.7c0,0,0,0,0,0c-0.6-1.1-1.5-2.1-2.4-3
		c-1.1-1.1-2.4-2-4-2.8c-1.5-0.7-3-1.2-4.5-1.6c-0.9-0.2-1.9-0.3-2.9-0.4c-0.3,0-0.6,0-0.9-0.1c-0.9,0-1.8,0-2.6,0.1
		c-0.8,0.1-1.6,0.2-2.4,0.3c-1,0.2-2.1,0.4-3.1,0.6c-0.9,0.2-1.8,0.5-2.7,0.8c-0.7,0.2-1.3,0.5-2,0.7c-0.2,0.1-0.3,0.1-0.5,0.2
		c0.1-0.1,0.2-0.2,0.3-0.3c0.5-0.6,1.1-1.1,1.7-1.6c1.1-1,2.3-1.9,3.5-2.6c0.7-0.4,1.4-0.8,2.1-1.2c0.3-0.2,0.6-0.3,1-0.4
		c0.7-0.3,1.5-0.6,2.3-0.8c2.2-0.7,4.6-1,7.3-1c0.6,0,1.3,0,1.9,0.1c2.2,0.2,4.3,0.6,6.4,1.3c3.8,1.3,7.4,3.6,10.2,6.6
		c0.4-0.4,0.4-1.5,0.3-2.6C347.6,220,347.4,218.8,347.3,218.2z"/>
	<polygon class="st0" points="705.4,129.7 714.7,129.7 714.7,131.3 714.7,134.3 714.7,139.7 714.7,142.7 714.7,152.7 714.7,155.7 
		714.7,177 722.7,177 725.7,177 730.7,177 733.7,177 744.7,177 744.7,134.3 744.7,131.3 744.7,129.7 765.1,129.7 765.1,121.3 
		765.1,118.3 765.1,105.3 694.4,105.3 694.4,129.7 702.4,129.7 	"/>
	<path class="st0" d="M460.2,253.8c-0.5-2.8-1.4-5.3-2.8-7.5c-0.3-0.5-0.7-1.1-1.1-1.6c-0.2-0.3-0.5-0.5-0.7-0.8
		c-2.9-3.2-6.8-5.7-11.9-7.6V236c4.5-1.5,8-3.9,10.5-7c0.7-0.9,1.3-1.9,1.8-2.9c0.4-0.9,0.8-1.8,1.1-2.8c0.5-1.7,0.8-3.5,0.8-5.4
		c0-0.2,0-0.4,0-0.6c0-1.1-0.1-2.2-0.2-3.2c-0.6-4.5-2.4-8.2-5.5-11.1c-1.2-1.1-2.7-2.1-4.3-3c-0.9-0.5-1.9-0.9-2.9-1.3
		c-1-0.4-2-0.8-3.1-1.1c-1.1-0.4-2.2-0.7-3.3-1c-3.8-1-7.8-1.8-12.2-2.3c-2.9-0.3-5.9-0.5-9.1-0.6c-1.3,0-2.6-0.1-4-0.1h-18.5h-3.2
		h-17.9v93.2h8h3h5h3h22.6c3.3,0,6.5-0.1,9.5-0.4c1-0.1,2-0.2,3-0.3c4.9-0.6,9.4-1.6,13.5-3c1-0.4,2.1-0.7,3.1-1.1
		c1.1-0.5,2.2-1,3.3-1.5c6.5-3.1,10.5-8,12-14.8c0.2-1,0.4-2,0.5-3c0-0.3,0.1-0.6,0.1-0.8c0.1-1.1,0.2-2.1,0.2-3.3c0,0,0,0,0,0h0
		c0-0.1,0-0.2,0-0.3C460.6,256.6,460.5,255.1,460.2,253.8z M411.9,222.6v-3V218h3.5c2.5,0,4.4,0.5,5.9,1.6c0.1,0.1,0.3,0.2,0.4,0.3
		c0.9,0.8,1.5,1.7,1.8,2.7c0.2,0.7,0.4,1.5,0.4,2.3c0,1.2-0.2,2.2-0.7,3.1c-0.4,0.7-0.8,1.3-1.5,1.8c-1.2,1-2.8,1.6-4.8,1.8
		c-0.5,0.1-1,0.1-1.5,0.1h-3.5V222.6z M411.9,263.8v-15.4h3.8c3.1,0,5.5,0.7,7.2,2.2c0.9,0.7,1.6,1.6,2,2.6c0.4,0.9,0.6,1.9,0.6,3
		c0,0.8-0.2,1.5-0.4,2.2c0,0.1,0,0.1-0.1,0.2c-0.4,1.1-1,2-1.8,2.8c-0.1,0.1-0.2,0.2-0.3,0.3c-0.8,0.7-1.8,1.2-3,1.5
		c-0.9,0.3-1.9,0.4-3,0.5c-0.4,0-0.8,0-1.2,0H411.9z"/>
	<polygon class="st0" points="783.1,177 788.1,177 791.1,177 802.1,177 802.1,134.3 802.1,131.3 802.1,121.3 802.1,118.3 
		802.1,105.3 772.1,105.3 772.1,118.3 772.1,131.3 772.1,134.3 772.1,142.7 772.1,152.7 772.1,155.7 772.1,177 780.1,177 	"/>
	<path class="st0" d="M388.3,177h9.7h3.2h0.8l1.9-7.2l0.4-1.5h0h0.2h17.6l1,4l1.2,4.7h12.4H456h0.1L440,134.3l-1.1-3l-4.9-13
		l-4.9-13h-29.9l-27,71.7h12.9H388.3z M409,150.7l3.1-11.1l1.2-4.4h0h0.4l0,0l1.3,5.1l2.6,10l0.1,0.4h-0.2h-6.4H409z"/>
</g>
<g>
	<g>
		<path class="st1" d="M1024.1,162.7c3.6-2.8,6.3-5.1,8.4-6.9c2-1.8,3.7-3.7,5.1-5.7c1.4-2,2.1-3.9,2.1-5.9c0-1.8-0.5-3.2-1.3-4.2
			s-2.3-1.5-4.2-1.5s-3.4,0.6-4.5,1.8c-1.1,1.2-1.6,2.7-1.7,4.7h-3.7c0.1-3.1,1.1-5.5,2.9-7.2c1.8-1.7,4.1-2.5,6.9-2.5
			c2.9,0,5.2,0.8,6.8,2.4c1.7,1.5,2.6,3.7,2.6,6.5c0,2.3-0.7,4.5-2.1,6.7c-1.3,2.1-3,4-4.7,5.7c-1.7,1.6-4,3.6-6.8,5.7h14.5v3.2
			h-20.3v-2.8L1024.1,162.7z M1022.4,198.7c0-4.7,0.8-8.5,2.4-11.2c1.5-2.7,4.3-4,8.3-4c3.9,0,6.6,1.3,8.3,4
			c1.5,2.7,2.3,6.3,2.3,11.2s-0.8,8.6-2.3,11.2c-1.5,2.7-4.3,4-8.3,4s-6.7-1.3-8.3-4C1023.1,207.3,1022.4,203.5,1022.4,198.7
			L1022.4,198.7z M1039.8,198.7c0-2.4-0.2-4.4-0.5-6.1c-0.3-1.7-1-3.1-2-4c-1-1.1-2.4-1.5-4.3-1.5c-1.9,0-3.4,0.5-4.4,1.5
			c-1,1.1-1.6,2.4-2,4c-0.3,1.6-0.5,3.7-0.5,6.1c0,2.5,0.2,4.6,0.5,6.2c0.3,1.7,1,3.1,2,4c1,1.1,2.5,1.5,4.4,1.5
			c1.9,0,3.4-0.5,4.3-1.5c1-1.1,1.6-2.4,2-4C1039.7,203.3,1039.8,201.2,1039.8,198.7z M1024.1,259.3c3.6-2.8,6.3-5.1,8.4-6.9
			c2-1.8,3.7-3.7,5.1-5.7c1.4-2,2.1-3.9,2.1-5.9c0-1.8-0.5-3.2-1.3-4.2c-0.9-1.1-2.3-1.5-4.2-1.5s-3.4,0.6-4.5,1.8
			c-1.1,1.2-1.6,2.7-1.7,4.7h-3.7c0.1-3.1,1.1-5.5,2.9-7.2c1.8-1.7,4.1-2.5,6.9-2.5c2.9,0,5.2,0.8,6.8,2.4c1.7,1.5,2.6,3.7,2.6,6.5
			c0,2.3-0.7,4.5-2.1,6.7c-1.3,2.1-3,4-4.7,5.7c-1.7,1.6-4,3.6-6.8,5.7h14.5v3.2h-20.3v-2.8H1024.1z M1043,285.9h-14.5v9.4
			c0.7-0.9,1.5-1.6,2.8-2.1c1.2-0.6,2.6-0.9,4-0.9c2.3,0,4.1,0.5,5.6,1.4c1.4,1,2.5,2.2,3.1,3.7c0.7,1.5,1,3.1,1,4.8
			c0,2-0.4,3.7-1.2,5.4c-0.8,1.5-1.9,2.8-3.5,3.7c-1.5,0.9-3.5,1.3-5.7,1.3c-2.9,0-5.3-0.8-7-2.2c-1.8-1.4-2.9-3.5-3.3-6h3.7
			c0.4,1.5,1.2,2.8,2.3,3.7s2.6,1.3,4.4,1.3c2.2,0,3.8-0.7,4.9-1.9c1.1-1.3,1.6-3.1,1.6-5.2s-0.6-3.8-1.6-5
			c-1.2-1.2-2.7-1.8-4.9-1.8c-1.4,0-2.8,0.4-3.8,1.1c-1.1,0.7-1.8,1.6-2.4,2.9h-3.6v-16.9h18L1043,285.9L1043,285.9z"/>
	</g>
</g>
<g>
	<path class="st2" d="M1014.9,148.4c3.6-2.8,6.3-5.1,8.4-6.9c2-1.8,3.7-3.7,5.1-5.7c1.4-2,2.1-3.9,2.1-5.9c0-1.8-0.5-3.2-1.3-4.2
		c-0.9-1.1-2.3-1.5-4.2-1.5s-3.4,0.6-4.5,1.8c-1.1,1.2-1.6,2.7-1.7,4.7h-3.7c0.1-3.1,1.1-5.5,2.9-7.2c1.8-1.7,4.1-2.5,6.9-2.5
		c2.9,0,5.2,0.8,6.8,2.4c1.7,1.5,2.6,3.7,2.6,6.5c0,2.3-0.7,4.5-2.1,6.7c-1.3,2.1-3,4-4.7,5.7c-1.7,1.6-4,3.6-6.8,5.7h14.5v3.2
		h-20.3v-2.8L1014.9,148.4z M1013.2,184.4c0-4.7,0.8-8.5,2.4-11.2c1.5-2.7,4.3-4,8.3-4c3.9,0,6.6,1.3,8.3,4
		c1.5,2.7,2.3,6.3,2.3,11.2c0,4.8-0.8,8.6-2.3,11.2c-1.5,2.7-4.3,4-8.3,4s-6.7-1.3-8.3-4C1013.9,193,1013.2,189.2,1013.2,184.4
		L1013.2,184.4z M1030.6,184.4c0-2.4-0.2-4.4-0.5-6.1c-0.3-1.7-1-3.1-2-4c-1-1.1-2.4-1.5-4.3-1.5s-3.4,0.5-4.4,1.5
		c-1,1.1-1.6,2.4-2,4c-0.3,1.6-0.5,3.7-0.5,6.1c0,2.5,0.2,4.6,0.5,6.2c0.3,1.7,1,3.1,2,4c1,1.1,2.5,1.5,4.4,1.5s3.4-0.5,4.3-1.5
		c1-1.1,1.6-2.4,2-4C1030.5,188.9,1030.6,186.9,1030.6,184.4z M1014.9,245c3.6-2.8,6.3-5.1,8.4-6.9c2-1.8,3.7-3.7,5.1-5.7
		c1.4-2,2.1-3.9,2.1-5.9c0-1.8-0.5-3.2-1.3-4.2c-0.9-1.1-2.3-1.5-4.2-1.5s-3.4,0.6-4.5,1.8c-1.1,1.2-1.6,2.7-1.7,4.7h-3.7
		c0.1-3.1,1.1-5.5,2.9-7.2c1.8-1.7,4.1-2.5,6.9-2.5c2.9,0,5.2,0.8,6.8,2.4c1.7,1.5,2.6,3.7,2.6,6.5c0,2.3-0.7,4.5-2.1,6.7
		c-1.3,2.1-3,4-4.7,5.7c-1.7,1.6-4,3.6-6.8,5.7h14.5v3.2h-20.3V245L1014.9,245z M1033.8,271.6h-14.5v9.4c0.7-0.9,1.5-1.6,2.8-2.1
		c1.2-0.6,2.6-0.9,4-0.9c2.3,0,4.1,0.5,5.6,1.4c1.4,1,2.5,2.2,3.1,3.7c0.7,1.5,1,3.1,1,4.8c0,2-0.4,3.7-1.2,5.4
		c-0.8,1.5-1.9,2.8-3.5,3.7c-1.5,0.9-3.5,1.3-5.7,1.3c-2.9,0-5.3-0.8-7-2.2c-1.8-1.4-2.9-3.5-3.3-6h3.7c0.4,1.5,1.2,2.8,2.3,3.7
		c1.2,0.9,2.6,1.3,4.4,1.3c2.2,0,3.8-0.7,4.9-1.9c1.1-1.3,1.6-3.1,1.6-5.2s-0.6-3.8-1.6-5c-1.2-1.2-2.7-1.8-4.9-1.8
		c-1.4,0-2.8,0.4-3.8,1.1c-1.1,0.7-1.8,1.6-2.4,2.9h-3.6v-16.9h18L1033.8,271.6L1033.8,271.6z"/>
</g>
<path class="st0" d="M1009.1,130.8c3.7-2.9,6.6-5.3,8.7-7.2c2.1-1.9,3.9-3.9,5.3-5.9c1.5-2.1,2.2-4.1,2.2-6.1c0-1.9-0.5-3.3-1.4-4.4
	s-2.4-1.6-4.4-1.6s-3.5,0.6-4.7,1.9c-1.1,1.2-1.7,2.8-1.8,4.9h-3.9c0.1-3.2,1.1-5.7,3-7.5s4.3-2.6,7.2-2.6c3,0,5.4,0.8,7.1,2.5
	c1.8,1.6,2.7,3.9,2.7,6.8c0,2.4-0.7,4.7-2.2,7c-1.4,2.2-3.1,4.2-4.9,5.9c-1.8,1.7-4.2,3.7-7.1,5.9h15.1v3.3h-21.1v-2.9L1009.1,130.8
	z M1007.3,168.3c0-4.9,0.8-8.8,2.5-11.6c1.6-2.8,4.5-4.2,8.6-4.2s6.9,1.4,8.6,4.2c1.6,2.8,2.4,6.6,2.4,11.6s-0.8,8.9-2.4,11.7
	s-4.5,4.2-8.6,4.2s-7-1.4-8.6-4.2C1008.1,177.2,1007.3,173.3,1007.3,168.3L1007.3,168.3z M1025.4,168.3c0-2.5-0.2-4.6-0.5-6.3
	c-0.3-1.8-1-3.2-2.1-4.2c-1-1.1-2.5-1.6-4.5-1.6s-3.5,0.5-4.6,1.6c-1,1.1-1.7,2.5-2.1,4.2c-0.3,1.7-0.5,3.8-0.5,6.3
	c0,2.6,0.2,4.8,0.5,6.5c0.3,1.8,1,3.2,2.1,4.2c1,1.1,2.6,1.6,4.6,1.6s3.5-0.5,4.5-1.6s1.7-2.5,2.1-4.2
	C1025.3,173,1025.4,170.9,1025.4,168.3z M1009.1,231.3c3.7-2.9,6.6-5.3,8.7-7.2c2.1-1.9,3.9-3.9,5.3-5.9c1.5-2.1,2.2-4.1,2.2-6.1
	c0-1.9-0.5-3.3-1.4-4.4c-0.9-1.1-2.4-1.6-4.4-1.6s-3.5,0.6-4.7,1.9c-1.1,1.2-1.7,2.8-1.8,4.9h-3.9c0.1-3.2,1.1-5.7,3-7.5
	s4.3-2.6,7.2-2.6c3,0,5.4,0.8,7.1,2.5c1.8,1.6,2.7,3.9,2.7,6.8c0,2.4-0.7,4.7-2.2,7c-1.4,2.2-3.1,4.2-4.9,5.9
	c-1.8,1.7-4.2,3.7-7.1,5.9h15.1v3.3h-21.1v-2.9L1009.1,231.3z M1028.8,259h-15.1v9.8c0.7-0.9,1.6-1.7,2.9-2.2
	c1.3-0.6,2.7-0.9,4.2-0.9c2.4,0,4.3,0.5,5.8,1.5s2.6,2.3,3.2,3.8c0.7,1.6,1,3.2,1,5c0,2.1-0.4,3.9-1.2,5.6c-0.8,1.6-2,2.9-3.6,3.9
	c-1.6,0.9-3.6,1.4-5.9,1.4c-3,0-5.5-0.8-7.3-2.3c-1.9-1.5-3-3.6-3.4-6.2h3.8c0.4,1.6,1.2,2.9,2.4,3.8s2.7,1.4,4.6,1.4
	c2.3,0,4-0.7,5.1-2c1.1-1.4,1.7-3.2,1.7-5.4s-0.6-4-1.7-5.2c-1.2-1.2-2.8-1.9-5.1-1.9c-1.5,0-2.9,0.4-4,1.1s-1.9,1.7-2.5,3h-3.7
	v-17.6h18.7L1028.8,259L1028.8,259z"/>
<path class="st1" d="M618.2,141.1c1.2,0.9,2.4,2,3.5,3c-0.7-2.2-1.7-4.3-2.9-6.3c-0.3-0.2-0.5-0.4-0.8-0.5
	C618.1,138.5,618.2,139.8,618.2,141.1z"/>
<path class="st1" d="M520.5,167.2c0,0.2,0,0.3,0,0.5c0,2.4-0.6,4.5-1.8,6.3c-1.2,1.8-2.8,3.2-5,4.2c-2.1,1-4.6,1.5-7.4,1.5H506v-5
	c-1,0.3-2,0.6-3,0.8v4.2c0,1.7,1.3,3,3,3h0.3c3.3,0,6.2-0.6,8.7-1.8c2.6-1.2,4.7-2.9,6.2-5.3c1.5-2.3,2.3-5,2.3-8
	c0-1.1-0.1-2.1-0.3-3C522.4,165.6,521.4,166.4,520.5,167.2z"/>
<rect x="507.8" y="219.7" class="st1" width="5" height="3"/>
<path class="st1" d="M76.1,237.9c2.4-1.6,5-2.3,7.6-2.3c0.6,0,1.3,0.1,1.9,0.1c0.5-0.9,1-1.9,1.6-2.8c-1.1-0.2-2.3-0.3-3.5-0.3
	c-1.1,0-2.2,0.1-3.3,0.3c2.6-2.3,5.8-3.7,8.8-3.8c0.1-0.2,0.2-0.4,0.3-0.6c-0.8-0.8-1.8-1.5-2.7-2.2c-4.6,0.9-8.9,4-11.6,7.8
	c1.1-4,2.9-7.8,5.6-10.8c-1.1-0.3-2.2-0.6-3.3-0.7c-0.8,1-1.5,2.1-2.2,3.3c0.1-1.2,0.3-2.3,0.6-3.4c-0.1,0-0.1,0-0.2,0
	c-1,0-2,0.1-3,0.3c-0.6,3.1-0.7,6.2-0.4,9.3c2.6,4.7,5,9.5,7.1,14.4c0.3-0.5,0.6-0.9,0.8-1.4C79,242.7,77.6,240.3,76.1,237.9z"/>
<path class="st1" d="M701.1,251.2C701,251.2,701,251.2,701.1,251.2c-2.1-0.5-4.1-0.9-6.1-1.1l0,3c1.8,0.2,3.5,0.6,5.3,1
	c1.1,0.3,2.2,0.6,3.3,1c-0.4-1.1-0.7-2.3-1-3.4C702.1,251.5,701.6,251.3,701.1,251.2z"/>
<path class="st1" d="M76.8,219.6c0.4-1,0.8-2,1.3-2.9c-1.5,0.5-2.9,1.2-4.2,2.1c-0.1,0.3-0.2,0.6-0.3,0.9c0.7-0.1,1.4-0.1,2.2-0.1
	C76.1,219.6,76.4,219.6,76.8,219.6z"/>
<path class="st1" d="M806.7,235.2c0.8,0.8,1.7,1.7,2.4,2.5c-0.8-2.1-1.8-4.1-2.9-6.1C806.4,232.8,806.6,234,806.7,235.2z"/>
<path class="st1" d="M719.4,277c1.1,1.7,2.4,3.3,3.7,4.8c-0.4-1-0.7-1.9-1-2.9C721.1,278.3,720.2,277.7,719.4,277z"/>
<rect x="515.8" y="219.7" class="st1" width="1.2" height="3"/>
<rect x="533" y="225.4" class="st1" width="3" height="10"/>
<rect x="484.8" y="286.9" class="st1" width="3" height="10"/>
<path class="st1" d="M345.4,227.2c2.4,0.8,4.6,1.8,6.7,3.1c-0.1-0.7-0.3-1.4-0.5-2.1c-1.9-0.7-3.9-1.1-5.9-1.1
	C345.7,227.1,345.6,227.2,345.4,227.2z"/>
<path class="st1" d="M223.4,72.9C223.4,72.9,223.4,72.9,223.4,72.9c-1-0.1-2.2-0.3-3.4-0.4c-11.1,15.4-20.4,28.5-27.5,39
	c0-0.2,0-0.3,0-0.5c0-0.3,0-0.5,0-0.9c0-0.3,0.1-0.7,0.1-1.1c0.2-4.3,0.4-8.7,0.6-13.1c0.1-1.7,0.1-3.5,0.2-5.2
	c-1.1,1.6-2.2,3.1-3.2,4.6c0,0.2,0,0.3,0,0.5c-0.2,4.4-0.4,8.8-0.6,13.1c0,0.6-0.1,1.3-0.1,2c0,0.7-0.1,1.5-0.1,2.3l0,0.2
	c1.7,0.1,3.5,0.2,5.2,0.3C203.2,101,213.9,86,223.4,72.9z"/>
<path class="st1" d="M59.2,275c-1.3,0-2.5,0.1-3.7,0.4c0.7,0.9,1.5,1.8,2.2,2.7c0,0,0.1,0,0.1,0c0.7-1,1.4-2,2.2-3
	C59.8,275,59.5,275,59.2,275z"/>
<path class="st1" d="M131.7,102.8c0.6-0.1,1.1-0.1,1.6-0.2c0.6-1,1.2-2.1,1.8-3.2c-1.2,0.1-2.4,0.2-3.6,0.3
	C131.6,100.8,131.6,101.8,131.7,102.8z"/>
<path class="st1" d="M324,238.1c0.8,0.1,1.6,0.2,2.4,0.3c0.1-0.3,0.1-0.6,0.2-0.9C325.7,237.7,324.8,237.8,324,238.1z"/>
<path class="st1" d="M631.7,277c1.2,1.8,2.5,3.5,3.9,5c-0.4-1-0.7-2-1-3C633.6,278.4,632.6,277.7,631.7,277z"/>
<path class="st1" d="M46.2,244.4c1-2.8,3-5.4,5.5-6.9c-1.5-0.3-3.1-0.3-4.6-0.2c-1.9,2-3.4,4.5-4.1,7.1
	C44.1,244.3,45.2,244.2,46.2,244.4z"/>
<path class="st1" d="M733.7,190h-3v6.9c1-0.4,2-0.8,3-1.2V190z"/>
<rect x="810.1" y="131.3" class="st1" width="0.9" height="3"/>
<path class="st1" d="M464,190l3.8,10H448c1.6,0.9,3.1,1.9,4.3,3h16.5v-8.8l-6.5-17.2H460v-6.1l-14.9-39.6H442l22.1,58.7H464z"/>
<path class="st1" d="M814.2,244.6c0.3,0.5,0.6,1,0.9,1.6v-5.7c-1.1-1.5-2.2-3-3.4-4.4C812.8,238.8,813.7,241.7,814.2,244.6z"/>
<path class="st1" d="M695.2,283.1c-0.6,0.3-1.3,0.6-1.9,0.9c2.3-0.2,4.6-0.6,6.8-1.1l0-3.1c-1.6,0.4-3.3,0.7-4.9,1L695.2,283.1z"/>
<polygon class="st1" points="713.4,152.7 713.4,142.7 710.4,142.7 710.4,155.7 714.7,155.7 714.7,152.7 "/>
<rect x="815.1" y="177" class="st1" width="3" height="16.7"/>
<polygon class="st1" points="791.1,200 791.1,190 788.1,190 788.1,203 815.1,203 815.1,200 "/>
<path class="st1" d="M704.1,223.9c0.4-0.9,0.7-1.9,1.2-2.8c-0.9-0.3-1.8-0.5-2.8-0.8v3.1C703.1,223.6,703.6,223.8,704.1,223.9z"/>
<path class="st1" d="M462.5,303.7C462.5,303.7,462.5,303.7,462.5,303.7c-8.1,4.1-18.6,6.1-31.1,6.1h-38.6v-10h-3v13h41.6
	c13,0,23.8-2.1,32.4-6.4c7.9-3.8,12.1-10.2,12.7-19.5h-3C472.9,294.9,469.3,300.5,462.5,303.7z"/>
<rect x="730.7" y="177" class="st1" width="3" height="10"/>
<path class="st1" d="M253.4,89.7c-0.1,1.6,1,3,2.6,3.3c2.5,0.4,5.2,0.7,7.6,1.1l0,0l-0.1,0.1c-0.1,0.1-0.1,0.1-0.2,0.2l-13.2,15.9
	l-5.2,6.2c1.3-7.1,2.5-13.6,2.9-16.8c0.1-1.2-0.5-2.3-1.4-2.9l-2,2.4l-0.1,0.1c0.2,0,0.4,0,0.5,0.1c-0.4,3.5-1.9,11.4-3.4,19.4
	c-0.4,1.9-0.7,3.8-1.1,5.7c-0.1,0.6-0.1,1.1,0.2,1.3c0.1,0,0.1,0,0.1,0c0,0,0,0,0.1,0h0.1c0.1,0,0.1,0,0.2-0.1c0,0,0.1,0,0.1-0.1
	c0.1,0,0.1-0.1,0.2-0.2l0.1-0.1l0.3-0.3c0.5-0.5,1-1.2,1.5-1.8c0.2-0.2,0.3-0.4,0.5-0.6l8.7-10.4l13.2-15.9l0.1-0.1l0.2-0.2
	c0.1-0.1,0.2-0.3,0.3-0.4c0.3-0.3,0.5-0.6,0.8-0.9c0.8-1,1.4-2,1.3-2.6c-0.1-0.4-0.7-0.6-1.4-0.7h-0.3c-3.2-0.4-6.7-0.9-10.2-1.4
	c0.1-1.6,0.4-3.8,0.8-6.2l-3.6,4.4C253.5,88.7,253.5,89.2,253.4,89.7z"/>
<path class="st1" d="M188.3,298.4c-0.2,0-0.3,0-0.5,0c-0.8,1-1.7,2-2.5,2.8c0.5,0,0.9,0.1,1.4,0.1c2.5-0.7,5-1.3,7.6-2
	c-1.7-0.6-3.6-0.8-5.1-0.9C188.9,298.5,188.6,298.4,188.3,298.4z"/>
<path class="st1" d="M425,258.4c0,0,0.1,0,0.1,0c0.2-0.7,0.4-1.5,0.4-2.2c0-1.1-0.2-2.1-0.6-3v4.5C424.9,258,424.9,258.2,425,258.4z
	"/>
<path class="st1" d="M628.8,185.9c1.5-2.3,2.6-4.7,3.5-7.2V177h-2.6c-0.8,2.6-1.9,5-3.4,7.3c-3.3,5.2-7.7,9.2-13.6,12.4
	c-1.2,0.7-2.5,1.2-3.8,1.7v3.2c1.8-0.6,3.5-1.4,5.2-2.3C620.3,196,625.2,191.6,628.8,185.9z"/>
<path class="st1" d="M255.5,75.5l-0.1,0.6c-0.1,0.6-0.2,1.2-0.3,1.8c1,0.1,2,0.3,3,0.4c0.1-0.9,0.3-1.9,0.4-2.8l0.4-3.1
	c0-0.2,0.1-0.4,0.1-0.7s0.1-0.5,0.1-0.8c0.1-0.7,0.3-1.4,0.3-2c0-0.5,0-1-0.1-1.1l-0.1-0.1H259c-0.1,0-0.1,0.1-0.2,0.1h-0.1
	c-0.1,0-0.1,0.1-0.2,0.2h-0.1c-0.1,0.1-0.2,0.2-0.4,0.3c-0.5,0.5-1.2,1.2-1.7,1.8c-0.2,0.2-0.4,0.5-0.6,0.7l-5.8,6.4l0,0
	c1.2,0.2,2.4,0.3,3.6,0.5L255.5,75.5z"/>
<path class="st1" d="M423.5,222.6c-0.3-1-1-1.9-1.8-2.7c-0.1-0.1-0.3-0.2-0.4-0.3h-9.4v3H423.5z"/>
<path class="st1" d="M311,309.8c0.8,0.1,1.7,0.1,2.5,0.2c-1.9-2.2-3.8-4.5-5.7-6.9c0.3,1.8,0.8,3.6,2.1,5.3
	C310.3,308.8,310.7,309.3,311,309.8z"/>
<path class="st1" d="M561.6,184.4C561.6,184.3,561.6,184.3,561.6,184.4c-2.2-1.5-4.1-3-5.8-4.8c0.8,2.1,1.8,4.1,3.1,6.1
	c1.5,3.1,3.5,5.7,6,8h4.7C566,191,563.4,188,561.6,184.4z"/>
<polygon class="st1" points="714.7,134.3 714.7,131.3 710.4,131.3 710.4,139.7 713.4,139.7 713.4,134.3 "/>
<path class="st1" d="M815.1,286.3c-0.5,0.9-1,1.9-1.6,2.8c-4.3,6.8-10.2,12.2-17.9,16.3c-7.7,4-16.1,6-25.4,6s-17.7-2-25.4-6
	c-7.3-3.8-12.9-8.8-17.3-15.4c-2.5-2-4.8-4.2-6.9-6.6c1,2.5,2.2,4.9,3.7,7.2c4.7,7.4,11,13.2,19.1,17.4s17,6.3,26.8,6.3
	s18.7-2.1,26.8-6.3c8-4.3,14.4-10,19.1-17.4c0.8-1.2,1.5-2.5,2.2-3.8h-3.1V286.3z"/>
<path class="st1" d="M334.9,241.6c-0.1-0.3-0.3-0.6-0.4-0.9c-0.2,0.1-0.5,0.2-0.7,0.3C334.2,241.1,334.5,241.3,334.9,241.6z"/>
<path class="st1" d="M53.4,236.7c1.6-0.6,3.4-0.9,5.3-0.9c0.7,0,1.3,0,2,0.1c-5,1.5-9.5,4.5-13,8.2c0.7-0.1,1.5-0.2,2.2-0.2
	c0.7,0,1.4,0,2.1,0.2c2.9-2.5,6.4-4.5,10-5.5c0.4-0.1,0.9-0.2,1.3-0.3c-0.4-1.8-0.8-3.5-1.3-5.3c-1.1-0.2-2.3-0.3-3.4-0.3
	c-2.1,0-4.3,0.3-6.4,1.1c-0.7,0.3-1.4,0.6-2.1,1c0.5,0.8,1,1.7,1.5,2.6C52.3,237.2,52.8,236.9,53.4,236.7z"/>
<path class="st1" d="M235,93.6c-0.3,0.2-0.5,0.5-0.8,0.8l-0.1,0.1c-0.5,0.5-1.1,1.1-1.5,1.6c-0.4,0.5-0.7,1.1-0.5,1.4
	c0.2,0.4,0.9,0.7,1.8,0.8c0.3,0,0.6,0.1,0.9,0.1c0.4-2,0.7-3.9,1-5.7L235,93.6z"/>
<path class="st1" d="M272.6,306.4L272.6,306.4c-0.4,0.4-0.8,0.7-1.1,1c4.1,0.2,8.2,0.4,12.2,0.6c-2.1-2.1-5.7-2.8-9.5-3
	C273.6,305.5,273.1,306,272.6,306.4z"/>
<rect x="608.9" y="219.7" class="st1" width="5" height="3"/>
<path class="st1" d="M772.1,155.7v-3h-11.4c-1.7,0-3,1.3-3,3v36.6c1,0.1,2,0.1,3,0.2v-36.8H772.1z"/>
<path class="st1" d="M460.4,261.7c0.8-0.3,1.6-0.6,2.4-1c-0.3-0.4-0.5-0.8-0.8-1.2c-0.3-0.4-0.7-0.8-1.1-1.2c-0.1,0-0.2,0.1-0.3,0.1
	C460.6,259.6,460.5,260.7,460.4,261.7z"/>
<path class="st1" d="M460,227.5c1.1,0.4,2,0.9,2.9,1.4c-0.1-1.3-0.3-2.5-0.5-3.6c-0.4-0.2-0.9-0.4-1.3-0.6c-1.3-0.5-2.6-1-3.9-1.4
	c-0.3,1-0.7,1.9-1.1,2.8C457.4,226.5,458.8,227,460,227.5z"/>
<path class="st1" d="M87.2,218c-0.3-0.2-0.5-0.4-0.8-0.5c-0.1,0.7-0.2,1.4-0.3,2.1c0.6-0.3,1.2-0.6,1.9-0.8
	C87.8,218.5,87.5,218.2,87.2,218z"/>
<path class="st1" d="M85.3,219.9c-0.5-0.8-1.1-1.6-1.8-2.4c-1.2,0.7-2.4,1.6-3.5,2.6c1.2,0.3,2.3,0.6,3.4,1.1
	C84,220.7,84.6,220.3,85.3,219.9z"/>
<path class="st1" d="M61.1,299.4c-1-1.7-2.1-3.4-3.2-5.1c-0.1,0-0.2,0-0.2,0.1c0.9,1.9,1.8,3.9,2.3,5.9c0,0.1,0.1,0.3,0.1,0.4
	c0.3,1.1,0.3,1.9,0,2.8c0.4,0.7,0.9,1.5,1.3,2.2c0.5-0.1,0.9-0.3,1.4-0.4c0.5-0.2,1-0.3,1.5-0.5c-0.7-1.3-1.5-2.6-2.2-3.8
	C61.7,300.4,61.4,299.9,61.1,299.4z"/>
<path class="st1" d="M677.2,251.7C677.2,251.7,677.1,251.7,677.2,251.7c-2.3,1-4.1,2.1-5.7,3.4c0.5,0,0.9,0.1,1.4,0.1
	c1.5,0,2.9-0.1,4.4-0.2c0.3-0.2,0.7-0.3,1-0.5c2.7-1.1,5.8-1.6,9.4-1.8c2.3-0.8,4.5-1.7,6.5-2.7c-1.8-0.2-3.6-0.3-5.3-0.3
	C684.4,249.7,680.6,250.4,677.2,251.7z"/>
<path class="st1" d="M173,75.6c-0.2,0.2-0.3,0.4-0.5,0.6c-0.4,0.6-0.9,1.2-1.3,1.8c-0.5,0.8-0.9,1.6-0.9,1.9c0,0.1,0,0.1-0.1,0.5
	l0.1,0.1c0.1,0,0.2,0.1,0.3,0.1c0.1,0,0.3,0,0.6,0c0.6,0,1.3,0,1.7,0c0.3,0,0.5,0,0.8-0.1c0.1-2.1,0.2-4.2,0.3-6.4L173,75.6z"/>
<path class="st1" d="M89.1,215.3c-0.1,0-0.3,0.1-0.4,0.1c0.1,0.1,0.2,0.1,0.2,0.2c0.9,0.7,1.6,1.5,2.3,2.4c0.9-0.1,1.9-0.2,2.9-0.2
	c0.3,0,0.6,0,1,0c0.5-1,1-1.9,1.4-2.9c-0.9-0.1-1.7-0.1-2.4-0.1C92.5,214.8,90.8,215,89.1,215.3z"/>
<rect x="862.1" y="219.7" class="st1" width="3.5" height="3"/>
<polygon class="st1" points="868.8,190 865.3,190 867.5,193.7 871,193.7 "/>
<rect x="559.4" y="286.9" class="st1" width="3" height="10"/>
<rect x="831.1" y="286.9" class="st1" width="3" height="10"/>
<path class="st1" d="M332.2,237.1c-0.3,0-0.6,0-0.9,0c-0.5,0-1.1,0-1.6,0.1c-0.4,0.6-0.8,1.2-1.2,1.8c1,0.3,2,0.6,3,1
	c0.5-0.7,0.9-1.4,1.4-2C332.6,237.6,332.4,237.3,332.2,237.1z"/>
<path class="st1" d="M899.8,165.8c-1-1-2-2.2-2.9-3.3v31.3h3V166C899.9,165.9,899.9,165.8,899.8,165.8z"/>
<rect x="881.6" y="286.9" class="st1" width="3" height="10"/>
<path class="st1" d="M960.2,130.9v2.8c-3-1.2-6.7-2.3-11.2-3.4c-0.3-0.1-0.6-0.1-0.9-0.2c-0.4,0.1-0.9,0.1-1.3,0.1h-0.5
	c-0.4,0-0.8,0.1-1.2,0.1c-2.6,0.2-5.1,0.6-7.5,1.1c-3.7,0.9-7.1,2-10.3,3.6c-2.4,1.2-4.6,2.5-6.7,4c-0.3,1.1-0.4,2.3-0.4,3.5
	c0,0.2,0,0.4,0,0.6c2.4-2.1,5.2-3.9,8.4-5.4c0,0,0,0,0,0c0.5-0.2,1-0.5,1.5-0.7v-1h2.5c1.7-0.6,3.5-1.2,5.7-1.7c2.5-0.5,4.8-0.9,7-1
	c0.3,0,0.6,0,0.8-0.1c0.1,0,0.2,0,0.2,0h0.5c0.4,0,1,0,1.6-0.1h1.5c4.7,0,9.3,0.5,14.1,1.6c0.4,0.1,0.8,0.2,1.2,0.3v-3.1
	c-0.2,0-0.3-0.1-0.5-0.1C963.2,131.5,961.7,131.2,960.2,130.9z"/>
<path class="st1" d="M311,215.3c0.5-0.9,1-1.9,1.6-2.8c-0.8-0.1-1.5-0.3-2.3-0.3c-0.2,1-0.4,2-0.6,3
	C310.2,215.2,310.6,215.2,311,215.3z"/>
<path class="st1" d="M206.5,48.2c0,0.4,0,0.7,0,1.1c1-0.1,2-0.1,3-0.2c0.1-1.8,0.2-3.5,0.2-5.3c-0.5,0.7-1.2,1.7-2.3,3.1
	C207.1,47.3,206.8,47.8,206.5,48.2z"/>
<path class="st1" d="M66.4,295.6l-0.4,0.6l-2.6-3.3c-0.1-0.1-0.1-0.1-0.2-0.2c-1,0.3-2,0.6-3.1,0.9c3.3,3.1,6.3,6.3,9,9.6
	c1-0.3,2.1-0.6,3.1-0.9C70.4,300,68.5,297.7,66.4,295.6z"/>
<path class="st1" d="M299,221.1c0.2,0,0.3,0.1,0.5,0.1c-2.5-1.5-5.4-2.4-8.3-2.7c-0.8,0.9-1.6,1.9-2.2,3c0.3,0,0.6,0,0.8,0
	c1.7-0.7,3.5-1,5.3-1C296.4,220.6,297.7,220.8,299,221.1z"/>
<path class="st1" d="M193.1,77.9c-0.6-0.6-1.3-0.9-2.2-0.9h-4.4c-0.2,0-0.4,0-0.5,0c-0.2,0.3-0.4,0.5-0.5,0.8c0,0.7-0.1,1.5-0.1,2.2
	c0.4,0,0.8,0,1.2,0h4.4c-0.1,3.2-0.3,6.5-0.4,9.8c1-1.5,2.1-3,3.2-4.6c0.1-1.7,0.2-3.4,0.2-5C193.9,79.3,193.6,78.5,193.1,77.9z"/>
<path class="st1" d="M205.8,35.6c0,0,0.1-0.1,0.1-0.1c0.1-0.1,0.2-0.3,0.3-0.4c0.1-0.2,0.3-0.4,0.4-0.5l0.6-0.8
	c0,0.7-0.1,1.4-0.1,2.1c1,0,2-0.1,3-0.1c0.1-1.3,0.1-2.5,0.2-3.7l0.1-2.7v-0.2c0.1-1,0.1-2.4-0.2-2.8c-0.1,0-0.1-0.1-0.2-0.1h-0.2
	l-0.1,0.1h-0.1l-0.1,0.1h-0.2c0,0.1-0.1,0.1-0.1,0.1l-0.1,0.1l-0.1,0.1l-0.1,0.1l-0.1,0.1l-0.1,0.1c-0.1,0.1-0.1,0.2-0.2,0.3
	l-0.1,0.1c-0.1,0-0.1,0.1-0.1,0.1c0,0.1-0.1,0.2-0.2,0.3l-0.1,0.1l-0.1,0.1c-0.2,0.2-0.3,0.3-0.4,0.5c-0.2,0.2-0.4,0.5-0.6,0.7
	c-0.1,0.1-0.3,0.3-0.4,0.5l-2.3,3.1c-0.2,0.3-0.5,0.7-0.7,1c-0.5,0.7-1.1,1.5-1.7,2.3c1.3-0.1,2.6-0.1,3.9-0.2
	C205.7,35.8,205.7,35.7,205.8,35.6z"/>
<rect x="883.9" y="131.3" class="st1" width="5" height="3"/>
<rect x="827" y="190" class="st1" width="3" height="3.7"/>
<path class="st1" d="M598.4,248.4c-1.7,0-3,1.3-3,3v58.5h-33v-10h-3v13h39v-61.5h16.7c-0.2-1-0.4-2-0.6-3H598.4z"/>
<polygon class="st1" points="860.8,177 866.8,187 867,187 861,177 "/>
<path class="st1" d="M854.8,173.2l-1.7-2.8c-0.8,0.6-1.3,1.5-1.3,2.5v20.8h2.3v9.3h0.7V173.2z"/>
<path class="st1" d="M616.9,222.7h0.3c0.4-1,0.9-2,1.4-3h-1.6V222.7z"/>
<rect x="827" y="177" class="st1" width="3" height="10"/>
<rect x="854.1" y="219.7" class="st1" width="5" height="3"/>
<polygon class="st1" points="520.8,309.9 487.8,309.9 487.8,299.9 484.8,299.9 484.8,312.9 523.8,312.9 523.8,225.4 520.8,225.4 "/>
<path class="st1" d="M973.2,137.9v17.6c-1.3-0.4-2.6-0.8-4.1-1.2v3.1c2.7,0.8,5.1,1.5,7.1,2.3v-23.6c-2.1-1.3-4.8-2.4-8-3.3v3.1
	C970.1,136.5,971.8,137.2,973.2,137.9z"/>
<polygon class="st1" points="536,248.4 536,238.4 533,238.4 533,251.4 543.4,251.4 543.4,248.4 "/>
<path class="st1" d="M946.1,176.7v0.9h7.3v3.9c-0.8,0.3-1.8,0.4-3,0.4c-2.5,0-4.8-0.5-7-1.6c-1.4-0.7-2.5-1.6-3.5-2.6
	c-1.2,0.1-2.4,0.2-3.7,0.3c1.6,2.2,3.5,3.9,5.9,5.1c2.6,1.3,5.3,1.9,8.3,1.9c1.7,0,3-0.2,4.1-0.6c1.2-0.4,1.9-1.6,1.9-2.8v-3.9
	c0-1.6-1.2-2.9-2.8-3c-1.3,0.5-2.8,0.9-4.3,1.4C948.3,176.3,947.2,176.5,946.1,176.7z"/>
<path class="st1" d="M78.9,213.4c-0.5-0.4-1-0.7-1.6-1c-0.5,0.6-0.9,1.2-1.3,1.9C77,213.9,77.9,213.6,78.9,213.4z"/>
<path class="st1" d="M205.8,62.5c0,0.9,0.3,1.7,0.9,2.3c0.3,0.3,0.6,0.5,1,0.6c0.7-0.9,1.4-1.9,2.1-2.9c-0.3,0-0.7,0-1,0.1
	c0.1-3.4,0.3-6.9,0.5-10.5c-1,0.1-2,0.1-3,0.2c0,0.3,0,0.6,0,0.9C206.1,56.3,205.9,59.5,205.8,62.5z"/>
<path class="st1" d="M77.6,249.8c0-0.1-0.1-0.2-0.1-0.3C77.5,249.6,77.6,249.7,77.6,249.8C77.6,249.8,77.6,249.8,77.6,249.8z"/>
<path class="st1" d="M221.5,64.9l2.8-3.1c-3.5,0.1-7.1,0.3-10.6,0.5c-0.8,1-1.5,2.1-2.3,3.1C214.6,65.2,218,65,221.5,64.9z"/>
<polygon class="st1" points="856.1,134.5 856.1,134.4 854.2,131.3 854.1,131.3 856,134.5 "/>
<path class="st1" d="M318.7,236.7c0.8-0.3,1.6-0.6,2.4-0.9c-0.2-0.3-0.3-0.7-0.5-1C320,235.4,319.3,236,318.7,236.7z"/>
<path class="st1" d="M974.1,165v30.4c-2.5,1.4-5.7,2.6-9.6,3.7c-1.3,0.3-2.6,0.6-4,0.9v3c1.6-0.3,3.3-0.6,4.8-1
	c4.9-1.4,8.8-3,11.8-4.9V162h-8v3H974.1z"/>
<path class="st1" d="M910.5,177.1c-0.4-1.4-0.8-2.9-1-4.4c-1.1-0.6-2.2-1.2-3.2-1.9c0,0.5,0.1,1,0.2,1.5
	C907.6,174.1,908.9,175.7,910.5,177.1z"/>
<path class="st1" d="M961.1,152.5v3c1.3,0.2,2.5,0.5,3.9,0.8c0.4,0.1,0.7,0.2,1.1,0.3v-3.1c-0.1,0-0.3-0.1-0.4-0.1
	C964.1,153,962.6,152.7,961.1,152.5z"/>
<rect x="960.5" y="219.7" class="st1" width="5" height="3"/>
<path class="st1" d="M83,290.9c-0.3,1.1-1.7,2.6-2.3,3.5c-0.8,1.2-1.6,2.4-2.4,3.5c-0.8,1.1-1.6,2.2-2.4,3.3
	c1.6-0.5,3.1-0.9,4.7-1.4c0-0.1,0.1-0.1,0.1-0.2c0.8-1.2,1.6-2.4,2.4-3.6c0.1-0.2,0.4-0.5,0.6-0.8c0.8-1.1,1.8-2.3,2.1-3.7
	c0.4-1.6,0.2-3.5,0-5.2c-1,0.2-1.9,0.5-2.9,0.8C83.1,288.5,83.3,289.9,83,290.9z"/>
<polygon class="st1" points="929.3,286.9 935.3,296.9 935.5,296.9 929.5,286.9 "/>
<path class="st1" d="M694.5,218.9v3c1.3,0.2,2.6,0.4,3.8,0.6c0.4,0.1,0.8,0.2,1.2,0.2v-3.1c-0.2,0-0.4-0.1-0.6-0.1
	C697.4,219.3,696,219.1,694.5,218.9z"/>
<path class="st1" d="M913.8,184.6c-0.3-0.5-0.6-1.1-0.9-1.6c-1.8-1.3-3.5-2.7-5-4.2c0.9,2.6,2,5.1,3.5,7.4
	c3.2,4.9,7.6,8.9,13.1,11.9v-3.5C920,192,916.5,188.7,913.8,184.6z"/>
<path class="st1" d="M438.9,287.7c-1.7,1.4-4.1,2.1-7.2,2.1h-3.8V286c-1,0.1-2,0.2-3,0.3v3.4c0,1.7,1.3,3,3,3h3.8
	c3.8,0,6.9-0.9,9.1-2.8c2.3-1.9,3.5-4.5,3.7-7.7c0,0,0-0.1,0-0.1c0-0.1,0-0.2,0-0.3c-1,0.4-2,0.8-3.1,1.1
	C441.2,284.9,440.4,286.5,438.9,287.7z"/>
<rect x="961.1" y="162" class="st1" width="5" height="3"/>
<path class="st1" d="M708,280.3l0.2,26.9c-2.7,1.1-5.9,2.1-9.7,2.9c-4.9,1-9.6,1.4-14.5,1.4c-9.9,0-18.8-2-26.4-5.9
	c-7.5-3.8-13.4-9-17.8-15.7c-2.5-1.9-4.7-4.1-6.7-6.4c1,2.6,2.3,5,3.8,7.4c4.7,7.3,11.1,13.1,19.4,17.3c8.2,4.2,17.5,6.2,27.8,6.2
	c5.1,0,10.1-0.5,15.1-1.5c4.9-1,8.9-2.3,12.1-3.9l-0.2-33.5c-2.5,1.3-5.1,2.4-7.9,3.3l0,3.1C704.8,281.6,706.4,281,708,280.3z"/>
<path class="st1" d="M316.5,233.5C316.5,233.5,316.5,233.5,316.5,233.5c0.5-1,0.9-2.1,1.5-3.2c-0.2-0.2-0.4-0.5-0.5-0.7
	C317.1,230.9,316.8,232.2,316.5,233.5z"/>
<path class="st1" d="M22,267.4c1.7-1,3.6-1.4,5.5-1.4c2.7,0,5.5,0.8,8,2.1c-1.8-1.8-3.9-3.1-6.2-4.1c-0.7-0.2-1.5-0.3-2.2-0.3
	c-1.9,0-3.9,0.6-5.7,2.1c-2,1.7-3.4,4.3-4.3,6.8c-0.1,0.4-0.3,0.8-0.4,1.2C17.7,271.2,19.3,268.9,22,267.4z"/>
<path class="st1" d="M624.3,142.5C624.3,142.5,624.3,142.5,624.3,142.5C624.3,142.5,624.3,142.6,624.3,142.5L624.3,142.5z"/>
<path class="st1" d="M441,193.6c-0.3-1.3-1.5-2.3-2.9-2.3h-17.8c-1.4,0-2.6,0.9-2.9,2.2l0,0.1c3.2,0.1,6.2,0.3,9.1,0.6h11.6l0.6,2.3
	c1.1,0.3,2.3,0.6,3.3,1L441,193.6z"/>
<polygon class="st1" points="867.1,309.9 834.1,309.9 834.1,299.9 831.1,299.9 831.1,312.9 870.1,312.9 870.1,286.9 867.1,286.9 "/>
<path class="st1" d="M40.8,274.1c-1.3-1.6-1.9-2.6-4-2.6c0,0,0,0-0.1,0c-0.2,0-0.4,0-0.6,0c1,0.9,1.9,1.9,2.8,2.9
	c-2.7-1.2-5.6-1.8-8.5-1.9c-1.1,0.4-2.2,0.9-3.2,1.5c-1,0.7-2,1.5-2.8,2.4c1.6-0.6,3.4-1,5.3-1c0.2,0,0.4,0,0.5,0
	c4.9,0.2,9.8,2.1,13.3,5.6c-2.5-1.2-5.3-2.1-8-2.1c-1.9,0-3.8,0.4-5.5,1.4c-7.2,4.1-7.4,14.5-3.2,20.8c0.8-5.4,3.7-11.1,8.4-14.1
	c2.1-1.4,4.6-2.1,7.1-2.4c0.8-0.1,1.6-0.1,2.4-0.1c0,0,0,0,0.1,0c2.1,0,2.7,0.9,4,2.5c-0.6-2-1.5-3.9-2.6-5.8
	C44.4,278.7,42.7,276.4,40.8,274.1z M33.6,284.5c-2.6,1.7-4.8,4.2-6.5,7.1c0-1,0.1-2,0.3-2.9c0.4-1.8,1.5-4.2,4.1-5.7
	c1.2-0.7,2.5-1,4-1c0.9,0,1.9,0.1,2.8,0.4C36.6,282.9,35,283.6,33.6,284.5z"/>
<path class="st1" d="M305.5,244.5C305.5,244.5,305.5,244.5,305.5,244.5c0.9-1,1.8-1.9,2.7-2.8c-0.9-0.1-1.8-0.2-2.7-0.2
	c-0.8,0-1.5,0-2.3,0.1c-1.7,0.2-3.2,0.6-4.6,1.1c-0.2,0.6-0.4,1.2-0.6,1.7c-0.2,0.7-0.5,1.5-0.7,2.2c1.9-1.1,3.9-1.8,6.3-2.1
	C304.1,244.5,304.8,244.5,305.5,244.5z"/>
<path class="st1" d="M71.4,305.9c0.6,0.7,1.4,1.2,2.4,1.2c0,0,0.1,0,0.1,0c1,0,1.9-0.5,2.4-1.3c0.4-0.7,0.9-1.3,1.4-1.9
	c-2.1,0.6-4.3,1.3-6.4,1.9C71.3,305.8,71.4,305.9,71.4,305.9z"/>
<path class="st1" d="M16.1,277.1c0,0.2,0,0.5,0,0.8c0-0.7,0.1-1.3,0.2-2C16.2,276.3,16.1,276.7,16.1,277.1z"/>
<path class="st1" d="M343,230.5c0.7-0.2,1.4-0.2,2.1-0.3c-2-0.7-4.1-1.1-6.3-1.3c0.5,0.9,0.9,1.8,1.2,2.7
	C341,231.1,342,230.7,343,230.5z"/>
<path class="st1" d="M36.5,228c0.5-3.2,1.9-6.5,4.7-8.7c2.1-1.6,4.7-2.4,7.6-2.4c1.3,0,2.6,0.1,3.9,0.4c1.9,0.4,3.6,1.2,5.2,2.2
	c0-0.1-0.1-0.2-0.1-0.2c-4.3-2.6-9-4.3-14-4.3c-0.1,0-0.1,0-0.2,0c-0.3,0-0.6,0-0.9,0c-1.2,0.5-2.3,1.1-3.4,1.9
	c-5.1,3.8-6.5,10.6-6.2,16.8c0.5-0.4,1.1-0.7,1.6-1.1C35.1,231,35.6,229.4,36.5,228z"/>
<polygon class="st1" points="396.3,190 393.1,190 391.7,193.6 394.9,193.6 "/>
<polygon class="st1" points="398,177 394.2,187 397.4,187 401.2,177 "/>
<path class="st1" d="M238.3,95.7c-0.2,1-0.4,1.9-0.5,3c0.6,0.1,1.2,0.1,1.8,0.2c0.4,0,0.7,0.1,1.1,0.1l1.4-1.7l0.9-1.1
	c-0.9-0.1-2-0.2-3.1-0.3C239.4,95.9,238.9,95.8,238.3,95.7z"/>
<path class="st1" d="M532.6,141.2c0,0.3,0,0.5,0,0.8c1.4,0.9,2.6,2,3.8,3.1c-0.6-2-1.4-4-2.4-5.8c-0.5-0.3-0.9-0.6-1.4-0.9
	C532.6,139.3,532.6,140.2,532.6,141.2z"/>
<path class="st1" d="M310.7,301.8c0-0.5-0.1-0.9-0.1-1.4c-0.4,0-0.7-0.1-1.1-0.1C309.9,300.9,310.3,301.3,310.7,301.8z"/>
<path class="st1" d="M319.2,218.7c0.8,0.7,1.6,1.5,2.2,2.4c0.9-0.1,1.8-0.1,2.6-0.1c0.2-0.2,0.4-0.4,0.5-0.6
	c-0.9-1.4-1.9-2.6-3.1-3.7c-0.8,0.2-1.5,0.5-2.3,0.8C319.2,218,319.2,218.3,319.2,218.7z"/>
<polygon class="st1" points="411.1,150.7 415,140.3 413.7,135.2 412.1,139.6 409,150.7 "/>
<path class="st1" d="M315,315c2.2,2.8,4.4,5.5,6.5,8c-13.2-1-27.1-1.9-42.1-2.6c0.4-0.3,0.7-0.6,1-0.9l0.1-0.1
	c1.7-1.5,4.2-3.8,4.6-6.9c0.1-0.5,0-0.9,0-1.4c-1-0.1-2.1-0.1-3.1-0.2c0.1,0.3,0.2,0.7,0.1,1.2c-0.2,2-2.3,3.9-3.7,5.1
	c-2.4,2.2-5.1,4-7.8,5.7c19.4,0.8,38.7,2,58,3.6c-3.9-4.3-7.6-8.7-11.2-13.2c-1.3-0.1-2.7-0.2-4-0.3C314,313.7,314.5,314.4,315,315z
	"/>
<polygon class="st1" points="404.3,168.3 403.9,169.8 404.5,168.3 404.3,168.3 "/>
<path class="st1" d="M132.3,93.9c0.1-0.2,0.2-0.4,0.4-0.6c0.2-0.4,0.5-0.7,0.7-1.1c0.1-0.2,0.2-0.3,0.3-0.5c0-0.1,3.5-6.1,6.8-11.5
	c-0.5,0.1-1.1,0.2-1.6,0.3l-2.2,0.4c-2.6,4.5-5.1,8.7-5.4,9.3c0.1,1.8,0.2,3.6,0.3,5.4c0.4-0.6,0.7-1.1,0.7-1.3
	C132.1,94.1,132.2,94,132.3,93.9z"/>
<path class="st1" d="M436.1,178.5c0.3-0.4,0.5-1,0.6-1.5h-12.4l-1.2-4.7l-1,3.6c-0.2,0.8-0.1,1.7,0.4,2.4h7.6h2.3l0.4,1.4h0.9
	C434.6,179.7,435.5,179.3,436.1,178.5z"/>
<path class="st1" d="M184.1,298.1c-1.5-0.1-2.9-0.1-4.3-0.1c-14.7,0-29.3,2.3-40.5,4.3c-2,0.4-3.9,0.8-5.8,1.1
	c-1.4,0.3-2.8,0.6-4.2,0.8c-1.1,0.2-2.2,0.4-3.6,0.7c-0.4,0.1-0.9,0.2-1.3,0.3c-0.5,0.1-1.2,0.3-1.5,0.4c-0.1,0-0.1,0-0.2-0.1
	c-0.5-0.2-1.1-0.4-2-0.4c-0.3,0-0.7,0-1,0.1c-16.7,3.1-33.4,8-49,12.8c-1.8,0.5-3.4,1.1-5.1,1.6c0.1-0.1,0.1-0.2,0.2-0.3
	c0.1-0.1,0.2-0.2,0.3-0.4c0.4-0.5,0.9-1,1.3-1.7l0.1-0.2c0.7-1.3,0.8-2.1,0.4-3.6c0-0.1-0.1-0.2-0.1-0.4c-0.5-2-1.3-4-2.3-5.9
	c-0.7,0.2-1.4,0.4-2.1,0.6c-0.3,0.1-0.6,0.2-0.8,0.3c1,1.9,1.8,3.8,2.3,5.7c0.3,1.2,0.4,0.9-0.2,2c-0.3,0.5-0.9,1.1-1.3,1.6
	c-0.9,1.1-1.8,2.1-2.7,3.2c-0.6,0.7-4.5,4.5-3.9,5.1c0,0,0.1,0,0.1,0c1,0,6.7-2.4,7.5-2.7c2.3-0.8,4.7-1.5,7-2.2
	c15.9-4.9,32.3-9.7,48.7-12.8c0.1,0,0.3,0,0.4,0c0.7,0,1.3,0.5,2.1,0.5c0,0,0,0,0,0c1.1,0,2.5-0.5,3.6-0.8c1.2-0.3,2.4-0.5,3.6-0.7
	c3.3-0.6,6.6-1.3,10-2c13.2-2.4,26.5-4.3,39.9-4.3c0.5,0,0.9,0,1.4,0C181.9,300.4,183,299.3,184.1,298.1z"/>
<path class="st1" d="M264.3,304.6c-2.6,0-5.4,0.1-8.6,0.2c-17.7,0.8-32.8,2.6-46.2,5.7c-5.6,1.3-11.3,2.8-16.8,4.3
	c3.2-3.1,7.9-8.7,4.8-13.2c-1.1,0.3-2.3,0.6-3.4,0.8c0.4,0.2,0.7,0.5,1,0.8c2.3,3.2-4,9-6,10.9c-2.8,2.6-6.3,4.6-8.9,7.2
	c10-2.7,20-5.6,30.1-7.9c14.9-3.5,30.4-5,45.7-5.7c2.8-0.1,5.6-0.2,8.4-0.2c0.6,0,1.3,0,1.9,0c1.3-0.9,2.5-1.9,3.7-2.9
	C268.1,304.7,266.3,304.6,264.3,304.6z"/>
<rect x="476" y="177" class="st1" width="3" height="10"/>
<path class="st1" d="M15.6,283c0.3-0.3,0.5-0.6,0.8-0.8c-0.1-0.6-0.2-1.1-0.3-1.7C16.1,281.4,16,282.4,15.6,283z"/>
<path class="st1" d="M255.3,81.4l0.1-0.1l0.1-0.1l0.1-0.1l0,0c-0.3,0-0.7-0.1-1-0.1c-0.1,0.5-0.2,1.1-0.2,1.6L255.3,81.4z"/>
<path class="st1" d="M689.2,137.9c1.9,0.8,3.7,1.8,5.2,2.9c-0.2-1.5-0.6-3-1.1-4.3c-1.2-0.6-2.4-1.2-3.7-1.7
	C689.5,135.9,689.4,136.9,689.2,137.9z"/>
<path class="st1" d="M128.3,94.8c-0.9,1.6-2.1,3.6-2.5,4.2l-1,1.8c-0.1,0.1-0.1,0.2-0.2,0.3c-0.2,0.4-0.5,0.9-0.8,1.3
	c-0.3,0.5-0.5,1-0.5,1.2v0.1c0.1,0.1,0.1,0.1,0.2,0.1h1.3c0.8-0.1,1.6-0.3,2.3-0.4c0.1,0,0.2,0,0.4-0.1h0.3c0.3,0,0.6-0.1,0.9-0.1
	c-0.1-1.2-0.1-2.4-0.2-3.7C128.5,97.9,128.4,96.4,128.3,94.8z"/>
<path class="st1" d="M502.1,134.4c-0.4-0.5-0.9-1-1.4-1.5c-0.7-0.6-1.4-1.1-2.2-1.5H490v3H502.1z"/>
<path class="st1" d="M603.1,173.4c-1,1.7-2.3,3.1-4,4c-1.7,1-3.5,1.5-5.6,1.5c-2,0-3.9-0.5-5.6-1.5c-0.1-0.1-0.3-0.2-0.4-0.3
	c-1.3,0.3-2.6,0.5-4,0.7c0.8,0.8,1.8,1.5,2.8,2.2c2.2,1.3,4.6,1.9,7.1,1.9c2.6,0,4.9-0.6,7.1-1.9c2.1-1.1,3.8-2.8,5.1-5.1
	c0,0,0,0,0-0.1c1.3-2.3,1.9-4.6,1.9-7.1c0-0.5,0-0.9-0.1-1.4c-1,0.9-2,1.8-3,2.7C604.3,170.6,603.9,172,603.1,173.4z"/>
<path class="st1" d="M303.8,214.9c-0.8-0.7-1.7-1.4-2.6-2c-0.6,0.2-1.2,0.3-1.8,0.5c0.8,0.8,1.5,1.6,2.2,2.5
	c0.7-0.2,1.5-0.4,2.3-0.5C303.9,215.2,303.8,215,303.8,214.9z"/>
<path class="st1" d="M144.3,92.8c0.5,0.4,1.2,0.7,1.9,0.7c0.2,0,0.3,0,0.5,0c2.6-0.4,5.4-0.8,8.1-1.2c-0.4,0.7-1,1.7-1.5,2.5
	c-4.2,7.1-8.6,14.7-12.3,21.5c1.2-0.2,2.5-0.4,3.5-0.6c0.1,0,0.2,0,0.2,0c3.6-6.4,7.5-13.2,11.2-19.4c1.6-2.8,1.9-3.2,1.9-3.2
	s0.1-0.1,0.1-0.2c0.2-0.3,0.4-0.7,0.7-1.1c0.5-0.8,1.1-1.6,1.3-2.2c0.1-0.2,0.2-0.5,0.1-0.6v-0.1c-0.2-0.2-0.7-0.2-1.2-0.2h-0.6
	l-1.2,0.2c-3.6,0.5-7.3,1-10.8,1.6c-0.1-1.3-0.1-2.6-0.2-4c-0.9,1.5-1.8,3.1-2.7,4.7C143.4,91.8,143.8,92.4,144.3,92.8z"/>
<polygon class="st1" points="973.5,222.7 973.5,309.9 943.3,309.9 937.3,299.9 933.8,299.9 941.6,312.9 976.5,312.9 976.5,219.7 
	968.5,219.7 968.5,222.7 "/>
<path class="st1" d="M325.6,231.3c-0.5,0.3-1,0.6-1.5,0.9c-0.1,0.9-0.1,1.9-0.3,2.8c1-0.3,2.1-0.5,3.1-0.6c0.1-0.7,0.1-1.4,0.2-2.1
	C326.7,231.9,326.2,231.6,325.6,231.3z"/>
<path class="st1" d="M142.5,76.6c0,0.1,0,0.1,0,0.2c1-0.1,2-0.3,3-0.4c0,0,0-0.1,0-0.1c-0.1-1.7-0.2-3.4-0.2-5l-0.1-1.7v-0.2
	c0-0.6-0.1-1.4-0.3-1.7c-0.1-0.1-0.1-0.1-0.2-0.1c0,0-0.1,0-0.1,0.1h-0.1l-0.2,0.2l-0.1,0.1l-0.1,0.1l-0.2,0.2v0.2
	c0,0.1-0.1,0.1-0.1,0.2c-0.1,0.2-0.3,0.4-0.4,0.6c-0.1,0.1-0.2,0.3-0.2,0.4c-0.1,0.2-0.2,0.3-0.3,0.5l-1.3,2.1v0.1
	c-0.1,0.2-0.2,0.4-0.4,0.6c-0.8,1.3-1.7,2.8-2.7,4.5c1.3-0.2,2.6-0.4,3.9-0.6C142.4,76.8,142.5,76.7,142.5,76.6z"/>
<path class="st1" d="M304.9,220.8c0-0.2,0-0.4-0.1-0.6c-0.1,0-0.2-0.1-0.3-0.1C304.7,220.4,304.8,220.6,304.9,220.8z"/>
<path class="st1" d="M914.7,273.7v36.2h-30.1v-10h-3v13h36.1v-39.2l-1.6-2.6C915.3,271.7,914.7,272.6,914.7,273.7z"/>
<path class="st1" d="M663.2,134.3c0.1-0.4,0.1-0.7,0.1-1.1c0-0.7-0.1-1.3-0.3-1.9h-8.5v3H663.2z"/>
<path class="st1" d="M139.5,112.4c-0.1-3.4-0.3-6.7-0.5-10.2c0-0.8-0.4-1.5-0.9-2c-0.7,1.2-1.4,2.4-2,3.6c0.2,2.8,0.3,5.7,0.4,8.6
	c0.1,1.7,0.2,3.3,0.3,4.9c0.9-0.4,1.9-0.7,3-0.9C139.6,115.1,139.6,113.8,139.5,112.4z"/>
<path class="st1" d="M301.1,236.8c0.6-0.1,1.3-0.2,2-0.2c1.1,0,2.1,0.1,3.1,0.4c1.5,0.4,3.1,1.2,4.5,2.3c0.4-0.4,0.9-0.7,1.3-1.1
	c-1.3-1.6-2.8-2.9-4.6-4c-0.2,0-0.3-0.1-0.5-0.1c-1.3-0.3-2.6-0.5-3.9-0.5c-0.1,0-0.1,0-0.2,0c-0.3,0.5-0.7,1.1-1,1.6
	C301.7,235.7,301.4,236.3,301.1,236.8z"/>
<path class="st1" d="M344.3,250.7c0.5,0.1,1,0.3,1.5,0.5c0.1-1.1,0.1-2.2,0-3.2c-1.3-0.4-2.7-0.7-4-0.8
	C342.6,248.2,343.5,249.4,344.3,250.7z"/>
<path class="st1" d="M343.1,241.9c-0.7-0.8-1.5-1.5-2.5-2.2c-0.1,0.8-0.3,1.7-0.5,2.5C341,242,342,241.9,343.1,241.9z"/>
<path class="st1" d="M239.5,88.6c-0.2,1.5-0.5,3.4-0.9,5.4l11-12.1l1.4-1.6c-1-0.1-2.1-0.3-3.1-0.4l-0.5-0.1l-0.1,0.1L239.5,88.6z"
	/>
<path class="st1" d="M640.3,190v8.5c1-0.5,2-1,3-1.4V190H640.3z"/>
<rect x="640.3" y="177" class="st1" width="3" height="10"/>
<path class="st1" d="M88.8,209.1c1.2,0,2.5,0.2,3.8,0.7c2,0.7,3.6,1.9,4.8,3.5c0.5-1,1-2,1.4-2.9c-1.4-1.5-3.1-2.7-5.2-3.4
	c-1.6-0.6-3.2-0.9-4.8-0.9c-1.5,0-2.9,0.3-4.3,0.8c0.4,0.9,0.8,1.8,1.1,2.8C86.6,209.3,87.7,209.1,88.8,209.1z"/>
<path class="st1" d="M677.2,154.5c1.4,1.2,2.1,2.8,2.1,4.7c0,1.9-0.7,3.4-2.1,4.6c-1.4,1.2-3.4,1.8-6,1.8v0.1h-0.7v-8.6
	c-1,0.3-2,0.6-3,0.8v7.8c0,1.7,1.3,3,3,3h0.7c0,0,0.1,0,0.1,0c2-0.3,3.9-0.7,5.7-1.3c0.8-0.4,1.5-0.8,2.1-1.4
	c2.1-1.8,3.1-4.1,3.1-6.9c0-2.5-0.9-4.8-2.6-6.5c-0.8,0.6-1.7,1.2-2.6,1.7C677.1,154.4,677.2,154.5,677.2,154.5z"/>
<path class="st1" d="M46.7,225.5c-2.5,0.6-4.8,1.5-6.9,2.7c-0.7,1-1.2,2-1.6,3.1c0.5-0.1,1-0.2,1.6-0.3
	C41.8,228.9,44.1,227,46.7,225.5z"/>
<path class="st1" d="M467.9,253.1c-1.2,1.5-2.6,2.7-4.3,3.8c0.2,0.3,0.5,0.5,0.7,0.8c0.4,0.5,0.8,1,1.1,1.6c1.3-0.8,2.4-1.7,3.4-2.7
	v-4.8C468.5,252.2,468.2,252.7,467.9,253.1z"/>
<path class="st1" d="M460.4,262.6c-0.1,1-0.3,2.1-0.5,3c2.1,0.8,4,1.8,5.6,2.9c-0.2-1.4-0.4-2.8-0.8-4
	C463.3,263.8,461.9,263.1,460.4,262.6z"/>
<path class="st1" d="M507.8,200v3c3.2-0.1,6.3-0.4,9.2-1v-3.1C514.1,199.5,511,199.9,507.8,200z"/>
<rect x="802.1" y="131.3" class="st1" width="5" height="3"/>
<path class="st1" d="M55.4,225.3c-0.4,0.1-0.9,0.2-1.3,0.3c-2.2,0.6-4.3,1.6-6.3,2.8c1.2-0.2,2.5-0.4,3.9-0.4c0.1,0,0.1,0,0.2,0
	c3.3,0,6.4,0.8,9.4,2c-0.3-1.2-0.7-2.4-1-3.6C58.7,225.9,57,225.5,55.4,225.3z"/>
<path class="st1" d="M466,230.3c0,0.2,0,0.4,0,0.6c1.1,1,2.1,2.1,2.8,3.3v-4.8c-0.9-0.9-1.9-1.7-3-2.4
	C465.9,228.1,466,229.2,466,230.3z"/>
<rect x="389.8" y="286.8" class="st1" width="3" height="10"/>
<path class="st1" d="M143,85.8c0.8-1.3,1.6-2.7,2.4-4c0.1-0.2,0.3-0.5,0.4-0.7c0-0.6-0.1-1.1-0.1-1.7c-1,0.1-2,0.3-3,0.4
	c0.1,1.4,0.1,2.9,0.2,4.3C142.9,84.7,142.9,85.2,143,85.8z"/>
<path class="st1" d="M698.4,144.6c2.8,3.3,4.3,7.9,4.3,13.5c0,5.5-1.3,9.9-4,13.5c-2.8,3.7-6.4,6.3-11,8c-4.9,1.8-10.5,2.7-16.5,2.7
	h-0.9c-1.7,0-3,1.3-3,3v6.9c0.3,0,0.6,0,0.9,0c0.7,0,1.4,0,2.1,0.1v-7h0.9c6.5,0,12.3-1,17.5-2.9c5.2-1.9,9.3-4.9,12.4-9
	c3.1-4.1,4.6-9.2,4.6-15.3c0-6.2-1.6-11.4-5-15.4c-1.1-1.3-2.3-2.4-3.6-3.5c0.3,1.5,0.5,3,0.5,4.6
	C697.9,144.1,698.2,144.4,698.4,144.6z"/>
<path class="st1" d="M468.6,271.1c0.1,0.1,0.1,0.1,0.2,0.2v-4c-0.2-0.2-0.4-0.3-0.6-0.4C468.5,268.1,468.6,269.6,468.6,271.1z"/>
<rect x="476" y="190" class="st1" width="3" height="3.7"/>
<path class="st1" d="M557.1,173.4c-0.1,0-0.2-0.1-0.2-0.1h0c-1.1-0.6-2.1-1.2-3.1-1.8c0,0.1,0,0.2,0,0.3c1.2,2.3,2.7,4.3,4.6,6.2
	C557.9,176.5,557.4,175,557.1,173.4z"/>
<path class="st1" d="M19.6,274.8c-0.1,0.3-0.2,0.6-0.3,0.9c-0.2,0.9-0.3,1.9-0.3,2.9c1-1.8,2.3-3.4,3.6-4.7
	c-1.2,0.5-2.2,1.1-3.3,1.7C19.5,275.4,19.6,275.1,19.6,274.8z"/>
<path class="st1" d="M348.6,252.7c2.5,1.7,4.1,3.9,4.8,6.7c0.5,2.1,0.6,4.3,0.1,6.6c-1.5-3.2-3.7-6.1-6.3-8.4
	c-0.4,1-0.9,1.9-1.4,2.8c3.8,3.6,6.5,8.6,7.1,14.4c5.8-8.6,5.8-20.3-4.1-25.6C348.9,250.4,348.8,251.5,348.6,252.7z"/>
<path class="st1" d="M566.5,143.1c2.3-2.1,4.9-4,7.9-5.6c0.1-0.1,0.3-0.2,0.4-0.2c0.1-0.1,0.3-0.2,0.5-0.2c0.1-0.1,0.3-0.1,0.4-0.2
	c0,0,0,0,0,0c0.2-0.1,0.3-0.1,0.5-0.2c0.1-0.1,0.2-0.1,0.3-0.1c0.1,0,0.2-0.1,0.2-0.1c0.3-0.1,0.5-0.2,0.8-0.3c0.1,0,0.1,0,0.2-0.1
	c0.3-0.1,0.6-0.2,0.9-0.3l1.3-0.5c1.7-0.6,3.5-1,5.3-1.4c-0.7-0.6-1.4-1.2-2.2-1.7c-0.4-0.2-0.9-0.4-1.3-0.6c-1,0.2-1.9,0.5-2.8,0.8
	l-1.5,0.6c-0.4,0.2-0.9,0.3-1.3,0.5c-0.1,0-0.1,0.1-0.2,0.1h-0.1c-0.4,0.2-0.7,0.3-1.1,0.5c-0.1,0-0.1,0.1-0.2,0.1
	c-0.1,0-0.1,0-0.2,0.1c-0.4,0.2-0.9,0.4-1.3,0.7c-2.3,1.2-4.4,2.6-6.3,4.1c-0.2,0.9-0.3,1.8-0.3,2.8
	C566.4,142.2,566.4,142.7,566.5,143.1z"/>
<path class="st1" d="M362.3,239.5c-1.1-3.4-3.3-6.7-6.2-8.9c-0.3-0.2-0.6-0.5-1-0.7c0.1,0.4,0.1,0.8,0.2,1.3c0.1,0.6,0.3,1.8,0.3,3
	c1.7,1.7,3.1,3.9,3.8,6.2c0.3,1,0.5,2,0.7,2.9c-4.5-2.9-9.9-4.5-15.4-4.5c-0.2,0-0.3,0-0.5,0c1,0.9,1.8,2,2.4,3.1
	c6.3,0.5,12.2,3.3,16.5,7.9c0.8-0.8,0.1-4.5,0-5.6C363.1,242.6,362.8,241,362.3,239.5z"/>
<path class="st1" d="M543,186.1c3.5-5.1,5.4-11,5.6-17.7c-0.3-0.6-0.5-1.2-0.7-1.8c-0.9-0.9-1.7-1.8-2.4-2.8
	c0.1,1.1,0.2,2.2,0.2,3.4c0,6.5-1.7,12.3-5.1,17.2c-2.6,3.7-5.9,6.9-9.9,9.3h5.2C538.6,191.5,541,189,543,186.1z"/>
<path class="st1" d="M332,251.1c2.6-0.7,5-1.1,7.3-1.1c0.3,0,0.6,0,0.9,0c-0.7-0.9-1.5-1.8-2.4-2.6c-0.3,0.5-0.6,1-0.9,1.4
	c-0.1-0.6-0.2-1.2-0.3-1.7c-3.4,0.3-6.8,1.3-9.9,2.5c2.2-2.3,4.5-4.1,6.9-5.4c-1-0.6-2.1-1.1-3.2-1.6c-0.4,0.2-0.8,0.5-1.1,0.7
	c0.2-0.3,0.4-0.7,0.5-1c-1-0.4-1.9-0.6-2.9-0.9c-0.9,1.6-1.7,3.3-2.4,5c0.4-1.7,0.8-3.4,1.2-5.2c-1.5-0.3-3.1-0.4-4.6-0.4
	c-0.4,0-0.8,0-1.2,0c0.5,1.9,0.9,3.9,1.1,5.8c-0.9-1.8-2.2-3.8-3.8-5.6c-1.2,0.2-2.1,0.4-3,1.2c0.4,0.5,0.8,0.9,1.2,1.4
	c-0.6-0.3-1.2-0.5-1.8-0.8c-0.1,0.1-0.1,0.2-0.2,0.2c-0.6,0.7-1.1,1.5-1.7,2.3c3.3,1.1,6.3,3,8.4,5.7c-7.9,6.3-14,15-17.7,24.5
	c-0.2,3.2-0.2,6.5,0.1,9.8c0,0.1,0,0.2,0,0.3c2.1-9.7,6.6-18.7,12.7-25.9c-1.5,2.6-2.8,5.7-4.2,9.5c-2.7,7.9-3.9,16.1-3.8,24.9
	c1,1.2,2.1,2.4,3.1,3.6c-0.6-9.4,0.4-18.6,3.5-27.6c1.1-3.2,2.4-6.4,4.1-9.3c1-1.7,2.1-3.4,3.4-5c1.5-1.9,2.9-2,5.2-2.2
	c0.8-0.1,1.7-0.1,2.5-0.1c5.8,0,11.2,1.9,15.4,5.3c-0.4-1.7-0.9-3.3-1.6-4.7C339.6,252.7,335.9,251.5,332,251.1z"/>
<rect x="744.7" y="131.3" class="st1" width="25.4" height="3"/>
<rect x="788.1" y="177" class="st1" width="3" height="10"/>
<g>
	<path class="st2" d="M702.5,223.5v-3.1v-10.2c-2.1-1.1-4.8-2-8-2.8v3.1c1.9,0.5,3.6,1,5,1.6v7.6v3.1v17.6c-2-0.8-4.2-1.5-6.4-2.1
		l0,0l0,0c-4.1-1-8.2-1.5-12.1-1.5c-4.5,0-8.3,0.7-11.7,2l0,0l0,0c-3.6,1.6-6.1,3.5-8,6.1l0,0l0,0c-1.4,2-2.2,4.1-2.6,6.4
		c0.8,0.6,1.8,1.2,2.8,1.7c0.2-2.4,1-4.4,2.3-6.3c1.6-2.2,3.8-3.8,6.8-5.1c3-1.2,6.5-1.8,10.6-1.8c3.8,0,7.6,0.5,11.4,1.4
		c3.4,0.9,6.3,2,9.1,3.4c-0.1-1.4-0.2-2.8-0.2-4.2c0-3.8,0.4-7.5,1.3-11V223.5z"/>
	<path class="st2" d="M961.1,149v3h5v1.5v3.1v5.4v3v17.4c-2.5,1.4-5.7,2.6-9.6,3.7c-4.7,1.3-9.9,1.9-15.4,1.9
		c-8.1,0-15.3-1.5-21.4-4.5c-3.6-1.8-6.7-3.9-9.3-6.4c-1.5-1.4-2.9-3-4.1-4.7c-0.2-0.3-0.4-0.5-0.6-0.8c-0.3-0.5-0.6-1.1-0.9-1.6
		c-1.8-1.3-3.5-2.6-5-4.1c0,0,0-0.1-0.1-0.1c0,0.1,0,0.1,0.1,0.2c0.8,2.5,2,5,3.4,7.2c1.3,2,2.8,3.9,4.5,5.6c1.5,1.5,3.2,2.9,5,4.2
		c1.7,1.2,3.5,2.3,5.5,3.3c6.5,3.2,14.1,4.8,22.7,4.8c5.9,0,11.3-0.7,16.2-2c4.9-1.4,8.8-3,11.8-4.9V165v-3v-4.6v-3.1V149H961.1z"/>
	<path class="st2" d="M310,217.4c-0.2-0.2-0.4-0.5-0.5-0.7c-0.3,1.3-0.6,2.6-0.9,3.9c0,0,0,0,0,0C309,219.5,309.5,218.4,310,217.4z"
		/>
	<path class="st2" d="M295.1,223.6c1.1,0,2.1,0.1,3.1,0.4c1.5,0.4,3.1,1.2,4.5,2.3c0.4-0.4,0.9-0.7,1.3-1.1c-0.9-1.1-2-2.1-3.2-3
		c-0.5-0.3-1-0.7-1.5-1c-0.2,0-0.3-0.1-0.5-0.1c-1.3-0.3-2.6-0.5-3.9-0.5c-1.8,0-3.6,0.3-5.3,1c-1.5,0.6-3,1.5-4.1,2.8
		c-3.8,4-4.6,10.2-3.9,15.5c4-4,7.8-7.7,13.7-8.3c0.6-0.1,1.3-0.1,2-0.1c0,0,0,0,0,0c0.9-1,1.8-1.9,2.7-2.8
		c-0.9-0.1-1.8-0.2-2.7-0.2c-0.8,0-1.5,0-2.3,0.1c-4.2,0.5-7.5,2.2-10.3,4.4c0.4-2.3,1.3-4.7,3-6.6
		C289.6,224.6,292.2,223.6,295.1,223.6z"/>
	<path class="st2" d="M225.9,85.3c0.3,0,0.6,0.1,0.9,0.1c0.4-2,0.7-3.9,1-5.7l-0.8,0.9c-0.3,0.2-0.5,0.5-0.8,0.8l-0.1,0.1
		c-0.5,0.5-1.1,1.1-1.5,1.6c-0.4,0.5-0.7,1.1-0.5,1.4C224.3,84.9,225,85.2,225.9,85.3z"/>
	<polygon class="st2" points="714.7,142.7 714.7,139.7 713.4,139.7 710.4,139.7 705.4,139.7 705.4,129.7 702.4,129.7 702.4,142.7 
		710.4,142.7 713.4,142.7 	"/>
	<path class="st2" d="M162.6,67.6c0.1,0,0.3,0,0.6,0c0.6,0,1.3,0,1.7,0c1.3-0.1,2.5-0.2,3.8-0.3h1.1c1.5-0.1,3-0.2,4.5-0.2
		c0-1,0.1-2,0.1-3c-1.5,0-3.1,0.1-4.7,0.2h-1h-0.1l-0.1,0c-0.4,0-0.7,0.1-1.1,0.1l0-0.1l1.9-2.7l0.5-0.7c1.1-1.5,3.4-4.7,4.8-6.6
		c0.1-0.1,0.1-0.2,0.2-0.3c0,0,0,0,0,0h-3.7c-1.6,2.2-3.7,5-4.3,5.9l-1.9,2.7c-0.2,0.2-0.3,0.4-0.5,0.6c-0.4,0.6-0.9,1.2-1.3,1.8
		c-0.5,0.8-0.9,1.6-0.9,1.9c0,0.1,0,0.1-0.1,0.5l0.1,0.1C162.4,67.5,162.5,67.6,162.6,67.6z"/>
	<path class="st2" d="M116.8,90.8c0.8-0.1,1.6-0.3,2.3-0.4c0.1,0,0.2,0,0.4-0.1h0.3c0.3,0,0.6-0.1,0.9-0.1c-0.1-1.2-0.1-2.4-0.2-3.7
		c0-1.6-0.1-3.1-0.2-4.7c-0.9,1.6-2.1,3.6-2.5,4.2l-1,1.8c-0.1,0.1-0.1,0.2-0.2,0.3c-0.2,0.4-0.5,0.9-0.8,1.3
		c-0.3,0.5-0.5,1-0.5,1.2v0.1c0.1,0.1,0.1,0.1,0.2,0.1H116.8z"/>
	<path class="st2" d="M197.8,22.5L197.8,22.5c0.1-0.2,0.2-0.3,0.3-0.5c0.1-0.2,0.3-0.4,0.4-0.5l0.6-0.8c0,0.7-0.1,1.4-0.1,2.1
		c-0.1,1.5-0.2,3.1-0.2,4.7c-0.1,2.8-0.3,5.8-0.4,8.7c1-0.1,2-0.1,3-0.2c0.1-2.8,0.3-5.6,0.4-8.4c0.1-3,0.3-5.9,0.4-8.7l0.1-2.7
		v-0.2c0.1-1,0.1-2.4-0.2-2.8c-0.1,0-0.1-0.1-0.2-0.1h-0.2l-0.1,0.1h-0.1l-0.1,0.1h-0.2c0,0.1-0.1,0.1-0.1,0.1l-0.1,0.1l-0.1,0.1
		l-0.1,0.1l-0.1,0.1l-0.1,0.1c-0.1,0.1-0.1,0.2-0.2,0.3l-0.1,0.1c-0.1,0-0.1,0.1-0.1,0.1c0,0.1-0.1,0.2-0.2,0.3l-0.1,0.1l-0.1,0.1
		c-0.2,0.2-0.3,0.3-0.4,0.5c-0.2,0.2-0.4,0.5-0.6,0.7c-0.1,0.1-0.3,0.3-0.4,0.5l-2.3,3.1c-0.2,0.3-0.5,0.7-0.7,1
		c-0.6,0.8-1.3,1.7-2,2.7c-0.1,1.8-0.2,3.6-0.3,5.4C194.8,26.6,196.4,24.4,197.8,22.5L197.8,22.5z"/>
	<path class="st2" d="M134.5,63.6c0,0.1,0,0.1,0,0.2c1-0.1,2-0.3,3-0.4c0,0,0-0.1,0-0.1c-0.1-1.7-0.2-3.4-0.2-5l-0.1-1.7v-0.2
		c0-0.6-0.1-1.4-0.3-1.7c-0.1-0.1-0.1-0.1-0.2-0.1c0,0-0.1,0-0.1,0.1h-0.1l-0.2,0.2l-0.1,0.1l-0.1,0.1l-0.2,0.2v0.2
		c0,0.1-0.1,0.1-0.1,0.2c-0.1,0.2-0.3,0.4-0.4,0.6c-0.1,0.1-0.2,0.3-0.2,0.4c-0.1,0.2-0.2,0.3-0.3,0.5l-1.3,2.1v0.1
		c-0.1,0.2-0.2,0.4-0.4,0.6c-0.8,1.3-1.7,2.8-2.7,4.5c1.3-0.2,2.6-0.4,3.9-0.6C134.4,63.8,134.5,63.7,134.5,63.6z"/>
	<path class="st2" d="M620.8,135.3c-1.3-2.1-2.8-4-4.5-5.8c0.8,2.2,1.3,4.5,1.6,6.8c0.1,0.2,0.3,0.4,0.4,0.5
		c0.2,0.3,0.3,0.6,0.5,0.9c1.2,2,2.2,4.2,2.9,6.3c1,3.1,1.5,6.4,1.5,10c0,6.3-1.7,12.1-4.9,17.2c-3.3,5.2-7.7,9.2-13.6,12.4
		c-5.7,3-12.1,4.5-19.2,4.5c-7.1,0-13.5-1.5-19.2-4.5c-3.1-1.7-5.8-3.6-7.9-5.7c-1.9-1.9-3.4-3.9-4.6-6.2c-0.1-0.1-0.2-0.3-0.2-0.4
		l0-0.1c-1.8-1.2-3.5-2.5-5-3.9c-0.3-0.3-0.5-0.5-0.8-0.8c0.2,0.6,0.5,1.2,0.7,1.8c0.7,1.5,1.4,2.9,2.3,4.3c1.3,2.6,3,4.9,4.9,6.9
		c1.7,1.7,3.6,3.3,5.7,4.7c1.1,0.7,2.2,1.4,3.4,2h0c6.2,3.3,13.1,4.9,20.6,4.9s14.4-1.6,20.6-4.9s11.1-7.7,14.7-13.4
		c1.5-2.3,2.6-4.7,3.5-7.2v-18.5v-4.6c0,0,0,0,0-0.1C623.4,140,622.3,137.6,620.8,135.3z"/>
	<path class="st2" d="M36.7,253.4c-0.3,1-0.6,2.1-0.7,3.3c1,0.7,2,1.4,2.9,2.2c0-2.4,0.4-4.7,1.4-6.5c0,0,0,0,0,0
		C39.1,252.4,37.9,252.8,36.7,253.4z"/>
	<path class="st2" d="M753.4,238.8L753.4,238.8L753.4,238.8c-2.9,1.7-5,3.8-6.4,6.3c-1.2,2.1-1.9,4.3-2.2,6.8c0.6,0.5,1.3,1,2,1.4
		c0.3,0.2,0.6,0.3,0.9,0.5c0-2.7,0.6-5,1.9-7.2c1.2-2.2,3-3.9,5.2-5.2c2.2-1.2,4.6-1.9,7.2-1.9c2.3,0,4.4,0.5,6.4,1.5c0,0,0,0,0-0.1
		c0-1.2-0.1-2.3-0.4-3.4c-1.9-0.7-3.9-1-6-1C759,236.5,756.1,237.3,753.4,238.8z"/>
	<path class="st2" d="M311.2,205.7c1.4,1.2,2.5,2.6,3.4,4.1c0.6-0.8,1.3-1.7,2.1-2.4c-1.4-2.2-3.3-4.1-5.5-5.5
		C311.2,203.2,311.2,204.5,311.2,205.7z"/>
	<path class="st2" d="M291,208.1c1.3,0.3,2.6,0.9,3.8,1.6c1.3,0.4,2.6,0.9,3.9,1.6c0.9,0.5,1.7,1,2.5,1.5c0.9,0.6,1.8,1.3,2.6,2
		c-0.2-0.8-0.5-1.6-0.8-2.4c-0.4-1-0.8-2-1.3-2.9c-0.5-0.3-1.1-0.6-1.6-0.9c-3.3-1.7-6.9-2.7-10.8-3c-0.5,0-1-0.1-1.5-0.1
		c2.3-1.7,5.2-2.8,8.5-3.3c-0.9-0.9-1.9-1.7-3-2.4c-5,1.3-9.6,4.2-12.2,8.8c0.3,0,0.6,0,0.8,0C284.7,207.5,288,207.3,291,208.1z"/>
	<path class="st2" d="M47.7,252.6c-0.6-0.2-1.2-0.3-1.8-0.4c-0.8-0.1-1.6-0.2-2.4-0.2c0,0,0,0-0.1,0c-2.1,1.9-3.5,4.3-4.4,6.9
		c0.8,0.7,1.6,1.4,2.4,2.1C42.6,257.5,44.4,254.5,47.7,252.6z"/>
	<path class="st2" d="M46.1,212.6c-2.2,0.6-4.3,1.6-6.3,2.8c1-0.2,1.9-0.3,3-0.3c0.3,0,0.6,0,0.9,0c0.1,0,0.1,0,0.2,0
		c5,0,9.8,1.8,14,4.3c-0.4-1.2-0.9-2.3-1.3-3.5c0-0.1-0.1-0.3-0.1-0.4c0-0.1-0.1-0.2-0.1-0.3c-3-1.4-5.9-2.4-8.9-2.8
		C47,212.4,46.5,212.5,46.1,212.6z"/>
	<path class="st2" d="M247.7,291.8c-17.7,0.8-32.8,2.6-46.2,5.7c-2.4,0.6-4.8,1.2-7.2,1.8c-2.5,0.6-5.1,1.3-7.6,2
		c-0.7,0.2-1.3,0.4-2,0.5c0.2-0.2,0.4-0.4,0.6-0.6c0.8-0.8,1.7-1.8,2.5-2.8c2.2-3,3.9-6.6,1.7-9.7c-1.1,0.3-2.3,0.6-3.4,0.8
		c0.4,0.2,0.7,0.5,1,0.8c1.5,2.1-0.6,5.3-2.9,7.8c-1.1,1.2-2.2,2.3-2.9,2.9c0,0-0.1,0.1-0.2,0.1c-2.8,2.6-6.3,4.6-8.9,7.2
		c7.3-2,14.6-4,21.9-5.9c1.1-0.3,2.3-0.6,3.4-0.8c1.6-0.4,3.1-0.8,4.7-1.1c14.9-3.5,30.4-5,45.7-5.7c2.8-0.1,5.6-0.2,8.4-0.2
		c0.6,0,1.3,0,1.9,0c1.3-0.9,2.5-1.9,3.7-2.9c-1.8-0.1-3.7-0.1-5.6-0.1C253.7,291.6,250.9,291.7,247.7,291.8z"/>
	<path class="st2" d="M27.5,255.1c-1.8-1.8-3.9-3.1-6.2-4.1c-0.7-0.2-1.5-0.3-2.2-0.3c-1.9,0-3.9,0.6-5.7,2.1
		c-2,1.7-3.4,4.3-4.3,6.8c-0.1,0.4-0.3,0.8-0.4,1.2c0.9-2.7,2.6-5,5.2-6.5C18.2,252,23.3,253,27.5,255.1z"/>
	<path class="st2" d="M26.7,222.9c-0.3-2.7,0.4-5.5,1.7-8c0.5-3.2,1.9-6.5,4.7-8.7c2.1-1.6,4.7-2.4,7.6-2.4c1.3,0,2.6,0.1,3.9,0.4
		c3,0.7,5.8,2.3,8.2,4.4c0.3,0.1,0.6,0.2,1,0.4c-5.2-4-11.4-7-18-7.1c-0.4,0-0.8,0-1.1,0c-1.2,0.5-2.3,1.1-3.4,1.9
		c-6,4.5-7,13.2-5.9,20.2C25.9,223.7,26.3,223.3,26.7,222.9z"/>
	<path class="st2" d="M74.5,198.4c1.9-1.5,4.1-2.3,6.3-2.3c1.2,0,2.5,0.2,3.8,0.7c2.6,1,4.6,2.8,5.9,5.4c-1.5-0.3-3-0.4-4.2-0.4
		c-1.7,0-3.4,0.2-5,0.5c-0.1,0-0.3,0.1-0.4,0.1c0.1,0.1,0.2,0.1,0.2,0.2c0.9,0.7,1.6,1.5,2.3,2.4c0.9-0.1,1.9-0.2,2.9-0.2
		c3.1,0,6.2,0.7,8.5,2.4c-0.4-5.9-3.4-11.1-9.1-13.2c-1.6-0.6-3.2-0.9-4.8-0.9c-2.9,0-5.7,1-8.2,2.9c-1.9,1.5-3.4,3.3-4.6,5.2
		c1.5-0.6,3-1,4.6-1.1C73.2,199.5,73.8,198.9,74.5,198.4z"/>
	<path class="st2" d="M181.8,107.5c0.1,0,0.1-0.1,0.2-0.1h0.1c0.1,0,0.1,0,0.2-0.1l0.1-0.1l0.2-0.2c0.1,0,0.1-0.1,0.1-0.1l0.2-0.2
		l0.1-0.1v-0.1c0-0.1,0.1-0.1,0.1-0.2v-0.1c0-0.1,0.1-0.1,0.1-0.2c0.1-0.1,0.1-0.2,0.2-0.3c0-0.1,0.1-0.1,0.1-0.2
		c0-0.1,0.1-0.1,0.1-0.2c0-0.1,0.1-0.1,0.1-0.2l1.4-2.1c1.6-2.4,3.3-5,5.1-7.6c1-1.5,2.1-3.1,3.2-4.6c5.8-8.3,12-17.1,18-25.4
		c0.8-1.1,1.5-2.1,2.3-3.1c0.6-0.8,1.2-1.6,1.7-2.4c3-4.1,3.5-4.8,3.5-4.8L219,55l0.1-0.1c0.4-0.5,0.9-1.1,1.3-1.6
		c1-1.2,1.9-2.4,2.4-3.3c0.2-0.4,0.3-0.7,0.3-1c0-0.1-0.1-0.2-0.2-0.3h-0.2c0,0-0.1-0.1-0.2-0.1h-2.4l-2,0.1
		c-2.8,0.1-5.8,0.2-8.7,0.4c-1,0.1-2,0.1-3,0.2c-0.2,0-0.5,0-0.7,0c-0.8,1-1.5,2.1-2.3,3.1c0.9-0.1,1.9-0.1,2.9-0.2
		c1-0.1,2-0.1,3-0.2c2.8-0.1,5.6-0.3,8.5-0.4c-0.1,0.2-0.3,0.3-0.4,0.5c-0.2,0.2-0.4,0.5-0.6,0.7l-0.1,0.1l-0.2,0.2l-0.1,0.2
		c0,0-0.5,0.8-3.5,4.8c-1.1,1.5-2.1,3-3.2,4.4c-0.7,1-1.4,1.9-2.1,2.9c-5.1,7.1-9.8,13.7-14,19.8c-1.1,1.6-2.2,3.1-3.2,4.6
		c-2.1,3.1-4.1,6-6,8.8c0-0.2,0-0.3,0-0.5c0-0.3,0-0.5,0-0.9c0-0.3,0.1-0.7,0.1-1.1c0.2-4.3,0.4-8.7,0.6-13.1c0-1,0.1-2,0.1-3
		c0-0.7,0.1-1.5,0.1-2.2c-0.5,0.8-1,1.5-1.6,2.3c-0.5,0.8-1.1,1.6-1.6,2.4c0,0.2,0,0.3,0,0.5c-0.2,4.4-0.4,8.8-0.6,13.1
		c0,0.6-0.1,1.3-0.1,2c0,0.7-0.1,1.5-0.1,2.3l-0.1,3.1v0.7c0,1.4,0,2.9,0.3,3.3C181.7,107.5,181.7,107.5,181.8,107.5z"/>
	<path class="st2" d="M66.5,223.2c4.4,8.4,8.2,17.3,11,26.3c0,0.1,0.1,0.2,0.1,0.3c0.2-0.4,0.4-0.7,0.6-1.1c0.1-0.2,0.2-0.4,0.3-0.5
		c0.3-0.5,0.6-1.1,0.9-1.6c-2.2-4.9-4.6-9.7-7.1-14.4c-1.4-2.5-2.8-4.9-4.3-7.3c1.5-1,3.1-1.6,4.7-2c1-0.2,2-0.3,3-0.3
		c0.1,0,0.1,0,0.2,0c0.5,0,1.1,0,1.6,0.1c1.1,0.1,2.2,0.4,3.3,0.7c2.1,0.7,4.1,1.7,6,3c1,0.7,1.9,1.4,2.7,2.2
		c0.4-0.8,0.9-1.6,1.3-2.4c0.1-0.1,0.1-0.2,0.2-0.3c-2.2-1.9-4.8-3.6-7.6-4.7c-1.1-0.4-2.2-0.8-3.4-1.1c-1.1-0.2-2.1-0.4-3.2-0.5
		c-0.3,0-0.7,0-1,0c-0.7,0-1.5,0.1-2.2,0.1c-0.4,0-0.7,0.1-1.1,0.2c0.5-0.4,0.9-0.8,1.4-1.1c1.3-0.9,2.8-1.7,4.2-2.1
		c1.2-0.4,2.4-0.6,3.5-0.6c0.2,0,0.3,0,0.5,0c-0.7-0.7-1.5-1.4-2.4-2c-0.3-0.2-0.6-0.5-0.9-0.7c-1,0.2-1.9,0.5-2.8,0.9
		c-3.5,1.4-6.6,3.9-8.7,6.9c1.1-4,2.9-7.8,5.6-10.8c-1.1-0.3-2.2-0.6-3.3-0.7c-0.8,1-1.5,2.1-2.2,3.3c0.1-1.2,0.3-2.3,0.6-3.4
		c-1.1,0-2.1,0.1-3.1,0.3c-0.6,3.1-0.7,6.2-0.4,9.3C65.1,220.5,65.8,221.8,66.5,223.2z"/>
	<path class="st2" d="M928.2,154.7c0.1-2.3,0.7-4.3,1.9-6.2v-4.7c-1,0.9-1.9,2-2.6,3.2c-1.1,1.9-1.9,3.9-2.2,6
		c0.6,0.5,1.3,0.9,2,1.3C927.7,154.4,927.9,154.5,928.2,154.7z"/>
	<path class="st2" d="M44.3,220.9c-3.3,1.2-6.1,3.9-7.9,7.1c-0.8,1.5-1.4,3.1-1.7,4.7c0.8-0.4,1.7-0.8,2.6-1.1
		c0.3-0.1,0.6-0.1,0.8-0.2c0.4-1.1,0.9-2.2,1.6-3.1c1.4-2.1,3.4-3.8,5.6-4.6c1.6-0.6,3.4-0.9,5.3-0.9c0.7,0,1.3,0,2,0.1
		c-2.1,0.7-4.2,1.6-6.1,2.7c-2.6,1.5-4.9,3.4-6.9,5.6c0.4-0.1,0.9-0.1,1.3-0.1c1-0.1,2,0,3,0.1c1.2-1,2.4-1.9,3.7-2.7
		c2-1.2,4.1-2.2,6.3-2.8c0.4-0.1,0.9-0.2,1.3-0.3c1.3-0.2,2.7-0.3,4-0.3c0.1,0,0.2,0,0.4,0c-0.4-1.3-0.9-2.7-1.3-4
		c-2.5-0.7-5.2-1.2-7.8-1.2C48.6,219.7,46.4,220.1,44.3,220.9z"/>
	<path class="st2" d="M891.9,153c-1.2-3.5-1.8-7.3-1.8-11.3h0c0-2.6,0.3-5,0.7-7.4c0.2-1,0.5-2,0.7-3c0.1-0.3,0.2-0.7,0.3-1v-12h-8
		v3h5v10v3V187H867h-0.2l-6-10h-3.3h-0.2l7.8,13h0.2h3.5h23.1V153z"/>
	<path class="st2" d="M416.9,261.4v2.4c1.1-0.1,2.1-0.2,3-0.5v-1.8h3.3c0.9-0.8,1.5-1.7,1.8-2.8c0-0.1,0-0.1,0.1-0.2
		c0,0-0.1,0-0.1,0c-0.4,0-0.9,0-1.3,0h-3.8h-3V261.4z"/>
	<path class="st2" d="M232.6,112.8C232.6,112.8,232.7,112.8,232.6,112.8l0.2,0c0.1,0,0.1,0,0.2-0.1c0,0,0.1,0,0.1-0.1
		c0.1,0,0.1-0.1,0.2-0.2l0.1-0.1l0.3-0.3c0.5-0.5,1-1.2,1.5-1.8c0.2-0.2,0.3-0.4,0.5-0.6l8.6-10.3l0.1-0.1l2-2.4l7.2-8.7l3.6-4.4
		l0.4-0.5l0.1-0.1l0.2-0.2c0.1-0.1,0.2-0.3,0.3-0.4c0.3-0.3,0.5-0.6,0.8-0.9c0.8-1,1.4-2,1.3-2.6c-0.1-0.4-0.7-0.6-1.4-0.7h-0.3
		c-0.2,0-0.4,0-0.5-0.1c-1-0.1-2-0.3-3-0.4c-0.5-0.1-1.1-0.1-1.6-0.2c-1.2-0.2-2.4-0.3-3.6-0.5c-0.5-0.1-1-0.1-1.5-0.2
		c0.1-1.6,0.4-3.8,0.8-6.2l-3.6,4.4c-0.1,0.6-0.1,1.1-0.2,1.6l-0.3,2.8l2.3,0.3L248,80c1,0.1,2.1,0.3,3.1,0.4
		c1.2,0.2,2.4,0.3,3.6,0.5c0.3,0,0.7,0.1,1,0.1l0,0l-0.1,0.1l-0.1,0.1l-0.1,0.1l-0.9,1.1L243,96.2l-0.9,1.1l-1.4,1.7l-3.8,4.5
		c0.3-1.6,0.6-3.3,0.9-4.8c0.2-1,0.4-2,0.5-3c0.1-0.6,0.2-1.1,0.3-1.7c0.4-2.1,0.7-3.9,0.9-5.4c0.1-0.7,0.2-1.4,0.3-1.9l0.3-2.9
		l-1.6-0.2l-2.1,2.6l-0.1,0.1c0.2,0,0.4,0,0.5,0.1c-0.2,1.4-0.5,3.7-1,6.3c-0.3,1.7-0.7,3.7-1,5.7c-0.4,2.4-0.9,4.9-1.4,7.4
		c-0.4,1.9-0.7,3.8-1.1,5.7c-0.1,0.6-0.1,1.1,0.2,1.3C232.6,112.8,232.6,112.8,232.6,112.8z"/>
	<path class="st2" d="M176.1,285.1c-1.5-0.1-2.9-0.1-4.3-0.1c-14.7,0-29.3,2.3-40.5,4.3c-2,0.4-3.9,0.8-5.8,1.1
		c-1.4,0.3-2.8,0.6-4.2,0.8c-1.1,0.2-2.2,0.4-3.6,0.7c-0.4,0.1-0.9,0.2-1.3,0.3c-0.5,0.1-1.2,0.3-1.5,0.4c-0.1,0-0.1,0-0.2-0.1
		c-0.5-0.2-1.1-0.4-2-0.4c-0.3,0-0.7,0-1,0.1c-10.4,2-20.9,4.6-31.1,7.5c-1.6,0.4-3.2,0.9-4.7,1.4c-1.2,0.3-2.4,0.7-3.6,1.1
		c-1,0.3-2.1,0.6-3.1,0.9c-1.7,0.5-3.3,1-5,1.5c-0.5,0.2-1,0.3-1.5,0.5c-0.5,0.1-0.9,0.3-1.4,0.4c-1.3,0.4-2.5,0.8-3.7,1.2
		c0.1-0.1,0.1-0.2,0.2-0.3c0.1-0.1,0.2-0.2,0.3-0.4c0.4-0.5,0.9-1,1.3-1.7l0.1-0.2c0.2-0.3,0.3-0.5,0.4-0.8c0.4-0.9,0.4-1.7,0-2.8
		c0-0.1-0.1-0.2-0.1-0.4c-0.5-2-1.3-4-2.3-5.9c-0.7,0.2-1.4,0.4-2.1,0.6c-0.2,0.1-0.5,0.1-0.7,0.2c-0.1,0-0.1,0-0.2,0
		c1,1.9,1.8,3.8,2.3,5.7c0.3,1.2,0.4,0.9-0.2,2c-0.3,0.5-0.9,1.1-1.3,1.6c-0.9,1.1-1.8,2.1-2.7,3.2c-0.6,0.7-4.5,4.5-3.9,5.1
		c0,0,0.1,0,0.1,0c1,0,6.7-2.4,7.5-2.7c2-0.7,4.1-1.3,6.1-2c0.3-0.1,0.6-0.2,0.8-0.3c0.7-0.2,1.4-0.4,2.1-0.6
		c1.9-0.6,3.7-1.1,5.6-1.7c2.1-0.6,4.3-1.3,6.4-1.9c11.4-3.3,23-6.3,34.6-8.5c0.1,0,0.3,0,0.4,0c0.7,0,1.3,0.5,2.1,0.5c0,0,0,0,0,0
		c1.1,0,2.5-0.5,3.6-0.8c1.2-0.3,2.4-0.5,3.6-0.7c3.3-0.6,6.6-1.3,10-2c13.2-2.4,26.5-4.3,39.9-4.3c0.5,0,0.9,0,1.4,0
		C173.9,287.4,175,286.3,176.1,285.1z"/>
	<path class="st2" d="M7.6,270c0.3-0.3,0.5-0.6,0.8-0.8c-0.1-0.6-0.2-1.1-0.3-1.7C8.1,268.4,8,269.4,7.6,270z"/>
	<path class="st2" d="M457.8,214.1c0.1,1,0.2,2.1,0.2,3.2c0,0.2,0,0.4,0,0.6c2.2,1.9,3.7,4.4,4.4,7.3c0.3,1.1,0.5,2.3,0.5,3.6
		c0,0.5,0,0.9,0,1.4c0,3.9-1.1,7.2-3.1,9.8c-1.2,1.5-2.6,2.7-4.3,3.8c0.2,0.3,0.5,0.5,0.7,0.8c0.4,0.5,0.8,1,1.1,1.6
		c1.9-1.2,3.5-2.6,4.8-4.3c2.4-3,3.7-6.7,3.8-11.1c0-0.2,0-0.4,0-0.6c0-1.1-0.1-2.2-0.2-3.2C465.1,221.4,462.4,217.1,457.8,214.1z"
		/>
	<path class="st2" d="M423.2,228h-3.3h-3v3v0.6c2-0.2,3.6-0.8,4.8-1.8C422.3,229.3,422.8,228.7,423.2,228z"/>
	<path class="st2" d="M247.5,62.5l-0.1,0.6c-0.1,0.6-0.2,1.2-0.3,1.8c1,0.1,2,0.3,3,0.4c0.1-0.9,0.3-1.9,0.4-2.8l0.4-3.1
		c0-0.2,0.1-0.4,0.1-0.7c0-0.3,0.1-0.5,0.1-0.8c0.1-0.7,0.3-1.4,0.3-2c0-0.5,0-1-0.1-1.1l-0.1-0.1H251c-0.1,0-0.1,0.1-0.2,0.1h-0.1
		c-0.1,0-0.1,0.1-0.2,0.2h-0.1c-0.1,0.1-0.2,0.2-0.4,0.3c-0.5,0.5-1.2,1.2-1.7,1.8c-0.2,0.2-0.4,0.5-0.6,0.7l-5.8,6.4l0,0
		c1.2,0.2,2.4,0.3,3.6,0.5L247.5,62.5z"/>
	<path class="st2" d="M608.9,209.7h5v10v3v12.7h-23.5h-3v3v58.5h-25h-3h-5v-10h-3v13h8h3h28v-61.5h23.5c0.2-5.4,1.2-10.4,3-15v-0.7
		v-3v-13h-8V209.7z"/>
	<polygon class="st2" points="507.8,209.7 512.8,209.7 512.8,219.7 512.8,222.7 512.8,296.9 487.8,296.9 484.8,296.9 479.8,296.9 
		479.8,286.9 476.8,286.9 476.8,299.9 484.8,299.9 487.8,299.9 515.8,299.9 515.8,222.7 515.8,219.7 515.8,206.7 507.8,206.7 	"/>
	<path class="st2" d="M8.1,264.1c0,0.2,0,0.5,0,0.8c0-0.7,0.1-1.3,0.2-2C8.2,263.3,8.1,263.7,8.1,264.1z"/>
	<path class="st2" d="M54.3,250.4c0.9-0.1,1.7-0.2,2.6-0.2c1,0,1.9,0.1,2.9,0.3c-1.3-2.7-2.6-4.8-5.6-5.9c-0.7-0.2-1.4-0.4-2.1-0.5
		c-0.7-0.1-1.4-0.2-2.1-0.2c-0.7,0-1.5,0.1-2.2,0.2c-0.5,0.1-1,0.2-1.5,0.3c0.4,0,0.7,0.1,1.1,0.2c0.6,0.1,1.3,0.3,1.9,0.6
		c0.4,0.2,0.8,0.3,1.1,0.6c0.7,0.4,1.4,0.9,1.9,1.5c0.3,0.1,0.6,0.1,0.8,0.2c0.1,0,0.2,0.1,0.3,0.1c-0.2,0-0.4,0.1-0.7,0.1
		C53.5,248.5,54,249.4,54.3,250.4z"/>
	<polygon class="st2" points="960.5,209.7 965.5,209.7 965.5,219.7 965.5,222.7 965.5,296.9 935.5,296.9 935.3,296.9 929.3,286.9 
		926,286.9 925.8,286.9 933.6,299.9 933.8,299.9 937.3,299.9 968.5,299.9 968.5,222.7 968.5,219.7 968.5,206.7 960.5,206.7 	"/>
	<path class="st2" d="M315.9,222c1-0.3,2.1-0.5,3.1-0.6c0.1-0.9,0.2-1.8,0.2-2.6c0-0.4,0-0.8,0-1.2c-0.3,0.1-0.6,0.3-1,0.4
		c-0.7,0.3-1.4,0.7-2.1,1.2C316.1,220.1,316,221.1,315.9,222z"/>
	<path class="st2" d="M574.6,152.5c0.2-1.3,0.6-2.4,1.2-3.4c1-1.7,2.3-3,4-4c1.7-1,3.6-1.5,5.6-1.5c1,0,2,0.1,3,0.4
		c0.1-0.7,0.2-1.4,0.2-2.2c0-0.3,0-0.6-0.1-0.8c-1-0.2-2.1-0.4-3.1-0.4c-2.6,0-5,0.6-7.1,1.9c-2.1,1.3-3.8,2.9-5.1,5.1l0,0l0,0
		c-0.6,1.1-1.1,2.4-1.4,3.7c0,0,0.1,0.1,0.1,0.1C572.8,151.9,573.7,152.3,574.6,152.5z"/>
	<path class="st2" d="M327.8,221.5c2.2-2,4.6-3.4,7.2-4c0.7-0.2,1.4-0.2,2.1-0.3c-2-0.7-4.2-1.1-6.4-1.3c-2.3,1.1-4.3,2.7-6.1,4.6
		c-0.2,0.2-0.4,0.4-0.5,0.6c0.3,0,0.6,0,0.9,0.1C325.9,221.2,326.9,221.3,327.8,221.5z"/>
	<path class="st2" d="M498,152v-9.3h0.5c2.2,0,4.1,0.3,5.9,0.8c0.1-0.6,0.1-1.2,0.1-1.8c0-0.4,0-0.9-0.1-1.3
		c-1.8-0.5-3.7-0.7-5.9-0.7H498h-3v3v10.4c1-0.2,1.9-0.5,2.7-0.9C497.8,152.2,497.9,152.1,498,152z"/>
	<path class="st2" d="M535,173.1c3.5-5.1,5.4-11,5.6-17.7c-1.2-2.7-2.1-5.6-2.6-8.6c-0.2-1.5-0.4-3.1-0.4-4.7c0-0.4,0-0.8,0-1.2
		c0-0.4,0-0.8,0-1.1c-0.7-1.5-1.6-3-2.5-4.5c-1.2-1.7-2.5-3.3-4-4.8c0.6,2,1.1,4.1,1.3,6.2c0.1,0.1,0.1,0.2,0.2,0.3
		c0.5,0.7,1,1.5,1.4,2.3c1,1.8,1.8,3.8,2.4,5.8c0.8,2.8,1.3,5.9,1.3,9.1c0,6.5-1.7,12.3-5.1,17.2c-3.4,5-8.1,8.8-14.1,11.5
		c-6.1,2.7-13,4.1-20.6,4.1H479h-3h-5v-10h-3v13h8h3h18.9c8.1,0,15.4-1.5,21.8-4.4C526.2,182.7,531.3,178.5,535,173.1z"/>
	<path class="st2" d="M313.1,222.8c-0.2-0.3-0.3-0.7-0.5-1c-0.6,0.5-1.1,1-1.7,1.6c-0.1,0.1-0.2,0.2-0.3,0.3
		c0.2-0.1,0.3-0.1,0.5-0.2C311.8,223.3,312.5,223,313.1,222.8z"/>
	<polygon class="st2" points="417.6,150.3 417.5,150.7 417.7,150.7 	"/>
	<path class="st2" d="M662.2,136.7h-2.7v2.1c0.6-0.3,1.2-0.6,1.7-1C661.6,137.5,661.9,137.1,662.2,136.7z"/>
	<polygon class="st2" points="906.7,258.5 906.7,260.7 906.7,296.9 884.6,296.9 881.6,296.9 876.6,296.9 876.6,286.9 873.6,286.9 
		873.6,299.9 881.6,299.9 884.6,299.9 909.7,299.9 909.7,260.7 909.8,260.7 908.3,258 	"/>
	<path class="st2" d="M51.5,265c1.4,0,2.9,0.2,4.3,0.6c2.7,0.7,5.2,2,7.1,3.9c0.3-2,0.2-4.2-0.5-6.1c-0.4-1-0.9-2-1.5-2.8
		c-0.1-0.2-0.3-0.3-0.4-0.5c-0.8-0.9-1.8-1.6-3.1-2.1c-1-0.4-2-0.6-3-0.7c-0.5-0.1-0.9-0.1-1.4-0.1c-3.9,0-7.7,1.8-10.3,4.8
		c0.9,0.8,1.8,1.7,2.6,2.4c0.1,0.1,0.1,0.1,0.2,0.2c0.4,0.3,0.7,0.7,1.1,1c0.6-0.2,1.3-0.4,2-0.5c0.9-0.2,1.8-0.2,2.8-0.2
		C51.3,265,51.4,265,51.5,265z M46.6,262.5C46.5,262.5,46.5,262.5,46.6,262.5C46.5,262.5,46.6,262.5,46.6,262.5
		c1.9-1.4,4.1-2.3,6.3-2.3c0.5,0,1.1,0,1.6,0.1c0.6,0.1,1.2,0.3,1.7,0.5c0.4,0.2,0.8,0.4,1.2,0.7c0.7,0.5,1.3,1.2,1.7,2
		c-1.2-0.5-2.5-0.9-3.8-1.2c-1.3-0.3-2.7-0.4-4.1-0.4c0,0,0,0,0,0C49.6,262,48,262.2,46.6,262.5z"/>
	<polygon class="st2" points="854.1,209.7 859.1,209.7 859.1,219.7 859.1,222.7 859.1,296.9 834.1,296.9 831.1,296.9 826.1,296.9 
		826.1,286.9 823.1,286.9 823.1,299.9 831.1,299.9 834.1,299.9 862.1,299.9 862.1,222.7 862.1,219.7 862.1,206.7 854.1,206.7 	"/>
	<path class="st2" d="M965.2,131.9v3.1v7.4c-1.3-0.4-2.6-0.8-4.1-1.2v3.1c2.7,0.8,5.1,1.5,7.1,2.3v-10.8v-3.1v-9.7
		c-2.1-1.3-4.8-2.4-8-3.3v3.1c1.9,0.6,3.6,1.3,5,2V131.9z"/>
	<path class="st2" d="M344.3,238.8c-1-0.9-2.2-1.8-3.5-2.5c0,0.9,0,1.8-0.1,2.8c0,0.2-0.1,0.4-0.1,0.6c1,0.6,1.8,1.4,2.5,2.2
		c1.1,1.3,1.9,2.8,2.3,4.5c0.1,0.5,0.2,1.1,0.3,1.6c0.1,1,0.1,2.1,0,3.2c-0.1,0.6-0.1,1.2-0.3,1.8c-0.4-0.8-0.8-1.6-1.2-2.3
		c-0.8-1.3-1.6-2.5-2.6-3.6c-0.8-0.9-1.6-1.7-2.5-2.5c-0.3,0.8-0.7,1.6-1.2,2.4c-0.1,0.1-0.1,0.3-0.2,0.4c0.9,0.8,1.7,1.7,2.4,2.6
		c1.1,1.4,2,2.9,2.7,4.5c0.7,1.5,1.2,3.1,1.6,4.7c0.2,0.9,0.3,1.7,0.4,2.6c0.3-0.5,0.6-1,0.9-1.4c0.5-0.9,1-1.9,1.4-2.8
		c0.7-1.6,1.1-3.3,1.4-5c0.2-1.1,0.3-2.3,0.2-3.4c-0.1-2.6-0.7-5.2-2.1-7.4C346.1,240.8,345.3,239.8,344.3,238.8z"/>
	<path class="st2" d="M309.5,300.4c-0.6-0.1-1.3-0.1-1.9-0.2c-0.7-0.1-1.4-0.1-2.1-0.2c0.5,0.7,1,1.3,1.5,2c0.3,0.4,0.6,0.7,0.9,1.1
		c1.9,2.4,3.8,4.7,5.7,6.9c-0.8-0.1-1.7-0.1-2.5-0.2c-8.8-0.7-17.9-1.3-27.4-1.8c-4-0.2-8-0.4-12.2-0.6c0.4-0.3,0.7-0.6,1-0.9
		l0.1-0.1c0.5-0.4,1-0.9,1.5-1.4c1.4-1.4,2.8-3.2,3.1-5.5c0.1-0.5,0-0.9,0-1.4c-1-0.1-2.1-0.1-3.1-0.2c0.1,0.3,0.2,0.7,0.1,1.2
		c-0.2,2-2.3,3.9-3.7,5.1c-0.2,0.2-0.4,0.3-0.6,0.5c-1.2,1-2.4,2-3.7,2.9c-1.2,0.8-2.3,1.6-3.5,2.3c6.5,0.3,12.9,0.6,19.4,1
		c1,0.1,2.1,0.1,3.1,0.2c9.4,0.5,18.9,1.2,28.3,1.9c1.3,0.1,2.7,0.2,4,0.3c1.1,0.1,2.1,0.2,3.2,0.2c-3.5-3.8-6.8-7.7-10-11.8
		C310.3,301.3,309.9,300.9,309.5,300.4z"/>
	<polygon class="st2" points="855.9,134.6 856,134.5 854.1,131.3 846.2,118.3 846.1,118.3 853.9,131.3 	"/>
	<path class="st2" d="M703.1,278.9l-0.1-16.3v0c-2.5,1.3-5.1,2.4-7.9,3.3l0,3.1c1.7-0.5,3.3-1.1,4.9-1.8l0.1,12.5l0,3.1l0.1,11.3
		c-2.7,1.1-5.9,2.1-9.7,2.9c-4.9,1-9.6,1.4-14.5,1.4c-9.9,0-18.8-2-26.4-5.9c-5.5-2.8-10.1-6.3-14-10.6c-1.4-1.6-2.7-3.2-3.9-5
		c-0.3-0.3-0.6-0.5-1-0.8c-2.1-1.7-4-3.6-5.8-5.6c1,2.6,2.3,5,3.8,7.4c1.3,2,2.7,3.8,4.2,5.6c2,2.3,4.2,4.5,6.7,6.4
		c2.6,2,5.4,3.8,8.5,5.3c8.2,4.2,17.5,6.2,27.8,6.2c5.1,0,10.1-0.5,15.1-1.5c4.9-1,8.9-2.3,12.1-3.9l-0.1-14L703.1,278.9z"/>
	<path class="st2" d="M468.2,266.8c-0.5-2.8-1.4-5.3-2.8-7.5c-0.3-0.5-0.7-1.1-1.1-1.6c-0.2-0.3-0.5-0.5-0.7-0.8
		c-1-1.1-2.1-2.1-3.4-3.1c0.2,1.3,0.3,2.8,0.4,4.3c0.1,0.1,0.2,0.2,0.3,0.3c0.4,0.4,0.8,0.8,1.1,1.2c0.3,0.4,0.6,0.8,0.8,1.2
		c0.7,1.1,1.3,2.4,1.8,3.7c0.4,1.2,0.7,2.6,0.8,4c0.1,0.9,0.2,1.9,0.2,2.9c0,9.4-3.6,15.7-11.1,19.3l0,0l0,0
		c-8.1,4-18.5,6.1-31.1,6.1h-30.6h-3h-5v-10h-3v13h8h3h30.6c13,0,23.8-2.1,32.4-6.4c8.6-4.1,12.8-11.4,12.8-22c0-0.1,0-0.2,0-0.3
		C468.6,269.6,468.5,268.1,468.2,266.8z"/>
	<polygon class="st2" points="791.1,190 810.1,190 810.1,134.3 810.1,131.3 810.1,118.3 802.1,118.3 802.1,121.3 807.1,121.3 
		807.1,131.3 807.1,134.3 807.1,187 791.1,187 788.1,187 783.1,187 783.1,177 780.1,177 780.1,190 788.1,190 	"/>
	<polygon class="st2" points="830,190 846.8,190 846.8,159.9 846.8,159.9 845.3,157.3 843.8,158 843.8,159.9 843.8,187 830,187 
		827,187 822,187 822,177 819,177 819,190 827,190 	"/>
	<path class="st2" d="M643.3,190h19v-17.7h0.9c6.5,0,12.3-1,17.5-2.9c5.2-1.9,9.3-4.9,12.4-9c3.1-4.1,4.6-9.2,4.6-15.3
		c0-0.4,0-0.9,0-1.3c-0.1-1.6-0.2-3.1-0.5-4.6c-0.7-3.6-2.2-6.8-4.4-9.5c-1.1-1.3-2.3-2.4-3.6-3.5c0.3,1.5,0.5,3,0.5,4.6
		c0.3,0.3,0.5,0.6,0.8,0.8c1.2,1.4,2.2,3.1,2.9,4.9c0.5,1.3,0.9,2.8,1.1,4.3c0.2,1.3,0.3,2.7,0.3,4.2c0,5.5-1.3,9.9-4,13.5
		c-2.8,3.7-6.4,6.3-11,8c-0.9,0.3-1.7,0.6-2.6,0.8c-1.8,0.5-3.8,1-5.7,1.3c-2.6,0.4-5.3,0.6-8.1,0.6h-0.9h-3v3V187h-16h-3h-5v-10
		h-2.5h-0.5v1.7V190h8H643.3z"/>
	<polygon class="st2" points="396.3,190 410,190 412.3,181.3 430.1,181.3 432.3,190 464,190 464.1,190 442,131.3 437.1,118.3 
		434,118.3 438.9,131.3 440,134.3 456.1,177 456,177 459.8,187 434.6,187 433,180.6 432.8,179.7 432.4,178.3 430.1,178.3 
		422.5,178.3 412.3,178.3 410,178.3 409.4,180.5 407.7,187 397.4,187 394.2,187 384.5,187 388.3,177 385.1,177 380.2,190 393.1,190 
			"/>
	<path class="st2" d="M334.9,241.6c-0.4-0.2-0.7-0.4-1.1-0.6c-0.8-0.4-1.6-0.8-2.4-1.1c-1-0.4-1.9-0.7-3-1c-0.7-0.2-1.4-0.3-2.1-0.5
		c-0.8-0.1-1.6-0.3-2.4-0.3c0.9-0.2,1.7-0.4,2.5-0.6c1.1-0.2,2.1-0.3,3.1-0.4c0.6,0,1.1-0.1,1.6-0.1c0.3,0,0.6,0,0.9,0
		c-0.4-0.6-0.9-1.1-1.4-1.6c-0.4-0.5-0.9-0.9-1.4-1.4c-0.8,0.1-1.7,0.2-2.5,0.3c-1,0.2-2.1,0.4-3.1,0.6c-0.9,0.2-1.8,0.5-2.7,0.8
		c-0.8,0.3-1.6,0.6-2.4,0.9c0.6-0.7,1.3-1.3,1.9-1.9c1.1-1,2.3-1.9,3.5-2.6c0.5-0.3,1-0.6,1.5-0.9c-0.5-0.3-1-0.5-1.5-0.8
		c-0.6-0.3-1.2-0.5-1.8-0.8c-0.4,0.2-0.8,0.5-1.1,0.7c0.2-0.3,0.4-0.7,0.5-1c-1-0.4-1.9-0.7-2.9-0.9c-0.3,0.6-0.6,1.2-0.9,1.8
		c-0.5,1.1-1,2.1-1.4,3.2c0,0,0,0,0,0.1c0,0,0-0.1,0-0.1c0.3-1.3,0.6-2.6,0.9-3.9c0.1-0.4,0.2-0.8,0.3-1.3c-0.5-0.1-1-0.2-1.5-0.2
		c-1.4-0.2-2.9-0.2-4.3-0.2c0,0-0.1,0-0.1,0c0.5,1.9,0.9,3.9,1.1,5.8c-0.9-1.8-2.2-3.8-3.8-5.6c-1.2,0.2-2.1,0.4-3,1.2
		c0.4,0.5,0.8,0.9,1.2,1.4c-0.6-0.3-1.2-0.5-1.8-0.8c-0.1,0.1-0.1,0.2-0.2,0.2c-0.6,0.7-1.1,1.5-1.7,2.3c1.3,0.4,2.6,1,3.8,1.7
		c1.8,1,3.3,2.4,4.6,4c-0.4,0.4-0.9,0.7-1.3,1.1c-0.9,0.8-1.8,1.5-2.6,2.4c-0.9,0.9-1.8,1.9-2.7,2.8c-4.7,5.3-8.5,11.6-11,18.2
		c-0.2,3.2-0.2,6.5,0.1,9.8c0,0.1,0,0.2,0,0.3c2.1-9.7,6.6-18.7,12.7-25.9c-1.5,2.6-2.8,5.7-4.2,9.5c-3,8.8-4.2,18.1-3.6,28.1
		c0.1,0.1,0.1,0.2,0.2,0.3c0.6,0.7,1.1,1.5,1.7,2.2c0.2,0.3,0.4,0.5,0.6,0.8c0.2,0.3,0.5,0.6,0.8,0.9c-0.1-1-0.1-2-0.2-3
		c0-0.1,0-0.2,0-0.3c-0.2-3.3-0.2-6.6-0.1-9.8c0.3-6.2,1.5-12.2,3.5-18.2c1.1-3.2,2.4-6.4,4.1-9.3c0.5-0.9,1.1-1.8,1.7-2.7
		c0.5-0.8,1.1-1.5,1.7-2.3c0.1-0.1,0.1-0.2,0.2-0.2c0.2-0.2,0.4-0.4,0.6-0.6c0.9-0.8,1.8-1,3-1.2c0.4-0.1,0.9-0.1,1.5-0.2
		c0.4,0,0.8-0.1,1.2-0.1c0.4,0,0.8,0,1.2,0c1.6,0,3.1,0.2,4.6,0.4c0.4,0.1,0.8,0.2,1.1,0.3c1,0.2,2,0.5,2.9,0.9
		c0.2,0.1,0.4,0.2,0.6,0.2c1.1,0.4,2.2,1,3.2,1.6c1,0.6,1.9,1.3,2.8,2c-0.2-1-0.5-2-0.8-2.9C335.4,242.8,335.2,242.2,334.9,241.6z"
		/>
	<path class="st2" d="M128.5,99.5c0.1,1.2,0.1,2.5,0.2,3.7c0.1,2.4,0.3,4.8,0.4,7.1c0.2,0.4,0.2,0.6,0.3,0.8v1.6
		c0.1,0.9,0.2,1.9,0.4,2.1h0.1c0.1,0,0.1,0,0.2-0.1c0.1-0.1,0.2-0.2,0.2-0.3v-0.1c0.1-0.1,0.2-0.3,0.3-0.4c0.1-0.2,0.2-0.3,0.3-0.5
		l0.7-1.4c1.4-2.6,2.9-5.3,4.5-8.1c0.7-1.2,1.3-2.4,2-3.6c1.7-3,3.4-6.1,5.2-9.1c0.9-1.6,1.8-3.1,2.7-4.7c0.6-1.1,1.3-2.2,1.9-3.2
		c1.6-2.8,1.9-3.2,1.9-3.2s0.1-0.1,0.1-0.2c0.2-0.3,0.4-0.7,0.7-1.1c0.5-0.8,1.1-1.6,1.3-2.2c0.1-0.2,0.2-0.5,0.1-0.6v-0.1
		c-0.2-0.2-0.7-0.2-1.2-0.2h-0.6l-1.2,0.2c-1.2,0.2-2.3,0.3-3.5,0.5c-1,0.1-2,0.3-3,0.4c-0.1,0-0.1,0-0.2,0
		c-1.3,0.2-2.6,0.4-3.9,0.6c-0.1,0-0.2,0-0.3,0c-0.1-1.3-0.1-2.6-0.2-4c-0.9,1.6-1.8,3.2-2.8,4.8l0.1,2.7l1.1-0.2l2.2-0.4
		c0.5-0.1,1.1-0.2,1.6-0.3c0.8-0.1,1.5-0.3,2.3-0.4c1-0.1,2-0.3,3-0.4c0.4-0.1,0.8-0.1,1.2-0.2c-0.3,0.5-0.7,1.2-1.1,1.8
		c-0.1,0.2-0.3,0.5-0.4,0.7c-0.8,1.3-1.6,2.7-2.4,4c-2.7,4.6-5.4,9.2-7.9,13.7c-0.6,1.1-1.2,2.1-1.8,3.2c-0.5,0.9-1,1.8-1.5,2.7
		c0-0.8-0.1-1.7-0.1-2.5c-0.1-1-0.1-2-0.2-3c0-0.1,0-0.3,0-0.4c0-1.3-0.1-2.5-0.2-3.8c-0.1-1.8-0.2-3.6-0.3-5.4c0-0.3,0-0.6-0.1-0.9
		l-0.2-3l-0.1,0c-0.9,1.6-1.7,3.1-2.6,4.6c0.1,1.3,0.2,2.6,0.2,3.9C128.4,96.4,128.5,97.9,128.5,99.5z"/>
	<path class="st2" d="M40.5,271.7c-2.4-3.7-5-7.3-7.7-10.7c-1.3-1.6-1.9-2.6-4.1-2.6c-0.2,0-0.4,0-0.6,0c1,0.9,1.9,1.9,2.8,2.9
		c-2.7-1.2-5.6-1.8-8.5-1.9c-1.1,0.4-2.2,0.9-3.2,1.5c-1,0.7-2,1.5-2.8,2.4c1.6-0.6,3.4-1,5.3-1c0.2,0,0.4,0,0.5,0
		c2.4,0.1,4.8,0.6,7.1,1.5c2.3,0.9,4.4,2.3,6.2,4.1c-2.5-1.2-5.3-2.1-8-2.1c-1.9,0-3.8,0.4-5.5,1.4c-2.7,1.5-4.3,3.8-5.2,6.5
		c-0.2,0.6-0.4,1.3-0.5,2c-0.1,0.7-0.2,1.3-0.2,2c0,0.8,0,1.7,0.1,2.5c0.1,0.6,0.1,1.1,0.3,1.7c0.4,2.2,1.2,4.3,2.4,6
		c0.7-4.2,2.5-8.6,5.6-11.7c0.9-0.9,1.8-1.7,2.8-2.4c1-0.6,2.1-1.2,3.2-1.5c1.3-0.4,2.6-0.7,3.9-0.9c0.6-0.1,1.2-0.1,1.9-0.1
		c0.2,0,0.4,0,0.6,0c0,0,0,0,0.1,0c2.2,0,2.7,0.9,4,2.6c1.9,2.3,3.7,4.7,5.4,7.1c-1.2-2.2-2.5-4.2-3.6-6.2
		C41.9,273.9,41.2,272.8,40.5,271.7z M19.4,275.7c0.1-0.3,0.2-0.6,0.3-0.9c0.6-1.6,1.6-3.5,3.8-4.8c1.2-0.7,2.5-1,4-1
		c0.9,0,1.9,0.1,2.8,0.4c-1.8,0.5-3.4,1.2-4.8,2.2c-1,0.7-2,1.5-2.9,2.4c-1.4,1.4-2.6,3-3.6,4.7C19,277.6,19.2,276.6,19.4,275.7z"/>
	<path class="st2" d="M355.3,231.2c0-0.4-0.1-0.8-0.2-1.3c-0.2-1.2-0.5-2.3-0.8-3.4c-1.1-3.4-3.3-6.7-6.2-8.9
		c-0.3-0.2-0.6-0.5-1-0.7c0.1,0.4,0.1,0.8,0.2,1.3c0.1,0.6,0.3,1.8,0.3,3c1.7,1.7,3.1,3.9,3.8,6.2c0.1,0.3,0.2,0.6,0.2,0.8
		c0.2,0.7,0.4,1.4,0.5,2.1c-2.1-1.3-4.4-2.4-6.7-3.1c-2.8-0.9-5.7-1.4-8.6-1.4c-0.2,0-0.3,0-0.5,0c1,0.9,1.8,1.9,2.4,3c0,0,0,0,0,0
		c2.2,0.2,4.3,0.6,6.3,1.3c3.8,1.3,7.4,3.6,10.2,6.6c0.4-0.4,0.4-1.5,0.3-2.6C355.6,233,355.4,231.8,355.3,231.2z"/>
	<path class="st2" d="M811.7,236c-1-2.4-2.2-4.8-3.6-7.1c-1.3-2.1-2.8-4-4.4-5.9c1,2.4,1.8,4.9,2.3,7.5c0.1,0.4,0.1,0.7,0.2,1.1
		c1.2,2,2.1,4,2.9,6.1c1.9,4.9,2.9,10,2.9,15.6c0,8.4-2.2,16.1-6.5,22.8c-4.3,6.8-10.2,12.2-17.9,16.3c-7.7,4-16.1,6-25.4,6
		c-9.4,0-17.7-2-25.4-6c-5.4-2.8-9.9-6.3-13.6-10.6c-1.3-1.5-2.6-3.1-3.7-4.8c-0.4-0.3-0.8-0.6-1.2-0.9c-2.1-1.7-4-3.6-5.7-5.6
		c1,2.5,2.2,4.9,3.7,7.2c1.3,2,2.7,4,4.3,5.8c2.1,2.4,4.3,4.6,6.9,6.6c2.4,1.9,5.1,3.6,7.9,5.1c8.1,4.2,17,6.3,26.8,6.3
		s18.7-2.1,26.8-6.3c8-4.3,14.4-10,19.1-17.4c4.7-7.3,7-15.5,7-24.4c0-3-0.3-5.9-0.8-8.7C813.7,241.7,812.8,238.8,811.7,236z"/>
	<path class="st2" d="M87.2,218c0.3,0.2,0.6,0.5,0.8,0.8c1.7,1.7,2.7,4.2,3.2,6.8c0.7-1.3,1.4-2.7,2-4c-0.5-1.3-1.1-2.5-1.9-3.6
		c-0.7-0.9-1.4-1.7-2.3-2.4c-0.1-0.1-0.2-0.1-0.2-0.2c-0.8-0.6-1.5-1-2.4-1.4c0.1,0.7,0.1,1.4,0.1,2c0,0.4,0,0.9-0.1,1.3
		C86.7,217.6,86.9,217.8,87.2,218z"/>
	<polygon class="st2" points="733.7,190 752.7,190 752.7,142.7 772.1,142.7 772.1,134.3 772.1,131.3 772.1,118.3 765.1,118.3 
		765.1,121.3 770.1,121.3 770.1,131.3 770.1,134.3 770.1,139.7 752.7,139.7 749.7,139.7 749.7,142.7 749.7,187 733.7,187 730.7,187 
		725.7,187 725.7,177 722.7,177 722.7,190 730.7,190 	"/>
	<polygon class="st2" points="533,235.4 528,235.4 528,225.4 525,225.4 525,238.4 533,238.4 536,238.4 543.4,238.4 543.4,235.4 
		536,235.4 	"/>
</g>
</svg>
