<svg width="1049" height="330" viewBox="0 0 1049 330" fill="none" xmlns="http://www.w3.org/2000/svg">
<path fill-rule="evenodd" clip-rule="evenodd" d="M155.3 54.9C155.3 54.6 155.7 53.8 156.2 53C156.6 52.4 157.1 51.8 157.5 51.2C157.7 51 157.8 50.7999 158 50.5999L159.9 47.9C160.7 46.8 163.6 42.8 165.3 40.5C166 39.6 166.5 38.9 166.6 38.7C166.9 38.3 167.1 37.9999 167.4 37.5999C167.6 37.3999 167.7 37.1 167.9 36.9C168.3 36.4 168.7 35.8 169.1 35.2L169.3 34.9L169.5 34.5999C169.5 34.5999 181.8 17.6 188.4 8.79995C188.6 8.49995 188.9 8.09995 189.1 7.79995L191.4 4.69995C191.5 4.49995 191.7 4.29995 191.8 4.19995C192 3.99995 192.2 3.69995 192.4 3.49995C192.5 3.29995 192.6 3.19995 192.8 2.99995C192.8 2.99995 192.8 2.99995 192.9 2.89995L193 2.79995C193.1 2.69995 193.2 2.59995 193.2 2.49995C193.2 2.49995 193.2 2.39995 193.3 2.39995C193.3 2.39995 193.3 2.39995 193.4 2.29995C193.5 2.19995 193.5 2.09995 193.6 1.99995L193.7 1.89995C193.7 1.89995 193.7 1.89995 193.8 1.79995L193.9 1.69995L194 1.59995L194.1 1.49995C194.1 1.49995 194.2 1.49995 194.2 1.39995C194.2 1.39995 194.2 1.39995 194.3 1.39995C194.3 1.39995 194.3 1.39995 194.4 1.39995L194.5 1.29995H194.6L194.7 1.19995H194.8H194.9C195 1.19995 195 1.29995 195.1 1.29995C195.4 1.69995 195.4 3.09995 195.3 4.09995V4.19995C195.3 4.29995 195.3 4.29995 195.3 4.29995L195.2 6.99995C195.1 9.79995 194.9 12.7 194.8 15.7C194.5 23 194.1 30.6999 193.8 37.5999C199.4 37.1999 205.4 36.9 211.1 36.7L213.1 36.5999C213.2 36.5999 213.2 36.5999 213.3 36.5999C213.5 36.5999 213.8 36.5999 214.1 36.5999C214.2 36.5999 214.2 36.5999 214.3 36.5999H214.4C214.4 36.5999 214.4 36.5999 214.5 36.5999H214.6C214.7 36.5999 214.8 36.5999 214.8 36.5999C214.9 36.5999 215 36.5999 215.1 36.5999C215.1 36.5999 215.1 36.5999 215.2 36.5999H215.3C215.4 36.5999 215.4 36.5999 215.5 36.5999C215.6 36.5999 215.7 36.7 215.7 36.7C215.7 36.7 215.7 36.7 215.8 36.7H215.9C216 36.8 216.1 36.9 216.1 37C216.1 37.3 216 37.6 215.8 38C215.3 38.9 214.4 40.0999 213.4 41.2999C213 41.7999 212.5 42.4 212.1 42.9L212 43L211.9 43.0999C211.9 43.0999 211.4 43.8 208.4 47.9C198.3 61.8 186.9 77.8 178.1 91L176.7 93.1C176.7 93.2 176.6 93.2 176.6 93.3C176.6 93.4 176.5 93.4 176.5 93.5C176.5 93.6 176.4 93.6 176.4 93.7C176.3 93.8 176.3 93.9 176.2 94C176.2 94.1 176.1 94.1 176.1 94.2V94.3C176.1 94.4 176 94.4 176 94.5V94.6L175.9 94.7C175.8 94.8 175.8 94.8 175.7 94.9C175.7 94.9 175.7 95 175.6 95C175.5 95.1 175.5 95.1 175.4 95.2C175.4 95.2 175.4 95.2 175.3 95.3C175.2 95.4 175.2 95.4 175.1 95.4C175.1 95.4 175.1 95.4 175 95.4C174.9 95.4 174.9 95.5 174.8 95.5C174.7 95.5 174.7 95.5 174.6 95.4C174.3 95 174.3 93.5 174.3 92.1C174.3 92 174.3 91.9 174.3 91.8C174.3 91.7 174.3 91.5 174.3 91.4L174.4 88.3C174.4 87.5 174.5 86.7 174.5 86C174.5 85.3 174.6 84.6 174.6 84C174.8 79.7 175 75.3 175.2 70.9C175.4 65.5 175.7 60.2 175.9 55C174.8 55 173.6 55 172.5 55C172.2 55 171.8 55 171.5 55C170.2 55 169 54.9999 167.7 55.0999C166.1 55.0999 164.4 55.1999 162.8 55.2999C162.7 55.2999 162.7 55.2999 162.6 55.2999C162.5 55.2999 162.4 55.2999 162.3 55.2999C162.1 55.2999 161.9 55.2999 161.7 55.2999C160.4 55.3999 159.2 55.4999 157.9 55.5999C157.4 55.5999 155.9 55.6999 155.6 55.5999C155.5 55.5999 155.4 55.5 155.3 55.5L155.2 55.4C155.3 55 155.3 55 155.3 54.9ZM219.2 69.4L219.1 69.5C218.6 70 218 70.6 217.6 71.1C217.2 71.6 216.9 72.2 217.1 72.5C217.3 72.9 218 73.2 218.9 73.3C220.9 73.5 222.9 73.7 224.6 73.9C227.1 74.1 229.1 74.3 229.8 74.4C229.4 77.9 227.9 85.8 226.4 93.8C226 95.7 225.7 97.6 225.3 99.5C225.2 100.1 225.2 100.6 225.5 100.8C225.6 100.8 225.6 100.9 225.7 100.8C225.7 100.8 225.7 100.8 225.8 100.8C225.9 100.8 225.9 100.8 226 100.7C226 100.7 226.1 100.7 226.1 100.6C226.2 100.6 226.2 100.5 226.3 100.4C226.3 100.4 226.3 100.4 226.4 100.3C226.5 100.2 226.6 100.1 226.7 100C227.2 99.5 227.7 98.8 228.2 98.2C228.4 98 228.5 97.8 228.7 97.6L237.4 87.2L250.6 71.3L250.7 71.2C250.8 71.1 250.8 71.1 250.9 71C251 70.9 251.1 70.7 251.2 70.6C251.5 70.3 251.7 70 252 69.7C252.8 68.7 253.4 67.7 253.3 67.1C253.2 66.7 252.6 66.5 251.9 66.4H251.6C248.4 66 244.9 65.5 241.4 65C241.7 61.8 242.6 56.2 243.5 50.5L243.9 47.4C243.9 47.2 244 47 244 46.7C244 46.4 244.1 46.2 244.1 45.9C244.2 45.2 244.4 44.5 244.4 43.9C244.4 43.4 244.4 42.8999 244.3 42.7999L244.2 42.7H244.1C244.1 42.7 244.1 42.7 244 42.7C243.9 42.7 243.9 42.7999 243.8 42.7999C243.8 42.7999 243.8 42.7999 243.7 42.7999C243.6 42.7999 243.6 42.9 243.5 43C243.5 43 243.5 43 243.4 43C243.3 43.1 243.2 43.1999 243 43.2999C242.5 43.7999 241.8 44.4999 241.3 45.0999C241.1 45.2999 240.9 45.5999 240.7 45.7999L234.9 52.2L232.4 55L220 68.6C219.7 68.8 219.5 69.1 219.2 69.4ZM568.9 137.1C569.9 135.4 571.2 134.1 572.9 133.1C574.6 132.1 576.5 131.6 578.5 131.6C580.5 131.6 582.3 132.1 584.1 133.1C585.8 134.1 587.2 135.4 588.2 137.2C589.2 138.9 589.7 140.8 589.7 142.8C589.7 144.8 589.2 146.6 588.2 148.4C587.2 150.1 585.9 151.5 584.2 152.4C582.5 153.4 580.7 153.9 578.6 153.9C576.6 153.9 574.7 153.4 573 152.4C571.3 151.4 570 150.1 569 148.4C568 146.7 567.5 144.8 567.5 142.8C567.4 140.6 567.9 138.7 568.9 137.1ZM557.9 174.3C564.1 177.6 571 179.2 578.5 179.2C586 179.2 592.9 177.6 599.1 174.3C605.3 171 610.2 166.6 613.8 160.9C617.4 155.3 619.2 149 619.2 142.1C619.2 135.2 617.4 129 613.8 123.3C610.2 117.6 605.3 113.2 599.1 109.9C592.9 106.6 586 105 578.5 105C573.3 105 568.4 105.8 563.9 107.3C563.4 107.5 562.9 107.7 562.4 107.9C562 108.1 561.5 108.2 561.1 108.4C561 108.4 561 108.5 560.9 108.5H560.8C560.4 108.7 560.1 108.8 559.7 109C559.6 109 559.6 109.1 559.5 109.1C559.4 109.1 559.4 109.1 559.3 109.2C558.9 109.4 558.4 109.6 558 109.9C551.8 113.2 546.9 117.6 543.3 123.3C543.1 123.6 542.9 123.9 542.7 124.3C542.7 124.4 542.6 124.4 542.6 124.5V124.6C542.6 124.6 542.6 124.7 542.5 124.7L542.4 124.8C542.4 124.9 542.3 124.9 542.3 125C542.3 125.1 542.2 125.2 542.2 125.3C542.1 125.4 542.1 125.6 542 125.7L541.9 125.8C541.9 125.9 541.8 126 541.8 126C541.8 126.1 541.7 126.1 541.7 126.2C541.6 126.3 541.6 126.4 541.5 126.6C541.4 126.9 541.2 127.1 541.1 127.4C541.1 127.5 541 127.5 541 127.6V127.7V127.8C541 127.9 540.9 128 540.9 128C540.8 128.2 540.8 128.3 540.7 128.5V128.6V128.7C540.7 128.8 540.6 128.9 540.6 129V129.1V129.2V129.3C540.6 129.4 540.5 129.5 540.5 129.6C540.4 129.8 540.4 129.9 540.3 130.1C540.3 130.2 540.3 130.2 540.2 130.3C540.2 130.4 540.1 130.5 540.1 130.6V130.7C540.1 130.8 540 131 540 131.1V131.2V131.3C540 131.3 540 131.3 540 131.4V131.5C540 131.6 540 131.6 539.9 131.7C539.8 132.1 539.6 132.5 539.5 133V133.1V133.2V133.3C539.4 133.5 539.4 133.8 539.3 134C539.3 134.1 539.2 134.2 539.2 134.3V134.4V134.5C539.2 134.7 539.1 134.8 539.1 135V135.1V135.2V135.3C539.1 135.4 539.1 135.5 539.1 135.5V135.6C539.1 135.7 539 135.9 539 136C538.9 136.6 538.8 137.3 538.7 137.9C538.6 139.2 538.5 140.6 538.5 141.9C538.5 148.8 540.3 155 543.9 160.7C546.8 166.6 551.7 171 557.9 174.3ZM414.3 136.2H414.7L418.7 151.7H410L414.3 136.2ZM405.3 169.3H423.1L425.3 178H457.1L430.1 106.3H400.2L373.2 178H403L405.3 169.3ZM762.3 254.4C764.5 253.1 766.2 251.4 767.5 249.1C768.8 246.9 769.4 244.5 769.4 241.9C769.4 239.3 768.8 236.9 767.5 234.7C766.2 232.5 764.4 230.7 762.2 229.4C760 228.1 757.6 227.5 755 227.5C752.4 227.5 750 228.2 747.8 229.4C745.6 230.7 743.8 232.4 742.6 234.6C741.3 236.8 740.7 239.2 740.7 241.9C740.7 244.5 741.4 247 742.6 249.1C743.9 251.3 745.6 253 747.8 254.3C750 255.6 752.4 256.2 755 256.2C757.7 256.4 760.1 255.7 762.3 254.4ZM808 241.3C808 250.2 805.7 258.4 801 265.7C796.3 273.1 789.9 278.8 781.9 283.1C773.8 287.3 764.9 289.4 755.1 289.4C745.3 289.4 736.4 287.3 728.3 283.1C720.2 278.9 713.9 273.1 709.2 265.7C704.5 258.3 702.2 250.2 702.2 241.3C702.2 232.4 704.5 224.2 709.2 216.9C713.9 209.5 720.2 203.8 728.3 199.5C736.4 195.3 745.3 193.2 755.1 193.2C764.9 193.2 773.8 195.3 781.9 199.5C790 203.7 796.4 209.5 801.1 216.9C805.7 224.3 808 232.4 808 241.3ZM696 250.6C692.8 252.3 689.3 253.7 685.5 254.7C681.7 255.7 677.8 256.2 673.9 256.2C669.8 256.2 666.3 255.6 663.3 254.4C660.3 253.2 658.1 251.5 656.5 249.4C654.9 247.2 654.2 244.8 654.2 242C654.2 239.2 655 236.8 656.5 234.6C658.1 232.4 660.3 230.8 663.3 229.5C666.3 228.3 669.8 227.7 673.9 227.7C677.7 227.7 681.5 228.2 685.3 229.1C689.1 230.1 692.4 231.4 695.5 233.1V198.2C692.6 196.7 688.7 195.5 683.9 194.6C679.1 193.7 674.2 193.2 669.2 193.2C658.8 193.2 649.5 195.3 641.2 199.5C632.9 203.7 626.4 209.4 621.8 216.7C617.1 224 614.8 232.2 614.8 241.4C614.8 250.5 617.1 258.7 621.8 266C626.5 273.3 632.9 279.1 641.2 283.3C649.4 287.5 658.7 289.5 669 289.5C674.1 289.5 679.1 289 684.1 288C689 287 693 285.7 696.2 284.1L696 250.6ZM412.9 219H416.4C419.1 219 421.2 219.6 422.7 220.9C424.2 222.2 424.9 223.8 424.9 225.9C424.9 227.9 424.2 229.5 422.7 230.8C421.2 232 419.1 232.7 416.4 232.7H412.9V219ZM461.7 259.4C461.7 253.8 460.3 249.3 457.4 245.7C454.5 242.1 450.3 239.3 444.8 237.3V237C449.3 235.5 452.8 233.1 455.3 230C457.8 226.9 459.1 223 459.1 218.3C459.1 209.2 454.8 203 446.2 199.7C437.6 196.3 427 194.6 414.5 194.6H386.4H374.9V287.8H416.5C429.5 287.8 440.3 285.7 448.9 281.4C457.4 277.3 461.7 270 461.7 259.4ZM423.9 262.7C422.2 264.1 419.8 264.8 416.7 264.8H412.9V249.4H416.7C419.8 249.4 422.2 250.1 423.9 251.6C425.6 253 426.5 254.9 426.5 257.2C426.4 259.4 425.6 261.3 423.9 262.7ZM508.8 194.7H469.8V287.9H508.8V194.7ZM609.9 194.7V226.4H583.4V287.9H544.4V226.4H518V194.7H609.9ZM855.1 194.7H816.1V287.9H855.1V194.7ZM925.2 232.8L925.5 232.7V194.7H961.6V287.9H926.7L903.1 248.6L902.8 248.7V287.9H866.7V194.7H902.1L925.2 232.8ZM491.5 130.7H491.1V154.7H491.4C494.2 154.7 496.7 154.2 498.8 153.2C501 152.2 502.6 150.8 503.8 149C505 147.2 505.6 145.1 505.6 142.7C505.6 139 504.3 136 501.8 133.9C499.2 131.7 495.8 130.7 491.5 130.7ZM490.9 178H461V152.2V106.4H490.7C498.9 106.4 506.2 107.9 512.7 110.8C519.2 113.7 524.3 117.9 528 123.3C531.7 128.7 533.6 135 533.6 142.2C533.6 149.4 531.7 155.7 528 161.1C524.3 166.5 519.2 170.7 512.7 173.6C506.3 176.5 499 178 490.9 178ZM656.2 140.6C658.8 140.6 660.8 140 662.2 138.8C663.6 137.6 664.3 136.1 664.3 134.2C664.3 132.3 663.6 130.7 662.2 129.5C660.8 128.3 658.8 127.7 656.3 127.7H655.5V140.7H656.2V140.6ZM690.7 133.1C690.7 139.2 689.2 144.3 686.1 148.4C683 152.5 678.9 155.5 673.7 157.4C668.5 159.3 662.7 160.3 656.2 160.3H655.3V178H625.3V106.3H653.1C660.3 106.3 666.7 107.2 672.3 109C677.9 110.8 682.4 113.7 685.7 117.7C689.1 121.7 690.7 126.9 690.7 133.1ZM745.7 178V130.7H766.1V106.3H695.4V130.7H715.7V178H745.7ZM773.1 106.3H803.1V178H773.1V106.3ZM812 106.3V178H839.8V147.9L840 147.8L858.1 178H884.9V106.3H857.1V135.5L856.9 135.6L839.2 106.3H812ZM891.1 142.7C891.1 135.5 893 129.1 896.7 123.4C900.4 117.7 905.6 113.2 912.3 110C915.5 108.4 918.9 107.3 922.6 106.4C925 105.9 927.5 105.5 930.1 105.3C930.5 105.3 930.9 105.2 931.3 105.2H931.6C931.7 105.2 931.7 105.2 931.8 105.2C932.2 105.2 932.7 105.2 933.1 105.1H933.2H933.3C933.8 105.1 934.4 105.1 934.9 105.1C940 105.1 944.9 105.7 949.7 106.8C954.4 108 958.3 109.4 961.2 111.1V134.7C958.2 133.5 954.5 132.4 950 131.3C945.6 130.3 941.7 129.8 938.3 129.8C934.6 129.8 931.4 130.4 928.8 131.6C926.2 132.8 924.3 134.4 923.1 136.5C921.8 138.6 921.2 140.9 921.2 143.5C921.2 146.2 921.9 148.6 923.2 150.6C924.5 152.6 926.2 154.2 928.4 155.3C930.6 156.4 932.9 156.9 935.4 156.9C936.6 156.9 937.6 156.8 938.4 156.5V152.6H931.1V137H962.1V172.1C959.1 174 955.2 175.6 950.3 177C945.4 178.3 940 179 934.1 179C925.5 179 917.9 177.4 911.4 174.2C904.9 171 899.9 166.7 896.3 161.2C892.9 155.8 891.1 149.6 891.1 142.7ZM122.4 99.1V99.4V100.2C122.4 100.3 122.4 100.3 122.4 100.4C122.4 100.5 122.4 100.6 122.4 100.7C122.5 101.6 122.6 102.6 122.8 102.8H122.9C123 102.8 123 102.8 123.1 102.7C123.2 102.6 123.3 102.5 123.3 102.4C123.3 102.4 123.3 102.4 123.3 102.3C123.4 102.2 123.5 102 123.6 101.9C123.7 101.7 123.8 101.6 123.9 101.4L124.6 100C129.3 91.3 135.4 80.6 140.9 71.3C142.5 68.5 142.8 68.1 142.8 68.1C142.8 68.1 142.9 68 142.9 67.9C143.1 67.6 143.3 67.2 143.6 66.8C144.1 66 144.7 65.1999 144.9 64.5999C145 64.3999 145.1 64.1 145 64V63.9C144.8 63.7 144.3 63.7 143.8 63.7C143.8 63.7 143.8 63.7 143.7 63.7C143.6 63.7 143.5 63.7 143.4 63.7C143.3 63.7 143.2 63.7 143.2 63.7L142 63.9C138.4 64.4 134.7 64.9 131.2 65.5C131 61 130.7 55.9999 130.5 51.2999C130.4 49.5999 130.3 47.8999 130.3 46.2999L130.2 44.5999C130.2 44.5999 130.2 44.6 130.2 44.5V44.4C130.2 43.8 130.1 43 129.9 42.7C129.8 42.6 129.8 42.5999 129.7 42.5999C129.7 42.5999 129.6 42.6 129.6 42.7C129.6 42.7 129.6 42.7 129.5 42.7C129.5 42.7 129.4 42.8 129.3 42.9C129.3 42.9 129.3 42.9 129.2 43L129.1 43.0999C129 43.1999 129 43.1999 128.9 43.2999V43.4C128.9 43.4 128.9 43.4 128.9 43.5C128.9 43.6 128.8 43.6 128.8 43.7C128.7 43.9 128.5 44.0999 128.4 44.2999C128.3 44.3999 128.2 44.6 128.2 44.7C128.1 44.9 128 45 127.9 45.2L126.6 47.2999V47.4C126.5 47.6 126.4 47.8 126.2 48C122.6 53.8 116 65.1999 116 65.1999C115.7 65.6999 115.4 66.3 115.1 66.7C114.9 67.1 114.6 67.5 114.4 67.9C114.2 68.3 111.4 73 110.8 74L109.8 75.8C109.7 75.9 109.7 76 109.6 76.1C109.4 76.5 109.1 77 108.8 77.4C108.5 77.9 108.3 78.4 108.3 78.6V78.7C108.4 78.8 108.4 78.8 108.5 78.8C108.5 78.8 108.6 78.8 108.7 78.8C108.8 78.8 108.9 78.8 109 78.8H109.1H109.2C109.3 78.8 109.3 78.8 109.4 78.8H109.5C109.6 78.8 109.7 78.8 109.8 78.8C110.6 78.7 111.4 78.5 112.1 78.4C112.2 78.4 112.3 78.4 112.5 78.3C112.6 78.3 112.7 78.3 112.8 78.3C113.8 78.2 114.8 78 115.8 77.9C117.6 77.7 119.3 77.5 121 77.4C121.2 80.7 121.4 84.1 121.5 87.5C121.7 91.2 121.9 94.8 122.1 98.3C122.3 98.7 122.3 98.9 122.4 99.1ZM105.3 283.3C103.7 283.6 102.2 284 100.5 284.4C91.7 286.4 63.6 293.1 42 300.9L41.8 300.5C44.8 297.1 47.7 293.7 50.5 290.2C46.7 280.5 40.7 270 31.7 259.6C31 259.5 30.4 259.5 29.7 259.5C29.1 259.5 28.6 259.5 28 259.6C27.9 259.6 27.8 259.6 27.7 259.6H27.6C27.2 259.6 26.7 259.7 26.2 259.8C26 259.8 25.9 259.9 25.7 259.9C25.1 260 24.4 260.2 23.8 260.4C20.4 261.3 17 264.1 14.8 267.9C13.1 270.8 12.2 273.6 11.8 276.2C6.99998 268.9 8.99998 260.1 13.1 256.7C13.4 256.5 13.7 256.2 14 256C14.1 256 14.1 255.9 14.2 255.9L14.3 255.8H14.4C14.6 255.7 14.8 255.6 15 255.4C15.1 255.4 15.1 255.3 15.2 255.3C15.2 255.3 15.3 255.3 15.3 255.2L15.4 255.1C15.5 255 15.7 255 15.8 254.9C15.9 254.9 16 254.8 16.1 254.8H16.2C16.4 254.7 16.5 254.7 16.7 254.6C16.8 254.6 16.9 254.5 17 254.5H17.1H17.2C17.3 254.5 17.5 254.4 17.6 254.4C17.7 254.4 17.8 254.4 17.9 254.3H18H18.1C18.2 254.3 18.4 254.2 18.5 254.2C18.6 254.2 18.8 254.2 18.9 254.1C19.1 254.1 19.2 254.1 19.4 254C19.6 254 19.7 254 19.9 254C20.1 254 20.2 254 20.4 254C21 254 21.6 254.1 22.3 254.1H22.4H22.5C23.1 254.2 23.8 254.3 24.4 254.5H24.5C25.2 254.7 25.8 254.9 26.5 255.2C27.2 255.5 27.9 255.8 28.5 256.1C28.1 255.7 27.6 255.4 27.2 255C27.1 255 27.1 254.9 27 254.9C26.9 254.9 26.9 254.8 26.8 254.8C26.4 254.5 25.9 254.1 25.5 253.8C25 253.5 24.6 253.2 24.1 252.9C24 252.8 23.9 252.8 23.7 252.7C23.2 252.5 22.8 252.2 22.3 252C22.3 252 22.3 252 22.2 252C21.7 251.8 21.2 251.6 20.7 251.4C20.6 251.4 20.4 251.3 20.3 251.3C19.8 251.1 19.4 251 18.9 250.9C18.9 250.9 18.9 250.9 18.8 250.9C18.8 250.9 18.8 250.9 18.7 250.9C18.2 250.8 17.7 250.7 17.1 250.6C17 250.6 16.8 250.6 16.7 250.6C16.2 250.6 15.7 250.5 15.2 250.5H15.1H15C14.8 250.5 14.7 250.5 14.5 250.5C14.4 250.5 14.4 250.5 14.3 250.5C14.2 250.5 14.1 250.5 14.1 250.5C14 250.5 13.8 250.5 13.7 250.5C13.5 250.5 13.4 250.5 13.2 250.6C13.1 250.6 13.1 250.6 13 250.6C12.9 250.6 12.8 250.6 12.8 250.6C12.7 250.6 12.6 250.6 12.4 250.6C12.2 250.6 12 250.7 11.8 250.7C11.7 250.7 11.7 250.7 11.6 250.7C11.5 250.7 11.5 250.7 11.4 250.7C11.3 250.7 11.2 250.7 11 250.8C10.5 250.9 10.1 251 9.59998 251.2C6.69998 252 3.49998 254.8 0.599976 258C0.999976 257.4 0.999976 256.7 0.999976 256C0.999976 255.9 0.999976 255.8 0.999976 255.7C0.999976 255.6 0.999976 255.5 0.999976 255.4V255.3C0.999976 254.9 0.999976 254.4 0.999976 254C0.999976 253.9 0.999976 253.8 0.999976 253.6C0.999976 253.5 0.999976 253.4 0.999976 253.3C0.999976 253.2 0.999976 253.2 0.999976 253.1C0.999976 252.8 1.09998 252.4 1.09998 252.1C1.09998 252 1.09998 251.8 1.19998 251.7C1.19998 251.6 1.19998 251.5 1.19998 251.4C1.19998 251.3 1.19998 251.3 1.19998 251.2C1.19998 250.9 1.29998 250.6 1.39998 250.3C1.39998 250.2 1.49998 250 1.49998 249.9C1.49998 249.8 1.49998 249.7 1.59998 249.6C1.59998 249.5 1.59998 249.5 1.69998 249.4C1.79998 249.1 1.79998 248.8 1.89998 248.6C1.89998 248.5 1.99998 248.3 1.99998 248.2C1.99998 248.1 2.09998 248 2.09998 248V247.9C2.19998 247.6 2.29998 247.3 2.39998 247C2.39998 246.9 2.49998 246.7 2.59998 246.6C2.59998 246.5 2.69998 246.5 2.69998 246.4C2.69998 246.3 2.79998 246.3 2.79998 246.2C2.89998 246 2.99998 245.7 3.09998 245.5C3.19998 245.4 3.19998 245.3 3.29998 245.2C3.29998 245.1 3.39998 245.1 3.39998 245C3.39998 244.9 3.49998 244.9 3.49998 244.8C3.59998 244.6 3.69998 244.4 3.79998 244.2C3.89998 244.1 3.89998 244 3.99998 243.9C3.99998 243.8 4.09998 243.8 4.09998 243.7C4.09998 243.6 4.19998 243.6 4.19998 243.5C4.29998 243.3 4.39998 243.1 4.59998 243C4.69998 242.9 4.69998 242.8 4.79998 242.7C4.79998 242.6 4.89998 242.6 4.89998 242.5L4.99998 242.4C5.09998 242.2 5.29998 242.1 5.39998 241.9C5.49998 241.8 5.59998 241.7 5.69998 241.6L5.79998 241.5L5.89998 241.4C5.99998 241.3 6.19998 241.1 6.29998 241C6.39998 240.9 6.49998 240.8 6.59998 240.8L6.69998 240.7L6.79998 240.6C6.89998 240.5 7.09998 240.4 7.19998 240.3C7.29998 240.2 7.39998 240.2 7.49998 240.1C7.59998 240.1 7.59998 240 7.69998 240C7.69998 240 7.79998 240 7.79998 239.9C7.99998 239.8 8.09998 239.7 8.29998 239.6C8.39998 239.5 8.49998 239.5 8.59998 239.5C8.59998 239.5 8.69998 239.5 8.79998 239.4C8.79998 239.4 8.89998 239.4 8.89998 239.3C8.99998 239.2 9.19998 239.2 9.29998 239.1C9.39998 239.1 9.49998 239 9.59998 239C9.69998 239 9.69998 239 9.79998 239C9.89998 239 9.89998 239 9.99998 239C10.1 239 10.3 238.9 10.4 238.9C10.5 238.9 10.6 238.9 10.7 238.9C10.8 238.9 10.8 238.9 10.9 238.9C11 238.9 11 238.9 11.1 238.9C11.3 238.9 11.4 238.9 11.6 238.9C17.6 239.1 24 243 29.9 252.5C28.4 248 28.1 242.2 32 236.7C33.3 235.2 36.2 232.5 41.1 232.1C41.8 232 42.5 232 43.1 232C43.2 232 43.4 232 43.5 232C43.6 232 43.7 232 43.7 232C44.1 232 44.5 232 44.9 232.1C45.1 232.1 45.2 232.2 45.4 232.2C45.5 232.2 45.5 232.2 45.6 232.2C45.9 232.3 46.3 232.3 46.6 232.4C46.8 232.5 47 232.5 47.2 232.6C47.5 232.7 47.8 232.8 48.1 233C48.3 233.1 48.5 233.2 48.7 233.3C49 233.5 49.2 233.6 49.5 233.8C49.7 233.9 49.8 234.1 50 234.2C50.2 234.4 50.5 234.6 50.7 234.9L50.8 235C50.9 235.1 51 235.2 51.1 235.4C51.3 235.7 51.5 236 51.7 236.3C51.7 236.4 51.8 236.4 51.8 236.5C51.9 236.6 51.9 236.7 52 236.8C52.3 237.3 52.5 237.9 52.8 238.5C52.3 238.4 51.8 238.3 51.3 238.3C51.2 238.3 51.1 238.3 51 238.3C50.9 238.3 50.9 238.3 50.8 238.3C50.4 238.3 50.1 238.3 49.7 238.3C49.6 238.3 49.5 238.3 49.3 238.3H49.2C48.8 238.3 48.5 238.3 48.1 238.4H48C47.9 238.4 47.7 238.4 47.6 238.4C47.2 238.5 46.8 238.5 46.3 238.6H46.2C46.1 238.6 46.1 238.6 46 238.6C45.5 238.7 45 238.8 44.5 239C44.4 239 44.4 239 44.3 239.1C44.2 239.1 44.2 239.1 44.1 239.2C43.7 239.3 43.4 239.4 43 239.6C42.9 239.6 42.8 239.7 42.6 239.7H42.5C42.2 239.8 41.9 240 41.6 240.1C41.5 240.2 41.3 240.2 41.2 240.3C40.8 240.5 40.4 240.8 40 241C36.5 243.5 35 246.1 34 250.1C33.7 251.3 33.6 252.4 33.4 253.5C35.2 249.5 39.1 246.9 41.9 245.8C42.3 245.6 42.8 245.5 43.3 245.4C43.4 245.4 43.6 245.4 43.7 245.3C44.2 245.2 44.7 245.2 45.3 245.2C45.3 245.2 45.3 245.2 45.4 245.2C45.4 245.2 45.4 245.2 45.5 245.2C45.8 245.2 46.2 245.2 46.5 245.3C46.6 245.3 46.7 245.3 46.7 245.3C46.8 245.3 46.8 245.3 46.9 245.3C47.2 245.3 47.4 245.4 47.7 245.4C47.8 245.4 48 245.5 48.1 245.5C48.4 245.6 48.6 245.6 48.9 245.7C49 245.7 49.2 245.8 49.3 245.8C49.6 245.9 49.9 246 50.2 246.1H50.3H50.4C50.8 246.3 51.1 246.5 51.5 246.7C51.6 246.7 51.6 246.8 51.7 246.8L51.8 246.9C52 247.1 52.3 247.2 52.5 247.4C52.6 247.5 52.7 247.6 52.8 247.7C53 247.9 53.2 248.1 53.4 248.3C53.5 248.4 53.6 248.5 53.7 248.6C53.9 248.8 54.1 249.1 54.3 249.3C54.3 249.3 54.3 249.4 54.4 249.4C54.4 249.5 54.5 249.5 54.5 249.6C54.7 250 54.9 250.3 55.1 250.7C55.1 250.7 55.1 250.8 55.2 250.8V250.9C55.3 251.2 55.5 251.6 55.6 251.9C55.6 252 55.7 252.2 55.7 252.3V252.4C55.8 252.7 55.8 253 55.9 253.4C55.9 253.6 55.9 253.8 56 254C56 254.4 56 254.7 56 255.1C56 255.2 56 255.2 56 255.3C56 255.4 56 255.5 56 255.7C56 256.3 55.9 256.9 55.8 257.5C55.3 257 54.7 256.6 54.2 256.2C54.1 256.1 54 256.1 53.9 256C53.8 256 53.8 255.9 53.7 255.9C53.3 255.6 52.9 255.4 52.6 255.2C52.4 255.1 52.2 255 52 254.9C51.6 254.7 51.3 254.5 50.9 254.4H50.8C50.6 254.3 50.5 254.3 50.3 254.2C49.9 254 49.5 253.9 49.1 253.8C49 253.8 49 253.8 48.9 253.7C48.8 253.7 48.7 253.6 48.7 253.6C48.1 253.4 47.6 253.3 47 253.2C46.9 253.2 46.9 253.2 46.8 253.2C46.7 253.2 46.7 253.2 46.6 253.2C46.1 253.1 45.7 253.1 45.2 253C45 253 44.9 253 44.7 253H44.6C44.2 253 43.8 253 43.4 253C43.2 253 43.1 253 42.9 253C42.3 253 41.8 253.1 41.2 253.1C39.1 253.4 36.8 254.5 34.8 256.3C35 256.4 35.3 256.5 35.5 256.7C41.5 260.9 51.2 269.3 58.8 279.1C59 278.8 59.2 278.6 59.4 278.3C59.7 278 59.9 277.6 60.2 277.3C62.9 273.6 65.5 269.7 68 265.9C67.1 249.5 63.6 230.4 56 213.1C55.5 213 55 213 54.6 213C54.5 213 54.4 213 54.4 213C54.3 213 54.3 213 54.2 213H54.1C53.8 213 53.5 213 53.3 213C52.9 213 52.6 213 52.2 213C52.1 213 52.1 213 52 213H51.9C51.6 213 51.3 213 51.1 213C51 213 50.9 213 50.8 213C50.5 213 50.3 213 50.1 213.1C50 213.1 50 213.1 49.9 213.1C49.6 213.1 49.3 213.2 49.1 213.2C49 213.2 49 213.2 48.9 213.2C48.7 213.2 48.6 213.3 48.4 213.3H48.3C48.3 213.3 48.3 213.3 48.2 213.3C48 213.3 47.8 213.4 47.7 213.4C41.3 215.3 33 220.4 30 229.4C28.3 227.3 27.4 224.1 28 220.2C28.4 216.8 30.9 213 33.1 211.2C33.5 210.9 33.9 210.6 34.3 210.3C34.4 210.2 34.5 210.2 34.5 210.2C34.6 210.2 34.6 210.1 34.7 210.1H34.8C35.1 209.9 35.3 209.8 35.6 209.7C35.7 209.6 35.8 209.6 35.9 209.5C36 209.5 36 209.4 36.1 209.4H36.2C36.4 209.3 36.7 209.2 36.9 209.1C37 209 37.2 209 37.3 208.9C37.3 208.9 37.4 208.9 37.4 208.8H37.5H37.6C37.8 208.7 38 208.7 38.2 208.6C38.3 208.6 38.5 208.5 38.6 208.5C38.7 208.5 38.7 208.5 38.8 208.4C39.1 208.3 39.3 208.3 39.6 208.2C39.8 208.2 40 208.1 40.2 208.1H40.3C40.5 208.1 40.8 208 41 208C41.2 208 41.3 208 41.5 207.9C41.6 207.9 41.6 207.9 41.7 207.9C42 207.9 42.2 207.8 42.5 207.8C42.7 207.8 43 207.8 43.2 207.8C43.5 207.8 43.7 207.8 44 207.8C44.2 207.8 44.4 207.8 44.5 207.8C45.3 207.8 46.1 207.9 46.8 207.9C46.9 207.9 46.9 207.9 47 207.9C47.1 207.9 47.1 207.9 47.2 207.9C48 208 48.8 208.1 49.6 208.3C49.7 208.3 49.8 208.3 49.9 208.4C50.7 208.6 51.5 208.8 52.3 209.1C52.4 209.1 52.4 209.1 52.5 209.2C53.3 209.5 54.1 209.8 54.9 210.1C51.2 207.2 46.8 205.1 45.6 204.7C45.5 204.7 45.3 204.6 45 204.5L44.4 204.3C44.3 204.3 44.2 204.2 44.1 204.2C43.9 204.1 43.7 204.1 43.5 204C43.4 204 43.3 203.9 43.2 203.9C43 203.8 42.7 203.8 42.4 203.7C42.3 203.7 42.2 203.6 42.1 203.6C41.7 203.5 41.3 203.4 40.8 203.3C40.8 203.3 40.8 203.3 40.7 203.3H40.6C40.2 203.2 39.8 203.2 39.4 203.1C39.3 203.1 39.2 203.1 39.1 203.1H39C38.7 203.1 38.3 203 38 203C37.8 203 37.6 203 37.5 203C37.2 203 36.8 203 36.4 203C36.3 203 36.3 203 36.2 203C36.1 203 35.9 203 35.8 203C35.7 203 35.6 203 35.5 203C35.4 203 35.4 203 35.3 203C35 203 34.7 203 34.4 203.1C34.2 203.1 34.1 203.1 33.9 203.1C33.5 203.1 33.1 203.2 32.8 203.3C32.7 203.3 32.6 203.3 32.6 203.3C32.1 203.4 31.7 203.5 31.2 203.6C31.1 203.6 31 203.6 30.9 203.7H30.8C30.5 203.8 30.1 203.9 29.8 204C29.6 204.1 29.5 204.1 29.3 204.2C29 204.3 28.6 204.5 28.3 204.6C28.3 204.6 28.2 204.6 28.2 204.7C28.1 204.7 28 204.8 27.9 204.8C27.4 205 26.9 205.3 26.5 205.6C23.2 207.6 20.5 210.1 18.5 212.1C17.9 208.2 17.8 201.5 20.6 196.2C20.9 195.7 21.2 195.2 21.6 194.7C21.6 194.7 21.6 194.6 21.7 194.6C21.8 194.5 21.8 194.5 21.9 194.4C22.3 193.9 22.6 193.5 23 193.1L23.1 193L23.2 192.9C23.6 192.5 24 192.2 24.4 191.9C24.4 191.9 24.5 191.9 24.5 191.8C24.6 191.8 24.6 191.7 24.7 191.7C25.1 191.4 25.6 191.1 26.1 190.8C26.2 190.8 26.2 190.7 26.3 190.7C26.3 190.7 26.4 190.7 26.4 190.6C26.9 190.3 27.4 190.1 27.9 189.9C27.9 189.9 27.9 189.9 28 189.9C28.5 189.7 29.1 189.5 29.6 189.4C29.7 189.4 29.8 189.3 30 189.3C30.6 189.2 31.1 189.1 31.7 189H31.8H31.9C32.4 188.9 33 188.9 33.5 188.9H33.6C33.7 188.9 33.7 188.9 33.8 188.9C34.2 188.9 34.6 188.9 35 189H35.1H35.2C35.7 189 36.2 189.1 36.7 189.2C36.8 189.2 36.8 189.2 36.9 189.2C37 189.2 37 189.2 37.1 189.2C37.5 189.3 37.9 189.4 38.2 189.4C38.3 189.4 38.5 189.5 38.6 189.5H38.7C39 189.6 39.4 189.7 39.7 189.8C39.9 189.9 40.1 189.9 40.2 190C40.5 190.1 40.9 190.3 41.2 190.4C41.2 190.4 41.3 190.4 41.3 190.5C41.4 190.5 41.5 190.6 41.6 190.6C42 190.8 42.5 191 42.9 191.2H43C43 191.2 43.1 191.2 43.1 191.3C43.6 191.6 44.1 191.9 44.6 192.2C44.7 192.3 44.8 192.3 44.9 192.4C45 192.4 45 192.5 45.1 192.5C45.5 192.7 45.8 193 46.2 193.2C46.3 193.3 46.5 193.4 46.6 193.5L46.7 193.6C47 193.8 47.3 194.1 47.6 194.4L47.7 194.5C47.9 194.6 48 194.8 48.2 194.9C48.5 195.2 48.8 195.5 49.2 195.8L49.3 195.9C49.4 196 49.5 196.1 49.6 196.2C50 196.6 50.4 197.1 50.8 197.5C50.8 197.5 50.8 197.5 50.9 197.6C50.9 197.6 50.9 197.6 51 197.7C51.4 198.2 51.9 198.8 52.3 199.3C52.4 199.4 52.5 199.5 52.6 199.6C52.6 199.7 52.7 199.7 52.7 199.8C53 200.2 53.3 200.6 53.6 201C53.7 201.2 53.8 201.4 54 201.5L54.1 201.6C54.4 202 54.6 202.4 54.9 202.8L55 202.9L55.1 203C55.2 203.2 55.3 203.4 55.4 203.5C55.7 204 55.9 204.4 56.1 204.9C56.1 205 56.2 205.1 56.2 205.2C56.3 205.3 56.3 205.5 56.4 205.6C56.7 206.3 57.1 207.1 57.4 207.8C57.3 206.8 57.2 205.8 57.2 204.8C57.2 204.6 57.2 204.4 57.2 204.2C57.2 204.1 57.2 204 57.2 203.8V203.7C57.2 203.1 57.2 202.5 57.2 202C57.2 201.8 57.2 201.5 57.3 201.3C57.3 201.2 57.3 201 57.3 200.9C57.3 200.8 57.3 200.8 57.3 200.7C57.3 200.2 57.4 199.8 57.5 199.3C57.5 199 57.6 198.8 57.6 198.5C57.6 198.4 57.6 198.3 57.7 198.2C57.7 198.1 57.7 198.1 57.7 198C57.8 197.6 57.9 197.2 58 196.8C58.1 196.5 58.1 196.3 58.2 196.1C58.2 196 58.3 195.9 58.3 195.8C58.3 195.7 58.3 195.7 58.4 195.6C58.5 195.2 58.6 194.8 58.7 194.4C58.8 194.1 58.9 193.8 59 193.6C59 193.5 59 193.5 59.1 193.4C59.3 193 59.4 192.6 59.6 192.2C59.7 191.9 59.9 191.6 60 191.3V191.2C60.2 190.8 60.4 190.4 60.6 190.1C60.8 189.8 60.9 189.5 61.1 189.2C61.3 188.8 61.5 188.5 61.8 188.2C62 187.9 62.2 187.7 62.4 187.4C62.6 187.1 62.9 186.8 63.1 186.5C63.3 186.3 63.5 186 63.7 185.8C64 185.5 64.2 185.3 64.5 185C64.7 184.8 64.9 184.6 65.2 184.4C65.5 184.2 65.8 183.9 66.1 183.7C66.3 183.5 66.6 183.3 66.8 183.2C67.1 183 67.4 182.8 67.7 182.7C67.7 182.7 67.8 182.7 67.8 182.6C68 182.5 68.2 182.4 68.4 182.3C68.7 182.1 69 182 69.3 181.9C69.4 181.9 69.4 181.9 69.5 181.8C69.7 181.7 69.9 181.6 70.1 181.6C70.4 181.5 70.7 181.4 71 181.4H71.1C71.2 181.4 71.3 181.4 71.3 181.3C71.5 181.3 71.7 181.2 71.8 181.2C72.1 181.2 72.4 181.1 72.7 181.1C72.8 181.1 72.8 181.1 72.9 181.1C73 181.1 73.1 181.1 73.1 181.1C73.3 181.1 73.4 181.1 73.6 181.1C74.2 181.1 74.7 181.1 75.3 181.2C80.2 181.9 87.1 185.1 87.7 195.2C87.3 194.9 86.8 194.7 86.4 194.4C86.3 194.3 86.1 194.3 86 194.2C85.7 194 85.4 193.9 85 193.8C84.9 193.7 84.7 193.7 84.6 193.6C84.2 193.5 83.9 193.4 83.5 193.3H83.4H83.3C82.9 193.2 82.4 193.1 82 193C81.9 193 81.9 193 81.8 193C81.7 193 81.7 193 81.6 193C81.3 192.9 81 192.9 80.6 192.9C80.5 192.9 80.3 192.9 80.2 192.9C79.9 192.9 79.6 192.9 79.3 192.9C79.2 192.9 79.1 192.9 78.9 192.9C78.8 192.9 78.8 192.9 78.7 192.9C78.6 192.9 78.6 192.9 78.5 192.9C77.7 192.9 77 192.9 76.3 193C72 193.5 67.4 195.9 64.3 200.1C63.2 201.6 61.4 205.3 60.3 209.2C63.1 205.2 68 202 71.2 201.4C71.8 201.3 72.5 201.2 73.1 201.2C73.2 201.2 73.4 201.2 73.5 201.2H73.6C74 201.2 74.4 201.2 74.8 201.2C75.1 201.2 75.3 201.2 75.6 201.2C76 201.2 76.3 201.3 76.7 201.4C76.8 201.4 76.9 201.4 76.9 201.4C77.1 201.4 77.2 201.5 77.4 201.5C77.8 201.6 78.1 201.7 78.4 201.8C78.5 201.8 78.6 201.9 78.6 201.9C78.7 201.9 78.9 202 79 202C79.4 202.1 79.7 202.3 80.1 202.5C80.2 202.5 80.2 202.6 80.3 202.6C80.4 202.6 80.5 202.7 80.6 202.7C81.1 203 81.6 203.3 82 203.6C82 203.6 82.1 203.6 82.1 203.7C82.1 203.7 82.1 203.7 82.2 203.8C82.6 204.1 83 204.4 83.3 204.8C83.4 204.9 83.5 205 83.5 205.1C83.5 205.2 83.6 205.2 83.6 205.3C83.8 205.6 84.1 205.8 84.3 206.1C84.4 206.2 84.5 206.4 84.6 206.5C84.6 206.6 84.7 206.6 84.7 206.7C84.9 207 85.1 207.3 85.3 207.6C85.4 207.8 85.5 208 85.6 208.2C85.8 208.5 85.9 208.8 86 209.1C86.1 209.3 86.2 209.6 86.3 209.8C86.4 210.1 86.5 210.4 86.6 210.8C86.7 211.1 86.8 211.3 86.8 211.6C86.9 211.9 87 212.3 87 212.6C87.1 212.9 87.1 213.1 87.1 213.4C87.2 213.8 87.2 214.1 87.2 214.5C87.2 214.6 87.2 214.6 87.2 214.7C87.2 214.9 87.2 215.2 87.3 215.4C87.3 215.8 87.3 216.2 87.3 216.6C87.3 216.7 87.3 216.8 87.3 216.9C87.3 217.1 87.3 217.3 87.3 217.5C87.3 218 87.2 218.4 87.2 218.9C87.2 219 87.2 219.1 87.2 219.2C87.2 219.3 87.2 219.5 87.2 219.6C87.1 220.3 87 221.1 86.8 221.8C86.4 221.1 86 220.4 85.6 219.8C85.5 219.7 85.4 219.5 85.3 219.4C84.9 218.8 84.4 218.2 84 217.7C84 217.7 84 217.6 83.9 217.6L83.8 217.5C83.4 217 82.9 216.6 82.5 216.2L82.4 216.1C82.3 216 82.2 216 82.2 215.9C81.7 215.5 81.2 215 80.7 214.7C80.6 214.6 80.5 214.6 80.4 214.5C79.9 214.2 79.5 213.9 79 213.6C78.9 213.5 78.8 213.5 78.7 213.4C78.2 213.1 77.7 212.8 77.1 212.6C77 212.6 77 212.5 76.9 212.5H76.8C76.3 212.3 75.9 212.1 75.4 211.9H75.3C75.2 211.9 75.2 211.9 75.1 211.8C74.6 211.6 74 211.5 73.5 211.4C73.4 211.4 73.3 211.3 73.1 211.3C72.6 211.2 72.1 211.1 71.6 211H71.5H71.4C70.9 210.9 70.4 210.9 69.8 210.9C69.7 210.9 69.6 210.9 69.5 210.9C69 210.9 68.6 210.9 68.1 210.9C68 210.9 68 210.9 67.9 210.9C67.4 210.9 66.9 211 66.5 211.1C66.4 211.1 66.4 211.1 66.3 211.1C66.2 211.1 66.2 211.1 66.1 211.1C65.7 211.2 65.4 211.2 65 211.3H64.9C64.8 211.3 64.8 211.3 64.7 211.3C64.3 211.4 63.9 211.5 63.5 211.7C63.5 211.7 63.4 211.7 63.4 211.8C63.4 211.8 63.4 211.8 63.3 211.8C63 211.9 62.7 212.1 62.4 212.2C62.3 212.2 62.2 212.3 62.1 212.3C61.8 212.5 61.4 212.7 61.1 212.9C64 217.6 66.9 223.4 69.2 228C69.5 228.5 69.7 229 70 229.5C73.3 236.2 76.3 243.3 78.6 250.8C78.9 250.3 79.2 249.8 79.5 249.3C80.1 248.3 80.7 247.3 81.3 246.3C81.4 246.1 81.5 245.9 81.7 245.7C81.8 245.6 81.9 245.4 81.9 245.3C103.2 208 120 168.7 133.1 128.2C133.8 125.9 134.6 123.6 135.3 121.2C135.4 121 135.6 120.4 135.9 119.8C136.2 119.2 137.2 118.7 137.4 118.6C142 117.2 148.3 116.1 155.6 115.3C157.3 115.1 159.1 115 160.9 114.8C161 114.8 161.2 114.8 161.3 114.8H161.4C163.1 114.7 164.9 114.6 166.6 114.5H167C167.3 114.5 167.7 114.5 168 114.4C168.4 114.4 168.9 114.3 169.3 114.3C169.4 114.3 169.5 114.3 169.7 114.3C171.7 114.2 173.8 114.2 175.8 114.2C176.1 114.2 176.5 114.2 176.8 114.2C177.1 114.2 177.3 114.2 177.6 114.2C177.7 114.2 177.7 114.2 177.8 114.2C177.9 114.2 177.9 114.2 178 114.2C178.1 114.2 178.1 114.2 178.2 114.2C178.3 114.2 178.3 114.2 178.4 114.2C180.6 114.2 182.9 114.2 185.1 114.3C187.3 114.4 189.4 114.5 191.5 114.6H191.8C196 114.9 200.2 115.2 204.3 115.7C206 115.9 207.6 116.2 209.1 116.4C209.3 116.4 209.4 116.5 209.6 116.5C209.7 116.5 209.8 116.5 209.9 116.5H210H210.1C210.5 116.6 211 116.7 211.4 116.7C212.1 116.8 212.8 117 213.4 117.1C213.7 117.2 213.9 117.2 214.2 117.3H214.3C215.1 117.5 215.8 117.6 216.6 117.8C216.7 117.8 216.8 117.8 216.8 117.9H216.9C217.4 118 218 118.2 218.5 118.3H218.6C218.7 118.3 218.7 118.3 218.8 118.3C219.1 118.4 219.9 118.8 220.2 119.4C220.3 119.6 220.4 119.7 220.4 119.9C220.5 120.2 220.6 120.4 220.7 120.6C220.7 120.7 220.8 120.8 220.8 120.9V121C220.9 121.4 221.1 122.1 221.4 122.8L221.5 123.1C222 124.6 222.5 126.3 222.6 126.8C222.7 127.2 222.9 127.6 223 128C224.3 131.9 225.5 135.8 226.9 139.7H227C239.4 175.9 254.8 211 274 244.6C274.1 244.8 274.2 245 274.4 245.2C274.6 245.5 274.7 245.8 274.9 246.1C277.9 251.3 281 256.4 284.3 261.5C285.2 256.8 286.7 252.2 288.8 247.4C292.4 239.2 299.4 230.7 305.1 226.2C304.3 225.2 303.3 224.2 302.1 223.3C301.9 223.2 301.7 223 301.4 222.8C301.2 222.6 300.9 222.5 300.6 222.3C300.6 222.3 300.6 222.3 300.5 222.3C300.5 222.3 300.5 222.3 300.4 222.3C300.1 222.1 299.7 221.9 299.4 221.7C299.4 221.7 299.4 221.7 299.3 221.7C299.3 221.7 299.3 221.7 299.2 221.7C298.8 221.5 298.3 221.3 297.9 221C297.4 220.8 296.9 220.6 296.4 220.4C296.4 220.4 296.4 220.4 296.3 220.4C296.3 220.4 296.3 220.4 296.2 220.4C295.7 220.2 295.1 220.1 294.6 219.9C294.5 219.9 294.5 219.9 294.4 219.9C293.8 219.8 293.2 219.7 292.6 219.6H292.5H292.4C291.7 219.5 291.1 219.5 290.4 219.5C290.4 219.5 290.4 219.5 290.3 219.5H290.2C289.9 219.5 289.7 219.5 289.4 219.5C289.3 219.5 289.3 219.5 289.2 219.5H289.1C288.9 219.5 288.7 219.5 288.5 219.6C288.4 219.6 288.4 219.6 288.3 219.6C288.2 219.6 288.2 219.6 288.1 219.6C287.9 219.6 287.7 219.7 287.5 219.7C287.4 219.7 287.3 219.7 287.1 219.8C286.9 219.8 286.7 219.9 286.5 219.9C286.4 219.9 286.2 220 286.1 220C285.9 220.1 285.7 220.1 285.5 220.2C285.4 220.2 285.2 220.3 285.1 220.3C284.9 220.4 284.6 220.5 284.4 220.6H284.3C284.2 220.6 284.2 220.7 284.1 220.7C283.8 220.8 283.4 221 283.1 221.2C283.1 221.2 283.1 221.2 283 221.2C283 221.2 283 221.2 282.9 221.2C282.6 221.4 282.3 221.5 282 221.7C281.9 221.8 281.8 221.8 281.7 221.9C281.7 221.9 281.6 221.9 281.6 222C281.4 222.1 281.1 222.3 280.9 222.4C280.8 222.5 280.7 222.5 280.6 222.6C280.5 222.6 280.5 222.7 280.4 222.7C280.2 222.9 280 223 279.7 223.2C279.5 223.3 279.4 223.4 279.3 223.5C279.1 223.7 278.9 223.8 278.6 224C278.5 224.1 278.3 224.3 278.2 224.4C278 224.6 277.8 224.8 277.6 225L277.5 225.1L277.4 225.2C277.3 225.3 277.2 225.4 277.1 225.5C276.9 225.7 276.6 225.9 276.4 226.2L276.3 226.3C276.2 226.4 276.1 226.5 275.9 226.7C275.5 227.1 275.2 227.5 274.8 227.9C273.7 219.1 276.9 210.9 284.4 209.1C286.3 208.6 288.1 208.5 289.8 208.7C289.9 208.7 290 208.7 290.2 208.8C290.3 208.8 290.3 208.8 290.4 208.8C290.8 208.9 291.1 208.9 291.5 209C291.7 209 291.8 209.1 292 209.1H292.1C292.4 209.2 292.7 209.3 293 209.4C293.2 209.5 293.4 209.5 293.6 209.6C293.9 209.7 294.2 209.8 294.5 210C294.7 210.1 294.9 210.2 295.1 210.3C295.4 210.4 295.7 210.6 295.9 210.8C296.1 210.9 296.2 211 296.4 211.1C296.7 211.3 297 211.5 297.2 211.7C297.3 211.8 297.4 211.8 297.4 211.9C297.5 212 297.6 212 297.6 212.1C298 212.4 298.4 212.7 298.8 213C298.8 213 298.9 213 298.9 213.1C298.9 213.1 298.9 213.1 299 213.2C299.4 213.5 299.7 213.8 300.1 214.2C300.2 214.3 300.3 214.4 300.4 214.5L300.5 214.6L300.6 214.7C300.8 214.9 301 215.1 301.3 215.4C301.4 215.5 301.5 215.6 301.6 215.8L301.7 215.9C301.9 216.1 302.1 216.4 302.3 216.6C302.4 216.7 302.5 216.9 302.7 217C302.9 217.2 303.1 217.5 303.3 217.7C303.4 217.9 303.5 218 303.7 218.2C303.9 218.5 304.1 218.7 304.2 219C304.2 219.1 304.3 219.1 304.3 219.2C304.4 219.3 304.4 219.4 304.5 219.4C304.7 219.7 304.9 220 305 220.2C305 220.3 305.1 220.3 305.1 220.4C305.1 220.5 305.2 220.5 305.2 220.6C305.4 221 305.7 221.4 305.9 221.8C305.5 216.6 303.6 209.7 297.7 203.7C297.2 203.1 296.6 202.6 296 202.2L295.9 202.1C295.8 202 295.7 201.9 295.6 201.9C295 201.4 294.5 201 293.9 200.6C293.8 200.6 293.8 200.5 293.7 200.5C293.2 200.1 292.6 199.8 292.1 199.5C292 199.4 291.8 199.3 291.7 199.3C291.1 199 290.5 198.7 290 198.5C289.9 198.5 289.9 198.4 289.8 198.4H289.7C289.2 198.2 288.7 198 288.1 197.8C288 197.8 287.8 197.7 287.7 197.7C287.1 197.5 286.6 197.3 286 197.2C285.9 197.2 285.8 197.1 285.7 197.1C285.2 197 284.7 196.9 284.3 196.8C284.2 196.8 284.2 196.8 284.1 196.8C284 196.8 284 196.8 283.9 196.8C283.4 196.7 282.8 196.6 282.3 196.6C282.2 196.6 282.1 196.6 282 196.6C281.6 196.5 281.1 196.5 280.7 196.5C280.7 196.5 280.7 196.5 280.6 196.5C280.5 196.5 280.5 196.5 280.4 196.5C279.9 196.5 279.5 196.5 279 196.4C278.9 196.4 278.9 196.4 278.8 196.4H278.7C278.3 196.4 278 196.4 277.6 196.4C277.5 196.4 277.5 196.4 277.4 196.4C277 196.4 276.7 196.4 276.3 196.4C276.2 196.4 276.1 196.4 276.1 196.4C275.8 196.4 275.6 196.4 275.4 196.5H275.3C275 196.5 274.8 196.5 274.7 196.6H274.6C274.5 196.6 274.4 196.6 274.3 196.6H274.2C274.1 196.6 274 196.6 274 196.6C274.4 195.9 274.9 195.3 275.4 194.7C275.5 194.6 275.5 194.5 275.6 194.4C276.1 193.8 276.6 193.3 277.1 192.8C277.2 192.7 277.2 192.7 277.3 192.6L277.4 192.5C277.9 192 278.5 191.6 279 191.2L279.1 191.1C279.1 191.1 279.2 191.1 279.2 191C279.8 190.6 280.3 190.2 280.9 189.9C281 189.9 281 189.8 281.1 189.8C281.7 189.5 282.3 189.2 283 188.9H283.1C283.2 188.9 283.2 188.8 283.3 188.8C283.9 188.5 284.5 188.3 285.2 188.1C285.3 188.1 285.3 188.1 285.4 188H285.5C286.2 187.8 286.8 187.6 287.5 187.5C287.5 187.5 287.5 187.5 287.6 187.5C288.3 187.4 288.9 187.3 289.6 187.2C289.7 187.2 289.8 187.2 289.9 187.2C290.5 187.1 291.2 187.1 291.8 187.1C291.9 187.1 292 187.1 292.2 187.1C292.7 187.1 293.2 187.1 293.7 187.1C293.8 187.1 293.9 187.1 293.9 187.1C294 187.1 294.1 187.1 294.3 187.1C295 187.1 295.6 187.2 296.2 187.3C296.3 187.3 296.3 187.3 296.4 187.3H296.5C297 187.4 297.5 187.5 298 187.6C298.2 187.6 298.4 187.7 298.6 187.7C299 187.8 299.4 187.9 299.7 188C299.9 188.1 300.1 188.1 300.3 188.2C300.6 188.3 301 188.4 301.3 188.6C301.5 188.7 301.7 188.7 301.9 188.8C302.2 188.9 302.6 189.1 302.9 189.3C303 189.3 303 189.4 303.1 189.4C303.2 189.4 303.3 189.5 303.4 189.5C303.8 189.7 304.3 190 304.6 190.3C312 195.4 312.3 202.4 312.1 206.6C311.9 210.4 310.7 216.4 309.5 221.6C311.2 217.6 313.6 212.8 317.1 208.9C320.1 205.6 325.2 202.4 329.7 202.2C330.1 202.2 330.5 202.2 330.9 202.2C331.2 202.2 331.4 202.2 331.7 202.2C332 202.2 332.2 202.2 332.4 202.3C332.6 202.3 332.9 202.3 333.1 202.4C333.3 202.4 333.6 202.5 333.8 202.5C334 202.5 334.3 202.6 334.5 202.6C334.7 202.6 334.9 202.7 335.1 202.7C335.3 202.7 335.4 202.8 335.5 202.8C335.6 202.8 335.6 202.8 335.7 202.9C335.9 203 336.1 203 336.3 203.1C336.5 203.2 336.7 203.2 336.9 203.3C337.1 203.4 337.2 203.4 337.4 203.5H337.5C337.7 203.6 337.9 203.7 338.1 203.8C338.3 203.9 338.4 204 338.6 204C338.7 204.1 338.8 204.1 338.9 204.2C339 204.2 339.1 204.3 339.2 204.3C339.3 204.4 339.5 204.4 339.6 204.5C339.6 204.5 339.7 204.5 339.7 204.6C339.9 204.7 340.1 204.8 340.2 204.9C340.3 205 340.5 205.1 340.6 205.2C340.8 205.3 340.9 205.4 341.1 205.6C341.2 205.7 341.4 205.8 341.5 205.9C341.7 206 341.8 206.2 342 206.3C342.1 206.4 342.2 206.5 342.4 206.6C342.5 206.7 342.6 206.8 342.7 206.9C342.8 207 342.8 207 342.9 207.1C343 207.2 343.1 207.3 343.2 207.5C343.3 207.7 343.5 207.8 343.6 208C343.7 208.1 343.7 208.2 343.8 208.2L343.9 208.3C344 208.5 344.2 208.6 344.3 208.8C344.4 208.9 344.5 209.1 344.6 209.2C344.7 209.4 344.8 209.5 345 209.7C345.1 209.8 345.1 209.9 345.2 210V210.1C345.3 210.3 345.4 210.5 345.5 210.6C345.6 210.7 345.6 210.9 345.7 211V211.1C345.8 211.2 345.8 211.3 345.9 211.4C345.9 211.5 346 211.5 346 211.6C346.1 211.7 346.1 211.9 346.2 212C346.3 212.2 346.4 212.4 346.5 212.6C346.6 212.7 346.6 212.9 346.7 213C346.7 213 346.7 213.1 346.8 213.1C346.9 213.2 346.9 213.4 347 213.5C347.1 213.6 347.1 213.8 347.1 213.9C347.1 214 347.2 214.1 347.2 214.3C347.2 214.4 347.2 214.4 347.3 214.5C347.3 214.6 347.4 214.8 347.4 214.9C347.4 215 347.5 215.2 347.5 215.3V215.4C347.5 215.5 347.6 215.7 347.6 215.8C347.7 216 347.7 216.2 347.8 216.4C347.8 216.5 347.9 216.7 347.9 216.8V216.9V217C347.9 217.1 348 217.2 348 217.4C348 217.5 348 217.6 348.1 217.7V217.8C348.1 218 348.2 218.1 348.2 218.3C348.2 218.4 348.2 218.5 348.2 218.5C348.2 218.6 348.2 218.6 348.2 218.7V218.8C348.2 218.9 348.2 219 348.3 219.2C348.3 219.3 348.3 219.5 348.4 219.6V219.7C348.4 219.8 348.4 219.9 348.4 220.1C348.4 220.2 348.4 220.4 348.4 220.5C348.4 220.6 348.4 220.8 348.4 220.9C348.4 221 348.4 221.2 348.4 221.3C348.4 221.4 348.4 221.6 348.4 221.7C348.4 221.8 348.4 221.8 348.4 221.8C348.4 221.9 348.4 222 348.4 222.1C348.4 222.2 348.4 222.3 348.4 222.4C348.4 222.5 348.4 222.7 348.4 222.8C348.4 222.8 348.4 222.8 348.4 222.9C348.4 223 348.4 223 348.4 223.1C348.4 223.2 348.4 223.2 348.4 223.3C348.4 223.4 348.4 223.5 348.4 223.5C348.4 223.6 348.4 223.7 348.4 223.7C348.4 223.8 348.4 223.9 348.4 224V224.1V224.2V224.3C348.4 224.5 348.4 224.7 348.3 224.8C343.5 219.7 338.1 218 334.8 217.2C334.7 217.2 334.5 217.1 334.3 217.1H334.2H334.1C334 217.1 333.8 217.1 333.7 217H333.6H333.5C333.3 217 333.2 217 333 216.9H332.8C332.5 216.9 332.3 216.8 332 216.8C332 216.8 331.9 216.8 331.8 216.8C331.6 216.8 331.3 216.8 331.1 216.8C331 216.8 330.9 216.8 330.8 216.8C330.6 216.8 330.3 216.8 330.1 216.8C330 216.8 329.9 216.8 329.8 216.8C329.6 216.8 329.5 216.8 329.3 216.8C329 216.8 328.7 216.8 328.4 216.8H327.9C327.7 216.8 327.6 216.8 327.4 216.8C327.3 216.8 327.1 216.8 327 216.8C326.8 216.8 326.7 216.8 326.5 216.8C326.1 216.8 325.8 216.9 325.4 216.9H325.3C325.2 216.9 325.1 216.9 325.1 216.9C324.6 217 324.2 217.1 323.7 217.2C323.6 217.2 323.5 217.3 323.4 217.3C323.1 217.4 322.7 217.5 322.4 217.6C322.3 217.6 322.2 217.7 322 217.7H321.9C321.6 217.8 321.3 217.9 321 218C320.8 218.1 320.7 218.1 320.5 218.2C320.2 218.3 319.9 218.5 319.6 218.6C319.5 218.7 319.3 218.7 319.2 218.8C318.8 219 318.4 219.3 318 219.5C315.8 220.6 313.7 222.6 311.7 224.7C312.2 224.5 312.8 224.3 313.3 224.1C313.4 224.1 313.5 224 313.7 224C313.8 224 313.9 223.9 313.9 223.9C314 223.9 314.1 223.8 314.1 223.8C314.4 223.7 314.7 223.6 314.9 223.5C315.1 223.4 315.4 223.4 315.6 223.3H315.8H315.9C316.2 223.2 316.4 223.2 316.7 223.1C316.8 223.1 317 223 317.1 223C317.2 223 317.3 223 317.4 222.9C317.7 222.8 318 222.7 318.4 222.7C318.6 222.7 318.7 222.6 318.9 222.6C319 222.6 319.1 222.6 319.1 222.6C319.4 222.5 319.7 222.5 320 222.4C320.2 222.4 320.4 222.3 320.6 222.3H320.7C321 222.3 321.3 222.2 321.6 222.2C321.8 222.2 322 222.2 322.2 222.1H322.3C322.6 222.1 322.9 222.1 323.2 222C323.4 222 323.7 222 323.9 222C324.3 222 324.7 222 325.1 222C338.7 222.5 347.8 235.3 337.9 249.9C337.1 242.4 331.9 232 320.3 229.6C319.8 229.5 319.2 229.4 318.7 229.3C318.6 229.3 318.4 229.3 318.3 229.2C317.9 229.1 317.5 229.1 317.1 229C317 229 316.8 229 316.7 229C316.3 229 316 228.9 315.6 228.9C315.5 228.9 315.4 228.9 315.3 228.9C315.2 228.9 315.2 228.9 315.1 228.9C314.8 228.9 314.4 228.9 314.1 228.9C313.1 228.9 312.1 229 311.1 229.1H311C310 229.2 308.9 229.4 307.8 229.6C306.1 231.4 305 233 303.5 235.4C300.9 239.4 296.9 249 295.6 260C295 265.5 295.2 272.8 296.1 279.9C301.6 287.4 307.4 294.7 313.7 301.6C295.9 300.1 276.4 298.9 255.7 298C262.6 293.6 267.3 289.5 267.3 286.5C267.3 284.9 264.6 283.8 260.2 283.1C259.9 283.1 259.6 283 259.3 283C259.2 283 259.1 283 259 283C258.7 283 258.5 282.9 258.2 282.9C258.1 282.9 258 282.9 257.9 282.9C257.5 282.9 257.1 282.8 256.7 282.8C256.7 282.8 256.7 282.8 256.6 282.8C256.1 282.8 255.6 282.8 255.1 282.7H254.7C254.3 282.7 253.9 282.7 253.4 282.7C253.3 282.7 253.1 282.7 253 282.7C252.5 282.7 251.9 282.7 251.4 282.7H251.2C250.6 282.7 249.9 282.7 249.2 282.7H248.8C248.2 282.7 247.7 282.7 247.1 282.7C246.9 282.7 246.7 282.7 246.5 282.7C246 282.7 245.4 282.7 244.8 282.7C244.6 282.7 244.4 282.7 244.2 282.7H244.1C243.5 282.7 242.8 282.7 242.2 282.8H242C241.9 282.8 241.8 282.8 241.7 282.8C240.9 282.8 240 282.9 239.1 282.9C239 282.9 238.9 282.9 238.8 282.9C238 282.9 237.2 283 236.4 283H236.3C236.1 283 235.9 283 235.7 283C235 283 234.3 283.1 233.6 283.1C233.3 283.1 233.1 283.1 232.8 283.2C232.1 283.3 231.3 283.3 230.6 283.4C230.5 283.4 230.4 283.4 230.2 283.4C230.1 283.4 230 283.4 229.9 283.4C227.9 283.6 225.9 283.8 223.9 284C223.7 284 223.5 284 223.4 284.1C223.3 284.1 223.2 284.1 223.1 284.1C222.3 284.2 221.6 284.3 220.8 284.4C220.5 284.4 220.1 284.5 219.8 284.5C219 284.6 218.3 284.7 217.5 284.8C217.4 284.8 217.3 284.8 217.2 284.8C217 284.8 216.8 284.8 216.6 284.9C215.6 285 214.5 285.2 213.5 285.3H213.4C212.3 285.4 211.2 285.6 210 285.8C209.9 285.8 209.7 285.8 209.6 285.9C209.5 285.9 209.3 285.9 209.2 286H209.1C208.3 286.1 207.5 286.2 206.7 286.4H206.5C206.4 286.4 206.2 286.4 206.1 286.5C206 286.5 205.8 286.5 205.7 286.6C204.9 286.7 204.1 286.9 203.3 287C202.9 287.1 202.6 287.1 202.2 287.2C201.3 287.4 200.3 287.5 199.4 287.7C199.2 287.7 199.1 287.8 198.9 287.8H198.7C197.5 288 196.4 288.2 195.2 288.5C195.1 288.5 194.9 288.6 194.8 288.6C194.7 288.6 194.6 288.6 194.4 288.7C193.5 288.9 192.6 289.1 191.7 289.3C191.4 289.4 191.2 289.4 190.9 289.5C190.8 289.5 190.7 289.5 190.5 289.6C189.7 289.8 188.9 289.9 188.1 290.1C188 290.1 187.9 290.1 187.8 290.2C187.5 290.3 187.2 290.3 186.9 290.4C186 290.6 185.2 290.8 184.3 291C184 291.1 183.7 291.1 183.4 291.2C182.2 291.5 181.1 291.8 179.9 292.1C179.8 292.1 179.7 292.1 179.6 292.2C179.5 292.2 179.4 292.2 179.3 292.3C178.3 292.6 177.3 292.8 176.4 293.1C176.2 293.2 176 293.2 175.7 293.3C175.6 293.3 175.4 293.4 175.3 293.4C174.5 293.6 173.7 293.8 172.9 294.1C172.7 294.1 172.6 294.2 172.4 294.2C172.2 294.3 171.9 294.3 171.7 294.4C170.9 294.6 170.1 294.9 169.3 295.1C168.9 295.2 168.6 295.3 168.2 295.4C167.2 295.7 166.2 296.1 165.1 296.4V296.3C170.1 292.7 172 291.1 175.1 288.2C176.9 286.5 178.2 284.7 179.2 283.1C180.7 280.5 181 278.4 179 277.6C178.7 277.5 178.3 277.3 178 277.2C177.9 277.2 177.9 277.2 177.8 277.1H177.7C177.4 277 177.1 276.9 176.8 276.9C176.7 276.9 176.5 276.8 176.4 276.8C176 276.7 175.6 276.6 175.2 276.6H175.1C175.1 276.6 175.1 276.6 175 276.6C174.5 276.5 174 276.4 173.5 276.4C173.4 276.4 173.3 276.4 173.2 276.4C173.1 276.4 173.1 276.4 173 276.4C172.6 276.4 172.2 276.3 171.7 276.3C171.5 276.3 171.3 276.3 171.1 276.2C170.6 276.2 170.1 276.1 169.5 276.1C169.4 276.1 169.3 276.1 169.2 276.1C168.5 276.1 167.9 276 167.2 276C167 276 166.9 276 166.7 276C166.1 276 165.6 276 165 276H164.3C163.6 276 163 276 162.3 276C162.2 276 162 276 161.9 276C161.1 276 160.2 276.1 159.3 276.1C159.1 276.1 158.9 276.1 158.7 276.1C158 276.1 157.3 276.2 156.5 276.2C156.2 276.2 156 276.2 155.7 276.3C154.9 276.4 154 276.4 153.2 276.5C153.1 276.5 152.9 276.5 152.8 276.5C151.8 276.6 150.8 276.7 149.7 276.8C149.6 276.8 149.4 276.8 149.3 276.8C149.2 276.8 149.1 276.8 149 276.8C148.2 276.9 147.3 277 146.5 277.1C146.2 277.1 145.9 277.2 145.6 277.2C144.6 277.3 143.6 277.4 142.6 277.6C142.5 277.6 142.4 277.6 142.2 277.6C141 277.7 139.8 277.9 138.6 278.1C138.3 278.1 138 278.2 137.7 278.2C136.7 278.3 135.8 278.5 134.8 278.6C134.5 278.7 134.1 278.7 133.8 278.8C132.6 279 131.4 279.2 130.2 279.4C130.1 279.4 130 279.4 130 279.4C128.7 279.6 127.3 279.9 126 280.1C125.6 280.2 125.3 280.2 124.9 280.3C123.8 280.5 122.8 280.7 121.7 280.9H121.6C121.3 281 121.1 281 120.8 281.1L120.5 281.2C119.1 281.5 117.8 281.7 116.4 282C116.3 282 116.3 282 116.2 282C114.7 282.3 113.2 282.6 111.7 282.9C111.3 283 110.9 283.1 110.4 283.2C109.3 283.4 108.1 283.7 106.9 283.9C106.2 283.1 105.8 283.2 105.3 283.3Z" fill="white"/>
<path d="M1010.2 131.8C1013.9 128.9 1016.8 126.5 1018.9 124.6C1021 122.7 1022.8 120.7 1024.2 118.7C1025.7 116.6 1026.4 114.6 1026.4 112.6C1026.4 110.7 1025.9 109.3 1025 108.2C1024.1 107.1 1022.6 106.6 1020.6 106.6C1018.6 106.6 1017.1 107.2 1015.9 108.5C1014.8 109.7 1014.2 111.3 1014.1 113.4H1010.2C1010.3 110.2 1011.3 107.7 1013.2 105.9C1015.1 104.1 1017.5 103.3 1020.4 103.3C1023.4 103.3 1025.8 104.1 1027.5 105.8C1029.3 107.4 1030.2 109.7 1030.2 112.6C1030.2 115 1029.5 117.3 1028 119.6C1026.6 121.8 1024.9 123.8 1023.1 125.5C1021.3 127.2 1018.9 129.2 1016 131.4H1031.1V134.7H1010V131.8H1010.2ZM1008.3 169.3C1008.3 164.4 1009.1 160.5 1010.8 157.7C1012.4 154.9 1015.3 153.5 1019.4 153.5C1023.5 153.5 1026.3 154.9 1028 157.7C1029.6 160.5 1030.4 164.3 1030.4 169.3C1030.4 174.3 1029.6 178.2 1028 181C1026.4 183.8 1023.5 185.2 1019.4 185.2C1015.3 185.2 1012.4 183.8 1010.8 181C1009.1 178.2 1008.3 174.3 1008.3 169.3ZM1026.4 169.3C1026.4 166.8 1026.2 164.7 1025.9 163C1025.6 161.2 1024.9 159.8 1023.8 158.8C1022.8 157.7 1021.3 157.2 1019.3 157.2C1017.3 157.2 1015.8 157.7 1014.7 158.8C1013.7 159.9 1013 161.3 1012.6 163C1012.3 164.7 1012.1 166.8 1012.1 169.3C1012.1 171.9 1012.3 174.1 1012.6 175.8C1012.9 177.6 1013.6 179 1014.7 180C1015.7 181.1 1017.3 181.6 1019.3 181.6C1021.3 181.6 1022.8 181.1 1023.8 180C1024.8 178.9 1025.5 177.5 1025.9 175.8C1026.3 174 1026.4 171.9 1026.4 169.3ZM1010.2 232.3C1013.9 229.4 1016.8 227 1018.9 225.1C1021 223.2 1022.8 221.2 1024.2 219.2C1025.7 217.1 1026.4 215.1 1026.4 213.1C1026.4 211.2 1025.9 209.8 1025 208.7C1024.1 207.6 1022.6 207.1 1020.6 207.1C1018.6 207.1 1017.1 207.7 1015.9 209C1014.8 210.2 1014.2 211.8 1014.1 213.9H1010.2C1010.3 210.7 1011.3 208.2 1013.2 206.4C1015.1 204.6 1017.5 203.8 1020.4 203.8C1023.4 203.8 1025.8 204.6 1027.5 206.3C1029.3 207.9 1030.2 210.2 1030.2 213.1C1030.2 215.5 1029.5 217.8 1028 220.1C1026.6 222.3 1024.9 224.3 1023.1 226C1021.3 227.7 1018.9 229.7 1016 231.9H1031.1V235.2H1010V232.3H1010.2Z" fill="white"/>
<path d="M1029.8 260H1014.7V269.8C1015.4 268.9 1016.3 268.1 1017.6 267.6C1018.9 267 1020.3 266.7 1021.8 266.7C1024.2 266.7 1026.1 267.2 1027.6 268.2C1029.1 269.2 1030.2 270.5 1030.8 272C1031.5 273.6 1031.8 275.2 1031.8 277C1031.8 279.1 1031.4 280.9 1030.6 282.6C1029.8 284.2 1028.6 285.5 1027 286.5C1025.4 287.4 1023.4 287.9 1021.1 287.9C1018.1 287.9 1015.6 287.1 1013.8 285.6C1011.9 284.1 1010.8 282 1010.4 279.4H1014.2C1014.6 281 1015.4 282.3 1016.6 283.2C1017.8 284.1 1019.3 284.6 1021.2 284.6C1023.5 284.6 1025.2 283.9 1026.3 282.6C1027.4 281.2 1028 279.4 1028 277.2C1028 275 1027.4 273.2 1026.3 272C1025.1 270.8 1023.5 270.1 1021.2 270.1C1019.7 270.1 1018.3 270.5 1017.2 271.2C1016.1 271.9 1015.3 272.9 1014.7 274.2H1011V256.6H1029.7V260H1029.8Z" fill="white"/>
</svg>
