<svg width="1798" height="589" viewBox="0 0 1798 589" fill="none" xmlns="http://www.w3.org/2000/svg">
<g clip-path="url(#clip0_4017_12582)">
<path d="M266.727 494.854H461.682C487.543 494.854 508.492 473.909 508.492 448.054V239.205C508.492 225.476 502.478 212.347 491.953 203.528C470.503 185.389 449.153 167.351 427.703 149.212V41.1794H348.217V81.9671C330.175 66.7344 312.133 51.4014 293.991 36.1687C276.349 21.2366 250.489 21.437 233.048 36.5695C169.099 92.1891 105.049 147.909 41.1 203.528C30.8761 212.447 25.0625 225.275 25.0625 238.804V448.054C25.0625 473.909 46.0114 494.854 71.8718 494.854H179.824" stroke="#F79422" stroke-width="48.2725" stroke-linecap="round" stroke-linejoin="round"/>
<path d="M295.562 235.895C331.446 235.895 360.614 263.153 360.614 296.825C360.614 330.498 331.547 357.756 295.562 357.756" stroke="#F79422" stroke-width="48.2725" stroke-linecap="round" stroke-linejoin="round"/>
<path d="M296.701 235.995L179.828 235.895" stroke="#F79422" stroke-width="48.2725" stroke-linecap="round" stroke-linejoin="round"/>
<path d="M179.828 494.851V235.895" stroke="#F79422" stroke-width="48.2725" stroke-linecap="round" stroke-linejoin="round"/>
<path d="M297.5 357.752C336.491 354.445 370.972 382.204 374.38 419.785C377.788 457.366 349.02 490.537 310.029 493.844" stroke="#F79422" stroke-width="48.2725" stroke-linecap="round" stroke-linejoin="round"/>
<path d="M266.727 207.248V162.652" stroke="#F79422" stroke-width="48.2725" stroke-linecap="round" stroke-linejoin="round"/>
<path d="M266.727 563.399V494.852" stroke="#F79422" stroke-width="48.2725" stroke-linecap="round" stroke-linejoin="round"/>
<path d="M826.448 132.586H875.462L1009.68 450.87H950.237L917.16 369.695H781.543L748.466 450.87H692.234L826.448 132.586ZM802.893 317.583H895.91L849.702 204.641L802.993 317.583H802.893Z" fill="white"/>
<path d="M1054.67 143C1069.6 143 1084.64 154.825 1084.64 173.365C1084.64 194.21 1069.7 206.035 1054.67 206.035C1037.03 206.035 1021.99 194.21 1021.99 173.365C1021.99 154.825 1036.93 143 1054.67 143ZM1027.51 246.823H1079.63V450.862H1027.51V246.823Z" fill="white"/>
<path d="M1122.62 246.823H1174.75V266.765C1184.27 253.637 1197 243.215 1221.46 243.215C1238.19 243.215 1246.41 245.921 1253.23 250.931L1234.69 299.937C1224.66 294.024 1219.25 292.22 1208.43 292.22C1190.28 292.22 1180.76 302.242 1174.85 313.967V450.861H1122.73V246.823H1122.62Z" fill="white"/>
<path d="M1260.54 133.488H1312.66V259.559C1325.39 249.538 1344.83 241.821 1366.59 241.821C1427.33 241.821 1463.61 285.315 1463.61 345.644C1463.61 412.788 1418.71 455.781 1347.04 455.781C1313.46 455.781 1278.98 444.857 1260.44 433.132V133.488H1260.54ZM1312.66 310.268V396.854C1323.99 404.07 1335.31 407.277 1349.85 407.277C1382.52 407.277 1407.88 385.931 1407.88 349.252C1407.88 310.268 1383.83 290.726 1354.36 290.726C1336.21 290.726 1321.28 300.247 1312.66 310.268Z" fill="white"/>
<path d="M1481.9 190.215H1534.03V246.937H1599.78V295.942H1534.03V370.302C1534.03 392.55 1541.24 406.981 1558.48 406.981C1572.52 406.981 1582.54 400.667 1589.76 395.155L1605.59 435.542C1593.37 445.564 1571.61 455.485 1545.25 455.485C1498.94 455.485 1481.8 425.521 1481.8 373.409V190.215H1481.9Z" fill="white"/>
<path d="M1798.02 420.493C1780.78 443.642 1749.91 455.869 1716.83 455.869C1650.58 455.869 1606.17 413.277 1606.17 348.839C1606.17 289.411 1649.67 241.809 1711.82 241.809C1745.4 241.809 1774.87 250.427 1793.91 269.468L1769.45 310.757C1754.02 295.825 1737.28 290.814 1718.63 290.814C1689.57 290.814 1661.9 313.062 1661.9 348.839C1661.9 384.616 1690.07 407.364 1720.84 407.364C1743.09 407.364 1760.33 396.942 1773.46 382.411L1797.92 420.493H1798.02Z" fill="white"/>
</g>
<defs>
<clipPath id="clip0_4017_12582">
<rect width="1798" height="588.465" fill="white"/>
</clipPath>
</defs>
</svg>
