<svg width="380" height="114" viewBox="0 0 380 114" fill="none" xmlns="http://www.w3.org/2000/svg">
<path d="M58.5084 108.536C55.5888 108.398 48.9204 107.702 43.4998 106.313C23.627 101.033 11.6757 84.7715 11.6757 64.7609C11.6757 57.5334 13.7608 50.7246 16.6777 44.8881C8.33753 42.2466 0 34.7437 0 23.2084C0 10.4226 10.4226 0 23.2084 0C35.9942 0 45.304 9.72844 46.9731 21.5393C53.2256 19.4542 59.8967 18.4819 66.5677 18.4819C94.7781 18.4819 114.654 38.217 118.265 56.4207C118.543 57.9494 118.959 60.0344 118.959 61.7009C114.373 61.2849 109.23 61.0067 104.922 61.2849C104.922 64.0641 104.644 69.0661 102.559 74.7648C103.532 76.5717 104.922 81.2955 104.922 86.022C104.922 102.421 92.693 113.4 75.7372 113.4C69.2065 113.4 63.3673 111.456 58.5057 108.536H58.5084ZM19.0383 41.1366C25.2908 32.799 32.9368 26.9625 42.803 22.9302C41.5525 12.5076 33.6309 4.17009 23.2084 4.17009C12.7858 4.17009 4.17009 12.7858 4.17009 23.2084C4.17009 33.6309 11.8135 39.3297 19.0409 41.1366H19.0383ZM44.6099 102.284C46.2763 102.7 48.9177 103.256 51.8373 103.675C46.6949 99.0886 43.0812 93.668 41.1366 89.6383C33.215 91.583 27.9348 85.3305 27.9348 79.9099C27.9348 75.3239 31.2704 71.5724 36.2723 71.2942C37.6633 75.0457 38.9137 78.103 40.7206 81.0226C43.9157 77.9653 47.6699 75.1861 52.6719 72.1287L54.0628 50.5868L64.7635 66.2896C78.7998 60.0344 98.2567 56.0048 114.238 57.2552C110.902 40.8557 92.6957 22.652 66.5704 22.652C40.4451 22.652 15.8432 40.0238 15.8432 64.7609C15.8432 82.6891 26.2657 97.2817 44.6099 102.284ZM33.3528 84.3555L36.9665 85.606C37.9388 83.3832 37.3824 78.2408 33.4932 75.4616L30.9922 78.3812C33.6336 80.1881 33.9118 83.105 33.3554 84.3582L33.3528 84.3555ZM72.9606 85.1901L75.0457 76.8525L79.3535 82.9673L83.5236 81.4386L73.3792 67.8182L68.2368 86.8565L72.9606 85.1901ZM97.8354 94.3621L95.0563 91.3048C90.4702 97.2817 82.4109 98.9482 75.8776 97.2817L75.4616 101.452C82.9673 103.259 92.4175 101.314 97.8354 94.3648V94.3621ZM90.192 79.0753L91.9989 71.016L96.169 76.993L99.6423 75.7425L90.4702 62.5407L86.022 80.6067L90.192 79.078V79.0753Z" fill="white"/>
<path d="M147.355 41.9736C147.839 41.9736 148.43 42.1882 148.753 42.9963L163.879 78.5242C164.149 79.115 164.04 79.7614 163.071 79.7614H156.879C156.503 79.7614 156.127 79.5468 155.965 79.115L147.352 58.7149L138.686 79.115C138.524 79.5468 138.148 79.7614 137.772 79.7614H131.904C131.042 79.7614 130.611 79.115 130.934 78.3626L145.953 42.9963C146.276 42.1882 146.867 41.9736 147.352 41.9736H147.355Z" fill="white"/>
<path d="M168.292 78.6861V53.1701C168.292 52.5766 168.777 52.0945 169.368 52.0945H174.481C175.075 52.0945 175.557 52.5793 175.557 53.1701V55.1094C176.471 53.4933 178.895 51.5566 182.554 51.5566C185.569 51.5566 188.152 52.8495 189.768 55.1624C191.975 52.5793 194.667 51.5566 197.843 51.5566C202.851 51.5566 207.749 55.0008 207.749 61.7302V78.6861C207.749 79.2769 207.265 79.7617 206.674 79.7617H201.56C200.97 79.7617 200.485 79.2769 200.485 78.6861V63.2377C200.485 59.9551 198.707 58.286 196.071 58.286C193.435 58.286 191.657 59.9551 191.657 63.2377V78.6861C191.657 79.2769 191.172 79.7617 190.582 79.7617H185.468C184.875 79.7617 184.393 79.2769 184.393 78.6861V63.2377C184.393 59.9551 182.615 58.286 179.979 58.286C177.343 58.286 175.565 59.9551 175.565 63.2377V78.6861C175.565 79.2769 175.08 79.7617 174.489 79.7617H169.376C168.783 79.7617 168.3 79.2769 168.3 78.6861H168.292Z" fill="white"/>
<path d="M219.054 38.0977C221.746 38.0977 223.9 40.2516 223.9 42.9433C223.9 45.6351 221.746 47.789 219.054 47.789C216.362 47.789 214.208 45.6351 214.208 42.9433C214.208 40.2516 216.362 38.0977 219.054 38.0977ZM216.471 52.0942H221.584C222.178 52.0942 222.66 52.579 222.66 53.1698V78.6858C222.66 79.2766 222.175 79.7614 221.584 79.7614H216.471C215.88 79.7614 215.395 79.2766 215.395 78.6858V53.1698C215.395 52.5764 215.88 52.0942 216.471 52.0942Z" fill="white"/>
<path d="M233.266 44.1279H238.379C238.972 44.1279 239.454 44.6128 239.454 45.2036V52.0945H245.376C245.969 52.0945 246.451 52.5794 246.451 53.1702V57.7456C246.451 58.3391 245.967 58.8213 245.376 58.8213H239.454V70.2877C239.454 72.4416 240.315 73.3026 242.737 73.3026C243.489 73.3026 244.297 73.194 245.053 72.9264C245.646 72.7118 246.128 72.9794 246.128 73.5729V78.3099C246.128 79.0623 245.696 79.4412 245.053 79.6558C243.815 80.0876 242.252 80.3022 240.639 80.3022C235.255 80.3022 232.187 77.1257 232.187 71.313V58.8239H228.203C227.609 58.8239 227.127 58.3391 227.127 57.7483V53.1728C227.127 52.5794 227.612 52.0972 228.203 52.0972H232.187V45.2062C232.187 44.6128 232.672 44.1306 233.263 44.1306L233.266 44.1279Z" fill="white"/>
<path d="M256.842 52.7402L264.109 70.4511L271.376 52.7402C271.538 52.3083 271.861 52.0938 272.29 52.0938H277.941C278.802 52.0938 279.179 52.6872 278.855 53.4396L266.152 83.3164C263.46 89.6139 259.96 91.1744 255.332 91.1744C252.64 91.1744 250.38 90.5836 249.357 90.0988C248.873 89.8842 248.605 89.5053 248.605 89.0761V84.2861C248.605 83.478 249.304 82.9402 250.112 83.2634C251.62 83.9099 252.751 84.1775 254.797 84.1775C258.026 84.1775 258.996 82.1322 260.286 79.0086L249.466 53.4926C249.143 52.7402 249.519 52.0938 250.38 52.0938H255.925C256.354 52.0938 256.678 52.3083 256.839 52.7402H256.842Z" fill="white"/>
<path d="M291.723 41.9736C292.208 41.9736 292.799 42.1882 293.122 42.9963L308.247 78.5242C308.518 79.115 308.409 79.7614 307.439 79.7614H301.248C300.871 79.7614 300.495 79.5468 300.334 79.115L291.721 58.7149L283.055 79.115C282.893 79.5468 282.517 79.7614 282.14 79.7614H276.272C275.411 79.7614 274.979 79.115 275.303 78.3626L290.322 42.9963C290.645 42.1882 291.236 41.9736 291.721 41.9736H291.723Z" fill="white"/>
<path d="M309.702 65.6592C309.702 57.2077 315.461 51.5566 322.458 51.5566C325.635 51.5566 328.218 52.6879 329.993 54.7862V53.1701C329.993 52.5766 330.478 52.0945 331.069 52.0945H336.182C336.775 52.0945 337.258 52.5793 337.258 53.1701V77.3932C337.258 86.7586 331.175 91.1725 321.701 91.1725C318.794 91.1725 315.294 90.473 313.141 89.5034C312.656 89.2888 312.388 88.9099 312.388 88.4807V83.9053C312.388 83.0972 313.088 82.4508 313.896 82.8296C315.888 83.7437 318.633 84.1755 321.595 84.1755C326.869 84.1755 329.993 82.2388 329.993 77.931V76.5321C328.218 78.6331 325.632 79.7617 322.458 79.7617C315.461 79.7617 309.702 74.1106 309.702 65.6592ZM323.698 73.035C327.251 73.035 330.213 70.2902 330.213 65.6592C330.213 61.0281 327.254 58.286 323.698 58.286C320.143 58.286 317.13 61.0307 317.13 65.6592C317.13 70.2876 320.145 73.035 323.698 73.035Z" fill="white"/>
<path d="M366.973 78.4185C364.604 79.4941 361.966 80.3022 357.446 80.3022C348.562 80.3022 342.641 74.1106 342.641 65.9294C342.641 57.7482 348.562 51.5566 356.476 51.5566C364.39 51.5566 370.311 57.7482 370.311 66.1996C370.311 66.6845 370.311 67.3309 370.096 67.9773C369.935 68.5152 369.506 68.8914 368.965 68.8914H350.449C351.363 72.068 354.002 73.6284 357.986 73.6284C361.163 73.6284 363.37 73.035 366.167 72.1209C366.975 71.8507 367.566 72.4971 367.566 73.1436V77.5044C367.566 77.8806 367.352 78.2569 366.973 78.4185ZM362.668 63.076C361.807 59.7935 359.491 58.2304 356.532 58.2304C353.572 58.2304 351.257 59.8465 350.396 63.076H362.668Z" fill="white"/>
<path d="M371.925 49.2407C371.925 46.9808 373.703 45.2031 375.962 45.2031C378.222 45.2031 380 46.9782 380 49.2407C380 51.5033 378.222 53.2784 375.962 53.2784C373.703 53.2784 371.925 51.5033 371.925 49.2407ZM375.962 52.6849C377.846 52.6849 379.407 51.1244 379.407 49.2407C379.407 47.3571 377.846 45.7966 375.962 45.7966C374.079 45.7966 372.518 47.3571 372.518 49.2407C372.518 51.1244 374.079 52.6849 375.962 52.6849ZM374.455 46.9252H376.286C377.255 46.9252 377.899 47.5187 377.899 48.3797C377.899 48.9705 377.523 49.4553 376.929 49.6726L377.952 51.5563H377.2L376.286 49.7812H375.101V51.5563H374.455V46.9279V46.9252ZM376.286 49.2407C376.823 49.2407 377.255 48.8645 377.255 48.3797C377.255 47.8419 376.823 47.5187 376.286 47.5187H375.101V49.2407H376.286Z" fill="white"/>
</svg>
