<svg width="289" height="112" viewBox="0 0 289 112" fill="none" xmlns="http://www.w3.org/2000/svg">
<g clip-path="url(#clip0_4169_6016)">
<path fill-rule="evenodd" clip-rule="evenodd" d="M45.0402 70.4971C42.9142 70.4726 41.5946 69.909 40.3485 69.2228C37.9295 67.924 35.5347 66.6009 33.1402 65.2777C29.149 63.0886 25.1662 60.8915 21.1914 58.6861C20.1407 58.1224 19.09 57.5589 18.1125 56.8972C17.4773 56.4807 16.8908 55.9171 16.402 55.329C15.4736 54.2018 15.4004 52.8541 15.9379 51.5553C16.6953 49.742 17.5994 47.9778 18.5035 46.2379C19.8476 43.5914 21.2402 40.9941 22.6331 38.372C24.2702 35.2356 25.9317 32.0991 27.5934 28.938C29.2549 25.7769 30.9165 22.5669 32.6027 19.3814C34.0198 16.6369 35.4859 13.8925 36.9276 11.148C38.0761 8.96714 39.2001 6.73725 40.3729 4.55639C41.0571 3.25766 41.6924 1.88543 42.7676 0.831751C43.6228 -0.0258947 44.5758 -0.246433 45.5043 0.292659C45.9931 0.586709 46.4818 1.00328 46.7749 1.46885C47.5325 2.64505 48.241 3.84576 48.9009 5.07097C49.8782 6.85977 50.8067 8.69758 51.7598 10.5109C53.2014 13.2798 54.643 16.0488 56.0848 18.8178C57.2088 20.9742 58.3572 23.1059 59.4812 25.2624C60.475 27.1737 61.4767 29.0851 62.4868 30.9963C63.513 32.9813 64.5637 34.9415 65.5899 36.9263C66.5919 38.8131 67.5692 40.7245 68.571 42.6113C69.8418 45.0618 71.1368 47.4631 72.3586 49.938C72.725 50.6241 72.9694 51.3838 73.1893 52.1434C73.6292 53.8342 73.0427 55.2555 71.7476 56.2357C70.5748 57.1178 69.3285 57.8284 68.0823 58.539C65.8833 59.7888 63.6595 60.9894 61.4604 62.1901C59.1391 63.4644 56.8178 64.714 54.4965 65.9884C52.3706 67.1644 50.2447 68.3407 48.0945 69.4679C46.9215 70.105 45.6999 70.4971 45.0402 70.4971ZM34.0443 48.6884C34.9728 49.203 35.8523 49.7174 36.7323 50.1831C39.1268 51.5063 41.5214 52.8051 43.9161 54.1283C44.307 54.3488 44.6492 54.3488 45.0402 54.1528C47.2148 52.9522 49.3896 51.7513 51.5887 50.5506C52.6801 49.9462 53.7796 49.3337 54.8875 48.7129C54.2276 47.0467 44.7467 29.1831 44.3803 28.987C40.9349 35.5296 37.4896 42.0967 34.0443 48.6884Z" fill="white"/>
<path fill-rule="evenodd" clip-rule="evenodd" d="M197.135 65.7436C197.135 72.9554 197.169 80.1672 197.135 87.379C197.104 91.0981 196.523 94.7525 195.066 98.2129C192.676 103.97 188.634 107.883 182.847 109.694C175.962 111.828 169.075 111.505 162.384 108.788C157.308 106.718 153.623 103.032 151.619 97.6956C151.198 96.5635 150.843 95.367 150.649 94.2028C150.423 92.8769 151.296 91.7772 152.556 91.7449C153.559 91.7126 154.593 91.7126 155.595 91.7126C158.181 91.7126 160.767 91.7449 163.321 91.7126C164.614 91.7126 165.616 92.133 166.36 93.2648C168.106 95.8845 170.66 96.5635 173.537 96.4989C175.702 96.4665 177.675 95.8845 179.162 94.2028C180.487 92.7151 181.037 90.8717 181.231 88.9313C181.361 87.6379 181.295 86.3118 181.329 84.9858C181.329 84.6948 181.295 84.4361 181.231 84.1773C181.037 83.0778 180.391 82.7867 179.517 83.4336C178.515 84.1449 177.61 85.0181 176.576 85.6649C173.537 87.6053 170.175 88.2199 166.683 87.9288C159.539 87.3467 154.399 83.4659 151.49 76.8685C147.545 68.0075 147.545 58.92 151.49 49.9941C153.59 45.3048 157.049 41.8444 161.834 40.1304C167.104 38.2871 172.277 38.578 177.093 41.7151C177.869 42.2325 178.58 42.9116 179.323 43.4936C180.422 44.3345 181.102 44.0111 181.295 42.6207C181.329 42.2325 181.361 41.8444 181.425 41.4563C181.586 40.5184 182.33 39.7748 183.268 39.6775C183.722 39.6129 184.206 39.6129 184.658 39.6129C187.955 39.6129 191.253 39.6129 194.549 39.6129C194.905 39.6129 195.262 39.6775 195.617 39.7424C196.426 39.9041 196.91 40.4538 197.04 41.2946C197.169 41.9414 197.169 42.653 197.169 43.332C197.19 50.7917 197.202 58.2624 197.202 65.7436C197.179 65.7436 197.158 65.7436 197.135 65.7436ZM181.329 62.93C181.329 61.8629 181.133 60.3752 180.585 58.9523C179.356 55.6859 177.093 53.7132 173.666 53.4545C170.273 53.1958 167.523 54.6511 166.005 57.8849C164.226 61.6365 164.259 65.5172 166.263 69.204C169.011 74.2491 175.768 74.7342 179.26 70.2065C180.778 68.2338 181.329 65.8729 181.329 62.93Z" fill="white"/>
<path d="M95.5948 63.3151C95.5948 56.3619 95.5625 49.3764 95.5948 42.3911C95.5948 41.809 95.7887 41.1944 95.9826 40.6124C96.2089 39.9009 96.8232 39.5775 97.5344 39.5129C97.987 39.4482 98.4397 39.4482 98.8922 39.4482C102.211 39.4482 105.53 39.4482 108.849 39.4482C109.172 39.4482 109.485 39.4696 109.787 39.5129C110.627 39.6745 111.274 40.3214 111.403 41.1944C111.5 41.7443 111.532 42.2941 111.597 42.8761C111.759 44.1375 112.47 44.4931 113.505 43.7493C114.054 43.3613 114.507 42.9408 115.024 42.5204C118.547 39.8038 122.523 38.769 126.888 39.0924C130.638 39.3836 134 40.677 136.781 43.4259C139.399 46.0131 140.886 49.2471 141.694 52.8369C142.437 56.1356 142.437 59.4666 142.437 62.7976C142.437 69.7613 142.437 76.7361 142.437 83.7214C142.437 84.3035 142.406 84.8858 142.341 85.4678C142.18 86.4703 141.663 86.9878 140.692 87.1818C140.304 87.2467 139.905 87.279 139.495 87.279C136.177 87.279 132.869 87.279 129.571 87.279C129.42 87.279 129.28 87.279 129.151 87.279C127.341 87.1818 126.726 86.5351 126.629 84.6593C126.629 84.2389 126.629 83.7861 126.629 83.3657C126.629 76.1648 126.619 68.953 126.598 61.7303C126.598 60.0163 126.338 58.3669 125.595 56.8147C124.205 53.8717 121.263 52.3841 117.934 52.8692C114.345 53.419 111.953 56.1679 111.597 60.081C111.532 60.9219 111.5 61.7626 111.5 62.6035C111.5 69.9446 111.5 77.2535 111.468 84.5623C111.489 84.8425 111.479 85.1228 111.435 85.4032C111.242 86.5027 110.724 87.0525 109.657 87.1818C109.108 87.279 108.558 87.279 108.041 87.279C105.067 87.3004 102.082 87.3004 99.0862 87.279C98.5043 87.279 97.89 87.2467 97.3081 87.1494C96.4999 87.0201 95.9826 86.5028 95.821 85.6618C95.6917 84.9504 95.5948 84.2389 95.5948 83.5274C95.5625 76.8008 95.5625 70.074 95.5625 63.3474C95.584 63.3258 95.5948 63.3151 95.5948 63.3151Z" fill="white"/>
<path fill-rule="evenodd" clip-rule="evenodd" d="M227.334 87.8638C222.13 87.8314 217.279 86.5703 212.979 83.4333C207.84 79.6171 205.027 74.3135 204.09 67.9102C203.475 63.7383 203.573 59.5664 204.768 55.4916C206.87 48.2152 211.299 43.1377 218.184 40.5507C224.941 38.0279 231.731 38.1898 238.293 41.1973C244.533 44.0756 248.475 49.0883 250.254 55.8797C251.644 61.1511 251.612 66.4872 249.996 71.7263C247.894 78.6793 243.497 83.4333 236.966 86.0853C233.864 87.3464 230.663 87.8314 227.334 87.8638ZM235.157 63.3502C235.157 61.3774 234.897 59.437 233.994 57.626C232.635 54.9095 230.502 53.3894 227.495 53.3894C224.489 53.3894 222.257 54.8447 221.031 57.626C219.316 61.4421 219.348 65.3876 221.031 69.1714C223.357 74.3458 230.146 74.8308 233.315 70.1739C234.736 68.1365 235.157 65.808 235.157 63.3502Z" fill="white"/>
<path d="M257.785 63.32C257.785 56.3128 257.785 49.3059 257.785 42.299C257.807 41.954 257.838 41.6091 257.882 41.2642C258.076 40.2291 258.625 39.6471 259.628 39.5178C260.081 39.4531 260.565 39.4531 261.018 39.4531C264.315 39.4531 267.613 39.4638 270.911 39.4855C271.255 39.4855 271.589 39.507 271.912 39.5501C272.785 39.7117 273.335 40.2291 273.464 41.1346C273.561 41.6845 273.561 42.2344 273.592 42.8164C273.626 43.3662 273.626 43.9159 273.69 44.4657C273.884 45.7594 274.562 46.0181 275.566 45.2419C275.921 44.9507 276.277 44.5951 276.6 44.2717C278.992 41.9109 281.708 40.1968 284.973 39.4531C285.211 39.3885 285.447 39.3452 285.684 39.3238C287.722 39.0326 288.076 40.0351 288.302 41.5228C288.368 41.9109 288.335 42.3637 288.335 42.7517C288.335 46.4384 288.335 50.0928 288.302 53.7473C288.302 54.2324 288.206 54.7499 288.108 55.235C287.915 56.0757 287.332 56.5933 286.524 56.658C285.586 56.755 284.683 56.7226 283.744 56.7873C282.386 56.9166 280.997 56.9813 279.67 57.2723C276.083 58.1132 274.045 60.6357 273.722 64.4195C273.636 65.4113 273.592 66.4029 273.592 67.3947C273.592 73.0866 273.592 78.7461 273.592 84.4379C273.592 84.6965 273.592 84.9554 273.528 85.2463C273.367 86.54 272.819 87.122 271.557 87.2191C270.781 87.2838 270.005 87.3162 269.229 87.3162C266.384 87.3162 263.506 87.3162 260.663 87.2839C258.464 87.2839 257.818 86.6047 257.818 84.3085C257.785 77.2907 257.785 70.3054 257.785 63.32Z" fill="white"/>
<path d="M81.8899 85.6024C80.3797 85.505 78.8453 85.4563 77.3595 85.2858C75.3622 85.0909 73.8764 83.9706 72.9021 82.2412C71.3677 79.6107 69.955 76.9071 68.5667 74.2035C68.2257 73.5216 68.0553 72.7179 67.9821 71.9627C67.8117 70.2821 68.6884 69.113 69.9793 68.285C71.2946 67.4325 72.6586 66.6774 74.0226 65.9223C74.7776 65.5327 75.5572 65.1672 76.3853 64.8993C78.2363 64.266 79.722 64.7045 80.8912 66.312C81.7438 67.4811 82.4502 68.7721 83.132 70.0386C84.082 71.7435 84.9831 73.4729 85.8844 75.2265C86.8586 77.1019 87.833 79.0018 88.7584 80.9259C88.9776 81.3887 89.0751 81.9732 89.0994 82.4847C89.1968 83.8488 88.3687 84.8962 86.9561 85.1884C86.1523 85.3588 85.2999 85.432 84.4716 85.4807C83.6192 85.5293 82.7423 85.505 81.8899 85.505C81.8899 85.5374 81.8899 85.5699 81.8899 85.6024Z" fill="white"/>
<path d="M6.81108 85.6023C5.58718 85.5292 3.99608 85.4806 2.45395 85.2857C1.40139 85.1395 0.446723 84.6522 0.104033 83.5072C-0.0428373 82.9712 -0.0183586 82.3623 0.0795546 81.802C0.299854 80.4864 1.00973 79.3658 1.62169 78.1964C2.87007 75.7845 4.14295 73.3726 5.4403 70.9851C6.24808 69.499 7.05586 67.9886 8.01052 66.5756C9.28338 64.6509 11.2417 64.115 13.2733 65.1137C15.2561 66.1128 17.2144 67.1359 19.0748 68.3297C20.9595 69.5478 21.6693 71.3262 20.7392 73.5189C19.907 75.492 18.8789 77.3679 17.8752 79.2683C17.2388 80.4619 16.5779 81.607 15.8436 82.7277C14.7664 84.36 13.1999 85.237 11.3151 85.3831C9.91983 85.5049 8.54904 85.5292 6.81108 85.6023Z" fill="white"/>
</g>
<defs>
<clipPath id="clip0_4169_6016">
<rect width="288.348" height="111.516" fill="white"/>
</clipPath>
</defs>
</svg>
