<svg width="1620" height="492" viewBox="0 0 1620 492" fill="none" xmlns="http://www.w3.org/2000/svg">
<path d="M305.541 7.45432C305.33 7.39096 305.098 7.32761 304.865 7.28538C285.015 2.36511 265.144 0 245.569 0H245.484C135.253 0.0422341 35.0107 74.7966 7.28404 186.611C-25.384 318.318 54.903 451.546 186.61 484.214C206.481 489.134 226.352 491.499 245.928 491.499C356.18 491.499 456.465 416.724 484.191 304.888C516.796 173.434 436.889 40.418 305.541 7.45432ZM464.911 300.094C439.867 401.076 349.824 471.607 245.928 471.607C227.661 471.607 209.311 469.347 191.382 464.913C132.846 450.405 83.4532 413.957 52.3267 362.284C21.2002 310.611 12.0565 249.92 26.5639 191.384C51.6087 90.4443 141.757 19.9134 245.632 19.8711C263.877 19.8711 282.207 22.1307 300.262 26.6075L300.494 26.6708L300.726 26.7342C421.136 56.9527 494.813 179.579 464.911 300.094Z" fill="white"/>
<path d="M296.968 212.846C289.914 241.08 246.878 226.593 232.898 223.151L245.252 173.758C258.999 177.137 304.021 183.641 296.756 212.846H296.968ZM289.26 292.669C281.637 323.415 229.858 306.775 213.07 302.615L226.69 248.069C243.478 252.293 297.242 260.549 289.26 292.669ZM345.706 213.268C350.14 183.219 327.292 167.064 296.313 156.337L306.47 115.623L281.425 109.415L271.543 149.073C265.06 147.447 258.345 145.905 251.714 144.406L261.597 104.326L236.826 98.1172L226.669 138.831L210.873 135.304L176.664 126.773L170.096 153.233C170.096 153.233 187.201 157.414 188.088 157.752C193.621 158.871 200.209 164.826 199.66 171.858L171.849 283.335C170.329 288.086 165.261 290.705 160.488 289.184C159.96 289.036 142.433 284.75 142.433 284.75L130.164 312.983L162.41 320.965L180.043 325.548L169.822 366.684L194.592 372.892L204.749 332.178C211.422 334.016 217.99 335.705 224.431 337.268L214.421 378.129L239.191 384.274L249.412 343.223C291.752 351.205 323.427 348.016 336.837 309.773C347.627 279.006 336.266 261.31 314.051 249.738C330.248 245.958 342.243 235.589 345.706 213.268Z" fill="white"/>
<path d="M710.424 171.115C725.797 171.115 739.08 173.839 750.293 179.287C761.506 184.735 770.776 192.084 778.146 201.376C785.516 210.667 790.943 221.542 794.47 234.044C797.996 246.545 799.749 259.975 799.749 274.377C799.749 296.466 795.673 317.372 787.501 337.053C779.329 356.755 768.2 373.881 754.115 388.451C740.03 403.022 723.369 414.552 704.173 423.02C684.957 431.509 664.135 435.754 641.73 435.754C638.858 435.754 633.811 435.669 626.61 435.521C619.409 435.352 611.153 434.634 601.882 433.367C592.591 432.079 582.75 430.158 572.34 427.602C561.929 425.047 552.088 421.521 542.797 417.044L625.892 67.8737L700.351 56.3438L670.576 180.259C676.975 177.366 683.373 175.148 689.793 173.522C696.17 171.917 703.054 171.115 710.424 171.115ZM647.981 376.689C659.194 376.689 669.752 373.986 679.677 368.517C689.602 363.069 698.176 355.783 705.377 346.661C712.578 337.538 718.258 327.212 722.418 315.682C726.578 304.152 728.669 292.137 728.669 279.656C728.669 264.283 726.093 252.289 720.982 243.631C715.851 234.994 706.412 230.665 692.643 230.665C688.145 230.665 682.317 231.467 675.116 233.072C667.915 234.677 661.432 238.035 655.667 243.166L623.971 374.768C625.892 375.084 627.561 375.401 629.018 375.739C630.475 376.077 631.974 376.309 633.579 376.457C635.184 376.626 637.106 376.689 639.344 376.689C641.582 376.689 644.454 376.689 647.981 376.689Z" fill="white"/>
<path d="M914.076 433.838C891.333 433.838 873.489 430.86 860.524 424.947C847.558 419.035 838.266 410.947 832.67 400.705C827.074 390.463 824.35 378.701 824.498 365.397C824.667 352.115 826.504 337.945 830.031 322.889L891.038 67.858L965.475 56.3281L898.703 332.983C897.415 338.748 896.697 344.027 896.549 348.841C896.38 353.656 897.267 357.901 899.189 361.575C901.111 365.271 904.384 368.227 909.029 370.465C913.675 372.704 920.158 374.14 928.478 374.794L914.076 433.838Z" fill="white"/>
<path d="M1022.13 429.051H951.055L1011.09 176.406H1082.66L1022.13 429.051Z" fill="white"/>
<path d="M1135.47 187.918C1140.91 186.313 1146.91 184.475 1153.48 182.385C1160.05 180.315 1167.42 178.394 1175.57 176.62C1183.74 174.867 1192.86 173.431 1202.96 172.291C1213.05 171.172 1224.5 170.602 1237.29 170.602C1275.07 170.602 1301 181.498 1315.11 203.27C1329.19 225.041 1331.6 254.816 1322.31 292.595L1289.64 428.99H1218.08L1249.77 295.467C1251.69 287.147 1253.21 279.059 1254.33 271.224C1255.45 263.369 1255.37 256.506 1254.1 250.572C1252.81 244.659 1249.86 239.844 1245.21 236.17C1240.57 232.496 1233.45 230.637 1223.84 230.637C1214.55 230.637 1205.11 231.609 1195.5 233.53L1148.92 429.011H1077.35L1135.47 187.918Z" fill="white"/>
<path d="M1440.47 267.662C1459.68 252.289 1477.76 236.599 1494.74 220.592C1511.7 204.585 1526.27 189.846 1538.45 176.415H1619.14C1601.21 196.265 1582.56 215.714 1563.18 234.762C1543.79 253.809 1521.62 274.06 1496.66 295.515C1503.38 303.836 1510.17 313.444 1517.08 324.34C1523.96 335.237 1530.53 346.598 1536.76 358.444C1543.01 370.291 1548.78 382.306 1554.06 394.47C1559.34 406.633 1563.75 418.163 1567.25 429.06H1487.54C1484.64 420.739 1481.05 411.617 1476.73 401.692C1472.4 391.767 1467.6 381.926 1462.32 372.149C1457.04 362.393 1451.51 352.869 1445.75 343.578C1439.98 334.286 1434.22 325.966 1428.45 318.596L1401.55 429.06H1330.47L1416.92 67.8737L1491.36 56.3438L1440.47 267.662Z" fill="white"/>
<path d="M1107.85 100.102C1107.85 106.754 1106.58 112.941 1104.05 118.706C1101.51 124.471 1098.05 129.497 1093.7 133.784C1089.33 138.07 1084.22 141.47 1078.35 144.004C1072.5 146.538 1066.25 147.805 1059.6 147.805C1052.94 147.805 1046.69 146.538 1040.84 144.004C1034.99 141.47 1029.93 138.07 1025.64 133.784C1021.35 129.497 1017.95 124.471 1015.42 118.706C1012.88 112.941 1011.62 106.733 1011.62 100.102C1011.62 93.64 1012.88 87.4738 1015.42 81.6244C1017.95 75.775 1021.35 70.7069 1025.64 66.4202C1029.93 62.1334 1034.99 58.7336 1040.84 56.1995C1046.69 53.6655 1052.94 52.3984 1059.6 52.3984C1066.25 52.3984 1072.48 53.6655 1078.35 56.1995C1084.2 58.7336 1089.31 62.1334 1093.7 66.4202C1098.07 70.7069 1101.51 75.775 1104.05 81.6244C1106.58 87.4738 1107.85 93.64 1107.85 100.102Z" fill="white"/>
</svg>
