<svg width="540" height="385" viewBox="0 0 540 385" fill="none" xmlns="http://www.w3.org/2000/svg">
<path d="M366.595 146.777L387.601 62.523L336.263 49.723L315.713 132.145C302.878 128.945 288.211 125.288 275.376 122.088L295.926 39.6659L244.588 26.8658L223.581 111.119L190.578 102.891L119.072 85.0624L105.372 140.01C105.372 140.01 143.875 149.61 142.042 149.153C157.167 150.979 167.717 163.337 165.897 178.447L142.151 273.69C143.984 274.147 145.818 274.604 147.651 275.061L142.151 273.69L108.814 407.397C106.53 416.555 95.08 423.427 84.5356 418.853L47.8656 409.71L21.7944 467.41L87.8006 483.867L124.471 493.01L103.464 577.263L154.802 590.063L175.808 505.81C190.476 509.467 203.311 512.667 216.146 515.867L195.139 600.121L246.477 612.921L267.483 528.667C354.571 546.489 420.557 539.596 447.984 460.834C471.302 398.557 447.439 361.48 401.131 336.315C434.12 328.977 458.849 307.906 466.598 261.202C477.545 201.676 431.231 168.729 366.595 146.777ZM351.259 426.99C335.275 491.096 229.382 454.967 194.546 446.281L222.403 334.554C257.239 343.239 367.699 361.053 351.259 426.99ZM367.154 261.698C352.54 320.31 262.692 290.126 235.646 281.437L261.219 178.868C290.099 188.013 381.767 203.087 367.154 261.698Z" fill="#05051F"/>
</svg>
