<svg width="337" height="44" viewBox="0 0 337 44" fill="none" xmlns="http://www.w3.org/2000/svg">
<path d="M63.2467 27.614C63.4988 27.614 63.7149 27.8301 63.7149 28.1183L63.2108 33.5918C63.1747 33.8439 62.9226 34.0959 62.6346 34.0959H49.567C49.2761 34.0959 49.0215 33.8424 49.0215 33.5889V9.65325C49.0215 9.35419 49.2663 9.10938 49.5654 9.10938H56.005C56.304 9.10938 56.5489 9.35419 56.5489 9.65325V27.614H63.2467Z" fill="white"/>
<path d="M72.1069 9.10938C72.4312 9.10938 72.6474 9.3628 72.6474 9.65265V33.5889C72.6474 33.8424 72.4312 34.0958 72.1069 34.0958H65.7322C65.4531 34.0958 65.2246 33.8675 65.2246 33.5883V9.65265C65.2246 9.3628 65.4768 9.10938 65.729 9.10938H72.1069Z" fill="white"/>
<path d="M92.5474 24.264C92.8738 23.4664 93.0187 22.56 93.0187 21.581C93.0187 17.9915 90.952 15.5985 87.834 15.5985C84.7159 15.5985 82.6492 17.9915 82.6492 21.581C82.6492 25.1704 84.7159 27.5634 87.834 27.5634C88.2328 27.5634 88.5955 27.5271 88.958 27.4546L87.8702 26.1131C87.6526 25.8594 87.6526 25.6417 87.9065 25.3879L90.2632 23.0674C90.5169 22.8137 90.6983 22.7412 90.952 22.9586L92.5474 24.264ZM101.612 31.5878C101.938 31.8417 101.938 32.0954 101.684 32.313L97.2245 36.7363C96.9343 36.9539 96.7169 36.9175 96.4993 36.6639L93.8163 33.3645C92.076 34.1621 90.0456 34.5972 87.834 34.5972C80.1114 34.5972 74.9629 29.3762 74.9629 21.581C74.9629 13.7132 80.1114 8.49219 87.834 8.49219C95.5567 8.49219 100.705 13.7132 100.705 21.581C100.705 24.5177 99.98 27.092 98.6385 29.1948L101.612 31.5878Z" fill="white"/>
<path d="M122.32 9.10938C122.682 9.10938 122.935 9.39952 122.935 9.72579V24.8448C122.935 31.2623 119.499 34.6342 112.951 34.6342C106.476 34.6342 103.039 31.2623 102.967 24.8448V9.72579C102.967 9.38668 103.244 9.10938 103.583 9.10938H109.768C110.133 9.10938 110.39 9.39952 110.39 9.72579V25.4974C110.39 27.1653 111.341 28.1441 112.951 28.1441C114.561 28.1441 115.512 27.1653 115.512 25.5339V9.72579C115.512 9.38668 115.79 9.10938 116.129 9.10938H122.32Z" fill="white"/>
<path d="M132.326 9.10938C132.65 9.10938 132.866 9.3628 132.866 9.65265V33.5889C132.866 33.8424 132.65 34.0958 132.326 34.0958H125.951C125.672 34.0958 125.443 33.8676 125.443 33.5883V9.65265C125.443 9.3628 125.695 9.10938 125.948 9.10938H132.326Z" fill="white"/>
<path d="M144.781 27.5075C147.562 27.5075 149.44 25.1239 149.44 21.5483C149.44 17.973 147.562 15.5892 144.781 15.5892H142.903V27.5075H144.781ZM144.389 9.10742C152.066 9.10742 157.171 14.0685 157.171 21.6007C157.171 29.0604 152.066 34.0938 144.389 34.0938H135.987C135.734 34.0938 135.48 33.8403 135.48 33.5507V9.65054C135.48 9.36085 135.734 9.10742 135.987 9.10742H144.389Z" fill="white"/>
<path d="M4.05542 17.6543C2.9722 17.6543 1.95366 18.0759 1.18779 18.8421C0.421772 19.608 0 20.6263 0 21.7094C0 22.7928 0.421772 23.8112 1.18779 24.577C1.95366 25.3432 2.9722 25.7648 4.05542 25.7648C5.13864 25.7648 6.15703 25.3432 6.9229 24.577C8.50421 22.996 8.50421 20.4232 6.9229 18.8421C6.15703 18.0759 5.13864 17.6543 4.05542 17.6543Z" fill="white"/>
<path d="M30.5261 16.9409C31.6092 16.9409 32.6277 16.5193 33.3936 15.7531C34.1596 14.9873 34.5814 13.9689 34.5814 12.8855C34.5814 11.8021 34.1596 10.7837 33.3938 10.0182C32.6277 9.252 31.6092 8.83008 30.5261 8.83008C29.4428 8.83008 28.4244 9.252 27.6585 10.0179C26.8925 10.7837 26.4707 11.8021 26.4707 12.8855C26.4707 13.9689 26.8925 14.9873 27.6585 15.7531C28.4244 16.5193 29.4428 16.9409 30.5261 16.9409Z" fill="white"/>
<path d="M21.7156 35.3027C20.6322 35.3027 19.6138 35.7244 18.8479 36.4905C18.0819 37.2564 17.6602 38.2748 17.6602 39.3579C17.6602 40.4412 18.0819 41.4596 18.8479 42.2255C19.6138 42.9917 20.6322 43.4133 21.7156 43.4133C22.7988 43.4133 23.8173 42.9917 24.5832 42.2255C25.3492 41.4596 25.771 40.4412 25.771 39.3579C25.771 38.2748 25.3492 37.2564 24.5832 36.4905C23.8173 35.7244 22.7988 35.3027 21.7156 35.3027Z" fill="white"/>
<path d="M30.5247 26.4773C29.501 26.4773 28.5381 26.8579 27.7886 27.5458C27.5234 27.766 27.2205 27.9745 26.8754 28.1662C25.4953 28.932 23.6605 29.354 21.7086 29.354C19.7568 29.354 17.9217 28.932 16.5417 28.1662C16.2779 28.0196 16.0388 27.8632 15.8216 27.6994C15.6226 27.4509 15.4336 27.1715 15.2587 26.8563C14.4927 25.4763 14.0709 23.6412 14.0709 21.6894C14.0709 19.7375 14.4927 17.9026 15.2587 16.5226C15.4591 16.1616 15.6776 15.8458 15.9091 15.5722C16.5686 14.8301 16.933 13.8868 16.933 12.8855C16.933 11.8021 16.5112 10.7837 15.7453 10.0182C14.9793 9.252 13.9609 8.83008 12.8777 8.83008C11.7943 8.83008 10.7759 9.252 10.0101 10.0179C9.24404 10.7837 8.82227 11.8021 8.82227 12.8855C8.82227 13.9689 9.24404 14.9873 10.0101 15.7531C10.0401 15.7832 10.0731 15.8093 10.1039 15.8384C10.2582 16.0461 10.4061 16.2728 10.5447 16.5226C11.3107 17.9026 11.7325 19.7375 11.7325 21.6894C11.7325 23.6412 11.3107 25.4763 10.5447 26.8563C10.377 27.1585 10.1964 27.4283 10.0063 27.6693C9.24268 28.4346 8.82227 29.4513 8.82227 30.5327C8.82227 31.6158 9.24404 32.6341 10.0101 33.4002C10.7759 34.1662 11.7943 34.5878 12.8777 34.5878C13.9357 34.5878 14.9302 34.1831 15.6897 33.4503C15.9403 33.2486 16.2229 33.057 16.5417 32.88C17.9217 32.1141 19.7568 31.6922 21.7086 31.6922C23.6605 31.6922 25.4953 32.1141 26.8754 32.88C27.1551 33.0352 27.4081 33.2013 27.6352 33.3758C27.6429 33.3837 27.6494 33.3923 27.6571 33.4002C28.423 34.1662 29.4414 34.5878 30.5247 34.5878C31.6078 34.5878 32.6263 34.1662 33.3922 33.4002C34.1582 32.6341 34.58 31.6158 34.58 30.5327C34.58 29.4493 34.1582 28.4309 33.3922 27.6651C32.6263 26.8989 31.6078 26.4773 30.5247 26.4773Z" fill="white"/>
<path d="M42.2108 18.8344C41.4458 18.0693 40.4288 17.6481 39.3471 17.6481C38.3149 17.6481 37.3446 18.0351 36.5931 18.7346C36.3307 18.9513 36.032 19.1566 35.6918 19.3453C34.3137 20.1104 32.4811 20.5316 30.5318 20.5316C28.5824 20.5316 26.7499 20.1104 25.3717 19.3453C25.1082 19.199 24.8694 19.0428 24.6526 18.8793C24.4539 18.6311 24.2651 18.352 24.0904 18.0372C23.3253 16.659 22.9041 14.8266 22.9041 12.8773C22.9041 10.9278 23.3253 9.09538 24.0904 7.71718C24.2985 7.34225 24.5258 7.01478 24.7676 6.7343V6.72886C25.4236 5.98823 25.7858 5.04797 25.7858 4.05013C25.7858 2.96827 25.3646 1.95109 24.5995 1.18628C23.8347 0.421016 22.8175 0 21.7357 0C20.6538 0 19.6368 0.421016 18.8718 1.18628C18.1069 1.95109 17.6855 2.96827 17.6855 4.05013C17.6855 5.04797 18.0478 5.98823 18.7039 6.72886V6.73249C18.9462 7.01342 19.1741 7.3415 19.3826 7.71718C20.1476 9.09538 20.5689 10.9278 20.5689 12.8773C20.5689 14.8266 20.1476 16.659 19.3826 18.0372C19.1741 18.4131 18.9462 18.7411 18.7039 19.0221V19.0258C18.0478 19.7665 17.6855 20.7066 17.6855 21.7043C17.6855 22.7861 18.1069 23.8033 18.8718 24.5681C19.6368 25.3334 20.6538 25.7544 21.7357 25.7544C22.8175 25.7544 23.8347 25.3334 24.5995 24.5681C24.6094 24.5583 24.6177 24.5476 24.6273 24.5377C24.8505 24.3673 25.0981 24.205 25.3717 24.0531C26.7499 23.2881 28.5824 22.8668 30.5318 22.8668C32.4811 22.8668 34.3137 23.2881 35.6918 24.0531C36.0425 24.2477 36.3499 24.4598 36.618 24.684C37.3659 25.3691 38.3262 25.7481 39.3471 25.7481C40.4288 25.7481 41.4458 25.3269 42.2108 24.5618C42.9757 23.797 43.397 22.7798 43.397 21.6979C43.397 20.6164 42.9757 19.5992 42.2108 18.8344Z" fill="white"/>
<path d="M158.779 33.8995V9.53104C158.779 9.38687 158.827 9.25812 158.923 9.14372C159.019 9.02978 159.14 8.97266 159.284 8.97266H166.992C167.232 8.97266 167.475 9.04474 167.722 9.18876C167.968 9.33292 168.145 9.50716 168.253 9.71117L173.35 23.7954L178.423 9.71117C178.531 9.50716 178.707 9.33292 178.953 9.18876C179.199 9.04474 179.442 8.97266 179.682 8.97266H187.381C187.525 8.97266 187.648 9.02978 187.749 9.14372C187.851 9.25812 187.903 9.38687 187.903 9.53104V33.8995C187.903 34.0319 187.852 34.1518 187.75 34.2598C187.648 34.3679 187.525 34.4218 187.382 34.4218H180.571C180.427 34.4218 180.298 34.3679 180.185 34.2598C180.071 34.1518 180.014 34.0319 180.014 33.8995V23.0571L176.304 33.8636C176.256 34.0076 176.13 34.1368 175.926 34.2507C175.721 34.365 175.535 34.4218 175.367 34.4218H171.315C171.146 34.4218 170.963 34.365 170.765 34.2507C170.567 34.1368 170.444 34.0076 170.396 33.8636L166.668 23.0571V33.8995C166.668 34.0319 166.611 34.1518 166.497 34.2598C166.383 34.3679 166.254 34.4218 166.11 34.4218H159.284C159.14 34.4218 159.019 34.3679 158.923 34.2598C158.827 34.1518 158.779 34.0319 158.779 33.8995Z" fill="white"/>
<path d="M200.014 24.788H203.995L201.995 17.7818L200.014 24.788ZM189.01 33.9375L197.349 9.46091C197.409 9.34107 197.529 9.22985 197.709 9.12769C197.889 9.02584 198.063 8.97461 198.231 8.97461H205.76C205.928 8.97461 206.102 9.02584 206.282 9.12769C206.462 9.22985 206.582 9.34107 206.642 9.46091L214.981 33.9375C215.041 34.0455 215.038 34.1537 214.972 34.2616C214.906 34.3697 214.801 34.4238 214.657 34.4238H207.345C206.996 34.4238 206.738 34.2616 206.57 33.9375L205.471 30.0652H198.537L197.421 33.9375C197.253 34.2616 196.994 34.4238 196.646 34.4238H189.352C189.208 34.4238 189.1 34.3697 189.028 34.2616C188.956 34.1537 188.95 34.0455 189.01 33.9375Z" fill="white"/>
<path d="M216.088 33.8995V9.53104C216.088 9.38687 216.136 9.25812 216.232 9.14372C216.328 9.02978 216.448 8.97266 216.592 8.97266H222.986C223.382 8.97266 223.664 9.13481 223.832 9.45896L230.208 20.9138V9.53104C230.208 9.38687 230.262 9.25812 230.371 9.14372C230.479 9.02978 230.598 8.97266 230.731 8.97266H237.251C237.406 8.97266 237.539 9.02978 237.647 9.14372C237.755 9.25812 237.809 9.38687 237.809 9.53104V33.8995C237.809 34.0319 237.755 34.1518 237.647 34.2598C237.539 34.3679 237.406 34.4218 237.251 34.4218H230.875C230.562 34.4218 230.304 34.2598 230.1 33.9355L223.688 22.4627V33.8995C223.688 34.0319 223.634 34.1518 223.526 34.2598C223.418 34.3679 223.286 34.4218 223.13 34.4218H216.592C216.448 34.4218 216.328 34.3679 216.232 34.2598C216.136 34.1518 216.088 34.0319 216.088 33.8995Z" fill="white"/>
<path d="M240.234 33.8995C240.234 33.7915 240.354 33.4853 240.595 32.981L248.97 15.6186H241.531C241.399 15.6186 241.279 15.5619 241.171 15.4475C241.063 15.3335 241.009 15.2043 241.009 15.0603V9.53104C241.009 9.38687 241.063 9.25812 241.171 9.14372C241.279 9.02978 241.399 8.97266 241.531 8.97266H259.776C259.944 8.97266 260.079 9.02389 260.181 9.12574C260.283 9.2279 260.334 9.363 260.334 9.53104C260.334 9.68715 260.214 10.0173 259.974 10.5216L251.671 27.7759H260.046C260.202 27.7759 260.331 27.8271 260.434 27.929C260.535 28.0311 260.586 28.154 260.586 28.2982V33.8995C260.586 34.0319 260.535 34.1518 260.434 34.2598C260.331 34.3679 260.202 34.4218 260.046 34.4218H240.757C240.613 34.4218 240.489 34.3709 240.388 34.2687C240.285 34.167 240.234 34.0436 240.234 33.8995Z" fill="white"/>
<path d="M272.102 24.788H276.083L274.083 17.7818L272.102 24.788ZM261.098 33.9375L269.436 9.46091C269.496 9.34107 269.617 9.22985 269.797 9.12769C269.977 9.02584 270.151 8.97461 270.319 8.97461H277.848C278.015 8.97461 278.19 9.02584 278.37 9.12769C278.55 9.22985 278.67 9.34107 278.73 9.46091L287.069 33.9375C287.129 34.0455 287.126 34.1537 287.06 34.2616C286.994 34.3697 286.889 34.4238 286.745 34.4238H279.432C279.084 34.4238 278.826 34.2616 278.658 33.9375L277.559 30.0652H270.625L269.509 33.9375C269.34 34.2616 269.082 34.4238 268.734 34.4238H261.44C261.296 34.4238 261.188 34.3697 261.115 34.2616C261.043 34.1537 261.038 34.0455 261.098 33.9375Z" fill="white"/>
<path d="M288.174 33.8995V9.53104C288.174 9.38687 288.222 9.25812 288.318 9.14372C288.414 9.02978 288.534 8.97266 288.678 8.97266H295.072C295.468 8.97266 295.75 9.13481 295.918 9.45896L302.294 20.9138V9.53104C302.294 9.38687 302.348 9.25812 302.457 9.14372C302.565 9.02978 302.684 8.97266 302.817 8.97266H309.336C309.492 8.97266 309.625 9.02978 309.733 9.14372C309.841 9.25812 309.895 9.38687 309.895 9.53104V33.8995C309.895 34.0319 309.841 34.1518 309.733 34.2598C309.625 34.3679 309.492 34.4218 309.336 34.4218H302.961C302.648 34.4218 302.39 34.2598 302.186 33.9355L295.774 22.4627V33.8995C295.774 34.0319 295.72 34.1518 295.612 34.2598C295.504 34.3679 295.372 34.4218 295.216 34.4218H288.678C288.534 34.4218 288.414 34.3679 288.318 34.2598C288.222 34.1518 288.174 34.0319 288.174 33.8995Z" fill="white"/>
<path d="M321.991 24.788H325.971L323.972 17.7818L321.991 24.788ZM310.986 33.9375L319.325 9.46091C319.385 9.34107 319.505 9.22985 319.685 9.12769C319.865 9.02584 320.039 8.97461 320.208 8.97461H327.736C327.904 8.97461 328.078 9.02584 328.259 9.12769C328.439 9.22985 328.558 9.34107 328.618 9.46091L336.958 33.9375C337.018 34.0455 337.015 34.1537 336.949 34.2616C336.882 34.3697 336.778 34.4238 336.634 34.4238H329.321C328.973 34.4238 328.715 34.2616 328.547 33.9375L327.448 30.0652H320.514L319.397 33.9375C319.229 34.2616 318.971 34.4238 318.623 34.4238H311.328C311.184 34.4238 311.076 34.3697 311.004 34.2616C310.932 34.1537 310.926 34.0455 310.986 33.9375Z" fill="white"/>
</svg>
