<svg width="369" height="55" viewBox="0 0 369 55" fill="none" xmlns="http://www.w3.org/2000/svg">
<path fill-rule="evenodd" clip-rule="evenodd" d="M0 5.51953H22.66V11.3395H0V5.51953Z" fill="white"/>
<path fill-rule="evenodd" clip-rule="evenodd" d="M22.6602 11.3398H51.0002V53.8398H22.6602V11.3398Z" fill="white"/>
<path fill-rule="evenodd" clip-rule="evenodd" d="M51.0098 0H96.3598V11.34H51.0098V0Z" fill="white"/>
<path d="M111.559 53.7694C109.844 53.8524 108.169 53.2184 106.939 52.0194C105.764 50.7654 105.146 49.0864 105.229 47.3694V27.5194H96.4395V21.8994H105.229V11.3594H111.889V21.8994H121.389V27.5194H111.889V46.2394C111.889 47.5394 112.489 48.1794 113.699 48.1794H120.349V53.8094L111.559 53.7694Z" fill="white"/>
<path d="M133.349 34.5688H150.999C150.935 32.4108 150 30.3678 148.409 28.9088C146.702 27.5098 144.533 26.7968 142.329 26.9088C140.116 26.8008 137.939 27.5128 136.219 28.9088C134.591 30.3718 133.567 32.3918 133.349 34.5688ZM142.649 54.6688C139.703 54.7498 136.787 54.0598 134.189 52.6688C131.79 51.3348 129.825 49.3388 128.529 46.9188C127.139 44.2588 126.451 41.2888 126.529 38.2888V37.5188C126.455 34.4968 127.142 31.5048 128.529 28.8188C129.789 26.3928 131.724 24.3828 134.099 23.0288C136.645 21.6448 139.512 20.9548 142.409 21.0288C145.207 20.9608 147.972 21.6528 150.409 23.0288C152.705 24.3708 154.577 26.3328 155.809 28.6888C157.153 31.3018 157.821 34.2108 157.749 37.1488V39.6688H133.249C133.22 42.1938 134.238 44.6208 136.059 46.3688C137.881 48.0328 140.282 48.9228 142.749 48.8488C144.777 48.9978 146.791 48.3998 148.409 47.1688C149.647 46.0928 150.648 44.7718 151.349 43.2888L156.849 46.1388C156.131 47.5088 155.251 48.7878 154.229 49.9488C152.98 51.3708 151.447 52.5158 149.729 53.3088C147.493 54.2948 145.061 54.7598 142.619 54.6688" fill="white"/>
<path d="M165.799 53.7686V21.8986H172.319V25.6486H173.319C173.765 24.3976 174.65 23.3486 175.809 22.6986C177.118 22.0396 178.573 21.7196 180.039 21.7686H183.859V27.7686H179.779C177.854 27.6896 175.966 28.3236 174.479 29.5486C173.099 30.7286 172.409 32.5486 172.409 35.0086V53.7686H165.799Z" fill="white"/>
<path d="M200.769 49.1787C203.14 49.2847 205.46 48.4587 207.229 46.8787C208.917 45.2317 209.814 42.9337 209.689 40.5787V39.9287H200.379C198.871 39.8557 197.376 40.2507 196.099 41.0587C195.025 41.8157 194.415 43.0767 194.489 44.3887C194.441 45.7567 195.07 47.0637 196.169 47.8787C197.51 48.8137 199.127 49.2717 200.759 49.1787M199.759 54.6687C197.665 54.7057 195.585 54.3107 193.649 53.5087C191.933 52.7887 190.453 51.5997 189.38 50.0787C188.295 48.4577 187.743 46.5377 187.8 44.5887C187.726 42.6437 188.28 40.7257 189.38 39.1187C190.483 37.6427 191.986 36.5117 193.709 35.8587C195.7 35.0977 197.818 34.7247 199.949 34.7587H209.649V32.6887C209.737 31.0437 209.143 29.4337 208.009 28.2387C206.889 27.1187 205.163 26.5587 202.829 26.5587C200.946 26.4287 199.08 27.0067 197.599 28.1787C196.372 29.2857 195.534 30.7587 195.209 32.3787L189 30.3787C189.513 28.6707 190.36 27.0797 191.489 25.6987C192.735 24.2147 194.315 23.0457 196.099 22.2887C198.262 21.3677 200.599 20.9237 202.949 20.9887C207.089 20.9887 210.343 22.0457 212.709 24.1587C215.076 26.2717 216.263 29.2717 216.269 33.1587V46.2387C216.269 47.5287 216.869 48.1787 218.069 48.1787H220.789V53.7387H215.789C214.463 53.8097 213.154 53.4057 212.099 52.5987C211.153 51.8307 210.625 50.6567 210.679 49.4387V49.2387H209.679C209.218 50.0357 208.689 50.7917 208.099 51.4987C207.281 52.4597 206.256 53.2227 205.099 53.7287C203.421 54.4207 201.613 54.7417 199.799 54.6687" fill="white"/>
<path d="M227.199 53.7695V8.51953H233.859V26.4195H234.859C235.343 25.5305 235.964 24.7245 236.699 24.0295C237.614 23.1825 238.693 22.5325 239.869 22.1195C241.479 21.5815 243.172 21.3305 244.869 21.3795C247.121 21.3385 249.345 21.8975 251.309 22.9995C253.181 24.0705 254.713 25.6475 255.729 27.5495C256.861 29.7335 257.418 32.1705 257.349 34.6295V53.7695H250.689V35.1495C250.689 32.3895 249.999 30.3595 248.629 29.0395C247.07 27.6515 245.024 26.9325 242.939 27.0395C240.438 26.9295 238.012 27.9245 236.309 29.7595C234.649 31.5595 233.819 34.1865 233.819 37.6395V53.7395L227.199 53.7695Z" fill="white"/>
<path d="M277.818 49.1787C280.188 49.2847 282.508 48.4587 284.278 46.8787C285.965 45.2317 286.862 42.9337 286.738 40.5787V39.9287H277.428C275.922 39.8577 274.431 40.2527 273.158 41.0587C272.086 41.8177 271.478 43.0777 271.548 44.3887C271.499 45.7567 272.128 47.0637 273.228 47.8787C274.569 48.8137 276.186 49.2717 277.818 49.1787ZM276.818 54.6687C274.723 54.7057 272.643 54.3107 270.708 53.5087C268.991 52.7887 267.511 51.5997 266.438 50.0787C265.353 48.4577 264.801 46.5377 264.858 44.5887C264.785 42.6437 265.339 40.7257 266.438 39.1187C267.542 37.6427 269.044 36.5117 270.768 35.8587C272.759 35.0977 274.877 34.7247 277.008 34.7587H286.708V32.6887C286.803 31.0487 286.221 29.4387 285.098 28.2387C283.978 27.1187 282.251 26.5587 279.918 26.5587C278.034 26.4287 276.168 27.0067 274.688 28.1787C273.461 29.2857 272.622 30.7587 272.298 32.3787L266.088 30.3787C266.602 28.6707 267.448 27.0797 268.578 25.6987C269.798 24.2257 271.346 23.0577 273.098 22.2887C275.261 21.3677 277.598 20.9237 279.948 20.9887C284.088 20.9887 287.341 22.0457 289.708 24.1587C292.074 26.2717 293.258 29.2717 293.258 33.1587V46.2387C293.258 47.5287 293.868 48.1787 295.068 48.1787H297.788V53.7387H292.788C291.462 53.8087 290.153 53.4037 289.098 52.5987C288.151 51.8307 287.624 50.6567 287.678 49.4387V49.2387H286.678C286.226 50.0347 285.707 50.7907 285.128 51.4987C284.31 52.4597 283.284 53.2227 282.128 53.7287C280.45 54.4207 278.642 54.7417 276.828 54.6687" fill="white"/>
<path d="M317.097 54.6686C313.541 54.8076 310.025 53.8616 307.018 51.9586C304.279 50.0536 302.486 47.0616 302.098 43.7486L308.298 42.2586C308.539 43.7776 309.139 45.2176 310.048 46.4586C310.833 47.4766 311.901 48.2426 313.118 48.6586C314.404 49.1016 315.757 49.3216 317.117 49.3086C318.832 49.4146 320.538 48.9846 321.997 48.0786C323.07 47.3836 323.715 46.1866 323.707 44.9086C323.782 43.7256 323.149 42.6056 322.097 42.0586C320.587 41.3206 318.971 40.8216 317.307 40.5786L315.098 40.2386C313.083 39.8906 311.112 39.3276 309.218 38.5586C307.581 37.9346 306.132 36.9016 305.008 35.5586C303.926 34.1226 303.378 32.3546 303.458 30.5586C303.336 27.8126 304.599 25.1816 306.818 23.5586C309.443 21.7866 312.574 20.9126 315.738 21.0686C318.862 20.9386 321.95 21.7886 324.567 23.4986C326.829 25.0486 328.431 27.3896 329.057 30.0586L322.857 31.7986C322.641 30.1506 321.749 28.6656 320.397 27.6986C318.993 26.8566 317.374 26.4396 315.738 26.4986C314.252 26.4226 312.774 26.7696 311.478 27.4986C310.494 28.0596 309.883 29.1066 309.878 30.2386C309.803 31.3936 310.389 32.4956 311.388 33.0786C312.667 33.7706 314.058 34.2306 315.498 34.4386L317.757 34.8286C319.893 35.1706 321.992 35.7096 324.027 36.4386C325.766 37.0236 327.319 38.0586 328.527 39.4386C329.679 40.9076 330.262 42.7446 330.167 44.6086C330.3 47.5196 328.966 50.3126 326.617 52.0386C324.271 53.7916 321.097 54.6686 317.097 54.6686Z" fill="white"/>
<path d="M337.928 53.7695V8.51953H344.588V26.4195H345.588C346.075 25.5305 346.7 24.7245 347.438 24.0295C348.351 23.1845 349.426 22.5345 350.598 22.1195C352.209 21.5835 353.901 21.3325 355.598 21.3795C357.871 21.3235 360.117 21.8835 362.098 22.9995C363.973 24.0695 365.509 25.6465 366.528 27.5495C367.643 29.7385 368.183 32.1745 368.098 34.6295V53.7695H361.438V35.1495C361.438 32.3895 360.748 30.3595 359.368 29.0395C357.81 27.6495 355.764 26.9295 353.678 27.0395C351.189 26.9485 348.782 27.9545 347.098 29.7895C345.438 31.5895 344.608 34.2165 344.608 37.6695V53.7695H337.928Z" fill="white"/>
</svg>
