<svg width="86" height="37" viewBox="0 0 86 37" fill="none" xmlns="http://www.w3.org/2000/svg">
<rect x="11" y="4" width="67" height="31" fill="white"/>
<path d="M85.9865 7.38442C85.9865 6.53393 86.0135 5.66993 85.973 4.81944C85.919 3.13196 85.1495 1.80898 83.7725 0.85049C82.8815 0.229497 81.8825 0 80.7891 0C55.6389 0.0134998 30.4886 0 5.33844 0C5.16294 0 4.97394 0 4.79844 0C3.98845 0 3.24596 0.229497 2.55747 0.634493C0.86999 1.64698 0.00599993 3.14546 0.00599993 5.10294C-0.00749991 11.2724 0.00599993 17.4283 0.00599993 23.5977C0.00599993 26.3652 -0.00749991 29.1327 0.00599993 31.9001C0.0194998 33.4931 0.667492 34.8161 1.92298 35.8151C2.89497 36.5846 4.00195 36.8951 5.24394 36.8951C11.5214 36.8816 17.7988 36.8816 24.0762 36.8816C30.3536 36.8816 36.6311 36.8816 42.9085 36.8816C55.4229 36.8816 67.9237 36.8816 80.4381 36.8816C80.6811 36.8816 80.9376 36.8816 81.1806 36.8816C82.4495 36.8411 83.543 36.3821 84.4475 35.5046C85.5275 34.4651 86 33.1826 86 31.6841C85.973 23.5842 85.9865 15.4843 85.9865 7.38442ZM26.5197 21.9507C25.8582 24.5562 24.2112 26.2167 21.6327 26.9052C19.9453 27.3507 18.2443 27.3237 16.5838 26.7972C14.1133 26.0007 12.5204 24.2862 11.7509 21.8427C11.0084 19.4938 11.0084 17.0908 11.8589 14.7688C12.9253 11.8259 15.0448 10.1249 18.1633 9.70639C20.4313 9.39589 22.4967 9.89539 24.2922 11.3264C25.5747 12.3524 26.3172 13.6888 26.5737 15.3493C26.4387 15.3763 26.3307 15.4168 26.2227 15.4168C25.2507 15.4168 24.2922 15.4168 23.3202 15.4303C23.0502 15.4303 22.8747 15.3763 22.7532 15.0793C22.2132 13.6618 21.1198 12.9734 19.6483 12.8654C17.9878 12.7439 16.6513 13.3513 15.7873 14.8093C15.2743 15.6733 15.0178 16.6183 14.9773 17.6173C14.9233 18.8323 14.9368 20.0473 15.3958 21.2083C15.8953 22.4907 16.7188 23.4492 18.1093 23.8002C19.2703 24.0972 20.4313 24.0432 21.5112 23.4897C22.4832 22.9902 22.9962 22.1532 23.1852 21.1003C23.2797 20.6143 23.2122 20.5468 22.7262 20.5468C21.8487 20.5333 20.9713 20.5468 20.0938 20.5468C19.5673 20.5468 19.5673 20.5333 19.5538 20.0473C19.5403 19.4668 19.5673 18.8728 19.5538 18.2923C19.5403 17.9548 19.6348 17.8198 19.9993 17.8198C22.0917 17.8333 24.1842 17.8198 26.2767 17.8333C26.4927 17.8333 26.7492 17.7928 26.7357 18.1438C26.6952 19.4128 26.8302 20.6953 26.5197 21.9507ZM40.2355 26.4192C40.2355 26.9862 40.222 26.9862 39.682 26.9997C38.899 27.0132 38.1026 27.0132 37.3196 26.9997C36.8471 26.9997 36.8471 26.9862 36.8336 26.4867C36.8201 26.1087 36.8336 25.7442 36.8336 25.2312C36.6716 25.4202 36.6041 25.5012 36.5366 25.5822C35.8211 26.5812 34.8491 27.1212 33.6341 27.1617C32.9456 27.1887 32.2301 27.1752 31.5686 27.0267C29.3412 26.5272 28.5312 24.6912 28.7877 22.7607C28.9632 21.4378 29.7057 20.5198 30.9206 20.0473C31.6631 19.7638 32.4731 19.6018 33.2561 19.4668C33.9986 19.3318 34.7681 19.2913 35.5241 19.1698C36.0101 19.1023 36.5231 18.9943 36.6581 18.3868C36.7796 17.8468 36.4151 17.1313 35.9156 16.8343C34.9166 16.2673 33.3101 16.6183 32.7431 17.5903C32.5136 17.9818 32.2841 18.0358 31.8926 17.9953C31.1501 17.9143 30.4211 17.8873 29.6787 17.8333C29.2737 17.8063 29.1927 17.7118 29.3142 17.3338C29.6922 16.1728 30.4211 15.3088 31.5011 14.7013C32.4731 14.1613 33.5261 13.9588 34.6061 13.9453C36.0101 13.9318 37.3871 14.1343 38.5751 14.9713C39.6415 15.7138 40.222 16.7398 40.2355 18.0493C40.249 20.8438 40.2355 23.6382 40.2355 26.4192ZM46.567 10.6784C46.567 13.2838 46.567 15.9028 46.567 18.5083C46.567 21.0463 46.567 23.5977 46.567 26.1357C46.567 26.3112 46.567 26.5002 46.567 26.6757C46.567 26.9052 46.4455 26.9997 46.2295 26.9997C45.2575 26.9997 44.299 26.9997 43.327 26.9997C43.0975 26.9997 43.003 26.8782 43.003 26.6622C43.003 26.5272 43.003 26.3922 43.003 26.2572C43.003 21.0328 43.003 15.8218 43.003 10.5974C43.003 10.4894 43.0165 10.3679 43.003 10.2599C42.9895 9.98989 43.084 9.85489 43.381 9.85489C44.326 9.86839 45.271 9.86839 46.216 9.85489C46.4725 9.85489 46.594 9.94939 46.567 10.2059C46.5535 10.3679 46.567 10.5299 46.567 10.6784ZM61.1468 23.0442C60.4043 25.4472 58.4198 27.0267 55.8954 27.1887C55.6524 27.2022 55.3959 27.2157 55.1529 27.2292C53.1279 27.2427 51.4134 26.5812 50.1444 24.9342C49.3884 23.9352 49.0104 22.8012 48.8889 21.5728C48.6864 19.5343 49.0239 17.6308 50.3874 16.0108C51.3459 14.8768 52.5879 14.2828 54.0459 14.0668C55.1124 13.9048 56.1653 13.9453 57.1778 14.2558C59.6483 15.0118 60.9713 16.7803 61.3898 19.2643C61.6193 20.5198 61.5383 21.7887 61.1468 23.0442ZM74.3766 16.9558C73.0672 20.6818 71.7712 24.3942 70.4482 28.1202C70.2457 28.6872 69.9892 29.2407 69.6787 29.7537C68.8552 31.0766 67.5997 31.7111 66.0742 31.7516C65.3452 31.7651 64.6028 31.6841 63.8738 31.5761C63.3743 31.5086 63.3473 31.4141 63.4823 30.9416C63.6578 30.3342 63.8333 29.7402 64.0088 29.1327C64.0898 28.8627 64.1978 28.6872 64.5352 28.8222C64.6702 28.8762 64.8457 28.8762 64.9942 28.8897C66.1822 29.0247 66.5467 28.4982 66.8977 27.4317C66.9517 27.2832 66.8572 27.0807 66.8032 26.9187C65.7367 23.8542 64.6702 20.7763 63.5903 17.7118C63.2393 16.6993 62.8883 15.6733 62.5373 14.6608C62.4833 14.5123 62.4698 14.3638 62.4158 14.1748C62.6183 14.1613 62.7938 14.1208 62.9693 14.1208C63.8198 14.1208 64.6837 14.1208 65.5342 14.1208C66.1147 14.1208 66.1282 14.1343 66.2767 14.6608C67.0462 17.4013 67.8157 20.1418 68.5852 22.8822C68.6392 23.0712 68.7067 23.2467 68.8822 23.4357C69.1252 22.6392 69.3547 21.8292 69.5842 21.0328C70.1917 18.9133 70.7857 16.8073 71.3797 14.6878C71.5417 14.1208 71.5417 14.1208 72.0952 14.1208C72.9996 14.1208 73.8906 14.1208 74.7951 14.1208C74.9436 14.1208 75.1056 14.1478 75.3081 14.1748C74.9976 15.1468 74.6871 16.0513 74.3766 16.9558Z" fill="#3654FF"/>
<path d="M34.0257 21.6537C33.5802 21.7617 33.1077 21.9102 32.7297 22.1802C31.8522 22.8012 32.0142 24.0972 32.9997 24.5427C33.4857 24.7722 34.0122 24.7587 34.5252 24.7047C35.6862 24.5832 36.6042 23.6652 36.6852 22.5582C36.7122 22.0857 36.6852 21.6132 36.6852 21.1812C35.7672 21.3297 34.8897 21.4512 34.0257 21.6537Z" fill="#3654FF"/>
<path d="M55.5716 16.7397C54.3431 16.6047 53.4251 17.1177 52.9391 18.2517C52.8986 18.3462 52.8581 18.4407 52.8311 18.5217C52.6016 19.1697 52.4936 19.8447 52.5071 20.5332C52.4936 21.3162 52.5881 22.0587 52.8986 22.7742C52.9391 22.8687 52.9931 22.9766 53.0471 23.0711C53.5061 23.9351 54.1946 24.4211 55.2071 24.4211C56.2196 24.4211 56.935 23.9351 57.34 23.0441C58.1095 21.3162 58.123 19.5612 57.232 17.8602C56.8676 17.2527 56.3276 16.8342 55.5716 16.7397Z" fill="#3654FF"/>
<path d="M52.8175 18.5353C52.588 19.1833 52.4801 19.8583 52.4935 20.5603C52.4801 21.3433 52.5745 22.0858 52.885 22.8013C52.5745 22.0993 52.4801 21.3433 52.4935 20.5603C52.4935 19.8583 52.588 19.1833 52.8175 18.5353Z" fill="#3654FF"/>
</svg>
