<svg width="753" height="127" viewBox="0 0 753 127" fill="none" xmlns="http://www.w3.org/2000/svg">
<g clip-path="url(#clip0_79_124)">
<path d="M190.259 58.6335C190.259 48.3725 184.305 41.6357 175.36 41.6357C166.416 41.6357 160.239 48.3725 160.239 58.6335C160.239 68.8946 166.194 75.6313 175.36 75.6313C184.527 75.6313 190.259 68.8946 190.259 58.6335ZM147.656 107.337V32.437C147.656 31.5464 148.381 30.8085 149.285 30.8085H159.501C160.392 30.8085 161.13 31.5337 161.13 32.437V37.7743C164.444 33.0286 170.513 29.9433 177.905 29.9433C193.91 29.9433 203.733 41.642 203.733 58.6399C203.733 75.6377 193.242 87.3364 176.913 87.3364C170.176 87.3364 164.222 84.6901 161.136 80.3834V107.35C161.136 108.24 160.411 108.978 159.508 108.978H149.291C148.401 108.978 147.663 108.253 147.663 107.35V107.337H147.656Z" fill="white"/>
<path d="M242.529 63.3919V62.5076H230.061C224.316 62.5076 220.455 65.7075 220.455 70.5676C220.455 74.8743 223.979 77.7434 229.068 77.7434C237.567 77.7434 242.529 71.789 242.529 63.3983V63.3855V63.3919ZM255.888 51.1397V85.2753C255.888 86.1659 255.163 86.9039 254.26 86.9039H244.145C243.254 86.9039 242.516 86.1787 242.516 85.2753V78.6212C240.201 84.1366 233.801 87.7754 225.843 87.7754C214.799 87.7754 207.293 80.7142 207.293 71.102C207.293 60.2875 215.677 53.5507 228.159 53.5507H238.42C241.18 53.5507 242.497 52.0049 242.497 49.7974C242.497 44.3966 238.305 40.5288 231.129 40.5288C224.609 40.5288 220.448 44.2693 219.59 48.6906C219.443 49.4603 218.788 50.0265 218.006 50.0265H209.1C208.107 50.0265 207.338 49.1422 207.484 48.1626C209.03 38.0351 218.152 30.3759 231.785 30.3759C245.417 30.3759 255.85 38.5504 255.85 51.127L255.882 51.1524L255.888 51.1397Z" fill="white"/>
<path d="M307.485 31.2729C308.618 31.2729 309.394 32.3925 309.012 33.4548L290.386 84.2575L282.148 108.323C281.919 108.978 281.314 109.417 280.608 109.417H271.136C270.016 109.417 269.24 108.323 269.596 107.261L276.683 86.9039L257.173 33.4548C256.791 32.3925 257.567 31.2729 258.699 31.2729H269.005C269.705 31.2729 270.315 31.7118 270.544 32.3798L283.089 69.4607L295.519 32.3798C295.748 31.7245 296.353 31.2729 297.059 31.2729H307.479H307.485Z" fill="white"/>
<path d="M311.439 68.3538H320.651C321.408 68.3538 322.05 68.8818 322.222 69.6198C323.253 74.1746 327.152 76.9672 332.725 76.9672C338.298 76.9672 341.555 74.3209 341.555 71.0129C341.555 58.6462 311.096 70.4595 311.096 46.9475C311.096 37.2399 319.595 30.3886 331.064 30.3886C343.329 30.3886 351.975 36.7501 353.4 46.5276C353.546 47.5009 352.763 48.3725 351.784 48.3725H342.515C341.79 48.3725 341.16 47.8954 340.969 47.2083C339.716 42.7871 335.365 40.5415 331.395 40.5415C326.535 40.5415 323.335 42.7426 323.335 46.4958C323.335 58.519 354.233 45.2872 354.233 70.4467C354.233 80.9368 345.734 87.7754 332.712 87.7754C319.69 87.7754 311.261 81.0386 309.811 70.1859C309.684 69.2126 310.441 68.3411 311.427 68.3411L311.439 68.3538Z" fill="white"/>
<path d="M368.013 14.485H378.344C379.234 14.485 379.972 15.2102 379.972 16.1135V31.2729L393.808 31.2983C394.699 31.2983 395.437 32.0235 395.437 32.9269V39.8227C395.437 40.7133 394.712 41.4512 393.808 41.4512L379.972 41.4258V66.1655C379.972 71.7954 382.956 74.6644 388.032 74.6644H393.808C394.699 74.6644 395.437 75.3896 395.437 76.2929V85.3008C395.437 86.1914 394.712 86.9293 393.808 86.9293H386.493C374.355 86.9293 366.409 79.8681 366.409 67.5014V41.4385H357.109C356.218 41.4385 355.48 40.7133 355.48 39.81V32.9141C355.48 32.0235 356.206 31.2856 357.109 31.2856H366.409V16.1262C366.409 15.2356 367.135 14.4977 368.038 14.4977L368.013 14.485Z" fill="white"/>
<path d="M434.705 63.3919V62.5076H422.236C416.492 62.5076 412.631 65.7075 412.631 70.5676C412.631 74.8743 416.155 77.7434 421.244 77.7434C429.743 77.7434 434.705 71.789 434.705 63.3983V63.3855V63.3919ZM448.064 51.1397V85.2753C448.064 86.1659 447.339 86.9039 446.435 86.9039H436.321C435.43 86.9039 434.692 86.1787 434.692 85.2753V78.6212C432.377 84.1366 425.977 87.7754 418.019 87.7754C406.975 87.7754 399.469 80.7142 399.469 71.102C399.469 60.2875 407.853 53.5507 420.334 53.5507H430.595C433.356 53.5507 434.673 52.0049 434.673 49.7974C434.673 44.3966 430.481 40.5288 423.305 40.5288C416.785 40.5288 412.624 44.2693 411.765 48.6906C411.619 49.4603 410.964 50.0265 410.181 50.0265H401.275C400.283 50.0265 399.513 49.1422 399.66 48.1626C401.205 38.0351 410.328 30.3759 423.96 30.3759C437.593 30.3759 448.026 38.5504 448.026 51.127L448.058 51.1524L448.064 51.1397Z" fill="white"/>
<path d="M455.087 85.2753V32.8887C455.087 31.9981 455.812 31.2601 456.715 31.2601H467.046C467.937 31.2601 468.675 31.9853 468.675 32.8887V39.8735C471.76 33.8047 478.058 30.3822 486.004 30.3822C498.58 30.3822 506.755 39.4346 506.755 52.4565V85.269C506.755 86.1596 506.03 86.8975 505.126 86.8975H494.795C493.905 86.8975 493.167 86.1723 493.167 85.269V55.3319C493.167 47.7172 488.536 42.4118 481.582 42.4118C473.968 42.4118 468.662 48.3661 468.662 56.5406V85.269C468.662 86.1596 467.937 86.8975 467.034 86.8975H456.703C455.812 86.8975 455.074 86.1723 455.074 85.269L455.087 85.2817V85.2753Z" fill="white"/>
<path d="M555.037 59.0852C555.037 48.8241 549.083 42.0873 540.031 42.0873C530.978 42.0873 525.024 48.8241 525.024 59.0852C525.024 69.3462 530.978 76.083 540.031 76.083C549.083 76.083 555.037 69.3462 555.037 59.0852ZM511.55 59.0852C511.55 42.0873 521.372 30.3886 537.817 30.3886C545.107 30.3886 550.947 33.4739 554.147 38.0033V9.05227C554.147 8.16167 554.872 7.42374 555.775 7.42374H565.992C566.882 7.42374 567.62 8.14894 567.62 9.05227V85.2753C567.62 86.1659 566.895 86.9039 565.992 86.9039H555.775C554.885 86.9039 554.147 86.1786 554.147 85.2753V79.938C550.947 84.7982 544.764 87.769 538.027 87.769C521.353 87.769 511.531 76.0703 511.531 59.0725L511.544 59.0852H511.55Z" fill="white"/>
<path d="M64.1875 2.4936V12.0676C64.1875 13.4035 64.9063 14.6504 66.0705 15.3247L103.463 36.9855C104.532 37.6025 105.187 38.7476 105.187 39.9881V88.3861C105.187 88.9586 104.882 89.4993 104.379 89.7792L88.1893 99.1497C87.6931 99.4423 87.3814 99.9703 87.3814 100.543V111.364C87.3814 112.611 88.73 113.387 89.8115 112.757L117.872 96.5097C118.381 96.217 118.68 95.689 118.68 95.1165V32.1825C118.68 31.61 118.374 31.0693 117.872 30.7894L66.6176 1.10044C65.5361 0.470654 64.1875 1.24675 64.1875 2.4936Z" fill="white"/>
<path d="M81.7261 76.7128L64.9954 86.4077C64.4992 86.7003 64.1875 87.2283 64.1875 87.8008V124.57C64.1875 125.817 65.5361 126.593 66.6176 125.963L76.3252 120.333C76.8214 120.041 77.1267 119.513 77.1331 118.94L77.1585 94.5058C77.1585 93.9333 77.4639 93.4053 77.9664 93.1126L94.678 83.4305C95.1742 83.1379 95.4859 82.6099 95.4859 82.0373V45.0772C95.4859 44.5047 95.1806 43.964 94.678 43.6841L66.6303 27.4496C65.5489 26.8198 64.2002 27.6087 64.2002 28.8428V39.3774C64.2002 39.9499 64.5056 40.4906 65.0081 40.7705L81.7388 50.4654C82.235 50.758 82.5467 51.286 82.5467 51.8586V75.2942C82.5467 75.8667 82.2413 76.4074 81.7388 76.6873L81.7261 76.7128Z" fill="white"/>
<path d="M0 33.3531V93.9269C0 95.1865 0.674315 96.3443 1.75576 96.9804L52.0431 126.11C53.1246 126.739 54.4732 125.951 54.4732 124.716V115.123C54.4732 113.787 53.7544 112.541 52.5902 111.866L14.2815 89.6902C13.7853 89.3976 13.4736 88.8696 13.4736 88.297V38.983C13.4736 38.4104 13.7789 37.8697 14.2815 37.5898L31.0121 27.9076C31.5083 27.615 31.82 27.087 31.82 26.5145V15.6873C31.82 14.4404 30.4714 13.6643 29.39 14.2941L1.78121 30.2868C0.680677 30.9293 0 32.0935 0 33.3658V33.3531Z" fill="white"/>
<path d="M23.1953 45.16V80.8732C23.1953 82.2091 23.9078 83.4432 25.0656 84.1112L52.0573 99.7349C53.1387 100.365 54.4874 99.5759 54.4874 98.3418V87.7817C54.4874 87.2092 54.182 86.6685 53.6794 86.3886L36.9488 76.7064C36.4526 76.4138 36.1409 75.8858 36.1409 75.3133V51.9031C36.1409 51.3306 36.4462 50.7898 36.9488 50.5099L53.6794 40.8278C54.1756 40.5352 54.4874 40.0072 54.4874 39.4346V2.6272C54.4874 1.38036 53.1387 0.604259 52.0573 1.23404L42.3497 6.85122C41.8535 7.14384 41.5418 7.67184 41.5418 8.24438V32.6788C41.5418 33.2513 41.2364 33.792 40.7339 34.0719L24.0032 43.7541C23.507 44.0467 23.1953 44.5747 23.1953 45.1472L23.208 45.16H23.1953Z" fill="white"/>
<path d="M585.108 72.1389C582.735 72.1389 580.731 72.9468 579.14 74.5372C577.55 76.1276 576.742 78.1378 576.742 80.4979C576.742 82.858 577.55 84.8746 579.14 86.4713C580.731 88.0553 582.735 88.8632 585.108 88.8632C587.48 88.8632 589.484 88.0553 591.062 86.4713C592.652 84.8809 593.466 82.8771 593.466 80.4979C593.466 78.1187 592.659 76.1212 591.068 74.5308C589.478 72.9468 587.474 72.1389 585.108 72.1389Z" fill="white"/>
<path d="M624.612 88.507C619.001 88.507 613.957 87.2792 609.484 84.8173C605.012 82.3554 601.494 78.9775 598.931 74.6835C596.367 70.3895 595.082 65.5039 595.082 60.0267C595.082 54.5495 596.361 49.4921 598.931 45.2617C601.494 41.0377 604.993 37.6916 609.433 35.2297C613.867 32.7678 618.925 31.5401 624.612 31.5401C630.299 31.5401 635.477 32.7742 639.943 35.2297C644.415 37.6916 647.914 41.0377 650.439 45.2617C652.971 49.4921 654.231 54.4095 654.231 60.0267C654.231 65.6439 652.965 70.4722 650.439 74.7344C647.908 78.9966 644.39 82.3618 639.886 84.8173C635.382 87.2792 630.286 88.507 624.606 88.507H624.612ZM624.612 77.4889C627.799 77.4889 630.643 76.7764 633.136 75.3578C635.63 73.9392 637.589 71.8908 639.008 69.2254C640.427 66.5599 641.139 63.4937 641.139 60.0267C641.139 56.5597 640.427 53.4235 639.008 50.828C637.589 48.2325 635.63 46.2223 633.136 44.7973C630.643 43.3787 627.837 42.6663 624.714 42.6663C621.59 42.6663 618.785 43.3787 616.291 44.7973C613.797 46.216 611.819 48.2262 610.369 50.828C608.918 53.4298 608.187 56.4961 608.187 60.0267C608.187 63.5573 608.912 66.5599 610.369 69.2254C611.825 71.8972 613.797 73.9392 616.291 75.3578C618.785 76.7764 621.558 77.4889 624.606 77.4889H624.612Z" fill="white"/>
<path d="M660.582 87.7754V32.2653H672.955V47.5455L671.498 43.0734C673.089 39.3328 675.69 36.4702 679.297 34.4981C682.898 32.5197 687.3 31.5337 692.497 31.5337V43.9067C692.014 43.8368 691.524 43.7859 691.041 43.7477C690.557 43.7159 690.106 43.6968 689.692 43.6968C684.705 43.6968 680.754 45.1154 677.841 47.959C674.927 50.8026 673.477 55.1347 673.477 60.9555V87.7754H660.588H660.582Z" fill="white"/>
<path d="M721.395 85.2817C716.058 85.2817 711.274 84.1557 707.05 81.9038C702.819 79.6518 699.48 76.5156 697.018 72.4952C694.556 68.4747 693.328 63.799 693.328 58.4618C693.328 53.1245 694.556 48.328 697.018 44.2693C699.48 40.2171 702.819 37.0809 707.05 34.8607C711.274 32.6406 716.058 31.5337 721.395 31.5337C726.109 31.5337 730.352 32.4879 734.131 34.39C737.909 36.2984 740.906 39.2247 743.126 43.1752C745.346 47.1256 746.453 52.2212 746.453 58.4554C746.453 64.6896 745.346 69.5816 743.126 73.5321C740.906 77.4825 737.909 80.4279 734.131 82.3681C730.352 84.3084 726.109 85.2817 721.395 85.2817ZM723.062 108.673C717.864 108.673 712.858 107.998 708.042 106.643C703.227 105.295 699.225 103.297 696.038 100.664L701.859 90.9943C704.283 93.0045 707.33 94.633 711.007 95.8799C714.677 97.1267 718.494 97.7502 722.445 97.7502C728.475 97.7502 732.909 96.3443 735.753 93.5389C738.596 90.7335 740.015 86.4904 740.015 80.8032V70.9302L741.052 58.4554L740.638 45.8788V32.2589H753.011V79.3528C753.011 89.3976 750.448 96.8023 745.32 101.548C740.193 106.294 732.776 108.666 723.074 108.666L723.062 108.673ZM723.373 74.2636C726.63 74.2636 729.544 73.5893 732.108 72.2343C734.671 70.8857 736.662 69.0091 738.087 66.6235C739.506 64.2316 740.218 61.5153 740.218 58.4618C740.218 55.4083 739.506 52.5011 738.087 50.1473C736.669 47.7936 734.671 45.9551 732.108 44.6383C729.544 43.3215 726.63 42.6663 723.373 42.6663C720.116 42.6663 717.19 43.3278 714.588 44.6383C711.986 45.9551 709.976 47.7936 708.557 50.1473C707.139 52.5074 706.426 55.2747 706.426 58.4618C706.426 61.6489 707.139 64.2316 708.557 66.6235C709.976 69.0154 711.986 70.8857 714.588 72.2343C717.184 73.583 720.116 74.2636 723.373 74.2636Z" fill="white"/>
</g>
<defs>
<clipPath id="clip0_79_124">
<rect width="753" height="125.454" fill="white" transform="translate(0 0.877792)"/>
</clipPath>
</defs>
</svg>
