<svg width="1475" height="398" viewBox="0 0 1475 398" fill="none" xmlns="http://www.w3.org/2000/svg">
<path d="M302.129 224.825C303.131 209.703 286.928 199.751 286.928 199.751L207.517 154.253L256.298 125.597L321.189 162.173C351.411 175.424 348.536 203.182 348.536 203.182L349.188 311.597L315.523 339.79L302.119 224.816L302.129 224.825ZM58.5339 58.2668L20.2239 85.2027L24.594 193.551C24.594 193.551 22.5792 221.385 53.2651 233.625L119.3 268.339L167.126 237.972L86.2873 194.988C86.2873 194.988 69.866 185.319 70.3295 170.197L58.5339 58.2668ZM126.896 377.047L167.192 398L260.394 342.266C260.394 342.266 285.783 330.632 281.905 297.893L280.656 223.323L230.617 196.028L231.79 287.468C231.79 287.468 232.329 305.378 218.811 312.363L126.896 377.047ZM-8.22544e-06 237.537L4.22829 284.463L99.3316 336.681C99.3316 336.681 122.204 352.691 148.482 332.739L212.294 294.131L210.856 237.537L132.42 284.604C132.42 284.604 116.756 292.77 103.995 284.604L-8.22544e-06 237.537ZM241.079 24.2424L204.008 0L110.408 54.836C110.408 54.836 84.9252 66.2247 88.6143 99.0298L89.1535 173.6L138.512 201.358L138.19 109.918C138.19 109.918 140.593 89.1061 154.176 82.3768L241.079 24.2424ZM374 161.068L369.989 114.19L275.132 61.5652C275.132 61.5652 252.335 45.4036 225.944 65.1567L161.999 103.689L163.182 160.283L241.788 113.462C241.788 113.462 257.528 105.372 270.223 113.462L374 161.068Z" fill="white"/>
<path d="M1417.95 298.798C1400.55 298.798 1386.81 295.974 1376.73 290.325C1366.81 284.829 1361.85 275.822 1361.85 263.303C1361.85 255.67 1364.9 249.334 1371.01 244.296C1377.11 239.258 1384.37 235.67 1392.76 233.533C1385.89 231.396 1382.46 227.197 1382.46 220.938C1382.46 215.747 1385.51 211.931 1391.62 209.488C1385.05 207.198 1379.56 203.229 1375.13 197.58C1370.85 191.931 1368.72 185.672 1368.72 178.802C1368.72 166.283 1373.14 157.2 1382 151.551C1391.01 145.902 1402.99 143.078 1417.95 143.078H1466.04V149.261L1445.43 152.009C1451.84 154.452 1457.04 158.192 1461 163.23C1465.13 168.268 1467.19 173.459 1467.19 178.802C1467.19 191.321 1462.91 200.328 1454.36 205.824C1445.97 211.32 1433.83 214.068 1417.95 214.068C1410.01 214.068 1404.21 214.526 1400.55 215.442C1396.88 216.205 1395.05 218.037 1395.05 220.938C1395.05 223.381 1396.88 224.984 1400.55 225.747C1404.21 226.51 1410.01 226.968 1417.95 227.121C1434.44 227.426 1447.88 230.709 1458.26 236.968C1468.79 243.075 1474.06 251.853 1474.06 263.303C1474.06 275.822 1469.02 284.829 1458.94 290.325C1449.02 295.974 1435.36 298.798 1417.95 298.798ZM1417.95 204.908C1430.17 204.908 1436.27 196.206 1436.27 178.802C1436.27 170.253 1434.59 163.688 1431.23 159.108C1427.88 154.528 1423.45 152.238 1417.95 152.238C1412.3 152.238 1407.8 154.452 1404.44 158.879C1401.24 163.306 1399.63 169.947 1399.63 178.802C1399.63 196.206 1405.74 204.908 1417.95 204.908ZM1417.95 288.493C1425.89 288.493 1432.07 286.356 1436.5 282.081C1440.93 277.959 1443.14 271.7 1443.14 263.303C1443.14 256.586 1441.01 251.013 1436.73 246.586C1432.61 242.006 1426.96 239.029 1419.78 237.655L1409.02 236.51C1403.68 238.8 1399.63 242.082 1396.88 246.357C1394.14 250.632 1392.76 256.28 1392.76 263.303C1392.76 271.7 1394.98 277.959 1399.4 282.081C1403.83 286.356 1410.01 288.493 1417.95 288.493Z" fill="white"/>
<path d="M1245.24 175.138C1245.24 167.352 1244.17 161.627 1242.04 157.963C1240.05 154.146 1235.85 152.238 1229.44 152.238H1227.15V145.368H1249.82C1255.01 145.368 1259.06 146.055 1261.96 147.429C1265.01 148.65 1267.38 150.788 1269.06 153.841C1276.85 146.666 1287.99 143.078 1302.49 143.078C1317 143.078 1327.84 146.513 1335.01 153.383C1342.34 160.1 1346 170.711 1346 185.214V252.998H1316.23V184.985C1316.23 174.451 1314.25 166.741 1310.28 161.856C1306.46 156.971 1301.2 154.528 1294.48 154.528C1289.75 154.528 1285.55 155.215 1281.88 156.589C1278.37 157.81 1275.55 159.49 1273.41 161.627L1274.1 164.833C1274.71 166.665 1275.01 169.642 1275.01 173.764V252.998H1245.24V175.138Z" fill="white"/>
<path d="M1198.85 133.005C1193.35 133.005 1189.07 131.326 1186.02 127.967C1183.12 124.609 1181.67 120.487 1181.67 115.601C1181.67 111.632 1182.82 108.502 1185.11 106.212C1187.55 103.922 1190.6 102.777 1194.27 102.777C1199.76 102.777 1203.96 104.457 1206.86 107.815C1209.91 111.174 1211.44 115.296 1211.44 120.181C1211.44 124.151 1210.22 127.28 1207.78 129.57C1205.49 131.86 1202.51 133.005 1198.85 133.005ZM1183.96 175.141C1183.96 167.355 1182.89 161.63 1180.75 157.966C1178.62 154.15 1174.34 152.241 1167.93 152.241H1165.64V145.371H1193.12C1198.62 145.371 1202.81 146.287 1205.72 148.119C1208.62 149.951 1210.68 153.005 1211.9 157.279C1213.12 161.401 1213.73 167.355 1213.73 175.141V253.001H1183.96V175.141Z" fill="white"/>
<path d="M1052.47 175.138C1052.47 167.352 1051.4 161.627 1049.26 157.963C1047.28 154.146 1043.08 152.238 1036.67 152.238H1034.38V145.368H1057.05C1062.24 145.368 1066.29 146.055 1069.19 147.429C1072.24 148.65 1074.61 150.788 1076.29 153.841C1084.07 146.666 1095.22 143.078 1109.72 143.078C1124.22 143.078 1135.06 146.513 1142.24 153.383C1149.57 160.1 1153.23 170.711 1153.23 185.214V252.998H1123.46V184.985C1123.46 174.451 1121.48 166.741 1117.51 161.856C1113.69 156.971 1108.42 154.528 1101.7 154.528C1096.97 154.528 1092.77 155.215 1089.11 156.589C1085.6 157.81 1082.77 159.49 1080.64 161.627L1081.32 164.833C1081.93 166.665 1082.24 169.642 1082.24 173.764V252.998H1052.47V175.138Z" fill="white"/>
<path d="M1006.08 133.005C1000.58 133.005 996.305 131.326 993.252 127.967C990.351 124.609 988.901 120.487 988.901 115.601C988.901 111.632 990.046 108.502 992.336 106.212C994.779 103.922 997.832 102.777 1001.5 102.777C1006.99 102.777 1011.19 104.457 1014.09 107.815C1017.14 111.174 1018.67 115.296 1018.67 120.181C1018.67 124.151 1017.45 127.28 1015.01 129.57C1012.72 131.86 1009.74 133.005 1006.08 133.005ZM991.191 175.141C991.191 167.355 990.122 161.63 987.985 157.966C985.848 154.15 981.573 152.241 975.161 152.241H972.871V145.371H1000.35C1005.85 145.371 1010.05 146.287 1012.95 148.119C1015.85 149.951 1017.91 153.005 1019.13 157.279C1020.35 161.401 1020.96 167.355 1020.96 175.141V253.001H991.191V175.141Z" fill="white"/>
<path d="M802.224 175.138C802.224 167.352 801.155 161.627 799.018 157.963C797.033 154.146 792.835 152.238 786.423 152.238H784.133V145.368H806.804C816.727 145.368 823.215 148.269 826.269 154.07H827.185C835.581 146.742 845.199 143.078 856.039 143.078C863.519 143.078 870.008 144.528 875.504 147.429C881.152 150.177 885.198 153.078 887.641 156.131C891.305 152.162 895.656 149.032 900.694 146.742C905.732 144.299 912.22 143.078 920.159 143.078C946.875 143.078 960.234 157.123 960.234 185.214V252.998H930.464V184.985C930.464 174.451 928.784 166.741 925.426 161.856C922.067 156.971 917.64 154.528 912.144 154.528C908.022 154.528 904.205 155.368 900.694 157.047C897.182 158.574 894.434 160.635 892.45 163.23C892.755 163.841 893.366 165.52 894.282 168.268C895.503 172.848 896.114 178.497 896.114 185.214V252.998H866.344V184.985C866.344 174.451 864.664 166.741 861.306 161.856C857.947 156.971 853.52 154.528 848.024 154.528C844.818 154.528 841.459 155.52 837.948 157.505C834.589 159.337 832.07 161.398 830.391 163.688L831.078 166.894C831.688 168.726 831.994 171.703 831.994 175.825V252.998H802.224V175.138Z" fill="white"/>
<path d="M679.902 245.902L740.129 155.676H713.107C703.489 155.676 696.696 157.432 692.726 160.943C688.757 164.302 686.772 169.798 686.772 177.431H679.902V163.691C679.902 151.478 686.391 145.371 699.367 145.371H780.891L715.855 242.696H776.082V253.001H679.902V245.902Z" fill="white"/>
<path d="M602.938 255.288C590.572 255.288 580.954 252.54 574.084 247.044C567.366 241.395 564.008 233.838 564.008 224.373C564.008 216.74 565.763 210.404 569.275 205.366C572.939 200.328 579.274 196.511 588.282 193.916C597.289 191.321 609.808 190.023 625.838 190.023H629.273C629.273 176.741 627.441 167.352 623.777 161.856C620.113 156.207 614.693 153.383 607.518 153.383C601.564 153.383 596.678 154.833 592.862 157.734C589.045 160.635 586.297 166.054 584.618 173.993H572.023C572.023 168.802 572.328 164.375 572.939 160.711C573.702 157.047 575.305 153.841 577.748 151.093C582.48 145.75 593.93 143.078 612.098 143.078C627.364 143.078 638.967 147.124 646.906 155.215C654.997 163.154 659.043 175.138 659.043 191.168V252.998H639.578L631.563 242.693H630.418C629.044 244.83 626.906 246.968 624.006 249.105C618.815 253.227 611.792 255.288 602.938 255.288ZM609.808 243.838C613.014 243.838 615.762 243.227 618.052 242.006C620.342 240.632 622.555 238.8 624.693 236.51C626.677 234.373 628.204 231.854 629.273 228.953V200.328H625.838C614.998 200.328 607.136 202.313 602.251 206.282C597.365 210.099 594.923 216.129 594.923 224.373C594.923 230.632 596.22 235.441 598.816 238.8C601.411 242.159 605.075 243.838 609.808 243.838Z" fill="white"/>
<path d="M491.516 256.893C482.966 256.893 474.722 255.748 466.784 253.458C458.845 251.321 452.357 248.191 447.319 244.069C442.281 239.795 439.762 234.909 439.762 229.413V202.62H446.174C448.464 218.192 453.273 229.413 460.601 236.283C467.929 243.153 478.157 246.588 491.287 246.588C500.141 246.588 507.164 244.68 512.355 240.863C517.545 237.047 520.141 231.551 520.141 224.375C520.141 218.269 518.232 213.078 514.416 208.803C510.599 204.529 504.645 199.872 496.554 194.834L468.387 177.888C458.158 171.934 450.83 165.751 446.403 159.339C442.128 152.927 439.991 145.447 439.991 136.897C439.991 124.837 444.571 115.295 453.731 108.272C463.043 101.25 475.562 97.7383 491.287 97.7383C499.836 97.7383 508.08 98.8833 516.019 101.173C523.957 103.311 530.446 106.517 535.484 110.791C540.522 114.913 543.041 119.722 543.041 125.218V152.011H536.629C534.033 136.439 529.224 125.218 522.202 118.348C515.179 111.478 505.714 108.043 493.806 108.043C485.562 108.043 478.997 110.028 474.112 113.997C469.379 117.967 467.013 123.386 467.013 130.256C467.013 136.21 468.845 141.172 472.509 145.141C476.325 148.958 482.432 153.309 490.829 158.194L518.996 174.911C529.682 181.171 537.316 187.277 541.896 193.231C546.628 199.033 548.995 206.055 548.995 214.299C548.995 227.581 543.957 238.039 533.881 245.672C523.957 253.153 509.836 256.893 491.516 256.893Z" fill="white"/>
</svg>
