<svg width="235" height="92" viewBox="0 0 235 92" fill="none" xmlns="http://www.w3.org/2000/svg">
<g clip-path="url(#clip0_3891_6223)">
<path d="M51.5484 90.7537H13.7439C10.3195 90.7537 7.58008 87.962 7.58008 84.5754V6.63729C7.58008 3.25066 10.3652 0.458984 13.7439 0.458984H51.5484C54.9727 0.458984 57.7122 3.25066 57.7122 6.63729V84.5297C57.7578 87.962 54.9727 90.7537 51.5484 90.7537Z" stroke="white" stroke-width="1.07306" stroke-miterlimit="10"/>
<path d="M52.9184 5.40234H41.5039L36.2533 10.9857H28.8111L24.154 5.40234H12.3743C11.7808 5.40234 11.3242 5.86 11.3242 6.45494V73.7298C11.3242 74.3247 11.7808 74.7824 12.3743 74.7824H52.9184C53.5119 74.7824 53.9685 74.3247 53.9685 73.7298V6.45494C53.9685 5.86 53.5119 5.40234 52.9184 5.40234Z" stroke="white" stroke-width="1.07306" stroke-miterlimit="10"/>
<path d="M32.6458 87.2763C34.9657 87.2763 36.8463 85.3912 36.8463 83.0659C36.8463 80.7405 34.9657 78.8555 32.6458 78.8555C30.3259 78.8555 28.4453 80.7405 28.4453 83.0659C28.4453 85.3912 30.3259 87.2763 32.6458 87.2763Z" stroke="white" stroke-width="1.07306" stroke-miterlimit="10"/>
<path d="M32.6469 8.19362C33.7312 8.19362 34.6102 7.31256 34.6102 6.22572C34.6102 5.13887 33.7312 4.25781 32.6469 4.25781C31.5626 4.25781 30.6836 5.13887 30.6836 6.22572C30.6836 7.31256 31.5626 8.19362 32.6469 8.19362Z" stroke="white" stroke-width="1.07306" stroke-miterlimit="10"/>
<path d="M21.4136 72.9049C19.6329 72.9049 18.1719 71.4405 18.1719 69.6556V65.3079C18.1719 63.5231 19.6329 62.0586 21.4136 62.0586C23.1942 62.0586 24.6553 63.5231 24.6553 65.3079V69.6556C24.6553 71.4405 23.1942 72.9049 21.4136 72.9049ZM21.4136 63.34C20.3178 63.34 19.4046 64.2553 19.4046 65.3537V69.7014C19.4046 70.7997 20.3178 71.715 21.4136 71.715C22.5094 71.715 23.4225 70.7997 23.4225 69.7014V65.3537C23.3768 64.2096 22.5094 63.34 21.4136 63.34Z" fill="white"/>
<path d="M14.8404 72.9038C14.4751 72.9038 14.2012 72.6292 14.2012 72.2631V62.6524C14.2012 62.2863 14.4751 62.0117 14.8404 62.0117C15.2056 62.0117 15.4796 62.2863 15.4796 62.6524V72.2631C15.4796 72.6292 15.2056 72.9038 14.8404 72.9038Z" fill="white"/>
<path d="M34.6558 72.9049C32.8751 72.9049 31.4141 71.4405 31.4141 69.6556V65.3079C31.4141 63.5231 32.8751 62.0586 34.6558 62.0586C36.4364 62.0586 37.8974 63.5231 37.8974 65.3079V69.6556C37.8974 71.4405 36.4364 72.9049 34.6558 72.9049ZM34.6558 63.34C33.56 63.34 32.6468 64.2553 32.6468 65.3537V69.7014C32.6468 70.7997 33.56 71.715 34.6558 71.715C35.7515 71.715 36.6647 70.7997 36.6647 69.7014V65.3537C36.619 64.2096 35.7515 63.34 34.6558 63.34Z" fill="white"/>
<path d="M28.0806 72.9038C27.7154 72.9038 27.4414 72.6292 27.4414 72.2631V62.6524C27.4414 62.2863 27.7154 62.0117 28.0806 62.0117C28.4459 62.0117 28.7198 62.2863 28.7198 62.6524V72.2631C28.7198 72.6292 28.4459 72.9038 28.0806 72.9038Z" fill="white"/>
<path d="M47.8511 72.9049C46.0704 72.9049 44.6094 71.4405 44.6094 69.6556V65.3079C44.6094 63.5231 46.0704 62.0586 47.8511 62.0586C49.6317 62.0586 51.0928 63.5231 51.0928 65.3079V69.6556C51.0928 71.4405 49.6317 72.9049 47.8511 72.9049ZM47.8511 63.34C46.7553 63.34 45.8421 64.2553 45.8421 65.3537V69.7014C45.8421 70.7997 46.7553 71.715 47.8511 71.715C48.9469 71.715 49.86 70.7997 49.86 69.7014V65.3537C49.8143 64.2096 48.9469 63.34 47.8511 63.34Z" fill="white"/>
<path d="M41.3208 72.9038C40.9556 72.9038 40.6816 72.6292 40.6816 72.2631V62.6524C40.6816 62.2863 40.9556 62.0117 41.3208 62.0117C41.6861 62.0117 41.9601 62.2863 41.9601 62.6524V72.2631C41.9144 72.6292 41.6405 72.9038 41.3208 72.9038Z" fill="white"/>
<path d="M30.4995 59.5885C28.7189 59.5885 27.2578 58.1241 27.2578 56.3392V51.9915C27.2578 50.2067 28.7189 48.7422 30.4995 48.7422C32.2802 48.7422 33.7412 50.2067 33.7412 51.9915V56.3392C33.7869 58.1241 32.3258 59.5885 30.4995 59.5885ZM30.4995 49.9778C29.4037 49.9778 28.4906 50.8932 28.4906 51.9915V56.3392C28.4906 57.4376 29.4037 58.3529 30.4995 58.3529C31.5953 58.3529 32.5084 57.4376 32.5084 56.3392V51.9915C32.5084 50.8932 31.5953 49.9778 30.4995 49.9778Z" fill="white"/>
<path d="M23.9712 59.5874C23.606 59.5874 23.332 59.3128 23.332 58.9467V49.336C23.332 48.9699 23.606 48.6953 23.9712 48.6953C24.3365 48.6953 24.6104 48.9699 24.6104 49.336V58.9467C24.6104 59.3128 24.2908 59.5874 23.9712 59.5874Z" fill="white"/>
<path d="M43.7397 59.5885C41.9591 59.5885 40.498 58.1241 40.498 56.3392V51.9915C40.498 50.2067 41.9591 48.7422 43.7397 48.7422C45.5204 48.7422 46.9814 50.2067 46.9814 51.9915V56.3392C47.0271 58.1241 45.5661 59.5885 43.7397 59.5885ZM43.7397 49.9778C42.644 49.9778 41.7308 50.8932 41.7308 51.9915V56.3392C41.7308 57.4376 42.644 58.3529 43.7397 58.3529C44.8355 58.3529 45.7487 57.4376 45.7487 56.3392V51.9915C45.7487 50.8932 44.8355 49.9778 43.7397 49.9778Z" fill="white"/>
<path d="M37.2115 59.5874C36.8462 59.5874 36.5723 59.3128 36.5723 58.9467V49.336C36.5723 48.9699 36.8462 48.6953 37.2115 48.6953C37.5767 48.6953 37.8507 48.9699 37.8507 49.336V58.9467C37.8507 59.3128 37.5767 59.5874 37.2115 59.5874Z" fill="white"/>
<path d="M17.5327 59.5885C15.7521 59.5885 14.291 58.1241 14.291 56.3392V51.9915C14.291 50.2067 15.7521 48.7422 17.5327 48.7422C19.3134 48.7422 20.7744 50.2067 20.7744 51.9915V56.3392C20.8201 58.1241 19.359 59.5885 17.5327 59.5885ZM17.5327 49.9778C16.4369 49.9778 15.5238 50.8932 15.5238 51.9915V56.3392C15.5238 57.4376 16.4369 58.3529 17.5327 58.3529C18.6285 58.3529 19.5416 57.4376 19.5416 56.3392V51.9915C19.5416 50.8932 18.6285 49.9778 17.5327 49.9778Z" fill="white"/>
<path d="M50.4068 59.5874C50.0415 59.5874 49.7676 59.3128 49.7676 58.9467V49.336C49.7676 48.9699 50.0415 48.6953 50.4068 48.6953C50.772 48.6953 51.046 48.9699 51.046 49.336V58.9467C51.046 59.3128 50.772 59.5874 50.4068 59.5874Z" fill="white"/>
<path d="M21.4136 44.5768C19.6329 44.5768 18.1719 43.1123 18.1719 41.3275V36.9798C18.1719 35.195 19.6329 33.7305 21.4136 33.7305C23.1942 33.7305 24.6553 35.195 24.6553 36.9798V41.3275C24.6553 43.1123 23.1942 44.5768 21.4136 44.5768ZM21.4136 34.9661C20.3178 34.9661 19.4046 35.8814 19.4046 36.9798V41.3275C19.4046 42.4259 20.3178 43.3412 21.4136 43.3412C22.5094 43.3412 23.4225 42.4259 23.4225 41.3275V36.9798C23.3768 35.8814 22.5094 34.9661 21.4136 34.9661Z" fill="white"/>
<path d="M14.8404 44.5757C14.4751 44.5757 14.2012 44.3011 14.2012 43.935V34.3243C14.2012 33.9582 14.4751 33.6836 14.8404 33.6836C15.2056 33.6836 15.4796 33.9582 15.4796 34.3243V43.935C15.4796 44.3011 15.2056 44.5757 14.8404 44.5757Z" fill="white"/>
<path d="M34.6558 44.5768C32.8751 44.5768 31.4141 43.1123 31.4141 41.3275V36.9798C31.4141 35.195 32.8751 33.7305 34.6558 33.7305C36.4364 33.7305 37.8974 35.195 37.8974 36.9798V41.3275C37.8974 43.1123 36.4364 44.5768 34.6558 44.5768ZM34.6558 34.9661C33.56 34.9661 32.6468 35.8814 32.6468 36.9798V41.3275C32.6468 42.4259 33.56 43.3412 34.6558 43.3412C35.7515 43.3412 36.6647 42.4259 36.6647 41.3275V36.9798C36.619 35.8814 35.7515 34.9661 34.6558 34.9661Z" fill="white"/>
<path d="M28.0806 44.5757C27.7154 44.5757 27.4414 44.3011 27.4414 43.935V34.3243C27.4414 33.9582 27.7154 33.6836 28.0806 33.6836C28.4459 33.6836 28.7198 33.9582 28.7198 34.3243V43.935C28.7198 44.3011 28.4459 44.5757 28.0806 44.5757Z" fill="white"/>
<path d="M47.8511 44.5768C46.0704 44.5768 44.6094 43.1123 44.6094 41.3275V36.9798C44.6094 35.195 46.0704 33.7305 47.8511 33.7305C49.6317 33.7305 51.0928 35.195 51.0928 36.9798V41.3275C51.0928 43.1123 49.6317 44.5768 47.8511 44.5768ZM47.8511 34.9661C46.7553 34.9661 45.8421 35.8814 45.8421 36.9798V41.3275C45.8421 42.4259 46.7553 43.3412 47.8511 43.3412C48.9469 43.3412 49.86 42.4259 49.86 41.3275V36.9798C49.8143 35.8814 48.9469 34.9661 47.8511 34.9661Z" fill="white"/>
<path d="M41.3208 44.5757C40.9556 44.5757 40.6816 44.3011 40.6816 43.935V34.3243C40.6816 33.9582 40.9556 33.6836 41.3208 33.6836C41.6861 33.6836 41.9601 33.9582 41.9601 34.3243V43.935C41.9144 44.3011 41.6405 44.5757 41.3208 44.5757Z" fill="white"/>
<path d="M30.4995 29.1081C28.7189 29.1081 27.2578 27.6436 27.2578 25.8587V21.511C27.2578 19.7262 28.7189 18.2617 30.4995 18.2617C32.2802 18.2617 33.7412 19.7262 33.7412 21.511V25.8587C33.7869 27.6436 32.3258 29.1081 30.4995 29.1081ZM30.4995 19.4974C29.4037 19.4974 28.4906 20.4127 28.4906 21.511V25.8587C28.4906 26.9571 29.4037 27.8724 30.4995 27.8724C31.5953 27.8724 32.5084 26.9571 32.5084 25.8587V21.511C32.5084 20.4127 31.5953 19.4974 30.4995 19.4974Z" fill="white"/>
<path d="M23.9712 29.107C23.606 29.107 23.332 28.8324 23.332 28.4662V18.8556C23.332 18.4894 23.606 18.2148 23.9712 18.2148C24.3365 18.2148 24.6104 18.4894 24.6104 18.8556V28.4662C24.6104 28.8324 24.2908 29.107 23.9712 29.107Z" fill="white"/>
<path d="M43.7397 29.1081C41.9591 29.1081 40.498 27.6436 40.498 25.8587V21.511C40.498 19.7262 41.9591 18.2617 43.7397 18.2617C45.5204 18.2617 46.9814 19.7262 46.9814 21.511V25.8587C47.0271 27.6436 45.5661 29.1081 43.7397 29.1081ZM43.7397 19.4974C42.644 19.4974 41.7308 20.4127 41.7308 21.511V25.8587C41.7308 26.9571 42.644 27.8724 43.7397 27.8724C44.8355 27.8724 45.7487 26.9571 45.7487 25.8587V21.511C45.7487 20.4127 44.8355 19.4974 43.7397 19.4974Z" fill="white"/>
<path d="M37.2115 29.107C36.8462 29.107 36.5723 28.8324 36.5723 28.4662V18.8556C36.5723 18.4894 36.8462 18.2148 37.2115 18.2148C37.5767 18.2148 37.8507 18.4894 37.8507 18.8556V28.4662C37.8507 28.8324 37.5767 29.107 37.2115 29.107Z" fill="white"/>
<path d="M17.5327 29.1081C15.7521 29.1081 14.291 27.6436 14.291 25.8587V21.511C14.291 19.7262 15.7521 18.2617 17.5327 18.2617C19.3134 18.2617 20.7744 19.7262 20.7744 21.511V25.8587C20.8201 27.6436 19.359 29.1081 17.5327 29.1081ZM17.5327 19.4974C16.4369 19.4974 15.5238 20.4127 15.5238 21.511V25.8587C15.5238 26.9571 16.4369 27.8724 17.5327 27.8724C18.6285 27.8724 19.5416 26.9571 19.5416 25.8587V21.511C19.5416 20.4127 18.6285 19.4974 17.5327 19.4974Z" fill="white"/>
<path d="M50.4068 29.107C50.0415 29.107 49.7676 28.8324 49.7676 28.4662V18.8556C49.7676 18.4894 50.0415 18.2148 50.4068 18.2148C50.772 18.2148 51.046 18.4894 51.046 18.8556V28.4662C51.046 28.8324 50.772 29.107 50.4068 29.107Z" fill="white"/>
<path d="M30.7291 14.0966C32.4641 14.0966 33.8794 12.7237 33.9708 10.9846H32.6923C32.601 11.9914 31.7792 12.8152 30.7291 12.8152C29.6789 12.8152 28.7658 11.9457 28.7658 10.8931L27.4874 9.38281V10.8473C27.4417 12.5864 28.9028 14.0966 30.7291 14.0966Z" fill="white"/>
<path d="M23.7431 14.0969C24.1083 14.0969 24.3823 13.8223 24.3823 13.4562V5.72186L24.154 5.44727H23.1495V13.4562C23.1039 13.7765 23.3778 14.0969 23.7431 14.0969Z" fill="white"/>
<path d="M41.1382 10.8026C41.1382 12.5875 42.5992 14.052 44.3799 14.052C46.1605 14.052 47.6216 12.5875 47.6216 10.8026V6.45494C47.6216 6.08882 47.5759 5.7227 47.4389 5.40234H46.0236C46.2062 5.7227 46.3432 6.08882 46.3432 6.45494V10.8026C46.3432 11.901 45.43 12.8163 44.3342 12.8163C43.2384 12.8163 42.3253 11.901 42.3253 10.8026V6.45494C42.3253 6.04306 42.4623 5.7227 42.6449 5.40234H41.4121L41.1382 5.67693C41.0925 5.90576 41.0469 6.18035 41.0469 6.45494V10.8026H41.1382Z" fill="white"/>
<path d="M36.983 14.098C37.3482 14.098 37.6222 13.8234 37.6222 13.4573V9.52148L36.3438 10.8944V13.4573C36.3437 13.7776 36.6634 14.098 36.983 14.098Z" fill="white"/>
<path d="M14.4741 10.8026C14.4741 12.5875 15.9352 14.052 17.7158 14.052C19.4965 14.052 20.9575 12.5875 20.9575 10.8026V6.45494C20.9575 6.08882 20.9119 5.7227 20.7749 5.40234H19.3595C19.5421 5.7227 19.6791 6.08882 19.6791 6.45494V10.8026C19.6791 11.901 18.7659 12.8163 17.6702 12.8163C16.5744 12.8163 15.6612 11.901 15.6612 10.8026V6.45494C15.6612 6.04306 15.7982 5.7227 15.9808 5.40234H14.5654C14.4285 5.7227 14.3828 6.08882 14.3828 6.45494V10.8026H14.4741Z" fill="white"/>
<path d="M50.1783 14.0977C50.5435 14.0977 50.8175 13.8231 50.8175 13.457V5.40234H49.5391V13.4113C49.5391 13.7774 49.8587 14.0977 50.1783 14.0977Z" fill="white"/>
<path d="M32.7364 27.0011C33.6039 27.0011 34.2888 27.1842 34.5171 28.3283C34.7453 29.5182 34.6997 32.3556 36.526 35.3761C38.2153 38.1678 42.5528 41.3256 48.5796 41.3256C54.6064 41.3256 58.7613 37.4356 60.2223 34.4151C61.6834 31.4403 61.3638 27.8706 61.4094 26.9096C61.4551 25.9485 62.4595 25.3536 63.464 25.1705C64.4685 24.9874 65.062 24.4383 65.2447 23.7518C65.4273 23.0653 65.6099 19.5871 63.738 18.3515C61.866 17.1158 59.2179 17.1616 59.2179 17.1616H50.6342C50.6342 17.1616 45.3836 17.2531 43.1464 17.7565C40.9091 18.26 38.9459 19.9075 37.2109 20.777C35.2019 21.8296 32.7364 21.8754 32.7364 21.8754C32.7364 21.8754 30.3166 21.8296 28.262 20.777C26.5726 19.9075 24.6093 18.3057 22.3265 17.7565C20.0892 17.2531 14.8386 17.1616 14.8386 17.1616H6.16365C6.16365 17.1616 3.51551 17.0701 1.64354 18.3515C-0.228419 19.5871 -0.0914463 23.0195 0.136842 23.7518C0.36513 24.484 0.913022 25.0332 1.91749 25.1705C2.92196 25.3078 3.92643 25.9027 3.97209 26.9096C4.01774 27.9164 3.69814 31.4403 5.15918 34.4151C6.62023 37.3898 10.7751 41.3256 16.8019 41.3256C22.8287 41.3256 27.1662 38.122 28.8555 35.3761C30.6818 32.3556 30.5905 29.5182 30.8644 28.3283C31.0927 27.1384 32.0059 27.0011 32.7364 27.0011Z" fill="white"/>
<path d="M14.7479 19.679C14.7479 19.679 11.004 19.496 9.54294 19.8163C8.0819 20.1367 5.89033 21.0977 5.57073 23.6148C5.25112 26.1319 5.29678 32.9509 8.76676 35.8799C12.2367 38.8089 16.4373 40.0445 21.0943 38.7173C25.7058 37.3444 28.9931 32.6763 29.0844 28.3744C29.1757 24.0725 26.5733 22.2876 24.5187 21.2808C22.4641 20.274 20.5464 19.9078 19.6789 19.8163C18.8571 19.7706 14.7479 19.679 14.7479 19.679Z" fill="black"/>
<path d="M50.6809 19.679C50.6809 19.679 54.4248 19.496 55.8858 19.8163C57.3469 20.1367 59.5384 21.0977 59.8581 23.6148C60.1777 26.1319 60.132 32.9509 56.662 35.8799C53.192 38.8089 48.9915 40.0445 44.3344 38.7173C39.723 37.3444 36.39 32.6763 36.3444 28.3744C36.2987 24.1182 38.8555 22.2876 40.9101 21.2808C42.9647 20.274 44.8823 19.9078 45.7498 19.8163C46.5717 19.7706 50.6809 19.679 50.6809 19.679Z" fill="black"/>
<path d="M76.8882 36.1555C78.5776 36.1555 79.8103 35.9266 80.6322 35.469C81.454 35.0113 81.8649 34.3249 81.8649 33.318C81.8649 32.3112 81.454 31.5332 80.6778 30.9382C79.9016 30.3433 78.5776 29.7026 76.7512 28.9246C75.8838 28.5584 75.0163 28.1923 74.1944 27.8262C73.3726 27.4601 72.6877 27.0024 72.0942 26.499C71.5006 25.9956 71.044 25.4006 70.6788 24.6684C70.3135 23.9362 70.1309 23.0666 70.1309 22.0598C70.1309 20.0003 70.8614 18.3986 72.3681 17.2087C73.8748 16.0188 75.9294 15.4238 78.5319 15.4238C79.1711 15.4238 79.8103 15.4696 80.4952 15.5154C81.1344 15.6069 81.7279 15.6984 82.3215 15.7899C82.8694 15.8815 83.3716 16.0188 83.7825 16.1103C84.1934 16.2476 84.5587 16.3391 84.787 16.4307L84.0565 20.0003C83.5999 19.7715 82.915 19.4969 81.9562 19.2681C80.9974 19.0393 79.856 18.902 78.5319 18.902C77.3905 18.902 76.386 19.1308 75.5185 19.5885C74.651 20.0461 74.2401 20.7784 74.2401 21.7394C74.2401 22.2428 74.3314 22.7005 74.514 23.0666C74.6967 23.4327 75.0163 23.7989 75.3815 24.1192C75.7924 24.4396 76.2947 24.7142 76.8426 24.9888C77.4361 25.2633 78.121 25.5379 78.9885 25.8125C80.0843 26.2244 81.0431 26.6363 81.9106 27.0482C82.7781 27.4601 83.5086 27.9177 84.1021 28.4669C84.6957 29.0161 85.1523 29.6568 85.5175 30.389C85.8371 31.1213 86.0198 32.0824 86.0198 33.1807C86.0198 35.3317 85.2436 36.9335 83.6456 38.0318C82.0475 39.1302 79.8103 39.6794 76.8882 39.6794C74.8336 39.6794 73.2356 39.4963 72.0942 39.176C70.9527 38.8556 70.1765 38.581 69.7656 38.398L70.4961 34.8283C70.9527 35.0113 71.7289 35.2859 72.7334 35.6063C73.7835 35.9724 75.1532 36.1555 76.8882 36.1555Z" fill="white"/>
<path d="M91.5446 11.9003C90.8141 11.9003 90.1749 11.6715 89.6727 11.1681C89.1704 10.6646 88.8965 10.0239 88.8965 9.20015C88.8965 8.37637 89.1704 7.73566 89.6727 7.23224C90.1749 6.72883 90.8141 6.5 91.5446 6.5C92.2752 6.5 92.9144 6.72883 93.4166 7.23224C93.9188 7.73566 94.1928 8.37637 94.1928 9.20015C94.1928 10.0239 93.9188 10.7104 93.4166 11.1681C92.9144 11.6257 92.2752 11.9003 91.5446 11.9003ZM93.5992 39.1306H89.49V16.0649H93.5992V39.1306Z" fill="white"/>
<path d="M104.968 39.5868C102.411 39.5411 100.631 38.9919 99.5804 37.9393C98.5303 36.8867 97.9824 35.2849 97.9824 33.0882V5.40021L102.092 4.66797V32.4017C102.092 33.0882 102.137 33.6373 102.274 34.095C102.411 34.5526 102.594 34.873 102.868 35.1476C103.142 35.4222 103.507 35.6052 103.918 35.7425C104.374 35.8798 104.922 35.9714 105.562 36.0629L104.968 39.5868Z" fill="white"/>
<path d="M107.068 27.6434C107.068 25.584 107.342 23.7991 107.936 22.2889C108.529 20.7786 109.306 19.4972 110.264 18.4904C111.223 17.4835 112.365 16.7513 113.643 16.2479C114.921 15.7445 116.2 15.5156 117.524 15.5156C120.629 15.5156 123.003 16.4767 124.647 18.4446C126.29 20.3667 127.112 23.3415 127.112 27.323C127.112 27.5061 127.112 27.7349 127.112 28.0095C127.112 28.2841 127.112 28.5587 127.066 28.7875H111.315C111.497 31.1673 112.182 32.9979 113.415 34.2336C114.648 35.4693 116.519 36.11 119.076 36.11C120.537 36.11 121.724 35.9727 122.729 35.7438C123.733 35.515 124.464 35.2404 124.966 35.0116L125.56 38.4898C125.057 38.7643 124.19 39.0389 122.912 39.3135C121.679 39.5881 120.218 39.7712 118.62 39.7712C116.611 39.7712 114.876 39.4508 113.415 38.8559C111.954 38.2609 110.767 37.3914 109.808 36.3388C108.849 35.2862 108.164 34.0048 107.708 32.5403C107.297 30.9843 107.068 29.3825 107.068 27.6434ZM122.866 25.4009C122.912 23.5245 122.409 22.0143 121.451 20.8244C120.492 19.6345 119.168 19.0395 117.478 19.0395C116.519 19.0395 115.698 19.2226 114.967 19.5887C114.237 19.9548 113.643 20.4583 113.141 21.0532C112.639 21.6482 112.228 22.3346 111.954 23.1126C111.68 23.8907 111.497 24.6687 111.406 25.4467H122.866V25.4009Z" fill="white"/>
<path d="M128.664 16.7047C129.577 16.4759 130.81 16.2013 132.362 15.9724C133.915 15.6978 135.65 15.5605 137.659 15.5605C139.439 15.5605 140.946 15.8351 142.133 16.3386C143.32 16.842 144.279 17.5742 144.964 18.5353C145.694 19.4506 146.151 20.5947 146.471 21.8761C146.744 23.1576 146.927 24.6221 146.927 26.1781V39.1296H142.909V27.0476C142.909 25.6289 142.818 24.3932 142.635 23.3864C142.453 22.3796 142.133 21.5558 141.722 20.9608C141.266 20.3201 140.718 19.9082 139.987 19.5879C139.257 19.3133 138.343 19.176 137.293 19.176C136.837 19.176 136.426 19.176 135.924 19.2218C135.467 19.2675 135.01 19.2675 134.6 19.3133C134.189 19.3591 133.823 19.4048 133.458 19.4506C133.139 19.4964 132.865 19.5421 132.728 19.5879V39.0839H128.664V16.7047Z" fill="white"/>
<path d="M152.635 16.064H161.355V19.5422H152.635V30.2055C152.635 31.3496 152.726 32.3107 152.909 33.0887C153.091 33.8209 153.365 34.4159 153.685 34.8735C154.05 35.2854 154.461 35.6058 155.009 35.7888C155.557 35.9719 156.15 36.0634 156.881 36.0634C158.114 36.0634 159.118 35.9261 159.849 35.6516C160.579 35.377 161.127 35.1481 161.401 35.0566L162.177 38.489C161.766 38.7178 161.036 38.9466 159.986 39.267C158.936 39.5874 157.748 39.7247 156.424 39.7247C154.872 39.7247 153.548 39.5416 152.544 39.1297C151.539 38.7178 150.717 38.1229 150.078 37.3449C149.439 36.5669 149.028 35.56 148.754 34.3701C148.48 33.1802 148.389 31.853 148.389 30.297V9.61115L152.498 8.87891V16.064H152.635Z" fill="white"/>
<path d="M172.859 36.7501C172.859 37.5281 172.585 38.2604 172.083 38.8553C171.535 39.4503 170.85 39.7249 169.892 39.7249C168.978 39.7249 168.248 39.4503 167.7 38.8553C167.152 38.2604 166.924 37.5739 166.924 36.7501C166.924 35.9264 167.198 35.2399 167.7 34.6449C168.248 34.05 168.933 33.7754 169.892 33.7754C170.805 33.7754 171.535 34.05 172.083 34.6449C172.585 35.2399 172.859 35.9264 172.859 36.7501Z" fill="white"/>
<path d="M184.868 39.5868C182.312 39.5411 180.531 38.9919 179.481 37.9393C178.431 36.8867 177.883 35.2849 177.883 33.0882V5.40021L181.992 4.66797V32.4017C181.992 33.0882 182.038 33.6373 182.175 34.095C182.312 34.5526 182.494 34.873 182.768 35.1476C183.042 35.4222 183.407 35.6052 183.818 35.7425C184.275 35.8798 184.823 35.9714 185.462 36.0629L184.868 39.5868Z" fill="white"/>
<path d="M189.433 11.9003C188.703 11.9003 188.064 11.6715 187.561 11.1681C187.059 10.6646 186.785 10.0239 186.785 9.20015C186.785 8.37637 187.059 7.73566 187.561 7.23224C188.064 6.72883 188.703 6.5 189.433 6.5C190.164 6.5 190.803 6.72883 191.305 7.23224C191.807 7.73566 192.081 8.37637 192.081 9.20015C192.081 10.0239 191.807 10.7104 191.305 11.1681C190.803 11.6257 190.164 11.9003 189.433 11.9003ZM191.534 39.1306H187.424V16.0649H191.534V39.1306Z" fill="white"/>
<path d="M195.051 16.7047C196.01 16.4759 197.242 16.2013 198.795 15.9724C200.347 15.6978 202.173 15.5605 204.182 15.5605C206.009 15.5605 207.515 15.8351 208.748 16.3386C209.981 16.842 210.94 17.5742 211.67 18.5353C212.401 19.4506 212.903 20.5947 213.177 21.8761C213.451 23.1576 213.633 24.6221 213.633 26.1781V39.1296H209.524V27.0476C209.524 25.6289 209.433 24.3932 209.25 23.3864C209.068 22.3796 208.748 21.5558 208.292 20.9608C207.835 20.3201 207.241 19.9082 206.511 19.5879C205.78 19.3133 204.867 19.176 203.771 19.176C203.315 19.176 202.858 19.176 202.402 19.2218C201.945 19.2675 201.488 19.2675 201.032 19.3133C200.621 19.3591 200.21 19.4048 199.89 19.4506C199.571 19.4964 199.297 19.5421 199.16 19.5879V39.0839H195.051V16.7047Z" fill="white"/>
<path d="M224.409 26.4522C225.276 27.1387 226.235 27.9625 227.239 28.9693C228.244 29.9761 229.203 31.0745 230.161 32.2186C231.12 33.4085 232.033 34.5526 232.901 35.7883C233.768 36.9782 234.499 38.1223 235.092 39.1292H230.253C229.614 38.0766 228.929 37.024 228.107 35.9714C227.285 34.873 226.463 33.8662 225.55 32.8593C224.683 31.8525 223.769 30.9372 222.856 30.1134C221.943 29.2896 221.076 28.6032 220.254 28.0082V39.1292H216.145V5.40021L220.254 4.66797V25.72C220.984 24.9877 221.76 24.2097 222.582 23.3859C223.45 22.5164 224.272 21.6469 225.093 20.7773C225.915 19.9078 226.691 19.0382 227.422 18.2145C228.153 17.3907 228.792 16.7042 229.34 16.0635H234.179C233.494 16.7957 232.764 17.6195 231.988 18.4891C231.212 19.3586 230.344 20.2739 229.522 21.1892C228.655 22.1045 227.787 22.974 226.92 23.8894C225.961 24.8047 225.139 25.6284 224.409 26.4522Z" fill="white"/>
<path d="M70.6328 59.1289H73.5549V80.0894H70.6328V59.1289Z" fill="white"/>
<path d="M91.2701 80.0902C90.8135 79.358 90.3113 78.4884 89.7634 77.5731C89.1698 76.6578 88.5763 75.6967 87.8914 74.6899C87.2066 73.6831 86.5217 72.6762 85.8368 71.6694C85.1063 70.6626 84.4215 69.6557 83.6909 68.6947C83.0061 67.7336 82.3212 66.8183 81.6363 65.9945C80.9515 65.125 80.3579 64.3927 79.81 63.752V80.0902H76.9336V59.084H79.2621C80.2209 60.0908 81.2254 61.2807 82.2755 62.6079C83.3713 63.9351 84.4214 65.3538 85.4716 66.7725C86.5217 68.1913 87.5262 69.61 88.485 70.9829C89.4438 72.3559 90.22 73.5916 90.8592 74.6442V59.1297H93.7356V80.0902H91.2701Z" fill="white"/>
<path d="M101.225 77.9854C104.284 77.9854 105.836 76.9328 105.836 74.8276C105.836 74.1869 105.699 73.6377 105.425 73.18C105.151 72.7224 104.786 72.3105 104.33 71.9901C103.873 71.6698 103.325 71.3494 102.732 71.1206C102.138 70.8918 101.499 70.6172 100.86 70.3883C100.083 70.1138 99.3529 69.8392 98.668 69.473C97.9831 69.1527 97.3896 68.7408 96.8874 68.2831C96.3851 67.8255 95.9742 67.2763 95.7003 66.6814C95.4263 66.0406 95.2437 65.3084 95.2437 64.3931C95.2437 62.5625 95.8829 61.1438 97.1156 60.0912C98.3484 59.0843 100.083 58.5352 102.275 58.5352C103.553 58.5352 104.695 58.6725 105.745 58.947C106.795 59.2216 107.526 59.4962 108.028 59.8623L107.069 62.2421C106.658 61.9675 106.019 61.7387 105.197 61.4641C104.375 61.1895 103.371 61.098 102.275 61.098C101.727 61.098 101.179 61.1438 100.723 61.2811C100.22 61.4184 99.8095 61.6014 99.4442 61.8303C99.0789 62.0591 98.805 62.3794 98.5767 62.7456C98.3484 63.1117 98.2571 63.5693 98.2571 64.0727C98.2571 64.6219 98.3484 65.1253 98.5767 65.4915C98.805 65.8576 99.1246 66.2237 99.5355 66.4983C99.9464 66.7729 100.403 67.0475 100.951 67.3221C101.499 67.5509 102.092 67.8255 102.732 68.0543C103.645 68.4204 104.467 68.7866 105.243 69.1527C106.019 69.5188 106.658 69.9307 107.206 70.4341C107.754 70.9375 108.21 71.5325 108.484 72.219C108.804 72.9054 108.941 73.775 108.941 74.736C108.941 76.5666 108.256 77.9854 106.932 78.9922C105.608 79.999 103.69 80.4567 101.27 80.4567C100.449 80.4567 99.6725 80.4109 98.9876 80.2736C98.3027 80.1821 97.6635 80.0448 97.1156 79.8617C96.5678 79.7244 96.1112 79.5414 95.7003 79.3583C95.2893 79.1753 95.0154 79.038 94.7871 78.9007L95.6546 76.4751C96.1112 76.7497 96.8417 77.0243 97.7549 77.3447C98.7137 77.8481 99.8551 77.9854 101.225 77.9854Z" fill="white"/>
<path d="M124.919 59.1297V61.6926H118.344V80.0902H115.422V61.6468H108.848V59.084H124.919V59.1297Z" fill="white"/>
<path d="M136.29 80.0902C135.924 79.1749 135.605 78.3054 135.331 77.3901C135.011 76.5205 134.737 75.6052 134.372 74.6899H124.875L122.957 80.0444H119.898C120.72 77.8019 121.451 75.7883 122.181 73.8661C122.866 71.9898 123.597 70.2049 124.236 68.5116C124.921 66.8183 125.56 65.2165 126.245 63.6605C126.93 62.1045 127.615 60.5942 128.345 59.084H131.039C131.769 60.5942 132.454 62.1045 133.139 63.6605C133.824 65.2165 134.463 66.8183 135.148 68.5116C135.833 70.2049 136.518 71.9898 137.203 73.8661C137.888 75.7425 138.664 77.8019 139.486 80.0444H136.29V80.0902ZM133.504 72.3101C132.865 70.571 132.226 68.832 131.587 67.2302C130.948 65.5826 130.308 64.0266 129.624 62.4706C128.939 63.9809 128.254 65.5826 127.615 67.2302C126.975 68.8777 126.336 70.571 125.743 72.3101H133.504Z" fill="white"/>
<path d="M154.094 80.0902C153.638 79.358 153.136 78.4884 152.588 77.5731C151.994 76.6578 151.401 75.6967 150.716 74.6899C150.031 73.6831 149.346 72.6762 148.661 71.6694C147.931 70.6626 147.246 69.6557 146.515 68.6947C145.83 67.7336 145.145 66.8183 144.461 65.9945C143.776 65.125 143.182 64.3927 142.634 63.752V80.0902H139.758V59.084H142.086C143.045 60.0908 144.05 61.2807 145.1 62.6079C146.196 63.9351 147.246 65.3538 148.296 66.7725C149.346 68.1913 150.35 69.61 151.309 70.9829C152.268 72.3559 153.044 73.5916 153.683 74.6442V59.1297H156.56V80.0902H154.094Z" fill="white"/>
<path d="M173.773 59.1297V61.6926H167.198V80.0902H164.276V61.6468H157.701V59.084H173.773V59.1297Z" fill="white"/>
<path d="M176.697 72.2629C176.697 70.8899 176.88 69.6542 177.291 68.6016C177.702 67.549 178.25 66.6795 178.889 65.993C179.528 65.3065 180.304 64.8031 181.172 64.437C182.039 64.0709 182.907 63.9336 183.82 63.9336C185.92 63.9336 187.564 64.5743 188.705 65.9015C189.847 67.2287 190.395 69.2424 190.395 71.9425C190.395 72.0798 190.395 72.2171 190.395 72.4002C190.395 72.5832 190.395 72.7663 190.349 72.9493H179.574C179.711 74.5969 180.167 75.8325 180.989 76.6563C181.811 77.5259 183.089 77.9377 184.87 77.9377C185.874 77.9377 186.696 77.8462 187.381 77.6632C188.066 77.4801 188.568 77.3428 188.888 77.1597L189.299 79.5395C188.934 79.7226 188.34 79.9057 187.518 80.1345C186.651 80.3175 185.692 80.4548 184.596 80.4548C183.226 80.4548 182.039 80.226 181.035 79.8141C180.03 79.4022 179.208 78.8073 178.569 78.1208C177.93 77.3886 177.428 76.519 177.154 75.5122C176.88 74.5511 176.697 73.4528 176.697 72.2629ZM187.518 70.7068C187.518 69.4254 187.199 68.3728 186.559 67.5948C185.92 66.771 185.007 66.3592 183.866 66.3592C183.226 66.3592 182.633 66.4964 182.176 66.7253C181.674 66.9999 181.263 67.3202 180.943 67.7321C180.578 68.144 180.35 68.6016 180.122 69.1051C179.939 69.6085 179.802 70.1577 179.756 70.7068H187.518Z" fill="white"/>
<path d="M197.563 77.9854C200.622 77.9854 202.174 76.9328 202.174 74.8276C202.174 74.1869 202.037 73.6377 201.763 73.18C201.489 72.7224 201.124 72.3105 200.667 71.9901C200.211 71.6698 199.663 71.3494 199.069 71.1206C198.476 70.8918 197.837 70.6172 197.197 70.3883C196.421 70.1138 195.691 69.8392 195.006 69.473C194.321 69.1527 193.727 68.7408 193.225 68.2831C192.723 67.8255 192.312 67.2763 192.038 66.6814C191.764 66.0406 191.582 65.3084 191.582 64.3931C191.582 62.5625 192.221 61.1438 193.454 60.0912C194.686 59.0843 196.421 58.5352 198.613 58.5352C199.891 58.5352 201.033 58.6725 202.083 58.947C203.133 59.2216 203.863 59.4962 204.366 59.8623L203.407 62.2421C202.996 61.9675 202.357 61.7387 201.535 61.4641C200.713 61.1895 199.709 61.098 198.613 61.098C198.065 61.098 197.517 61.1438 197.06 61.2811C196.558 61.4184 196.147 61.6014 195.782 61.8303C195.417 62.0591 195.143 62.3794 194.915 62.7456C194.686 63.1117 194.595 63.5693 194.595 64.0727C194.595 64.6219 194.686 65.1253 194.915 65.4915C195.143 65.8576 195.462 66.2237 195.873 66.4983C196.284 66.7729 196.741 67.0475 197.289 67.3221C197.837 67.5509 198.43 67.8255 199.069 68.0543C199.983 68.4204 200.804 68.7866 201.581 69.1527C202.357 69.5188 202.996 69.9307 203.544 70.4341C204.092 70.9375 204.548 71.5325 204.822 72.219C205.142 72.9054 205.279 73.775 205.279 74.736C205.279 76.5666 204.594 77.9854 203.27 78.9922C201.946 79.999 200.028 80.4567 197.608 80.4567C196.787 80.4567 196.01 80.4109 195.325 80.2736C194.641 80.1821 194.001 80.0448 193.454 79.8617C192.906 79.6787 192.449 79.5414 192.038 79.3583C191.627 79.1753 191.353 79.038 191.125 78.9007L191.992 76.4751C192.449 76.7497 193.18 77.0243 194.093 77.3447C195.052 77.8481 196.193 77.9854 197.563 77.9854Z" fill="white"/>
<path d="M206.83 59.1289H209.752V80.0894H206.83V59.1289Z" fill="white"/>
<path d="M221.304 77.2073C221.121 76.7039 220.847 76.1089 220.482 75.3767C220.162 74.6444 219.797 73.8206 219.432 72.9511C219.066 72.0816 218.656 71.212 218.199 70.251C217.788 69.3357 217.377 68.4661 216.966 67.6423C216.601 66.8186 216.236 66.0863 215.916 65.4456C215.597 64.8049 215.323 64.3015 215.094 63.9811C214.866 66.3609 214.683 68.9238 214.546 71.7154C214.409 74.5071 214.272 77.2988 214.181 80.1362H211.305C211.396 78.3056 211.487 76.475 211.579 74.6444C211.67 72.8138 211.807 70.9832 211.944 69.1984C212.081 67.4135 212.218 65.6744 212.355 63.9811C212.492 62.2878 212.674 60.686 212.857 59.1758H215.414C215.962 60.0453 216.555 61.0979 217.149 62.3336C217.788 63.5235 218.382 64.8049 219.021 66.1321C219.66 67.4593 220.254 68.7865 220.847 70.1137C221.441 71.4409 221.943 72.6308 222.445 73.7291C222.947 72.6308 223.45 71.4409 224.043 70.1137C224.637 68.7865 225.23 67.4593 225.869 66.1321C226.509 64.8049 227.102 63.5235 227.741 62.3336C228.381 61.1437 228.929 60.0911 229.476 59.1758H232.033C232.718 65.949 233.22 72.9511 233.586 80.182H230.709C230.618 77.3446 230.481 74.5529 230.344 71.7612C230.207 68.9695 230.024 66.4067 229.796 64.0269C229.613 64.393 229.339 64.8507 228.974 65.4914C228.655 66.1321 228.289 66.8643 227.924 67.6881C227.559 68.5119 227.148 69.3814 226.691 70.2967C226.28 71.212 225.869 72.1273 225.459 72.9969C225.093 73.8664 224.728 74.6902 224.408 75.4224C224.089 76.1547 223.815 76.7954 223.587 77.253H221.304V77.2073Z" fill="white"/>
<path d="M234.544 47.8242H68.5781V50.9363H234.544V47.8242Z" fill="white"/>
</g>
<defs>
<clipPath id="clip0_3891_6223">
<rect width="235" height="91.21" fill="white"/>
</clipPath>
</defs>
</svg>
