<svg width="211" height="48" viewBox="0 0 211 48" fill="none" xmlns="http://www.w3.org/2000/svg">
<path d="M187.565 0.190605C184.879 0.628088 182.099 1.80382 179.658 3.52641C178.085 4.63379 175.685 7.03995 174.573 8.62582C173.61 10.0066 172.295 12.5495 171.752 14.0533C169.257 21.1078 170.125 28.9004 174.085 35.0389C177.095 39.6871 181.082 42.5991 186.263 43.9526C187.537 44.2807 187.863 44.308 191.728 44.3627C194.793 44.4174 195.945 44.3901 196.244 44.267C196.474 44.1713 198.441 42.148 200.949 39.4274C203.309 36.8708 205.411 34.5877 205.628 34.369C206.076 33.8905 206.103 33.494 205.696 33.3983C205.52 33.3573 201.668 33.3163 197.112 33.2889C187.904 33.2342 188.107 33.2616 186.33 32.2772C183.428 30.6777 181.326 27.6837 180.675 24.2385C180.418 22.9124 180.499 20.5746 180.838 19.2485C181.625 16.1861 183.795 13.3561 186.249 12.1394C187.646 11.4421 188.649 11.1824 190.263 11.0867C193.274 10.9089 195.959 12.112 197.993 14.5729C198.332 14.9693 198.78 15.5162 198.997 15.7759C199.742 16.6919 200.068 16.6509 191.552 16.6509C184.825 16.6509 183.876 16.6782 183.808 16.856C183.754 16.9653 183.808 17.1841 183.903 17.3208C184.445 18.0727 193.192 27.3419 193.518 27.5196C194.115 27.8341 210.619 27.8341 210.876 27.5196C211.012 27.3556 211.025 26.3712 210.971 23.1038C210.903 19.6586 210.849 18.6743 210.632 17.6079C208.991 9.69219 203.824 3.44438 196.976 1.09291C194.101 0.108577 190.304 -0.260549 187.565 0.190605Z" fill="white"/>
<path d="M55.8171 0.246657C51.4368 0.943896 46.8803 3.59614 43.9646 7.15069C41.5779 10.049 40.276 13.1251 39.6386 17.3358C39.4352 18.744 39.4081 20.2205 39.3945 31.4583C39.3945 43.7352 39.3945 44.0223 39.6522 44.2137C39.8692 44.3641 40.7506 44.4051 44.4122 44.4051C48.8195 44.4051 48.9145 44.4051 49.1721 44.118C49.4162 43.8446 49.4298 43.4891 49.3891 32.5247C49.3484 24.691 49.3891 20.7673 49.4976 19.7283C49.7552 17.1581 50.4876 15.5312 52.1556 13.836C52.9286 13.043 53.3761 12.7286 54.3932 12.2364C55.8578 11.5255 56.6986 11.3204 58.1089 11.3204C59.4922 11.3204 60.3601 11.5255 61.6891 12.1681C63.3028 12.9473 64.8081 14.4649 65.6082 16.1054C66.7067 18.3612 66.6389 17.3905 66.6931 31.4173C66.7338 42.6688 66.7609 43.9403 66.9508 44.159C67.1542 44.3914 67.5339 44.4051 71.6836 44.4051C76.6606 44.4051 76.525 44.4324 76.6877 43.5438C76.7284 43.2977 76.7419 37.4737 76.7013 30.597C76.6334 17.4862 76.6334 17.4315 76.0096 15.0391C75.4401 12.7696 74.1924 10.1037 72.7821 8.08034C71.6701 6.49446 69.5274 4.34806 67.9679 3.2817C66.2185 2.06495 64.1979 1.13529 62.2858 0.643126C60.9296 0.287672 60.3736 0.219315 58.6514 0.178301C57.5394 0.150958 56.2646 0.178301 55.8171 0.246657Z" fill="white"/>
<path d="M28.058 0.506072C27.7326 0.765827 27.7326 0.765827 27.6647 13.1247C27.5969 25.3196 27.5834 25.4836 27.2986 26.5363C26.39 29.7901 23.9219 32.2646 20.8842 32.9755C19.7586 33.2489 18.077 33.2489 16.965 32.9892C14.185 32.3193 11.744 29.8858 10.6591 26.7004C10.4014 25.9211 10.3878 25.511 10.3472 17.4722C10.32 12.8513 10.2794 8.92762 10.2387 8.74989C10.1437 8.32608 9.88608 8.38076 9.49281 8.91395C9.30295 9.16003 7.33658 11.3611 5.11255 13.7946C2.87496 16.2281 0.908597 18.4976 0.718741 18.8257C0.216978 19.6733 0 20.7397 0 22.4622C0 26.7277 0.745863 30.3233 2.29183 33.536C4.86845 38.8679 10.5099 43.2837 16.0022 44.2817C17.5753 44.5688 20.4095 44.5141 22.1318 44.1587C26.0917 43.3384 29.2514 41.5885 32.0586 38.6628C35.4895 35.0809 37.4423 30.6514 37.8356 25.6203C37.9034 24.718 37.9712 18.7573 37.9712 12.3728C37.9712 0.970898 37.9712 0.79317 37.7 0.519743C37.4423 0.259988 37.2525 0.246316 32.8994 0.246316C28.6412 0.246316 28.3564 0.259988 28.058 0.506072Z" fill="white"/>
<path d="M107.677 0.369906C105.046 0.766375 102.144 1.96945 99.3908 3.81508C97.9262 4.79942 95.4581 7.20558 94.4681 8.61372C90.6167 14.1096 89.2335 21.0136 90.6846 27.5895C91.4575 31.1578 93.112 34.4936 95.553 37.4603C98.4008 40.8918 102.523 43.2842 107.216 44.2139C108.816 44.542 111.786 44.542 113.399 44.2276C114.606 43.9815 116.803 43.2979 117.454 42.9561C117.671 42.8468 118.037 42.7647 118.281 42.7647C118.702 42.7647 118.919 42.9698 120.736 44.9521C122.228 46.579 122.824 47.1396 123.069 47.1396C123.299 47.1396 124.153 46.3056 126.581 43.6534C128.344 41.7257 129.808 40.0168 129.863 39.8254C129.971 39.3879 129.931 39.3332 128.262 37.5149C127.056 36.2025 126.798 35.847 126.798 35.5053C126.798 35.2455 127.083 34.5619 127.557 33.728C128.995 31.1714 129.998 28.0817 130.337 25.2107C130.568 23.2147 130.432 19.5371 130.053 17.7462C128.439 10.0492 123.462 3.96547 116.736 1.49096C114.62 0.711689 112.857 0.383577 110.525 0.31522C109.372 0.287878 108.084 0.31522 107.677 0.369906ZM111.921 11.5257C113.399 11.7855 114.335 12.1409 115.42 12.8382C118.295 14.7111 120.424 18.7579 120.424 22.3398C120.424 23.9393 119.61 27.2067 119.19 27.2888C119.068 27.3161 117.983 26.2498 116.505 24.6502C115.149 23.1874 113.969 21.9843 113.888 21.9843C113.711 21.9843 113.386 22.3261 109.982 26.0584C108.45 27.7399 107.148 29.2301 107.094 29.3531C106.917 29.7359 107.188 30.1461 108.667 31.7456C109.385 32.5249 109.982 33.2221 109.982 33.2768C109.982 33.4819 108.084 33.1811 107.012 32.7847C105.615 32.2651 104.49 31.5132 103.269 30.2418C101.113 28.027 100.082 25.115 100.259 21.6699C100.34 19.9063 100.584 18.9082 101.235 17.5138C102.768 14.219 105.222 12.1956 108.49 11.5257C109.684 11.2796 110.538 11.2796 111.921 11.5257Z" fill="white"/>
<path d="M159.412 0.588161C159.073 0.916273 159.073 0.916273 159.073 12.7146C159.073 24.8411 159.046 25.4837 158.517 27.0969C157.608 29.8722 155.113 32.292 152.482 32.9756C151.302 33.2763 149.336 33.2627 148.197 32.9346C145.39 32.1279 143.111 29.8038 142.081 26.7141C141.81 25.9075 141.796 25.5384 141.755 17.2262C141.701 7.57422 141.755 8.06638 140.779 9.10541C139.07 10.951 134.039 16.4469 133.429 17.1442C131.706 19.1128 131.517 19.5913 131.435 22.3256C131.259 28.8742 133.117 34.124 137.145 38.4714C140.033 41.5885 143.45 43.5435 147.275 44.2818C148.577 44.5415 151.845 44.5005 153.35 44.2271C161.338 42.7232 167.372 36.4071 168.905 27.9035C169.244 26.0852 169.379 19.0718 169.284 9.22845C169.203 0.765888 169.19 0.642846 168.918 0.437776C168.688 0.287391 167.847 0.246377 164.185 0.246377C159.737 0.246377 159.737 0.246377 159.412 0.588161Z" fill="white"/>
<path d="M83.4403 5.57858C80.7687 8.46323 78.6532 10.842 78.5583 11.0881C78.4362 11.4162 78.3955 15.504 78.3955 27.6578C78.382 42.0537 78.4091 43.831 78.599 44.1044C78.8024 44.4052 78.8024 44.4052 83.3996 44.4052C87.9968 44.4052 87.9968 44.4052 88.2681 44.0497C88.5528 43.6806 88.5528 43.6806 88.5257 22.1482C88.4986 6.05708 88.4444 0.602212 88.3223 0.561198C88.2409 0.533855 86.044 2.78963 83.4403 5.57858Z" fill="white"/>
</svg>
